M48
; DRILL file {KiCad 7.0.1} date Thu Dec 14 09:52:13 2023
; FORMAT={-:-/ absolute / metric / decimal}
; #@! TF.CreationDate,2023-12-14T09:52:13-06:00
; #@! TF.GenerationSoftware,Kicad,Pcbnew,7.0.1
; #@! TF.FileFunction,Plated,1,4,PTH
FMAT,2
METRIC
; #@! TA.AperFunction,Plated,PTH,ViaDrill
T1C0.400
; #@! TA.AperFunction,Plated,PTH,ComponentDrill
T2C0.600
; #@! TA.AperFunction,Plated,PTH,ComponentDrill
T3C1.000
; #@! TA.AperFunction,Plated,PTH,ComponentDrill
T4C1.016
; #@! TA.AperFunction,Plated,PTH,ComponentDrill
T5C2.600
; #@! TA.AperFunction,Plated,PTH,ComponentDrill
T6C5.500
%
G90
G05
T1
X123.78Y-56.14
X123.99Y-51.11
X124.38Y-150.04
X124.56Y-102.03
X126.54Y-122.84
X127.23Y-61.56
X127.85Y-47.9
X128.81Y-101.55
X130.29Y-58.65
X130.33Y-60.22
X131.16Y-119.67
X131.19Y-107.9
X131.43Y-122.76
X132.175Y-67.145
X132.298Y-116.752
X133.049Y-124.46
X133.86Y-91.01
X134.18Y-67.3
X135.41Y-115.7
X138.46Y-61.66
X140.82Y-77.06
X141.04Y-107.459
X141.04Y-135.48
X141.13Y-137.11
X141.867Y-108.121
X141.948Y-81.651
X142.17Y-80.44
X142.24Y-119.126
X142.389Y-105.961
X142.65Y-108.9
X142.954Y-106.526
X143.37Y-109.67
X143.644Y-107.216
X143.831Y-84.868
X144.397Y-107.794
X144.5Y-77.865
X144.56Y-75.523
X144.98Y-84.74
X145.085Y-76.4
X145.23Y-80.295
X145.78Y-56.29
X146.054Y-84.71
X146.558Y-64.008
X147.066Y-83.058
X148.0Y-59.89
X148.31Y-69.8
X148.34Y-78.67
X149.07Y-51.66
X149.098Y-64.008
X149.352Y-67.31
X149.83Y-83.62
X151.71Y-107.52
X152.21Y-122.91
X152.4Y-88.36
X152.54Y-90.715
X152.659Y-66.531
X152.83Y-119.06
X152.895Y-87.55
X153.924Y-87.539
X154.279Y-121.139
X154.47Y-115.98
X154.502Y-62.922
X154.867Y-87.089
X155.18Y-122.41
X155.35Y-82.44
X155.38Y-63.81
X155.62Y-73.31
X155.9Y-118.88
X156.32Y-89.313
X157.019Y-74.01
X157.15Y-87.89
X157.181Y-88.689
X157.19Y-86.26
X157.19Y-87.06
X157.23Y-113.55
X157.988Y-54.356
X158.75Y-60.706
X161.6Y-110.09
X162.97Y-148.03
X162.98Y-95.46
X163.37Y-145.92
X164.01Y-137.53
X164.338Y-113.792
X166.08Y-124.45
X166.68Y-134.33
X167.45Y-88.76
X167.63Y-53.04
X167.65Y-47.67
X167.76Y-117.43
X168.0Y-143.43
X171.15Y-143.55
X172.54Y-133.61
X172.55Y-116.11
X174.316Y-134.084
X174.51Y-139.67
X174.678Y-90.3
X175.17Y-143.24
X178.66Y-135.85
X178.77Y-137.45
X178.97Y-91.97
X179.5Y-111.91
X181.177Y-136.691
X182.52Y-142.482
X182.9Y-89.91
X183.3Y-135.71
X183.48Y-137.3
X185.34Y-99.24
X186.33Y-130.96
X186.409Y-138.164
X186.54Y-87.45
X187.77Y-92.75
X187.78Y-128.62
X189.71Y-149.23
X191.3Y-134.785
X191.77Y-137.287
X191.88Y-95.3
X194.89Y-156.28
X197.41Y-131.44
X199.01Y-141.94
X199.43Y-136.57
X203.72Y-87.06
X204.94Y-87.52
X205.04Y-131.13
X205.46Y-128.62
X206.756Y-129.794
X207.264Y-130.556
X208.534Y-128.27
X209.55Y-128.524
X210.47Y-155.56
X210.66Y-63.3
X212.03Y-57.26
X212.852Y-121.92
X212.852Y-128.27
X215.392Y-121.92
X215.392Y-128.27
T3
X128.02Y-51.08
X128.02Y-53.58
X128.02Y-56.08
X128.27Y-149.27
X128.27Y-151.77
X128.27Y-154.27
X142.52Y-51.08
X142.52Y-56.08
X142.77Y-149.27
X142.77Y-154.27
X168.04Y-128.34
X170.58Y-128.34
X173.12Y-128.34
X175.66Y-128.34
X178.2Y-128.34
X180.74Y-128.34
X183.28Y-128.34
T4
X210.68Y-65.25
X210.68Y-67.79
X210.68Y-70.33
X213.22Y-65.25
X213.22Y-67.79
X213.22Y-70.33
T5
X135.52Y-47.98
X135.52Y-59.18
X135.77Y-146.17
X135.77Y-157.37
T6
X214.37Y-49.51
X214.69Y-155.67
T2
G00X165.74Y-153.28
M15
G01X165.74Y-152.18
M16
G05
G00X165.74Y-157.28
M15
G01X165.74Y-156.48
M16
G05
G00X174.38Y-153.28
M15
G01X174.38Y-152.18
M16
G05
G00X174.38Y-157.28
M15
G01X174.38Y-156.48
M16
G05
T0
M30
