M48
; DRILL file {KiCad 7.0.7} date Sat Nov  4 09:33:53 2023
; FORMAT={-:-/ absolute / inch / decimal}
; #@! TF.CreationDate,2023-11-04T09:33:53-05:00
; #@! TF.GenerationSoftware,Kicad,Pcbnew,7.0.7
; #@! TF.FileFunction,Plated,1,4,PTH
FMAT,2
INCH
; #@! TA.AperFunction,Plated,PTH,ViaDrill
T1C0.0157
; #@! TA.AperFunction,Plated,PTH,ComponentDrill
T2C0.0236
; #@! TA.AperFunction,Plated,PTH,ComponentDrill
T3C0.0394
; #@! TA.AperFunction,Plated,PTH,ComponentDrill
T4C0.0400
; #@! TA.AperFunction,Plated,PTH,ComponentDrill
T5C0.1024
%
G90
G05
T1
X5.0803Y-3.5146
X5.1803Y-2.4465
X5.3917Y-2.3657
X5.5154Y-3.4138
X5.7673Y-4.1205
X5.7689Y-4.0311
X5.7724Y-4.6567
X5.7941Y-4.7327
X5.7996Y-1.9299
X5.8433Y-2.4374
X5.8543Y-4.0772
X5.8571Y-4.6807
X5.9287Y-4.6504
X5.9287Y-4.7413
X5.935Y-4.028
X5.9437Y-4.1236
X5.9461Y-2.6075
X5.9602Y-2.4949
X6.0224Y-3.1984
X6.1839Y-2.4374
X6.2091Y-2.1449
X6.2362Y-2.0591
X6.2949Y-4.1654
X6.2965Y-3.9846
X6.3232Y-4.7673
X6.3252Y-4.6283
X6.3701Y-4.0744
X6.3776Y-4.6937
X6.4165Y-4.624
X6.4228Y-4.7606
X6.4295Y-4.1626
X6.4394Y-3.9835
X6.4839Y-5.6645
X6.5425Y-3.8165
X6.6087Y-5.272
X6.6106Y-3.9276
X6.6637Y-5.612
X6.685Y-6.01
X6.69Y-5.43
X6.715Y-5.83
X6.725Y-5.695
X6.7322Y-6.02
X6.7587Y-5.272
X6.8337Y-5.282
X6.9079Y-3.8281
X6.9846Y-3.9189
X7.0679Y-5.3815
X7.1029Y-5.3815
X7.1329Y-5.3815
X7.1489Y-5.6095
X7.1629Y-5.3815
X7.1929Y-5.3815
X7.2239Y-5.5795
X7.2929Y-3.8281
X7.3389Y-5.4395
X7.3583Y-3.9181
X7.3646Y-3.8035
X7.5004Y-3.987
X7.5004Y-4.1646
X7.5024Y-4.7673
X7.5177Y-4.6197
X7.55Y-5.32
X7.55Y-5.405
X7.5673Y-4.078
X7.575Y-5.565
X7.5827Y-4.6937
X7.6217Y-4.6091
X7.6303Y-3.9846
X7.6327Y-4.1626
X7.6327Y-4.776
X7.8139Y-5.1695
X7.9551Y-2.9587
X7.9739Y-5.3145
X8.0142Y-4.726
X8.0161Y-4.0303
X8.0185Y-4.1059
X8.0239Y-5.2445
X8.0289Y-5.4545
X8.0291Y-4.661
X8.0589Y-5.1245
X8.1008Y-4.0736
X8.1008Y-4.7043
X8.1039Y-5.6895
X8.1439Y-5.1283
X8.1439Y-5.2445
X8.1441Y-4.0323
X8.1571Y-4.1039
X8.1594Y-4.7283
X8.1614Y-4.6567
X8.1639Y-5.1645
X8.2539Y-5.0645
X8.2839Y-5.0245
X8.4847Y-3.3939
X8.485Y-2.595
X8.485Y-2.755
X8.485Y-2.915
X8.485Y-3.075
X8.485Y-3.235
T3
X4.9189Y-2.0193
X4.9189Y-2.1193
X4.9189Y-2.3293
X4.9189Y-2.4293
X4.9315Y-4.1031
X4.9315Y-4.2031
X4.9315Y-5.9976
X4.9315Y-6.0976
X5.5661Y-5.8835
X5.5661Y-5.9819
X5.5661Y-6.0803
X6.0902Y-2.5976
X6.0902Y-2.6976
X6.0902Y-2.7976
X6.0902Y-2.8976
X6.0902Y-2.9976
X6.0902Y-3.0976
X6.0902Y-3.1976
X6.0902Y-3.2976
X6.137Y-5.8835
X6.137Y-6.0803
X7.3055Y-5.8866
X7.3055Y-5.985
X7.3055Y-6.0835
X7.7772Y-2.7197
X7.7772Y-2.8197
X7.7772Y-2.9197
X7.7772Y-3.0197
X7.7772Y-3.1197
X7.7772Y-3.2197
X7.7772Y-3.3197
X7.8764Y-5.8866
X7.8764Y-6.0835
T4
X5.8988Y-1.9284
X5.8988Y-2.0284
X5.9988Y-1.9284
X5.9988Y-2.0284
X6.0988Y-1.9284
X6.0988Y-2.0284
T5
X5.8614Y-5.7614
X5.8614Y-6.2024
X7.6008Y-5.7646
X7.6008Y-6.2055
T2
G00X6.526Y-6.0112
M15
G01X6.526Y-5.9679
M16
G05
G00X6.526Y-6.1687
M15
G01X6.526Y-6.1372
M16
G05
G00X6.8661Y-6.0112
M15
G01X6.8661Y-5.9679
M16
G05
G00X6.8661Y-6.1687
M15
G01X6.8661Y-6.1372
M16
G05
T0
M30
