%TF.GenerationSoftware,KiCad,Pcbnew,7.0.1*%
%TF.CreationDate,2023-12-14T09:52:10-06:00*%
%TF.ProjectId,ProjectNeoRogue,50726f6a-6563-4744-9e65-6f526f677565,v1*%
%TF.SameCoordinates,Original*%
%TF.FileFunction,Drillmap*%
%TF.FilePolarity,Positive*%
%FSLAX45Y45*%
G04 Gerber Fmt 4.5, Leading zero omitted, Abs format (unit mm)*
G04 Created by KiCad (PCBNEW 7.0.1) date 2023-12-14 09:52:10*
%MOMM*%
%LPD*%
G01*
G04 APERTURE LIST*
%ADD10C,0.100000*%
%ADD11C,0.200000*%
%ADD12C,0.040000*%
%ADD13C,0.060000*%
%ADD14C,0.101600*%
%ADD15C,0.260000*%
%ADD16C,0.550000*%
G04 APERTURE END LIST*
D10*
X12406000Y-4587000D02*
G75*
G03*
X12281000Y-4712000I0J-125000D01*
G01*
X21691612Y-4577388D02*
X12406000Y-4587000D01*
X12286000Y-15825000D02*
G75*
G03*
X12411000Y-15950000I125000J0D01*
G01*
X12281000Y-4712000D02*
X12286000Y-15825000D01*
X21816612Y-4702388D02*
G75*
G03*
X21691612Y-4577388I-125002J-2D01*
G01*
X12411000Y-15950000D02*
X21709612Y-15943612D01*
X21709612Y-15943612D02*
G75*
G03*
X21834612Y-15818612I-2J125002D01*
G01*
X21834612Y-15818612D02*
X21816612Y-4702388D01*
D11*
D12*
X12358000Y-5594000D02*
X12398000Y-5634000D01*
X12398000Y-5594000D02*
X12358000Y-5634000D01*
X12379000Y-5091000D02*
X12419000Y-5131000D01*
X12419000Y-5091000D02*
X12379000Y-5131000D01*
X12418000Y-14984000D02*
X12458000Y-15024000D01*
X12458000Y-14984000D02*
X12418000Y-15024000D01*
X12436050Y-10183000D02*
X12476050Y-10223000D01*
X12476050Y-10183000D02*
X12436050Y-10223000D01*
X12634000Y-12264000D02*
X12674000Y-12304000D01*
X12674000Y-12264000D02*
X12634000Y-12304000D01*
X12703000Y-6136000D02*
X12743000Y-6176000D01*
X12743000Y-6136000D02*
X12703000Y-6176000D01*
X12765000Y-4770000D02*
X12805000Y-4810000D01*
X12805000Y-4770000D02*
X12765000Y-4810000D01*
X12861000Y-10135000D02*
X12901000Y-10175000D01*
X12901000Y-10135000D02*
X12861000Y-10175000D01*
X13009000Y-5845000D02*
X13049000Y-5885000D01*
X13049000Y-5845000D02*
X13009000Y-5885000D01*
X13013000Y-6002000D02*
X13053000Y-6042000D01*
X13053000Y-6002000D02*
X13013000Y-6042000D01*
X13096000Y-11947000D02*
X13136000Y-11987000D01*
X13136000Y-11947000D02*
X13096000Y-11987000D01*
X13099000Y-10770000D02*
X13139000Y-10810000D01*
X13139000Y-10770000D02*
X13099000Y-10810000D01*
X13123000Y-12256000D02*
X13163000Y-12296000D01*
X13163000Y-12256000D02*
X13123000Y-12296000D01*
X13197500Y-6694500D02*
X13237500Y-6734500D01*
X13237500Y-6694500D02*
X13197500Y-6734500D01*
X13209757Y-11655240D02*
X13249757Y-11695240D01*
X13249757Y-11655240D02*
X13209757Y-11695240D01*
X13284950Y-12426000D02*
X13324950Y-12466000D01*
X13324950Y-12426000D02*
X13284950Y-12466000D01*
X13366000Y-9081000D02*
X13406000Y-9121000D01*
X13406000Y-9081000D02*
X13366000Y-9121000D01*
X13398000Y-6710000D02*
X13438000Y-6750000D01*
X13438000Y-6710000D02*
X13398000Y-6750000D01*
X13521000Y-11550000D02*
X13561000Y-11590000D01*
X13561000Y-11550000D02*
X13521000Y-11590000D01*
X13826000Y-6146000D02*
X13866000Y-6186000D01*
X13866000Y-6146000D02*
X13826000Y-6186000D01*
X14062000Y-7686000D02*
X14102000Y-7726000D01*
X14102000Y-7686000D02*
X14062000Y-7726000D01*
X14084000Y-10725900D02*
X14124000Y-10765900D01*
X14124000Y-10725900D02*
X14084000Y-10765900D01*
X14084000Y-13528000D02*
X14124000Y-13568000D01*
X14124000Y-13528000D02*
X14084000Y-13568000D01*
X14093000Y-13691000D02*
X14133000Y-13731000D01*
X14133000Y-13691000D02*
X14093000Y-13731000D01*
X14166667Y-10792140D02*
X14206667Y-10832140D01*
X14206667Y-10792140D02*
X14166667Y-10832140D01*
X14174798Y-8145090D02*
X14214798Y-8185090D01*
X14214798Y-8145090D02*
X14174798Y-8185090D01*
X14197000Y-8024000D02*
X14237000Y-8064000D01*
X14237000Y-8024000D02*
X14197000Y-8064000D01*
X14204000Y-11892600D02*
X14244000Y-11932600D01*
X14244000Y-11892600D02*
X14204000Y-11932600D01*
X14218858Y-10576140D02*
X14258858Y-10616140D01*
X14258858Y-10576140D02*
X14218858Y-10616140D01*
X14245000Y-10870000D02*
X14285000Y-10910000D01*
X14285000Y-10870000D02*
X14245000Y-10910000D01*
X14275359Y-10632641D02*
X14315359Y-10672641D01*
X14315359Y-10632641D02*
X14275359Y-10672641D01*
X14317000Y-10947000D02*
X14357000Y-10987000D01*
X14357000Y-10947000D02*
X14317000Y-10987000D01*
X14344359Y-10701641D02*
X14384359Y-10741641D01*
X14384359Y-10701641D02*
X14344359Y-10741641D01*
X14363050Y-8466816D02*
X14403050Y-8506816D01*
X14403050Y-8466816D02*
X14363050Y-8506816D01*
X14419685Y-10759447D02*
X14459685Y-10799447D01*
X14459685Y-10759447D02*
X14419685Y-10799447D01*
X14430050Y-7766545D02*
X14470050Y-7806545D01*
X14470050Y-7766545D02*
X14430050Y-7806545D01*
X14436050Y-7532277D02*
X14476050Y-7572277D01*
X14476050Y-7532277D02*
X14436050Y-7572277D01*
X14478000Y-8454000D02*
X14518000Y-8494000D01*
X14518000Y-8454000D02*
X14478000Y-8494000D01*
X14488550Y-7620000D02*
X14528550Y-7660000D01*
X14528550Y-7620000D02*
X14488550Y-7660000D01*
X14502950Y-8009538D02*
X14542950Y-8049538D01*
X14542950Y-8009538D02*
X14502950Y-8049538D01*
X14558000Y-5609000D02*
X14598000Y-5649000D01*
X14598000Y-5609000D02*
X14558000Y-5649000D01*
X14585436Y-8451000D02*
X14625436Y-8491000D01*
X14625436Y-8451000D02*
X14585436Y-8491000D01*
X14635800Y-6380800D02*
X14675800Y-6420800D01*
X14675800Y-6380800D02*
X14635800Y-6420800D01*
X14686600Y-8285800D02*
X14726600Y-8325800D01*
X14726600Y-8285800D02*
X14686600Y-8325800D01*
X14780000Y-5969000D02*
X14820000Y-6009000D01*
X14820000Y-5969000D02*
X14780000Y-6009000D01*
X14811000Y-6960000D02*
X14851000Y-7000000D01*
X14851000Y-6960000D02*
X14811000Y-7000000D01*
X14814000Y-7847000D02*
X14854000Y-7887000D01*
X14854000Y-7847000D02*
X14814000Y-7887000D01*
X14887000Y-5146000D02*
X14927000Y-5186000D01*
X14927000Y-5146000D02*
X14887000Y-5186000D01*
X14889800Y-6380800D02*
X14929800Y-6420800D01*
X14929800Y-6380800D02*
X14889800Y-6420800D01*
X14915200Y-6711000D02*
X14955200Y-6751000D01*
X14955200Y-6711000D02*
X14915200Y-6751000D01*
X14963000Y-8342000D02*
X15003000Y-8382000D01*
X15003000Y-8342000D02*
X14963000Y-8382000D01*
X15151000Y-10732000D02*
X15191000Y-10772000D01*
X15191000Y-10732000D02*
X15151000Y-10772000D01*
X15201000Y-12271000D02*
X15241000Y-12311000D01*
X15241000Y-12271000D02*
X15201000Y-12311000D01*
X15220000Y-8816000D02*
X15260000Y-8856000D01*
X15260000Y-8816000D02*
X15220000Y-8856000D01*
X15234000Y-9051450D02*
X15274000Y-9091450D01*
X15274000Y-9051450D02*
X15234000Y-9091450D01*
X15245947Y-6633053D02*
X15285947Y-6673053D01*
X15285947Y-6633053D02*
X15245947Y-6673053D01*
X15263000Y-11886000D02*
X15303000Y-11926000D01*
X15303000Y-11886000D02*
X15263000Y-11926000D01*
X15269462Y-8734951D02*
X15309462Y-8774951D01*
X15309462Y-8734951D02*
X15269462Y-8774951D01*
X15372400Y-8733940D02*
X15412400Y-8773940D01*
X15412400Y-8733940D02*
X15372400Y-8773940D01*
X15407943Y-12093942D02*
X15447943Y-12133942D01*
X15447943Y-12093942D02*
X15407943Y-12133942D01*
X15427000Y-11578000D02*
X15467000Y-11618000D01*
X15467000Y-11578000D02*
X15427000Y-11618000D01*
X15430200Y-6272200D02*
X15470200Y-6312200D01*
X15470200Y-6272200D02*
X15430200Y-6312200D01*
X15466686Y-8688940D02*
X15506686Y-8728940D01*
X15506686Y-8688940D02*
X15466686Y-8728940D01*
X15498000Y-12221000D02*
X15538000Y-12261000D01*
X15538000Y-12221000D02*
X15498000Y-12261000D01*
X15515000Y-8224000D02*
X15555000Y-8264000D01*
X15555000Y-8224000D02*
X15515000Y-8264000D01*
X15518000Y-6361000D02*
X15558000Y-6401000D01*
X15558000Y-6361000D02*
X15518000Y-6401000D01*
X15542050Y-7311050D02*
X15582050Y-7351050D01*
X15582050Y-7311050D02*
X15542050Y-7351050D01*
X15570000Y-11868000D02*
X15610000Y-11908000D01*
X15610000Y-11868000D02*
X15570000Y-11908000D01*
X15612000Y-8911340D02*
X15652000Y-8951340D01*
X15652000Y-8911340D02*
X15612000Y-8951340D01*
X15681950Y-7381000D02*
X15721950Y-7421000D01*
X15721950Y-7381000D02*
X15681950Y-7421000D01*
X15695000Y-8769000D02*
X15735000Y-8809000D01*
X15735000Y-8769000D02*
X15695000Y-8809000D01*
X15698113Y-8848890D02*
X15738113Y-8888890D01*
X15738113Y-8848890D02*
X15698113Y-8888890D01*
X15699000Y-8606000D02*
X15739000Y-8646000D01*
X15739000Y-8606000D02*
X15699000Y-8646000D01*
X15699000Y-8686000D02*
X15739000Y-8726000D01*
X15739000Y-8686000D02*
X15699000Y-8726000D01*
X15703000Y-11335000D02*
X15743000Y-11375000D01*
X15743000Y-11335000D02*
X15703000Y-11375000D01*
X15778800Y-5415600D02*
X15818800Y-5455600D01*
X15818800Y-5415600D02*
X15778800Y-5455600D01*
X15855000Y-6050600D02*
X15895000Y-6090600D01*
X15895000Y-6050600D02*
X15855000Y-6090600D01*
X16140000Y-10989000D02*
X16180000Y-11029000D01*
X16180000Y-10989000D02*
X16140000Y-11029000D01*
X16277000Y-14783000D02*
X16317000Y-14823000D01*
X16317000Y-14783000D02*
X16277000Y-14823000D01*
X16278000Y-9526000D02*
X16318000Y-9566000D01*
X16318000Y-9526000D02*
X16278000Y-9566000D01*
X16317000Y-14572000D02*
X16357000Y-14612000D01*
X16357000Y-14572000D02*
X16317000Y-14612000D01*
X16381000Y-13733000D02*
X16421000Y-13773000D01*
X16421000Y-13733000D02*
X16381000Y-13773000D01*
X16413800Y-11359200D02*
X16453800Y-11399200D01*
X16453800Y-11359200D02*
X16413800Y-11399200D01*
X16588000Y-12425000D02*
X16628000Y-12465000D01*
X16628000Y-12425000D02*
X16588000Y-12465000D01*
X16648000Y-13413000D02*
X16688000Y-13453000D01*
X16688000Y-13413000D02*
X16648000Y-13453000D01*
X16725000Y-8855950D02*
X16765000Y-8895950D01*
X16765000Y-8855950D02*
X16725000Y-8895950D01*
X16743000Y-5284000D02*
X16783000Y-5324000D01*
X16783000Y-5284000D02*
X16743000Y-5324000D01*
X16745000Y-4747000D02*
X16785000Y-4787000D01*
X16785000Y-4747000D02*
X16745000Y-4787000D01*
X16756000Y-11723000D02*
X16796000Y-11763000D01*
X16796000Y-11723000D02*
X16756000Y-11763000D01*
X16780000Y-14323000D02*
X16820000Y-14363000D01*
X16820000Y-14323000D02*
X16780000Y-14363000D01*
X17095000Y-14335000D02*
X17135000Y-14375000D01*
X17135000Y-14335000D02*
X17095000Y-14375000D01*
X17234000Y-13341000D02*
X17274000Y-13381000D01*
X17274000Y-13341000D02*
X17234000Y-13381000D01*
X17235000Y-11591000D02*
X17275000Y-11631000D01*
X17275000Y-11591000D02*
X17235000Y-11631000D01*
X17411590Y-13388411D02*
X17451590Y-13428411D01*
X17451590Y-13388411D02*
X17411590Y-13428411D01*
X17431000Y-13947000D02*
X17471000Y-13987000D01*
X17471000Y-13947000D02*
X17431000Y-13987000D01*
X17447778Y-9010000D02*
X17487778Y-9050000D01*
X17487778Y-9010000D02*
X17447778Y-9050000D01*
X17497000Y-14304000D02*
X17537000Y-14344000D01*
X17537000Y-14304000D02*
X17497000Y-14344000D01*
X17846000Y-13565000D02*
X17886000Y-13605000D01*
X17886000Y-13565000D02*
X17846000Y-13605000D01*
X17857000Y-13725000D02*
X17897000Y-13765000D01*
X17897000Y-13725000D02*
X17857000Y-13765000D01*
X17877000Y-9177000D02*
X17917000Y-9217000D01*
X17917000Y-9177000D02*
X17877000Y-9217000D01*
X17930000Y-11171000D02*
X17970000Y-11211000D01*
X17970000Y-11171000D02*
X17930000Y-11211000D01*
X18097660Y-13649080D02*
X18137660Y-13689080D01*
X18137660Y-13649080D02*
X18097660Y-13689080D01*
X18232000Y-14228200D02*
X18272000Y-14268200D01*
X18272000Y-14228200D02*
X18232000Y-14268200D01*
X18270038Y-8971038D02*
X18310038Y-9011038D01*
X18310038Y-8971038D02*
X18270038Y-9011038D01*
X18310000Y-13551000D02*
X18350000Y-13591000D01*
X18350000Y-13551000D02*
X18310000Y-13591000D01*
X18328000Y-13710000D02*
X18368000Y-13750000D01*
X18368000Y-13710000D02*
X18328000Y-13750000D01*
X18514000Y-9904000D02*
X18554000Y-9944000D01*
X18554000Y-9904000D02*
X18514000Y-9944000D01*
X18613000Y-13076000D02*
X18653000Y-13116000D01*
X18653000Y-13076000D02*
X18613000Y-13116000D01*
X18620900Y-13796400D02*
X18660900Y-13836400D01*
X18660900Y-13796400D02*
X18620900Y-13836400D01*
X18633962Y-8725038D02*
X18673962Y-8765038D01*
X18673962Y-8725038D02*
X18633962Y-8765038D01*
X18757000Y-9255000D02*
X18797000Y-9295000D01*
X18797000Y-9255000D02*
X18757000Y-9295000D01*
X18758000Y-12842000D02*
X18798000Y-12882000D01*
X18798000Y-12842000D02*
X18758000Y-12882000D01*
X18951000Y-14903000D02*
X18991000Y-14943000D01*
X18991000Y-14903000D02*
X18951000Y-14943000D01*
X19110000Y-13458500D02*
X19150000Y-13498500D01*
X19150000Y-13458500D02*
X19110000Y-13498500D01*
X19157000Y-13708700D02*
X19197000Y-13748700D01*
X19197000Y-13708700D02*
X19157000Y-13748700D01*
X19168000Y-9510000D02*
X19208000Y-9550000D01*
X19208000Y-9510000D02*
X19168000Y-9550000D01*
X19469000Y-15608000D02*
X19509000Y-15648000D01*
X19509000Y-15608000D02*
X19469000Y-15648000D01*
X19721000Y-13124000D02*
X19761000Y-13164000D01*
X19761000Y-13124000D02*
X19721000Y-13164000D01*
X19881000Y-14174000D02*
X19921000Y-14214000D01*
X19921000Y-14174000D02*
X19881000Y-14214000D01*
X19923000Y-13637000D02*
X19963000Y-13677000D01*
X19963000Y-13637000D02*
X19923000Y-13677000D01*
X20352000Y-8686000D02*
X20392000Y-8726000D01*
X20392000Y-8686000D02*
X20352000Y-8726000D01*
X20474000Y-8732000D02*
X20514000Y-8772000D01*
X20514000Y-8732000D02*
X20474000Y-8772000D01*
X20484000Y-13093000D02*
X20524000Y-13133000D01*
X20524000Y-13093000D02*
X20484000Y-13133000D01*
X20526000Y-12842000D02*
X20566000Y-12882000D01*
X20566000Y-12842000D02*
X20526000Y-12882000D01*
X20655600Y-12959400D02*
X20695600Y-12999400D01*
X20695600Y-12959400D02*
X20655600Y-12999400D01*
X20706400Y-13035600D02*
X20746400Y-13075600D01*
X20746400Y-13035600D02*
X20706400Y-13075600D01*
X20833400Y-12807000D02*
X20873400Y-12847000D01*
X20873400Y-12807000D02*
X20833400Y-12847000D01*
X20935000Y-12832400D02*
X20975000Y-12872400D01*
X20975000Y-12832400D02*
X20935000Y-12872400D01*
X21027000Y-15536000D02*
X21067000Y-15576000D01*
X21067000Y-15536000D02*
X21027000Y-15576000D01*
X21046000Y-6310000D02*
X21086000Y-6350000D01*
X21086000Y-6310000D02*
X21046000Y-6350000D01*
X21183000Y-5706000D02*
X21223000Y-5746000D01*
X21223000Y-5706000D02*
X21183000Y-5746000D01*
X21265200Y-12172000D02*
X21305200Y-12212000D01*
X21305200Y-12172000D02*
X21265200Y-12212000D01*
X21265200Y-12807000D02*
X21305200Y-12847000D01*
X21305200Y-12807000D02*
X21265200Y-12847000D01*
X21519200Y-12172000D02*
X21559200Y-12212000D01*
X21559200Y-12172000D02*
X21519200Y-12212000D01*
X21519200Y-12807000D02*
X21559200Y-12847000D01*
X21559200Y-12807000D02*
X21519200Y-12847000D01*
D13*
X16604000Y-15273000D02*
G75*
G03*
X16604000Y-15273000I-30000J0D01*
G01*
D11*
X16604000Y-15328000D02*
X16604000Y-15218000D01*
X16604000Y-15218000D02*
G75*
G03*
X16544000Y-15218000I-30000J0D01*
G01*
X16544000Y-15218000D02*
X16544000Y-15328000D01*
X16544000Y-15328000D02*
G75*
G03*
X16604000Y-15328000I30000J0D01*
G01*
D13*
X16604000Y-15688000D02*
G75*
G03*
X16604000Y-15688000I-30000J0D01*
G01*
D11*
X16604000Y-15728000D02*
X16604000Y-15648000D01*
X16604000Y-15648000D02*
G75*
G03*
X16544000Y-15648000I-30000J0D01*
G01*
X16544000Y-15648000D02*
X16544000Y-15728000D01*
X16544000Y-15728000D02*
G75*
G03*
X16604000Y-15728000I30000J0D01*
G01*
D13*
X17468000Y-15273000D02*
G75*
G03*
X17468000Y-15273000I-30000J0D01*
G01*
D11*
X17468000Y-15328000D02*
X17468000Y-15218000D01*
X17468000Y-15218000D02*
G75*
G03*
X17408000Y-15218000I-30000J0D01*
G01*
X17408000Y-15218000D02*
X17408000Y-15328000D01*
X17408000Y-15328000D02*
G75*
G03*
X17468000Y-15328000I30000J0D01*
G01*
D13*
X17468000Y-15688000D02*
G75*
G03*
X17468000Y-15688000I-30000J0D01*
G01*
D11*
X17468000Y-15728000D02*
X17468000Y-15648000D01*
X17468000Y-15648000D02*
G75*
G03*
X17408000Y-15648000I-30000J0D01*
G01*
X17408000Y-15648000D02*
X17408000Y-15728000D01*
X17408000Y-15728000D02*
G75*
G03*
X17468000Y-15728000I30000J0D01*
G01*
D10*
X12802000Y-5058000D02*
X12802000Y-5158000D01*
X12752000Y-5108000D02*
X12852000Y-5108000D01*
X12802000Y-5308000D02*
X12802000Y-5408000D01*
X12752000Y-5358000D02*
X12852000Y-5358000D01*
X12802000Y-5558000D02*
X12802000Y-5658000D01*
X12752000Y-5608000D02*
X12852000Y-5608000D01*
X12827000Y-14877000D02*
X12827000Y-14977000D01*
X12777000Y-14927000D02*
X12877000Y-14927000D01*
X12827000Y-15127000D02*
X12827000Y-15227000D01*
X12777000Y-15177000D02*
X12877000Y-15177000D01*
X12827000Y-15377000D02*
X12827000Y-15477000D01*
X12777000Y-15427000D02*
X12877000Y-15427000D01*
X14252000Y-5058000D02*
X14252000Y-5158000D01*
X14202000Y-5108000D02*
X14302000Y-5108000D01*
X14252000Y-5558000D02*
X14252000Y-5658000D01*
X14202000Y-5608000D02*
X14302000Y-5608000D01*
X14277000Y-14877000D02*
X14277000Y-14977000D01*
X14227000Y-14927000D02*
X14327000Y-14927000D01*
X14277000Y-15377000D02*
X14277000Y-15477000D01*
X14227000Y-15427000D02*
X14327000Y-15427000D01*
X16804000Y-12784000D02*
X16804000Y-12884000D01*
X16754000Y-12834000D02*
X16854000Y-12834000D01*
X17058000Y-12784000D02*
X17058000Y-12884000D01*
X17008000Y-12834000D02*
X17108000Y-12834000D01*
X17312000Y-12784000D02*
X17312000Y-12884000D01*
X17262000Y-12834000D02*
X17362000Y-12834000D01*
X17566000Y-12784000D02*
X17566000Y-12884000D01*
X17516000Y-12834000D02*
X17616000Y-12834000D01*
X17820000Y-12784000D02*
X17820000Y-12884000D01*
X17770000Y-12834000D02*
X17870000Y-12834000D01*
X18074000Y-12784000D02*
X18074000Y-12884000D01*
X18024000Y-12834000D02*
X18124000Y-12834000D01*
X18328000Y-12784000D02*
X18328000Y-12884000D01*
X18278000Y-12834000D02*
X18378000Y-12834000D01*
D14*
X21103921Y-6560921D02*
X21103921Y-6489079D01*
X21032079Y-6489079D01*
X21032079Y-6560921D01*
X21103921Y-6560921D01*
X21103921Y-6814921D02*
X21103921Y-6743079D01*
X21032079Y-6743079D01*
X21032079Y-6814921D01*
X21103921Y-6814921D01*
X21103921Y-7068921D02*
X21103921Y-6997079D01*
X21032079Y-6997079D01*
X21032079Y-7068921D01*
X21103921Y-7068921D01*
X21357921Y-6560921D02*
X21357921Y-6489079D01*
X21286079Y-6489079D01*
X21286079Y-6560921D01*
X21357921Y-6560921D01*
X21357921Y-6814921D02*
X21357921Y-6743079D01*
X21286079Y-6743079D01*
X21286079Y-6814921D01*
X21357921Y-6814921D01*
X21357921Y-7068921D02*
X21357921Y-6997079D01*
X21286079Y-6997079D01*
X21286079Y-7068921D01*
X21357921Y-7068921D01*
D15*
X13552000Y-4928000D02*
X13682000Y-4798000D01*
X13552000Y-4668000D01*
X13422000Y-4798000D01*
X13552000Y-4928000D01*
X13552000Y-6048000D02*
X13682000Y-5918000D01*
X13552000Y-5788000D01*
X13422000Y-5918000D01*
X13552000Y-6048000D01*
X13577000Y-14747000D02*
X13707000Y-14617000D01*
X13577000Y-14487000D01*
X13447000Y-14617000D01*
X13577000Y-14747000D01*
X13577000Y-15867000D02*
X13707000Y-15737000D01*
X13577000Y-15607000D01*
X13447000Y-15737000D01*
X13577000Y-15867000D01*
D16*
X21162000Y-4676000D02*
X21712000Y-5226000D01*
X21712000Y-4676000D02*
X21162000Y-5226000D01*
X21712000Y-4951000D02*
G75*
G03*
X21712000Y-4951000I-275000J0D01*
G01*
X21194000Y-15292000D02*
X21744000Y-15842000D01*
X21744000Y-15292000D02*
X21194000Y-15842000D01*
X21744000Y-15567000D02*
G75*
G03*
X21744000Y-15567000I-275000J0D01*
G01*
D11*
X12523619Y-16267524D02*
X12523619Y-16067524D01*
X12523619Y-16067524D02*
X12571238Y-16067524D01*
X12571238Y-16067524D02*
X12599809Y-16077048D01*
X12599809Y-16077048D02*
X12618857Y-16096095D01*
X12618857Y-16096095D02*
X12628381Y-16115143D01*
X12628381Y-16115143D02*
X12637905Y-16153238D01*
X12637905Y-16153238D02*
X12637905Y-16181809D01*
X12637905Y-16181809D02*
X12628381Y-16219905D01*
X12628381Y-16219905D02*
X12618857Y-16238952D01*
X12618857Y-16238952D02*
X12599809Y-16258000D01*
X12599809Y-16258000D02*
X12571238Y-16267524D01*
X12571238Y-16267524D02*
X12523619Y-16267524D01*
X12723619Y-16267524D02*
X12723619Y-16134190D01*
X12723619Y-16172286D02*
X12733143Y-16153238D01*
X12733143Y-16153238D02*
X12742667Y-16143714D01*
X12742667Y-16143714D02*
X12761714Y-16134190D01*
X12761714Y-16134190D02*
X12780762Y-16134190D01*
X12847428Y-16267524D02*
X12847428Y-16134190D01*
X12847428Y-16067524D02*
X12837905Y-16077048D01*
X12837905Y-16077048D02*
X12847428Y-16086571D01*
X12847428Y-16086571D02*
X12856952Y-16077048D01*
X12856952Y-16077048D02*
X12847428Y-16067524D01*
X12847428Y-16067524D02*
X12847428Y-16086571D01*
X12971238Y-16267524D02*
X12952190Y-16258000D01*
X12952190Y-16258000D02*
X12942667Y-16238952D01*
X12942667Y-16238952D02*
X12942667Y-16067524D01*
X13076000Y-16267524D02*
X13056952Y-16258000D01*
X13056952Y-16258000D02*
X13047428Y-16238952D01*
X13047428Y-16238952D02*
X13047428Y-16067524D01*
X13304571Y-16267524D02*
X13304571Y-16067524D01*
X13304571Y-16067524D02*
X13371238Y-16210381D01*
X13371238Y-16210381D02*
X13437905Y-16067524D01*
X13437905Y-16067524D02*
X13437905Y-16267524D01*
X13618857Y-16267524D02*
X13618857Y-16162762D01*
X13618857Y-16162762D02*
X13609333Y-16143714D01*
X13609333Y-16143714D02*
X13590286Y-16134190D01*
X13590286Y-16134190D02*
X13552190Y-16134190D01*
X13552190Y-16134190D02*
X13533143Y-16143714D01*
X13618857Y-16258000D02*
X13599809Y-16267524D01*
X13599809Y-16267524D02*
X13552190Y-16267524D01*
X13552190Y-16267524D02*
X13533143Y-16258000D01*
X13533143Y-16258000D02*
X13523619Y-16238952D01*
X13523619Y-16238952D02*
X13523619Y-16219905D01*
X13523619Y-16219905D02*
X13533143Y-16200857D01*
X13533143Y-16200857D02*
X13552190Y-16191333D01*
X13552190Y-16191333D02*
X13599809Y-16191333D01*
X13599809Y-16191333D02*
X13618857Y-16181809D01*
X13714095Y-16134190D02*
X13714095Y-16334190D01*
X13714095Y-16143714D02*
X13733143Y-16134190D01*
X13733143Y-16134190D02*
X13771238Y-16134190D01*
X13771238Y-16134190D02*
X13790286Y-16143714D01*
X13790286Y-16143714D02*
X13799809Y-16153238D01*
X13799809Y-16153238D02*
X13809333Y-16172286D01*
X13809333Y-16172286D02*
X13809333Y-16229428D01*
X13809333Y-16229428D02*
X13799809Y-16248476D01*
X13799809Y-16248476D02*
X13790286Y-16258000D01*
X13790286Y-16258000D02*
X13771238Y-16267524D01*
X13771238Y-16267524D02*
X13733143Y-16267524D01*
X13733143Y-16267524D02*
X13714095Y-16258000D01*
X13895048Y-16248476D02*
X13904571Y-16258000D01*
X13904571Y-16258000D02*
X13895048Y-16267524D01*
X13895048Y-16267524D02*
X13885524Y-16258000D01*
X13885524Y-16258000D02*
X13895048Y-16248476D01*
X13895048Y-16248476D02*
X13895048Y-16267524D01*
X13895048Y-16143714D02*
X13904571Y-16153238D01*
X13904571Y-16153238D02*
X13895048Y-16162762D01*
X13895048Y-16162762D02*
X13885524Y-16153238D01*
X13885524Y-16153238D02*
X13895048Y-16143714D01*
X13895048Y-16143714D02*
X13895048Y-16162762D01*
D12*
X12236000Y-16575000D02*
X12276000Y-16615000D01*
X12276000Y-16575000D02*
X12236000Y-16615000D01*
D11*
X12561714Y-16487524D02*
X12580762Y-16487524D01*
X12580762Y-16487524D02*
X12599809Y-16497048D01*
X12599809Y-16497048D02*
X12609333Y-16506571D01*
X12609333Y-16506571D02*
X12618857Y-16525619D01*
X12618857Y-16525619D02*
X12628381Y-16563714D01*
X12628381Y-16563714D02*
X12628381Y-16611333D01*
X12628381Y-16611333D02*
X12618857Y-16649428D01*
X12618857Y-16649428D02*
X12609333Y-16668476D01*
X12609333Y-16668476D02*
X12599809Y-16678000D01*
X12599809Y-16678000D02*
X12580762Y-16687524D01*
X12580762Y-16687524D02*
X12561714Y-16687524D01*
X12561714Y-16687524D02*
X12542667Y-16678000D01*
X12542667Y-16678000D02*
X12533143Y-16668476D01*
X12533143Y-16668476D02*
X12523619Y-16649428D01*
X12523619Y-16649428D02*
X12514095Y-16611333D01*
X12514095Y-16611333D02*
X12514095Y-16563714D01*
X12514095Y-16563714D02*
X12523619Y-16525619D01*
X12523619Y-16525619D02*
X12533143Y-16506571D01*
X12533143Y-16506571D02*
X12542667Y-16497048D01*
X12542667Y-16497048D02*
X12561714Y-16487524D01*
X12714095Y-16668476D02*
X12723619Y-16678000D01*
X12723619Y-16678000D02*
X12714095Y-16687524D01*
X12714095Y-16687524D02*
X12704571Y-16678000D01*
X12704571Y-16678000D02*
X12714095Y-16668476D01*
X12714095Y-16668476D02*
X12714095Y-16687524D01*
X12895048Y-16554190D02*
X12895048Y-16687524D01*
X12847428Y-16478000D02*
X12799809Y-16620857D01*
X12799809Y-16620857D02*
X12923619Y-16620857D01*
X13037905Y-16487524D02*
X13056952Y-16487524D01*
X13056952Y-16487524D02*
X13076000Y-16497048D01*
X13076000Y-16497048D02*
X13085524Y-16506571D01*
X13085524Y-16506571D02*
X13095048Y-16525619D01*
X13095048Y-16525619D02*
X13104571Y-16563714D01*
X13104571Y-16563714D02*
X13104571Y-16611333D01*
X13104571Y-16611333D02*
X13095048Y-16649428D01*
X13095048Y-16649428D02*
X13085524Y-16668476D01*
X13085524Y-16668476D02*
X13076000Y-16678000D01*
X13076000Y-16678000D02*
X13056952Y-16687524D01*
X13056952Y-16687524D02*
X13037905Y-16687524D01*
X13037905Y-16687524D02*
X13018857Y-16678000D01*
X13018857Y-16678000D02*
X13009333Y-16668476D01*
X13009333Y-16668476D02*
X12999809Y-16649428D01*
X12999809Y-16649428D02*
X12990286Y-16611333D01*
X12990286Y-16611333D02*
X12990286Y-16563714D01*
X12990286Y-16563714D02*
X12999809Y-16525619D01*
X12999809Y-16525619D02*
X13009333Y-16506571D01*
X13009333Y-16506571D02*
X13018857Y-16497048D01*
X13018857Y-16497048D02*
X13037905Y-16487524D01*
X13228381Y-16487524D02*
X13247429Y-16487524D01*
X13247429Y-16487524D02*
X13266476Y-16497048D01*
X13266476Y-16497048D02*
X13276000Y-16506571D01*
X13276000Y-16506571D02*
X13285524Y-16525619D01*
X13285524Y-16525619D02*
X13295048Y-16563714D01*
X13295048Y-16563714D02*
X13295048Y-16611333D01*
X13295048Y-16611333D02*
X13285524Y-16649428D01*
X13285524Y-16649428D02*
X13276000Y-16668476D01*
X13276000Y-16668476D02*
X13266476Y-16678000D01*
X13266476Y-16678000D02*
X13247429Y-16687524D01*
X13247429Y-16687524D02*
X13228381Y-16687524D01*
X13228381Y-16687524D02*
X13209333Y-16678000D01*
X13209333Y-16678000D02*
X13199809Y-16668476D01*
X13199809Y-16668476D02*
X13190286Y-16649428D01*
X13190286Y-16649428D02*
X13180762Y-16611333D01*
X13180762Y-16611333D02*
X13180762Y-16563714D01*
X13180762Y-16563714D02*
X13190286Y-16525619D01*
X13190286Y-16525619D02*
X13199809Y-16506571D01*
X13199809Y-16506571D02*
X13209333Y-16497048D01*
X13209333Y-16497048D02*
X13228381Y-16487524D01*
X13380762Y-16687524D02*
X13380762Y-16554190D01*
X13380762Y-16573238D02*
X13390286Y-16563714D01*
X13390286Y-16563714D02*
X13409333Y-16554190D01*
X13409333Y-16554190D02*
X13437905Y-16554190D01*
X13437905Y-16554190D02*
X13456952Y-16563714D01*
X13456952Y-16563714D02*
X13466476Y-16582762D01*
X13466476Y-16582762D02*
X13466476Y-16687524D01*
X13466476Y-16582762D02*
X13476000Y-16563714D01*
X13476000Y-16563714D02*
X13495048Y-16554190D01*
X13495048Y-16554190D02*
X13523619Y-16554190D01*
X13523619Y-16554190D02*
X13542667Y-16563714D01*
X13542667Y-16563714D02*
X13552190Y-16582762D01*
X13552190Y-16582762D02*
X13552190Y-16687524D01*
X13647429Y-16687524D02*
X13647429Y-16554190D01*
X13647429Y-16573238D02*
X13656952Y-16563714D01*
X13656952Y-16563714D02*
X13676000Y-16554190D01*
X13676000Y-16554190D02*
X13704571Y-16554190D01*
X13704571Y-16554190D02*
X13723619Y-16563714D01*
X13723619Y-16563714D02*
X13733143Y-16582762D01*
X13733143Y-16582762D02*
X13733143Y-16687524D01*
X13733143Y-16582762D02*
X13742667Y-16563714D01*
X13742667Y-16563714D02*
X13761714Y-16554190D01*
X13761714Y-16554190D02*
X13790286Y-16554190D01*
X13790286Y-16554190D02*
X13809333Y-16563714D01*
X13809333Y-16563714D02*
X13818857Y-16582762D01*
X13818857Y-16582762D02*
X13818857Y-16687524D01*
X14209333Y-16478000D02*
X14037905Y-16735143D01*
X14466476Y-16487524D02*
X14485524Y-16487524D01*
X14485524Y-16487524D02*
X14504572Y-16497048D01*
X14504572Y-16497048D02*
X14514095Y-16506571D01*
X14514095Y-16506571D02*
X14523619Y-16525619D01*
X14523619Y-16525619D02*
X14533143Y-16563714D01*
X14533143Y-16563714D02*
X14533143Y-16611333D01*
X14533143Y-16611333D02*
X14523619Y-16649428D01*
X14523619Y-16649428D02*
X14514095Y-16668476D01*
X14514095Y-16668476D02*
X14504572Y-16678000D01*
X14504572Y-16678000D02*
X14485524Y-16687524D01*
X14485524Y-16687524D02*
X14466476Y-16687524D01*
X14466476Y-16687524D02*
X14447429Y-16678000D01*
X14447429Y-16678000D02*
X14437905Y-16668476D01*
X14437905Y-16668476D02*
X14428381Y-16649428D01*
X14428381Y-16649428D02*
X14418857Y-16611333D01*
X14418857Y-16611333D02*
X14418857Y-16563714D01*
X14418857Y-16563714D02*
X14428381Y-16525619D01*
X14428381Y-16525619D02*
X14437905Y-16506571D01*
X14437905Y-16506571D02*
X14447429Y-16497048D01*
X14447429Y-16497048D02*
X14466476Y-16487524D01*
X14618857Y-16668476D02*
X14628381Y-16678000D01*
X14628381Y-16678000D02*
X14618857Y-16687524D01*
X14618857Y-16687524D02*
X14609333Y-16678000D01*
X14609333Y-16678000D02*
X14618857Y-16668476D01*
X14618857Y-16668476D02*
X14618857Y-16687524D01*
X14752191Y-16487524D02*
X14771238Y-16487524D01*
X14771238Y-16487524D02*
X14790286Y-16497048D01*
X14790286Y-16497048D02*
X14799810Y-16506571D01*
X14799810Y-16506571D02*
X14809333Y-16525619D01*
X14809333Y-16525619D02*
X14818857Y-16563714D01*
X14818857Y-16563714D02*
X14818857Y-16611333D01*
X14818857Y-16611333D02*
X14809333Y-16649428D01*
X14809333Y-16649428D02*
X14799810Y-16668476D01*
X14799810Y-16668476D02*
X14790286Y-16678000D01*
X14790286Y-16678000D02*
X14771238Y-16687524D01*
X14771238Y-16687524D02*
X14752191Y-16687524D01*
X14752191Y-16687524D02*
X14733143Y-16678000D01*
X14733143Y-16678000D02*
X14723619Y-16668476D01*
X14723619Y-16668476D02*
X14714095Y-16649428D01*
X14714095Y-16649428D02*
X14704572Y-16611333D01*
X14704572Y-16611333D02*
X14704572Y-16563714D01*
X14704572Y-16563714D02*
X14714095Y-16525619D01*
X14714095Y-16525619D02*
X14723619Y-16506571D01*
X14723619Y-16506571D02*
X14733143Y-16497048D01*
X14733143Y-16497048D02*
X14752191Y-16487524D01*
X15009333Y-16687524D02*
X14895048Y-16687524D01*
X14952191Y-16687524D02*
X14952191Y-16487524D01*
X14952191Y-16487524D02*
X14933143Y-16516095D01*
X14933143Y-16516095D02*
X14914095Y-16535143D01*
X14914095Y-16535143D02*
X14895048Y-16544667D01*
X15190286Y-16487524D02*
X15095048Y-16487524D01*
X15095048Y-16487524D02*
X15085524Y-16582762D01*
X15085524Y-16582762D02*
X15095048Y-16573238D01*
X15095048Y-16573238D02*
X15114095Y-16563714D01*
X15114095Y-16563714D02*
X15161714Y-16563714D01*
X15161714Y-16563714D02*
X15180762Y-16573238D01*
X15180762Y-16573238D02*
X15190286Y-16582762D01*
X15190286Y-16582762D02*
X15199810Y-16601809D01*
X15199810Y-16601809D02*
X15199810Y-16649428D01*
X15199810Y-16649428D02*
X15190286Y-16668476D01*
X15190286Y-16668476D02*
X15180762Y-16678000D01*
X15180762Y-16678000D02*
X15161714Y-16687524D01*
X15161714Y-16687524D02*
X15114095Y-16687524D01*
X15114095Y-16687524D02*
X15095048Y-16678000D01*
X15095048Y-16678000D02*
X15085524Y-16668476D01*
X15266476Y-16487524D02*
X15399810Y-16487524D01*
X15399810Y-16487524D02*
X15314095Y-16687524D01*
X15466476Y-16487524D02*
X15466476Y-16525619D01*
X15542667Y-16487524D02*
X15542667Y-16525619D01*
X15837905Y-16763714D02*
X15828381Y-16754190D01*
X15828381Y-16754190D02*
X15809334Y-16725619D01*
X15809334Y-16725619D02*
X15799810Y-16706571D01*
X15799810Y-16706571D02*
X15790286Y-16678000D01*
X15790286Y-16678000D02*
X15780762Y-16630381D01*
X15780762Y-16630381D02*
X15780762Y-16592286D01*
X15780762Y-16592286D02*
X15790286Y-16544667D01*
X15790286Y-16544667D02*
X15799810Y-16516095D01*
X15799810Y-16516095D02*
X15809334Y-16497048D01*
X15809334Y-16497048D02*
X15828381Y-16468476D01*
X15828381Y-16468476D02*
X15837905Y-16458952D01*
X16018857Y-16687524D02*
X15904572Y-16687524D01*
X15961714Y-16687524D02*
X15961714Y-16487524D01*
X15961714Y-16487524D02*
X15942667Y-16516095D01*
X15942667Y-16516095D02*
X15923619Y-16535143D01*
X15923619Y-16535143D02*
X15904572Y-16544667D01*
X16085524Y-16487524D02*
X16209334Y-16487524D01*
X16209334Y-16487524D02*
X16142667Y-16563714D01*
X16142667Y-16563714D02*
X16171238Y-16563714D01*
X16171238Y-16563714D02*
X16190286Y-16573238D01*
X16190286Y-16573238D02*
X16199810Y-16582762D01*
X16199810Y-16582762D02*
X16209334Y-16601809D01*
X16209334Y-16601809D02*
X16209334Y-16649428D01*
X16209334Y-16649428D02*
X16199810Y-16668476D01*
X16199810Y-16668476D02*
X16190286Y-16678000D01*
X16190286Y-16678000D02*
X16171238Y-16687524D01*
X16171238Y-16687524D02*
X16114095Y-16687524D01*
X16114095Y-16687524D02*
X16095048Y-16678000D01*
X16095048Y-16678000D02*
X16085524Y-16668476D01*
X16390286Y-16487524D02*
X16295048Y-16487524D01*
X16295048Y-16487524D02*
X16285524Y-16582762D01*
X16285524Y-16582762D02*
X16295048Y-16573238D01*
X16295048Y-16573238D02*
X16314095Y-16563714D01*
X16314095Y-16563714D02*
X16361715Y-16563714D01*
X16361715Y-16563714D02*
X16380762Y-16573238D01*
X16380762Y-16573238D02*
X16390286Y-16582762D01*
X16390286Y-16582762D02*
X16399810Y-16601809D01*
X16399810Y-16601809D02*
X16399810Y-16649428D01*
X16399810Y-16649428D02*
X16390286Y-16668476D01*
X16390286Y-16668476D02*
X16380762Y-16678000D01*
X16380762Y-16678000D02*
X16361715Y-16687524D01*
X16361715Y-16687524D02*
X16314095Y-16687524D01*
X16314095Y-16687524D02*
X16295048Y-16678000D01*
X16295048Y-16678000D02*
X16285524Y-16668476D01*
X16637905Y-16687524D02*
X16637905Y-16487524D01*
X16723619Y-16687524D02*
X16723619Y-16582762D01*
X16723619Y-16582762D02*
X16714096Y-16563714D01*
X16714096Y-16563714D02*
X16695048Y-16554190D01*
X16695048Y-16554190D02*
X16666476Y-16554190D01*
X16666476Y-16554190D02*
X16647429Y-16563714D01*
X16647429Y-16563714D02*
X16637905Y-16573238D01*
X16847429Y-16687524D02*
X16828381Y-16678000D01*
X16828381Y-16678000D02*
X16818858Y-16668476D01*
X16818858Y-16668476D02*
X16809334Y-16649428D01*
X16809334Y-16649428D02*
X16809334Y-16592286D01*
X16809334Y-16592286D02*
X16818858Y-16573238D01*
X16818858Y-16573238D02*
X16828381Y-16563714D01*
X16828381Y-16563714D02*
X16847429Y-16554190D01*
X16847429Y-16554190D02*
X16876000Y-16554190D01*
X16876000Y-16554190D02*
X16895048Y-16563714D01*
X16895048Y-16563714D02*
X16904572Y-16573238D01*
X16904572Y-16573238D02*
X16914096Y-16592286D01*
X16914096Y-16592286D02*
X16914096Y-16649428D01*
X16914096Y-16649428D02*
X16904572Y-16668476D01*
X16904572Y-16668476D02*
X16895048Y-16678000D01*
X16895048Y-16678000D02*
X16876000Y-16687524D01*
X16876000Y-16687524D02*
X16847429Y-16687524D01*
X17028381Y-16687524D02*
X17009334Y-16678000D01*
X17009334Y-16678000D02*
X16999810Y-16658952D01*
X16999810Y-16658952D02*
X16999810Y-16487524D01*
X17180762Y-16678000D02*
X17161715Y-16687524D01*
X17161715Y-16687524D02*
X17123619Y-16687524D01*
X17123619Y-16687524D02*
X17104572Y-16678000D01*
X17104572Y-16678000D02*
X17095048Y-16658952D01*
X17095048Y-16658952D02*
X17095048Y-16582762D01*
X17095048Y-16582762D02*
X17104572Y-16563714D01*
X17104572Y-16563714D02*
X17123619Y-16554190D01*
X17123619Y-16554190D02*
X17161715Y-16554190D01*
X17161715Y-16554190D02*
X17180762Y-16563714D01*
X17180762Y-16563714D02*
X17190286Y-16582762D01*
X17190286Y-16582762D02*
X17190286Y-16601809D01*
X17190286Y-16601809D02*
X17095048Y-16620857D01*
X17266477Y-16678000D02*
X17285524Y-16687524D01*
X17285524Y-16687524D02*
X17323619Y-16687524D01*
X17323619Y-16687524D02*
X17342667Y-16678000D01*
X17342667Y-16678000D02*
X17352191Y-16658952D01*
X17352191Y-16658952D02*
X17352191Y-16649428D01*
X17352191Y-16649428D02*
X17342667Y-16630381D01*
X17342667Y-16630381D02*
X17323619Y-16620857D01*
X17323619Y-16620857D02*
X17295048Y-16620857D01*
X17295048Y-16620857D02*
X17276000Y-16611333D01*
X17276000Y-16611333D02*
X17266477Y-16592286D01*
X17266477Y-16592286D02*
X17266477Y-16582762D01*
X17266477Y-16582762D02*
X17276000Y-16563714D01*
X17276000Y-16563714D02*
X17295048Y-16554190D01*
X17295048Y-16554190D02*
X17323619Y-16554190D01*
X17323619Y-16554190D02*
X17342667Y-16563714D01*
X17418858Y-16763714D02*
X17428381Y-16754190D01*
X17428381Y-16754190D02*
X17447429Y-16725619D01*
X17447429Y-16725619D02*
X17456953Y-16706571D01*
X17456953Y-16706571D02*
X17466477Y-16678000D01*
X17466477Y-16678000D02*
X17476000Y-16630381D01*
X17476000Y-16630381D02*
X17476000Y-16592286D01*
X17476000Y-16592286D02*
X17466477Y-16544667D01*
X17466477Y-16544667D02*
X17456953Y-16516095D01*
X17456953Y-16516095D02*
X17447429Y-16497048D01*
X17447429Y-16497048D02*
X17428381Y-16468476D01*
X17428381Y-16468476D02*
X17418858Y-16458952D01*
D13*
X12276000Y-16859000D02*
G75*
G03*
X12276000Y-16859000I-30000J0D01*
G01*
D11*
X12561714Y-16751524D02*
X12580762Y-16751524D01*
X12580762Y-16751524D02*
X12599809Y-16761048D01*
X12599809Y-16761048D02*
X12609333Y-16770571D01*
X12609333Y-16770571D02*
X12618857Y-16789619D01*
X12618857Y-16789619D02*
X12628381Y-16827714D01*
X12628381Y-16827714D02*
X12628381Y-16875333D01*
X12628381Y-16875333D02*
X12618857Y-16913429D01*
X12618857Y-16913429D02*
X12609333Y-16932476D01*
X12609333Y-16932476D02*
X12599809Y-16942000D01*
X12599809Y-16942000D02*
X12580762Y-16951524D01*
X12580762Y-16951524D02*
X12561714Y-16951524D01*
X12561714Y-16951524D02*
X12542667Y-16942000D01*
X12542667Y-16942000D02*
X12533143Y-16932476D01*
X12533143Y-16932476D02*
X12523619Y-16913429D01*
X12523619Y-16913429D02*
X12514095Y-16875333D01*
X12514095Y-16875333D02*
X12514095Y-16827714D01*
X12514095Y-16827714D02*
X12523619Y-16789619D01*
X12523619Y-16789619D02*
X12533143Y-16770571D01*
X12533143Y-16770571D02*
X12542667Y-16761048D01*
X12542667Y-16761048D02*
X12561714Y-16751524D01*
X12714095Y-16932476D02*
X12723619Y-16942000D01*
X12723619Y-16942000D02*
X12714095Y-16951524D01*
X12714095Y-16951524D02*
X12704571Y-16942000D01*
X12704571Y-16942000D02*
X12714095Y-16932476D01*
X12714095Y-16932476D02*
X12714095Y-16951524D01*
X12895048Y-16751524D02*
X12856952Y-16751524D01*
X12856952Y-16751524D02*
X12837905Y-16761048D01*
X12837905Y-16761048D02*
X12828381Y-16770571D01*
X12828381Y-16770571D02*
X12809333Y-16799143D01*
X12809333Y-16799143D02*
X12799809Y-16837238D01*
X12799809Y-16837238D02*
X12799809Y-16913429D01*
X12799809Y-16913429D02*
X12809333Y-16932476D01*
X12809333Y-16932476D02*
X12818857Y-16942000D01*
X12818857Y-16942000D02*
X12837905Y-16951524D01*
X12837905Y-16951524D02*
X12876000Y-16951524D01*
X12876000Y-16951524D02*
X12895048Y-16942000D01*
X12895048Y-16942000D02*
X12904571Y-16932476D01*
X12904571Y-16932476D02*
X12914095Y-16913429D01*
X12914095Y-16913429D02*
X12914095Y-16865810D01*
X12914095Y-16865810D02*
X12904571Y-16846762D01*
X12904571Y-16846762D02*
X12895048Y-16837238D01*
X12895048Y-16837238D02*
X12876000Y-16827714D01*
X12876000Y-16827714D02*
X12837905Y-16827714D01*
X12837905Y-16827714D02*
X12818857Y-16837238D01*
X12818857Y-16837238D02*
X12809333Y-16846762D01*
X12809333Y-16846762D02*
X12799809Y-16865810D01*
X13037905Y-16751524D02*
X13056952Y-16751524D01*
X13056952Y-16751524D02*
X13076000Y-16761048D01*
X13076000Y-16761048D02*
X13085524Y-16770571D01*
X13085524Y-16770571D02*
X13095048Y-16789619D01*
X13095048Y-16789619D02*
X13104571Y-16827714D01*
X13104571Y-16827714D02*
X13104571Y-16875333D01*
X13104571Y-16875333D02*
X13095048Y-16913429D01*
X13095048Y-16913429D02*
X13085524Y-16932476D01*
X13085524Y-16932476D02*
X13076000Y-16942000D01*
X13076000Y-16942000D02*
X13056952Y-16951524D01*
X13056952Y-16951524D02*
X13037905Y-16951524D01*
X13037905Y-16951524D02*
X13018857Y-16942000D01*
X13018857Y-16942000D02*
X13009333Y-16932476D01*
X13009333Y-16932476D02*
X12999809Y-16913429D01*
X12999809Y-16913429D02*
X12990286Y-16875333D01*
X12990286Y-16875333D02*
X12990286Y-16827714D01*
X12990286Y-16827714D02*
X12999809Y-16789619D01*
X12999809Y-16789619D02*
X13009333Y-16770571D01*
X13009333Y-16770571D02*
X13018857Y-16761048D01*
X13018857Y-16761048D02*
X13037905Y-16751524D01*
X13228381Y-16751524D02*
X13247429Y-16751524D01*
X13247429Y-16751524D02*
X13266476Y-16761048D01*
X13266476Y-16761048D02*
X13276000Y-16770571D01*
X13276000Y-16770571D02*
X13285524Y-16789619D01*
X13285524Y-16789619D02*
X13295048Y-16827714D01*
X13295048Y-16827714D02*
X13295048Y-16875333D01*
X13295048Y-16875333D02*
X13285524Y-16913429D01*
X13285524Y-16913429D02*
X13276000Y-16932476D01*
X13276000Y-16932476D02*
X13266476Y-16942000D01*
X13266476Y-16942000D02*
X13247429Y-16951524D01*
X13247429Y-16951524D02*
X13228381Y-16951524D01*
X13228381Y-16951524D02*
X13209333Y-16942000D01*
X13209333Y-16942000D02*
X13199809Y-16932476D01*
X13199809Y-16932476D02*
X13190286Y-16913429D01*
X13190286Y-16913429D02*
X13180762Y-16875333D01*
X13180762Y-16875333D02*
X13180762Y-16827714D01*
X13180762Y-16827714D02*
X13190286Y-16789619D01*
X13190286Y-16789619D02*
X13199809Y-16770571D01*
X13199809Y-16770571D02*
X13209333Y-16761048D01*
X13209333Y-16761048D02*
X13228381Y-16751524D01*
X13380762Y-16951524D02*
X13380762Y-16818190D01*
X13380762Y-16837238D02*
X13390286Y-16827714D01*
X13390286Y-16827714D02*
X13409333Y-16818190D01*
X13409333Y-16818190D02*
X13437905Y-16818190D01*
X13437905Y-16818190D02*
X13456952Y-16827714D01*
X13456952Y-16827714D02*
X13466476Y-16846762D01*
X13466476Y-16846762D02*
X13466476Y-16951524D01*
X13466476Y-16846762D02*
X13476000Y-16827714D01*
X13476000Y-16827714D02*
X13495048Y-16818190D01*
X13495048Y-16818190D02*
X13523619Y-16818190D01*
X13523619Y-16818190D02*
X13542667Y-16827714D01*
X13542667Y-16827714D02*
X13552190Y-16846762D01*
X13552190Y-16846762D02*
X13552190Y-16951524D01*
X13647429Y-16951524D02*
X13647429Y-16818190D01*
X13647429Y-16837238D02*
X13656952Y-16827714D01*
X13656952Y-16827714D02*
X13676000Y-16818190D01*
X13676000Y-16818190D02*
X13704571Y-16818190D01*
X13704571Y-16818190D02*
X13723619Y-16827714D01*
X13723619Y-16827714D02*
X13733143Y-16846762D01*
X13733143Y-16846762D02*
X13733143Y-16951524D01*
X13733143Y-16846762D02*
X13742667Y-16827714D01*
X13742667Y-16827714D02*
X13761714Y-16818190D01*
X13761714Y-16818190D02*
X13790286Y-16818190D01*
X13790286Y-16818190D02*
X13809333Y-16827714D01*
X13809333Y-16827714D02*
X13818857Y-16846762D01*
X13818857Y-16846762D02*
X13818857Y-16951524D01*
X14209333Y-16742000D02*
X14037905Y-16999143D01*
X14466476Y-16751524D02*
X14485524Y-16751524D01*
X14485524Y-16751524D02*
X14504572Y-16761048D01*
X14504572Y-16761048D02*
X14514095Y-16770571D01*
X14514095Y-16770571D02*
X14523619Y-16789619D01*
X14523619Y-16789619D02*
X14533143Y-16827714D01*
X14533143Y-16827714D02*
X14533143Y-16875333D01*
X14533143Y-16875333D02*
X14523619Y-16913429D01*
X14523619Y-16913429D02*
X14514095Y-16932476D01*
X14514095Y-16932476D02*
X14504572Y-16942000D01*
X14504572Y-16942000D02*
X14485524Y-16951524D01*
X14485524Y-16951524D02*
X14466476Y-16951524D01*
X14466476Y-16951524D02*
X14447429Y-16942000D01*
X14447429Y-16942000D02*
X14437905Y-16932476D01*
X14437905Y-16932476D02*
X14428381Y-16913429D01*
X14428381Y-16913429D02*
X14418857Y-16875333D01*
X14418857Y-16875333D02*
X14418857Y-16827714D01*
X14418857Y-16827714D02*
X14428381Y-16789619D01*
X14428381Y-16789619D02*
X14437905Y-16770571D01*
X14437905Y-16770571D02*
X14447429Y-16761048D01*
X14447429Y-16761048D02*
X14466476Y-16751524D01*
X14618857Y-16932476D02*
X14628381Y-16942000D01*
X14628381Y-16942000D02*
X14618857Y-16951524D01*
X14618857Y-16951524D02*
X14609333Y-16942000D01*
X14609333Y-16942000D02*
X14618857Y-16932476D01*
X14618857Y-16932476D02*
X14618857Y-16951524D01*
X14752191Y-16751524D02*
X14771238Y-16751524D01*
X14771238Y-16751524D02*
X14790286Y-16761048D01*
X14790286Y-16761048D02*
X14799810Y-16770571D01*
X14799810Y-16770571D02*
X14809333Y-16789619D01*
X14809333Y-16789619D02*
X14818857Y-16827714D01*
X14818857Y-16827714D02*
X14818857Y-16875333D01*
X14818857Y-16875333D02*
X14809333Y-16913429D01*
X14809333Y-16913429D02*
X14799810Y-16932476D01*
X14799810Y-16932476D02*
X14790286Y-16942000D01*
X14790286Y-16942000D02*
X14771238Y-16951524D01*
X14771238Y-16951524D02*
X14752191Y-16951524D01*
X14752191Y-16951524D02*
X14733143Y-16942000D01*
X14733143Y-16942000D02*
X14723619Y-16932476D01*
X14723619Y-16932476D02*
X14714095Y-16913429D01*
X14714095Y-16913429D02*
X14704572Y-16875333D01*
X14704572Y-16875333D02*
X14704572Y-16827714D01*
X14704572Y-16827714D02*
X14714095Y-16789619D01*
X14714095Y-16789619D02*
X14723619Y-16770571D01*
X14723619Y-16770571D02*
X14733143Y-16761048D01*
X14733143Y-16761048D02*
X14752191Y-16751524D01*
X14895048Y-16770571D02*
X14904572Y-16761048D01*
X14904572Y-16761048D02*
X14923619Y-16751524D01*
X14923619Y-16751524D02*
X14971238Y-16751524D01*
X14971238Y-16751524D02*
X14990286Y-16761048D01*
X14990286Y-16761048D02*
X14999810Y-16770571D01*
X14999810Y-16770571D02*
X15009333Y-16789619D01*
X15009333Y-16789619D02*
X15009333Y-16808667D01*
X15009333Y-16808667D02*
X14999810Y-16837238D01*
X14999810Y-16837238D02*
X14885524Y-16951524D01*
X14885524Y-16951524D02*
X15009333Y-16951524D01*
X15076000Y-16751524D02*
X15199810Y-16751524D01*
X15199810Y-16751524D02*
X15133143Y-16827714D01*
X15133143Y-16827714D02*
X15161714Y-16827714D01*
X15161714Y-16827714D02*
X15180762Y-16837238D01*
X15180762Y-16837238D02*
X15190286Y-16846762D01*
X15190286Y-16846762D02*
X15199810Y-16865810D01*
X15199810Y-16865810D02*
X15199810Y-16913429D01*
X15199810Y-16913429D02*
X15190286Y-16932476D01*
X15190286Y-16932476D02*
X15180762Y-16942000D01*
X15180762Y-16942000D02*
X15161714Y-16951524D01*
X15161714Y-16951524D02*
X15104572Y-16951524D01*
X15104572Y-16951524D02*
X15085524Y-16942000D01*
X15085524Y-16942000D02*
X15076000Y-16932476D01*
X15371238Y-16751524D02*
X15333143Y-16751524D01*
X15333143Y-16751524D02*
X15314095Y-16761048D01*
X15314095Y-16761048D02*
X15304572Y-16770571D01*
X15304572Y-16770571D02*
X15285524Y-16799143D01*
X15285524Y-16799143D02*
X15276000Y-16837238D01*
X15276000Y-16837238D02*
X15276000Y-16913429D01*
X15276000Y-16913429D02*
X15285524Y-16932476D01*
X15285524Y-16932476D02*
X15295048Y-16942000D01*
X15295048Y-16942000D02*
X15314095Y-16951524D01*
X15314095Y-16951524D02*
X15352191Y-16951524D01*
X15352191Y-16951524D02*
X15371238Y-16942000D01*
X15371238Y-16942000D02*
X15380762Y-16932476D01*
X15380762Y-16932476D02*
X15390286Y-16913429D01*
X15390286Y-16913429D02*
X15390286Y-16865810D01*
X15390286Y-16865810D02*
X15380762Y-16846762D01*
X15380762Y-16846762D02*
X15371238Y-16837238D01*
X15371238Y-16837238D02*
X15352191Y-16827714D01*
X15352191Y-16827714D02*
X15314095Y-16827714D01*
X15314095Y-16827714D02*
X15295048Y-16837238D01*
X15295048Y-16837238D02*
X15285524Y-16846762D01*
X15285524Y-16846762D02*
X15276000Y-16865810D01*
X15466476Y-16751524D02*
X15466476Y-16789619D01*
X15542667Y-16751524D02*
X15542667Y-16789619D01*
X15837905Y-17027714D02*
X15828381Y-17018190D01*
X15828381Y-17018190D02*
X15809334Y-16989619D01*
X15809334Y-16989619D02*
X15799810Y-16970571D01*
X15799810Y-16970571D02*
X15790286Y-16942000D01*
X15790286Y-16942000D02*
X15780762Y-16894381D01*
X15780762Y-16894381D02*
X15780762Y-16856286D01*
X15780762Y-16856286D02*
X15790286Y-16808667D01*
X15790286Y-16808667D02*
X15799810Y-16780095D01*
X15799810Y-16780095D02*
X15809334Y-16761048D01*
X15809334Y-16761048D02*
X15828381Y-16732476D01*
X15828381Y-16732476D02*
X15837905Y-16722952D01*
X15952191Y-16751524D02*
X15971238Y-16751524D01*
X15971238Y-16751524D02*
X15990286Y-16761048D01*
X15990286Y-16761048D02*
X15999810Y-16770571D01*
X15999810Y-16770571D02*
X16009334Y-16789619D01*
X16009334Y-16789619D02*
X16018857Y-16827714D01*
X16018857Y-16827714D02*
X16018857Y-16875333D01*
X16018857Y-16875333D02*
X16009334Y-16913429D01*
X16009334Y-16913429D02*
X15999810Y-16932476D01*
X15999810Y-16932476D02*
X15990286Y-16942000D01*
X15990286Y-16942000D02*
X15971238Y-16951524D01*
X15971238Y-16951524D02*
X15952191Y-16951524D01*
X15952191Y-16951524D02*
X15933143Y-16942000D01*
X15933143Y-16942000D02*
X15923619Y-16932476D01*
X15923619Y-16932476D02*
X15914095Y-16913429D01*
X15914095Y-16913429D02*
X15904572Y-16875333D01*
X15904572Y-16875333D02*
X15904572Y-16827714D01*
X15904572Y-16827714D02*
X15914095Y-16789619D01*
X15914095Y-16789619D02*
X15923619Y-16770571D01*
X15923619Y-16770571D02*
X15933143Y-16761048D01*
X15933143Y-16761048D02*
X15952191Y-16751524D01*
X16256953Y-16951524D02*
X16256953Y-16751524D01*
X16342667Y-16951524D02*
X16342667Y-16846762D01*
X16342667Y-16846762D02*
X16333143Y-16827714D01*
X16333143Y-16827714D02*
X16314096Y-16818190D01*
X16314096Y-16818190D02*
X16285524Y-16818190D01*
X16285524Y-16818190D02*
X16266476Y-16827714D01*
X16266476Y-16827714D02*
X16256953Y-16837238D01*
X16466476Y-16951524D02*
X16447429Y-16942000D01*
X16447429Y-16942000D02*
X16437905Y-16932476D01*
X16437905Y-16932476D02*
X16428381Y-16913429D01*
X16428381Y-16913429D02*
X16428381Y-16856286D01*
X16428381Y-16856286D02*
X16437905Y-16837238D01*
X16437905Y-16837238D02*
X16447429Y-16827714D01*
X16447429Y-16827714D02*
X16466476Y-16818190D01*
X16466476Y-16818190D02*
X16495048Y-16818190D01*
X16495048Y-16818190D02*
X16514096Y-16827714D01*
X16514096Y-16827714D02*
X16523619Y-16837238D01*
X16523619Y-16837238D02*
X16533143Y-16856286D01*
X16533143Y-16856286D02*
X16533143Y-16913429D01*
X16533143Y-16913429D02*
X16523619Y-16932476D01*
X16523619Y-16932476D02*
X16514096Y-16942000D01*
X16514096Y-16942000D02*
X16495048Y-16951524D01*
X16495048Y-16951524D02*
X16466476Y-16951524D01*
X16647429Y-16951524D02*
X16628381Y-16942000D01*
X16628381Y-16942000D02*
X16618857Y-16922952D01*
X16618857Y-16922952D02*
X16618857Y-16751524D01*
X16799810Y-16942000D02*
X16780762Y-16951524D01*
X16780762Y-16951524D02*
X16742667Y-16951524D01*
X16742667Y-16951524D02*
X16723619Y-16942000D01*
X16723619Y-16942000D02*
X16714096Y-16922952D01*
X16714096Y-16922952D02*
X16714096Y-16846762D01*
X16714096Y-16846762D02*
X16723619Y-16827714D01*
X16723619Y-16827714D02*
X16742667Y-16818190D01*
X16742667Y-16818190D02*
X16780762Y-16818190D01*
X16780762Y-16818190D02*
X16799810Y-16827714D01*
X16799810Y-16827714D02*
X16809334Y-16846762D01*
X16809334Y-16846762D02*
X16809334Y-16865810D01*
X16809334Y-16865810D02*
X16714096Y-16884857D01*
X16885524Y-16942000D02*
X16904572Y-16951524D01*
X16904572Y-16951524D02*
X16942667Y-16951524D01*
X16942667Y-16951524D02*
X16961715Y-16942000D01*
X16961715Y-16942000D02*
X16971239Y-16922952D01*
X16971239Y-16922952D02*
X16971239Y-16913429D01*
X16971239Y-16913429D02*
X16961715Y-16894381D01*
X16961715Y-16894381D02*
X16942667Y-16884857D01*
X16942667Y-16884857D02*
X16914096Y-16884857D01*
X16914096Y-16884857D02*
X16895048Y-16875333D01*
X16895048Y-16875333D02*
X16885524Y-16856286D01*
X16885524Y-16856286D02*
X16885524Y-16846762D01*
X16885524Y-16846762D02*
X16895048Y-16827714D01*
X16895048Y-16827714D02*
X16914096Y-16818190D01*
X16914096Y-16818190D02*
X16942667Y-16818190D01*
X16942667Y-16818190D02*
X16961715Y-16827714D01*
X17209334Y-16875333D02*
X17361715Y-16875333D01*
X17285524Y-16951524D02*
X17285524Y-16799143D01*
X17695048Y-16818190D02*
X17695048Y-16951524D01*
X17647429Y-16742000D02*
X17599810Y-16884857D01*
X17599810Y-16884857D02*
X17723620Y-16884857D01*
X17942667Y-16942000D02*
X17961715Y-16951524D01*
X17961715Y-16951524D02*
X17999810Y-16951524D01*
X17999810Y-16951524D02*
X18018858Y-16942000D01*
X18018858Y-16942000D02*
X18028382Y-16922952D01*
X18028382Y-16922952D02*
X18028382Y-16913429D01*
X18028382Y-16913429D02*
X18018858Y-16894381D01*
X18018858Y-16894381D02*
X17999810Y-16884857D01*
X17999810Y-16884857D02*
X17971239Y-16884857D01*
X17971239Y-16884857D02*
X17952191Y-16875333D01*
X17952191Y-16875333D02*
X17942667Y-16856286D01*
X17942667Y-16856286D02*
X17942667Y-16846762D01*
X17942667Y-16846762D02*
X17952191Y-16827714D01*
X17952191Y-16827714D02*
X17971239Y-16818190D01*
X17971239Y-16818190D02*
X17999810Y-16818190D01*
X17999810Y-16818190D02*
X18018858Y-16827714D01*
X18142667Y-16951524D02*
X18123620Y-16942000D01*
X18123620Y-16942000D02*
X18114096Y-16922952D01*
X18114096Y-16922952D02*
X18114096Y-16751524D01*
X18247429Y-16951524D02*
X18228382Y-16942000D01*
X18228382Y-16942000D02*
X18218858Y-16932476D01*
X18218858Y-16932476D02*
X18209334Y-16913429D01*
X18209334Y-16913429D02*
X18209334Y-16856286D01*
X18209334Y-16856286D02*
X18218858Y-16837238D01*
X18218858Y-16837238D02*
X18228382Y-16827714D01*
X18228382Y-16827714D02*
X18247429Y-16818190D01*
X18247429Y-16818190D02*
X18276001Y-16818190D01*
X18276001Y-16818190D02*
X18295048Y-16827714D01*
X18295048Y-16827714D02*
X18304572Y-16837238D01*
X18304572Y-16837238D02*
X18314096Y-16856286D01*
X18314096Y-16856286D02*
X18314096Y-16913429D01*
X18314096Y-16913429D02*
X18304572Y-16932476D01*
X18304572Y-16932476D02*
X18295048Y-16942000D01*
X18295048Y-16942000D02*
X18276001Y-16951524D01*
X18276001Y-16951524D02*
X18247429Y-16951524D01*
X18371239Y-16818190D02*
X18447429Y-16818190D01*
X18399810Y-16751524D02*
X18399810Y-16922952D01*
X18399810Y-16922952D02*
X18409334Y-16942000D01*
X18409334Y-16942000D02*
X18428382Y-16951524D01*
X18428382Y-16951524D02*
X18447429Y-16951524D01*
X18504572Y-16942000D02*
X18523620Y-16951524D01*
X18523620Y-16951524D02*
X18561715Y-16951524D01*
X18561715Y-16951524D02*
X18580763Y-16942000D01*
X18580763Y-16942000D02*
X18590286Y-16922952D01*
X18590286Y-16922952D02*
X18590286Y-16913429D01*
X18590286Y-16913429D02*
X18580763Y-16894381D01*
X18580763Y-16894381D02*
X18561715Y-16884857D01*
X18561715Y-16884857D02*
X18533143Y-16884857D01*
X18533143Y-16884857D02*
X18514096Y-16875333D01*
X18514096Y-16875333D02*
X18504572Y-16856286D01*
X18504572Y-16856286D02*
X18504572Y-16846762D01*
X18504572Y-16846762D02*
X18514096Y-16827714D01*
X18514096Y-16827714D02*
X18533143Y-16818190D01*
X18533143Y-16818190D02*
X18561715Y-16818190D01*
X18561715Y-16818190D02*
X18580763Y-16827714D01*
X18656953Y-17027714D02*
X18666477Y-17018190D01*
X18666477Y-17018190D02*
X18685524Y-16989619D01*
X18685524Y-16989619D02*
X18695048Y-16970571D01*
X18695048Y-16970571D02*
X18704572Y-16942000D01*
X18704572Y-16942000D02*
X18714096Y-16894381D01*
X18714096Y-16894381D02*
X18714096Y-16856286D01*
X18714096Y-16856286D02*
X18704572Y-16808667D01*
X18704572Y-16808667D02*
X18695048Y-16780095D01*
X18695048Y-16780095D02*
X18685524Y-16761048D01*
X18685524Y-16761048D02*
X18666477Y-16732476D01*
X18666477Y-16732476D02*
X18656953Y-16722952D01*
D10*
X12226000Y-17073000D02*
X12226000Y-17173000D01*
X12176000Y-17123000D02*
X12276000Y-17123000D01*
D11*
X12628381Y-17215524D02*
X12514095Y-17215524D01*
X12571238Y-17215524D02*
X12571238Y-17015524D01*
X12571238Y-17015524D02*
X12552190Y-17044095D01*
X12552190Y-17044095D02*
X12533143Y-17063143D01*
X12533143Y-17063143D02*
X12514095Y-17072667D01*
X12714095Y-17196476D02*
X12723619Y-17206000D01*
X12723619Y-17206000D02*
X12714095Y-17215524D01*
X12714095Y-17215524D02*
X12704571Y-17206000D01*
X12704571Y-17206000D02*
X12714095Y-17196476D01*
X12714095Y-17196476D02*
X12714095Y-17215524D01*
X12847428Y-17015524D02*
X12866476Y-17015524D01*
X12866476Y-17015524D02*
X12885524Y-17025048D01*
X12885524Y-17025048D02*
X12895048Y-17034571D01*
X12895048Y-17034571D02*
X12904571Y-17053619D01*
X12904571Y-17053619D02*
X12914095Y-17091714D01*
X12914095Y-17091714D02*
X12914095Y-17139333D01*
X12914095Y-17139333D02*
X12904571Y-17177429D01*
X12904571Y-17177429D02*
X12895048Y-17196476D01*
X12895048Y-17196476D02*
X12885524Y-17206000D01*
X12885524Y-17206000D02*
X12866476Y-17215524D01*
X12866476Y-17215524D02*
X12847428Y-17215524D01*
X12847428Y-17215524D02*
X12828381Y-17206000D01*
X12828381Y-17206000D02*
X12818857Y-17196476D01*
X12818857Y-17196476D02*
X12809333Y-17177429D01*
X12809333Y-17177429D02*
X12799809Y-17139333D01*
X12799809Y-17139333D02*
X12799809Y-17091714D01*
X12799809Y-17091714D02*
X12809333Y-17053619D01*
X12809333Y-17053619D02*
X12818857Y-17034571D01*
X12818857Y-17034571D02*
X12828381Y-17025048D01*
X12828381Y-17025048D02*
X12847428Y-17015524D01*
X13037905Y-17015524D02*
X13056952Y-17015524D01*
X13056952Y-17015524D02*
X13076000Y-17025048D01*
X13076000Y-17025048D02*
X13085524Y-17034571D01*
X13085524Y-17034571D02*
X13095048Y-17053619D01*
X13095048Y-17053619D02*
X13104571Y-17091714D01*
X13104571Y-17091714D02*
X13104571Y-17139333D01*
X13104571Y-17139333D02*
X13095048Y-17177429D01*
X13095048Y-17177429D02*
X13085524Y-17196476D01*
X13085524Y-17196476D02*
X13076000Y-17206000D01*
X13076000Y-17206000D02*
X13056952Y-17215524D01*
X13056952Y-17215524D02*
X13037905Y-17215524D01*
X13037905Y-17215524D02*
X13018857Y-17206000D01*
X13018857Y-17206000D02*
X13009333Y-17196476D01*
X13009333Y-17196476D02*
X12999809Y-17177429D01*
X12999809Y-17177429D02*
X12990286Y-17139333D01*
X12990286Y-17139333D02*
X12990286Y-17091714D01*
X12990286Y-17091714D02*
X12999809Y-17053619D01*
X12999809Y-17053619D02*
X13009333Y-17034571D01*
X13009333Y-17034571D02*
X13018857Y-17025048D01*
X13018857Y-17025048D02*
X13037905Y-17015524D01*
X13228381Y-17015524D02*
X13247429Y-17015524D01*
X13247429Y-17015524D02*
X13266476Y-17025048D01*
X13266476Y-17025048D02*
X13276000Y-17034571D01*
X13276000Y-17034571D02*
X13285524Y-17053619D01*
X13285524Y-17053619D02*
X13295048Y-17091714D01*
X13295048Y-17091714D02*
X13295048Y-17139333D01*
X13295048Y-17139333D02*
X13285524Y-17177429D01*
X13285524Y-17177429D02*
X13276000Y-17196476D01*
X13276000Y-17196476D02*
X13266476Y-17206000D01*
X13266476Y-17206000D02*
X13247429Y-17215524D01*
X13247429Y-17215524D02*
X13228381Y-17215524D01*
X13228381Y-17215524D02*
X13209333Y-17206000D01*
X13209333Y-17206000D02*
X13199809Y-17196476D01*
X13199809Y-17196476D02*
X13190286Y-17177429D01*
X13190286Y-17177429D02*
X13180762Y-17139333D01*
X13180762Y-17139333D02*
X13180762Y-17091714D01*
X13180762Y-17091714D02*
X13190286Y-17053619D01*
X13190286Y-17053619D02*
X13199809Y-17034571D01*
X13199809Y-17034571D02*
X13209333Y-17025048D01*
X13209333Y-17025048D02*
X13228381Y-17015524D01*
X13380762Y-17215524D02*
X13380762Y-17082190D01*
X13380762Y-17101238D02*
X13390286Y-17091714D01*
X13390286Y-17091714D02*
X13409333Y-17082190D01*
X13409333Y-17082190D02*
X13437905Y-17082190D01*
X13437905Y-17082190D02*
X13456952Y-17091714D01*
X13456952Y-17091714D02*
X13466476Y-17110762D01*
X13466476Y-17110762D02*
X13466476Y-17215524D01*
X13466476Y-17110762D02*
X13476000Y-17091714D01*
X13476000Y-17091714D02*
X13495048Y-17082190D01*
X13495048Y-17082190D02*
X13523619Y-17082190D01*
X13523619Y-17082190D02*
X13542667Y-17091714D01*
X13542667Y-17091714D02*
X13552190Y-17110762D01*
X13552190Y-17110762D02*
X13552190Y-17215524D01*
X13647429Y-17215524D02*
X13647429Y-17082190D01*
X13647429Y-17101238D02*
X13656952Y-17091714D01*
X13656952Y-17091714D02*
X13676000Y-17082190D01*
X13676000Y-17082190D02*
X13704571Y-17082190D01*
X13704571Y-17082190D02*
X13723619Y-17091714D01*
X13723619Y-17091714D02*
X13733143Y-17110762D01*
X13733143Y-17110762D02*
X13733143Y-17215524D01*
X13733143Y-17110762D02*
X13742667Y-17091714D01*
X13742667Y-17091714D02*
X13761714Y-17082190D01*
X13761714Y-17082190D02*
X13790286Y-17082190D01*
X13790286Y-17082190D02*
X13809333Y-17091714D01*
X13809333Y-17091714D02*
X13818857Y-17110762D01*
X13818857Y-17110762D02*
X13818857Y-17215524D01*
X14209333Y-17006000D02*
X14037905Y-17263143D01*
X14466476Y-17015524D02*
X14485524Y-17015524D01*
X14485524Y-17015524D02*
X14504572Y-17025048D01*
X14504572Y-17025048D02*
X14514095Y-17034571D01*
X14514095Y-17034571D02*
X14523619Y-17053619D01*
X14523619Y-17053619D02*
X14533143Y-17091714D01*
X14533143Y-17091714D02*
X14533143Y-17139333D01*
X14533143Y-17139333D02*
X14523619Y-17177429D01*
X14523619Y-17177429D02*
X14514095Y-17196476D01*
X14514095Y-17196476D02*
X14504572Y-17206000D01*
X14504572Y-17206000D02*
X14485524Y-17215524D01*
X14485524Y-17215524D02*
X14466476Y-17215524D01*
X14466476Y-17215524D02*
X14447429Y-17206000D01*
X14447429Y-17206000D02*
X14437905Y-17196476D01*
X14437905Y-17196476D02*
X14428381Y-17177429D01*
X14428381Y-17177429D02*
X14418857Y-17139333D01*
X14418857Y-17139333D02*
X14418857Y-17091714D01*
X14418857Y-17091714D02*
X14428381Y-17053619D01*
X14428381Y-17053619D02*
X14437905Y-17034571D01*
X14437905Y-17034571D02*
X14447429Y-17025048D01*
X14447429Y-17025048D02*
X14466476Y-17015524D01*
X14618857Y-17196476D02*
X14628381Y-17206000D01*
X14628381Y-17206000D02*
X14618857Y-17215524D01*
X14618857Y-17215524D02*
X14609333Y-17206000D01*
X14609333Y-17206000D02*
X14618857Y-17196476D01*
X14618857Y-17196476D02*
X14618857Y-17215524D01*
X14752191Y-17015524D02*
X14771238Y-17015524D01*
X14771238Y-17015524D02*
X14790286Y-17025048D01*
X14790286Y-17025048D02*
X14799810Y-17034571D01*
X14799810Y-17034571D02*
X14809333Y-17053619D01*
X14809333Y-17053619D02*
X14818857Y-17091714D01*
X14818857Y-17091714D02*
X14818857Y-17139333D01*
X14818857Y-17139333D02*
X14809333Y-17177429D01*
X14809333Y-17177429D02*
X14799810Y-17196476D01*
X14799810Y-17196476D02*
X14790286Y-17206000D01*
X14790286Y-17206000D02*
X14771238Y-17215524D01*
X14771238Y-17215524D02*
X14752191Y-17215524D01*
X14752191Y-17215524D02*
X14733143Y-17206000D01*
X14733143Y-17206000D02*
X14723619Y-17196476D01*
X14723619Y-17196476D02*
X14714095Y-17177429D01*
X14714095Y-17177429D02*
X14704572Y-17139333D01*
X14704572Y-17139333D02*
X14704572Y-17091714D01*
X14704572Y-17091714D02*
X14714095Y-17053619D01*
X14714095Y-17053619D02*
X14723619Y-17034571D01*
X14723619Y-17034571D02*
X14733143Y-17025048D01*
X14733143Y-17025048D02*
X14752191Y-17015524D01*
X14885524Y-17015524D02*
X15009333Y-17015524D01*
X15009333Y-17015524D02*
X14942667Y-17091714D01*
X14942667Y-17091714D02*
X14971238Y-17091714D01*
X14971238Y-17091714D02*
X14990286Y-17101238D01*
X14990286Y-17101238D02*
X14999810Y-17110762D01*
X14999810Y-17110762D02*
X15009333Y-17129810D01*
X15009333Y-17129810D02*
X15009333Y-17177429D01*
X15009333Y-17177429D02*
X14999810Y-17196476D01*
X14999810Y-17196476D02*
X14990286Y-17206000D01*
X14990286Y-17206000D02*
X14971238Y-17215524D01*
X14971238Y-17215524D02*
X14914095Y-17215524D01*
X14914095Y-17215524D02*
X14895048Y-17206000D01*
X14895048Y-17206000D02*
X14885524Y-17196476D01*
X15104572Y-17215524D02*
X15142667Y-17215524D01*
X15142667Y-17215524D02*
X15161714Y-17206000D01*
X15161714Y-17206000D02*
X15171238Y-17196476D01*
X15171238Y-17196476D02*
X15190286Y-17167905D01*
X15190286Y-17167905D02*
X15199810Y-17129810D01*
X15199810Y-17129810D02*
X15199810Y-17053619D01*
X15199810Y-17053619D02*
X15190286Y-17034571D01*
X15190286Y-17034571D02*
X15180762Y-17025048D01*
X15180762Y-17025048D02*
X15161714Y-17015524D01*
X15161714Y-17015524D02*
X15123619Y-17015524D01*
X15123619Y-17015524D02*
X15104572Y-17025048D01*
X15104572Y-17025048D02*
X15095048Y-17034571D01*
X15095048Y-17034571D02*
X15085524Y-17053619D01*
X15085524Y-17053619D02*
X15085524Y-17101238D01*
X15085524Y-17101238D02*
X15095048Y-17120286D01*
X15095048Y-17120286D02*
X15104572Y-17129810D01*
X15104572Y-17129810D02*
X15123619Y-17139333D01*
X15123619Y-17139333D02*
X15161714Y-17139333D01*
X15161714Y-17139333D02*
X15180762Y-17129810D01*
X15180762Y-17129810D02*
X15190286Y-17120286D01*
X15190286Y-17120286D02*
X15199810Y-17101238D01*
X15371238Y-17082190D02*
X15371238Y-17215524D01*
X15323619Y-17006000D02*
X15276000Y-17148857D01*
X15276000Y-17148857D02*
X15399810Y-17148857D01*
X15466476Y-17015524D02*
X15466476Y-17053619D01*
X15542667Y-17015524D02*
X15542667Y-17053619D01*
X15837905Y-17291714D02*
X15828381Y-17282190D01*
X15828381Y-17282190D02*
X15809334Y-17253619D01*
X15809334Y-17253619D02*
X15799810Y-17234571D01*
X15799810Y-17234571D02*
X15790286Y-17206000D01*
X15790286Y-17206000D02*
X15780762Y-17158381D01*
X15780762Y-17158381D02*
X15780762Y-17120286D01*
X15780762Y-17120286D02*
X15790286Y-17072667D01*
X15790286Y-17072667D02*
X15799810Y-17044095D01*
X15799810Y-17044095D02*
X15809334Y-17025048D01*
X15809334Y-17025048D02*
X15828381Y-16996476D01*
X15828381Y-16996476D02*
X15837905Y-16986952D01*
X16018857Y-17215524D02*
X15904572Y-17215524D01*
X15961714Y-17215524D02*
X15961714Y-17015524D01*
X15961714Y-17015524D02*
X15942667Y-17044095D01*
X15942667Y-17044095D02*
X15923619Y-17063143D01*
X15923619Y-17063143D02*
X15904572Y-17072667D01*
X16085524Y-17015524D02*
X16218857Y-17015524D01*
X16218857Y-17015524D02*
X16133143Y-17215524D01*
X16447429Y-17215524D02*
X16447429Y-17015524D01*
X16533143Y-17215524D02*
X16533143Y-17110762D01*
X16533143Y-17110762D02*
X16523619Y-17091714D01*
X16523619Y-17091714D02*
X16504572Y-17082190D01*
X16504572Y-17082190D02*
X16476000Y-17082190D01*
X16476000Y-17082190D02*
X16456953Y-17091714D01*
X16456953Y-17091714D02*
X16447429Y-17101238D01*
X16656953Y-17215524D02*
X16637905Y-17206000D01*
X16637905Y-17206000D02*
X16628381Y-17196476D01*
X16628381Y-17196476D02*
X16618857Y-17177429D01*
X16618857Y-17177429D02*
X16618857Y-17120286D01*
X16618857Y-17120286D02*
X16628381Y-17101238D01*
X16628381Y-17101238D02*
X16637905Y-17091714D01*
X16637905Y-17091714D02*
X16656953Y-17082190D01*
X16656953Y-17082190D02*
X16685524Y-17082190D01*
X16685524Y-17082190D02*
X16704572Y-17091714D01*
X16704572Y-17091714D02*
X16714096Y-17101238D01*
X16714096Y-17101238D02*
X16723619Y-17120286D01*
X16723619Y-17120286D02*
X16723619Y-17177429D01*
X16723619Y-17177429D02*
X16714096Y-17196476D01*
X16714096Y-17196476D02*
X16704572Y-17206000D01*
X16704572Y-17206000D02*
X16685524Y-17215524D01*
X16685524Y-17215524D02*
X16656953Y-17215524D01*
X16837905Y-17215524D02*
X16818858Y-17206000D01*
X16818858Y-17206000D02*
X16809334Y-17186952D01*
X16809334Y-17186952D02*
X16809334Y-17015524D01*
X16990286Y-17206000D02*
X16971239Y-17215524D01*
X16971239Y-17215524D02*
X16933143Y-17215524D01*
X16933143Y-17215524D02*
X16914096Y-17206000D01*
X16914096Y-17206000D02*
X16904572Y-17186952D01*
X16904572Y-17186952D02*
X16904572Y-17110762D01*
X16904572Y-17110762D02*
X16914096Y-17091714D01*
X16914096Y-17091714D02*
X16933143Y-17082190D01*
X16933143Y-17082190D02*
X16971239Y-17082190D01*
X16971239Y-17082190D02*
X16990286Y-17091714D01*
X16990286Y-17091714D02*
X16999810Y-17110762D01*
X16999810Y-17110762D02*
X16999810Y-17129810D01*
X16999810Y-17129810D02*
X16904572Y-17148857D01*
X17076000Y-17206000D02*
X17095048Y-17215524D01*
X17095048Y-17215524D02*
X17133143Y-17215524D01*
X17133143Y-17215524D02*
X17152191Y-17206000D01*
X17152191Y-17206000D02*
X17161715Y-17186952D01*
X17161715Y-17186952D02*
X17161715Y-17177429D01*
X17161715Y-17177429D02*
X17152191Y-17158381D01*
X17152191Y-17158381D02*
X17133143Y-17148857D01*
X17133143Y-17148857D02*
X17104572Y-17148857D01*
X17104572Y-17148857D02*
X17085524Y-17139333D01*
X17085524Y-17139333D02*
X17076000Y-17120286D01*
X17076000Y-17120286D02*
X17076000Y-17110762D01*
X17076000Y-17110762D02*
X17085524Y-17091714D01*
X17085524Y-17091714D02*
X17104572Y-17082190D01*
X17104572Y-17082190D02*
X17133143Y-17082190D01*
X17133143Y-17082190D02*
X17152191Y-17091714D01*
X17228381Y-17291714D02*
X17237905Y-17282190D01*
X17237905Y-17282190D02*
X17256953Y-17253619D01*
X17256953Y-17253619D02*
X17266477Y-17234571D01*
X17266477Y-17234571D02*
X17276000Y-17206000D01*
X17276000Y-17206000D02*
X17285524Y-17158381D01*
X17285524Y-17158381D02*
X17285524Y-17120286D01*
X17285524Y-17120286D02*
X17276000Y-17072667D01*
X17276000Y-17072667D02*
X17266477Y-17044095D01*
X17266477Y-17044095D02*
X17256953Y-17025048D01*
X17256953Y-17025048D02*
X17237905Y-16996476D01*
X17237905Y-16996476D02*
X17228381Y-16986952D01*
D14*
X12261121Y-17422921D02*
X12261121Y-17351079D01*
X12189279Y-17351079D01*
X12189279Y-17422921D01*
X12261121Y-17422921D01*
D11*
X12628381Y-17479524D02*
X12514095Y-17479524D01*
X12571238Y-17479524D02*
X12571238Y-17279524D01*
X12571238Y-17279524D02*
X12552190Y-17308095D01*
X12552190Y-17308095D02*
X12533143Y-17327143D01*
X12533143Y-17327143D02*
X12514095Y-17336667D01*
X12714095Y-17460476D02*
X12723619Y-17470000D01*
X12723619Y-17470000D02*
X12714095Y-17479524D01*
X12714095Y-17479524D02*
X12704571Y-17470000D01*
X12704571Y-17470000D02*
X12714095Y-17460476D01*
X12714095Y-17460476D02*
X12714095Y-17479524D01*
X12847428Y-17279524D02*
X12866476Y-17279524D01*
X12866476Y-17279524D02*
X12885524Y-17289048D01*
X12885524Y-17289048D02*
X12895048Y-17298571D01*
X12895048Y-17298571D02*
X12904571Y-17317619D01*
X12904571Y-17317619D02*
X12914095Y-17355714D01*
X12914095Y-17355714D02*
X12914095Y-17403333D01*
X12914095Y-17403333D02*
X12904571Y-17441429D01*
X12904571Y-17441429D02*
X12895048Y-17460476D01*
X12895048Y-17460476D02*
X12885524Y-17470000D01*
X12885524Y-17470000D02*
X12866476Y-17479524D01*
X12866476Y-17479524D02*
X12847428Y-17479524D01*
X12847428Y-17479524D02*
X12828381Y-17470000D01*
X12828381Y-17470000D02*
X12818857Y-17460476D01*
X12818857Y-17460476D02*
X12809333Y-17441429D01*
X12809333Y-17441429D02*
X12799809Y-17403333D01*
X12799809Y-17403333D02*
X12799809Y-17355714D01*
X12799809Y-17355714D02*
X12809333Y-17317619D01*
X12809333Y-17317619D02*
X12818857Y-17298571D01*
X12818857Y-17298571D02*
X12828381Y-17289048D01*
X12828381Y-17289048D02*
X12847428Y-17279524D01*
X13104571Y-17479524D02*
X12990286Y-17479524D01*
X13047428Y-17479524D02*
X13047428Y-17279524D01*
X13047428Y-17279524D02*
X13028381Y-17308095D01*
X13028381Y-17308095D02*
X13009333Y-17327143D01*
X13009333Y-17327143D02*
X12990286Y-17336667D01*
X13276000Y-17279524D02*
X13237905Y-17279524D01*
X13237905Y-17279524D02*
X13218857Y-17289048D01*
X13218857Y-17289048D02*
X13209333Y-17298571D01*
X13209333Y-17298571D02*
X13190286Y-17327143D01*
X13190286Y-17327143D02*
X13180762Y-17365238D01*
X13180762Y-17365238D02*
X13180762Y-17441429D01*
X13180762Y-17441429D02*
X13190286Y-17460476D01*
X13190286Y-17460476D02*
X13199809Y-17470000D01*
X13199809Y-17470000D02*
X13218857Y-17479524D01*
X13218857Y-17479524D02*
X13256952Y-17479524D01*
X13256952Y-17479524D02*
X13276000Y-17470000D01*
X13276000Y-17470000D02*
X13285524Y-17460476D01*
X13285524Y-17460476D02*
X13295048Y-17441429D01*
X13295048Y-17441429D02*
X13295048Y-17393810D01*
X13295048Y-17393810D02*
X13285524Y-17374762D01*
X13285524Y-17374762D02*
X13276000Y-17365238D01*
X13276000Y-17365238D02*
X13256952Y-17355714D01*
X13256952Y-17355714D02*
X13218857Y-17355714D01*
X13218857Y-17355714D02*
X13199809Y-17365238D01*
X13199809Y-17365238D02*
X13190286Y-17374762D01*
X13190286Y-17374762D02*
X13180762Y-17393810D01*
X13380762Y-17479524D02*
X13380762Y-17346190D01*
X13380762Y-17365238D02*
X13390286Y-17355714D01*
X13390286Y-17355714D02*
X13409333Y-17346190D01*
X13409333Y-17346190D02*
X13437905Y-17346190D01*
X13437905Y-17346190D02*
X13456952Y-17355714D01*
X13456952Y-17355714D02*
X13466476Y-17374762D01*
X13466476Y-17374762D02*
X13466476Y-17479524D01*
X13466476Y-17374762D02*
X13476000Y-17355714D01*
X13476000Y-17355714D02*
X13495048Y-17346190D01*
X13495048Y-17346190D02*
X13523619Y-17346190D01*
X13523619Y-17346190D02*
X13542667Y-17355714D01*
X13542667Y-17355714D02*
X13552190Y-17374762D01*
X13552190Y-17374762D02*
X13552190Y-17479524D01*
X13647429Y-17479524D02*
X13647429Y-17346190D01*
X13647429Y-17365238D02*
X13656952Y-17355714D01*
X13656952Y-17355714D02*
X13676000Y-17346190D01*
X13676000Y-17346190D02*
X13704571Y-17346190D01*
X13704571Y-17346190D02*
X13723619Y-17355714D01*
X13723619Y-17355714D02*
X13733143Y-17374762D01*
X13733143Y-17374762D02*
X13733143Y-17479524D01*
X13733143Y-17374762D02*
X13742667Y-17355714D01*
X13742667Y-17355714D02*
X13761714Y-17346190D01*
X13761714Y-17346190D02*
X13790286Y-17346190D01*
X13790286Y-17346190D02*
X13809333Y-17355714D01*
X13809333Y-17355714D02*
X13818857Y-17374762D01*
X13818857Y-17374762D02*
X13818857Y-17479524D01*
X14209333Y-17270000D02*
X14037905Y-17527143D01*
X14466476Y-17279524D02*
X14485524Y-17279524D01*
X14485524Y-17279524D02*
X14504572Y-17289048D01*
X14504572Y-17289048D02*
X14514095Y-17298571D01*
X14514095Y-17298571D02*
X14523619Y-17317619D01*
X14523619Y-17317619D02*
X14533143Y-17355714D01*
X14533143Y-17355714D02*
X14533143Y-17403333D01*
X14533143Y-17403333D02*
X14523619Y-17441429D01*
X14523619Y-17441429D02*
X14514095Y-17460476D01*
X14514095Y-17460476D02*
X14504572Y-17470000D01*
X14504572Y-17470000D02*
X14485524Y-17479524D01*
X14485524Y-17479524D02*
X14466476Y-17479524D01*
X14466476Y-17479524D02*
X14447429Y-17470000D01*
X14447429Y-17470000D02*
X14437905Y-17460476D01*
X14437905Y-17460476D02*
X14428381Y-17441429D01*
X14428381Y-17441429D02*
X14418857Y-17403333D01*
X14418857Y-17403333D02*
X14418857Y-17355714D01*
X14418857Y-17355714D02*
X14428381Y-17317619D01*
X14428381Y-17317619D02*
X14437905Y-17298571D01*
X14437905Y-17298571D02*
X14447429Y-17289048D01*
X14447429Y-17289048D02*
X14466476Y-17279524D01*
X14618857Y-17460476D02*
X14628381Y-17470000D01*
X14628381Y-17470000D02*
X14618857Y-17479524D01*
X14618857Y-17479524D02*
X14609333Y-17470000D01*
X14609333Y-17470000D02*
X14618857Y-17460476D01*
X14618857Y-17460476D02*
X14618857Y-17479524D01*
X14752191Y-17279524D02*
X14771238Y-17279524D01*
X14771238Y-17279524D02*
X14790286Y-17289048D01*
X14790286Y-17289048D02*
X14799810Y-17298571D01*
X14799810Y-17298571D02*
X14809333Y-17317619D01*
X14809333Y-17317619D02*
X14818857Y-17355714D01*
X14818857Y-17355714D02*
X14818857Y-17403333D01*
X14818857Y-17403333D02*
X14809333Y-17441429D01*
X14809333Y-17441429D02*
X14799810Y-17460476D01*
X14799810Y-17460476D02*
X14790286Y-17470000D01*
X14790286Y-17470000D02*
X14771238Y-17479524D01*
X14771238Y-17479524D02*
X14752191Y-17479524D01*
X14752191Y-17479524D02*
X14733143Y-17470000D01*
X14733143Y-17470000D02*
X14723619Y-17460476D01*
X14723619Y-17460476D02*
X14714095Y-17441429D01*
X14714095Y-17441429D02*
X14704572Y-17403333D01*
X14704572Y-17403333D02*
X14704572Y-17355714D01*
X14704572Y-17355714D02*
X14714095Y-17317619D01*
X14714095Y-17317619D02*
X14723619Y-17298571D01*
X14723619Y-17298571D02*
X14733143Y-17289048D01*
X14733143Y-17289048D02*
X14752191Y-17279524D01*
X14990286Y-17346190D02*
X14990286Y-17479524D01*
X14942667Y-17270000D02*
X14895048Y-17412857D01*
X14895048Y-17412857D02*
X15018857Y-17412857D01*
X15133143Y-17279524D02*
X15152191Y-17279524D01*
X15152191Y-17279524D02*
X15171238Y-17289048D01*
X15171238Y-17289048D02*
X15180762Y-17298571D01*
X15180762Y-17298571D02*
X15190286Y-17317619D01*
X15190286Y-17317619D02*
X15199810Y-17355714D01*
X15199810Y-17355714D02*
X15199810Y-17403333D01*
X15199810Y-17403333D02*
X15190286Y-17441429D01*
X15190286Y-17441429D02*
X15180762Y-17460476D01*
X15180762Y-17460476D02*
X15171238Y-17470000D01*
X15171238Y-17470000D02*
X15152191Y-17479524D01*
X15152191Y-17479524D02*
X15133143Y-17479524D01*
X15133143Y-17479524D02*
X15114095Y-17470000D01*
X15114095Y-17470000D02*
X15104572Y-17460476D01*
X15104572Y-17460476D02*
X15095048Y-17441429D01*
X15095048Y-17441429D02*
X15085524Y-17403333D01*
X15085524Y-17403333D02*
X15085524Y-17355714D01*
X15085524Y-17355714D02*
X15095048Y-17317619D01*
X15095048Y-17317619D02*
X15104572Y-17298571D01*
X15104572Y-17298571D02*
X15114095Y-17289048D01*
X15114095Y-17289048D02*
X15133143Y-17279524D01*
X15323619Y-17279524D02*
X15342667Y-17279524D01*
X15342667Y-17279524D02*
X15361714Y-17289048D01*
X15361714Y-17289048D02*
X15371238Y-17298571D01*
X15371238Y-17298571D02*
X15380762Y-17317619D01*
X15380762Y-17317619D02*
X15390286Y-17355714D01*
X15390286Y-17355714D02*
X15390286Y-17403333D01*
X15390286Y-17403333D02*
X15380762Y-17441429D01*
X15380762Y-17441429D02*
X15371238Y-17460476D01*
X15371238Y-17460476D02*
X15361714Y-17470000D01*
X15361714Y-17470000D02*
X15342667Y-17479524D01*
X15342667Y-17479524D02*
X15323619Y-17479524D01*
X15323619Y-17479524D02*
X15304572Y-17470000D01*
X15304572Y-17470000D02*
X15295048Y-17460476D01*
X15295048Y-17460476D02*
X15285524Y-17441429D01*
X15285524Y-17441429D02*
X15276000Y-17403333D01*
X15276000Y-17403333D02*
X15276000Y-17355714D01*
X15276000Y-17355714D02*
X15285524Y-17317619D01*
X15285524Y-17317619D02*
X15295048Y-17298571D01*
X15295048Y-17298571D02*
X15304572Y-17289048D01*
X15304572Y-17289048D02*
X15323619Y-17279524D01*
X15466476Y-17279524D02*
X15466476Y-17317619D01*
X15542667Y-17279524D02*
X15542667Y-17317619D01*
X15837905Y-17555714D02*
X15828381Y-17546190D01*
X15828381Y-17546190D02*
X15809334Y-17517619D01*
X15809334Y-17517619D02*
X15799810Y-17498571D01*
X15799810Y-17498571D02*
X15790286Y-17470000D01*
X15790286Y-17470000D02*
X15780762Y-17422381D01*
X15780762Y-17422381D02*
X15780762Y-17384286D01*
X15780762Y-17384286D02*
X15790286Y-17336667D01*
X15790286Y-17336667D02*
X15799810Y-17308095D01*
X15799810Y-17308095D02*
X15809334Y-17289048D01*
X15809334Y-17289048D02*
X15828381Y-17260476D01*
X15828381Y-17260476D02*
X15837905Y-17250952D01*
X15999810Y-17279524D02*
X15961714Y-17279524D01*
X15961714Y-17279524D02*
X15942667Y-17289048D01*
X15942667Y-17289048D02*
X15933143Y-17298571D01*
X15933143Y-17298571D02*
X15914095Y-17327143D01*
X15914095Y-17327143D02*
X15904572Y-17365238D01*
X15904572Y-17365238D02*
X15904572Y-17441429D01*
X15904572Y-17441429D02*
X15914095Y-17460476D01*
X15914095Y-17460476D02*
X15923619Y-17470000D01*
X15923619Y-17470000D02*
X15942667Y-17479524D01*
X15942667Y-17479524D02*
X15980762Y-17479524D01*
X15980762Y-17479524D02*
X15999810Y-17470000D01*
X15999810Y-17470000D02*
X16009334Y-17460476D01*
X16009334Y-17460476D02*
X16018857Y-17441429D01*
X16018857Y-17441429D02*
X16018857Y-17393810D01*
X16018857Y-17393810D02*
X16009334Y-17374762D01*
X16009334Y-17374762D02*
X15999810Y-17365238D01*
X15999810Y-17365238D02*
X15980762Y-17355714D01*
X15980762Y-17355714D02*
X15942667Y-17355714D01*
X15942667Y-17355714D02*
X15923619Y-17365238D01*
X15923619Y-17365238D02*
X15914095Y-17374762D01*
X15914095Y-17374762D02*
X15904572Y-17393810D01*
X16256953Y-17479524D02*
X16256953Y-17279524D01*
X16342667Y-17479524D02*
X16342667Y-17374762D01*
X16342667Y-17374762D02*
X16333143Y-17355714D01*
X16333143Y-17355714D02*
X16314096Y-17346190D01*
X16314096Y-17346190D02*
X16285524Y-17346190D01*
X16285524Y-17346190D02*
X16266476Y-17355714D01*
X16266476Y-17355714D02*
X16256953Y-17365238D01*
X16466476Y-17479524D02*
X16447429Y-17470000D01*
X16447429Y-17470000D02*
X16437905Y-17460476D01*
X16437905Y-17460476D02*
X16428381Y-17441429D01*
X16428381Y-17441429D02*
X16428381Y-17384286D01*
X16428381Y-17384286D02*
X16437905Y-17365238D01*
X16437905Y-17365238D02*
X16447429Y-17355714D01*
X16447429Y-17355714D02*
X16466476Y-17346190D01*
X16466476Y-17346190D02*
X16495048Y-17346190D01*
X16495048Y-17346190D02*
X16514096Y-17355714D01*
X16514096Y-17355714D02*
X16523619Y-17365238D01*
X16523619Y-17365238D02*
X16533143Y-17384286D01*
X16533143Y-17384286D02*
X16533143Y-17441429D01*
X16533143Y-17441429D02*
X16523619Y-17460476D01*
X16523619Y-17460476D02*
X16514096Y-17470000D01*
X16514096Y-17470000D02*
X16495048Y-17479524D01*
X16495048Y-17479524D02*
X16466476Y-17479524D01*
X16647429Y-17479524D02*
X16628381Y-17470000D01*
X16628381Y-17470000D02*
X16618857Y-17450952D01*
X16618857Y-17450952D02*
X16618857Y-17279524D01*
X16799810Y-17470000D02*
X16780762Y-17479524D01*
X16780762Y-17479524D02*
X16742667Y-17479524D01*
X16742667Y-17479524D02*
X16723619Y-17470000D01*
X16723619Y-17470000D02*
X16714096Y-17450952D01*
X16714096Y-17450952D02*
X16714096Y-17374762D01*
X16714096Y-17374762D02*
X16723619Y-17355714D01*
X16723619Y-17355714D02*
X16742667Y-17346190D01*
X16742667Y-17346190D02*
X16780762Y-17346190D01*
X16780762Y-17346190D02*
X16799810Y-17355714D01*
X16799810Y-17355714D02*
X16809334Y-17374762D01*
X16809334Y-17374762D02*
X16809334Y-17393810D01*
X16809334Y-17393810D02*
X16714096Y-17412857D01*
X16885524Y-17470000D02*
X16904572Y-17479524D01*
X16904572Y-17479524D02*
X16942667Y-17479524D01*
X16942667Y-17479524D02*
X16961715Y-17470000D01*
X16961715Y-17470000D02*
X16971239Y-17450952D01*
X16971239Y-17450952D02*
X16971239Y-17441429D01*
X16971239Y-17441429D02*
X16961715Y-17422381D01*
X16961715Y-17422381D02*
X16942667Y-17412857D01*
X16942667Y-17412857D02*
X16914096Y-17412857D01*
X16914096Y-17412857D02*
X16895048Y-17403333D01*
X16895048Y-17403333D02*
X16885524Y-17384286D01*
X16885524Y-17384286D02*
X16885524Y-17374762D01*
X16885524Y-17374762D02*
X16895048Y-17355714D01*
X16895048Y-17355714D02*
X16914096Y-17346190D01*
X16914096Y-17346190D02*
X16942667Y-17346190D01*
X16942667Y-17346190D02*
X16961715Y-17355714D01*
X17037905Y-17555714D02*
X17047429Y-17546190D01*
X17047429Y-17546190D02*
X17066477Y-17517619D01*
X17066477Y-17517619D02*
X17076000Y-17498571D01*
X17076000Y-17498571D02*
X17085524Y-17470000D01*
X17085524Y-17470000D02*
X17095048Y-17422381D01*
X17095048Y-17422381D02*
X17095048Y-17384286D01*
X17095048Y-17384286D02*
X17085524Y-17336667D01*
X17085524Y-17336667D02*
X17076000Y-17308095D01*
X17076000Y-17308095D02*
X17066477Y-17289048D01*
X17066477Y-17289048D02*
X17047429Y-17260476D01*
X17047429Y-17260476D02*
X17037905Y-17250952D01*
X12176000Y-17751000D02*
X12276000Y-17651000D01*
X12176000Y-17551000D01*
X12076000Y-17651000D01*
X12176000Y-17751000D01*
X12514095Y-17562571D02*
X12523619Y-17553048D01*
X12523619Y-17553048D02*
X12542667Y-17543524D01*
X12542667Y-17543524D02*
X12590286Y-17543524D01*
X12590286Y-17543524D02*
X12609333Y-17553048D01*
X12609333Y-17553048D02*
X12618857Y-17562571D01*
X12618857Y-17562571D02*
X12628381Y-17581619D01*
X12628381Y-17581619D02*
X12628381Y-17600667D01*
X12628381Y-17600667D02*
X12618857Y-17629238D01*
X12618857Y-17629238D02*
X12504571Y-17743524D01*
X12504571Y-17743524D02*
X12628381Y-17743524D01*
X12714095Y-17724476D02*
X12723619Y-17734000D01*
X12723619Y-17734000D02*
X12714095Y-17743524D01*
X12714095Y-17743524D02*
X12704571Y-17734000D01*
X12704571Y-17734000D02*
X12714095Y-17724476D01*
X12714095Y-17724476D02*
X12714095Y-17743524D01*
X12895048Y-17543524D02*
X12856952Y-17543524D01*
X12856952Y-17543524D02*
X12837905Y-17553048D01*
X12837905Y-17553048D02*
X12828381Y-17562571D01*
X12828381Y-17562571D02*
X12809333Y-17591143D01*
X12809333Y-17591143D02*
X12799809Y-17629238D01*
X12799809Y-17629238D02*
X12799809Y-17705429D01*
X12799809Y-17705429D02*
X12809333Y-17724476D01*
X12809333Y-17724476D02*
X12818857Y-17734000D01*
X12818857Y-17734000D02*
X12837905Y-17743524D01*
X12837905Y-17743524D02*
X12876000Y-17743524D01*
X12876000Y-17743524D02*
X12895048Y-17734000D01*
X12895048Y-17734000D02*
X12904571Y-17724476D01*
X12904571Y-17724476D02*
X12914095Y-17705429D01*
X12914095Y-17705429D02*
X12914095Y-17657810D01*
X12914095Y-17657810D02*
X12904571Y-17638762D01*
X12904571Y-17638762D02*
X12895048Y-17629238D01*
X12895048Y-17629238D02*
X12876000Y-17619714D01*
X12876000Y-17619714D02*
X12837905Y-17619714D01*
X12837905Y-17619714D02*
X12818857Y-17629238D01*
X12818857Y-17629238D02*
X12809333Y-17638762D01*
X12809333Y-17638762D02*
X12799809Y-17657810D01*
X13037905Y-17543524D02*
X13056952Y-17543524D01*
X13056952Y-17543524D02*
X13076000Y-17553048D01*
X13076000Y-17553048D02*
X13085524Y-17562571D01*
X13085524Y-17562571D02*
X13095048Y-17581619D01*
X13095048Y-17581619D02*
X13104571Y-17619714D01*
X13104571Y-17619714D02*
X13104571Y-17667333D01*
X13104571Y-17667333D02*
X13095048Y-17705429D01*
X13095048Y-17705429D02*
X13085524Y-17724476D01*
X13085524Y-17724476D02*
X13076000Y-17734000D01*
X13076000Y-17734000D02*
X13056952Y-17743524D01*
X13056952Y-17743524D02*
X13037905Y-17743524D01*
X13037905Y-17743524D02*
X13018857Y-17734000D01*
X13018857Y-17734000D02*
X13009333Y-17724476D01*
X13009333Y-17724476D02*
X12999809Y-17705429D01*
X12999809Y-17705429D02*
X12990286Y-17667333D01*
X12990286Y-17667333D02*
X12990286Y-17619714D01*
X12990286Y-17619714D02*
X12999809Y-17581619D01*
X12999809Y-17581619D02*
X13009333Y-17562571D01*
X13009333Y-17562571D02*
X13018857Y-17553048D01*
X13018857Y-17553048D02*
X13037905Y-17543524D01*
X13228381Y-17543524D02*
X13247429Y-17543524D01*
X13247429Y-17543524D02*
X13266476Y-17553048D01*
X13266476Y-17553048D02*
X13276000Y-17562571D01*
X13276000Y-17562571D02*
X13285524Y-17581619D01*
X13285524Y-17581619D02*
X13295048Y-17619714D01*
X13295048Y-17619714D02*
X13295048Y-17667333D01*
X13295048Y-17667333D02*
X13285524Y-17705429D01*
X13285524Y-17705429D02*
X13276000Y-17724476D01*
X13276000Y-17724476D02*
X13266476Y-17734000D01*
X13266476Y-17734000D02*
X13247429Y-17743524D01*
X13247429Y-17743524D02*
X13228381Y-17743524D01*
X13228381Y-17743524D02*
X13209333Y-17734000D01*
X13209333Y-17734000D02*
X13199809Y-17724476D01*
X13199809Y-17724476D02*
X13190286Y-17705429D01*
X13190286Y-17705429D02*
X13180762Y-17667333D01*
X13180762Y-17667333D02*
X13180762Y-17619714D01*
X13180762Y-17619714D02*
X13190286Y-17581619D01*
X13190286Y-17581619D02*
X13199809Y-17562571D01*
X13199809Y-17562571D02*
X13209333Y-17553048D01*
X13209333Y-17553048D02*
X13228381Y-17543524D01*
X13380762Y-17743524D02*
X13380762Y-17610190D01*
X13380762Y-17629238D02*
X13390286Y-17619714D01*
X13390286Y-17619714D02*
X13409333Y-17610190D01*
X13409333Y-17610190D02*
X13437905Y-17610190D01*
X13437905Y-17610190D02*
X13456952Y-17619714D01*
X13456952Y-17619714D02*
X13466476Y-17638762D01*
X13466476Y-17638762D02*
X13466476Y-17743524D01*
X13466476Y-17638762D02*
X13476000Y-17619714D01*
X13476000Y-17619714D02*
X13495048Y-17610190D01*
X13495048Y-17610190D02*
X13523619Y-17610190D01*
X13523619Y-17610190D02*
X13542667Y-17619714D01*
X13542667Y-17619714D02*
X13552190Y-17638762D01*
X13552190Y-17638762D02*
X13552190Y-17743524D01*
X13647429Y-17743524D02*
X13647429Y-17610190D01*
X13647429Y-17629238D02*
X13656952Y-17619714D01*
X13656952Y-17619714D02*
X13676000Y-17610190D01*
X13676000Y-17610190D02*
X13704571Y-17610190D01*
X13704571Y-17610190D02*
X13723619Y-17619714D01*
X13723619Y-17619714D02*
X13733143Y-17638762D01*
X13733143Y-17638762D02*
X13733143Y-17743524D01*
X13733143Y-17638762D02*
X13742667Y-17619714D01*
X13742667Y-17619714D02*
X13761714Y-17610190D01*
X13761714Y-17610190D02*
X13790286Y-17610190D01*
X13790286Y-17610190D02*
X13809333Y-17619714D01*
X13809333Y-17619714D02*
X13818857Y-17638762D01*
X13818857Y-17638762D02*
X13818857Y-17743524D01*
X14209333Y-17534000D02*
X14037905Y-17791143D01*
X14466476Y-17543524D02*
X14485524Y-17543524D01*
X14485524Y-17543524D02*
X14504572Y-17553048D01*
X14504572Y-17553048D02*
X14514095Y-17562571D01*
X14514095Y-17562571D02*
X14523619Y-17581619D01*
X14523619Y-17581619D02*
X14533143Y-17619714D01*
X14533143Y-17619714D02*
X14533143Y-17667333D01*
X14533143Y-17667333D02*
X14523619Y-17705429D01*
X14523619Y-17705429D02*
X14514095Y-17724476D01*
X14514095Y-17724476D02*
X14504572Y-17734000D01*
X14504572Y-17734000D02*
X14485524Y-17743524D01*
X14485524Y-17743524D02*
X14466476Y-17743524D01*
X14466476Y-17743524D02*
X14447429Y-17734000D01*
X14447429Y-17734000D02*
X14437905Y-17724476D01*
X14437905Y-17724476D02*
X14428381Y-17705429D01*
X14428381Y-17705429D02*
X14418857Y-17667333D01*
X14418857Y-17667333D02*
X14418857Y-17619714D01*
X14418857Y-17619714D02*
X14428381Y-17581619D01*
X14428381Y-17581619D02*
X14437905Y-17562571D01*
X14437905Y-17562571D02*
X14447429Y-17553048D01*
X14447429Y-17553048D02*
X14466476Y-17543524D01*
X14618857Y-17724476D02*
X14628381Y-17734000D01*
X14628381Y-17734000D02*
X14618857Y-17743524D01*
X14618857Y-17743524D02*
X14609333Y-17734000D01*
X14609333Y-17734000D02*
X14618857Y-17724476D01*
X14618857Y-17724476D02*
X14618857Y-17743524D01*
X14818857Y-17743524D02*
X14704572Y-17743524D01*
X14761714Y-17743524D02*
X14761714Y-17543524D01*
X14761714Y-17543524D02*
X14742667Y-17572095D01*
X14742667Y-17572095D02*
X14723619Y-17591143D01*
X14723619Y-17591143D02*
X14704572Y-17600667D01*
X14942667Y-17543524D02*
X14961714Y-17543524D01*
X14961714Y-17543524D02*
X14980762Y-17553048D01*
X14980762Y-17553048D02*
X14990286Y-17562571D01*
X14990286Y-17562571D02*
X14999810Y-17581619D01*
X14999810Y-17581619D02*
X15009333Y-17619714D01*
X15009333Y-17619714D02*
X15009333Y-17667333D01*
X15009333Y-17667333D02*
X14999810Y-17705429D01*
X14999810Y-17705429D02*
X14990286Y-17724476D01*
X14990286Y-17724476D02*
X14980762Y-17734000D01*
X14980762Y-17734000D02*
X14961714Y-17743524D01*
X14961714Y-17743524D02*
X14942667Y-17743524D01*
X14942667Y-17743524D02*
X14923619Y-17734000D01*
X14923619Y-17734000D02*
X14914095Y-17724476D01*
X14914095Y-17724476D02*
X14904572Y-17705429D01*
X14904572Y-17705429D02*
X14895048Y-17667333D01*
X14895048Y-17667333D02*
X14895048Y-17619714D01*
X14895048Y-17619714D02*
X14904572Y-17581619D01*
X14904572Y-17581619D02*
X14914095Y-17562571D01*
X14914095Y-17562571D02*
X14923619Y-17553048D01*
X14923619Y-17553048D02*
X14942667Y-17543524D01*
X15085524Y-17562571D02*
X15095048Y-17553048D01*
X15095048Y-17553048D02*
X15114095Y-17543524D01*
X15114095Y-17543524D02*
X15161714Y-17543524D01*
X15161714Y-17543524D02*
X15180762Y-17553048D01*
X15180762Y-17553048D02*
X15190286Y-17562571D01*
X15190286Y-17562571D02*
X15199810Y-17581619D01*
X15199810Y-17581619D02*
X15199810Y-17600667D01*
X15199810Y-17600667D02*
X15190286Y-17629238D01*
X15190286Y-17629238D02*
X15076000Y-17743524D01*
X15076000Y-17743524D02*
X15199810Y-17743524D01*
X15371238Y-17610190D02*
X15371238Y-17743524D01*
X15323619Y-17534000D02*
X15276000Y-17676857D01*
X15276000Y-17676857D02*
X15399810Y-17676857D01*
X15466476Y-17543524D02*
X15466476Y-17581619D01*
X15542667Y-17543524D02*
X15542667Y-17581619D01*
X15837905Y-17819714D02*
X15828381Y-17810190D01*
X15828381Y-17810190D02*
X15809334Y-17781619D01*
X15809334Y-17781619D02*
X15799810Y-17762571D01*
X15799810Y-17762571D02*
X15790286Y-17734000D01*
X15790286Y-17734000D02*
X15780762Y-17686381D01*
X15780762Y-17686381D02*
X15780762Y-17648286D01*
X15780762Y-17648286D02*
X15790286Y-17600667D01*
X15790286Y-17600667D02*
X15799810Y-17572095D01*
X15799810Y-17572095D02*
X15809334Y-17553048D01*
X15809334Y-17553048D02*
X15828381Y-17524476D01*
X15828381Y-17524476D02*
X15837905Y-17514952D01*
X15999810Y-17610190D02*
X15999810Y-17743524D01*
X15952191Y-17534000D02*
X15904572Y-17676857D01*
X15904572Y-17676857D02*
X16028381Y-17676857D01*
X16256953Y-17743524D02*
X16256953Y-17543524D01*
X16342667Y-17743524D02*
X16342667Y-17638762D01*
X16342667Y-17638762D02*
X16333143Y-17619714D01*
X16333143Y-17619714D02*
X16314096Y-17610190D01*
X16314096Y-17610190D02*
X16285524Y-17610190D01*
X16285524Y-17610190D02*
X16266476Y-17619714D01*
X16266476Y-17619714D02*
X16256953Y-17629238D01*
X16466476Y-17743524D02*
X16447429Y-17734000D01*
X16447429Y-17734000D02*
X16437905Y-17724476D01*
X16437905Y-17724476D02*
X16428381Y-17705429D01*
X16428381Y-17705429D02*
X16428381Y-17648286D01*
X16428381Y-17648286D02*
X16437905Y-17629238D01*
X16437905Y-17629238D02*
X16447429Y-17619714D01*
X16447429Y-17619714D02*
X16466476Y-17610190D01*
X16466476Y-17610190D02*
X16495048Y-17610190D01*
X16495048Y-17610190D02*
X16514096Y-17619714D01*
X16514096Y-17619714D02*
X16523619Y-17629238D01*
X16523619Y-17629238D02*
X16533143Y-17648286D01*
X16533143Y-17648286D02*
X16533143Y-17705429D01*
X16533143Y-17705429D02*
X16523619Y-17724476D01*
X16523619Y-17724476D02*
X16514096Y-17734000D01*
X16514096Y-17734000D02*
X16495048Y-17743524D01*
X16495048Y-17743524D02*
X16466476Y-17743524D01*
X16647429Y-17743524D02*
X16628381Y-17734000D01*
X16628381Y-17734000D02*
X16618857Y-17714952D01*
X16618857Y-17714952D02*
X16618857Y-17543524D01*
X16799810Y-17734000D02*
X16780762Y-17743524D01*
X16780762Y-17743524D02*
X16742667Y-17743524D01*
X16742667Y-17743524D02*
X16723619Y-17734000D01*
X16723619Y-17734000D02*
X16714096Y-17714952D01*
X16714096Y-17714952D02*
X16714096Y-17638762D01*
X16714096Y-17638762D02*
X16723619Y-17619714D01*
X16723619Y-17619714D02*
X16742667Y-17610190D01*
X16742667Y-17610190D02*
X16780762Y-17610190D01*
X16780762Y-17610190D02*
X16799810Y-17619714D01*
X16799810Y-17619714D02*
X16809334Y-17638762D01*
X16809334Y-17638762D02*
X16809334Y-17657810D01*
X16809334Y-17657810D02*
X16714096Y-17676857D01*
X16885524Y-17734000D02*
X16904572Y-17743524D01*
X16904572Y-17743524D02*
X16942667Y-17743524D01*
X16942667Y-17743524D02*
X16961715Y-17734000D01*
X16961715Y-17734000D02*
X16971239Y-17714952D01*
X16971239Y-17714952D02*
X16971239Y-17705429D01*
X16971239Y-17705429D02*
X16961715Y-17686381D01*
X16961715Y-17686381D02*
X16942667Y-17676857D01*
X16942667Y-17676857D02*
X16914096Y-17676857D01*
X16914096Y-17676857D02*
X16895048Y-17667333D01*
X16895048Y-17667333D02*
X16885524Y-17648286D01*
X16885524Y-17648286D02*
X16885524Y-17638762D01*
X16885524Y-17638762D02*
X16895048Y-17619714D01*
X16895048Y-17619714D02*
X16914096Y-17610190D01*
X16914096Y-17610190D02*
X16942667Y-17610190D01*
X16942667Y-17610190D02*
X16961715Y-17619714D01*
X17037905Y-17819714D02*
X17047429Y-17810190D01*
X17047429Y-17810190D02*
X17066477Y-17781619D01*
X17066477Y-17781619D02*
X17076000Y-17762571D01*
X17076000Y-17762571D02*
X17085524Y-17734000D01*
X17085524Y-17734000D02*
X17095048Y-17686381D01*
X17095048Y-17686381D02*
X17095048Y-17648286D01*
X17095048Y-17648286D02*
X17085524Y-17600667D01*
X17085524Y-17600667D02*
X17076000Y-17572095D01*
X17076000Y-17572095D02*
X17066477Y-17553048D01*
X17066477Y-17553048D02*
X17047429Y-17524476D01*
X17047429Y-17524476D02*
X17037905Y-17514952D01*
X12076000Y-17871000D02*
X12276000Y-18071000D01*
X12276000Y-17871000D02*
X12076000Y-18071000D01*
X12276000Y-17971000D02*
G75*
G03*
X12276000Y-17971000I-100000J0D01*
G01*
X12618857Y-17863524D02*
X12523619Y-17863524D01*
X12523619Y-17863524D02*
X12514095Y-17958762D01*
X12514095Y-17958762D02*
X12523619Y-17949238D01*
X12523619Y-17949238D02*
X12542667Y-17939714D01*
X12542667Y-17939714D02*
X12590286Y-17939714D01*
X12590286Y-17939714D02*
X12609333Y-17949238D01*
X12609333Y-17949238D02*
X12618857Y-17958762D01*
X12618857Y-17958762D02*
X12628381Y-17977810D01*
X12628381Y-17977810D02*
X12628381Y-18025429D01*
X12628381Y-18025429D02*
X12618857Y-18044476D01*
X12618857Y-18044476D02*
X12609333Y-18054000D01*
X12609333Y-18054000D02*
X12590286Y-18063524D01*
X12590286Y-18063524D02*
X12542667Y-18063524D01*
X12542667Y-18063524D02*
X12523619Y-18054000D01*
X12523619Y-18054000D02*
X12514095Y-18044476D01*
X12714095Y-18044476D02*
X12723619Y-18054000D01*
X12723619Y-18054000D02*
X12714095Y-18063524D01*
X12714095Y-18063524D02*
X12704571Y-18054000D01*
X12704571Y-18054000D02*
X12714095Y-18044476D01*
X12714095Y-18044476D02*
X12714095Y-18063524D01*
X12904571Y-17863524D02*
X12809333Y-17863524D01*
X12809333Y-17863524D02*
X12799809Y-17958762D01*
X12799809Y-17958762D02*
X12809333Y-17949238D01*
X12809333Y-17949238D02*
X12828381Y-17939714D01*
X12828381Y-17939714D02*
X12876000Y-17939714D01*
X12876000Y-17939714D02*
X12895048Y-17949238D01*
X12895048Y-17949238D02*
X12904571Y-17958762D01*
X12904571Y-17958762D02*
X12914095Y-17977810D01*
X12914095Y-17977810D02*
X12914095Y-18025429D01*
X12914095Y-18025429D02*
X12904571Y-18044476D01*
X12904571Y-18044476D02*
X12895048Y-18054000D01*
X12895048Y-18054000D02*
X12876000Y-18063524D01*
X12876000Y-18063524D02*
X12828381Y-18063524D01*
X12828381Y-18063524D02*
X12809333Y-18054000D01*
X12809333Y-18054000D02*
X12799809Y-18044476D01*
X13037905Y-17863524D02*
X13056952Y-17863524D01*
X13056952Y-17863524D02*
X13076000Y-17873048D01*
X13076000Y-17873048D02*
X13085524Y-17882571D01*
X13085524Y-17882571D02*
X13095048Y-17901619D01*
X13095048Y-17901619D02*
X13104571Y-17939714D01*
X13104571Y-17939714D02*
X13104571Y-17987333D01*
X13104571Y-17987333D02*
X13095048Y-18025429D01*
X13095048Y-18025429D02*
X13085524Y-18044476D01*
X13085524Y-18044476D02*
X13076000Y-18054000D01*
X13076000Y-18054000D02*
X13056952Y-18063524D01*
X13056952Y-18063524D02*
X13037905Y-18063524D01*
X13037905Y-18063524D02*
X13018857Y-18054000D01*
X13018857Y-18054000D02*
X13009333Y-18044476D01*
X13009333Y-18044476D02*
X12999809Y-18025429D01*
X12999809Y-18025429D02*
X12990286Y-17987333D01*
X12990286Y-17987333D02*
X12990286Y-17939714D01*
X12990286Y-17939714D02*
X12999809Y-17901619D01*
X12999809Y-17901619D02*
X13009333Y-17882571D01*
X13009333Y-17882571D02*
X13018857Y-17873048D01*
X13018857Y-17873048D02*
X13037905Y-17863524D01*
X13228381Y-17863524D02*
X13247429Y-17863524D01*
X13247429Y-17863524D02*
X13266476Y-17873048D01*
X13266476Y-17873048D02*
X13276000Y-17882571D01*
X13276000Y-17882571D02*
X13285524Y-17901619D01*
X13285524Y-17901619D02*
X13295048Y-17939714D01*
X13295048Y-17939714D02*
X13295048Y-17987333D01*
X13295048Y-17987333D02*
X13285524Y-18025429D01*
X13285524Y-18025429D02*
X13276000Y-18044476D01*
X13276000Y-18044476D02*
X13266476Y-18054000D01*
X13266476Y-18054000D02*
X13247429Y-18063524D01*
X13247429Y-18063524D02*
X13228381Y-18063524D01*
X13228381Y-18063524D02*
X13209333Y-18054000D01*
X13209333Y-18054000D02*
X13199809Y-18044476D01*
X13199809Y-18044476D02*
X13190286Y-18025429D01*
X13190286Y-18025429D02*
X13180762Y-17987333D01*
X13180762Y-17987333D02*
X13180762Y-17939714D01*
X13180762Y-17939714D02*
X13190286Y-17901619D01*
X13190286Y-17901619D02*
X13199809Y-17882571D01*
X13199809Y-17882571D02*
X13209333Y-17873048D01*
X13209333Y-17873048D02*
X13228381Y-17863524D01*
X13380762Y-18063524D02*
X13380762Y-17930190D01*
X13380762Y-17949238D02*
X13390286Y-17939714D01*
X13390286Y-17939714D02*
X13409333Y-17930190D01*
X13409333Y-17930190D02*
X13437905Y-17930190D01*
X13437905Y-17930190D02*
X13456952Y-17939714D01*
X13456952Y-17939714D02*
X13466476Y-17958762D01*
X13466476Y-17958762D02*
X13466476Y-18063524D01*
X13466476Y-17958762D02*
X13476000Y-17939714D01*
X13476000Y-17939714D02*
X13495048Y-17930190D01*
X13495048Y-17930190D02*
X13523619Y-17930190D01*
X13523619Y-17930190D02*
X13542667Y-17939714D01*
X13542667Y-17939714D02*
X13552190Y-17958762D01*
X13552190Y-17958762D02*
X13552190Y-18063524D01*
X13647429Y-18063524D02*
X13647429Y-17930190D01*
X13647429Y-17949238D02*
X13656952Y-17939714D01*
X13656952Y-17939714D02*
X13676000Y-17930190D01*
X13676000Y-17930190D02*
X13704571Y-17930190D01*
X13704571Y-17930190D02*
X13723619Y-17939714D01*
X13723619Y-17939714D02*
X13733143Y-17958762D01*
X13733143Y-17958762D02*
X13733143Y-18063524D01*
X13733143Y-17958762D02*
X13742667Y-17939714D01*
X13742667Y-17939714D02*
X13761714Y-17930190D01*
X13761714Y-17930190D02*
X13790286Y-17930190D01*
X13790286Y-17930190D02*
X13809333Y-17939714D01*
X13809333Y-17939714D02*
X13818857Y-17958762D01*
X13818857Y-17958762D02*
X13818857Y-18063524D01*
X14209333Y-17854000D02*
X14037905Y-18111143D01*
X14466476Y-17863524D02*
X14485524Y-17863524D01*
X14485524Y-17863524D02*
X14504572Y-17873048D01*
X14504572Y-17873048D02*
X14514095Y-17882571D01*
X14514095Y-17882571D02*
X14523619Y-17901619D01*
X14523619Y-17901619D02*
X14533143Y-17939714D01*
X14533143Y-17939714D02*
X14533143Y-17987333D01*
X14533143Y-17987333D02*
X14523619Y-18025429D01*
X14523619Y-18025429D02*
X14514095Y-18044476D01*
X14514095Y-18044476D02*
X14504572Y-18054000D01*
X14504572Y-18054000D02*
X14485524Y-18063524D01*
X14485524Y-18063524D02*
X14466476Y-18063524D01*
X14466476Y-18063524D02*
X14447429Y-18054000D01*
X14447429Y-18054000D02*
X14437905Y-18044476D01*
X14437905Y-18044476D02*
X14428381Y-18025429D01*
X14428381Y-18025429D02*
X14418857Y-17987333D01*
X14418857Y-17987333D02*
X14418857Y-17939714D01*
X14418857Y-17939714D02*
X14428381Y-17901619D01*
X14428381Y-17901619D02*
X14437905Y-17882571D01*
X14437905Y-17882571D02*
X14447429Y-17873048D01*
X14447429Y-17873048D02*
X14466476Y-17863524D01*
X14618857Y-18044476D02*
X14628381Y-18054000D01*
X14628381Y-18054000D02*
X14618857Y-18063524D01*
X14618857Y-18063524D02*
X14609333Y-18054000D01*
X14609333Y-18054000D02*
X14618857Y-18044476D01*
X14618857Y-18044476D02*
X14618857Y-18063524D01*
X14704572Y-17882571D02*
X14714095Y-17873048D01*
X14714095Y-17873048D02*
X14733143Y-17863524D01*
X14733143Y-17863524D02*
X14780762Y-17863524D01*
X14780762Y-17863524D02*
X14799810Y-17873048D01*
X14799810Y-17873048D02*
X14809333Y-17882571D01*
X14809333Y-17882571D02*
X14818857Y-17901619D01*
X14818857Y-17901619D02*
X14818857Y-17920667D01*
X14818857Y-17920667D02*
X14809333Y-17949238D01*
X14809333Y-17949238D02*
X14695048Y-18063524D01*
X14695048Y-18063524D02*
X14818857Y-18063524D01*
X15009333Y-18063524D02*
X14895048Y-18063524D01*
X14952191Y-18063524D02*
X14952191Y-17863524D01*
X14952191Y-17863524D02*
X14933143Y-17892095D01*
X14933143Y-17892095D02*
X14914095Y-17911143D01*
X14914095Y-17911143D02*
X14895048Y-17920667D01*
X15180762Y-17863524D02*
X15142667Y-17863524D01*
X15142667Y-17863524D02*
X15123619Y-17873048D01*
X15123619Y-17873048D02*
X15114095Y-17882571D01*
X15114095Y-17882571D02*
X15095048Y-17911143D01*
X15095048Y-17911143D02*
X15085524Y-17949238D01*
X15085524Y-17949238D02*
X15085524Y-18025429D01*
X15085524Y-18025429D02*
X15095048Y-18044476D01*
X15095048Y-18044476D02*
X15104572Y-18054000D01*
X15104572Y-18054000D02*
X15123619Y-18063524D01*
X15123619Y-18063524D02*
X15161714Y-18063524D01*
X15161714Y-18063524D02*
X15180762Y-18054000D01*
X15180762Y-18054000D02*
X15190286Y-18044476D01*
X15190286Y-18044476D02*
X15199810Y-18025429D01*
X15199810Y-18025429D02*
X15199810Y-17977810D01*
X15199810Y-17977810D02*
X15190286Y-17958762D01*
X15190286Y-17958762D02*
X15180762Y-17949238D01*
X15180762Y-17949238D02*
X15161714Y-17939714D01*
X15161714Y-17939714D02*
X15123619Y-17939714D01*
X15123619Y-17939714D02*
X15104572Y-17949238D01*
X15104572Y-17949238D02*
X15095048Y-17958762D01*
X15095048Y-17958762D02*
X15085524Y-17977810D01*
X15380762Y-17863524D02*
X15285524Y-17863524D01*
X15285524Y-17863524D02*
X15276000Y-17958762D01*
X15276000Y-17958762D02*
X15285524Y-17949238D01*
X15285524Y-17949238D02*
X15304572Y-17939714D01*
X15304572Y-17939714D02*
X15352191Y-17939714D01*
X15352191Y-17939714D02*
X15371238Y-17949238D01*
X15371238Y-17949238D02*
X15380762Y-17958762D01*
X15380762Y-17958762D02*
X15390286Y-17977810D01*
X15390286Y-17977810D02*
X15390286Y-18025429D01*
X15390286Y-18025429D02*
X15380762Y-18044476D01*
X15380762Y-18044476D02*
X15371238Y-18054000D01*
X15371238Y-18054000D02*
X15352191Y-18063524D01*
X15352191Y-18063524D02*
X15304572Y-18063524D01*
X15304572Y-18063524D02*
X15285524Y-18054000D01*
X15285524Y-18054000D02*
X15276000Y-18044476D01*
X15466476Y-17863524D02*
X15466476Y-17901619D01*
X15542667Y-17863524D02*
X15542667Y-17901619D01*
X15837905Y-18139714D02*
X15828381Y-18130190D01*
X15828381Y-18130190D02*
X15809334Y-18101619D01*
X15809334Y-18101619D02*
X15799810Y-18082571D01*
X15799810Y-18082571D02*
X15790286Y-18054000D01*
X15790286Y-18054000D02*
X15780762Y-18006381D01*
X15780762Y-18006381D02*
X15780762Y-17968286D01*
X15780762Y-17968286D02*
X15790286Y-17920667D01*
X15790286Y-17920667D02*
X15799810Y-17892095D01*
X15799810Y-17892095D02*
X15809334Y-17873048D01*
X15809334Y-17873048D02*
X15828381Y-17844476D01*
X15828381Y-17844476D02*
X15837905Y-17834952D01*
X15904572Y-17882571D02*
X15914095Y-17873048D01*
X15914095Y-17873048D02*
X15933143Y-17863524D01*
X15933143Y-17863524D02*
X15980762Y-17863524D01*
X15980762Y-17863524D02*
X15999810Y-17873048D01*
X15999810Y-17873048D02*
X16009334Y-17882571D01*
X16009334Y-17882571D02*
X16018857Y-17901619D01*
X16018857Y-17901619D02*
X16018857Y-17920667D01*
X16018857Y-17920667D02*
X16009334Y-17949238D01*
X16009334Y-17949238D02*
X15895048Y-18063524D01*
X15895048Y-18063524D02*
X16018857Y-18063524D01*
X16256953Y-18063524D02*
X16256953Y-17863524D01*
X16342667Y-18063524D02*
X16342667Y-17958762D01*
X16342667Y-17958762D02*
X16333143Y-17939714D01*
X16333143Y-17939714D02*
X16314096Y-17930190D01*
X16314096Y-17930190D02*
X16285524Y-17930190D01*
X16285524Y-17930190D02*
X16266476Y-17939714D01*
X16266476Y-17939714D02*
X16256953Y-17949238D01*
X16466476Y-18063524D02*
X16447429Y-18054000D01*
X16447429Y-18054000D02*
X16437905Y-18044476D01*
X16437905Y-18044476D02*
X16428381Y-18025429D01*
X16428381Y-18025429D02*
X16428381Y-17968286D01*
X16428381Y-17968286D02*
X16437905Y-17949238D01*
X16437905Y-17949238D02*
X16447429Y-17939714D01*
X16447429Y-17939714D02*
X16466476Y-17930190D01*
X16466476Y-17930190D02*
X16495048Y-17930190D01*
X16495048Y-17930190D02*
X16514096Y-17939714D01*
X16514096Y-17939714D02*
X16523619Y-17949238D01*
X16523619Y-17949238D02*
X16533143Y-17968286D01*
X16533143Y-17968286D02*
X16533143Y-18025429D01*
X16533143Y-18025429D02*
X16523619Y-18044476D01*
X16523619Y-18044476D02*
X16514096Y-18054000D01*
X16514096Y-18054000D02*
X16495048Y-18063524D01*
X16495048Y-18063524D02*
X16466476Y-18063524D01*
X16647429Y-18063524D02*
X16628381Y-18054000D01*
X16628381Y-18054000D02*
X16618857Y-18034952D01*
X16618857Y-18034952D02*
X16618857Y-17863524D01*
X16799810Y-18054000D02*
X16780762Y-18063524D01*
X16780762Y-18063524D02*
X16742667Y-18063524D01*
X16742667Y-18063524D02*
X16723619Y-18054000D01*
X16723619Y-18054000D02*
X16714096Y-18034952D01*
X16714096Y-18034952D02*
X16714096Y-17958762D01*
X16714096Y-17958762D02*
X16723619Y-17939714D01*
X16723619Y-17939714D02*
X16742667Y-17930190D01*
X16742667Y-17930190D02*
X16780762Y-17930190D01*
X16780762Y-17930190D02*
X16799810Y-17939714D01*
X16799810Y-17939714D02*
X16809334Y-17958762D01*
X16809334Y-17958762D02*
X16809334Y-17977810D01*
X16809334Y-17977810D02*
X16714096Y-17996857D01*
X16885524Y-18054000D02*
X16904572Y-18063524D01*
X16904572Y-18063524D02*
X16942667Y-18063524D01*
X16942667Y-18063524D02*
X16961715Y-18054000D01*
X16961715Y-18054000D02*
X16971239Y-18034952D01*
X16971239Y-18034952D02*
X16971239Y-18025429D01*
X16971239Y-18025429D02*
X16961715Y-18006381D01*
X16961715Y-18006381D02*
X16942667Y-17996857D01*
X16942667Y-17996857D02*
X16914096Y-17996857D01*
X16914096Y-17996857D02*
X16895048Y-17987333D01*
X16895048Y-17987333D02*
X16885524Y-17968286D01*
X16885524Y-17968286D02*
X16885524Y-17958762D01*
X16885524Y-17958762D02*
X16895048Y-17939714D01*
X16895048Y-17939714D02*
X16914096Y-17930190D01*
X16914096Y-17930190D02*
X16942667Y-17930190D01*
X16942667Y-17930190D02*
X16961715Y-17939714D01*
X17037905Y-18139714D02*
X17047429Y-18130190D01*
X17047429Y-18130190D02*
X17066477Y-18101619D01*
X17066477Y-18101619D02*
X17076000Y-18082571D01*
X17076000Y-18082571D02*
X17085524Y-18054000D01*
X17085524Y-18054000D02*
X17095048Y-18006381D01*
X17095048Y-18006381D02*
X17095048Y-17968286D01*
X17095048Y-17968286D02*
X17085524Y-17920667D01*
X17085524Y-17920667D02*
X17076000Y-17892095D01*
X17076000Y-17892095D02*
X17066477Y-17873048D01*
X17066477Y-17873048D02*
X17047429Y-17844476D01*
X17047429Y-17844476D02*
X17037905Y-17834952D01*
M02*
