%TF.GenerationSoftware,KiCad,Pcbnew,7.0.7*%
%TF.CreationDate,2023-11-04T09:33:57-05:00*%
%TF.ProjectId,ProjectNeoRogue,50726f6a-6563-4744-9e65-6f526f677565,v1*%
%TF.SameCoordinates,Original*%
%TF.FileFunction,Soldermask,Bot*%
%TF.FilePolarity,Negative*%
%FSLAX46Y46*%
G04 Gerber Fmt 4.6, Leading zero omitted, Abs format (unit mm)*
G04 Created by KiCad (PCBNEW 7.0.7) date 2023-11-04 09:33:57*
%MOMM*%
%LPD*%
G01*
G04 APERTURE LIST*
G04 Aperture macros list*
%AMRoundRect*
0 Rectangle with rounded corners*
0 $1 Rounding radius*
0 $2 $3 $4 $5 $6 $7 $8 $9 X,Y pos of 4 corners*
0 Add a 4 corners polygon primitive as box body*
4,1,4,$2,$3,$4,$5,$6,$7,$8,$9,$2,$3,0*
0 Add four circle primitives for the rounded corners*
1,1,$1+$1,$2,$3*
1,1,$1+$1,$4,$5*
1,1,$1+$1,$6,$7*
1,1,$1+$1,$8,$9*
0 Add four rect primitives between the rounded corners*
20,1,$1+$1,$2,$3,$4,$5,0*
20,1,$1+$1,$4,$5,$6,$7,0*
20,1,$1+$1,$6,$7,$8,$9,0*
20,1,$1+$1,$8,$9,$2,$3,0*%
G04 Aperture macros list end*
%ADD10C,1.152495*%
%ADD11C,0.100000*%
%ADD12O,2.127200X2.127200*%
%ADD13RoundRect,0.200000X-0.863600X0.863600X-0.863600X-0.863600X0.863600X-0.863600X0.863600X0.863600X0*%
%ADD14C,2.127200*%
%ADD15RoundRect,0.200000X0.850000X0.850000X-0.850000X0.850000X-0.850000X-0.850000X0.850000X-0.850000X0*%
%ADD16O,2.100000X2.100000*%
%ADD17RoundRect,0.200000X-1.000000X-1.000000X1.000000X-1.000000X1.000000X1.000000X-1.000000X1.000000X0*%
%ADD18C,2.400000*%
%ADD19C,3.600000*%
%ADD20RoundRect,0.450000X0.375000X0.625000X-0.375000X0.625000X-0.375000X-0.625000X0.375000X-0.625000X0*%
%ADD21RoundRect,0.200000X-0.850000X-0.850000X0.850000X-0.850000X0.850000X0.850000X-0.850000X0.850000X0*%
%ADD22C,2.774900*%
%ADD23C,1.390600*%
%ADD24C,1.187400*%
%ADD25RoundRect,0.443750X0.243750X0.456250X-0.243750X0.456250X-0.243750X-0.456250X0.243750X-0.456250X0*%
%ADD26RoundRect,0.450000X-0.375000X-0.625000X0.375000X-0.625000X0.375000X0.625000X-0.375000X0.625000X0*%
%ADD27R,1.930400X2.438400*%
%ADD28R,1.955800X2.463800*%
%ADD29RoundRect,0.350000X-0.150000X0.587500X-0.150000X-0.587500X0.150000X-0.587500X0.150000X0.587500X0*%
%ADD30RoundRect,0.200000X2.750000X1.750000X-2.750000X1.750000X-2.750000X-1.750000X2.750000X-1.750000X0*%
%ADD31RoundRect,0.200000X2.250000X2.750000X-2.250000X2.750000X-2.250000X-2.750000X2.250000X-2.750000X0*%
%ADD32RoundRect,0.200000X0.425000X0.550000X-0.425000X0.550000X-0.425000X-0.550000X0.425000X-0.550000X0*%
%ADD33RoundRect,0.200000X0.375000X0.550000X-0.375000X0.550000X-0.375000X-0.550000X0.375000X-0.550000X0*%
%ADD34RoundRect,0.200000X0.600000X0.500000X-0.600000X0.500000X-0.600000X-0.500000X0.600000X-0.500000X0*%
%ADD35RoundRect,0.200000X0.775000X0.675000X-0.775000X0.675000X-0.775000X-0.675000X0.775000X-0.675000X0*%
%ADD36RoundRect,0.200000X0.950000X0.675000X-0.950000X0.675000X-0.950000X-0.675000X0.950000X-0.675000X0*%
%ADD37RoundRect,0.200000X0.585000X0.900000X-0.585000X0.900000X-0.585000X-0.900000X0.585000X-0.900000X0*%
%ADD38RoundRect,0.443750X-0.243750X-0.456250X0.243750X-0.456250X0.243750X0.456250X-0.243750X0.456250X0*%
%ADD39RoundRect,0.443750X-0.456250X0.243750X-0.456250X-0.243750X0.456250X-0.243750X0.456250X0.243750X0*%
%ADD40RoundRect,0.437500X0.300000X0.237500X-0.300000X0.237500X-0.300000X-0.237500X0.300000X-0.237500X0*%
%ADD41RoundRect,0.450000X-0.625000X0.375000X-0.625000X-0.375000X0.625000X-0.375000X0.625000X0.375000X0*%
%ADD42RoundRect,0.200000X-0.250000X0.400000X-0.250000X-0.400000X0.250000X-0.400000X0.250000X0.400000X0*%
%ADD43RoundRect,0.200000X-0.200000X0.400000X-0.200000X-0.400000X0.200000X-0.400000X0.200000X0.400000X0*%
%ADD44RoundRect,0.200000X0.974000X0.850000X-0.974000X0.850000X-0.974000X-0.850000X0.974000X-0.850000X0*%
%ADD45RoundRect,0.450000X0.625000X-0.375000X0.625000X0.375000X-0.625000X0.375000X-0.625000X-0.375000X0*%
%ADD46RoundRect,0.200000X-0.450000X0.750000X-0.450000X-0.750000X0.450000X-0.750000X0.450000X0.750000X0*%
%ADD47RoundRect,0.200000X0.750000X0.450000X-0.750000X0.450000X-0.750000X-0.450000X0.750000X-0.450000X0*%
%ADD48RoundRect,0.200000X0.450000X-0.750000X0.450000X0.750000X-0.450000X0.750000X-0.450000X-0.750000X0*%
%ADD49RoundRect,0.200000X0.450000X-0.450000X0.450000X0.450000X-0.450000X0.450000X-0.450000X-0.450000X0*%
%ADD50RoundRect,0.070000X0.325000X0.875000X-0.325000X0.875000X-0.325000X-0.875000X0.325000X-0.875000X0*%
%ADD51RoundRect,0.101600X0.317500X0.635000X-0.317500X0.635000X-0.317500X-0.635000X0.317500X-0.635000X0*%
%ADD52RoundRect,0.437500X-0.250000X-0.237500X0.250000X-0.237500X0.250000X0.237500X-0.250000X0.237500X0*%
%ADD53RoundRect,0.443750X0.456250X-0.243750X0.456250X0.243750X-0.456250X0.243750X-0.456250X-0.243750X0*%
%ADD54RoundRect,0.200000X0.300000X0.600000X-0.300000X0.600000X-0.300000X-0.600000X0.300000X-0.600000X0*%
%ADD55RoundRect,0.450001X-0.924999X0.499999X-0.924999X-0.499999X0.924999X-0.499999X0.924999X0.499999X0*%
%ADD56RoundRect,0.200000X-0.400000X0.500000X-0.400000X-0.500000X0.400000X-0.500000X0.400000X0.500000X0*%
%ADD57C,1.300000*%
%ADD58RoundRect,0.200000X-0.750000X0.350000X-0.750000X-0.350000X0.750000X-0.350000X0.750000X0.350000X0*%
%ADD59RoundRect,0.200000X-0.974000X-0.850000X0.974000X-0.850000X0.974000X0.850000X-0.974000X0.850000X0*%
%ADD60C,1.050000*%
%ADD61RoundRect,0.200000X0.125000X0.700000X-0.125000X0.700000X-0.125000X-0.700000X0.125000X-0.700000X0*%
%ADD62O,1.400000X2.200000*%
%ADD63O,1.400000X2.500000*%
%ADD64RoundRect,0.200000X0.750000X1.100000X-0.750000X1.100000X-0.750000X-1.100000X0.750000X-1.100000X0*%
%ADD65RoundRect,0.200000X1.900000X1.100000X-1.900000X1.100000X-1.900000X-1.100000X1.900000X-1.100000X0*%
%ADD66RoundRect,0.200000X0.150000X-0.350000X0.150000X0.350000X-0.150000X0.350000X-0.150000X-0.350000X0*%
%ADD67RoundRect,0.200000X0.690000X-0.400000X0.690000X0.400000X-0.690000X0.400000X-0.690000X-0.400000X0*%
G04 APERTURE END LIST*
%TO.C,D8*%
D10*
X211528537Y-86200000D02*
G75*
G03*
X211528537Y-86200000I-576247J0D01*
G01*
D11*
X214203490Y-87419200D02*
X212273090Y-87419200D01*
X212273090Y-84980800D01*
X214203490Y-84980800D01*
X214203490Y-87419200D01*
G36*
X214203490Y-87419200D02*
G01*
X212273090Y-87419200D01*
X212273090Y-84980800D01*
X214203490Y-84980800D01*
X214203490Y-87419200D01*
G37*
X209631490Y-87444600D02*
X207650290Y-87444600D01*
X207650290Y-84955400D01*
X209631490Y-84955400D01*
X209631490Y-87444600D01*
G36*
X209631490Y-87444600D02*
G01*
X207650290Y-87444600D01*
X207650290Y-84955400D01*
X209631490Y-84955400D01*
X209631490Y-87444600D01*
G37*
%TO.C,D5*%
D10*
X211528537Y-74050000D02*
G75*
G03*
X211528537Y-74050000I-576247J0D01*
G01*
D11*
X214203490Y-75269200D02*
X212273090Y-75269200D01*
X212273090Y-72830800D01*
X214203490Y-72830800D01*
X214203490Y-75269200D01*
G36*
X214203490Y-75269200D02*
G01*
X212273090Y-75269200D01*
X212273090Y-72830800D01*
X214203490Y-72830800D01*
X214203490Y-75269200D01*
G37*
X209631490Y-75294600D02*
X207650290Y-75294600D01*
X207650290Y-72805400D01*
X209631490Y-72805400D01*
X209631490Y-75294600D01*
G36*
X209631490Y-75294600D02*
G01*
X207650290Y-75294600D01*
X207650290Y-72805400D01*
X209631490Y-72805400D01*
X209631490Y-75294600D01*
G37*
%TO.C,D2*%
D10*
X211528537Y-65950000D02*
G75*
G03*
X211528537Y-65950000I-576247J0D01*
G01*
D11*
X214203490Y-67169200D02*
X212273090Y-67169200D01*
X212273090Y-64730800D01*
X214203490Y-64730800D01*
X214203490Y-67169200D01*
G36*
X214203490Y-67169200D02*
G01*
X212273090Y-67169200D01*
X212273090Y-64730800D01*
X214203490Y-64730800D01*
X214203490Y-67169200D01*
G37*
X209631490Y-67194600D02*
X207650290Y-67194600D01*
X207650290Y-64705400D01*
X209631490Y-64705400D01*
X209631490Y-67194600D01*
G36*
X209631490Y-67194600D02*
G01*
X207650290Y-67194600D01*
X207650290Y-64705400D01*
X209631490Y-64705400D01*
X209631490Y-67194600D01*
G37*
%TO.C,D4*%
D10*
X211528537Y-70000000D02*
G75*
G03*
X211528537Y-70000000I-576247J0D01*
G01*
D11*
X214203490Y-71219200D02*
X212273090Y-71219200D01*
X212273090Y-68780800D01*
X214203490Y-68780800D01*
X214203490Y-71219200D01*
G36*
X214203490Y-71219200D02*
G01*
X212273090Y-71219200D01*
X212273090Y-68780800D01*
X214203490Y-68780800D01*
X214203490Y-71219200D01*
G37*
X209631490Y-71244600D02*
X207650290Y-71244600D01*
X207650290Y-68755400D01*
X209631490Y-68755400D01*
X209631490Y-71244600D01*
G36*
X209631490Y-71244600D02*
G01*
X207650290Y-71244600D01*
X207650290Y-68755400D01*
X209631490Y-68755400D01*
X209631490Y-71244600D01*
G37*
%TO.C,JP1*%
X150621600Y-79796800D02*
X149935800Y-79796800D01*
X149935800Y-79796800D02*
X149935800Y-80203200D01*
X149935800Y-80203200D02*
X150621600Y-80203200D01*
X150621600Y-80203200D02*
X150621600Y-79796800D01*
G36*
X150621600Y-79796800D02*
G01*
X149935800Y-79796800D01*
X149935800Y-80203200D01*
X150621600Y-80203200D01*
X150621600Y-79796800D01*
G37*
%TO.C,D6*%
D10*
X211528537Y-78100000D02*
G75*
G03*
X211528537Y-78100000I-576247J0D01*
G01*
D11*
X214203490Y-79319200D02*
X212273090Y-79319200D01*
X212273090Y-76880800D01*
X214203490Y-76880800D01*
X214203490Y-79319200D01*
G36*
X214203490Y-79319200D02*
G01*
X212273090Y-79319200D01*
X212273090Y-76880800D01*
X214203490Y-76880800D01*
X214203490Y-79319200D01*
G37*
X209631490Y-79344600D02*
X207650290Y-79344600D01*
X207650290Y-76855400D01*
X209631490Y-76855400D01*
X209631490Y-79344600D01*
G36*
X209631490Y-79344600D02*
G01*
X207650290Y-79344600D01*
X207650290Y-76855400D01*
X209631490Y-76855400D01*
X209631490Y-79344600D01*
G37*
%TO.C,D7*%
D10*
X211528537Y-82150000D02*
G75*
G03*
X211528537Y-82150000I-576247J0D01*
G01*
D11*
X214203490Y-83369200D02*
X212273090Y-83369200D01*
X212273090Y-80930800D01*
X214203490Y-80930800D01*
X214203490Y-83369200D01*
G36*
X214203490Y-83369200D02*
G01*
X212273090Y-83369200D01*
X212273090Y-80930800D01*
X214203490Y-80930800D01*
X214203490Y-83369200D01*
G37*
X209631490Y-83394600D02*
X207650290Y-83394600D01*
X207650290Y-80905400D01*
X209631490Y-80905400D01*
X209631490Y-83394600D01*
G36*
X209631490Y-83394600D02*
G01*
X207650290Y-83394600D01*
X207650290Y-80905400D01*
X209631490Y-80905400D01*
X209631490Y-83394600D01*
G37*
%TD*%
D12*
%TO.C,X1*%
X149828604Y-48981396D03*
D13*
X149828604Y-51521396D03*
D12*
X152368604Y-48981396D03*
X152368604Y-51521396D03*
D14*
X154908604Y-48981396D03*
X154908604Y-51521396D03*
%TD*%
D15*
%TO.C,J7*%
X197540000Y-84320000D03*
D16*
X197540000Y-81780000D03*
X197540000Y-79240000D03*
X197540000Y-76700000D03*
X197540000Y-74160000D03*
X197540000Y-71620000D03*
X197540000Y-69080000D03*
%TD*%
D17*
%TO.C,SW9*%
X185560000Y-149520000D03*
D18*
X185560000Y-154520000D03*
X185560000Y-152020000D03*
D19*
X193060000Y-146420000D03*
X193060000Y-157620000D03*
D18*
X200060000Y-154520000D03*
X200060000Y-149520000D03*
%TD*%
D17*
%TO.C,SW10*%
X141380000Y-149440000D03*
D18*
X141380000Y-154440000D03*
X141380000Y-151940000D03*
D19*
X148880000Y-146340000D03*
X148880000Y-157540000D03*
D18*
X155880000Y-154440000D03*
X155880000Y-149440000D03*
%TD*%
D20*
%TO.C,D3*%
X194440000Y-133477000D03*
X191640000Y-133477000D03*
%TD*%
D21*
%TO.C,J9*%
X154690000Y-83760000D03*
D16*
X154690000Y-81220000D03*
X154690000Y-78680000D03*
X154690000Y-76140000D03*
X154690000Y-73600000D03*
X154690000Y-71060000D03*
X154690000Y-68520000D03*
X154690000Y-65980000D03*
%TD*%
D15*
%TO.C,J5*%
X124941000Y-51291000D03*
D16*
X124941000Y-53831000D03*
%TD*%
D22*
%TO.C,J3*%
X127561200Y-88253000D03*
D23*
X127561200Y-90793000D03*
D22*
X127561200Y-93333000D03*
X130736200Y-88253000D03*
X130736200Y-93333000D03*
D23*
X132641200Y-89777000D03*
X132641200Y-91809000D03*
D24*
X128831200Y-90158000D03*
X128831200Y-91428000D03*
X130101200Y-90158000D03*
X130101200Y-91428000D03*
X131371200Y-90158000D03*
X131371200Y-91428000D03*
%TD*%
D25*
%TO.C,C1*%
X133371500Y-48375000D03*
X131496500Y-48375000D03*
%TD*%
D26*
%TO.C,R19*%
X153870000Y-142830000D03*
X156670000Y-142830000D03*
%TD*%
D27*
%TO.C,D8*%
X213238290Y-86200000D03*
D28*
X208666290Y-86200000D03*
%TD*%
D26*
%TO.C,R1*%
X205768604Y-138545000D03*
X208568604Y-138545000D03*
%TD*%
D20*
%TO.C,R5*%
X128710000Y-131750000D03*
X125910000Y-131750000D03*
%TD*%
%TO.C,R15*%
X209100000Y-155930000D03*
X206300000Y-155930000D03*
%TD*%
D27*
%TO.C,D5*%
X213238290Y-74050000D03*
D28*
X208666290Y-74050000D03*
%TD*%
D29*
%TO.C,D19*%
X169860000Y-144581244D03*
X171760000Y-144581244D03*
X170810000Y-146456244D03*
%TD*%
D30*
%TO.C,BT2*%
X205311000Y-119174800D03*
D31*
X192136000Y-119174800D03*
X161836000Y-119199800D03*
D30*
X148711000Y-119174800D03*
%TD*%
D32*
%TO.C,J2*%
X141381000Y-128904000D03*
X140281000Y-128904000D03*
X139181000Y-128904000D03*
X138081000Y-128904000D03*
X136981000Y-128904000D03*
X135881000Y-128904000D03*
X134781000Y-128904000D03*
D33*
X133731000Y-128904000D03*
D34*
X144016000Y-135054000D03*
X144016000Y-138754000D03*
D35*
X143841000Y-129029000D03*
D36*
X140516000Y-139729000D03*
X134546000Y-139729000D03*
D37*
X132521000Y-129254000D03*
%TD*%
D21*
%TO.C,J4*%
X125260000Y-106760000D03*
D16*
X125260000Y-104220000D03*
%TD*%
D15*
%TO.C,J1*%
X125260000Y-152340000D03*
D16*
X125260000Y-154880000D03*
%TD*%
D20*
%TO.C,R4*%
X135307200Y-60084400D03*
X132507200Y-60084400D03*
%TD*%
D27*
%TO.C,D2*%
X213238290Y-65950000D03*
D28*
X208666290Y-65950000D03*
%TD*%
D20*
%TO.C,R22*%
X139955400Y-88151400D03*
X137155400Y-88151400D03*
%TD*%
D38*
%TO.C,C9*%
X132632104Y-63460000D03*
X134507104Y-63460000D03*
%TD*%
D39*
%TO.C,C2*%
X189611000Y-140286500D03*
X189611000Y-142161500D03*
%TD*%
D27*
%TO.C,D4*%
X213238290Y-70000000D03*
D28*
X208666290Y-70000000D03*
%TD*%
D20*
%TO.C,R12*%
X128710000Y-138330000D03*
X125910000Y-138330000D03*
%TD*%
%TO.C,R24*%
X139955400Y-91758200D03*
X137155400Y-91758200D03*
%TD*%
D40*
%TO.C,C11*%
X143989900Y-88888000D03*
X142264900Y-88888000D03*
%TD*%
D38*
%TO.C,C6*%
X178486500Y-142482000D03*
X180361500Y-142482000D03*
%TD*%
D26*
%TO.C,R25*%
X205862400Y-62472000D03*
X208662400Y-62472000D03*
%TD*%
D20*
%TO.C,R8*%
X181490000Y-154960140D03*
X178690000Y-154960140D03*
%TD*%
D41*
%TO.C,F2*%
X206348000Y-109713000D03*
X206348000Y-112513000D03*
%TD*%
D42*
%TO.C,RN2*%
X202227000Y-89131000D03*
D43*
X203027000Y-89131000D03*
X203827000Y-89131000D03*
D42*
X204627000Y-89131000D03*
X204627000Y-90931000D03*
D43*
X203827000Y-90931000D03*
X203027000Y-90931000D03*
D42*
X202227000Y-90931000D03*
%TD*%
D44*
%TO.C,SW2*%
X132568604Y-55711396D03*
X129168604Y-55711396D03*
%TD*%
D45*
%TO.C,R11*%
X167613000Y-148327000D03*
X167613000Y-145527000D03*
%TD*%
%TO.C,R10*%
X174852000Y-148708000D03*
X174852000Y-145908000D03*
%TD*%
D46*
%TO.C,U2*%
X129098604Y-65475000D03*
X130368604Y-65475000D03*
X131638604Y-65475000D03*
X132908604Y-65475000D03*
X134178604Y-65475000D03*
X135448604Y-65475000D03*
X136718604Y-65475000D03*
X137988604Y-65475000D03*
X139258604Y-65475000D03*
X140528604Y-65475000D03*
X141798604Y-65475000D03*
X143068604Y-65475000D03*
X144338604Y-65475000D03*
X145608604Y-65475000D03*
D47*
X146858604Y-67240000D03*
X146858604Y-68510000D03*
X146858604Y-69780000D03*
X146858604Y-71050000D03*
X146858604Y-72320000D03*
X146858604Y-73590000D03*
X146858604Y-74860000D03*
X146858604Y-76130000D03*
X146858604Y-77400000D03*
X146858604Y-78670000D03*
X146858604Y-79940000D03*
X146858604Y-81210000D03*
D48*
X145608604Y-82975000D03*
X144338604Y-82975000D03*
X143068604Y-82975000D03*
X141798604Y-82975000D03*
X140528604Y-82975000D03*
X139258604Y-82975000D03*
X137988604Y-82975000D03*
X136718604Y-82975000D03*
X135448604Y-82975000D03*
X134178604Y-82975000D03*
X132908604Y-82975000D03*
X131638604Y-82975000D03*
X130368604Y-82975000D03*
X129098604Y-82975000D03*
D49*
X138218604Y-71325000D03*
X136818604Y-71325000D03*
X135418604Y-71325000D03*
X138218604Y-72725000D03*
X136818604Y-72725000D03*
X135418604Y-72725000D03*
X138218604Y-74125000D03*
X136818604Y-74125000D03*
X135418604Y-74125000D03*
%TD*%
D50*
%TO.C,U3*%
X171704000Y-140970000D03*
X170434000Y-140970000D03*
X169164000Y-140970000D03*
X167894000Y-140970000D03*
X167894000Y-135470000D03*
X169164000Y-135470000D03*
X170434000Y-135470000D03*
X171704000Y-135470000D03*
%TD*%
D25*
%TO.C,C4*%
X130316104Y-61555000D03*
X128441104Y-61555000D03*
%TD*%
D51*
%TO.C,JP1*%
X151028000Y-80000000D03*
X149529400Y-80000000D03*
%TD*%
D20*
%TO.C,R6*%
X128710000Y-135040000D03*
X125910000Y-135040000D03*
%TD*%
D15*
%TO.C,J6*%
X124941000Y-59165000D03*
D16*
X124941000Y-61705000D03*
%TD*%
D20*
%TO.C,R18*%
X140860000Y-120660000D03*
X138060000Y-120660000D03*
%TD*%
D52*
%TO.C,R21*%
X142214900Y-86144800D03*
X144039900Y-86144800D03*
%TD*%
D26*
%TO.C,R16*%
X206130000Y-150400000D03*
X208930000Y-150400000D03*
%TD*%
D20*
%TO.C,R17*%
X150320000Y-142830000D03*
X147520000Y-142830000D03*
%TD*%
D53*
%TO.C,C8*%
X163422000Y-155357500D03*
X163422000Y-153482500D03*
%TD*%
D39*
%TO.C,C5*%
X173551600Y-135410056D03*
X173551600Y-137285056D03*
%TD*%
D27*
%TO.C,D6*%
X213238290Y-78100000D03*
D28*
X208666290Y-78100000D03*
%TD*%
D20*
%TO.C,R14*%
X174160000Y-129500000D03*
X171360000Y-129500000D03*
%TD*%
D26*
%TO.C,R20*%
X200122000Y-131306000D03*
X202922000Y-131306000D03*
%TD*%
%TO.C,R9*%
X202435000Y-93980000D03*
X205235000Y-93980000D03*
%TD*%
D41*
%TO.C,F1*%
X206602000Y-123175000D03*
X206602000Y-125975000D03*
%TD*%
D54*
%TO.C,U1*%
X193615000Y-142839744D03*
X192665000Y-142839744D03*
X191715000Y-142839744D03*
X191715000Y-140239744D03*
X193615000Y-140239744D03*
%TD*%
D45*
%TO.C,R7*%
X161263000Y-155693000D03*
X161263000Y-152893000D03*
%TD*%
D55*
%TO.C,C7*%
X186484800Y-133321256D03*
X186484800Y-136571256D03*
%TD*%
D56*
%TO.C,SW1*%
X215168604Y-130161396D03*
X212958604Y-130161396D03*
D57*
X214068604Y-132311396D03*
X214068604Y-135311396D03*
D56*
X215168604Y-137461396D03*
X212958604Y-137461396D03*
D58*
X212308604Y-131561396D03*
X212308604Y-134561396D03*
X212308604Y-136061396D03*
%TD*%
D30*
%TO.C,BT1*%
X205240000Y-103450000D03*
D31*
X192065000Y-103450000D03*
X161765000Y-103475000D03*
D30*
X148640000Y-103450000D03*
%TD*%
D25*
%TO.C,C3*%
X130316104Y-63460000D03*
X128441104Y-63460000D03*
%TD*%
D59*
%TO.C,SW3*%
X129168604Y-51391396D03*
X132568604Y-51391396D03*
%TD*%
D26*
%TO.C,D9*%
X205768604Y-142381396D03*
X208568604Y-142381396D03*
%TD*%
D20*
%TO.C,R13*%
X128710000Y-141620000D03*
X125910000Y-141620000D03*
%TD*%
D38*
%TO.C,C10*%
X203886500Y-134989000D03*
X205761500Y-134989000D03*
%TD*%
D27*
%TO.C,D7*%
X213238290Y-82150000D03*
D28*
X208666290Y-82150000D03*
%TD*%
D41*
%TO.C,R3*%
X197104000Y-134744000D03*
X197104000Y-137544000D03*
%TD*%
D60*
%TO.C,J8*%
X172970000Y-152633744D03*
X167190000Y-152633744D03*
D61*
X173405000Y-151433744D03*
X172605000Y-151433744D03*
X171330000Y-151433744D03*
X170330000Y-151433744D03*
X169830000Y-151433744D03*
X171830000Y-151433744D03*
X167555000Y-151433744D03*
X166755000Y-151433744D03*
X167005000Y-151433744D03*
X167805000Y-151433744D03*
X168330000Y-151433744D03*
X169330000Y-151433744D03*
X170830000Y-151433744D03*
X168830000Y-151433744D03*
X172355000Y-151433744D03*
X173155000Y-151433744D03*
D62*
X174400000Y-156283744D03*
D63*
X174400000Y-152133744D03*
D62*
X165760000Y-156283744D03*
D63*
X165760000Y-152133744D03*
%TD*%
D64*
%TO.C,U4*%
X183476600Y-139840800D03*
X181176600Y-139840800D03*
X178876600Y-139840800D03*
D65*
X181176600Y-133540800D03*
%TD*%
D41*
%TO.C,R2*%
X195834000Y-140078000D03*
X195834000Y-142878000D03*
%TD*%
D66*
%TO.C,U5*%
X206082000Y-133185000D03*
X205582000Y-133185000D03*
X205082000Y-133185000D03*
X204582000Y-133185000D03*
X204582000Y-131205000D03*
X205082000Y-131205000D03*
X205582000Y-131205000D03*
X206082000Y-131205000D03*
D67*
X205332000Y-132195000D03*
%TD*%
M02*
