%TF.GenerationSoftware,KiCad,Pcbnew,7.0.1*%
%TF.CreationDate,2023-12-14T09:52:10-06:00*%
%TF.ProjectId,ProjectNeoRogue,50726f6a-6563-4744-9e65-6f526f677565,v1*%
%TF.SameCoordinates,Original*%
%TF.FileFunction,Drillmap*%
%TF.FilePolarity,Positive*%
%FSLAX45Y45*%
G04 Gerber Fmt 4.5, Leading zero omitted, Abs format (unit mm)*
G04 Created by KiCad (PCBNEW 7.0.1) date 2023-12-14 09:52:10*
%MOMM*%
%LPD*%
G01*
G04 APERTURE LIST*
%ADD10C,0.100000*%
%ADD11C,0.200000*%
%ADD12C,0.065000*%
%ADD13C,0.090000*%
G04 APERTURE END LIST*
D10*
X12406000Y-4587000D02*
G75*
G03*
X12281000Y-4712000I0J-125000D01*
G01*
X21691612Y-4577388D02*
X12406000Y-4587000D01*
X12286000Y-15825000D02*
G75*
G03*
X12411000Y-15950000I125000J0D01*
G01*
X12281000Y-4712000D02*
X12286000Y-15825000D01*
X21816612Y-4702388D02*
G75*
G03*
X21691612Y-4577388I-125002J-2D01*
G01*
X12411000Y-15950000D02*
X21709612Y-15943612D01*
X21709612Y-15943612D02*
G75*
G03*
X21834612Y-15818612I-2J125002D01*
G01*
X21834612Y-15818612D02*
X21816612Y-4702388D01*
D11*
D12*
X16684500Y-15290500D02*
X16749500Y-15355500D01*
X16749500Y-15290500D02*
X16684500Y-15355500D01*
X17262500Y-15290500D02*
X17327500Y-15355500D01*
X17327500Y-15290500D02*
X17262500Y-15355500D01*
D13*
X21451860Y-13231140D02*
G75*
G03*
X21451860Y-13231140I-45000J0D01*
G01*
X21451860Y-13531140D02*
G75*
G03*
X21451860Y-13531140I-45000J0D01*
G01*
D10*
X12705000Y-13032000D02*
X12705000Y-13132000D01*
X12655000Y-13082000D02*
X12755000Y-13082000D01*
X12705000Y-13832000D02*
X12705000Y-13932000D01*
X12655000Y-13882000D02*
X12755000Y-13882000D01*
D11*
X12523619Y-16267524D02*
X12523619Y-16067524D01*
X12523619Y-16067524D02*
X12571238Y-16067524D01*
X12571238Y-16067524D02*
X12599809Y-16077048D01*
X12599809Y-16077048D02*
X12618857Y-16096095D01*
X12618857Y-16096095D02*
X12628381Y-16115143D01*
X12628381Y-16115143D02*
X12637905Y-16153238D01*
X12637905Y-16153238D02*
X12637905Y-16181809D01*
X12637905Y-16181809D02*
X12628381Y-16219905D01*
X12628381Y-16219905D02*
X12618857Y-16238952D01*
X12618857Y-16238952D02*
X12599809Y-16258000D01*
X12599809Y-16258000D02*
X12571238Y-16267524D01*
X12571238Y-16267524D02*
X12523619Y-16267524D01*
X12723619Y-16267524D02*
X12723619Y-16134190D01*
X12723619Y-16172286D02*
X12733143Y-16153238D01*
X12733143Y-16153238D02*
X12742667Y-16143714D01*
X12742667Y-16143714D02*
X12761714Y-16134190D01*
X12761714Y-16134190D02*
X12780762Y-16134190D01*
X12847428Y-16267524D02*
X12847428Y-16134190D01*
X12847428Y-16067524D02*
X12837905Y-16077048D01*
X12837905Y-16077048D02*
X12847428Y-16086571D01*
X12847428Y-16086571D02*
X12856952Y-16077048D01*
X12856952Y-16077048D02*
X12847428Y-16067524D01*
X12847428Y-16067524D02*
X12847428Y-16086571D01*
X12971238Y-16267524D02*
X12952190Y-16258000D01*
X12952190Y-16258000D02*
X12942667Y-16238952D01*
X12942667Y-16238952D02*
X12942667Y-16067524D01*
X13076000Y-16267524D02*
X13056952Y-16258000D01*
X13056952Y-16258000D02*
X13047428Y-16238952D01*
X13047428Y-16238952D02*
X13047428Y-16067524D01*
X13304571Y-16267524D02*
X13304571Y-16067524D01*
X13304571Y-16067524D02*
X13371238Y-16210381D01*
X13371238Y-16210381D02*
X13437905Y-16067524D01*
X13437905Y-16067524D02*
X13437905Y-16267524D01*
X13618857Y-16267524D02*
X13618857Y-16162762D01*
X13618857Y-16162762D02*
X13609333Y-16143714D01*
X13609333Y-16143714D02*
X13590286Y-16134190D01*
X13590286Y-16134190D02*
X13552190Y-16134190D01*
X13552190Y-16134190D02*
X13533143Y-16143714D01*
X13618857Y-16258000D02*
X13599809Y-16267524D01*
X13599809Y-16267524D02*
X13552190Y-16267524D01*
X13552190Y-16267524D02*
X13533143Y-16258000D01*
X13533143Y-16258000D02*
X13523619Y-16238952D01*
X13523619Y-16238952D02*
X13523619Y-16219905D01*
X13523619Y-16219905D02*
X13533143Y-16200857D01*
X13533143Y-16200857D02*
X13552190Y-16191333D01*
X13552190Y-16191333D02*
X13599809Y-16191333D01*
X13599809Y-16191333D02*
X13618857Y-16181809D01*
X13714095Y-16134190D02*
X13714095Y-16334190D01*
X13714095Y-16143714D02*
X13733143Y-16134190D01*
X13733143Y-16134190D02*
X13771238Y-16134190D01*
X13771238Y-16134190D02*
X13790286Y-16143714D01*
X13790286Y-16143714D02*
X13799809Y-16153238D01*
X13799809Y-16153238D02*
X13809333Y-16172286D01*
X13809333Y-16172286D02*
X13809333Y-16229428D01*
X13809333Y-16229428D02*
X13799809Y-16248476D01*
X13799809Y-16248476D02*
X13790286Y-16258000D01*
X13790286Y-16258000D02*
X13771238Y-16267524D01*
X13771238Y-16267524D02*
X13733143Y-16267524D01*
X13733143Y-16267524D02*
X13714095Y-16258000D01*
X13895048Y-16248476D02*
X13904571Y-16258000D01*
X13904571Y-16258000D02*
X13895048Y-16267524D01*
X13895048Y-16267524D02*
X13885524Y-16258000D01*
X13885524Y-16258000D02*
X13895048Y-16248476D01*
X13895048Y-16248476D02*
X13895048Y-16267524D01*
X13895048Y-16143714D02*
X13904571Y-16153238D01*
X13904571Y-16153238D02*
X13895048Y-16162762D01*
X13895048Y-16162762D02*
X13885524Y-16153238D01*
X13885524Y-16153238D02*
X13895048Y-16143714D01*
X13895048Y-16143714D02*
X13895048Y-16162762D01*
D12*
X12211000Y-16562500D02*
X12276000Y-16627500D01*
X12276000Y-16562500D02*
X12211000Y-16627500D01*
D11*
X12561714Y-16487524D02*
X12580762Y-16487524D01*
X12580762Y-16487524D02*
X12599809Y-16497048D01*
X12599809Y-16497048D02*
X12609333Y-16506571D01*
X12609333Y-16506571D02*
X12618857Y-16525619D01*
X12618857Y-16525619D02*
X12628381Y-16563714D01*
X12628381Y-16563714D02*
X12628381Y-16611333D01*
X12628381Y-16611333D02*
X12618857Y-16649428D01*
X12618857Y-16649428D02*
X12609333Y-16668476D01*
X12609333Y-16668476D02*
X12599809Y-16678000D01*
X12599809Y-16678000D02*
X12580762Y-16687524D01*
X12580762Y-16687524D02*
X12561714Y-16687524D01*
X12561714Y-16687524D02*
X12542667Y-16678000D01*
X12542667Y-16678000D02*
X12533143Y-16668476D01*
X12533143Y-16668476D02*
X12523619Y-16649428D01*
X12523619Y-16649428D02*
X12514095Y-16611333D01*
X12514095Y-16611333D02*
X12514095Y-16563714D01*
X12514095Y-16563714D02*
X12523619Y-16525619D01*
X12523619Y-16525619D02*
X12533143Y-16506571D01*
X12533143Y-16506571D02*
X12542667Y-16497048D01*
X12542667Y-16497048D02*
X12561714Y-16487524D01*
X12714095Y-16668476D02*
X12723619Y-16678000D01*
X12723619Y-16678000D02*
X12714095Y-16687524D01*
X12714095Y-16687524D02*
X12704571Y-16678000D01*
X12704571Y-16678000D02*
X12714095Y-16668476D01*
X12714095Y-16668476D02*
X12714095Y-16687524D01*
X12895048Y-16487524D02*
X12856952Y-16487524D01*
X12856952Y-16487524D02*
X12837905Y-16497048D01*
X12837905Y-16497048D02*
X12828381Y-16506571D01*
X12828381Y-16506571D02*
X12809333Y-16535143D01*
X12809333Y-16535143D02*
X12799809Y-16573238D01*
X12799809Y-16573238D02*
X12799809Y-16649428D01*
X12799809Y-16649428D02*
X12809333Y-16668476D01*
X12809333Y-16668476D02*
X12818857Y-16678000D01*
X12818857Y-16678000D02*
X12837905Y-16687524D01*
X12837905Y-16687524D02*
X12876000Y-16687524D01*
X12876000Y-16687524D02*
X12895048Y-16678000D01*
X12895048Y-16678000D02*
X12904571Y-16668476D01*
X12904571Y-16668476D02*
X12914095Y-16649428D01*
X12914095Y-16649428D02*
X12914095Y-16601809D01*
X12914095Y-16601809D02*
X12904571Y-16582762D01*
X12904571Y-16582762D02*
X12895048Y-16573238D01*
X12895048Y-16573238D02*
X12876000Y-16563714D01*
X12876000Y-16563714D02*
X12837905Y-16563714D01*
X12837905Y-16563714D02*
X12818857Y-16573238D01*
X12818857Y-16573238D02*
X12809333Y-16582762D01*
X12809333Y-16582762D02*
X12799809Y-16601809D01*
X13095048Y-16487524D02*
X12999809Y-16487524D01*
X12999809Y-16487524D02*
X12990286Y-16582762D01*
X12990286Y-16582762D02*
X12999809Y-16573238D01*
X12999809Y-16573238D02*
X13018857Y-16563714D01*
X13018857Y-16563714D02*
X13066476Y-16563714D01*
X13066476Y-16563714D02*
X13085524Y-16573238D01*
X13085524Y-16573238D02*
X13095048Y-16582762D01*
X13095048Y-16582762D02*
X13104571Y-16601809D01*
X13104571Y-16601809D02*
X13104571Y-16649428D01*
X13104571Y-16649428D02*
X13095048Y-16668476D01*
X13095048Y-16668476D02*
X13085524Y-16678000D01*
X13085524Y-16678000D02*
X13066476Y-16687524D01*
X13066476Y-16687524D02*
X13018857Y-16687524D01*
X13018857Y-16687524D02*
X12999809Y-16678000D01*
X12999809Y-16678000D02*
X12990286Y-16668476D01*
X13228381Y-16487524D02*
X13247429Y-16487524D01*
X13247429Y-16487524D02*
X13266476Y-16497048D01*
X13266476Y-16497048D02*
X13276000Y-16506571D01*
X13276000Y-16506571D02*
X13285524Y-16525619D01*
X13285524Y-16525619D02*
X13295048Y-16563714D01*
X13295048Y-16563714D02*
X13295048Y-16611333D01*
X13295048Y-16611333D02*
X13285524Y-16649428D01*
X13285524Y-16649428D02*
X13276000Y-16668476D01*
X13276000Y-16668476D02*
X13266476Y-16678000D01*
X13266476Y-16678000D02*
X13247429Y-16687524D01*
X13247429Y-16687524D02*
X13228381Y-16687524D01*
X13228381Y-16687524D02*
X13209333Y-16678000D01*
X13209333Y-16678000D02*
X13199809Y-16668476D01*
X13199809Y-16668476D02*
X13190286Y-16649428D01*
X13190286Y-16649428D02*
X13180762Y-16611333D01*
X13180762Y-16611333D02*
X13180762Y-16563714D01*
X13180762Y-16563714D02*
X13190286Y-16525619D01*
X13190286Y-16525619D02*
X13199809Y-16506571D01*
X13199809Y-16506571D02*
X13209333Y-16497048D01*
X13209333Y-16497048D02*
X13228381Y-16487524D01*
X13380762Y-16687524D02*
X13380762Y-16554190D01*
X13380762Y-16573238D02*
X13390286Y-16563714D01*
X13390286Y-16563714D02*
X13409333Y-16554190D01*
X13409333Y-16554190D02*
X13437905Y-16554190D01*
X13437905Y-16554190D02*
X13456952Y-16563714D01*
X13456952Y-16563714D02*
X13466476Y-16582762D01*
X13466476Y-16582762D02*
X13466476Y-16687524D01*
X13466476Y-16582762D02*
X13476000Y-16563714D01*
X13476000Y-16563714D02*
X13495048Y-16554190D01*
X13495048Y-16554190D02*
X13523619Y-16554190D01*
X13523619Y-16554190D02*
X13542667Y-16563714D01*
X13542667Y-16563714D02*
X13552190Y-16582762D01*
X13552190Y-16582762D02*
X13552190Y-16687524D01*
X13647429Y-16687524D02*
X13647429Y-16554190D01*
X13647429Y-16573238D02*
X13656952Y-16563714D01*
X13656952Y-16563714D02*
X13676000Y-16554190D01*
X13676000Y-16554190D02*
X13704571Y-16554190D01*
X13704571Y-16554190D02*
X13723619Y-16563714D01*
X13723619Y-16563714D02*
X13733143Y-16582762D01*
X13733143Y-16582762D02*
X13733143Y-16687524D01*
X13733143Y-16582762D02*
X13742667Y-16563714D01*
X13742667Y-16563714D02*
X13761714Y-16554190D01*
X13761714Y-16554190D02*
X13790286Y-16554190D01*
X13790286Y-16554190D02*
X13809333Y-16563714D01*
X13809333Y-16563714D02*
X13818857Y-16582762D01*
X13818857Y-16582762D02*
X13818857Y-16687524D01*
X14209333Y-16478000D02*
X14037905Y-16735143D01*
X14466476Y-16487524D02*
X14485524Y-16487524D01*
X14485524Y-16487524D02*
X14504572Y-16497048D01*
X14504572Y-16497048D02*
X14514095Y-16506571D01*
X14514095Y-16506571D02*
X14523619Y-16525619D01*
X14523619Y-16525619D02*
X14533143Y-16563714D01*
X14533143Y-16563714D02*
X14533143Y-16611333D01*
X14533143Y-16611333D02*
X14523619Y-16649428D01*
X14523619Y-16649428D02*
X14514095Y-16668476D01*
X14514095Y-16668476D02*
X14504572Y-16678000D01*
X14504572Y-16678000D02*
X14485524Y-16687524D01*
X14485524Y-16687524D02*
X14466476Y-16687524D01*
X14466476Y-16687524D02*
X14447429Y-16678000D01*
X14447429Y-16678000D02*
X14437905Y-16668476D01*
X14437905Y-16668476D02*
X14428381Y-16649428D01*
X14428381Y-16649428D02*
X14418857Y-16611333D01*
X14418857Y-16611333D02*
X14418857Y-16563714D01*
X14418857Y-16563714D02*
X14428381Y-16525619D01*
X14428381Y-16525619D02*
X14437905Y-16506571D01*
X14437905Y-16506571D02*
X14447429Y-16497048D01*
X14447429Y-16497048D02*
X14466476Y-16487524D01*
X14618857Y-16668476D02*
X14628381Y-16678000D01*
X14628381Y-16678000D02*
X14618857Y-16687524D01*
X14618857Y-16687524D02*
X14609333Y-16678000D01*
X14609333Y-16678000D02*
X14618857Y-16668476D01*
X14618857Y-16668476D02*
X14618857Y-16687524D01*
X14752191Y-16487524D02*
X14771238Y-16487524D01*
X14771238Y-16487524D02*
X14790286Y-16497048D01*
X14790286Y-16497048D02*
X14799810Y-16506571D01*
X14799810Y-16506571D02*
X14809333Y-16525619D01*
X14809333Y-16525619D02*
X14818857Y-16563714D01*
X14818857Y-16563714D02*
X14818857Y-16611333D01*
X14818857Y-16611333D02*
X14809333Y-16649428D01*
X14809333Y-16649428D02*
X14799810Y-16668476D01*
X14799810Y-16668476D02*
X14790286Y-16678000D01*
X14790286Y-16678000D02*
X14771238Y-16687524D01*
X14771238Y-16687524D02*
X14752191Y-16687524D01*
X14752191Y-16687524D02*
X14733143Y-16678000D01*
X14733143Y-16678000D02*
X14723619Y-16668476D01*
X14723619Y-16668476D02*
X14714095Y-16649428D01*
X14714095Y-16649428D02*
X14704572Y-16611333D01*
X14704572Y-16611333D02*
X14704572Y-16563714D01*
X14704572Y-16563714D02*
X14714095Y-16525619D01*
X14714095Y-16525619D02*
X14723619Y-16506571D01*
X14723619Y-16506571D02*
X14733143Y-16497048D01*
X14733143Y-16497048D02*
X14752191Y-16487524D01*
X14895048Y-16506571D02*
X14904572Y-16497048D01*
X14904572Y-16497048D02*
X14923619Y-16487524D01*
X14923619Y-16487524D02*
X14971238Y-16487524D01*
X14971238Y-16487524D02*
X14990286Y-16497048D01*
X14990286Y-16497048D02*
X14999810Y-16506571D01*
X14999810Y-16506571D02*
X15009333Y-16525619D01*
X15009333Y-16525619D02*
X15009333Y-16544667D01*
X15009333Y-16544667D02*
X14999810Y-16573238D01*
X14999810Y-16573238D02*
X14885524Y-16687524D01*
X14885524Y-16687524D02*
X15009333Y-16687524D01*
X15190286Y-16487524D02*
X15095048Y-16487524D01*
X15095048Y-16487524D02*
X15085524Y-16582762D01*
X15085524Y-16582762D02*
X15095048Y-16573238D01*
X15095048Y-16573238D02*
X15114095Y-16563714D01*
X15114095Y-16563714D02*
X15161714Y-16563714D01*
X15161714Y-16563714D02*
X15180762Y-16573238D01*
X15180762Y-16573238D02*
X15190286Y-16582762D01*
X15190286Y-16582762D02*
X15199810Y-16601809D01*
X15199810Y-16601809D02*
X15199810Y-16649428D01*
X15199810Y-16649428D02*
X15190286Y-16668476D01*
X15190286Y-16668476D02*
X15180762Y-16678000D01*
X15180762Y-16678000D02*
X15161714Y-16687524D01*
X15161714Y-16687524D02*
X15114095Y-16687524D01*
X15114095Y-16687524D02*
X15095048Y-16678000D01*
X15095048Y-16678000D02*
X15085524Y-16668476D01*
X15371238Y-16487524D02*
X15333143Y-16487524D01*
X15333143Y-16487524D02*
X15314095Y-16497048D01*
X15314095Y-16497048D02*
X15304572Y-16506571D01*
X15304572Y-16506571D02*
X15285524Y-16535143D01*
X15285524Y-16535143D02*
X15276000Y-16573238D01*
X15276000Y-16573238D02*
X15276000Y-16649428D01*
X15276000Y-16649428D02*
X15285524Y-16668476D01*
X15285524Y-16668476D02*
X15295048Y-16678000D01*
X15295048Y-16678000D02*
X15314095Y-16687524D01*
X15314095Y-16687524D02*
X15352191Y-16687524D01*
X15352191Y-16687524D02*
X15371238Y-16678000D01*
X15371238Y-16678000D02*
X15380762Y-16668476D01*
X15380762Y-16668476D02*
X15390286Y-16649428D01*
X15390286Y-16649428D02*
X15390286Y-16601809D01*
X15390286Y-16601809D02*
X15380762Y-16582762D01*
X15380762Y-16582762D02*
X15371238Y-16573238D01*
X15371238Y-16573238D02*
X15352191Y-16563714D01*
X15352191Y-16563714D02*
X15314095Y-16563714D01*
X15314095Y-16563714D02*
X15295048Y-16573238D01*
X15295048Y-16573238D02*
X15285524Y-16582762D01*
X15285524Y-16582762D02*
X15276000Y-16601809D01*
X15466476Y-16487524D02*
X15466476Y-16525619D01*
X15542667Y-16487524D02*
X15542667Y-16525619D01*
X15837905Y-16763714D02*
X15828381Y-16754190D01*
X15828381Y-16754190D02*
X15809334Y-16725619D01*
X15809334Y-16725619D02*
X15799810Y-16706571D01*
X15799810Y-16706571D02*
X15790286Y-16678000D01*
X15790286Y-16678000D02*
X15780762Y-16630381D01*
X15780762Y-16630381D02*
X15780762Y-16592286D01*
X15780762Y-16592286D02*
X15790286Y-16544667D01*
X15790286Y-16544667D02*
X15799810Y-16516095D01*
X15799810Y-16516095D02*
X15809334Y-16497048D01*
X15809334Y-16497048D02*
X15828381Y-16468476D01*
X15828381Y-16468476D02*
X15837905Y-16458952D01*
X15904572Y-16506571D02*
X15914095Y-16497048D01*
X15914095Y-16497048D02*
X15933143Y-16487524D01*
X15933143Y-16487524D02*
X15980762Y-16487524D01*
X15980762Y-16487524D02*
X15999810Y-16497048D01*
X15999810Y-16497048D02*
X16009334Y-16506571D01*
X16009334Y-16506571D02*
X16018857Y-16525619D01*
X16018857Y-16525619D02*
X16018857Y-16544667D01*
X16018857Y-16544667D02*
X16009334Y-16573238D01*
X16009334Y-16573238D02*
X15895048Y-16687524D01*
X15895048Y-16687524D02*
X16018857Y-16687524D01*
X16256953Y-16687524D02*
X16256953Y-16487524D01*
X16342667Y-16687524D02*
X16342667Y-16582762D01*
X16342667Y-16582762D02*
X16333143Y-16563714D01*
X16333143Y-16563714D02*
X16314096Y-16554190D01*
X16314096Y-16554190D02*
X16285524Y-16554190D01*
X16285524Y-16554190D02*
X16266476Y-16563714D01*
X16266476Y-16563714D02*
X16256953Y-16573238D01*
X16466476Y-16687524D02*
X16447429Y-16678000D01*
X16447429Y-16678000D02*
X16437905Y-16668476D01*
X16437905Y-16668476D02*
X16428381Y-16649428D01*
X16428381Y-16649428D02*
X16428381Y-16592286D01*
X16428381Y-16592286D02*
X16437905Y-16573238D01*
X16437905Y-16573238D02*
X16447429Y-16563714D01*
X16447429Y-16563714D02*
X16466476Y-16554190D01*
X16466476Y-16554190D02*
X16495048Y-16554190D01*
X16495048Y-16554190D02*
X16514096Y-16563714D01*
X16514096Y-16563714D02*
X16523619Y-16573238D01*
X16523619Y-16573238D02*
X16533143Y-16592286D01*
X16533143Y-16592286D02*
X16533143Y-16649428D01*
X16533143Y-16649428D02*
X16523619Y-16668476D01*
X16523619Y-16668476D02*
X16514096Y-16678000D01*
X16514096Y-16678000D02*
X16495048Y-16687524D01*
X16495048Y-16687524D02*
X16466476Y-16687524D01*
X16647429Y-16687524D02*
X16628381Y-16678000D01*
X16628381Y-16678000D02*
X16618857Y-16658952D01*
X16618857Y-16658952D02*
X16618857Y-16487524D01*
X16799810Y-16678000D02*
X16780762Y-16687524D01*
X16780762Y-16687524D02*
X16742667Y-16687524D01*
X16742667Y-16687524D02*
X16723619Y-16678000D01*
X16723619Y-16678000D02*
X16714096Y-16658952D01*
X16714096Y-16658952D02*
X16714096Y-16582762D01*
X16714096Y-16582762D02*
X16723619Y-16563714D01*
X16723619Y-16563714D02*
X16742667Y-16554190D01*
X16742667Y-16554190D02*
X16780762Y-16554190D01*
X16780762Y-16554190D02*
X16799810Y-16563714D01*
X16799810Y-16563714D02*
X16809334Y-16582762D01*
X16809334Y-16582762D02*
X16809334Y-16601809D01*
X16809334Y-16601809D02*
X16714096Y-16620857D01*
X16885524Y-16678000D02*
X16904572Y-16687524D01*
X16904572Y-16687524D02*
X16942667Y-16687524D01*
X16942667Y-16687524D02*
X16961715Y-16678000D01*
X16961715Y-16678000D02*
X16971239Y-16658952D01*
X16971239Y-16658952D02*
X16971239Y-16649428D01*
X16971239Y-16649428D02*
X16961715Y-16630381D01*
X16961715Y-16630381D02*
X16942667Y-16620857D01*
X16942667Y-16620857D02*
X16914096Y-16620857D01*
X16914096Y-16620857D02*
X16895048Y-16611333D01*
X16895048Y-16611333D02*
X16885524Y-16592286D01*
X16885524Y-16592286D02*
X16885524Y-16582762D01*
X16885524Y-16582762D02*
X16895048Y-16563714D01*
X16895048Y-16563714D02*
X16914096Y-16554190D01*
X16914096Y-16554190D02*
X16942667Y-16554190D01*
X16942667Y-16554190D02*
X16961715Y-16563714D01*
X17037905Y-16763714D02*
X17047429Y-16754190D01*
X17047429Y-16754190D02*
X17066477Y-16725619D01*
X17066477Y-16725619D02*
X17076000Y-16706571D01*
X17076000Y-16706571D02*
X17085524Y-16678000D01*
X17085524Y-16678000D02*
X17095048Y-16630381D01*
X17095048Y-16630381D02*
X17095048Y-16592286D01*
X17095048Y-16592286D02*
X17085524Y-16544667D01*
X17085524Y-16544667D02*
X17076000Y-16516095D01*
X17076000Y-16516095D02*
X17066477Y-16497048D01*
X17066477Y-16497048D02*
X17047429Y-16468476D01*
X17047429Y-16468476D02*
X17037905Y-16458952D01*
X17399810Y-16763714D02*
X17390286Y-16754190D01*
X17390286Y-16754190D02*
X17371239Y-16725619D01*
X17371239Y-16725619D02*
X17361715Y-16706571D01*
X17361715Y-16706571D02*
X17352191Y-16678000D01*
X17352191Y-16678000D02*
X17342667Y-16630381D01*
X17342667Y-16630381D02*
X17342667Y-16592286D01*
X17342667Y-16592286D02*
X17352191Y-16544667D01*
X17352191Y-16544667D02*
X17361715Y-16516095D01*
X17361715Y-16516095D02*
X17371239Y-16497048D01*
X17371239Y-16497048D02*
X17390286Y-16468476D01*
X17390286Y-16468476D02*
X17399810Y-16458952D01*
X17476000Y-16554190D02*
X17476000Y-16687524D01*
X17476000Y-16573238D02*
X17485524Y-16563714D01*
X17485524Y-16563714D02*
X17504572Y-16554190D01*
X17504572Y-16554190D02*
X17533143Y-16554190D01*
X17533143Y-16554190D02*
X17552191Y-16563714D01*
X17552191Y-16563714D02*
X17561715Y-16582762D01*
X17561715Y-16582762D02*
X17561715Y-16687524D01*
X17685524Y-16687524D02*
X17666477Y-16678000D01*
X17666477Y-16678000D02*
X17656953Y-16668476D01*
X17656953Y-16668476D02*
X17647429Y-16649428D01*
X17647429Y-16649428D02*
X17647429Y-16592286D01*
X17647429Y-16592286D02*
X17656953Y-16573238D01*
X17656953Y-16573238D02*
X17666477Y-16563714D01*
X17666477Y-16563714D02*
X17685524Y-16554190D01*
X17685524Y-16554190D02*
X17714096Y-16554190D01*
X17714096Y-16554190D02*
X17733143Y-16563714D01*
X17733143Y-16563714D02*
X17742667Y-16573238D01*
X17742667Y-16573238D02*
X17752191Y-16592286D01*
X17752191Y-16592286D02*
X17752191Y-16649428D01*
X17752191Y-16649428D02*
X17742667Y-16668476D01*
X17742667Y-16668476D02*
X17733143Y-16678000D01*
X17733143Y-16678000D02*
X17714096Y-16687524D01*
X17714096Y-16687524D02*
X17685524Y-16687524D01*
X17809334Y-16554190D02*
X17885524Y-16554190D01*
X17837905Y-16487524D02*
X17837905Y-16658952D01*
X17837905Y-16658952D02*
X17847429Y-16678000D01*
X17847429Y-16678000D02*
X17866477Y-16687524D01*
X17866477Y-16687524D02*
X17885524Y-16687524D01*
X18104572Y-16554190D02*
X18104572Y-16754190D01*
X18104572Y-16563714D02*
X18123620Y-16554190D01*
X18123620Y-16554190D02*
X18161715Y-16554190D01*
X18161715Y-16554190D02*
X18180762Y-16563714D01*
X18180762Y-16563714D02*
X18190286Y-16573238D01*
X18190286Y-16573238D02*
X18199810Y-16592286D01*
X18199810Y-16592286D02*
X18199810Y-16649428D01*
X18199810Y-16649428D02*
X18190286Y-16668476D01*
X18190286Y-16668476D02*
X18180762Y-16678000D01*
X18180762Y-16678000D02*
X18161715Y-16687524D01*
X18161715Y-16687524D02*
X18123620Y-16687524D01*
X18123620Y-16687524D02*
X18104572Y-16678000D01*
X18314096Y-16687524D02*
X18295048Y-16678000D01*
X18295048Y-16678000D02*
X18285524Y-16658952D01*
X18285524Y-16658952D02*
X18285524Y-16487524D01*
X18476001Y-16687524D02*
X18476001Y-16582762D01*
X18476001Y-16582762D02*
X18466477Y-16563714D01*
X18466477Y-16563714D02*
X18447429Y-16554190D01*
X18447429Y-16554190D02*
X18409334Y-16554190D01*
X18409334Y-16554190D02*
X18390286Y-16563714D01*
X18476001Y-16678000D02*
X18456953Y-16687524D01*
X18456953Y-16687524D02*
X18409334Y-16687524D01*
X18409334Y-16687524D02*
X18390286Y-16678000D01*
X18390286Y-16678000D02*
X18380762Y-16658952D01*
X18380762Y-16658952D02*
X18380762Y-16639905D01*
X18380762Y-16639905D02*
X18390286Y-16620857D01*
X18390286Y-16620857D02*
X18409334Y-16611333D01*
X18409334Y-16611333D02*
X18456953Y-16611333D01*
X18456953Y-16611333D02*
X18476001Y-16601809D01*
X18542667Y-16554190D02*
X18618858Y-16554190D01*
X18571239Y-16487524D02*
X18571239Y-16658952D01*
X18571239Y-16658952D02*
X18580762Y-16678000D01*
X18580762Y-16678000D02*
X18599810Y-16687524D01*
X18599810Y-16687524D02*
X18618858Y-16687524D01*
X18761715Y-16678000D02*
X18742667Y-16687524D01*
X18742667Y-16687524D02*
X18704572Y-16687524D01*
X18704572Y-16687524D02*
X18685524Y-16678000D01*
X18685524Y-16678000D02*
X18676001Y-16658952D01*
X18676001Y-16658952D02*
X18676001Y-16582762D01*
X18676001Y-16582762D02*
X18685524Y-16563714D01*
X18685524Y-16563714D02*
X18704572Y-16554190D01*
X18704572Y-16554190D02*
X18742667Y-16554190D01*
X18742667Y-16554190D02*
X18761715Y-16563714D01*
X18761715Y-16563714D02*
X18771239Y-16582762D01*
X18771239Y-16582762D02*
X18771239Y-16601809D01*
X18771239Y-16601809D02*
X18676001Y-16620857D01*
X18942667Y-16687524D02*
X18942667Y-16487524D01*
X18942667Y-16678000D02*
X18923620Y-16687524D01*
X18923620Y-16687524D02*
X18885524Y-16687524D01*
X18885524Y-16687524D02*
X18866477Y-16678000D01*
X18866477Y-16678000D02*
X18856953Y-16668476D01*
X18856953Y-16668476D02*
X18847429Y-16649428D01*
X18847429Y-16649428D02*
X18847429Y-16592286D01*
X18847429Y-16592286D02*
X18856953Y-16573238D01*
X18856953Y-16573238D02*
X18866477Y-16563714D01*
X18866477Y-16563714D02*
X18885524Y-16554190D01*
X18885524Y-16554190D02*
X18923620Y-16554190D01*
X18923620Y-16554190D02*
X18942667Y-16563714D01*
X19018858Y-16763714D02*
X19028382Y-16754190D01*
X19028382Y-16754190D02*
X19047429Y-16725619D01*
X19047429Y-16725619D02*
X19056953Y-16706571D01*
X19056953Y-16706571D02*
X19066477Y-16678000D01*
X19066477Y-16678000D02*
X19076001Y-16630381D01*
X19076001Y-16630381D02*
X19076001Y-16592286D01*
X19076001Y-16592286D02*
X19066477Y-16544667D01*
X19066477Y-16544667D02*
X19056953Y-16516095D01*
X19056953Y-16516095D02*
X19047429Y-16497048D01*
X19047429Y-16497048D02*
X19028382Y-16468476D01*
X19028382Y-16468476D02*
X19018858Y-16458952D01*
D13*
X12276000Y-16859000D02*
G75*
G03*
X12276000Y-16859000I-45000J0D01*
G01*
D11*
X12561714Y-16751524D02*
X12580762Y-16751524D01*
X12580762Y-16751524D02*
X12599809Y-16761048D01*
X12599809Y-16761048D02*
X12609333Y-16770571D01*
X12609333Y-16770571D02*
X12618857Y-16789619D01*
X12618857Y-16789619D02*
X12628381Y-16827714D01*
X12628381Y-16827714D02*
X12628381Y-16875333D01*
X12628381Y-16875333D02*
X12618857Y-16913429D01*
X12618857Y-16913429D02*
X12609333Y-16932476D01*
X12609333Y-16932476D02*
X12599809Y-16942000D01*
X12599809Y-16942000D02*
X12580762Y-16951524D01*
X12580762Y-16951524D02*
X12561714Y-16951524D01*
X12561714Y-16951524D02*
X12542667Y-16942000D01*
X12542667Y-16942000D02*
X12533143Y-16932476D01*
X12533143Y-16932476D02*
X12523619Y-16913429D01*
X12523619Y-16913429D02*
X12514095Y-16875333D01*
X12514095Y-16875333D02*
X12514095Y-16827714D01*
X12514095Y-16827714D02*
X12523619Y-16789619D01*
X12523619Y-16789619D02*
X12533143Y-16770571D01*
X12533143Y-16770571D02*
X12542667Y-16761048D01*
X12542667Y-16761048D02*
X12561714Y-16751524D01*
X12714095Y-16932476D02*
X12723619Y-16942000D01*
X12723619Y-16942000D02*
X12714095Y-16951524D01*
X12714095Y-16951524D02*
X12704571Y-16942000D01*
X12704571Y-16942000D02*
X12714095Y-16932476D01*
X12714095Y-16932476D02*
X12714095Y-16951524D01*
X12818857Y-16951524D02*
X12856952Y-16951524D01*
X12856952Y-16951524D02*
X12876000Y-16942000D01*
X12876000Y-16942000D02*
X12885524Y-16932476D01*
X12885524Y-16932476D02*
X12904571Y-16903905D01*
X12904571Y-16903905D02*
X12914095Y-16865810D01*
X12914095Y-16865810D02*
X12914095Y-16789619D01*
X12914095Y-16789619D02*
X12904571Y-16770571D01*
X12904571Y-16770571D02*
X12895048Y-16761048D01*
X12895048Y-16761048D02*
X12876000Y-16751524D01*
X12876000Y-16751524D02*
X12837905Y-16751524D01*
X12837905Y-16751524D02*
X12818857Y-16761048D01*
X12818857Y-16761048D02*
X12809333Y-16770571D01*
X12809333Y-16770571D02*
X12799809Y-16789619D01*
X12799809Y-16789619D02*
X12799809Y-16837238D01*
X12799809Y-16837238D02*
X12809333Y-16856286D01*
X12809333Y-16856286D02*
X12818857Y-16865810D01*
X12818857Y-16865810D02*
X12837905Y-16875333D01*
X12837905Y-16875333D02*
X12876000Y-16875333D01*
X12876000Y-16875333D02*
X12895048Y-16865810D01*
X12895048Y-16865810D02*
X12904571Y-16856286D01*
X12904571Y-16856286D02*
X12914095Y-16837238D01*
X13037905Y-16751524D02*
X13056952Y-16751524D01*
X13056952Y-16751524D02*
X13076000Y-16761048D01*
X13076000Y-16761048D02*
X13085524Y-16770571D01*
X13085524Y-16770571D02*
X13095048Y-16789619D01*
X13095048Y-16789619D02*
X13104571Y-16827714D01*
X13104571Y-16827714D02*
X13104571Y-16875333D01*
X13104571Y-16875333D02*
X13095048Y-16913429D01*
X13095048Y-16913429D02*
X13085524Y-16932476D01*
X13085524Y-16932476D02*
X13076000Y-16942000D01*
X13076000Y-16942000D02*
X13056952Y-16951524D01*
X13056952Y-16951524D02*
X13037905Y-16951524D01*
X13037905Y-16951524D02*
X13018857Y-16942000D01*
X13018857Y-16942000D02*
X13009333Y-16932476D01*
X13009333Y-16932476D02*
X12999809Y-16913429D01*
X12999809Y-16913429D02*
X12990286Y-16875333D01*
X12990286Y-16875333D02*
X12990286Y-16827714D01*
X12990286Y-16827714D02*
X12999809Y-16789619D01*
X12999809Y-16789619D02*
X13009333Y-16770571D01*
X13009333Y-16770571D02*
X13018857Y-16761048D01*
X13018857Y-16761048D02*
X13037905Y-16751524D01*
X13228381Y-16751524D02*
X13247429Y-16751524D01*
X13247429Y-16751524D02*
X13266476Y-16761048D01*
X13266476Y-16761048D02*
X13276000Y-16770571D01*
X13276000Y-16770571D02*
X13285524Y-16789619D01*
X13285524Y-16789619D02*
X13295048Y-16827714D01*
X13295048Y-16827714D02*
X13295048Y-16875333D01*
X13295048Y-16875333D02*
X13285524Y-16913429D01*
X13285524Y-16913429D02*
X13276000Y-16932476D01*
X13276000Y-16932476D02*
X13266476Y-16942000D01*
X13266476Y-16942000D02*
X13247429Y-16951524D01*
X13247429Y-16951524D02*
X13228381Y-16951524D01*
X13228381Y-16951524D02*
X13209333Y-16942000D01*
X13209333Y-16942000D02*
X13199809Y-16932476D01*
X13199809Y-16932476D02*
X13190286Y-16913429D01*
X13190286Y-16913429D02*
X13180762Y-16875333D01*
X13180762Y-16875333D02*
X13180762Y-16827714D01*
X13180762Y-16827714D02*
X13190286Y-16789619D01*
X13190286Y-16789619D02*
X13199809Y-16770571D01*
X13199809Y-16770571D02*
X13209333Y-16761048D01*
X13209333Y-16761048D02*
X13228381Y-16751524D01*
X13380762Y-16951524D02*
X13380762Y-16818190D01*
X13380762Y-16837238D02*
X13390286Y-16827714D01*
X13390286Y-16827714D02*
X13409333Y-16818190D01*
X13409333Y-16818190D02*
X13437905Y-16818190D01*
X13437905Y-16818190D02*
X13456952Y-16827714D01*
X13456952Y-16827714D02*
X13466476Y-16846762D01*
X13466476Y-16846762D02*
X13466476Y-16951524D01*
X13466476Y-16846762D02*
X13476000Y-16827714D01*
X13476000Y-16827714D02*
X13495048Y-16818190D01*
X13495048Y-16818190D02*
X13523619Y-16818190D01*
X13523619Y-16818190D02*
X13542667Y-16827714D01*
X13542667Y-16827714D02*
X13552190Y-16846762D01*
X13552190Y-16846762D02*
X13552190Y-16951524D01*
X13647429Y-16951524D02*
X13647429Y-16818190D01*
X13647429Y-16837238D02*
X13656952Y-16827714D01*
X13656952Y-16827714D02*
X13676000Y-16818190D01*
X13676000Y-16818190D02*
X13704571Y-16818190D01*
X13704571Y-16818190D02*
X13723619Y-16827714D01*
X13723619Y-16827714D02*
X13733143Y-16846762D01*
X13733143Y-16846762D02*
X13733143Y-16951524D01*
X13733143Y-16846762D02*
X13742667Y-16827714D01*
X13742667Y-16827714D02*
X13761714Y-16818190D01*
X13761714Y-16818190D02*
X13790286Y-16818190D01*
X13790286Y-16818190D02*
X13809333Y-16827714D01*
X13809333Y-16827714D02*
X13818857Y-16846762D01*
X13818857Y-16846762D02*
X13818857Y-16951524D01*
X14209333Y-16742000D02*
X14037905Y-16999143D01*
X14466476Y-16751524D02*
X14485524Y-16751524D01*
X14485524Y-16751524D02*
X14504572Y-16761048D01*
X14504572Y-16761048D02*
X14514095Y-16770571D01*
X14514095Y-16770571D02*
X14523619Y-16789619D01*
X14523619Y-16789619D02*
X14533143Y-16827714D01*
X14533143Y-16827714D02*
X14533143Y-16875333D01*
X14533143Y-16875333D02*
X14523619Y-16913429D01*
X14523619Y-16913429D02*
X14514095Y-16932476D01*
X14514095Y-16932476D02*
X14504572Y-16942000D01*
X14504572Y-16942000D02*
X14485524Y-16951524D01*
X14485524Y-16951524D02*
X14466476Y-16951524D01*
X14466476Y-16951524D02*
X14447429Y-16942000D01*
X14447429Y-16942000D02*
X14437905Y-16932476D01*
X14437905Y-16932476D02*
X14428381Y-16913429D01*
X14428381Y-16913429D02*
X14418857Y-16875333D01*
X14418857Y-16875333D02*
X14418857Y-16827714D01*
X14418857Y-16827714D02*
X14428381Y-16789619D01*
X14428381Y-16789619D02*
X14437905Y-16770571D01*
X14437905Y-16770571D02*
X14447429Y-16761048D01*
X14447429Y-16761048D02*
X14466476Y-16751524D01*
X14618857Y-16932476D02*
X14628381Y-16942000D01*
X14628381Y-16942000D02*
X14618857Y-16951524D01*
X14618857Y-16951524D02*
X14609333Y-16942000D01*
X14609333Y-16942000D02*
X14618857Y-16932476D01*
X14618857Y-16932476D02*
X14618857Y-16951524D01*
X14752191Y-16751524D02*
X14771238Y-16751524D01*
X14771238Y-16751524D02*
X14790286Y-16761048D01*
X14790286Y-16761048D02*
X14799810Y-16770571D01*
X14799810Y-16770571D02*
X14809333Y-16789619D01*
X14809333Y-16789619D02*
X14818857Y-16827714D01*
X14818857Y-16827714D02*
X14818857Y-16875333D01*
X14818857Y-16875333D02*
X14809333Y-16913429D01*
X14809333Y-16913429D02*
X14799810Y-16932476D01*
X14799810Y-16932476D02*
X14790286Y-16942000D01*
X14790286Y-16942000D02*
X14771238Y-16951524D01*
X14771238Y-16951524D02*
X14752191Y-16951524D01*
X14752191Y-16951524D02*
X14733143Y-16942000D01*
X14733143Y-16942000D02*
X14723619Y-16932476D01*
X14723619Y-16932476D02*
X14714095Y-16913429D01*
X14714095Y-16913429D02*
X14704572Y-16875333D01*
X14704572Y-16875333D02*
X14704572Y-16827714D01*
X14704572Y-16827714D02*
X14714095Y-16789619D01*
X14714095Y-16789619D02*
X14723619Y-16770571D01*
X14723619Y-16770571D02*
X14733143Y-16761048D01*
X14733143Y-16761048D02*
X14752191Y-16751524D01*
X14885524Y-16751524D02*
X15009333Y-16751524D01*
X15009333Y-16751524D02*
X14942667Y-16827714D01*
X14942667Y-16827714D02*
X14971238Y-16827714D01*
X14971238Y-16827714D02*
X14990286Y-16837238D01*
X14990286Y-16837238D02*
X14999810Y-16846762D01*
X14999810Y-16846762D02*
X15009333Y-16865810D01*
X15009333Y-16865810D02*
X15009333Y-16913429D01*
X15009333Y-16913429D02*
X14999810Y-16932476D01*
X14999810Y-16932476D02*
X14990286Y-16942000D01*
X14990286Y-16942000D02*
X14971238Y-16951524D01*
X14971238Y-16951524D02*
X14914095Y-16951524D01*
X14914095Y-16951524D02*
X14895048Y-16942000D01*
X14895048Y-16942000D02*
X14885524Y-16932476D01*
X15190286Y-16751524D02*
X15095048Y-16751524D01*
X15095048Y-16751524D02*
X15085524Y-16846762D01*
X15085524Y-16846762D02*
X15095048Y-16837238D01*
X15095048Y-16837238D02*
X15114095Y-16827714D01*
X15114095Y-16827714D02*
X15161714Y-16827714D01*
X15161714Y-16827714D02*
X15180762Y-16837238D01*
X15180762Y-16837238D02*
X15190286Y-16846762D01*
X15190286Y-16846762D02*
X15199810Y-16865810D01*
X15199810Y-16865810D02*
X15199810Y-16913429D01*
X15199810Y-16913429D02*
X15190286Y-16932476D01*
X15190286Y-16932476D02*
X15180762Y-16942000D01*
X15180762Y-16942000D02*
X15161714Y-16951524D01*
X15161714Y-16951524D02*
X15114095Y-16951524D01*
X15114095Y-16951524D02*
X15095048Y-16942000D01*
X15095048Y-16942000D02*
X15085524Y-16932476D01*
X15371238Y-16818190D02*
X15371238Y-16951524D01*
X15323619Y-16742000D02*
X15276000Y-16884857D01*
X15276000Y-16884857D02*
X15399810Y-16884857D01*
X15466476Y-16751524D02*
X15466476Y-16789619D01*
X15542667Y-16751524D02*
X15542667Y-16789619D01*
X15837905Y-17027714D02*
X15828381Y-17018190D01*
X15828381Y-17018190D02*
X15809334Y-16989619D01*
X15809334Y-16989619D02*
X15799810Y-16970571D01*
X15799810Y-16970571D02*
X15790286Y-16942000D01*
X15790286Y-16942000D02*
X15780762Y-16894381D01*
X15780762Y-16894381D02*
X15780762Y-16856286D01*
X15780762Y-16856286D02*
X15790286Y-16808667D01*
X15790286Y-16808667D02*
X15799810Y-16780095D01*
X15799810Y-16780095D02*
X15809334Y-16761048D01*
X15809334Y-16761048D02*
X15828381Y-16732476D01*
X15828381Y-16732476D02*
X15837905Y-16722952D01*
X15904572Y-16770571D02*
X15914095Y-16761048D01*
X15914095Y-16761048D02*
X15933143Y-16751524D01*
X15933143Y-16751524D02*
X15980762Y-16751524D01*
X15980762Y-16751524D02*
X15999810Y-16761048D01*
X15999810Y-16761048D02*
X16009334Y-16770571D01*
X16009334Y-16770571D02*
X16018857Y-16789619D01*
X16018857Y-16789619D02*
X16018857Y-16808667D01*
X16018857Y-16808667D02*
X16009334Y-16837238D01*
X16009334Y-16837238D02*
X15895048Y-16951524D01*
X15895048Y-16951524D02*
X16018857Y-16951524D01*
X16256953Y-16951524D02*
X16256953Y-16751524D01*
X16342667Y-16951524D02*
X16342667Y-16846762D01*
X16342667Y-16846762D02*
X16333143Y-16827714D01*
X16333143Y-16827714D02*
X16314096Y-16818190D01*
X16314096Y-16818190D02*
X16285524Y-16818190D01*
X16285524Y-16818190D02*
X16266476Y-16827714D01*
X16266476Y-16827714D02*
X16256953Y-16837238D01*
X16466476Y-16951524D02*
X16447429Y-16942000D01*
X16447429Y-16942000D02*
X16437905Y-16932476D01*
X16437905Y-16932476D02*
X16428381Y-16913429D01*
X16428381Y-16913429D02*
X16428381Y-16856286D01*
X16428381Y-16856286D02*
X16437905Y-16837238D01*
X16437905Y-16837238D02*
X16447429Y-16827714D01*
X16447429Y-16827714D02*
X16466476Y-16818190D01*
X16466476Y-16818190D02*
X16495048Y-16818190D01*
X16495048Y-16818190D02*
X16514096Y-16827714D01*
X16514096Y-16827714D02*
X16523619Y-16837238D01*
X16523619Y-16837238D02*
X16533143Y-16856286D01*
X16533143Y-16856286D02*
X16533143Y-16913429D01*
X16533143Y-16913429D02*
X16523619Y-16932476D01*
X16523619Y-16932476D02*
X16514096Y-16942000D01*
X16514096Y-16942000D02*
X16495048Y-16951524D01*
X16495048Y-16951524D02*
X16466476Y-16951524D01*
X16647429Y-16951524D02*
X16628381Y-16942000D01*
X16628381Y-16942000D02*
X16618857Y-16922952D01*
X16618857Y-16922952D02*
X16618857Y-16751524D01*
X16799810Y-16942000D02*
X16780762Y-16951524D01*
X16780762Y-16951524D02*
X16742667Y-16951524D01*
X16742667Y-16951524D02*
X16723619Y-16942000D01*
X16723619Y-16942000D02*
X16714096Y-16922952D01*
X16714096Y-16922952D02*
X16714096Y-16846762D01*
X16714096Y-16846762D02*
X16723619Y-16827714D01*
X16723619Y-16827714D02*
X16742667Y-16818190D01*
X16742667Y-16818190D02*
X16780762Y-16818190D01*
X16780762Y-16818190D02*
X16799810Y-16827714D01*
X16799810Y-16827714D02*
X16809334Y-16846762D01*
X16809334Y-16846762D02*
X16809334Y-16865810D01*
X16809334Y-16865810D02*
X16714096Y-16884857D01*
X16885524Y-16942000D02*
X16904572Y-16951524D01*
X16904572Y-16951524D02*
X16942667Y-16951524D01*
X16942667Y-16951524D02*
X16961715Y-16942000D01*
X16961715Y-16942000D02*
X16971239Y-16922952D01*
X16971239Y-16922952D02*
X16971239Y-16913429D01*
X16971239Y-16913429D02*
X16961715Y-16894381D01*
X16961715Y-16894381D02*
X16942667Y-16884857D01*
X16942667Y-16884857D02*
X16914096Y-16884857D01*
X16914096Y-16884857D02*
X16895048Y-16875333D01*
X16895048Y-16875333D02*
X16885524Y-16856286D01*
X16885524Y-16856286D02*
X16885524Y-16846762D01*
X16885524Y-16846762D02*
X16895048Y-16827714D01*
X16895048Y-16827714D02*
X16914096Y-16818190D01*
X16914096Y-16818190D02*
X16942667Y-16818190D01*
X16942667Y-16818190D02*
X16961715Y-16827714D01*
X17037905Y-17027714D02*
X17047429Y-17018190D01*
X17047429Y-17018190D02*
X17066477Y-16989619D01*
X17066477Y-16989619D02*
X17076000Y-16970571D01*
X17076000Y-16970571D02*
X17085524Y-16942000D01*
X17085524Y-16942000D02*
X17095048Y-16894381D01*
X17095048Y-16894381D02*
X17095048Y-16856286D01*
X17095048Y-16856286D02*
X17085524Y-16808667D01*
X17085524Y-16808667D02*
X17076000Y-16780095D01*
X17076000Y-16780095D02*
X17066477Y-16761048D01*
X17066477Y-16761048D02*
X17047429Y-16732476D01*
X17047429Y-16732476D02*
X17037905Y-16722952D01*
X17399810Y-17027714D02*
X17390286Y-17018190D01*
X17390286Y-17018190D02*
X17371239Y-16989619D01*
X17371239Y-16989619D02*
X17361715Y-16970571D01*
X17361715Y-16970571D02*
X17352191Y-16942000D01*
X17352191Y-16942000D02*
X17342667Y-16894381D01*
X17342667Y-16894381D02*
X17342667Y-16856286D01*
X17342667Y-16856286D02*
X17352191Y-16808667D01*
X17352191Y-16808667D02*
X17361715Y-16780095D01*
X17361715Y-16780095D02*
X17371239Y-16761048D01*
X17371239Y-16761048D02*
X17390286Y-16732476D01*
X17390286Y-16732476D02*
X17399810Y-16722952D01*
X17476000Y-16818190D02*
X17476000Y-16951524D01*
X17476000Y-16837238D02*
X17485524Y-16827714D01*
X17485524Y-16827714D02*
X17504572Y-16818190D01*
X17504572Y-16818190D02*
X17533143Y-16818190D01*
X17533143Y-16818190D02*
X17552191Y-16827714D01*
X17552191Y-16827714D02*
X17561715Y-16846762D01*
X17561715Y-16846762D02*
X17561715Y-16951524D01*
X17685524Y-16951524D02*
X17666477Y-16942000D01*
X17666477Y-16942000D02*
X17656953Y-16932476D01*
X17656953Y-16932476D02*
X17647429Y-16913429D01*
X17647429Y-16913429D02*
X17647429Y-16856286D01*
X17647429Y-16856286D02*
X17656953Y-16837238D01*
X17656953Y-16837238D02*
X17666477Y-16827714D01*
X17666477Y-16827714D02*
X17685524Y-16818190D01*
X17685524Y-16818190D02*
X17714096Y-16818190D01*
X17714096Y-16818190D02*
X17733143Y-16827714D01*
X17733143Y-16827714D02*
X17742667Y-16837238D01*
X17742667Y-16837238D02*
X17752191Y-16856286D01*
X17752191Y-16856286D02*
X17752191Y-16913429D01*
X17752191Y-16913429D02*
X17742667Y-16932476D01*
X17742667Y-16932476D02*
X17733143Y-16942000D01*
X17733143Y-16942000D02*
X17714096Y-16951524D01*
X17714096Y-16951524D02*
X17685524Y-16951524D01*
X17809334Y-16818190D02*
X17885524Y-16818190D01*
X17837905Y-16751524D02*
X17837905Y-16922952D01*
X17837905Y-16922952D02*
X17847429Y-16942000D01*
X17847429Y-16942000D02*
X17866477Y-16951524D01*
X17866477Y-16951524D02*
X17885524Y-16951524D01*
X18104572Y-16818190D02*
X18104572Y-17018190D01*
X18104572Y-16827714D02*
X18123620Y-16818190D01*
X18123620Y-16818190D02*
X18161715Y-16818190D01*
X18161715Y-16818190D02*
X18180762Y-16827714D01*
X18180762Y-16827714D02*
X18190286Y-16837238D01*
X18190286Y-16837238D02*
X18199810Y-16856286D01*
X18199810Y-16856286D02*
X18199810Y-16913429D01*
X18199810Y-16913429D02*
X18190286Y-16932476D01*
X18190286Y-16932476D02*
X18180762Y-16942000D01*
X18180762Y-16942000D02*
X18161715Y-16951524D01*
X18161715Y-16951524D02*
X18123620Y-16951524D01*
X18123620Y-16951524D02*
X18104572Y-16942000D01*
X18314096Y-16951524D02*
X18295048Y-16942000D01*
X18295048Y-16942000D02*
X18285524Y-16922952D01*
X18285524Y-16922952D02*
X18285524Y-16751524D01*
X18476001Y-16951524D02*
X18476001Y-16846762D01*
X18476001Y-16846762D02*
X18466477Y-16827714D01*
X18466477Y-16827714D02*
X18447429Y-16818190D01*
X18447429Y-16818190D02*
X18409334Y-16818190D01*
X18409334Y-16818190D02*
X18390286Y-16827714D01*
X18476001Y-16942000D02*
X18456953Y-16951524D01*
X18456953Y-16951524D02*
X18409334Y-16951524D01*
X18409334Y-16951524D02*
X18390286Y-16942000D01*
X18390286Y-16942000D02*
X18380762Y-16922952D01*
X18380762Y-16922952D02*
X18380762Y-16903905D01*
X18380762Y-16903905D02*
X18390286Y-16884857D01*
X18390286Y-16884857D02*
X18409334Y-16875333D01*
X18409334Y-16875333D02*
X18456953Y-16875333D01*
X18456953Y-16875333D02*
X18476001Y-16865810D01*
X18542667Y-16818190D02*
X18618858Y-16818190D01*
X18571239Y-16751524D02*
X18571239Y-16922952D01*
X18571239Y-16922952D02*
X18580762Y-16942000D01*
X18580762Y-16942000D02*
X18599810Y-16951524D01*
X18599810Y-16951524D02*
X18618858Y-16951524D01*
X18761715Y-16942000D02*
X18742667Y-16951524D01*
X18742667Y-16951524D02*
X18704572Y-16951524D01*
X18704572Y-16951524D02*
X18685524Y-16942000D01*
X18685524Y-16942000D02*
X18676001Y-16922952D01*
X18676001Y-16922952D02*
X18676001Y-16846762D01*
X18676001Y-16846762D02*
X18685524Y-16827714D01*
X18685524Y-16827714D02*
X18704572Y-16818190D01*
X18704572Y-16818190D02*
X18742667Y-16818190D01*
X18742667Y-16818190D02*
X18761715Y-16827714D01*
X18761715Y-16827714D02*
X18771239Y-16846762D01*
X18771239Y-16846762D02*
X18771239Y-16865810D01*
X18771239Y-16865810D02*
X18676001Y-16884857D01*
X18942667Y-16951524D02*
X18942667Y-16751524D01*
X18942667Y-16942000D02*
X18923620Y-16951524D01*
X18923620Y-16951524D02*
X18885524Y-16951524D01*
X18885524Y-16951524D02*
X18866477Y-16942000D01*
X18866477Y-16942000D02*
X18856953Y-16932476D01*
X18856953Y-16932476D02*
X18847429Y-16913429D01*
X18847429Y-16913429D02*
X18847429Y-16856286D01*
X18847429Y-16856286D02*
X18856953Y-16837238D01*
X18856953Y-16837238D02*
X18866477Y-16827714D01*
X18866477Y-16827714D02*
X18885524Y-16818190D01*
X18885524Y-16818190D02*
X18923620Y-16818190D01*
X18923620Y-16818190D02*
X18942667Y-16827714D01*
X19018858Y-17027714D02*
X19028382Y-17018190D01*
X19028382Y-17018190D02*
X19047429Y-16989619D01*
X19047429Y-16989619D02*
X19056953Y-16970571D01*
X19056953Y-16970571D02*
X19066477Y-16942000D01*
X19066477Y-16942000D02*
X19076001Y-16894381D01*
X19076001Y-16894381D02*
X19076001Y-16856286D01*
X19076001Y-16856286D02*
X19066477Y-16808667D01*
X19066477Y-16808667D02*
X19056953Y-16780095D01*
X19056953Y-16780095D02*
X19047429Y-16761048D01*
X19047429Y-16761048D02*
X19028382Y-16732476D01*
X19028382Y-16732476D02*
X19018858Y-16722952D01*
D10*
X12226000Y-17073000D02*
X12226000Y-17173000D01*
X12176000Y-17123000D02*
X12276000Y-17123000D01*
D11*
X12628381Y-17215524D02*
X12514095Y-17215524D01*
X12571238Y-17215524D02*
X12571238Y-17015524D01*
X12571238Y-17015524D02*
X12552190Y-17044095D01*
X12552190Y-17044095D02*
X12533143Y-17063143D01*
X12533143Y-17063143D02*
X12514095Y-17072667D01*
X12714095Y-17196476D02*
X12723619Y-17206000D01*
X12723619Y-17206000D02*
X12714095Y-17215524D01*
X12714095Y-17215524D02*
X12704571Y-17206000D01*
X12704571Y-17206000D02*
X12714095Y-17196476D01*
X12714095Y-17196476D02*
X12714095Y-17215524D01*
X12847428Y-17015524D02*
X12866476Y-17015524D01*
X12866476Y-17015524D02*
X12885524Y-17025048D01*
X12885524Y-17025048D02*
X12895048Y-17034571D01*
X12895048Y-17034571D02*
X12904571Y-17053619D01*
X12904571Y-17053619D02*
X12914095Y-17091714D01*
X12914095Y-17091714D02*
X12914095Y-17139333D01*
X12914095Y-17139333D02*
X12904571Y-17177429D01*
X12904571Y-17177429D02*
X12895048Y-17196476D01*
X12895048Y-17196476D02*
X12885524Y-17206000D01*
X12885524Y-17206000D02*
X12866476Y-17215524D01*
X12866476Y-17215524D02*
X12847428Y-17215524D01*
X12847428Y-17215524D02*
X12828381Y-17206000D01*
X12828381Y-17206000D02*
X12818857Y-17196476D01*
X12818857Y-17196476D02*
X12809333Y-17177429D01*
X12809333Y-17177429D02*
X12799809Y-17139333D01*
X12799809Y-17139333D02*
X12799809Y-17091714D01*
X12799809Y-17091714D02*
X12809333Y-17053619D01*
X12809333Y-17053619D02*
X12818857Y-17034571D01*
X12818857Y-17034571D02*
X12828381Y-17025048D01*
X12828381Y-17025048D02*
X12847428Y-17015524D01*
X13037905Y-17015524D02*
X13056952Y-17015524D01*
X13056952Y-17015524D02*
X13076000Y-17025048D01*
X13076000Y-17025048D02*
X13085524Y-17034571D01*
X13085524Y-17034571D02*
X13095048Y-17053619D01*
X13095048Y-17053619D02*
X13104571Y-17091714D01*
X13104571Y-17091714D02*
X13104571Y-17139333D01*
X13104571Y-17139333D02*
X13095048Y-17177429D01*
X13095048Y-17177429D02*
X13085524Y-17196476D01*
X13085524Y-17196476D02*
X13076000Y-17206000D01*
X13076000Y-17206000D02*
X13056952Y-17215524D01*
X13056952Y-17215524D02*
X13037905Y-17215524D01*
X13037905Y-17215524D02*
X13018857Y-17206000D01*
X13018857Y-17206000D02*
X13009333Y-17196476D01*
X13009333Y-17196476D02*
X12999809Y-17177429D01*
X12999809Y-17177429D02*
X12990286Y-17139333D01*
X12990286Y-17139333D02*
X12990286Y-17091714D01*
X12990286Y-17091714D02*
X12999809Y-17053619D01*
X12999809Y-17053619D02*
X13009333Y-17034571D01*
X13009333Y-17034571D02*
X13018857Y-17025048D01*
X13018857Y-17025048D02*
X13037905Y-17015524D01*
X13228381Y-17015524D02*
X13247429Y-17015524D01*
X13247429Y-17015524D02*
X13266476Y-17025048D01*
X13266476Y-17025048D02*
X13276000Y-17034571D01*
X13276000Y-17034571D02*
X13285524Y-17053619D01*
X13285524Y-17053619D02*
X13295048Y-17091714D01*
X13295048Y-17091714D02*
X13295048Y-17139333D01*
X13295048Y-17139333D02*
X13285524Y-17177429D01*
X13285524Y-17177429D02*
X13276000Y-17196476D01*
X13276000Y-17196476D02*
X13266476Y-17206000D01*
X13266476Y-17206000D02*
X13247429Y-17215524D01*
X13247429Y-17215524D02*
X13228381Y-17215524D01*
X13228381Y-17215524D02*
X13209333Y-17206000D01*
X13209333Y-17206000D02*
X13199809Y-17196476D01*
X13199809Y-17196476D02*
X13190286Y-17177429D01*
X13190286Y-17177429D02*
X13180762Y-17139333D01*
X13180762Y-17139333D02*
X13180762Y-17091714D01*
X13180762Y-17091714D02*
X13190286Y-17053619D01*
X13190286Y-17053619D02*
X13199809Y-17034571D01*
X13199809Y-17034571D02*
X13209333Y-17025048D01*
X13209333Y-17025048D02*
X13228381Y-17015524D01*
X13380762Y-17215524D02*
X13380762Y-17082190D01*
X13380762Y-17101238D02*
X13390286Y-17091714D01*
X13390286Y-17091714D02*
X13409333Y-17082190D01*
X13409333Y-17082190D02*
X13437905Y-17082190D01*
X13437905Y-17082190D02*
X13456952Y-17091714D01*
X13456952Y-17091714D02*
X13466476Y-17110762D01*
X13466476Y-17110762D02*
X13466476Y-17215524D01*
X13466476Y-17110762D02*
X13476000Y-17091714D01*
X13476000Y-17091714D02*
X13495048Y-17082190D01*
X13495048Y-17082190D02*
X13523619Y-17082190D01*
X13523619Y-17082190D02*
X13542667Y-17091714D01*
X13542667Y-17091714D02*
X13552190Y-17110762D01*
X13552190Y-17110762D02*
X13552190Y-17215524D01*
X13647429Y-17215524D02*
X13647429Y-17082190D01*
X13647429Y-17101238D02*
X13656952Y-17091714D01*
X13656952Y-17091714D02*
X13676000Y-17082190D01*
X13676000Y-17082190D02*
X13704571Y-17082190D01*
X13704571Y-17082190D02*
X13723619Y-17091714D01*
X13723619Y-17091714D02*
X13733143Y-17110762D01*
X13733143Y-17110762D02*
X13733143Y-17215524D01*
X13733143Y-17110762D02*
X13742667Y-17091714D01*
X13742667Y-17091714D02*
X13761714Y-17082190D01*
X13761714Y-17082190D02*
X13790286Y-17082190D01*
X13790286Y-17082190D02*
X13809333Y-17091714D01*
X13809333Y-17091714D02*
X13818857Y-17110762D01*
X13818857Y-17110762D02*
X13818857Y-17215524D01*
X14209333Y-17006000D02*
X14037905Y-17263143D01*
X14466476Y-17015524D02*
X14485524Y-17015524D01*
X14485524Y-17015524D02*
X14504572Y-17025048D01*
X14504572Y-17025048D02*
X14514095Y-17034571D01*
X14514095Y-17034571D02*
X14523619Y-17053619D01*
X14523619Y-17053619D02*
X14533143Y-17091714D01*
X14533143Y-17091714D02*
X14533143Y-17139333D01*
X14533143Y-17139333D02*
X14523619Y-17177429D01*
X14523619Y-17177429D02*
X14514095Y-17196476D01*
X14514095Y-17196476D02*
X14504572Y-17206000D01*
X14504572Y-17206000D02*
X14485524Y-17215524D01*
X14485524Y-17215524D02*
X14466476Y-17215524D01*
X14466476Y-17215524D02*
X14447429Y-17206000D01*
X14447429Y-17206000D02*
X14437905Y-17196476D01*
X14437905Y-17196476D02*
X14428381Y-17177429D01*
X14428381Y-17177429D02*
X14418857Y-17139333D01*
X14418857Y-17139333D02*
X14418857Y-17091714D01*
X14418857Y-17091714D02*
X14428381Y-17053619D01*
X14428381Y-17053619D02*
X14437905Y-17034571D01*
X14437905Y-17034571D02*
X14447429Y-17025048D01*
X14447429Y-17025048D02*
X14466476Y-17015524D01*
X14618857Y-17196476D02*
X14628381Y-17206000D01*
X14628381Y-17206000D02*
X14618857Y-17215524D01*
X14618857Y-17215524D02*
X14609333Y-17206000D01*
X14609333Y-17206000D02*
X14618857Y-17196476D01*
X14618857Y-17196476D02*
X14618857Y-17215524D01*
X14752191Y-17015524D02*
X14771238Y-17015524D01*
X14771238Y-17015524D02*
X14790286Y-17025048D01*
X14790286Y-17025048D02*
X14799810Y-17034571D01*
X14799810Y-17034571D02*
X14809333Y-17053619D01*
X14809333Y-17053619D02*
X14818857Y-17091714D01*
X14818857Y-17091714D02*
X14818857Y-17139333D01*
X14818857Y-17139333D02*
X14809333Y-17177429D01*
X14809333Y-17177429D02*
X14799810Y-17196476D01*
X14799810Y-17196476D02*
X14790286Y-17206000D01*
X14790286Y-17206000D02*
X14771238Y-17215524D01*
X14771238Y-17215524D02*
X14752191Y-17215524D01*
X14752191Y-17215524D02*
X14733143Y-17206000D01*
X14733143Y-17206000D02*
X14723619Y-17196476D01*
X14723619Y-17196476D02*
X14714095Y-17177429D01*
X14714095Y-17177429D02*
X14704572Y-17139333D01*
X14704572Y-17139333D02*
X14704572Y-17091714D01*
X14704572Y-17091714D02*
X14714095Y-17053619D01*
X14714095Y-17053619D02*
X14723619Y-17034571D01*
X14723619Y-17034571D02*
X14733143Y-17025048D01*
X14733143Y-17025048D02*
X14752191Y-17015524D01*
X14885524Y-17015524D02*
X15009333Y-17015524D01*
X15009333Y-17015524D02*
X14942667Y-17091714D01*
X14942667Y-17091714D02*
X14971238Y-17091714D01*
X14971238Y-17091714D02*
X14990286Y-17101238D01*
X14990286Y-17101238D02*
X14999810Y-17110762D01*
X14999810Y-17110762D02*
X15009333Y-17129810D01*
X15009333Y-17129810D02*
X15009333Y-17177429D01*
X15009333Y-17177429D02*
X14999810Y-17196476D01*
X14999810Y-17196476D02*
X14990286Y-17206000D01*
X14990286Y-17206000D02*
X14971238Y-17215524D01*
X14971238Y-17215524D02*
X14914095Y-17215524D01*
X14914095Y-17215524D02*
X14895048Y-17206000D01*
X14895048Y-17206000D02*
X14885524Y-17196476D01*
X15104572Y-17215524D02*
X15142667Y-17215524D01*
X15142667Y-17215524D02*
X15161714Y-17206000D01*
X15161714Y-17206000D02*
X15171238Y-17196476D01*
X15171238Y-17196476D02*
X15190286Y-17167905D01*
X15190286Y-17167905D02*
X15199810Y-17129810D01*
X15199810Y-17129810D02*
X15199810Y-17053619D01*
X15199810Y-17053619D02*
X15190286Y-17034571D01*
X15190286Y-17034571D02*
X15180762Y-17025048D01*
X15180762Y-17025048D02*
X15161714Y-17015524D01*
X15161714Y-17015524D02*
X15123619Y-17015524D01*
X15123619Y-17015524D02*
X15104572Y-17025048D01*
X15104572Y-17025048D02*
X15095048Y-17034571D01*
X15095048Y-17034571D02*
X15085524Y-17053619D01*
X15085524Y-17053619D02*
X15085524Y-17101238D01*
X15085524Y-17101238D02*
X15095048Y-17120286D01*
X15095048Y-17120286D02*
X15104572Y-17129810D01*
X15104572Y-17129810D02*
X15123619Y-17139333D01*
X15123619Y-17139333D02*
X15161714Y-17139333D01*
X15161714Y-17139333D02*
X15180762Y-17129810D01*
X15180762Y-17129810D02*
X15190286Y-17120286D01*
X15190286Y-17120286D02*
X15199810Y-17101238D01*
X15371238Y-17082190D02*
X15371238Y-17215524D01*
X15323619Y-17006000D02*
X15276000Y-17148857D01*
X15276000Y-17148857D02*
X15399810Y-17148857D01*
X15466476Y-17015524D02*
X15466476Y-17053619D01*
X15542667Y-17015524D02*
X15542667Y-17053619D01*
X15837905Y-17291714D02*
X15828381Y-17282190D01*
X15828381Y-17282190D02*
X15809334Y-17253619D01*
X15809334Y-17253619D02*
X15799810Y-17234571D01*
X15799810Y-17234571D02*
X15790286Y-17206000D01*
X15790286Y-17206000D02*
X15780762Y-17158381D01*
X15780762Y-17158381D02*
X15780762Y-17120286D01*
X15780762Y-17120286D02*
X15790286Y-17072667D01*
X15790286Y-17072667D02*
X15799810Y-17044095D01*
X15799810Y-17044095D02*
X15809334Y-17025048D01*
X15809334Y-17025048D02*
X15828381Y-16996476D01*
X15828381Y-16996476D02*
X15837905Y-16986952D01*
X15904572Y-17034571D02*
X15914095Y-17025048D01*
X15914095Y-17025048D02*
X15933143Y-17015524D01*
X15933143Y-17015524D02*
X15980762Y-17015524D01*
X15980762Y-17015524D02*
X15999810Y-17025048D01*
X15999810Y-17025048D02*
X16009334Y-17034571D01*
X16009334Y-17034571D02*
X16018857Y-17053619D01*
X16018857Y-17053619D02*
X16018857Y-17072667D01*
X16018857Y-17072667D02*
X16009334Y-17101238D01*
X16009334Y-17101238D02*
X15895048Y-17215524D01*
X15895048Y-17215524D02*
X16018857Y-17215524D01*
X16256953Y-17215524D02*
X16256953Y-17015524D01*
X16342667Y-17215524D02*
X16342667Y-17110762D01*
X16342667Y-17110762D02*
X16333143Y-17091714D01*
X16333143Y-17091714D02*
X16314096Y-17082190D01*
X16314096Y-17082190D02*
X16285524Y-17082190D01*
X16285524Y-17082190D02*
X16266476Y-17091714D01*
X16266476Y-17091714D02*
X16256953Y-17101238D01*
X16466476Y-17215524D02*
X16447429Y-17206000D01*
X16447429Y-17206000D02*
X16437905Y-17196476D01*
X16437905Y-17196476D02*
X16428381Y-17177429D01*
X16428381Y-17177429D02*
X16428381Y-17120286D01*
X16428381Y-17120286D02*
X16437905Y-17101238D01*
X16437905Y-17101238D02*
X16447429Y-17091714D01*
X16447429Y-17091714D02*
X16466476Y-17082190D01*
X16466476Y-17082190D02*
X16495048Y-17082190D01*
X16495048Y-17082190D02*
X16514096Y-17091714D01*
X16514096Y-17091714D02*
X16523619Y-17101238D01*
X16523619Y-17101238D02*
X16533143Y-17120286D01*
X16533143Y-17120286D02*
X16533143Y-17177429D01*
X16533143Y-17177429D02*
X16523619Y-17196476D01*
X16523619Y-17196476D02*
X16514096Y-17206000D01*
X16514096Y-17206000D02*
X16495048Y-17215524D01*
X16495048Y-17215524D02*
X16466476Y-17215524D01*
X16647429Y-17215524D02*
X16628381Y-17206000D01*
X16628381Y-17206000D02*
X16618857Y-17186952D01*
X16618857Y-17186952D02*
X16618857Y-17015524D01*
X16799810Y-17206000D02*
X16780762Y-17215524D01*
X16780762Y-17215524D02*
X16742667Y-17215524D01*
X16742667Y-17215524D02*
X16723619Y-17206000D01*
X16723619Y-17206000D02*
X16714096Y-17186952D01*
X16714096Y-17186952D02*
X16714096Y-17110762D01*
X16714096Y-17110762D02*
X16723619Y-17091714D01*
X16723619Y-17091714D02*
X16742667Y-17082190D01*
X16742667Y-17082190D02*
X16780762Y-17082190D01*
X16780762Y-17082190D02*
X16799810Y-17091714D01*
X16799810Y-17091714D02*
X16809334Y-17110762D01*
X16809334Y-17110762D02*
X16809334Y-17129810D01*
X16809334Y-17129810D02*
X16714096Y-17148857D01*
X16885524Y-17206000D02*
X16904572Y-17215524D01*
X16904572Y-17215524D02*
X16942667Y-17215524D01*
X16942667Y-17215524D02*
X16961715Y-17206000D01*
X16961715Y-17206000D02*
X16971239Y-17186952D01*
X16971239Y-17186952D02*
X16971239Y-17177429D01*
X16971239Y-17177429D02*
X16961715Y-17158381D01*
X16961715Y-17158381D02*
X16942667Y-17148857D01*
X16942667Y-17148857D02*
X16914096Y-17148857D01*
X16914096Y-17148857D02*
X16895048Y-17139333D01*
X16895048Y-17139333D02*
X16885524Y-17120286D01*
X16885524Y-17120286D02*
X16885524Y-17110762D01*
X16885524Y-17110762D02*
X16895048Y-17091714D01*
X16895048Y-17091714D02*
X16914096Y-17082190D01*
X16914096Y-17082190D02*
X16942667Y-17082190D01*
X16942667Y-17082190D02*
X16961715Y-17091714D01*
X17037905Y-17291714D02*
X17047429Y-17282190D01*
X17047429Y-17282190D02*
X17066477Y-17253619D01*
X17066477Y-17253619D02*
X17076000Y-17234571D01*
X17076000Y-17234571D02*
X17085524Y-17206000D01*
X17085524Y-17206000D02*
X17095048Y-17158381D01*
X17095048Y-17158381D02*
X17095048Y-17120286D01*
X17095048Y-17120286D02*
X17085524Y-17072667D01*
X17085524Y-17072667D02*
X17076000Y-17044095D01*
X17076000Y-17044095D02*
X17066477Y-17025048D01*
X17066477Y-17025048D02*
X17047429Y-16996476D01*
X17047429Y-16996476D02*
X17037905Y-16986952D01*
X17399810Y-17291714D02*
X17390286Y-17282190D01*
X17390286Y-17282190D02*
X17371239Y-17253619D01*
X17371239Y-17253619D02*
X17361715Y-17234571D01*
X17361715Y-17234571D02*
X17352191Y-17206000D01*
X17352191Y-17206000D02*
X17342667Y-17158381D01*
X17342667Y-17158381D02*
X17342667Y-17120286D01*
X17342667Y-17120286D02*
X17352191Y-17072667D01*
X17352191Y-17072667D02*
X17361715Y-17044095D01*
X17361715Y-17044095D02*
X17371239Y-17025048D01*
X17371239Y-17025048D02*
X17390286Y-16996476D01*
X17390286Y-16996476D02*
X17399810Y-16986952D01*
X17476000Y-17082190D02*
X17476000Y-17215524D01*
X17476000Y-17101238D02*
X17485524Y-17091714D01*
X17485524Y-17091714D02*
X17504572Y-17082190D01*
X17504572Y-17082190D02*
X17533143Y-17082190D01*
X17533143Y-17082190D02*
X17552191Y-17091714D01*
X17552191Y-17091714D02*
X17561715Y-17110762D01*
X17561715Y-17110762D02*
X17561715Y-17215524D01*
X17685524Y-17215524D02*
X17666477Y-17206000D01*
X17666477Y-17206000D02*
X17656953Y-17196476D01*
X17656953Y-17196476D02*
X17647429Y-17177429D01*
X17647429Y-17177429D02*
X17647429Y-17120286D01*
X17647429Y-17120286D02*
X17656953Y-17101238D01*
X17656953Y-17101238D02*
X17666477Y-17091714D01*
X17666477Y-17091714D02*
X17685524Y-17082190D01*
X17685524Y-17082190D02*
X17714096Y-17082190D01*
X17714096Y-17082190D02*
X17733143Y-17091714D01*
X17733143Y-17091714D02*
X17742667Y-17101238D01*
X17742667Y-17101238D02*
X17752191Y-17120286D01*
X17752191Y-17120286D02*
X17752191Y-17177429D01*
X17752191Y-17177429D02*
X17742667Y-17196476D01*
X17742667Y-17196476D02*
X17733143Y-17206000D01*
X17733143Y-17206000D02*
X17714096Y-17215524D01*
X17714096Y-17215524D02*
X17685524Y-17215524D01*
X17809334Y-17082190D02*
X17885524Y-17082190D01*
X17837905Y-17015524D02*
X17837905Y-17186952D01*
X17837905Y-17186952D02*
X17847429Y-17206000D01*
X17847429Y-17206000D02*
X17866477Y-17215524D01*
X17866477Y-17215524D02*
X17885524Y-17215524D01*
X18104572Y-17082190D02*
X18104572Y-17282190D01*
X18104572Y-17091714D02*
X18123620Y-17082190D01*
X18123620Y-17082190D02*
X18161715Y-17082190D01*
X18161715Y-17082190D02*
X18180762Y-17091714D01*
X18180762Y-17091714D02*
X18190286Y-17101238D01*
X18190286Y-17101238D02*
X18199810Y-17120286D01*
X18199810Y-17120286D02*
X18199810Y-17177429D01*
X18199810Y-17177429D02*
X18190286Y-17196476D01*
X18190286Y-17196476D02*
X18180762Y-17206000D01*
X18180762Y-17206000D02*
X18161715Y-17215524D01*
X18161715Y-17215524D02*
X18123620Y-17215524D01*
X18123620Y-17215524D02*
X18104572Y-17206000D01*
X18314096Y-17215524D02*
X18295048Y-17206000D01*
X18295048Y-17206000D02*
X18285524Y-17186952D01*
X18285524Y-17186952D02*
X18285524Y-17015524D01*
X18476001Y-17215524D02*
X18476001Y-17110762D01*
X18476001Y-17110762D02*
X18466477Y-17091714D01*
X18466477Y-17091714D02*
X18447429Y-17082190D01*
X18447429Y-17082190D02*
X18409334Y-17082190D01*
X18409334Y-17082190D02*
X18390286Y-17091714D01*
X18476001Y-17206000D02*
X18456953Y-17215524D01*
X18456953Y-17215524D02*
X18409334Y-17215524D01*
X18409334Y-17215524D02*
X18390286Y-17206000D01*
X18390286Y-17206000D02*
X18380762Y-17186952D01*
X18380762Y-17186952D02*
X18380762Y-17167905D01*
X18380762Y-17167905D02*
X18390286Y-17148857D01*
X18390286Y-17148857D02*
X18409334Y-17139333D01*
X18409334Y-17139333D02*
X18456953Y-17139333D01*
X18456953Y-17139333D02*
X18476001Y-17129810D01*
X18542667Y-17082190D02*
X18618858Y-17082190D01*
X18571239Y-17015524D02*
X18571239Y-17186952D01*
X18571239Y-17186952D02*
X18580762Y-17206000D01*
X18580762Y-17206000D02*
X18599810Y-17215524D01*
X18599810Y-17215524D02*
X18618858Y-17215524D01*
X18761715Y-17206000D02*
X18742667Y-17215524D01*
X18742667Y-17215524D02*
X18704572Y-17215524D01*
X18704572Y-17215524D02*
X18685524Y-17206000D01*
X18685524Y-17206000D02*
X18676001Y-17186952D01*
X18676001Y-17186952D02*
X18676001Y-17110762D01*
X18676001Y-17110762D02*
X18685524Y-17091714D01*
X18685524Y-17091714D02*
X18704572Y-17082190D01*
X18704572Y-17082190D02*
X18742667Y-17082190D01*
X18742667Y-17082190D02*
X18761715Y-17091714D01*
X18761715Y-17091714D02*
X18771239Y-17110762D01*
X18771239Y-17110762D02*
X18771239Y-17129810D01*
X18771239Y-17129810D02*
X18676001Y-17148857D01*
X18942667Y-17215524D02*
X18942667Y-17015524D01*
X18942667Y-17206000D02*
X18923620Y-17215524D01*
X18923620Y-17215524D02*
X18885524Y-17215524D01*
X18885524Y-17215524D02*
X18866477Y-17206000D01*
X18866477Y-17206000D02*
X18856953Y-17196476D01*
X18856953Y-17196476D02*
X18847429Y-17177429D01*
X18847429Y-17177429D02*
X18847429Y-17120286D01*
X18847429Y-17120286D02*
X18856953Y-17101238D01*
X18856953Y-17101238D02*
X18866477Y-17091714D01*
X18866477Y-17091714D02*
X18885524Y-17082190D01*
X18885524Y-17082190D02*
X18923620Y-17082190D01*
X18923620Y-17082190D02*
X18942667Y-17091714D01*
X19018858Y-17291714D02*
X19028382Y-17282190D01*
X19028382Y-17282190D02*
X19047429Y-17253619D01*
X19047429Y-17253619D02*
X19056953Y-17234571D01*
X19056953Y-17234571D02*
X19066477Y-17206000D01*
X19066477Y-17206000D02*
X19076001Y-17158381D01*
X19076001Y-17158381D02*
X19076001Y-17120286D01*
X19076001Y-17120286D02*
X19066477Y-17072667D01*
X19066477Y-17072667D02*
X19056953Y-17044095D01*
X19056953Y-17044095D02*
X19047429Y-17025048D01*
X19047429Y-17025048D02*
X19028382Y-16996476D01*
X19028382Y-16996476D02*
X19018858Y-16986952D01*
M02*
