%TF.GenerationSoftware,KiCad,Pcbnew,7.0.1*%
%TF.CreationDate,2023-12-14T09:52:28-06:00*%
%TF.ProjectId,ProjectNeoRogue,50726f6a-6563-4744-9e65-6f526f677565,v1*%
%TF.SameCoordinates,Original*%
%TF.FileFunction,Copper,L2,Inr*%
%TF.FilePolarity,Positive*%
%FSLAX46Y46*%
G04 Gerber Fmt 4.6, Leading zero omitted, Abs format (unit mm)*
G04 Created by KiCad (PCBNEW 7.0.1) date 2023-12-14 09:52:28*
%MOMM*%
%LPD*%
G01*
G04 APERTURE LIST*
%TA.AperFunction,ComponentPad*%
%ADD10O,1.727200X1.727200*%
%TD*%
%TA.AperFunction,ComponentPad*%
%ADD11R,1.727200X1.727200*%
%TD*%
%TA.AperFunction,ComponentPad*%
%ADD12C,1.727200*%
%TD*%
%TA.AperFunction,ComponentPad*%
%ADD13R,1.700000X1.700000*%
%TD*%
%TA.AperFunction,ComponentPad*%
%ADD14O,1.700000X1.700000*%
%TD*%
%TA.AperFunction,ComponentPad*%
%ADD15C,6.000000*%
%TD*%
%TA.AperFunction,ComponentPad*%
%ADD16R,2.000000X2.000000*%
%TD*%
%TA.AperFunction,ComponentPad*%
%ADD17C,2.000000*%
%TD*%
%TA.AperFunction,ComponentPad*%
%ADD18C,3.200000*%
%TD*%
%TA.AperFunction,ComponentPad*%
%ADD19O,1.000000X1.800000*%
%TD*%
%TA.AperFunction,ComponentPad*%
%ADD20O,1.000000X2.100000*%
%TD*%
%TA.AperFunction,ViaPad*%
%ADD21C,0.750000*%
%TD*%
%TA.AperFunction,ViaPad*%
%ADD22C,0.600000*%
%TD*%
%TA.AperFunction,Conductor*%
%ADD23C,0.250000*%
%TD*%
G04 APERTURE END LIST*
D10*
%TO.N,VCC*%
%TO.C,X1*%
X213220000Y-65250000D03*
D11*
%TO.N,GND*%
X210680000Y-65250000D03*
D10*
%TO.N,IO06*%
X213220000Y-67790000D03*
%TO.N,IO07*%
X210680000Y-67790000D03*
D12*
%TO.N,Net-(JP2-B)*%
X213220000Y-70330000D03*
%TO.N,Net-(JP3-A)*%
X210680000Y-70330000D03*
%TD*%
D13*
%TO.N,unconnected-(J7-Pin_1-Pad1)*%
%TO.C,J7*%
X168040000Y-128340000D03*
D14*
%TO.N,IO02*%
X170580000Y-128340000D03*
%TO.N,IO01*%
X173120000Y-128340000D03*
%TO.N,IO08*%
X175660000Y-128340000D03*
%TO.N,IO09*%
X178200000Y-128340000D03*
%TO.N,GND*%
X180740000Y-128340000D03*
%TO.N,VCC*%
X183280000Y-128340000D03*
%TD*%
D15*
%TO.N,*%
%TO.C,REF\u002A\u002A*%
X214370000Y-49510000D03*
%TD*%
%TO.N,*%
%TO.C,REF\u002A\u002A*%
X214690000Y-155670000D03*
%TD*%
D16*
%TO.N,IO04*%
%TO.C,SW9*%
X128020000Y-51080000D03*
D17*
%TO.N,IO05*%
X128020000Y-56080000D03*
%TO.N,GND*%
X128020000Y-53580000D03*
D18*
%TO.N,N/C*%
X135520000Y-47980000D03*
X135520000Y-59180000D03*
D17*
%TO.N,IO20*%
X142520000Y-56080000D03*
%TO.N,GND*%
X142520000Y-51080000D03*
%TD*%
D16*
%TO.N,IO16*%
%TO.C,SW10*%
X128270000Y-149270000D03*
D17*
%TO.N,IO17*%
X128270000Y-154270000D03*
%TO.N,GND*%
X128270000Y-151770000D03*
D18*
%TO.N,N/C*%
X135770000Y-146170000D03*
X135770000Y-157370000D03*
D17*
%TO.N,IO19*%
X142770000Y-154270000D03*
%TO.N,GND*%
X142770000Y-149270000D03*
%TD*%
D19*
%TO.N,Net-(J8-SHIELD)*%
%TO.C,J8*%
X174380000Y-156880000D03*
D20*
X174380000Y-152730000D03*
D19*
X165740000Y-156880000D03*
D20*
X165740000Y-152730000D03*
%TD*%
D21*
%TO.N,GND*%
X158750000Y-60706000D03*
D22*
X167630000Y-53040000D03*
D21*
X164338000Y-113792000D03*
X131190000Y-107900000D03*
X174510000Y-139670000D03*
X187780000Y-128620000D03*
X155350000Y-82440000D03*
X171150000Y-143550000D03*
X194890000Y-156280000D03*
X164010000Y-137530000D03*
X152210000Y-122910000D03*
X151710000Y-107520000D03*
X166080000Y-124450000D03*
X191880000Y-95300000D03*
X128810000Y-101550000D03*
X182520000Y-142482000D03*
X167760000Y-117430000D03*
X157230000Y-113550000D03*
X149098000Y-64008000D03*
X149830000Y-83620000D03*
X186330000Y-130960000D03*
X179500000Y-111910000D03*
X210660000Y-63300000D03*
X161600000Y-110090000D03*
X162970000Y-148030000D03*
D22*
X205040000Y-131130000D03*
D21*
X135410000Y-115700000D03*
X167450000Y-88759500D03*
X168000000Y-143430000D03*
X186409000Y-138164000D03*
X127230000Y-61560000D03*
D22*
X205460000Y-128620000D03*
D21*
X141130000Y-137110000D03*
D22*
X138460000Y-61660000D03*
D21*
X142240000Y-119126000D03*
X175170000Y-143240000D03*
%TO.N,VBUS*%
X191300000Y-134785000D03*
X191770000Y-137287000D03*
%TO.N,VCC*%
X174315901Y-134084108D03*
X178970000Y-91970000D03*
X183300000Y-135710000D03*
X183480000Y-137300000D03*
X166680000Y-134330000D03*
X185340000Y-99240000D03*
X126540000Y-122840000D03*
X141040000Y-135480000D03*
X181176600Y-136690800D03*
D22*
X149070000Y-51660000D03*
D21*
X197410000Y-131440000D03*
X163370000Y-145920000D03*
D22*
X127850000Y-47900000D03*
D21*
X212852000Y-128270000D03*
D22*
X130290000Y-58650000D03*
D21*
X162980000Y-95460000D03*
X215392000Y-128270000D03*
X178660000Y-135850000D03*
X148000000Y-59890000D03*
X172540000Y-133610000D03*
X172550000Y-116110000D03*
X130330000Y-60220000D03*
X210470000Y-155560000D03*
X178770000Y-137450000D03*
D22*
X124380000Y-150040000D03*
%TO.N,Net-(D6-A)*%
X203720000Y-87060000D03*
X199430000Y-136570000D03*
%TO.N,IO18*%
X156320000Y-89313396D03*
%TO.N,Net-(D7-A)*%
X199010000Y-141940000D03*
X204940000Y-87520000D03*
D21*
%TO.N,USB_TX_ESP_RX*%
X133860000Y-91010000D03*
X124560500Y-102030000D03*
D22*
%TO.N,Boot*%
X140820000Y-77060000D03*
X167650000Y-47670000D03*
D21*
%TO.N,IO15*%
X145229500Y-80295378D03*
D22*
X189710000Y-149230000D03*
D21*
X146054363Y-84710000D03*
D22*
X187770000Y-92750000D03*
D21*
%TO.N,IO05*%
X134180000Y-67300000D03*
D22*
X123780000Y-56140000D03*
D21*
%TO.N,IO04*%
X132175000Y-67145000D03*
D22*
X123990000Y-51110000D03*
D21*
%TO.N,IO10*%
X152659466Y-66530534D03*
X155380000Y-63810000D03*
%TO.N,IO14*%
X157181126Y-88688896D03*
X152400000Y-88360000D03*
%TO.N,IO13*%
X152894624Y-87549505D03*
X157150000Y-87890000D03*
%TO.N,IO12*%
X153924000Y-87539396D03*
X157190000Y-87060000D03*
%TO.N,IO11*%
X154866861Y-87089396D03*
X157190000Y-86260000D03*
%TO.N,IO37*%
X141040000Y-107459000D03*
X142388581Y-105961403D03*
%TO.N,IO36*%
X142953589Y-106526411D03*
X141866666Y-108121401D03*
%TO.N,IO35*%
X142650000Y-108900000D03*
X143643589Y-107216411D03*
%TO.N,IO16*%
X144500500Y-77865453D03*
D22*
X144980000Y-84740000D03*
D21*
X155180000Y-122410000D03*
X155900000Y-118880000D03*
%TO.N,IO17*%
X152540000Y-90714500D03*
X154470000Y-115980000D03*
X144560500Y-75522774D03*
X154279432Y-121139419D03*
D22*
%TO.N,IO08*%
X174677775Y-90300000D03*
D21*
X155620500Y-73310500D03*
D22*
%TO.N,IO09*%
X148310000Y-69800000D03*
D21*
X182900378Y-89910378D03*
%TO.N,IO02*%
X141947976Y-81650897D03*
%TO.N,IO01*%
X142170000Y-80440000D03*
X157019500Y-74010000D03*
X186539622Y-87450378D03*
%TO.N,IO19*%
X145085500Y-76400000D03*
X152830000Y-119060000D03*
%TO.N,IO47*%
X132297567Y-116752399D03*
X148340000Y-78670000D03*
X143830500Y-84868161D03*
X143370000Y-109670000D03*
X131430000Y-122760000D03*
X144396855Y-107794465D03*
X133049500Y-124460000D03*
X131160000Y-119670000D03*
%TO.N,IO06*%
X215392000Y-121920000D03*
X209550000Y-128524000D03*
X207264000Y-130556000D03*
D22*
%TO.N,IO07*%
X212030000Y-57260000D03*
D21*
X206756000Y-129794000D03*
X208534000Y-128270000D03*
X212852000Y-121920000D03*
%TO.N,IO20*%
X146558000Y-64008000D03*
D22*
X145780000Y-56290000D03*
D21*
%TO.N,IO45*%
X147066000Y-83058000D03*
X157988000Y-54356000D03*
%TO.N,IO46*%
X149352000Y-67310000D03*
X154502000Y-62922000D03*
%TD*%
D23*
%TO.N,GND*%
X210680000Y-63320000D02*
X210660000Y-63300000D01*
X210680000Y-65250000D02*
X210680000Y-63320000D01*
%TO.N,IO09*%
X169624950Y-89675000D02*
X149749950Y-69800000D01*
X149749950Y-69800000D02*
X148310000Y-69800000D01*
X182665000Y-89675000D02*
X169624950Y-89675000D01*
X182900378Y-89910378D02*
X182665000Y-89675000D01*
%TO.N,IO02*%
X141947976Y-81650897D02*
X143130500Y-82833421D01*
X169757211Y-104312789D02*
X169757211Y-127517211D01*
X157609950Y-85690000D02*
X163220050Y-85690000D01*
X143130500Y-85158111D02*
X143540550Y-85568161D01*
X170610000Y-103460000D02*
X169757211Y-104312789D01*
X154361889Y-85568161D02*
X154370050Y-85560000D01*
X143130500Y-82833421D02*
X143130500Y-85158111D01*
X170610000Y-93079950D02*
X170610000Y-103460000D01*
X157479950Y-85560000D02*
X157609950Y-85690000D01*
X143540550Y-85568161D02*
X154361889Y-85568161D01*
X163220050Y-85690000D02*
X170610000Y-93079950D01*
X169757211Y-127517211D02*
X170580000Y-128340000D01*
X154370050Y-85560000D02*
X157479950Y-85560000D01*
%TO.N,IO47*%
X147355950Y-83758000D02*
X148340000Y-82773950D01*
X144940661Y-83758000D02*
X147355950Y-83758000D01*
X148340000Y-82773950D02*
X148340000Y-78670000D01*
X143830500Y-84868161D02*
X144940661Y-83758000D01*
%TO.N,IO06*%
X213470000Y-121548050D02*
X209491400Y-117569450D01*
X212031400Y-68978600D02*
X213220000Y-67790000D01*
X207264000Y-130556000D02*
X209296000Y-128524000D01*
X210187665Y-68978600D02*
X212031400Y-68978600D01*
X209296000Y-128524000D02*
X209550000Y-128524000D01*
X209491400Y-117569450D02*
X209491400Y-69674865D01*
X215392000Y-121920000D02*
X213830000Y-121920000D01*
X213470000Y-121560000D02*
X213470000Y-121548050D01*
X213830000Y-121920000D02*
X213470000Y-121560000D01*
X209491400Y-69674865D02*
X210187665Y-68978600D01*
%TO.N,IO07*%
X208280000Y-128270000D02*
X208534000Y-128270000D01*
X212852000Y-121920000D02*
X209041400Y-118109400D01*
X209041400Y-69428600D02*
X210680000Y-67790000D01*
X209041400Y-118109400D02*
X209041400Y-69428600D01*
X206756000Y-129794000D02*
X208280000Y-128270000D01*
X212030000Y-66440000D02*
X212030000Y-57260000D01*
X210680000Y-67790000D02*
X212030000Y-66440000D01*
%TO.N,IO20*%
X146812000Y-64008000D02*
X146558000Y-64008000D01*
%TO.N,IO45*%
X150890000Y-61454000D02*
X157988000Y-54356000D01*
X147574000Y-82550000D02*
X147574000Y-76454000D01*
X150662050Y-61454000D02*
X150890000Y-61454000D01*
X147574000Y-76454000D02*
X146060000Y-74940000D01*
X146060000Y-66056050D02*
X150662050Y-61454000D01*
X146060000Y-74940000D02*
X146060000Y-66056050D01*
X147066000Y-83058000D02*
X147574000Y-82550000D01*
%TD*%
%TA.AperFunction,Conductor*%
%TO.N,GND*%
G36*
X216921034Y-45774770D02*
G01*
X216972845Y-45778848D01*
X216973228Y-45778880D01*
X217110390Y-45790882D01*
X217128504Y-45793832D01*
X217206209Y-45812488D01*
X217209289Y-45813271D01*
X217312390Y-45840898D01*
X217327744Y-45846109D01*
X217406857Y-45878879D01*
X217411784Y-45881048D01*
X217503334Y-45923739D01*
X217515687Y-45930376D01*
X217590562Y-45976260D01*
X217596856Y-45980388D01*
X217677932Y-46037159D01*
X217687333Y-46044438D01*
X217754686Y-46101962D01*
X217761835Y-46108571D01*
X217831427Y-46178163D01*
X217838036Y-46185312D01*
X217895555Y-46252658D01*
X217902839Y-46262066D01*
X217959610Y-46343142D01*
X217963749Y-46349453D01*
X218009615Y-46424300D01*
X218016266Y-46436677D01*
X218058945Y-46528202D01*
X218061124Y-46533154D01*
X218093887Y-46612250D01*
X218099100Y-46627608D01*
X218126727Y-46730709D01*
X218127527Y-46733856D01*
X218146164Y-46811482D01*
X218149118Y-46829621D01*
X218161085Y-46966381D01*
X218161175Y-46967458D01*
X218165235Y-47019031D01*
X218165617Y-47028763D01*
X218165617Y-47075212D01*
X218165700Y-47075627D01*
X218345608Y-158181138D01*
X218345226Y-158191069D01*
X218341175Y-158242537D01*
X218341085Y-158243616D01*
X218329118Y-158380377D01*
X218326164Y-158398516D01*
X218307527Y-158476142D01*
X218306727Y-158479289D01*
X218279100Y-158582390D01*
X218273887Y-158597748D01*
X218241124Y-158676844D01*
X218238945Y-158681796D01*
X218196266Y-158773321D01*
X218189611Y-158785707D01*
X218143763Y-158860523D01*
X218139610Y-158866856D01*
X218082839Y-158947932D01*
X218075555Y-158957340D01*
X218018036Y-159024686D01*
X218011427Y-159031835D01*
X217941835Y-159101427D01*
X217934686Y-159108036D01*
X217867340Y-159165555D01*
X217857932Y-159172839D01*
X217776856Y-159229610D01*
X217770523Y-159233763D01*
X217695707Y-159279611D01*
X217683321Y-159286266D01*
X217591796Y-159328945D01*
X217586844Y-159331124D01*
X217507748Y-159363887D01*
X217492390Y-159369100D01*
X217389289Y-159396727D01*
X217386142Y-159397527D01*
X217308516Y-159416164D01*
X217290377Y-159419118D01*
X217153616Y-159431085D01*
X217152537Y-159431175D01*
X217100929Y-159435237D01*
X217091284Y-159435619D01*
X124114917Y-159499495D01*
X124105102Y-159499113D01*
X124053508Y-159495052D01*
X124052432Y-159494962D01*
X123915738Y-159483004D01*
X123897595Y-159480049D01*
X123819967Y-159461411D01*
X123816823Y-159460613D01*
X123713722Y-159432988D01*
X123698362Y-159427774D01*
X123619271Y-159395013D01*
X123614320Y-159392835D01*
X123522780Y-159350149D01*
X123510407Y-159343500D01*
X123435584Y-159297648D01*
X123429251Y-159293496D01*
X123348183Y-159236732D01*
X123338774Y-159229447D01*
X123271420Y-159171921D01*
X123264271Y-159165312D01*
X123194686Y-159095727D01*
X123188077Y-159088578D01*
X123130551Y-159021224D01*
X123123266Y-159011815D01*
X123085122Y-158957340D01*
X123066497Y-158930740D01*
X123062350Y-158924414D01*
X123059982Y-158920550D01*
X123016492Y-158849580D01*
X123009856Y-158837232D01*
X122967142Y-158745631D01*
X122964997Y-158740754D01*
X122932218Y-158661618D01*
X122927014Y-158646287D01*
X122899385Y-158543175D01*
X122898587Y-158540031D01*
X122889626Y-158502710D01*
X122879947Y-158462396D01*
X122876996Y-158444279D01*
X122864996Y-158307106D01*
X122864962Y-158306700D01*
X122860880Y-158254827D01*
X122860498Y-158245158D01*
X122860275Y-157750065D01*
X122860104Y-157369999D01*
X133961241Y-157369999D01*
X133981443Y-157639578D01*
X134041600Y-157903143D01*
X134140364Y-158154789D01*
X134140365Y-158154791D01*
X134158451Y-158186117D01*
X134275533Y-158388909D01*
X134319689Y-158444279D01*
X134444087Y-158600268D01*
X134642258Y-158784144D01*
X134865621Y-158936430D01*
X135109186Y-159053725D01*
X135367513Y-159133409D01*
X135634831Y-159173700D01*
X135905169Y-159173700D01*
X136172487Y-159133409D01*
X136430814Y-159053725D01*
X136674379Y-158936430D01*
X136897742Y-158784144D01*
X137095913Y-158600268D01*
X137264466Y-158388910D01*
X137399635Y-158154791D01*
X137498400Y-157903141D01*
X137558556Y-157639581D01*
X137578758Y-157370000D01*
X137575203Y-157322562D01*
X165036300Y-157322562D01*
X165051730Y-157449642D01*
X165112328Y-157609426D01*
X165133142Y-157639581D01*
X165209405Y-157750066D01*
X165337317Y-157863387D01*
X165488632Y-157942803D01*
X165654555Y-157983700D01*
X165825444Y-157983700D01*
X165825445Y-157983700D01*
X165991368Y-157942803D01*
X166142683Y-157863387D01*
X166270595Y-157750066D01*
X166367671Y-157609427D01*
X166428270Y-157449643D01*
X166443700Y-157322563D01*
X166443700Y-157322562D01*
X173676300Y-157322562D01*
X173691730Y-157449642D01*
X173752328Y-157609426D01*
X173773142Y-157639581D01*
X173849405Y-157750066D01*
X173977317Y-157863387D01*
X174128632Y-157942803D01*
X174294555Y-157983700D01*
X174465444Y-157983700D01*
X174465445Y-157983700D01*
X174631368Y-157942803D01*
X174782683Y-157863387D01*
X174910595Y-157750066D01*
X175007671Y-157609427D01*
X175068270Y-157449643D01*
X175083700Y-157322563D01*
X175083700Y-156437437D01*
X175068270Y-156310357D01*
X175007671Y-156150573D01*
X174910595Y-156009934D01*
X174782683Y-155896613D01*
X174631368Y-155817197D01*
X174465445Y-155776300D01*
X174294555Y-155776300D01*
X174128632Y-155817197D01*
X174128630Y-155817197D01*
X174128630Y-155817198D01*
X173977317Y-155896613D01*
X173849404Y-156009934D01*
X173752328Y-156150573D01*
X173691730Y-156310357D01*
X173676300Y-156437438D01*
X173676300Y-157322562D01*
X166443700Y-157322562D01*
X166443700Y-156437437D01*
X166428270Y-156310357D01*
X166367671Y-156150573D01*
X166270595Y-156009934D01*
X166142683Y-155896613D01*
X165991368Y-155817197D01*
X165825445Y-155776300D01*
X165654555Y-155776300D01*
X165488632Y-155817197D01*
X165488630Y-155817197D01*
X165488630Y-155817198D01*
X165337317Y-155896613D01*
X165209404Y-156009934D01*
X165112328Y-156150573D01*
X165051730Y-156310357D01*
X165036300Y-156437438D01*
X165036300Y-157322562D01*
X137575203Y-157322562D01*
X137558556Y-157100419D01*
X137498400Y-156836859D01*
X137399635Y-156585209D01*
X137264466Y-156351090D01*
X137095913Y-156139732D01*
X136897742Y-155955856D01*
X136810848Y-155896613D01*
X136674379Y-155803570D01*
X136430814Y-155686275D01*
X136172486Y-155606590D01*
X135905169Y-155566300D01*
X135634831Y-155566300D01*
X135367513Y-155606590D01*
X135109185Y-155686275D01*
X134865620Y-155803570D01*
X134642258Y-155955855D01*
X134444087Y-156139731D01*
X134275533Y-156351090D01*
X134140364Y-156585210D01*
X134041600Y-156836856D01*
X133981443Y-157100421D01*
X133961241Y-157369999D01*
X122860104Y-157369999D01*
X122859289Y-155559999D01*
X209886305Y-155559999D01*
X209906195Y-155711071D01*
X209964505Y-155851846D01*
X210057265Y-155972734D01*
X210130941Y-156029267D01*
X210178153Y-156065494D01*
X210318929Y-156123805D01*
X210470000Y-156143694D01*
X210621071Y-156123805D01*
X210761847Y-156065494D01*
X210882734Y-155972734D01*
X210975494Y-155851847D01*
X211033805Y-155711071D01*
X211039212Y-155669999D01*
X211481252Y-155669999D01*
X211501428Y-156029267D01*
X211561700Y-156384009D01*
X211577093Y-156437438D01*
X211661316Y-156729782D01*
X211799018Y-157062224D01*
X211973075Y-157377157D01*
X212024506Y-157449642D01*
X212181303Y-157670627D01*
X212330354Y-157837413D01*
X212421073Y-157938927D01*
X212471174Y-157983700D01*
X212689372Y-158178696D01*
X212699831Y-158186117D01*
X212982843Y-158386925D01*
X213297776Y-158560982D01*
X213630218Y-158698684D01*
X213975986Y-158798298D01*
X213975987Y-158798298D01*
X213975990Y-158798299D01*
X214087594Y-158817261D01*
X214330734Y-158858572D01*
X214690000Y-158878748D01*
X215049266Y-158858572D01*
X215349573Y-158807547D01*
X215404009Y-158798299D01*
X215404010Y-158798298D01*
X215404014Y-158798298D01*
X215749782Y-158698684D01*
X216082224Y-158560982D01*
X216397157Y-158386925D01*
X216690622Y-158178700D01*
X216690624Y-158178697D01*
X216690627Y-158178696D01*
X216743821Y-158131158D01*
X216958927Y-157938927D01*
X217198700Y-157670622D01*
X217406925Y-157377157D01*
X217580982Y-157062224D01*
X217718684Y-156729782D01*
X217818298Y-156384014D01*
X217878572Y-156029266D01*
X217898748Y-155670000D01*
X217878572Y-155310734D01*
X217821751Y-154976306D01*
X217818299Y-154955990D01*
X217804007Y-154906381D01*
X217718684Y-154610218D01*
X217580982Y-154277776D01*
X217406925Y-153962843D01*
X217198700Y-153669378D01*
X217198696Y-153669372D01*
X217060439Y-153514665D01*
X216958927Y-153401073D01*
X216851769Y-153305310D01*
X216690627Y-153161303D01*
X216505647Y-153030053D01*
X216397157Y-152953075D01*
X216082224Y-152779018D01*
X216023032Y-152754500D01*
X215749784Y-152641317D01*
X215749785Y-152641317D01*
X215749782Y-152641316D01*
X215600757Y-152598382D01*
X215404009Y-152541700D01*
X215049267Y-152481428D01*
X214690000Y-152461252D01*
X214330732Y-152481428D01*
X213975990Y-152541700D01*
X213630215Y-152641317D01*
X213297777Y-152779017D01*
X212982843Y-152953075D01*
X212689372Y-153161303D01*
X212421073Y-153401073D01*
X212181303Y-153669372D01*
X211973075Y-153962843D01*
X211799017Y-154277777D01*
X211661317Y-154610215D01*
X211561700Y-154955990D01*
X211501428Y-155310732D01*
X211481252Y-155669999D01*
X211039212Y-155669999D01*
X211053694Y-155560000D01*
X211033805Y-155408929D01*
X210975494Y-155268153D01*
X210949816Y-155234689D01*
X210882734Y-155147265D01*
X210761846Y-155054505D01*
X210621071Y-154996195D01*
X210470000Y-154976305D01*
X210318928Y-154996195D01*
X210178153Y-155054505D01*
X210057265Y-155147265D01*
X209964505Y-155268153D01*
X209906195Y-155408928D01*
X209886305Y-155559999D01*
X122859289Y-155559999D01*
X122858709Y-154270000D01*
X127061143Y-154270000D01*
X127081726Y-154492128D01*
X127142772Y-154706688D01*
X127242208Y-154906380D01*
X127376644Y-155084403D01*
X127541500Y-155234689D01*
X127695681Y-155330153D01*
X127731166Y-155352124D01*
X127939181Y-155432710D01*
X128158461Y-155473700D01*
X128381537Y-155473700D01*
X128381539Y-155473700D01*
X128600819Y-155432710D01*
X128808834Y-155352124D01*
X128998499Y-155234689D01*
X128998498Y-155234689D01*
X129163355Y-155084403D01*
X129185933Y-155054505D01*
X129297791Y-154906381D01*
X129397226Y-154706690D01*
X129458274Y-154492127D01*
X129478857Y-154270000D01*
X141561143Y-154270000D01*
X141581726Y-154492128D01*
X141642772Y-154706688D01*
X141742208Y-154906380D01*
X141876644Y-155084403D01*
X142041500Y-155234689D01*
X142195681Y-155330153D01*
X142231166Y-155352124D01*
X142439181Y-155432710D01*
X142658461Y-155473700D01*
X142881537Y-155473700D01*
X142881539Y-155473700D01*
X143100819Y-155432710D01*
X143308834Y-155352124D01*
X143498499Y-155234689D01*
X143498498Y-155234689D01*
X143663355Y-155084403D01*
X143685933Y-155054505D01*
X143797791Y-154906381D01*
X143897226Y-154706690D01*
X143958274Y-154492127D01*
X143978857Y-154270000D01*
X143958274Y-154047873D01*
X143905784Y-153863387D01*
X143897227Y-153833311D01*
X143797791Y-153633619D01*
X143663355Y-153455596D01*
X143517425Y-153322563D01*
X165036300Y-153322563D01*
X165051730Y-153449643D01*
X165074712Y-153510240D01*
X165112328Y-153609426D01*
X165129027Y-153633619D01*
X165209405Y-153750066D01*
X165337317Y-153863387D01*
X165488632Y-153942803D01*
X165654555Y-153983700D01*
X165825444Y-153983700D01*
X165825445Y-153983700D01*
X165991368Y-153942803D01*
X166142683Y-153863387D01*
X166270595Y-153750066D01*
X166367671Y-153609427D01*
X166428270Y-153449643D01*
X166443700Y-153322563D01*
X166443700Y-153298367D01*
X166694500Y-153298367D01*
X166733022Y-153429562D01*
X166806943Y-153544587D01*
X166910282Y-153634130D01*
X167034657Y-153690931D01*
X167135989Y-153705500D01*
X167204011Y-153705500D01*
X167305342Y-153690931D01*
X167352549Y-153669372D01*
X167429718Y-153634130D01*
X167533055Y-153544589D01*
X167606978Y-153429561D01*
X167645500Y-153298367D01*
X172474500Y-153298367D01*
X172513022Y-153429562D01*
X172586943Y-153544587D01*
X172690282Y-153634130D01*
X172814657Y-153690931D01*
X172915989Y-153705500D01*
X172984011Y-153705500D01*
X173085342Y-153690931D01*
X173132549Y-153669372D01*
X173209718Y-153634130D01*
X173313055Y-153544589D01*
X173386978Y-153429561D01*
X173418395Y-153322563D01*
X173676300Y-153322563D01*
X173691730Y-153449643D01*
X173714712Y-153510240D01*
X173752328Y-153609426D01*
X173769027Y-153633619D01*
X173849405Y-153750066D01*
X173977317Y-153863387D01*
X174128632Y-153942803D01*
X174294555Y-153983700D01*
X174465444Y-153983700D01*
X174465445Y-153983700D01*
X174631368Y-153942803D01*
X174782683Y-153863387D01*
X174910595Y-153750066D01*
X175007671Y-153609427D01*
X175068270Y-153449643D01*
X175083700Y-153322563D01*
X175083700Y-152137437D01*
X175068270Y-152010357D01*
X175007671Y-151850573D01*
X174910595Y-151709934D01*
X174782683Y-151596613D01*
X174631368Y-151517197D01*
X174465445Y-151476300D01*
X174294555Y-151476300D01*
X174128632Y-151517197D01*
X174128630Y-151517197D01*
X174128630Y-151517198D01*
X173977317Y-151596613D01*
X173849404Y-151709934D01*
X173752328Y-151850573D01*
X173691730Y-152010356D01*
X173691730Y-152010357D01*
X173676300Y-152137437D01*
X173676300Y-153322563D01*
X173418395Y-153322563D01*
X173425500Y-153298367D01*
X173425500Y-153161633D01*
X173386978Y-153030439D01*
X173386977Y-153030437D01*
X173313056Y-152915412D01*
X173209717Y-152825869D01*
X173085342Y-152769068D01*
X172984011Y-152754500D01*
X172915989Y-152754500D01*
X172814657Y-152769068D01*
X172690282Y-152825869D01*
X172586943Y-152915412D01*
X172513022Y-153030437D01*
X172474500Y-153161633D01*
X172474500Y-153298367D01*
X167645500Y-153298367D01*
X167645500Y-153161633D01*
X167606978Y-153030439D01*
X167606977Y-153030437D01*
X167533056Y-152915412D01*
X167429717Y-152825869D01*
X167305342Y-152769068D01*
X167204011Y-152754500D01*
X167135989Y-152754500D01*
X167034657Y-152769068D01*
X166910282Y-152825869D01*
X166806943Y-152915412D01*
X166733022Y-153030437D01*
X166694500Y-153161633D01*
X166694500Y-153298367D01*
X166443700Y-153298367D01*
X166443700Y-152137437D01*
X166428270Y-152010357D01*
X166367671Y-151850573D01*
X166270595Y-151709934D01*
X166142683Y-151596613D01*
X165991368Y-151517197D01*
X165825445Y-151476300D01*
X165654555Y-151476300D01*
X165488632Y-151517197D01*
X165488630Y-151517197D01*
X165488630Y-151517198D01*
X165337317Y-151596613D01*
X165209404Y-151709934D01*
X165112328Y-151850573D01*
X165051730Y-152010356D01*
X165051730Y-152010357D01*
X165036300Y-152137437D01*
X165036300Y-153322563D01*
X143517425Y-153322563D01*
X143498499Y-153305310D01*
X143308836Y-153187877D01*
X143308834Y-153187876D01*
X143100819Y-153107290D01*
X142881539Y-153066300D01*
X142658461Y-153066300D01*
X142439181Y-153107289D01*
X142439181Y-153107290D01*
X142231163Y-153187877D01*
X142041500Y-153305310D01*
X141876644Y-153455596D01*
X141742208Y-153633619D01*
X141642772Y-153833311D01*
X141581726Y-154047871D01*
X141561143Y-154270000D01*
X129478857Y-154270000D01*
X129458274Y-154047873D01*
X129405784Y-153863387D01*
X129397227Y-153833311D01*
X129297791Y-153633619D01*
X129163355Y-153455596D01*
X128998497Y-153305309D01*
X128987383Y-153298427D01*
X128943464Y-153251752D01*
X128928716Y-153189382D01*
X128947078Y-153127980D01*
X128993646Y-153083947D01*
X129093233Y-153030053D01*
X129140056Y-152993609D01*
X128270000Y-152123553D01*
X127399942Y-152993609D01*
X127399942Y-152993610D01*
X127446767Y-153030055D01*
X127546353Y-153083948D01*
X127592921Y-153127981D01*
X127611283Y-153189384D01*
X127596535Y-153251754D01*
X127552615Y-153298429D01*
X127541500Y-153305311D01*
X127376644Y-153455596D01*
X127242208Y-153633619D01*
X127142772Y-153833311D01*
X127081726Y-154047871D01*
X127061143Y-154270000D01*
X122858709Y-154270000D01*
X122857584Y-151769999D01*
X126764858Y-151769999D01*
X126785386Y-152017732D01*
X126846413Y-152258721D01*
X126946268Y-152486370D01*
X127046563Y-152639882D01*
X127046564Y-152639882D01*
X127916447Y-151770001D01*
X128623553Y-151770001D01*
X129493434Y-152639882D01*
X129593730Y-152486369D01*
X129693586Y-152258721D01*
X129754613Y-152017732D01*
X129775141Y-151770000D01*
X129754613Y-151522267D01*
X129693586Y-151281278D01*
X129593730Y-151053630D01*
X129493434Y-150900116D01*
X128623553Y-151770000D01*
X128623553Y-151770001D01*
X127916447Y-151770001D01*
X127916447Y-151770000D01*
X127046564Y-150900116D01*
X126946266Y-151053634D01*
X126846413Y-151281278D01*
X126785386Y-151522267D01*
X126764858Y-151769999D01*
X122857584Y-151769999D01*
X122856806Y-150039999D01*
X123871120Y-150039999D01*
X123891732Y-150183368D01*
X123951903Y-150315122D01*
X124040059Y-150416860D01*
X124046754Y-150424586D01*
X124168604Y-150502894D01*
X124238091Y-150523297D01*
X124307578Y-150543700D01*
X124307579Y-150543700D01*
X124452421Y-150543700D01*
X124452422Y-150543700D01*
X124498899Y-150530053D01*
X124591396Y-150502894D01*
X124713246Y-150424586D01*
X124808097Y-150315121D01*
X124819540Y-150290065D01*
X127066300Y-150290065D01*
X127078118Y-150349478D01*
X127078118Y-150349479D01*
X127078119Y-150349480D01*
X127123140Y-150416860D01*
X127190520Y-150461881D01*
X127220227Y-150467790D01*
X127249935Y-150473700D01*
X127275890Y-150473700D01*
X127323343Y-150483139D01*
X127363571Y-150510019D01*
X128270000Y-151416447D01*
X128270001Y-151416447D01*
X129176428Y-150510019D01*
X129200985Y-150493610D01*
X141899942Y-150493610D01*
X141946766Y-150530055D01*
X142165393Y-150648368D01*
X142400506Y-150729083D01*
X142645707Y-150770000D01*
X142894293Y-150770000D01*
X143139493Y-150729083D01*
X143374606Y-150648368D01*
X143593233Y-150530053D01*
X143640056Y-150493609D01*
X142770000Y-149623553D01*
X141899942Y-150493609D01*
X141899942Y-150493610D01*
X129200985Y-150493610D01*
X129216656Y-150483139D01*
X129264109Y-150473700D01*
X129290065Y-150473700D01*
X129309869Y-150469760D01*
X129349480Y-150461881D01*
X129416860Y-150416860D01*
X129461881Y-150349480D01*
X129473700Y-150290064D01*
X129473700Y-149270000D01*
X141264858Y-149270000D01*
X141285386Y-149517732D01*
X141346413Y-149758721D01*
X141446268Y-149986370D01*
X141546563Y-150139882D01*
X141546564Y-150139882D01*
X142416447Y-149270001D01*
X143123553Y-149270001D01*
X143993434Y-150139882D01*
X144093730Y-149986369D01*
X144193586Y-149758721D01*
X144254613Y-149517732D01*
X144275141Y-149270000D01*
X144271826Y-149230000D01*
X189201120Y-149230000D01*
X189221732Y-149373368D01*
X189281903Y-149505122D01*
X189376752Y-149614584D01*
X189376754Y-149614586D01*
X189498604Y-149692894D01*
X189568091Y-149713297D01*
X189637578Y-149733700D01*
X189637579Y-149733700D01*
X189782421Y-149733700D01*
X189782422Y-149733700D01*
X189828745Y-149720098D01*
X189921396Y-149692894D01*
X190043246Y-149614586D01*
X190138097Y-149505121D01*
X190198267Y-149373368D01*
X190218880Y-149230000D01*
X190198267Y-149086632D01*
X190138097Y-148954879D01*
X190138096Y-148954878D01*
X190138096Y-148954877D01*
X190077638Y-148885104D01*
X201969329Y-148885104D01*
X201970400Y-148901229D01*
X201970400Y-150388400D01*
X202186706Y-150388400D01*
X202234540Y-150397998D01*
X202237208Y-150399800D01*
X202249999Y-150399999D01*
X202250000Y-150400000D01*
X205460000Y-150450000D01*
X205010000Y-146700000D01*
X204800000Y-146420000D01*
X204748000Y-146420000D01*
X204708788Y-146413637D01*
X204673600Y-146395200D01*
X204639999Y-146369999D01*
X202450001Y-145779999D01*
X202240000Y-145909999D01*
X202239999Y-145909999D01*
X202244493Y-147927324D01*
X202227972Y-147989440D01*
X202182573Y-148034941D01*
X202120493Y-148051600D01*
X201970400Y-148051600D01*
X201970400Y-148874999D01*
X201969329Y-148885104D01*
X190077638Y-148885104D01*
X190043247Y-148845415D01*
X190043246Y-148845414D01*
X189921396Y-148767106D01*
X189921395Y-148767105D01*
X189921394Y-148767105D01*
X189782422Y-148726300D01*
X189782421Y-148726300D01*
X189637579Y-148726300D01*
X189637578Y-148726300D01*
X189498605Y-148767105D01*
X189376752Y-148845415D01*
X189281903Y-148954877D01*
X189221732Y-149086631D01*
X189201120Y-149230000D01*
X144271826Y-149230000D01*
X144254613Y-149022267D01*
X144193586Y-148781278D01*
X144093730Y-148553630D01*
X143993434Y-148400116D01*
X143123553Y-149270000D01*
X143123553Y-149270001D01*
X142416447Y-149270001D01*
X142416447Y-149270000D01*
X141546564Y-148400116D01*
X141446266Y-148553634D01*
X141346413Y-148781278D01*
X141285386Y-149022267D01*
X141264858Y-149270000D01*
X129473700Y-149270000D01*
X129473700Y-148249936D01*
X129461881Y-148190520D01*
X129416860Y-148123140D01*
X129349480Y-148078119D01*
X129349479Y-148078118D01*
X129349478Y-148078118D01*
X129290065Y-148066300D01*
X129290064Y-148066300D01*
X127249936Y-148066300D01*
X127249935Y-148066300D01*
X127190521Y-148078118D01*
X127123140Y-148123140D01*
X127078118Y-148190521D01*
X127066300Y-148249935D01*
X127066300Y-150290065D01*
X124819540Y-150290065D01*
X124868267Y-150183368D01*
X124888880Y-150040000D01*
X124868267Y-149896632D01*
X124808097Y-149764879D01*
X124808096Y-149764878D01*
X124808096Y-149764877D01*
X124713247Y-149655415D01*
X124713246Y-149655414D01*
X124591396Y-149577106D01*
X124591395Y-149577105D01*
X124591394Y-149577105D01*
X124452422Y-149536300D01*
X124452421Y-149536300D01*
X124307579Y-149536300D01*
X124307578Y-149536300D01*
X124168605Y-149577105D01*
X124046752Y-149655415D01*
X123951903Y-149764877D01*
X123891732Y-149896631D01*
X123871120Y-150039999D01*
X122856806Y-150039999D01*
X122855909Y-148046390D01*
X141899942Y-148046390D01*
X142770000Y-148916447D01*
X142770001Y-148916447D01*
X143640057Y-148046390D01*
X143640056Y-148046388D01*
X143593235Y-148009947D01*
X143374606Y-147891631D01*
X143139493Y-147810916D01*
X142894293Y-147770000D01*
X142645707Y-147770000D01*
X142400506Y-147810916D01*
X142165393Y-147891631D01*
X141946764Y-148009946D01*
X141899942Y-148046388D01*
X141899942Y-148046390D01*
X122855909Y-148046390D01*
X122855065Y-146170000D01*
X133961241Y-146170000D01*
X133981443Y-146439578D01*
X134041600Y-146703143D01*
X134140364Y-146954789D01*
X134140365Y-146954791D01*
X134275534Y-147188910D01*
X134444087Y-147400268D01*
X134642258Y-147584144D01*
X134865621Y-147736430D01*
X135109186Y-147853725D01*
X135367513Y-147933409D01*
X135634831Y-147973700D01*
X135905169Y-147973700D01*
X136172487Y-147933409D01*
X136430814Y-147853725D01*
X136674379Y-147736430D01*
X136897742Y-147584144D01*
X137095913Y-147400268D01*
X137264466Y-147188910D01*
X137399635Y-146954791D01*
X137498400Y-146703141D01*
X137558556Y-146439581D01*
X137578758Y-146170000D01*
X137560023Y-145920000D01*
X162786305Y-145920000D01*
X162806195Y-146071071D01*
X162864505Y-146211846D01*
X162957265Y-146332734D01*
X163062701Y-146413637D01*
X163078153Y-146425494D01*
X163218929Y-146483805D01*
X163370000Y-146503694D01*
X163521071Y-146483805D01*
X163661847Y-146425494D01*
X163782734Y-146332734D01*
X163875494Y-146211847D01*
X163933805Y-146071071D01*
X163953694Y-145920000D01*
X163933805Y-145768929D01*
X163875494Y-145628153D01*
X163875493Y-145628152D01*
X163782734Y-145507265D01*
X163661846Y-145414505D01*
X163521071Y-145356195D01*
X163370000Y-145336305D01*
X163218928Y-145356195D01*
X163078153Y-145414505D01*
X162957265Y-145507265D01*
X162864505Y-145628153D01*
X162806195Y-145768928D01*
X162786305Y-145920000D01*
X137560023Y-145920000D01*
X137558556Y-145900419D01*
X137498400Y-145636859D01*
X137399635Y-145385209D01*
X137264466Y-145151090D01*
X137095913Y-144939732D01*
X136897742Y-144755856D01*
X136674379Y-144603570D01*
X136430814Y-144486275D01*
X136430813Y-144486274D01*
X136172486Y-144406590D01*
X135905169Y-144366300D01*
X135634831Y-144366300D01*
X135367513Y-144406590D01*
X135109185Y-144486275D01*
X134865620Y-144603570D01*
X134642258Y-144755855D01*
X134444087Y-144939731D01*
X134275533Y-145151090D01*
X134140364Y-145385210D01*
X134041600Y-145636856D01*
X133981443Y-145900421D01*
X133961241Y-146170000D01*
X122855065Y-146170000D01*
X122854183Y-144208400D01*
X202090400Y-144208400D01*
X204427200Y-144208400D01*
X204438922Y-144208400D01*
X204445300Y-144204174D01*
X204493790Y-144195115D01*
X205467634Y-144210284D01*
X205017634Y-140460284D01*
X204807634Y-140180284D01*
X204755634Y-140180284D01*
X204716422Y-140173921D01*
X204681234Y-140155484D01*
X204647633Y-140130283D01*
X202457635Y-139540283D01*
X202247634Y-139670283D01*
X202247633Y-139670283D01*
X202252260Y-141747324D01*
X202235739Y-141809440D01*
X202190340Y-141854941D01*
X202128260Y-141871600D01*
X202090400Y-141871600D01*
X202090400Y-144208400D01*
X122854183Y-144208400D01*
X122853162Y-141940000D01*
X198501120Y-141940000D01*
X198521732Y-142083368D01*
X198581903Y-142215122D01*
X198676752Y-142324584D01*
X198676754Y-142324586D01*
X198798604Y-142402894D01*
X198868091Y-142423296D01*
X198937578Y-142443700D01*
X198937579Y-142443700D01*
X199082421Y-142443700D01*
X199082422Y-142443700D01*
X199128746Y-142430097D01*
X199221396Y-142402894D01*
X199343246Y-142324586D01*
X199438097Y-142215121D01*
X199498267Y-142083368D01*
X199518880Y-141940000D01*
X199500858Y-141814652D01*
X199498267Y-141796631D01*
X199438096Y-141664877D01*
X199343247Y-141555415D01*
X199343246Y-141555414D01*
X199221396Y-141477106D01*
X199221395Y-141477105D01*
X199221394Y-141477105D01*
X199082422Y-141436300D01*
X199082421Y-141436300D01*
X198937579Y-141436300D01*
X198937578Y-141436300D01*
X198798605Y-141477105D01*
X198676752Y-141555415D01*
X198581903Y-141664877D01*
X198521732Y-141796631D01*
X198501120Y-141940000D01*
X122853162Y-141940000D01*
X122851739Y-138778833D01*
X126395623Y-138778833D01*
X126405943Y-138942858D01*
X126405944Y-138942860D01*
X126456732Y-139099171D01*
X126490922Y-139153045D01*
X126544797Y-139237940D01*
X126608716Y-139297963D01*
X126664607Y-139350448D01*
X126808632Y-139429627D01*
X126808634Y-139429628D01*
X126967821Y-139470500D01*
X126967823Y-139470500D01*
X127090925Y-139470500D01*
X127090927Y-139470500D01*
X127213059Y-139455071D01*
X127289464Y-139424819D01*
X127365871Y-139394568D01*
X127498837Y-139297963D01*
X127603600Y-139171326D01*
X127673579Y-139022613D01*
X127704376Y-138861170D01*
X127694056Y-138697140D01*
X127643268Y-138540829D01*
X127589392Y-138455934D01*
X127555202Y-138402059D01*
X127435393Y-138289552D01*
X127291365Y-138210371D01*
X127132179Y-138169500D01*
X127132177Y-138169500D01*
X127009075Y-138169500D01*
X127009073Y-138169500D01*
X126886940Y-138184928D01*
X126734129Y-138245431D01*
X126601165Y-138342034D01*
X126496399Y-138468675D01*
X126462446Y-138540829D01*
X126426421Y-138617387D01*
X126411207Y-138697140D01*
X126395623Y-138778833D01*
X122851739Y-138778833D01*
X122851141Y-137449999D01*
X178186305Y-137449999D01*
X178206195Y-137601071D01*
X178264505Y-137741846D01*
X178357265Y-137862734D01*
X178478153Y-137955494D01*
X178618929Y-138013805D01*
X178750109Y-138031075D01*
X178769999Y-138033694D01*
X178769999Y-138033693D01*
X178770000Y-138033694D01*
X178921071Y-138013805D01*
X179061847Y-137955494D01*
X179182734Y-137862734D01*
X179275494Y-137741847D01*
X179333805Y-137601071D01*
X179353694Y-137450000D01*
X179333946Y-137299999D01*
X182896305Y-137299999D01*
X182916195Y-137451071D01*
X182974505Y-137591846D01*
X183067265Y-137712734D01*
X183165335Y-137787985D01*
X183188153Y-137805494D01*
X183328929Y-137863805D01*
X183480000Y-137883694D01*
X183631071Y-137863805D01*
X183771847Y-137805494D01*
X183892734Y-137712734D01*
X183985494Y-137591847D01*
X184043805Y-137451071D01*
X184063694Y-137300000D01*
X184061982Y-137286999D01*
X191186305Y-137286999D01*
X191206195Y-137438071D01*
X191264505Y-137578846D01*
X191357265Y-137699734D01*
X191472277Y-137787985D01*
X191478153Y-137792494D01*
X191618929Y-137850805D01*
X191770000Y-137870694D01*
X191921071Y-137850805D01*
X192061847Y-137792494D01*
X192182734Y-137699734D01*
X192275494Y-137578847D01*
X192333805Y-137438071D01*
X192353694Y-137287000D01*
X192333805Y-137135929D01*
X192275494Y-136995153D01*
X192244366Y-136954586D01*
X192182734Y-136874265D01*
X192061846Y-136781505D01*
X191921071Y-136723195D01*
X191770000Y-136703305D01*
X191618928Y-136723195D01*
X191478153Y-136781505D01*
X191357265Y-136874265D01*
X191264505Y-136995153D01*
X191206195Y-137135928D01*
X191186305Y-137286999D01*
X184061982Y-137286999D01*
X184043805Y-137148929D01*
X183985494Y-137008153D01*
X183936656Y-136944506D01*
X183892734Y-136887265D01*
X183771846Y-136794505D01*
X183631071Y-136736195D01*
X183480000Y-136716305D01*
X183328928Y-136736195D01*
X183188153Y-136794505D01*
X183067265Y-136887265D01*
X182974505Y-137008153D01*
X182916195Y-137148928D01*
X182896305Y-137299999D01*
X179333946Y-137299999D01*
X179333805Y-137298929D01*
X179275494Y-137158153D01*
X179258440Y-137135928D01*
X179182734Y-137037265D01*
X179061846Y-136944505D01*
X178921071Y-136886195D01*
X178770000Y-136866305D01*
X178618928Y-136886195D01*
X178478153Y-136944505D01*
X178357265Y-137037265D01*
X178264505Y-137158153D01*
X178206195Y-137298928D01*
X178186305Y-137449999D01*
X122851141Y-137449999D01*
X122850800Y-136690799D01*
X180592905Y-136690799D01*
X180612795Y-136841871D01*
X180671105Y-136982646D01*
X180763865Y-137103534D01*
X180884752Y-137196293D01*
X180884753Y-137196294D01*
X181025529Y-137254605D01*
X181176600Y-137274494D01*
X181327671Y-137254605D01*
X181468447Y-137196294D01*
X181589334Y-137103534D01*
X181682094Y-136982647D01*
X181740405Y-136841871D01*
X181760294Y-136690800D01*
X181744390Y-136570000D01*
X198921120Y-136570000D01*
X198941732Y-136713368D01*
X199001903Y-136845122D01*
X199096752Y-136954584D01*
X199096754Y-136954586D01*
X199218604Y-137032894D01*
X199288091Y-137053296D01*
X199357578Y-137073700D01*
X199357579Y-137073700D01*
X199502421Y-137073700D01*
X199502422Y-137073700D01*
X199548745Y-137060098D01*
X199641396Y-137032894D01*
X199763246Y-136954586D01*
X199858097Y-136845121D01*
X199918267Y-136713368D01*
X199938880Y-136570000D01*
X199918267Y-136426632D01*
X199905626Y-136398953D01*
X199858096Y-136294877D01*
X199763247Y-136185415D01*
X199763246Y-136185414D01*
X199641396Y-136107106D01*
X199641395Y-136107105D01*
X199641394Y-136107105D01*
X199502422Y-136066300D01*
X199502421Y-136066300D01*
X199357579Y-136066300D01*
X199357578Y-136066300D01*
X199218605Y-136107105D01*
X199096752Y-136185415D01*
X199001903Y-136294877D01*
X198941732Y-136426631D01*
X198921120Y-136570000D01*
X181744390Y-136570000D01*
X181740405Y-136539729D01*
X181682094Y-136398953D01*
X181648747Y-136355494D01*
X181589334Y-136278065D01*
X181468446Y-136185305D01*
X181327671Y-136126995D01*
X181176599Y-136107105D01*
X181025528Y-136126995D01*
X180884753Y-136185305D01*
X180763865Y-136278065D01*
X180671105Y-136398953D01*
X180612795Y-136539728D01*
X180592905Y-136690799D01*
X122850800Y-136690799D01*
X122850255Y-135480000D01*
X140456305Y-135480000D01*
X140476195Y-135631071D01*
X140534505Y-135771846D01*
X140627265Y-135892734D01*
X140652238Y-135911896D01*
X140748153Y-135985494D01*
X140888929Y-136043805D01*
X141020109Y-136061075D01*
X141039999Y-136063694D01*
X141039999Y-136063693D01*
X141040000Y-136063694D01*
X141191071Y-136043805D01*
X141331847Y-135985494D01*
X141452734Y-135892734D01*
X141485526Y-135849999D01*
X178076305Y-135849999D01*
X178096195Y-136001071D01*
X178154505Y-136141846D01*
X178247265Y-136262734D01*
X178368152Y-136355493D01*
X178368153Y-136355494D01*
X178508929Y-136413805D01*
X178660000Y-136433694D01*
X178811071Y-136413805D01*
X178951847Y-136355494D01*
X179072734Y-136262734D01*
X179165494Y-136141847D01*
X179223805Y-136001071D01*
X179243694Y-135850000D01*
X179225263Y-135710000D01*
X182716305Y-135710000D01*
X182736195Y-135861071D01*
X182794505Y-136001846D01*
X182887265Y-136122734D01*
X182968810Y-136185305D01*
X183008153Y-136215494D01*
X183148929Y-136273805D01*
X183300000Y-136293694D01*
X183451071Y-136273805D01*
X183591847Y-136215494D01*
X183712734Y-136122734D01*
X183805494Y-136001847D01*
X183863805Y-135861071D01*
X183883694Y-135710000D01*
X183863805Y-135558929D01*
X183805494Y-135418153D01*
X183767543Y-135368694D01*
X183712734Y-135297265D01*
X183591846Y-135204505D01*
X183451071Y-135146195D01*
X183300000Y-135126305D01*
X183148928Y-135146195D01*
X183008153Y-135204505D01*
X182887265Y-135297265D01*
X182794505Y-135418153D01*
X182736195Y-135558928D01*
X182716305Y-135710000D01*
X179225263Y-135710000D01*
X179223805Y-135698929D01*
X179165494Y-135558153D01*
X179105525Y-135480000D01*
X179072734Y-135437265D01*
X178951846Y-135344505D01*
X178811071Y-135286195D01*
X178660000Y-135266305D01*
X178508928Y-135286195D01*
X178368153Y-135344505D01*
X178247265Y-135437265D01*
X178154505Y-135558153D01*
X178096195Y-135698928D01*
X178076305Y-135849999D01*
X141485526Y-135849999D01*
X141545494Y-135771847D01*
X141603805Y-135631071D01*
X141623694Y-135480000D01*
X141603805Y-135328929D01*
X141545494Y-135188153D01*
X141519773Y-135154633D01*
X141452734Y-135067265D01*
X141331846Y-134974505D01*
X141191071Y-134916195D01*
X141040000Y-134896305D01*
X140888928Y-134916195D01*
X140748153Y-134974505D01*
X140627265Y-135067265D01*
X140534505Y-135188153D01*
X140476195Y-135328928D01*
X140456305Y-135480000D01*
X122850255Y-135480000D01*
X122849738Y-134329999D01*
X166096305Y-134329999D01*
X166116195Y-134481071D01*
X166174505Y-134621846D01*
X166267265Y-134742734D01*
X166324772Y-134786860D01*
X166388153Y-134835494D01*
X166528929Y-134893805D01*
X166680000Y-134913694D01*
X166831071Y-134893805D01*
X166971847Y-134835494D01*
X167037653Y-134784999D01*
X190716305Y-134784999D01*
X190736195Y-134936071D01*
X190794505Y-135076846D01*
X190887265Y-135197734D01*
X191002550Y-135286195D01*
X191008153Y-135290494D01*
X191148929Y-135348805D01*
X191300000Y-135368694D01*
X191451071Y-135348805D01*
X191591847Y-135290494D01*
X191712734Y-135197734D01*
X191805494Y-135076847D01*
X191863805Y-134936071D01*
X191883694Y-134785000D01*
X191863805Y-134633929D01*
X191805494Y-134493153D01*
X191715565Y-134375955D01*
X191712734Y-134372265D01*
X191591846Y-134279505D01*
X191451071Y-134221195D01*
X191300000Y-134201305D01*
X191148928Y-134221195D01*
X191008153Y-134279505D01*
X190887265Y-134372265D01*
X190794505Y-134493153D01*
X190736195Y-134633928D01*
X190716305Y-134784999D01*
X167037653Y-134784999D01*
X167092734Y-134742734D01*
X167185494Y-134621847D01*
X167243805Y-134481071D01*
X167263694Y-134330000D01*
X167243805Y-134178929D01*
X167185494Y-134038153D01*
X167104835Y-133933036D01*
X167092734Y-133917265D01*
X166971846Y-133824505D01*
X166831071Y-133766195D01*
X166679999Y-133746305D01*
X166528928Y-133766195D01*
X166388153Y-133824505D01*
X166267265Y-133917265D01*
X166174505Y-134038153D01*
X166116195Y-134178928D01*
X166096305Y-134329999D01*
X122849738Y-134329999D01*
X122849414Y-133609999D01*
X171956305Y-133609999D01*
X171976195Y-133761071D01*
X172034505Y-133901846D01*
X172127265Y-134022734D01*
X172207250Y-134084108D01*
X172248153Y-134115494D01*
X172388929Y-134173805D01*
X172540000Y-134193694D01*
X172691071Y-134173805D01*
X172831847Y-134115494D01*
X172872750Y-134084108D01*
X173732206Y-134084108D01*
X173752096Y-134235179D01*
X173810406Y-134375954D01*
X173903166Y-134496842D01*
X174024053Y-134589601D01*
X174024054Y-134589602D01*
X174164830Y-134647913D01*
X174315901Y-134667802D01*
X174466972Y-134647913D01*
X174607748Y-134589602D01*
X174728635Y-134496842D01*
X174821395Y-134375955D01*
X174879706Y-134235179D01*
X174899595Y-134084108D01*
X174879706Y-133933037D01*
X174821395Y-133792261D01*
X174793175Y-133755484D01*
X174728635Y-133671373D01*
X174607747Y-133578613D01*
X174466972Y-133520303D01*
X174315901Y-133500413D01*
X174164829Y-133520303D01*
X174024054Y-133578613D01*
X173903166Y-133671373D01*
X173810406Y-133792261D01*
X173752096Y-133933036D01*
X173732206Y-134084108D01*
X172872750Y-134084108D01*
X172952734Y-134022734D01*
X173045494Y-133901847D01*
X173103805Y-133761071D01*
X173123694Y-133610000D01*
X173103805Y-133458929D01*
X173045494Y-133318153D01*
X173008762Y-133270283D01*
X202267633Y-133270283D01*
X202277634Y-137760284D01*
X202284957Y-137767706D01*
X202288241Y-137768400D01*
X202305600Y-137768400D01*
X202797713Y-137768400D01*
X202799644Y-137768415D01*
X203026382Y-137771946D01*
X203076411Y-137783343D01*
X203340000Y-137905000D01*
X203665000Y-137880000D01*
X204041103Y-137791504D01*
X204071428Y-137788224D01*
X205487634Y-137810284D01*
X205187767Y-135311395D01*
X213462921Y-135311395D01*
X213483560Y-135468158D01*
X213544067Y-135614236D01*
X213640321Y-135739678D01*
X213765762Y-135835931D01*
X213765763Y-135835932D01*
X213911842Y-135896440D01*
X214013786Y-135909861D01*
X214029242Y-135911896D01*
X214029243Y-135911896D01*
X214107965Y-135911896D01*
X214107966Y-135911896D01*
X214121623Y-135910097D01*
X214225366Y-135896440D01*
X214371445Y-135835932D01*
X214496886Y-135739678D01*
X214593140Y-135614237D01*
X214653648Y-135468158D01*
X214674286Y-135311396D01*
X214653648Y-135154634D01*
X214593140Y-135008555D01*
X214593139Y-135008554D01*
X214496886Y-134883113D01*
X214371444Y-134786859D01*
X214225366Y-134726352D01*
X214107966Y-134710896D01*
X214107965Y-134710896D01*
X214029243Y-134710896D01*
X214029242Y-134710896D01*
X213911841Y-134726352D01*
X213765763Y-134786859D01*
X213640321Y-134883113D01*
X213544067Y-135008555D01*
X213483560Y-135154633D01*
X213462921Y-135311395D01*
X205187767Y-135311395D01*
X205037634Y-134060284D01*
X204827634Y-133780284D01*
X204775634Y-133780284D01*
X204736422Y-133773921D01*
X204701234Y-133755484D01*
X204667633Y-133730283D01*
X202477635Y-133140283D01*
X202267634Y-133270283D01*
X202267633Y-133270283D01*
X173008762Y-133270283D01*
X172952734Y-133197265D01*
X172831846Y-133104505D01*
X172691071Y-133046195D01*
X172539999Y-133026305D01*
X172388928Y-133046195D01*
X172248153Y-133104505D01*
X172127265Y-133197265D01*
X172034505Y-133318153D01*
X171976195Y-133458928D01*
X171956305Y-133609999D01*
X122849414Y-133609999D01*
X122848830Y-132311396D01*
X213462921Y-132311396D01*
X213483560Y-132468158D01*
X213544067Y-132614236D01*
X213640321Y-132739678D01*
X213765763Y-132835932D01*
X213911842Y-132896440D01*
X214013786Y-132909861D01*
X214029242Y-132911896D01*
X214029243Y-132911896D01*
X214107965Y-132911896D01*
X214107966Y-132911896D01*
X214121623Y-132910097D01*
X214225366Y-132896440D01*
X214371445Y-132835932D01*
X214496886Y-132739678D01*
X214593140Y-132614237D01*
X214653648Y-132468158D01*
X214674286Y-132311396D01*
X214653648Y-132154634D01*
X214593140Y-132008555D01*
X214544752Y-131945494D01*
X214496886Y-131883113D01*
X214371444Y-131786859D01*
X214225366Y-131726352D01*
X214107966Y-131710896D01*
X214107965Y-131710896D01*
X214029243Y-131710896D01*
X214029242Y-131710896D01*
X213911841Y-131726352D01*
X213765763Y-131786859D01*
X213640321Y-131883113D01*
X213544067Y-132008555D01*
X213483560Y-132154633D01*
X213462921Y-132311396D01*
X122848830Y-132311396D01*
X122848140Y-130778833D01*
X126395623Y-130778833D01*
X126405943Y-130942858D01*
X126405944Y-130942860D01*
X126456732Y-131099171D01*
X126469827Y-131119805D01*
X126544797Y-131237940D01*
X126608716Y-131297963D01*
X126664607Y-131350448D01*
X126808632Y-131429627D01*
X126808634Y-131429628D01*
X126967821Y-131470500D01*
X126967823Y-131470500D01*
X127090925Y-131470500D01*
X127090927Y-131470500D01*
X127213059Y-131455071D01*
X127251123Y-131440000D01*
X196826305Y-131440000D01*
X196846195Y-131591071D01*
X196904505Y-131731846D01*
X196997265Y-131852734D01*
X197118153Y-131945494D01*
X197258929Y-132003805D01*
X197410000Y-132023694D01*
X197561071Y-132003805D01*
X197701847Y-131945494D01*
X197822734Y-131852734D01*
X197915494Y-131731847D01*
X197973805Y-131591071D01*
X197993694Y-131440000D01*
X197973805Y-131288929D01*
X197915494Y-131148153D01*
X197877908Y-131099170D01*
X197822734Y-131027265D01*
X197701846Y-130934505D01*
X197561071Y-130876195D01*
X197410000Y-130856305D01*
X197258928Y-130876195D01*
X197118153Y-130934505D01*
X196997265Y-131027265D01*
X196904505Y-131148153D01*
X196846195Y-131288928D01*
X196826305Y-131440000D01*
X127251123Y-131440000D01*
X127289464Y-131424819D01*
X127365871Y-131394568D01*
X127498837Y-131297963D01*
X127603600Y-131171326D01*
X127673579Y-131022613D01*
X127704376Y-130861170D01*
X127694056Y-130697140D01*
X127643268Y-130540829D01*
X127557023Y-130404929D01*
X127555202Y-130402059D01*
X127435393Y-130289552D01*
X127291365Y-130210371D01*
X127132179Y-130169500D01*
X127132177Y-130169500D01*
X127009075Y-130169500D01*
X127009073Y-130169500D01*
X126886940Y-130184928D01*
X126734129Y-130245431D01*
X126601165Y-130342034D01*
X126496399Y-130468675D01*
X126433424Y-130602503D01*
X126426421Y-130617387D01*
X126411207Y-130697140D01*
X126395623Y-130778833D01*
X122848140Y-130778833D01*
X122847697Y-129794000D01*
X206172305Y-129794000D01*
X206192195Y-129945071D01*
X206250505Y-130085846D01*
X206343265Y-130206734D01*
X206393698Y-130245432D01*
X206464153Y-130299494D01*
X206604929Y-130357805D01*
X206604930Y-130357805D01*
X206613245Y-130361249D01*
X206657215Y-130392036D01*
X206684054Y-130438522D01*
X206688732Y-130491995D01*
X206680305Y-130555999D01*
X206700195Y-130707071D01*
X206758505Y-130847846D01*
X206851265Y-130968734D01*
X206927545Y-131027265D01*
X206972153Y-131061494D01*
X207112929Y-131119805D01*
X207264000Y-131139694D01*
X207415071Y-131119805D01*
X207555847Y-131061494D01*
X207676734Y-130968734D01*
X207769494Y-130847847D01*
X207827805Y-130707071D01*
X207847694Y-130556000D01*
X207841849Y-130511606D01*
X207847368Y-130455566D01*
X207877105Y-130407745D01*
X209197592Y-129087258D01*
X209237817Y-129060381D01*
X209285270Y-129050942D01*
X209332719Y-129060380D01*
X209398929Y-129087805D01*
X209550000Y-129107694D01*
X209701071Y-129087805D01*
X209841847Y-129029494D01*
X209962734Y-128936734D01*
X210055494Y-128815847D01*
X210113805Y-128675071D01*
X210133694Y-128524000D01*
X210113805Y-128372929D01*
X210071171Y-128270000D01*
X212268305Y-128270000D01*
X212288195Y-128421071D01*
X212346505Y-128561846D01*
X212439265Y-128682734D01*
X212520651Y-128745183D01*
X212560153Y-128775494D01*
X212700929Y-128833805D01*
X212832109Y-128851075D01*
X212851999Y-128853694D01*
X212851999Y-128853693D01*
X212852000Y-128853694D01*
X213003071Y-128833805D01*
X213143847Y-128775494D01*
X213264734Y-128682734D01*
X213357494Y-128561847D01*
X213415805Y-128421071D01*
X213435694Y-128270000D01*
X214808305Y-128270000D01*
X214828195Y-128421071D01*
X214886505Y-128561846D01*
X214979265Y-128682734D01*
X215060651Y-128745183D01*
X215100153Y-128775494D01*
X215240929Y-128833805D01*
X215372109Y-128851075D01*
X215391999Y-128853694D01*
X215391999Y-128853693D01*
X215392000Y-128853694D01*
X215543071Y-128833805D01*
X215683847Y-128775494D01*
X215804734Y-128682734D01*
X215897494Y-128561847D01*
X215955805Y-128421071D01*
X215975694Y-128270000D01*
X215955805Y-128118929D01*
X215897494Y-127978153D01*
X215864241Y-127934817D01*
X215804734Y-127857265D01*
X215683846Y-127764505D01*
X215543071Y-127706195D01*
X215392000Y-127686305D01*
X215240928Y-127706195D01*
X215100153Y-127764505D01*
X214979265Y-127857265D01*
X214886505Y-127978153D01*
X214828195Y-128118928D01*
X214808305Y-128270000D01*
X213435694Y-128270000D01*
X213415805Y-128118929D01*
X213357494Y-127978153D01*
X213324241Y-127934817D01*
X213264734Y-127857265D01*
X213143846Y-127764505D01*
X213003071Y-127706195D01*
X212852000Y-127686305D01*
X212700928Y-127706195D01*
X212560153Y-127764505D01*
X212439265Y-127857265D01*
X212346505Y-127978153D01*
X212288195Y-128118928D01*
X212268305Y-128270000D01*
X210071171Y-128270000D01*
X210055494Y-128232153D01*
X209979749Y-128133440D01*
X209962734Y-128111265D01*
X209841846Y-128018505D01*
X209701071Y-127960195D01*
X209550000Y-127940305D01*
X209398928Y-127960195D01*
X209258153Y-128018505D01*
X209233118Y-128037715D01*
X209181823Y-128060956D01*
X209125538Y-128059112D01*
X209075873Y-128032566D01*
X209043072Y-127986790D01*
X209039494Y-127978153D01*
X208946734Y-127857265D01*
X208825846Y-127764505D01*
X208685071Y-127706195D01*
X208534000Y-127686305D01*
X208382928Y-127706195D01*
X208242153Y-127764505D01*
X208121265Y-127857265D01*
X208028505Y-127978152D01*
X207982444Y-128089354D01*
X207955564Y-128129582D01*
X206904255Y-129180891D01*
X206856433Y-129210629D01*
X206800390Y-129216149D01*
X206756001Y-129210305D01*
X206604928Y-129230195D01*
X206464153Y-129288505D01*
X206343265Y-129381265D01*
X206250505Y-129502153D01*
X206192195Y-129642928D01*
X206172305Y-129794000D01*
X122847697Y-129794000D01*
X122847434Y-129210065D01*
X166986300Y-129210065D01*
X166998118Y-129269478D01*
X166998118Y-129269479D01*
X166998119Y-129269480D01*
X167043140Y-129336860D01*
X167110520Y-129381881D01*
X167140228Y-129387790D01*
X167169935Y-129393700D01*
X167169936Y-129393700D01*
X168910064Y-129393700D01*
X168910065Y-129393700D01*
X168929869Y-129389760D01*
X168969480Y-129381881D01*
X169036860Y-129336860D01*
X169081881Y-129269480D01*
X169093700Y-129210064D01*
X169093700Y-127469936D01*
X169081881Y-127410520D01*
X169036860Y-127343140D01*
X168969480Y-127298119D01*
X168969479Y-127298118D01*
X168969478Y-127298118D01*
X168910065Y-127286300D01*
X168910064Y-127286300D01*
X167169936Y-127286300D01*
X167169935Y-127286300D01*
X167110521Y-127298118D01*
X167043140Y-127343140D01*
X166998118Y-127410521D01*
X166986300Y-127469935D01*
X166986300Y-129210065D01*
X122847434Y-129210065D01*
X122845297Y-124460000D01*
X132465805Y-124460000D01*
X132485695Y-124611071D01*
X132544005Y-124751846D01*
X132636765Y-124872734D01*
X132757653Y-124965494D01*
X132898429Y-125023805D01*
X133049500Y-125043694D01*
X133200571Y-125023805D01*
X133341347Y-124965494D01*
X133462234Y-124872734D01*
X133554994Y-124751847D01*
X133613305Y-124611071D01*
X133633194Y-124460000D01*
X133613305Y-124308929D01*
X133554994Y-124168153D01*
X133554993Y-124168152D01*
X133462234Y-124047265D01*
X133341346Y-123954505D01*
X133200571Y-123896195D01*
X133049499Y-123876305D01*
X132898428Y-123896195D01*
X132757653Y-123954505D01*
X132636765Y-124047265D01*
X132544005Y-124168153D01*
X132485695Y-124308928D01*
X132465805Y-124460000D01*
X122845297Y-124460000D01*
X122844568Y-122839999D01*
X125956305Y-122839999D01*
X125976195Y-122991071D01*
X126034505Y-123131846D01*
X126127265Y-123252734D01*
X126219886Y-123323804D01*
X126248153Y-123345494D01*
X126388929Y-123403805D01*
X126540000Y-123423694D01*
X126691071Y-123403805D01*
X126831847Y-123345494D01*
X126952734Y-123252734D01*
X127045494Y-123131847D01*
X127103805Y-122991071D01*
X127123694Y-122840000D01*
X127113162Y-122760000D01*
X130846305Y-122760000D01*
X130866195Y-122911071D01*
X130924505Y-123051846D01*
X131017265Y-123172734D01*
X131121524Y-123252734D01*
X131138153Y-123265494D01*
X131278929Y-123323805D01*
X131430000Y-123343694D01*
X131581071Y-123323805D01*
X131721847Y-123265494D01*
X131842734Y-123172734D01*
X131935494Y-123051847D01*
X131993805Y-122911071D01*
X132013694Y-122760000D01*
X131993805Y-122608929D01*
X131935494Y-122468153D01*
X131890871Y-122409999D01*
X154596305Y-122409999D01*
X154616195Y-122561071D01*
X154674505Y-122701846D01*
X154767265Y-122822734D01*
X154789767Y-122840000D01*
X154888153Y-122915494D01*
X155028929Y-122973805D01*
X155180000Y-122993694D01*
X155331071Y-122973805D01*
X155471847Y-122915494D01*
X155592734Y-122822734D01*
X155685494Y-122701847D01*
X155743805Y-122561071D01*
X155763694Y-122410000D01*
X155743805Y-122258929D01*
X155685494Y-122118153D01*
X155649367Y-122071071D01*
X155592734Y-121997265D01*
X155471846Y-121904505D01*
X155331071Y-121846195D01*
X155179999Y-121826305D01*
X155028928Y-121846195D01*
X154888153Y-121904505D01*
X154767265Y-121997265D01*
X154674505Y-122118153D01*
X154616195Y-122258928D01*
X154596305Y-122409999D01*
X131890871Y-122409999D01*
X131842734Y-122347265D01*
X131721846Y-122254505D01*
X131581071Y-122196195D01*
X131430000Y-122176305D01*
X131278928Y-122196195D01*
X131138153Y-122254505D01*
X131017265Y-122347265D01*
X130924505Y-122468153D01*
X130866195Y-122608928D01*
X130846305Y-122760000D01*
X127113162Y-122760000D01*
X127103805Y-122688929D01*
X127045494Y-122548153D01*
X126952734Y-122427265D01*
X126831846Y-122334505D01*
X126691071Y-122276195D01*
X126540000Y-122256305D01*
X126388928Y-122276195D01*
X126248153Y-122334505D01*
X126127265Y-122427265D01*
X126034505Y-122548153D01*
X125976195Y-122688928D01*
X125956305Y-122839999D01*
X122844568Y-122839999D01*
X122843803Y-121139418D01*
X153695737Y-121139418D01*
X153715627Y-121290490D01*
X153773937Y-121431265D01*
X153866697Y-121552153D01*
X153917715Y-121591300D01*
X153987585Y-121644913D01*
X154128361Y-121703224D01*
X154279432Y-121723113D01*
X154430503Y-121703224D01*
X154571279Y-121644913D01*
X154692166Y-121552153D01*
X154784926Y-121431266D01*
X154843237Y-121290490D01*
X154863126Y-121139419D01*
X154843237Y-120988348D01*
X154784926Y-120847572D01*
X154692166Y-120726684D01*
X154571278Y-120633924D01*
X154430503Y-120575614D01*
X154279432Y-120555724D01*
X154128360Y-120575614D01*
X153987585Y-120633924D01*
X153866697Y-120726684D01*
X153773937Y-120847572D01*
X153715627Y-120988347D01*
X153695737Y-121139418D01*
X122843803Y-121139418D01*
X122843142Y-119669999D01*
X130576305Y-119669999D01*
X130596195Y-119821071D01*
X130654505Y-119961846D01*
X130747265Y-120082734D01*
X130868153Y-120175494D01*
X131008929Y-120233805D01*
X131160000Y-120253694D01*
X131311071Y-120233805D01*
X131451847Y-120175494D01*
X131572734Y-120082734D01*
X131665494Y-119961847D01*
X131723805Y-119821071D01*
X131743694Y-119670000D01*
X131723805Y-119518929D01*
X131665494Y-119378153D01*
X131599950Y-119292734D01*
X131572734Y-119257265D01*
X131451846Y-119164505D01*
X131311071Y-119106195D01*
X131160000Y-119086305D01*
X131008928Y-119106195D01*
X130868153Y-119164505D01*
X130747265Y-119257265D01*
X130654505Y-119378153D01*
X130596195Y-119518928D01*
X130576305Y-119669999D01*
X122843142Y-119669999D01*
X122842867Y-119059999D01*
X152246305Y-119059999D01*
X152266195Y-119211071D01*
X152324505Y-119351846D01*
X152417265Y-119472734D01*
X152477467Y-119518928D01*
X152538153Y-119565494D01*
X152678929Y-119623805D01*
X152830000Y-119643694D01*
X152981071Y-119623805D01*
X153121847Y-119565494D01*
X153242734Y-119472734D01*
X153335494Y-119351847D01*
X153393805Y-119211071D01*
X153413694Y-119060000D01*
X153393805Y-118908929D01*
X153381822Y-118879999D01*
X155316305Y-118879999D01*
X155336195Y-119031071D01*
X155394505Y-119171846D01*
X155487265Y-119292734D01*
X155564302Y-119351846D01*
X155608153Y-119385494D01*
X155748929Y-119443805D01*
X155900000Y-119463694D01*
X156051071Y-119443805D01*
X156191847Y-119385494D01*
X156312734Y-119292734D01*
X156405494Y-119171847D01*
X156463805Y-119031071D01*
X156483694Y-118880000D01*
X156463805Y-118728929D01*
X156405494Y-118588153D01*
X156379675Y-118554505D01*
X156312734Y-118467265D01*
X156191846Y-118374505D01*
X156051071Y-118316195D01*
X155900000Y-118296305D01*
X155748928Y-118316195D01*
X155608153Y-118374505D01*
X155487265Y-118467265D01*
X155394505Y-118588153D01*
X155336195Y-118728928D01*
X155316305Y-118879999D01*
X153381822Y-118879999D01*
X153335494Y-118768153D01*
X153335493Y-118768152D01*
X153242734Y-118647265D01*
X153121846Y-118554505D01*
X152981071Y-118496195D01*
X152830000Y-118476305D01*
X152678928Y-118496195D01*
X152538153Y-118554505D01*
X152417265Y-118647265D01*
X152324505Y-118768153D01*
X152266195Y-118908928D01*
X152246305Y-119059999D01*
X122842867Y-119059999D01*
X122841829Y-116752398D01*
X131713872Y-116752398D01*
X131733762Y-116903470D01*
X131792072Y-117044245D01*
X131884832Y-117165133D01*
X132005720Y-117257893D01*
X132146496Y-117316204D01*
X132297567Y-117336093D01*
X132448638Y-117316204D01*
X132589414Y-117257893D01*
X132710301Y-117165133D01*
X132803061Y-117044246D01*
X132861372Y-116903470D01*
X132881261Y-116752399D01*
X132861372Y-116601328D01*
X132803061Y-116460552D01*
X132758015Y-116401847D01*
X132710301Y-116339664D01*
X132589413Y-116246904D01*
X132448638Y-116188594D01*
X132297567Y-116168704D01*
X132146495Y-116188594D01*
X132005720Y-116246904D01*
X131884832Y-116339664D01*
X131792072Y-116460552D01*
X131733762Y-116601327D01*
X131713872Y-116752398D01*
X122841829Y-116752398D01*
X122841482Y-115980000D01*
X153886305Y-115980000D01*
X153906195Y-116131071D01*
X153964505Y-116271846D01*
X154057265Y-116392734D01*
X154145648Y-116460552D01*
X154178153Y-116485494D01*
X154318929Y-116543805D01*
X154470000Y-116563694D01*
X154621071Y-116543805D01*
X154761847Y-116485494D01*
X154882734Y-116392734D01*
X154975494Y-116271847D01*
X155033805Y-116131071D01*
X155053694Y-115980000D01*
X155033805Y-115828929D01*
X154975494Y-115688153D01*
X154882734Y-115567265D01*
X154761846Y-115474505D01*
X154621071Y-115416195D01*
X154470000Y-115396305D01*
X154318928Y-115416195D01*
X154178153Y-115474505D01*
X154057265Y-115567265D01*
X153964505Y-115688153D01*
X153906195Y-115828928D01*
X153886305Y-115980000D01*
X122841482Y-115980000D01*
X122837648Y-107458999D01*
X140456305Y-107458999D01*
X140476195Y-107610071D01*
X140534505Y-107750846D01*
X140627265Y-107871734D01*
X140723446Y-107945536D01*
X140748153Y-107964494D01*
X140888929Y-108022805D01*
X141020109Y-108040075D01*
X141039999Y-108042694D01*
X141039999Y-108042693D01*
X141040000Y-108042694D01*
X141145708Y-108028777D01*
X141209345Y-108037155D01*
X141260269Y-108076229D01*
X141284832Y-108135530D01*
X141302861Y-108272472D01*
X141361171Y-108413247D01*
X141453931Y-108534135D01*
X141550394Y-108608153D01*
X141574819Y-108626895D01*
X141715595Y-108685206D01*
X141866666Y-108705095D01*
X141935723Y-108696003D01*
X141991764Y-108701522D01*
X142039588Y-108731260D01*
X142069326Y-108779083D01*
X142074846Y-108835127D01*
X142066305Y-108899998D01*
X142086195Y-109051071D01*
X142144505Y-109191846D01*
X142237265Y-109312734D01*
X142358152Y-109405493D01*
X142358153Y-109405494D01*
X142498929Y-109463805D01*
X142650000Y-109483694D01*
X142653453Y-109483239D01*
X142709494Y-109488758D01*
X142757318Y-109518495D01*
X142787057Y-109566318D01*
X142792577Y-109622363D01*
X142786305Y-109669999D01*
X142806195Y-109821071D01*
X142864505Y-109961846D01*
X142957265Y-110082734D01*
X143078152Y-110175493D01*
X143078153Y-110175494D01*
X143218929Y-110233805D01*
X143370000Y-110253694D01*
X143521071Y-110233805D01*
X143661847Y-110175494D01*
X143782734Y-110082734D01*
X143875494Y-109961847D01*
X143933805Y-109821071D01*
X143953694Y-109670000D01*
X143933805Y-109518929D01*
X143875494Y-109378153D01*
X143875493Y-109378152D01*
X143782734Y-109257265D01*
X143661846Y-109164505D01*
X143521071Y-109106195D01*
X143369999Y-109086305D01*
X143366543Y-109086761D01*
X143310500Y-109081239D01*
X143262678Y-109051501D01*
X143232941Y-109003678D01*
X143227422Y-108947637D01*
X143233694Y-108900000D01*
X143213805Y-108748929D01*
X143155494Y-108608153D01*
X143098698Y-108534135D01*
X143062734Y-108487265D01*
X142941846Y-108394505D01*
X142801071Y-108336195D01*
X142649999Y-108316305D01*
X142580943Y-108325397D01*
X142524899Y-108319877D01*
X142477076Y-108290139D01*
X142447338Y-108242316D01*
X142441819Y-108186274D01*
X142450360Y-108121401D01*
X142430471Y-107970330D01*
X142372160Y-107829554D01*
X142345235Y-107794465D01*
X142279400Y-107708666D01*
X142158512Y-107615906D01*
X142017737Y-107557596D01*
X141866664Y-107537706D01*
X141760957Y-107551623D01*
X141697319Y-107543245D01*
X141646396Y-107504170D01*
X141621833Y-107444871D01*
X141603805Y-107307929D01*
X141545494Y-107167153D01*
X141515766Y-107128411D01*
X141452734Y-107046265D01*
X141331846Y-106953505D01*
X141191071Y-106895195D01*
X141040000Y-106875305D01*
X140888928Y-106895195D01*
X140748153Y-106953505D01*
X140627265Y-107046265D01*
X140534505Y-107167153D01*
X140476195Y-107307928D01*
X140456305Y-107458999D01*
X122837648Y-107458999D01*
X122836974Y-105961402D01*
X141804886Y-105961402D01*
X141824776Y-106112474D01*
X141883086Y-106253249D01*
X141975846Y-106374137D01*
X142096734Y-106466897D01*
X142237510Y-106525208D01*
X142277735Y-106530503D01*
X142328172Y-106548861D01*
X142366127Y-106586815D01*
X142384487Y-106637254D01*
X142389784Y-106677483D01*
X142448094Y-106818257D01*
X142540854Y-106939145D01*
X142661741Y-107031904D01*
X142661742Y-107031905D01*
X142802518Y-107090216D01*
X142932956Y-107107388D01*
X142953193Y-107110053D01*
X143003632Y-107128411D01*
X143041587Y-107166366D01*
X143059946Y-107216806D01*
X143079784Y-107367482D01*
X143138094Y-107508257D01*
X143230854Y-107629145D01*
X143334490Y-107708667D01*
X143351742Y-107721905D01*
X143492518Y-107780216D01*
X143643589Y-107800105D01*
X143688063Y-107794250D01*
X143751700Y-107802628D01*
X143802623Y-107841702D01*
X143827187Y-107901003D01*
X143833050Y-107945536D01*
X143891360Y-108086311D01*
X143984120Y-108207199D01*
X144029886Y-108242316D01*
X144105008Y-108299959D01*
X144245784Y-108358270D01*
X144396855Y-108378159D01*
X144547926Y-108358270D01*
X144688702Y-108299959D01*
X144809589Y-108207199D01*
X144902349Y-108086312D01*
X144960660Y-107945536D01*
X144980549Y-107794465D01*
X144960660Y-107643394D01*
X144902349Y-107502618D01*
X144858037Y-107444869D01*
X144809589Y-107381730D01*
X144688701Y-107288970D01*
X144547926Y-107230660D01*
X144396854Y-107210770D01*
X144352380Y-107216626D01*
X144288742Y-107208248D01*
X144237819Y-107169173D01*
X144213256Y-107109873D01*
X144207394Y-107065340D01*
X144149083Y-106924564D01*
X144056323Y-106803676D01*
X143935435Y-106710916D01*
X143794660Y-106652606D01*
X143643984Y-106632768D01*
X143593544Y-106614409D01*
X143555589Y-106576454D01*
X143537231Y-106526015D01*
X143529448Y-106466897D01*
X143517394Y-106375340D01*
X143459083Y-106234564D01*
X143366323Y-106113676D01*
X143245435Y-106020916D01*
X143104661Y-105962606D01*
X143064432Y-105957309D01*
X143013993Y-105938949D01*
X142976039Y-105900994D01*
X142957681Y-105850555D01*
X142952386Y-105810332D01*
X142894075Y-105669556D01*
X142801315Y-105548668D01*
X142680427Y-105455908D01*
X142539652Y-105397598D01*
X142388581Y-105377708D01*
X142237509Y-105397598D01*
X142096734Y-105455908D01*
X141975846Y-105548668D01*
X141883086Y-105669556D01*
X141824776Y-105810331D01*
X141804886Y-105961402D01*
X122836974Y-105961402D01*
X122835205Y-102030000D01*
X123976805Y-102030000D01*
X123996695Y-102181071D01*
X124055005Y-102321846D01*
X124147765Y-102442734D01*
X124268653Y-102535494D01*
X124409429Y-102593805D01*
X124560500Y-102613694D01*
X124711571Y-102593805D01*
X124852347Y-102535494D01*
X124973234Y-102442734D01*
X125065994Y-102321847D01*
X125124305Y-102181071D01*
X125144194Y-102030000D01*
X125124305Y-101878929D01*
X125065994Y-101738153D01*
X125065993Y-101738152D01*
X124973234Y-101617265D01*
X124852346Y-101524505D01*
X124711571Y-101466195D01*
X124560500Y-101446305D01*
X124409428Y-101466195D01*
X124268653Y-101524505D01*
X124147765Y-101617265D01*
X124055005Y-101738153D01*
X123996695Y-101878928D01*
X123976805Y-102030000D01*
X122835205Y-102030000D01*
X122832249Y-95459999D01*
X162396305Y-95459999D01*
X162416195Y-95611071D01*
X162474505Y-95751846D01*
X162567265Y-95872734D01*
X162688153Y-95965494D01*
X162828929Y-96023805D01*
X162980000Y-96043694D01*
X163131071Y-96023805D01*
X163271847Y-95965494D01*
X163392734Y-95872734D01*
X163485494Y-95751847D01*
X163543805Y-95611071D01*
X163563694Y-95460000D01*
X163543805Y-95308929D01*
X163485494Y-95168153D01*
X163392734Y-95047265D01*
X163271846Y-94954505D01*
X163131071Y-94896195D01*
X162980000Y-94876305D01*
X162828928Y-94896195D01*
X162688153Y-94954505D01*
X162567265Y-95047265D01*
X162474505Y-95168153D01*
X162416195Y-95308928D01*
X162396305Y-95459999D01*
X122832249Y-95459999D01*
X122830247Y-91010000D01*
X133276305Y-91010000D01*
X133296195Y-91161071D01*
X133354505Y-91301846D01*
X133447265Y-91422734D01*
X133501704Y-91464506D01*
X133568153Y-91515494D01*
X133708929Y-91573805D01*
X133860000Y-91593694D01*
X134011071Y-91573805D01*
X134151847Y-91515494D01*
X134272734Y-91422734D01*
X134365494Y-91301847D01*
X134423805Y-91161071D01*
X134443694Y-91010000D01*
X134423805Y-90858929D01*
X134365494Y-90718153D01*
X134362690Y-90714499D01*
X151956305Y-90714499D01*
X151976195Y-90865571D01*
X152034505Y-91006346D01*
X152127265Y-91127234D01*
X152171363Y-91161071D01*
X152248153Y-91219994D01*
X152388929Y-91278305D01*
X152540000Y-91298194D01*
X152691071Y-91278305D01*
X152831847Y-91219994D01*
X152952734Y-91127234D01*
X153045494Y-91006347D01*
X153103805Y-90865571D01*
X153123694Y-90714500D01*
X153103805Y-90563429D01*
X153045494Y-90422653D01*
X153040291Y-90415872D01*
X152952734Y-90301765D01*
X152831846Y-90209005D01*
X152691071Y-90150695D01*
X152540000Y-90130805D01*
X152388928Y-90150695D01*
X152248153Y-90209005D01*
X152127265Y-90301765D01*
X152034505Y-90422653D01*
X151976195Y-90563428D01*
X151956305Y-90714499D01*
X134362690Y-90714499D01*
X134339736Y-90684584D01*
X134272734Y-90597265D01*
X134151846Y-90504505D01*
X134011071Y-90446195D01*
X133860000Y-90426305D01*
X133708928Y-90446195D01*
X133568153Y-90504505D01*
X133447265Y-90597265D01*
X133354505Y-90718153D01*
X133296195Y-90858928D01*
X133276305Y-91010000D01*
X122830247Y-91010000D01*
X122829055Y-88360000D01*
X151816305Y-88360000D01*
X151836195Y-88511071D01*
X151894505Y-88651846D01*
X151987265Y-88772734D01*
X152088614Y-88850501D01*
X152108153Y-88865494D01*
X152248929Y-88923805D01*
X152400000Y-88943694D01*
X152551071Y-88923805D01*
X152691847Y-88865494D01*
X152812734Y-88772734D01*
X152905494Y-88651847D01*
X152963805Y-88511071D01*
X152983694Y-88360000D01*
X152968521Y-88244752D01*
X152973199Y-88191282D01*
X153000038Y-88144795D01*
X153044008Y-88114008D01*
X153045692Y-88113310D01*
X153045695Y-88113310D01*
X153186471Y-88054999D01*
X153307358Y-87962239D01*
X153314813Y-87952522D01*
X153358344Y-87916797D01*
X153413188Y-87904008D01*
X153468032Y-87916795D01*
X153508546Y-87950043D01*
X153551358Y-87982894D01*
X153632153Y-88044890D01*
X153772929Y-88103201D01*
X153924000Y-88123090D01*
X154075071Y-88103201D01*
X154215847Y-88044890D01*
X154336734Y-87952130D01*
X154429494Y-87831243D01*
X154486915Y-87692614D01*
X154525989Y-87641692D01*
X154585290Y-87617128D01*
X154648927Y-87625505D01*
X154715790Y-87653201D01*
X154866861Y-87673090D01*
X155017932Y-87653201D01*
X155158708Y-87594890D01*
X155279595Y-87502130D01*
X155372355Y-87381243D01*
X155430666Y-87240467D01*
X155450555Y-87089396D01*
X155430666Y-86938325D01*
X155372355Y-86797549D01*
X155324732Y-86735485D01*
X155279595Y-86676661D01*
X155158707Y-86583901D01*
X155017932Y-86525591D01*
X154866861Y-86505701D01*
X154715789Y-86525591D01*
X154575014Y-86583901D01*
X154454126Y-86676661D01*
X154361366Y-86797548D01*
X154303945Y-86936177D01*
X154264871Y-86987100D01*
X154205570Y-87011663D01*
X154141933Y-87003286D01*
X154075071Y-86975591D01*
X154075070Y-86975590D01*
X154075068Y-86975590D01*
X153924000Y-86955701D01*
X153772928Y-86975591D01*
X153632153Y-87033901D01*
X153511264Y-87126662D01*
X153503806Y-87136382D01*
X153460274Y-87172106D01*
X153405431Y-87184892D01*
X153350589Y-87172104D01*
X153310082Y-87138861D01*
X153186470Y-87044010D01*
X153045695Y-86985700D01*
X152894624Y-86965810D01*
X152743552Y-86985700D01*
X152602777Y-87044010D01*
X152481889Y-87136770D01*
X152389129Y-87257658D01*
X152330819Y-87398433D01*
X152310929Y-87549505D01*
X152326102Y-87664750D01*
X152321424Y-87718223D01*
X152294585Y-87764708D01*
X152250616Y-87795496D01*
X152108152Y-87854506D01*
X151987265Y-87947265D01*
X151894505Y-88068153D01*
X151836195Y-88208928D01*
X151816305Y-88360000D01*
X122829055Y-88360000D01*
X122827143Y-84112113D01*
X122843179Y-84051069D01*
X122887187Y-84005825D01*
X122947764Y-83988105D01*
X127650000Y-83860000D01*
X127644315Y-81650896D01*
X141364281Y-81650896D01*
X141384171Y-81801968D01*
X141442481Y-81942743D01*
X141535241Y-82063631D01*
X141656128Y-82156390D01*
X141656129Y-82156391D01*
X141796905Y-82214702D01*
X141947976Y-82234591D01*
X141992367Y-82228746D01*
X142048407Y-82234265D01*
X142096231Y-82264004D01*
X142765481Y-82933254D01*
X142792361Y-82973482D01*
X142801800Y-83020935D01*
X142801800Y-85138343D01*
X142801328Y-85149151D01*
X142797998Y-85187202D01*
X142807882Y-85224091D01*
X142810222Y-85234646D01*
X142817028Y-85273240D01*
X142827433Y-85298357D01*
X142828000Y-85299167D01*
X142828001Y-85299169D01*
X142831605Y-85304316D01*
X142849908Y-85330456D01*
X142855718Y-85339576D01*
X142874816Y-85372654D01*
X142904076Y-85397206D01*
X142912052Y-85404515D01*
X143294145Y-85786608D01*
X143301453Y-85794583D01*
X143326006Y-85823844D01*
X143346810Y-85835855D01*
X143359085Y-85842942D01*
X143368204Y-85848752D01*
X143383495Y-85859459D01*
X143400304Y-85871229D01*
X143425411Y-85881629D01*
X143426392Y-85881802D01*
X143426394Y-85881803D01*
X143464028Y-85888438D01*
X143474562Y-85890775D01*
X143511459Y-85900662D01*
X143511459Y-85900661D01*
X143511460Y-85900662D01*
X143549511Y-85897332D01*
X143560317Y-85896861D01*
X154342122Y-85896861D01*
X154352927Y-85897332D01*
X154390979Y-85900662D01*
X154419849Y-85892925D01*
X154451945Y-85888700D01*
X156531838Y-85888700D01*
X156590291Y-85903342D01*
X156634940Y-85943809D01*
X156655241Y-86000546D01*
X156646399Y-86060152D01*
X156626195Y-86108928D01*
X156606305Y-86260000D01*
X156626195Y-86411071D01*
X156684505Y-86551846D01*
X156709572Y-86584515D01*
X156732256Y-86633162D01*
X156732256Y-86686838D01*
X156709572Y-86735485D01*
X156684505Y-86768153D01*
X156626195Y-86908928D01*
X156606305Y-87059999D01*
X156626195Y-87211071D01*
X156684505Y-87351847D01*
X156701081Y-87373449D01*
X156723766Y-87422097D01*
X156723766Y-87475773D01*
X156701081Y-87524421D01*
X156644505Y-87598152D01*
X156586195Y-87738928D01*
X156566305Y-87889999D01*
X156586195Y-88041071D01*
X156644505Y-88181846D01*
X156684710Y-88234242D01*
X156707395Y-88282889D01*
X156707396Y-88336565D01*
X156684713Y-88385212D01*
X156675632Y-88397046D01*
X156617321Y-88537824D01*
X156596116Y-88698889D01*
X156590211Y-88748908D01*
X156555064Y-88798733D01*
X156500419Y-88825782D01*
X156439487Y-88823515D01*
X156392422Y-88809696D01*
X156392421Y-88809696D01*
X156247579Y-88809696D01*
X156247578Y-88809696D01*
X156108605Y-88850501D01*
X155986752Y-88928811D01*
X155891903Y-89038273D01*
X155831732Y-89170027D01*
X155811120Y-89313396D01*
X155831732Y-89456764D01*
X155891903Y-89588518D01*
X155986752Y-89697980D01*
X155986754Y-89697982D01*
X156108604Y-89776290D01*
X156178091Y-89796692D01*
X156247578Y-89817096D01*
X156247579Y-89817096D01*
X156392421Y-89817096D01*
X156392422Y-89817096D01*
X156438746Y-89803493D01*
X156531396Y-89776290D01*
X156653246Y-89697982D01*
X156748097Y-89588517D01*
X156808267Y-89456764D01*
X156825707Y-89335464D01*
X156845960Y-89283306D01*
X156887083Y-89245359D01*
X156940701Y-89229355D01*
X156995896Y-89238552D01*
X157030055Y-89252701D01*
X157181126Y-89272590D01*
X157332197Y-89252701D01*
X157472973Y-89194390D01*
X157593860Y-89101630D01*
X157686620Y-88980743D01*
X157744931Y-88839967D01*
X157764820Y-88688896D01*
X157744931Y-88537825D01*
X157686620Y-88397049D01*
X157677537Y-88385212D01*
X157646414Y-88344651D01*
X157623729Y-88296002D01*
X157623730Y-88242324D01*
X157646415Y-88193678D01*
X157655494Y-88181847D01*
X157713805Y-88041071D01*
X157733694Y-87890000D01*
X157713805Y-87738929D01*
X157655494Y-87598153D01*
X157638916Y-87576549D01*
X157616232Y-87527903D01*
X157616232Y-87474225D01*
X157638915Y-87425581D01*
X157695494Y-87351847D01*
X157753805Y-87211071D01*
X157773694Y-87060000D01*
X157753805Y-86908929D01*
X157695494Y-86768153D01*
X157670427Y-86735485D01*
X157647743Y-86686839D01*
X157647743Y-86633161D01*
X157670428Y-86584513D01*
X157670898Y-86583901D01*
X157695494Y-86551847D01*
X157753805Y-86411071D01*
X157773694Y-86260000D01*
X157760381Y-86158885D01*
X157770939Y-86090295D01*
X157816696Y-86038119D01*
X157883321Y-86018700D01*
X163032536Y-86018700D01*
X163079989Y-86028139D01*
X163120217Y-86055019D01*
X170244981Y-93179783D01*
X170271861Y-93220011D01*
X170281300Y-93267464D01*
X170281300Y-103272486D01*
X170271861Y-103319939D01*
X170244981Y-103360167D01*
X169538765Y-104066381D01*
X169530793Y-104073686D01*
X169501529Y-104098243D01*
X169482427Y-104131326D01*
X169476619Y-104140443D01*
X169454143Y-104172542D01*
X169443739Y-104197661D01*
X169436933Y-104236256D01*
X169434593Y-104246811D01*
X169424709Y-104283698D01*
X169428039Y-104321749D01*
X169428511Y-104332557D01*
X169428511Y-127497443D01*
X169428039Y-127508251D01*
X169424709Y-127546302D01*
X169434593Y-127583191D01*
X169436933Y-127593746D01*
X169443739Y-127632340D01*
X169454144Y-127657457D01*
X169454711Y-127658267D01*
X169454712Y-127658269D01*
X169474343Y-127686305D01*
X169476619Y-127689556D01*
X169482429Y-127698676D01*
X169501527Y-127731754D01*
X169530787Y-127756306D01*
X169538763Y-127763615D01*
X169574446Y-127799298D01*
X169602755Y-127843135D01*
X169610522Y-127894737D01*
X169602745Y-127922340D01*
X169605344Y-127923129D01*
X169601799Y-127934812D01*
X169601798Y-127934816D01*
X169576411Y-128018506D01*
X169541546Y-128133440D01*
X169521202Y-128340000D01*
X169541546Y-128546559D01*
X169566660Y-128629348D01*
X169601798Y-128745184D01*
X169699642Y-128928237D01*
X169831317Y-129088683D01*
X169991763Y-129220358D01*
X170174816Y-129318202D01*
X170373439Y-129378453D01*
X170580000Y-129398798D01*
X170786561Y-129378453D01*
X170985184Y-129318202D01*
X171168237Y-129220358D01*
X171328683Y-129088683D01*
X171460358Y-128928237D01*
X171558202Y-128745184D01*
X171618453Y-128546561D01*
X171638798Y-128340000D01*
X172061202Y-128340000D01*
X172081546Y-128546559D01*
X172106660Y-128629348D01*
X172141798Y-128745184D01*
X172239642Y-128928237D01*
X172371317Y-129088683D01*
X172531763Y-129220358D01*
X172714816Y-129318202D01*
X172913439Y-129378453D01*
X173120000Y-129398798D01*
X173326561Y-129378453D01*
X173525184Y-129318202D01*
X173708237Y-129220358D01*
X173868683Y-129088683D01*
X174000358Y-128928237D01*
X174098202Y-128745184D01*
X174158453Y-128546561D01*
X174178798Y-128340000D01*
X174601202Y-128340000D01*
X174621546Y-128546559D01*
X174646660Y-128629348D01*
X174681798Y-128745184D01*
X174779642Y-128928237D01*
X174911317Y-129088683D01*
X175071763Y-129220358D01*
X175254816Y-129318202D01*
X175453439Y-129378453D01*
X175660000Y-129398798D01*
X175866561Y-129378453D01*
X176065184Y-129318202D01*
X176248237Y-129220358D01*
X176408683Y-129088683D01*
X176540358Y-128928237D01*
X176638202Y-128745184D01*
X176698453Y-128546561D01*
X176718798Y-128340000D01*
X177141202Y-128340000D01*
X177161546Y-128546559D01*
X177186660Y-128629348D01*
X177221798Y-128745184D01*
X177319642Y-128928237D01*
X177451317Y-129088683D01*
X177611763Y-129220358D01*
X177794816Y-129318202D01*
X177993439Y-129378453D01*
X178200000Y-129398798D01*
X178406561Y-129378453D01*
X178605184Y-129318202D01*
X178788237Y-129220358D01*
X178948683Y-129088683D01*
X179080358Y-128928237D01*
X179178202Y-128745184D01*
X179196975Y-128683296D01*
X179230278Y-128629349D01*
X179285898Y-128598913D01*
X179349292Y-128599950D01*
X179403887Y-128632189D01*
X179435409Y-128687201D01*
X179466569Y-128803492D01*
X179566399Y-129017576D01*
X179701893Y-129211081D01*
X179868918Y-129378106D01*
X180062423Y-129513600D01*
X180276507Y-129613430D01*
X180489999Y-129670635D01*
X180490000Y-129670636D01*
X180490000Y-127009364D01*
X180990000Y-127009364D01*
X180990000Y-129670635D01*
X181203492Y-129613430D01*
X181417576Y-129513600D01*
X181611081Y-129378106D01*
X181778106Y-129211081D01*
X181913600Y-129017576D01*
X182013430Y-128803491D01*
X182044590Y-128687202D01*
X182076111Y-128632190D01*
X182130706Y-128599951D01*
X182194100Y-128598913D01*
X182249720Y-128629348D01*
X182283025Y-128683299D01*
X182301797Y-128745183D01*
X182339568Y-128815847D01*
X182399642Y-128928237D01*
X182531317Y-129088683D01*
X182691763Y-129220358D01*
X182874816Y-129318202D01*
X183073439Y-129378453D01*
X183280000Y-129398798D01*
X183486561Y-129378453D01*
X183685184Y-129318202D01*
X183868237Y-129220358D01*
X184028683Y-129088683D01*
X184160358Y-128928237D01*
X184258202Y-128745184D01*
X184318453Y-128546561D01*
X184338798Y-128340000D01*
X184318453Y-128133439D01*
X184258202Y-127934816D01*
X184160358Y-127751763D01*
X184028683Y-127591317D01*
X183868237Y-127459642D01*
X183685184Y-127361798D01*
X183585872Y-127331672D01*
X183486559Y-127301546D01*
X183280000Y-127281202D01*
X183073440Y-127301546D01*
X182874813Y-127361799D01*
X182691764Y-127459641D01*
X182531317Y-127591317D01*
X182399641Y-127751764D01*
X182301797Y-127934817D01*
X182283025Y-127996700D01*
X182249720Y-128050651D01*
X182194100Y-128081086D01*
X182130706Y-128080048D01*
X182076111Y-128047809D01*
X182044590Y-127992797D01*
X182013430Y-127876508D01*
X181913599Y-127662421D01*
X181778109Y-127468921D01*
X181611081Y-127301893D01*
X181417576Y-127166399D01*
X181203492Y-127066569D01*
X180990000Y-127009364D01*
X180490000Y-127009364D01*
X180489999Y-127009364D01*
X180276507Y-127066569D01*
X180062421Y-127166400D01*
X179868921Y-127301890D01*
X179701890Y-127468921D01*
X179566400Y-127662421D01*
X179466569Y-127876507D01*
X179435409Y-127992798D01*
X179403887Y-128047810D01*
X179349292Y-128080049D01*
X179285898Y-128081086D01*
X179230278Y-128050650D01*
X179196974Y-127996700D01*
X179178202Y-127934816D01*
X179080358Y-127751763D01*
X178948683Y-127591317D01*
X178788237Y-127459642D01*
X178605184Y-127361798D01*
X178505872Y-127331672D01*
X178406559Y-127301546D01*
X178200000Y-127281202D01*
X177993440Y-127301546D01*
X177794813Y-127361799D01*
X177611764Y-127459641D01*
X177451317Y-127591317D01*
X177319641Y-127751764D01*
X177221799Y-127934813D01*
X177161546Y-128133440D01*
X177141202Y-128340000D01*
X176718798Y-128340000D01*
X176698453Y-128133439D01*
X176638202Y-127934816D01*
X176540358Y-127751763D01*
X176408683Y-127591317D01*
X176248237Y-127459642D01*
X176065184Y-127361798D01*
X175965872Y-127331672D01*
X175866559Y-127301546D01*
X175660000Y-127281202D01*
X175453440Y-127301546D01*
X175254813Y-127361799D01*
X175071764Y-127459641D01*
X174911317Y-127591317D01*
X174779641Y-127751764D01*
X174681799Y-127934813D01*
X174621546Y-128133440D01*
X174601202Y-128340000D01*
X174178798Y-128340000D01*
X174158453Y-128133439D01*
X174098202Y-127934816D01*
X174000358Y-127751763D01*
X173868683Y-127591317D01*
X173708237Y-127459642D01*
X173525184Y-127361798D01*
X173425872Y-127331672D01*
X173326559Y-127301546D01*
X173120000Y-127281202D01*
X172913440Y-127301546D01*
X172714813Y-127361799D01*
X172531764Y-127459641D01*
X172371317Y-127591317D01*
X172239641Y-127751764D01*
X172141799Y-127934813D01*
X172081546Y-128133440D01*
X172061202Y-128340000D01*
X171638798Y-128340000D01*
X171618453Y-128133439D01*
X171558202Y-127934816D01*
X171460358Y-127751763D01*
X171328683Y-127591317D01*
X171168237Y-127459642D01*
X170985184Y-127361798D01*
X170885872Y-127331672D01*
X170786559Y-127301546D01*
X170580000Y-127281202D01*
X170373440Y-127301546D01*
X170309405Y-127320971D01*
X170245903Y-127340234D01*
X170188712Y-127343747D01*
X170136044Y-127321171D01*
X170099151Y-127277325D01*
X170085911Y-127221573D01*
X170085911Y-118138491D01*
X208708898Y-118138491D01*
X208718782Y-118175380D01*
X208721122Y-118185935D01*
X208727928Y-118224529D01*
X208738333Y-118249646D01*
X208738900Y-118250456D01*
X208738901Y-118250458D01*
X208760808Y-118281745D01*
X208766618Y-118290865D01*
X208785716Y-118323943D01*
X208814976Y-118348495D01*
X208822952Y-118355804D01*
X212238891Y-121771743D01*
X212268629Y-121819565D01*
X212274149Y-121875607D01*
X212268305Y-121919997D01*
X212288195Y-122071071D01*
X212346505Y-122211846D01*
X212439265Y-122332734D01*
X212539961Y-122410000D01*
X212560153Y-122425494D01*
X212700929Y-122483805D01*
X212852000Y-122503694D01*
X213003071Y-122483805D01*
X213143847Y-122425494D01*
X213264734Y-122332734D01*
X213357494Y-122211847D01*
X213364916Y-122193927D01*
X213374198Y-122171521D01*
X213410094Y-122123120D01*
X213464568Y-122097356D01*
X213524754Y-122100312D01*
X213576440Y-122131292D01*
X213583595Y-122138447D01*
X213590903Y-122146422D01*
X213615456Y-122175683D01*
X213648529Y-122194778D01*
X213657652Y-122200590D01*
X213689754Y-122223068D01*
X213714860Y-122233467D01*
X213715840Y-122233639D01*
X213715844Y-122233642D01*
X213753478Y-122240277D01*
X213764012Y-122242614D01*
X213800909Y-122252501D01*
X213800909Y-122252500D01*
X213800910Y-122252501D01*
X213838961Y-122249171D01*
X213849767Y-122248700D01*
X214853634Y-122248700D01*
X214908478Y-122261488D01*
X214952008Y-122297212D01*
X214979266Y-122332734D01*
X215100153Y-122425494D01*
X215240929Y-122483805D01*
X215392000Y-122503694D01*
X215543071Y-122483805D01*
X215683847Y-122425494D01*
X215804734Y-122332734D01*
X215897494Y-122211847D01*
X215955805Y-122071071D01*
X215975694Y-121920000D01*
X215955805Y-121768929D01*
X215897494Y-121628153D01*
X215859403Y-121578512D01*
X215804734Y-121507265D01*
X215683846Y-121414505D01*
X215543071Y-121356195D01*
X215391999Y-121336305D01*
X215240928Y-121356195D01*
X215100153Y-121414505D01*
X214979267Y-121507264D01*
X214952010Y-121542787D01*
X214908478Y-121578512D01*
X214853634Y-121591300D01*
X214017514Y-121591300D01*
X213970061Y-121581861D01*
X213929833Y-121554981D01*
X213760893Y-121386041D01*
X213741187Y-121360359D01*
X213725683Y-121333506D01*
X213696421Y-121308952D01*
X213688446Y-121301644D01*
X209856419Y-117469617D01*
X209829539Y-117429389D01*
X209820100Y-117381936D01*
X209820100Y-71267180D01*
X209839338Y-71200840D01*
X209891083Y-71155085D01*
X209959278Y-71144112D01*
X210022764Y-71171326D01*
X210084171Y-71221721D01*
X210269586Y-71320828D01*
X210470773Y-71381857D01*
X210680000Y-71402464D01*
X210889227Y-71381857D01*
X211090414Y-71320828D01*
X211275829Y-71221721D01*
X211438347Y-71088347D01*
X211571721Y-70925829D01*
X211670828Y-70740414D01*
X211731857Y-70539227D01*
X211752464Y-70330000D01*
X212147536Y-70330000D01*
X212168142Y-70539225D01*
X212168143Y-70539227D01*
X212229172Y-70740414D01*
X212328279Y-70925829D01*
X212360100Y-70964603D01*
X212461652Y-71088347D01*
X212529603Y-71144112D01*
X212624171Y-71221721D01*
X212809586Y-71320828D01*
X213010773Y-71381857D01*
X213220000Y-71402464D01*
X213429227Y-71381857D01*
X213630414Y-71320828D01*
X213815829Y-71221721D01*
X213978347Y-71088347D01*
X214111721Y-70925829D01*
X214210828Y-70740414D01*
X214271857Y-70539227D01*
X214292464Y-70330000D01*
X214271857Y-70120773D01*
X214210828Y-69919586D01*
X214111721Y-69734171D01*
X214045034Y-69652912D01*
X213978347Y-69571652D01*
X213865147Y-69478753D01*
X213815829Y-69438279D01*
X213630414Y-69339172D01*
X213505289Y-69301216D01*
X213429225Y-69278142D01*
X213220000Y-69257536D01*
X213010774Y-69278142D01*
X212809583Y-69339173D01*
X212624172Y-69438278D01*
X212461652Y-69571652D01*
X212328278Y-69734172D01*
X212229173Y-69919583D01*
X212168142Y-70120774D01*
X212147536Y-70330000D01*
X211752464Y-70330000D01*
X211731857Y-70120773D01*
X211670828Y-69919586D01*
X211571721Y-69734171D01*
X211505034Y-69652912D01*
X211438347Y-69571652D01*
X211384125Y-69527154D01*
X211348228Y-69478753D01*
X211339386Y-69419146D01*
X211359687Y-69362410D01*
X211404336Y-69321942D01*
X211462789Y-69307300D01*
X212011633Y-69307300D01*
X212022438Y-69307771D01*
X212042313Y-69309510D01*
X212060489Y-69311101D01*
X212060489Y-69311100D01*
X212060490Y-69311101D01*
X212097393Y-69301212D01*
X212107925Y-69298877D01*
X212145556Y-69292242D01*
X212145559Y-69292240D01*
X212146535Y-69292068D01*
X212171640Y-69281669D01*
X212172451Y-69281100D01*
X212172458Y-69281099D01*
X212203775Y-69259169D01*
X212212846Y-69253391D01*
X212245944Y-69234283D01*
X212270508Y-69205007D01*
X212277796Y-69197054D01*
X212669249Y-68805601D01*
X212713248Y-68777232D01*
X212765036Y-68769549D01*
X212797437Y-68778801D01*
X212797898Y-68777282D01*
X212809583Y-68780826D01*
X212809586Y-68780828D01*
X213010773Y-68841857D01*
X213220000Y-68862464D01*
X213429227Y-68841857D01*
X213630414Y-68780828D01*
X213815829Y-68681721D01*
X213978347Y-68548347D01*
X214111721Y-68385829D01*
X214210828Y-68200414D01*
X214271857Y-67999227D01*
X214292464Y-67790000D01*
X214271857Y-67580773D01*
X214210828Y-67379586D01*
X214111721Y-67194171D01*
X214029791Y-67094338D01*
X213978347Y-67031652D01*
X213870649Y-66943268D01*
X213815829Y-66898279D01*
X213640391Y-66804505D01*
X213630416Y-66799173D01*
X213630415Y-66799172D01*
X213630414Y-66799172D01*
X213529820Y-66768657D01*
X213429225Y-66738142D01*
X213220000Y-66717536D01*
X213010774Y-66738142D01*
X212809583Y-66799173D01*
X212624172Y-66898278D01*
X212461652Y-67031652D01*
X212328278Y-67194172D01*
X212229173Y-67379583D01*
X212168142Y-67580774D01*
X212147536Y-67789999D01*
X212168142Y-67999225D01*
X212168143Y-67999227D01*
X212229172Y-68200414D01*
X212229173Y-68200416D01*
X212232718Y-68212101D01*
X212231198Y-68212562D01*
X212240450Y-68244960D01*
X212232767Y-68296748D01*
X212204396Y-68340750D01*
X211931564Y-68613583D01*
X211891339Y-68640461D01*
X211843886Y-68649900D01*
X211617180Y-68649900D01*
X211550840Y-68630662D01*
X211505085Y-68578917D01*
X211494112Y-68510722D01*
X211521326Y-68447236D01*
X211521813Y-68446641D01*
X211571721Y-68385829D01*
X211670828Y-68200414D01*
X211731857Y-67999227D01*
X211752464Y-67790000D01*
X211731857Y-67580773D01*
X211670828Y-67379586D01*
X211670826Y-67379583D01*
X211667282Y-67367898D01*
X211668801Y-67367437D01*
X211659549Y-67335036D01*
X211667232Y-67283248D01*
X211695601Y-67239249D01*
X212248456Y-66686394D01*
X212256410Y-66679105D01*
X212285683Y-66654544D01*
X212304785Y-66621456D01*
X212310581Y-66612358D01*
X212332499Y-66581058D01*
X212332499Y-66581056D01*
X212333069Y-66580243D01*
X212343467Y-66555139D01*
X212343639Y-66554160D01*
X212343642Y-66554156D01*
X212350278Y-66516517D01*
X212352615Y-66505981D01*
X212362500Y-66469090D01*
X212359172Y-66431048D01*
X212358700Y-66420241D01*
X212358700Y-66186031D01*
X212377938Y-66119691D01*
X212429683Y-66073936D01*
X212497878Y-66062963D01*
X212561363Y-66090176D01*
X212624171Y-66141721D01*
X212809586Y-66240828D01*
X213010773Y-66301857D01*
X213220000Y-66322464D01*
X213429227Y-66301857D01*
X213630414Y-66240828D01*
X213815829Y-66141721D01*
X213978347Y-66008347D01*
X214111721Y-65845829D01*
X214210828Y-65660414D01*
X214271857Y-65459227D01*
X214292464Y-65250000D01*
X214271857Y-65040773D01*
X214210828Y-64839586D01*
X214111721Y-64654171D01*
X214018514Y-64540597D01*
X213978347Y-64491652D01*
X213878636Y-64409823D01*
X213815829Y-64358279D01*
X213630414Y-64259172D01*
X213510293Y-64222734D01*
X213429225Y-64198142D01*
X213220000Y-64177536D01*
X213010774Y-64198142D01*
X212809583Y-64259173D01*
X212624172Y-64358278D01*
X212561364Y-64409823D01*
X212497878Y-64437037D01*
X212429683Y-64426064D01*
X212377938Y-64380309D01*
X212358700Y-64313969D01*
X212358700Y-57696082D01*
X212366518Y-57652749D01*
X212388987Y-57614880D01*
X212458096Y-57535122D01*
X212458095Y-57535122D01*
X212458097Y-57535121D01*
X212518267Y-57403368D01*
X212538880Y-57260000D01*
X212518267Y-57116632D01*
X212458097Y-56984879D01*
X212458096Y-56984878D01*
X212458096Y-56984877D01*
X212363247Y-56875415D01*
X212363246Y-56875414D01*
X212241396Y-56797106D01*
X212241395Y-56797105D01*
X212241394Y-56797105D01*
X212102422Y-56756300D01*
X212102421Y-56756300D01*
X211957579Y-56756300D01*
X211957578Y-56756300D01*
X211818605Y-56797105D01*
X211696752Y-56875415D01*
X211601903Y-56984877D01*
X211541732Y-57116631D01*
X211521120Y-57259999D01*
X211541732Y-57403368D01*
X211601903Y-57535122D01*
X211671013Y-57614880D01*
X211693482Y-57652749D01*
X211701300Y-57696082D01*
X211701300Y-63762400D01*
X211684687Y-63824400D01*
X211639300Y-63869787D01*
X211577300Y-63886400D01*
X210930000Y-63886400D01*
X210930000Y-65376000D01*
X210913387Y-65438000D01*
X210868000Y-65483387D01*
X210806000Y-65500000D01*
X209316400Y-65500000D01*
X209316400Y-66161424D01*
X209322802Y-66220975D01*
X209373047Y-66355689D01*
X209459211Y-66470788D01*
X209574310Y-66556952D01*
X209709024Y-66607197D01*
X209768576Y-66613600D01*
X210121732Y-66613600D01*
X210184433Y-66630621D01*
X210229921Y-66677011D01*
X210245708Y-66740034D01*
X210227459Y-66802390D01*
X210180185Y-66846958D01*
X210084172Y-66898278D01*
X209921652Y-67031652D01*
X209788278Y-67194172D01*
X209689173Y-67379583D01*
X209628142Y-67580774D01*
X209607536Y-67789999D01*
X209628142Y-67999225D01*
X209628143Y-67999227D01*
X209689172Y-68200414D01*
X209689173Y-68200416D01*
X209692718Y-68212101D01*
X209691198Y-68212562D01*
X209700450Y-68244961D01*
X209692767Y-68296749D01*
X209664396Y-68340750D01*
X208822954Y-69182192D01*
X208814982Y-69189497D01*
X208785718Y-69214054D01*
X208766616Y-69247137D01*
X208760808Y-69256254D01*
X208738332Y-69288353D01*
X208727928Y-69313472D01*
X208721122Y-69352067D01*
X208718782Y-69362622D01*
X208708898Y-69399509D01*
X208712228Y-69437560D01*
X208712700Y-69448368D01*
X208712700Y-118089632D01*
X208712228Y-118100440D01*
X208708898Y-118138491D01*
X170085911Y-118138491D01*
X170085911Y-116109999D01*
X171966305Y-116109999D01*
X171986195Y-116261071D01*
X172044505Y-116401846D01*
X172137265Y-116522734D01*
X172258153Y-116615494D01*
X172398929Y-116673805D01*
X172550000Y-116693694D01*
X172701071Y-116673805D01*
X172841847Y-116615494D01*
X172962734Y-116522734D01*
X173055494Y-116401847D01*
X173113805Y-116261071D01*
X173133694Y-116110000D01*
X173113805Y-115958929D01*
X173055494Y-115818153D01*
X173055493Y-115818152D01*
X172962734Y-115697265D01*
X172841846Y-115604505D01*
X172701071Y-115546195D01*
X172550000Y-115526305D01*
X172398928Y-115546195D01*
X172258153Y-115604505D01*
X172137265Y-115697265D01*
X172044505Y-115818153D01*
X171986195Y-115958928D01*
X171966305Y-116109999D01*
X170085911Y-116109999D01*
X170085911Y-104500303D01*
X170095350Y-104452850D01*
X170122230Y-104412622D01*
X170298596Y-104236256D01*
X170828457Y-103706393D01*
X170836424Y-103699094D01*
X170865683Y-103674544D01*
X170884791Y-103641446D01*
X170890569Y-103632375D01*
X170912499Y-103601058D01*
X170912500Y-103601051D01*
X170913069Y-103600240D01*
X170923468Y-103575135D01*
X170923640Y-103574159D01*
X170923642Y-103574156D01*
X170930277Y-103536525D01*
X170932612Y-103525993D01*
X170942501Y-103489090D01*
X170939171Y-103451038D01*
X170938700Y-103440233D01*
X170938700Y-99240000D01*
X184756305Y-99240000D01*
X184776195Y-99391071D01*
X184834505Y-99531846D01*
X184927265Y-99652734D01*
X185048152Y-99745493D01*
X185048153Y-99745494D01*
X185188929Y-99803805D01*
X185340000Y-99823694D01*
X185491071Y-99803805D01*
X185631847Y-99745494D01*
X185752734Y-99652734D01*
X185845494Y-99531847D01*
X185903805Y-99391071D01*
X185923694Y-99240000D01*
X185903805Y-99088929D01*
X185845494Y-98948153D01*
X185845493Y-98948152D01*
X185752734Y-98827265D01*
X185631846Y-98734505D01*
X185491071Y-98676195D01*
X185340000Y-98656305D01*
X185188928Y-98676195D01*
X185048153Y-98734505D01*
X184927265Y-98827265D01*
X184834505Y-98948153D01*
X184776195Y-99088928D01*
X184756305Y-99240000D01*
X170938700Y-99240000D01*
X170938700Y-93099718D01*
X170939172Y-93088910D01*
X170942501Y-93050861D01*
X170932610Y-93013950D01*
X170930278Y-93003433D01*
X170923642Y-92965794D01*
X170923639Y-92965789D01*
X170923467Y-92964811D01*
X170913067Y-92939702D01*
X170890590Y-92907602D01*
X170884778Y-92898479D01*
X170865683Y-92865406D01*
X170836421Y-92840852D01*
X170828446Y-92833544D01*
X170744901Y-92749999D01*
X187261120Y-92749999D01*
X187281732Y-92893368D01*
X187341903Y-93025122D01*
X187406541Y-93099718D01*
X187436754Y-93134586D01*
X187558604Y-93212894D01*
X187569530Y-93216102D01*
X187697578Y-93253700D01*
X187697579Y-93253700D01*
X187842421Y-93253700D01*
X187842422Y-93253700D01*
X187888745Y-93240098D01*
X187981396Y-93212894D01*
X188103246Y-93134586D01*
X188198097Y-93025121D01*
X188258267Y-92893368D01*
X188278880Y-92750000D01*
X188258267Y-92606632D01*
X188198097Y-92474879D01*
X188198096Y-92474878D01*
X188198096Y-92474877D01*
X188103247Y-92365415D01*
X188103246Y-92365414D01*
X187981396Y-92287106D01*
X187981395Y-92287105D01*
X187981394Y-92287105D01*
X187842422Y-92246300D01*
X187842421Y-92246300D01*
X187697579Y-92246300D01*
X187697578Y-92246300D01*
X187558605Y-92287105D01*
X187436752Y-92365415D01*
X187341903Y-92474877D01*
X187281732Y-92606631D01*
X187261120Y-92749999D01*
X170744901Y-92749999D01*
X169964902Y-91970000D01*
X178386305Y-91970000D01*
X178406195Y-92121071D01*
X178464505Y-92261846D01*
X178557265Y-92382734D01*
X178677349Y-92474877D01*
X178678153Y-92475494D01*
X178818929Y-92533805D01*
X178970000Y-92553694D01*
X179121071Y-92533805D01*
X179261847Y-92475494D01*
X179382734Y-92382734D01*
X179475494Y-92261847D01*
X179533805Y-92121071D01*
X179553694Y-91970000D01*
X179533805Y-91818929D01*
X179475494Y-91678153D01*
X179475493Y-91678152D01*
X179382734Y-91557265D01*
X179261846Y-91464505D01*
X179121071Y-91406195D01*
X178970000Y-91386305D01*
X178818928Y-91406195D01*
X178678153Y-91464505D01*
X178557265Y-91557265D01*
X178464505Y-91678153D01*
X178406195Y-91818928D01*
X178386305Y-91970000D01*
X169964902Y-91970000D01*
X163466453Y-85471551D01*
X163459144Y-85463575D01*
X163434593Y-85434316D01*
X163401515Y-85415218D01*
X163392395Y-85409408D01*
X163385407Y-85404515D01*
X163361108Y-85387501D01*
X163361106Y-85387500D01*
X163360296Y-85386933D01*
X163335179Y-85376528D01*
X163296585Y-85369722D01*
X163286030Y-85367382D01*
X163249141Y-85357498D01*
X163211090Y-85360828D01*
X163200282Y-85361300D01*
X157800130Y-85361300D01*
X157747725Y-85349682D01*
X157705140Y-85317005D01*
X157694493Y-85304316D01*
X157661415Y-85285218D01*
X157652295Y-85279408D01*
X157642096Y-85272267D01*
X157621008Y-85257501D01*
X157621006Y-85257500D01*
X157620196Y-85256933D01*
X157595079Y-85246528D01*
X157556485Y-85239722D01*
X157545930Y-85237382D01*
X157509041Y-85227498D01*
X157470990Y-85230828D01*
X157460182Y-85231300D01*
X154389807Y-85231300D01*
X154378999Y-85230828D01*
X154340960Y-85227499D01*
X154320640Y-85232944D01*
X154312084Y-85235236D01*
X154279995Y-85239461D01*
X146628977Y-85239461D01*
X146563497Y-85220762D01*
X146517765Y-85170305D01*
X146505574Y-85103307D01*
X146530601Y-85039975D01*
X146549671Y-85015121D01*
X146559857Y-85001847D01*
X146618168Y-84861071D01*
X146638057Y-84710000D01*
X146618168Y-84558929D01*
X146559857Y-84418153D01*
X146467097Y-84297266D01*
X146467095Y-84297264D01*
X146458595Y-84286187D01*
X146433568Y-84222854D01*
X146445759Y-84155856D01*
X146491491Y-84105399D01*
X146556971Y-84086700D01*
X147336183Y-84086700D01*
X147346988Y-84087171D01*
X147366863Y-84088910D01*
X147385039Y-84090501D01*
X147385039Y-84090500D01*
X147385040Y-84090501D01*
X147421943Y-84080612D01*
X147432475Y-84078277D01*
X147470106Y-84071642D01*
X147470109Y-84071640D01*
X147471085Y-84071468D01*
X147496190Y-84061069D01*
X147497001Y-84060500D01*
X147497008Y-84060499D01*
X147528325Y-84038569D01*
X147537396Y-84032791D01*
X147570494Y-84013683D01*
X147595058Y-83984407D01*
X147602346Y-83976454D01*
X148558456Y-83020344D01*
X148566424Y-83013044D01*
X148574557Y-83006220D01*
X148595683Y-82988494D01*
X148614791Y-82955396D01*
X148620569Y-82946325D01*
X148642499Y-82915008D01*
X148642500Y-82915001D01*
X148643069Y-82914190D01*
X148653468Y-82889085D01*
X148653640Y-82888109D01*
X148653642Y-82888106D01*
X148660277Y-82850475D01*
X148662612Y-82839943D01*
X148672501Y-82803040D01*
X148669171Y-82764988D01*
X148668700Y-82754183D01*
X148668700Y-79208366D01*
X148681488Y-79153522D01*
X148717212Y-79109991D01*
X148752734Y-79082734D01*
X148845494Y-78961847D01*
X148903805Y-78821071D01*
X148923694Y-78670000D01*
X148903805Y-78518929D01*
X148845494Y-78378153D01*
X148839965Y-78370947D01*
X148752734Y-78257265D01*
X148631846Y-78164505D01*
X148491071Y-78106195D01*
X148340000Y-78086305D01*
X148188928Y-78106195D01*
X148074152Y-78153737D01*
X148014546Y-78162579D01*
X147957809Y-78142278D01*
X147917342Y-78097629D01*
X147902700Y-78039176D01*
X147902700Y-76473756D01*
X147903172Y-76462948D01*
X147906500Y-76424909D01*
X147896615Y-76388019D01*
X147894276Y-76377468D01*
X147887642Y-76339844D01*
X147887640Y-76339842D01*
X147887469Y-76338867D01*
X147877067Y-76313754D01*
X147876499Y-76312943D01*
X147876499Y-76312942D01*
X147854587Y-76281649D01*
X147848781Y-76272535D01*
X147835152Y-76248929D01*
X147829683Y-76239456D01*
X147800421Y-76214902D01*
X147792446Y-76207594D01*
X146425019Y-74840167D01*
X146398139Y-74799939D01*
X146388700Y-74752486D01*
X146388700Y-69799999D01*
X147801120Y-69799999D01*
X147821732Y-69943368D01*
X147881903Y-70075122D01*
X147959799Y-70165019D01*
X147976754Y-70184586D01*
X148098604Y-70262894D01*
X148168091Y-70283296D01*
X148237578Y-70303700D01*
X148237579Y-70303700D01*
X148382421Y-70303700D01*
X148382422Y-70303700D01*
X148428746Y-70290097D01*
X148521396Y-70262894D01*
X148643246Y-70184586D01*
X148654587Y-70171497D01*
X148696787Y-70139906D01*
X148748300Y-70128700D01*
X149562436Y-70128700D01*
X149609889Y-70138139D01*
X149650117Y-70165019D01*
X169378545Y-89893447D01*
X169385853Y-89901422D01*
X169410406Y-89930683D01*
X169443479Y-89949778D01*
X169452602Y-89955590D01*
X169484702Y-89978067D01*
X169509811Y-89988467D01*
X169510789Y-89988639D01*
X169510794Y-89988642D01*
X169548433Y-89995278D01*
X169558950Y-89997610D01*
X169595861Y-90007501D01*
X169595861Y-90007500D01*
X169595862Y-90007501D01*
X169610515Y-90006218D01*
X169633916Y-90004171D01*
X169644721Y-90003700D01*
X174068392Y-90003700D01*
X174135431Y-90023384D01*
X174181186Y-90076188D01*
X174191130Y-90145346D01*
X174168895Y-90299999D01*
X174189507Y-90443368D01*
X174249678Y-90575122D01*
X174344527Y-90684584D01*
X174344529Y-90684586D01*
X174466379Y-90762894D01*
X174535866Y-90783297D01*
X174605353Y-90803700D01*
X174605354Y-90803700D01*
X174750196Y-90803700D01*
X174750197Y-90803700D01*
X174796520Y-90790098D01*
X174889171Y-90762894D01*
X175011021Y-90684586D01*
X175105872Y-90575121D01*
X175166042Y-90443368D01*
X175186655Y-90300000D01*
X175172597Y-90202224D01*
X175164420Y-90145346D01*
X175174364Y-90076188D01*
X175220119Y-90023384D01*
X175287158Y-90003700D01*
X182229798Y-90003700D01*
X182277251Y-90013139D01*
X182317479Y-90040019D01*
X182344359Y-90080247D01*
X182394884Y-90202225D01*
X182487643Y-90323112D01*
X182608531Y-90415872D01*
X182749307Y-90474183D01*
X182900378Y-90494072D01*
X183051449Y-90474183D01*
X183192225Y-90415872D01*
X183313112Y-90323112D01*
X183405872Y-90202225D01*
X183464183Y-90061449D01*
X183484072Y-89910378D01*
X183464183Y-89759307D01*
X183405872Y-89618531D01*
X183382842Y-89588518D01*
X183313112Y-89497643D01*
X183192224Y-89404883D01*
X183051449Y-89346573D01*
X182900377Y-89326683D01*
X182746932Y-89346885D01*
X182698657Y-89343722D01*
X182694091Y-89342498D01*
X182659651Y-89345512D01*
X182656038Y-89345828D01*
X182645233Y-89346300D01*
X169812464Y-89346300D01*
X169765011Y-89336861D01*
X169724783Y-89309981D01*
X167865179Y-87450377D01*
X185955927Y-87450377D01*
X185975817Y-87601449D01*
X186034127Y-87742224D01*
X186126887Y-87863112D01*
X186247775Y-87955872D01*
X186388551Y-88014183D01*
X186539622Y-88034072D01*
X186690693Y-88014183D01*
X186831469Y-87955872D01*
X186952356Y-87863112D01*
X187045116Y-87742225D01*
X187103427Y-87601449D01*
X187123316Y-87450378D01*
X187122553Y-87444586D01*
X187110344Y-87351847D01*
X187103427Y-87299307D01*
X187045116Y-87158531D01*
X187028418Y-87136770D01*
X186969511Y-87060000D01*
X203211120Y-87060000D01*
X203231732Y-87203368D01*
X203291903Y-87335122D01*
X203346763Y-87398434D01*
X203386754Y-87444586D01*
X203508604Y-87522894D01*
X203576675Y-87542881D01*
X203647578Y-87563700D01*
X203647579Y-87563700D01*
X203792421Y-87563700D01*
X203792422Y-87563700D01*
X203863325Y-87542881D01*
X203931396Y-87522894D01*
X203935899Y-87520000D01*
X204431120Y-87520000D01*
X204451732Y-87663368D01*
X204511903Y-87795122D01*
X204594114Y-87889999D01*
X204606754Y-87904586D01*
X204728604Y-87982894D01*
X204798091Y-88003296D01*
X204867578Y-88023700D01*
X204867579Y-88023700D01*
X205012421Y-88023700D01*
X205012422Y-88023700D01*
X205058746Y-88010097D01*
X205151396Y-87982894D01*
X205273246Y-87904586D01*
X205368097Y-87795121D01*
X205428267Y-87663368D01*
X205448880Y-87520000D01*
X205428267Y-87376632D01*
X205426813Y-87373449D01*
X205368096Y-87244877D01*
X205273247Y-87135415D01*
X205273246Y-87135414D01*
X205151396Y-87057106D01*
X205151395Y-87057105D01*
X205151394Y-87057105D01*
X205012422Y-87016300D01*
X205012421Y-87016300D01*
X204867579Y-87016300D01*
X204867578Y-87016300D01*
X204728605Y-87057105D01*
X204606752Y-87135415D01*
X204511903Y-87244877D01*
X204451732Y-87376631D01*
X204431120Y-87520000D01*
X203935899Y-87520000D01*
X204053246Y-87444586D01*
X204148097Y-87335121D01*
X204208267Y-87203368D01*
X204228880Y-87060000D01*
X204208267Y-86916632D01*
X204204749Y-86908929D01*
X204148096Y-86784877D01*
X204053247Y-86675415D01*
X204053246Y-86675414D01*
X203931396Y-86597106D01*
X203931395Y-86597105D01*
X203931394Y-86597105D01*
X203792422Y-86556300D01*
X203792421Y-86556300D01*
X203647579Y-86556300D01*
X203647578Y-86556300D01*
X203508605Y-86597105D01*
X203386752Y-86675415D01*
X203291903Y-86784877D01*
X203231732Y-86916631D01*
X203211120Y-87060000D01*
X186969511Y-87060000D01*
X186952356Y-87037643D01*
X186831468Y-86944883D01*
X186690693Y-86886573D01*
X186539622Y-86866683D01*
X186388550Y-86886573D01*
X186247775Y-86944883D01*
X186126887Y-87037643D01*
X186034127Y-87158531D01*
X185975817Y-87299306D01*
X185955927Y-87450377D01*
X167865179Y-87450377D01*
X154424802Y-74010000D01*
X156435805Y-74010000D01*
X156455695Y-74161071D01*
X156514005Y-74301846D01*
X156606765Y-74422734D01*
X156727653Y-74515494D01*
X156868429Y-74573805D01*
X157019500Y-74593694D01*
X157170571Y-74573805D01*
X157311347Y-74515494D01*
X157432234Y-74422734D01*
X157524994Y-74301847D01*
X157583305Y-74161071D01*
X157603194Y-74010000D01*
X157583305Y-73858929D01*
X157524994Y-73718153D01*
X157432234Y-73597265D01*
X157311346Y-73504505D01*
X157170571Y-73446195D01*
X157019500Y-73426305D01*
X156868428Y-73446195D01*
X156727653Y-73504505D01*
X156606765Y-73597265D01*
X156514005Y-73718153D01*
X156455695Y-73858928D01*
X156435805Y-74010000D01*
X154424802Y-74010000D01*
X153725301Y-73310499D01*
X155036805Y-73310499D01*
X155056695Y-73461571D01*
X155115005Y-73602346D01*
X155207765Y-73723234D01*
X155328653Y-73815994D01*
X155469429Y-73874305D01*
X155620500Y-73894194D01*
X155771571Y-73874305D01*
X155912347Y-73815994D01*
X156033234Y-73723234D01*
X156125994Y-73602347D01*
X156184305Y-73461571D01*
X156204194Y-73310500D01*
X156184305Y-73159429D01*
X156125994Y-73018653D01*
X156033234Y-72897765D01*
X155912346Y-72805005D01*
X155771571Y-72746695D01*
X155620500Y-72726805D01*
X155469428Y-72746695D01*
X155328653Y-72805005D01*
X155207765Y-72897765D01*
X155115005Y-73018653D01*
X155056695Y-73159428D01*
X155036805Y-73310499D01*
X153725301Y-73310499D01*
X149996353Y-69581551D01*
X149989044Y-69573575D01*
X149987431Y-69571653D01*
X149964494Y-69544317D01*
X149964493Y-69544316D01*
X149931415Y-69525218D01*
X149922295Y-69519408D01*
X149891008Y-69497501D01*
X149891006Y-69497500D01*
X149890196Y-69496933D01*
X149865079Y-69486528D01*
X149826485Y-69479722D01*
X149815930Y-69477382D01*
X149779041Y-69467498D01*
X149740990Y-69470828D01*
X149730182Y-69471300D01*
X148748300Y-69471300D01*
X148696787Y-69460094D01*
X148654587Y-69428502D01*
X148643246Y-69415414D01*
X148643245Y-69415413D01*
X148643244Y-69415412D01*
X148524612Y-69339173D01*
X148521396Y-69337106D01*
X148521395Y-69337105D01*
X148521394Y-69337105D01*
X148382422Y-69296300D01*
X148382421Y-69296300D01*
X148237579Y-69296300D01*
X148237578Y-69296300D01*
X148098605Y-69337105D01*
X147976752Y-69415415D01*
X147881903Y-69524877D01*
X147821732Y-69656631D01*
X147801120Y-69799999D01*
X146388700Y-69799999D01*
X146388700Y-68704999D01*
X202239999Y-68704999D01*
X202260512Y-68858840D01*
X202261600Y-68875228D01*
X202261600Y-70118763D01*
X202267484Y-70127558D01*
X202276976Y-70174862D01*
X202277634Y-70470284D01*
X205487634Y-70520284D01*
X205037634Y-66770284D01*
X204827634Y-66490284D01*
X204775634Y-66490284D01*
X204736422Y-66483921D01*
X204701234Y-66465484D01*
X204667633Y-66440283D01*
X202477635Y-65850283D01*
X202267634Y-65980283D01*
X202267633Y-65980283D01*
X202271486Y-67710075D01*
X202262101Y-67757673D01*
X202261600Y-67758424D01*
X202261600Y-68591065D01*
X202258847Y-68617047D01*
X202239999Y-68704999D01*
X146388700Y-68704999D01*
X146388700Y-67310000D01*
X148768305Y-67310000D01*
X148788195Y-67461071D01*
X148846505Y-67601846D01*
X148939265Y-67722734D01*
X149047121Y-67805494D01*
X149060153Y-67815494D01*
X149200929Y-67873805D01*
X149332109Y-67891075D01*
X149351999Y-67893694D01*
X149351999Y-67893693D01*
X149352000Y-67893694D01*
X149503071Y-67873805D01*
X149643847Y-67815494D01*
X149764734Y-67722734D01*
X149857494Y-67601847D01*
X149915805Y-67461071D01*
X149935694Y-67310000D01*
X149915805Y-67158929D01*
X149857494Y-67018153D01*
X149838906Y-66993929D01*
X149764734Y-66897265D01*
X149643846Y-66804505D01*
X149503071Y-66746195D01*
X149352000Y-66726305D01*
X149200928Y-66746195D01*
X149060153Y-66804505D01*
X148939265Y-66897265D01*
X148846505Y-67018153D01*
X148788195Y-67158928D01*
X148768305Y-67310000D01*
X146388700Y-67310000D01*
X146388700Y-66530534D01*
X152075771Y-66530534D01*
X152095661Y-66681605D01*
X152153971Y-66822380D01*
X152246731Y-66943268D01*
X152344324Y-67018153D01*
X152367619Y-67036028D01*
X152508395Y-67094339D01*
X152659466Y-67114228D01*
X152810537Y-67094339D01*
X152951313Y-67036028D01*
X153072200Y-66943268D01*
X153164960Y-66822381D01*
X153223271Y-66681605D01*
X153243160Y-66530534D01*
X153223271Y-66379463D01*
X153164960Y-66238687D01*
X153151369Y-66220975D01*
X153072200Y-66117799D01*
X152951312Y-66025039D01*
X152810537Y-65966729D01*
X152659466Y-65946839D01*
X152508394Y-65966729D01*
X152367619Y-66025039D01*
X152246731Y-66117799D01*
X152153971Y-66238687D01*
X152095661Y-66379462D01*
X152075771Y-66530534D01*
X146388700Y-66530534D01*
X146388700Y-66243564D01*
X146398139Y-66196111D01*
X146425019Y-66155883D01*
X147580902Y-65000000D01*
X209316400Y-65000000D01*
X210430000Y-65000000D01*
X210430000Y-63886400D01*
X209768576Y-63886400D01*
X209709024Y-63892802D01*
X209574310Y-63943047D01*
X209459211Y-64029211D01*
X209373047Y-64144310D01*
X209322802Y-64279024D01*
X209316400Y-64338576D01*
X209316400Y-65000000D01*
X147580902Y-65000000D01*
X149658902Y-62922000D01*
X153918305Y-62922000D01*
X153938195Y-63073071D01*
X153996505Y-63213846D01*
X154089265Y-63334734D01*
X154170758Y-63397265D01*
X154210153Y-63427494D01*
X154350929Y-63485805D01*
X154502000Y-63505694D01*
X154653071Y-63485805D01*
X154659967Y-63482948D01*
X154717146Y-63473891D01*
X154772207Y-63491780D01*
X154813145Y-63532717D01*
X154831037Y-63587777D01*
X154821981Y-63644959D01*
X154816195Y-63658927D01*
X154796305Y-63809999D01*
X154816195Y-63961071D01*
X154874505Y-64101846D01*
X154967265Y-64222734D01*
X155014754Y-64259173D01*
X155088153Y-64315494D01*
X155228929Y-64373805D01*
X155380000Y-64393694D01*
X155531071Y-64373805D01*
X155671847Y-64315494D01*
X155792734Y-64222734D01*
X155885494Y-64101847D01*
X155943805Y-63961071D01*
X155963694Y-63810000D01*
X155943805Y-63658929D01*
X155885494Y-63518153D01*
X155865257Y-63491780D01*
X155792734Y-63397265D01*
X155671846Y-63304505D01*
X155531071Y-63246195D01*
X155379999Y-63226305D01*
X155228927Y-63246195D01*
X155222028Y-63249053D01*
X155164847Y-63258107D01*
X155109787Y-63240215D01*
X155068851Y-63199277D01*
X155050962Y-63144216D01*
X155060019Y-63087038D01*
X155065805Y-63073071D01*
X155085694Y-62922000D01*
X155065805Y-62770929D01*
X155017786Y-62655001D01*
X202040000Y-62655001D01*
X202070512Y-62883840D01*
X202071600Y-62900228D01*
X202071600Y-64038400D01*
X202173549Y-64038400D01*
X202235469Y-64054967D01*
X202280844Y-64100241D01*
X202297548Y-64162123D01*
X202297634Y-64200284D01*
X205507634Y-64250284D01*
X205057634Y-60500284D01*
X204847634Y-60220284D01*
X204795634Y-60220284D01*
X204756422Y-60213921D01*
X204721234Y-60195484D01*
X204687633Y-60170283D01*
X202497635Y-59580283D01*
X202287634Y-59710283D01*
X202287633Y-59710283D01*
X202291792Y-61577324D01*
X202275271Y-61639440D01*
X202229872Y-61684941D01*
X202167792Y-61701600D01*
X202071600Y-61701600D01*
X202071600Y-62494394D01*
X202068848Y-62520375D01*
X202040000Y-62655001D01*
X155017786Y-62655001D01*
X155007494Y-62630153D01*
X154914734Y-62509265D01*
X154793846Y-62416505D01*
X154653071Y-62358195D01*
X154502000Y-62338305D01*
X154350928Y-62358195D01*
X154210153Y-62416505D01*
X154089265Y-62509265D01*
X153996505Y-62630153D01*
X153938195Y-62770928D01*
X153918305Y-62922000D01*
X149658902Y-62922000D01*
X150761883Y-61819019D01*
X150802111Y-61792139D01*
X150849564Y-61782700D01*
X150870233Y-61782700D01*
X150881038Y-61783171D01*
X150900913Y-61784910D01*
X150919089Y-61786501D01*
X150919089Y-61786500D01*
X150919090Y-61786501D01*
X150955993Y-61776612D01*
X150966525Y-61774277D01*
X151004156Y-61767642D01*
X151004159Y-61767640D01*
X151005135Y-61767468D01*
X151030240Y-61757069D01*
X151031051Y-61756500D01*
X151031058Y-61756499D01*
X151062375Y-61734569D01*
X151071446Y-61728791D01*
X151104544Y-61709683D01*
X151129108Y-61680407D01*
X151136396Y-61672454D01*
X155200450Y-57608400D01*
X202101600Y-57608400D01*
X202203527Y-57608400D01*
X202265447Y-57624967D01*
X202310822Y-57670241D01*
X202327526Y-57732122D01*
X202327634Y-57780284D01*
X205537634Y-57830284D01*
X205087634Y-54080284D01*
X204877634Y-53800284D01*
X204825634Y-53800284D01*
X204786422Y-53793921D01*
X204751234Y-53775484D01*
X204717633Y-53750283D01*
X202527635Y-53160283D01*
X202317634Y-53290283D01*
X202317633Y-53290283D01*
X202321770Y-55147324D01*
X202305249Y-55209440D01*
X202259850Y-55254941D01*
X202197770Y-55271600D01*
X202101600Y-55271600D01*
X202101600Y-57608400D01*
X155200450Y-57608400D01*
X157839745Y-54969105D01*
X157887566Y-54939368D01*
X157943606Y-54933849D01*
X157988000Y-54939694D01*
X158139071Y-54919805D01*
X158279847Y-54861494D01*
X158400734Y-54768734D01*
X158493494Y-54647847D01*
X158551805Y-54507071D01*
X158571694Y-54356000D01*
X158551805Y-54204929D01*
X158493494Y-54064153D01*
X158493493Y-54064152D01*
X158400734Y-53943265D01*
X158279846Y-53850505D01*
X158139071Y-53792195D01*
X157987999Y-53772305D01*
X157836928Y-53792195D01*
X157696153Y-53850505D01*
X157575265Y-53943265D01*
X157482505Y-54064153D01*
X157424195Y-54204928D01*
X157404305Y-54356001D01*
X157410149Y-54400390D01*
X157404629Y-54456433D01*
X157374891Y-54504255D01*
X150790167Y-61088981D01*
X150749939Y-61115861D01*
X150702486Y-61125300D01*
X150681819Y-61125300D01*
X150671011Y-61124828D01*
X150632960Y-61121498D01*
X150596070Y-61131383D01*
X150585513Y-61133724D01*
X150546919Y-61140530D01*
X150521803Y-61150932D01*
X150489704Y-61173408D01*
X150480587Y-61179216D01*
X150447506Y-61198316D01*
X150422952Y-61227578D01*
X150415646Y-61235550D01*
X147300752Y-64350444D01*
X147242018Y-64383337D01*
X147174753Y-64380694D01*
X147118780Y-64343294D01*
X147090598Y-64282160D01*
X147098510Y-64215310D01*
X147104734Y-64200284D01*
X147121805Y-64159071D01*
X147128529Y-64107985D01*
X147134945Y-64081768D01*
X147140700Y-64065959D01*
X147140700Y-64023677D01*
X147141727Y-64008000D01*
X147140700Y-63992323D01*
X147140700Y-63950042D01*
X147138154Y-63943047D01*
X147134945Y-63934232D01*
X147128530Y-63908014D01*
X147121805Y-63856929D01*
X147063494Y-63716153D01*
X147041910Y-63688025D01*
X146970734Y-63595265D01*
X146849846Y-63502505D01*
X146709071Y-63444195D01*
X146558000Y-63424305D01*
X146406928Y-63444195D01*
X146266153Y-63502505D01*
X146145265Y-63595265D01*
X146052505Y-63716153D01*
X145994195Y-63856928D01*
X145974305Y-64007999D01*
X145994195Y-64159071D01*
X146052505Y-64299846D01*
X146145265Y-64420734D01*
X146166512Y-64437037D01*
X146266153Y-64513494D01*
X146406929Y-64571805D01*
X146558000Y-64591694D01*
X146709071Y-64571805D01*
X146765313Y-64548508D01*
X146832162Y-64540597D01*
X146893296Y-64568780D01*
X146930695Y-64624752D01*
X146933338Y-64692017D01*
X146900445Y-64750751D01*
X145841554Y-65809642D01*
X145833582Y-65816947D01*
X145804318Y-65841504D01*
X145785216Y-65874587D01*
X145779408Y-65883704D01*
X145756932Y-65915803D01*
X145746528Y-65940922D01*
X145739722Y-65979517D01*
X145737382Y-65990072D01*
X145727498Y-66026959D01*
X145730828Y-66065010D01*
X145731300Y-66075818D01*
X145731300Y-74920232D01*
X145730828Y-74931040D01*
X145727498Y-74969091D01*
X145737382Y-75005980D01*
X145739722Y-75016535D01*
X145746528Y-75055129D01*
X145756933Y-75080246D01*
X145757500Y-75081056D01*
X145757501Y-75081058D01*
X145777793Y-75110039D01*
X145779408Y-75112345D01*
X145785218Y-75121465D01*
X145804316Y-75154543D01*
X145833576Y-75179095D01*
X145841552Y-75186404D01*
X147208981Y-76553833D01*
X147235861Y-76594061D01*
X147245300Y-76641514D01*
X147245300Y-82356516D01*
X147225881Y-82423141D01*
X147173705Y-82468898D01*
X147105116Y-82479455D01*
X147066001Y-82474305D01*
X146914928Y-82494195D01*
X146774153Y-82552505D01*
X146653265Y-82645265D01*
X146560505Y-82766153D01*
X146502195Y-82906928D01*
X146482305Y-83057999D01*
X146502195Y-83209071D01*
X146522399Y-83257848D01*
X146531241Y-83317454D01*
X146510940Y-83374191D01*
X146466291Y-83414658D01*
X146407838Y-83429300D01*
X144960430Y-83429300D01*
X144949622Y-83428828D01*
X144911571Y-83425498D01*
X144874681Y-83435383D01*
X144864124Y-83437724D01*
X144825530Y-83444530D01*
X144800414Y-83454932D01*
X144768315Y-83477408D01*
X144759198Y-83483216D01*
X144726117Y-83502316D01*
X144701563Y-83531578D01*
X144694257Y-83539550D01*
X143978755Y-84255052D01*
X143930933Y-84284790D01*
X143874890Y-84290310D01*
X143830501Y-84284466D01*
X143679428Y-84304356D01*
X143630652Y-84324560D01*
X143571046Y-84333402D01*
X143514309Y-84313101D01*
X143473842Y-84268452D01*
X143459200Y-84209999D01*
X143459200Y-82853177D01*
X143459672Y-82842369D01*
X143463000Y-82804330D01*
X143453115Y-82767440D01*
X143450776Y-82756889D01*
X143444142Y-82719265D01*
X143444140Y-82719263D01*
X143443969Y-82718288D01*
X143433567Y-82693175D01*
X143432999Y-82692364D01*
X143432999Y-82692363D01*
X143411087Y-82661070D01*
X143405281Y-82651956D01*
X143386182Y-82618876D01*
X143356921Y-82594323D01*
X143348946Y-82587015D01*
X142561083Y-81799152D01*
X142531344Y-81751328D01*
X142525825Y-81695288D01*
X142531670Y-81650897D01*
X142511781Y-81499826D01*
X142453470Y-81359050D01*
X142360710Y-81238162D01*
X142318856Y-81206047D01*
X142279781Y-81155124D01*
X142271403Y-81091485D01*
X142295967Y-81032184D01*
X142346888Y-80993111D01*
X142461847Y-80945494D01*
X142582734Y-80852734D01*
X142675494Y-80731847D01*
X142733805Y-80591071D01*
X142753694Y-80440000D01*
X142734654Y-80295377D01*
X144645805Y-80295377D01*
X144665695Y-80446449D01*
X144724005Y-80587224D01*
X144816765Y-80708112D01*
X144937652Y-80800871D01*
X144937653Y-80800872D01*
X145078429Y-80859183D01*
X145229500Y-80879072D01*
X145380571Y-80859183D01*
X145521347Y-80800872D01*
X145642234Y-80708112D01*
X145734994Y-80587225D01*
X145793305Y-80446449D01*
X145813194Y-80295378D01*
X145793305Y-80144307D01*
X145734994Y-80003531D01*
X145734993Y-80003530D01*
X145642234Y-79882643D01*
X145521346Y-79789883D01*
X145380571Y-79731573D01*
X145229500Y-79711683D01*
X145078428Y-79731573D01*
X144937653Y-79789883D01*
X144816765Y-79882643D01*
X144724005Y-80003531D01*
X144665695Y-80144306D01*
X144645805Y-80295377D01*
X142734654Y-80295377D01*
X142733805Y-80288929D01*
X142675494Y-80148153D01*
X142672542Y-80144306D01*
X142582734Y-80027265D01*
X142461846Y-79934505D01*
X142321071Y-79876195D01*
X142170000Y-79856305D01*
X142018928Y-79876195D01*
X141878153Y-79934505D01*
X141757265Y-80027265D01*
X141664505Y-80148153D01*
X141606195Y-80288928D01*
X141586305Y-80440000D01*
X141606195Y-80591071D01*
X141664505Y-80731846D01*
X141757265Y-80852734D01*
X141799119Y-80884849D01*
X141838194Y-80935772D01*
X141846572Y-80999410D01*
X141822009Y-81058711D01*
X141771086Y-81097786D01*
X141656128Y-81145403D01*
X141535241Y-81238162D01*
X141442481Y-81359050D01*
X141384171Y-81499825D01*
X141364281Y-81650896D01*
X127644315Y-81650896D01*
X127634574Y-77865453D01*
X143916805Y-77865453D01*
X143936695Y-78016524D01*
X143995005Y-78157299D01*
X144087765Y-78278187D01*
X144208652Y-78370946D01*
X144208653Y-78370947D01*
X144349429Y-78429258D01*
X144500500Y-78449147D01*
X144651571Y-78429258D01*
X144792347Y-78370947D01*
X144913234Y-78278187D01*
X145005994Y-78157300D01*
X145064305Y-78016524D01*
X145084194Y-77865453D01*
X145064305Y-77714382D01*
X145005994Y-77573606D01*
X144998393Y-77563700D01*
X144913234Y-77452718D01*
X144792346Y-77359958D01*
X144651571Y-77301648D01*
X144500500Y-77281758D01*
X144349428Y-77301648D01*
X144208653Y-77359958D01*
X144087765Y-77452718D01*
X143995005Y-77573606D01*
X143936695Y-77714381D01*
X143916805Y-77865453D01*
X127634574Y-77865453D01*
X127632501Y-77060000D01*
X140311120Y-77060000D01*
X140331732Y-77203368D01*
X140391903Y-77335122D01*
X140486752Y-77444584D01*
X140486754Y-77444586D01*
X140608604Y-77522894D01*
X140678091Y-77543297D01*
X140747578Y-77563700D01*
X140747579Y-77563700D01*
X140892421Y-77563700D01*
X140892422Y-77563700D01*
X140938745Y-77550098D01*
X141031396Y-77522894D01*
X141153246Y-77444586D01*
X141248097Y-77335121D01*
X141308267Y-77203368D01*
X141328880Y-77060000D01*
X141308267Y-76916632D01*
X141303180Y-76905494D01*
X141248096Y-76784877D01*
X141153247Y-76675415D01*
X141153246Y-76675414D01*
X141031396Y-76597106D01*
X141031395Y-76597105D01*
X141031394Y-76597105D01*
X140892422Y-76556300D01*
X140892421Y-76556300D01*
X140747579Y-76556300D01*
X140747578Y-76556300D01*
X140608605Y-76597105D01*
X140486752Y-76675415D01*
X140391903Y-76784877D01*
X140331732Y-76916631D01*
X140311120Y-77060000D01*
X127632501Y-77060000D01*
X127628545Y-75522773D01*
X143976805Y-75522773D01*
X143996695Y-75673845D01*
X144055005Y-75814620D01*
X144147765Y-75935508D01*
X144215218Y-75987266D01*
X144268653Y-76028268D01*
X144409429Y-76086579D01*
X144419443Y-76087897D01*
X144472146Y-76107732D01*
X144510642Y-76148832D01*
X144526991Y-76202718D01*
X144522073Y-76232514D01*
X144523826Y-76232745D01*
X144501805Y-76400000D01*
X144521695Y-76551071D01*
X144580005Y-76691846D01*
X144672765Y-76812734D01*
X144793653Y-76905494D01*
X144934429Y-76963805D01*
X145085500Y-76983694D01*
X145236571Y-76963805D01*
X145377347Y-76905494D01*
X145498234Y-76812734D01*
X145590994Y-76691847D01*
X145649305Y-76551071D01*
X145669194Y-76400000D01*
X145649305Y-76248929D01*
X145590994Y-76108153D01*
X145529696Y-76028268D01*
X145498234Y-75987265D01*
X145377346Y-75894505D01*
X145236571Y-75836195D01*
X145226553Y-75834876D01*
X145173846Y-75815035D01*
X145135350Y-75773928D01*
X145119007Y-75720034D01*
X145123926Y-75690259D01*
X145122174Y-75690029D01*
X145144194Y-75522773D01*
X145141575Y-75502884D01*
X145124305Y-75371703D01*
X145065994Y-75230927D01*
X144973234Y-75110039D01*
X144852346Y-75017279D01*
X144711571Y-74958969D01*
X144560500Y-74939079D01*
X144409428Y-74958969D01*
X144268653Y-75017279D01*
X144147765Y-75110039D01*
X144055005Y-75230927D01*
X143996695Y-75371702D01*
X143976805Y-75522773D01*
X127628545Y-75522773D01*
X127606987Y-67144999D01*
X131591305Y-67144999D01*
X131611195Y-67296071D01*
X131669505Y-67436846D01*
X131762265Y-67557734D01*
X131819755Y-67601847D01*
X131883153Y-67650494D01*
X132023929Y-67708805D01*
X132175000Y-67728694D01*
X132326071Y-67708805D01*
X132466847Y-67650494D01*
X132587734Y-67557734D01*
X132680494Y-67436847D01*
X132737178Y-67300000D01*
X133596305Y-67300000D01*
X133616195Y-67451071D01*
X133674505Y-67591846D01*
X133767265Y-67712734D01*
X133867961Y-67790000D01*
X133888153Y-67805494D01*
X134028929Y-67863805D01*
X134180000Y-67883694D01*
X134331071Y-67863805D01*
X134471847Y-67805494D01*
X134592734Y-67712734D01*
X134685494Y-67591847D01*
X134743805Y-67451071D01*
X134763694Y-67300000D01*
X134743805Y-67148929D01*
X134685494Y-67008153D01*
X134601185Y-66898279D01*
X134592734Y-66887265D01*
X134471846Y-66794505D01*
X134331071Y-66736195D01*
X134180000Y-66716305D01*
X134028928Y-66736195D01*
X133888153Y-66794505D01*
X133767265Y-66887265D01*
X133674505Y-67008153D01*
X133616195Y-67148928D01*
X133596305Y-67300000D01*
X132737178Y-67300000D01*
X132738805Y-67296071D01*
X132758694Y-67145000D01*
X132738805Y-66993929D01*
X132680494Y-66853153D01*
X132635492Y-66794505D01*
X132587734Y-66732265D01*
X132466846Y-66639505D01*
X132326071Y-66581195D01*
X132175000Y-66561305D01*
X132023928Y-66581195D01*
X131883153Y-66639505D01*
X131762265Y-66732265D01*
X131669505Y-66853153D01*
X131611195Y-66993928D01*
X131591305Y-67144999D01*
X127606987Y-67144999D01*
X127600000Y-64430000D01*
X122942232Y-64430000D01*
X122880248Y-64413396D01*
X122834863Y-64368032D01*
X122818232Y-64306056D01*
X122818184Y-64200284D01*
X122816393Y-60220000D01*
X129746305Y-60220000D01*
X129766195Y-60371071D01*
X129824505Y-60511846D01*
X129917265Y-60632734D01*
X130038153Y-60725494D01*
X130178929Y-60783805D01*
X130310110Y-60801075D01*
X130329999Y-60803694D01*
X130329999Y-60803693D01*
X130330000Y-60803694D01*
X130481071Y-60783805D01*
X130621847Y-60725494D01*
X130742734Y-60632734D01*
X130835494Y-60511847D01*
X130893805Y-60371071D01*
X130913694Y-60220000D01*
X130893805Y-60068929D01*
X130835494Y-59928153D01*
X130806218Y-59890000D01*
X130742734Y-59807265D01*
X130621846Y-59714505D01*
X130481071Y-59656195D01*
X130330000Y-59636305D01*
X130178928Y-59656195D01*
X130038153Y-59714505D01*
X129917265Y-59807265D01*
X129824505Y-59928153D01*
X129766195Y-60068928D01*
X129746305Y-60220000D01*
X122816393Y-60220000D01*
X122815925Y-59179999D01*
X133711241Y-59179999D01*
X133731443Y-59449578D01*
X133791600Y-59713143D01*
X133890364Y-59964789D01*
X134015682Y-60181847D01*
X134025534Y-60198910D01*
X134194087Y-60410268D01*
X134392258Y-60594144D01*
X134615621Y-60746430D01*
X134859186Y-60863725D01*
X135117513Y-60943409D01*
X135384831Y-60983700D01*
X135655169Y-60983700D01*
X135922487Y-60943409D01*
X136180814Y-60863725D01*
X136424379Y-60746430D01*
X136647742Y-60594144D01*
X136845913Y-60410268D01*
X137014466Y-60198910D01*
X137149635Y-59964791D01*
X137178988Y-59890000D01*
X147416305Y-59890000D01*
X147436195Y-60041071D01*
X147494505Y-60181846D01*
X147587265Y-60302734D01*
X147676324Y-60371071D01*
X147708153Y-60395494D01*
X147848929Y-60453805D01*
X148000000Y-60473694D01*
X148151071Y-60453805D01*
X148291847Y-60395494D01*
X148412734Y-60302734D01*
X148505494Y-60181847D01*
X148563805Y-60041071D01*
X148583694Y-59890000D01*
X148563805Y-59738929D01*
X148505494Y-59598153D01*
X148491782Y-59580283D01*
X148412734Y-59477265D01*
X148291846Y-59384505D01*
X148151071Y-59326195D01*
X148000000Y-59306305D01*
X147848928Y-59326195D01*
X147708153Y-59384505D01*
X147587265Y-59477265D01*
X147494505Y-59598153D01*
X147436195Y-59738928D01*
X147416305Y-59890000D01*
X137178988Y-59890000D01*
X137248400Y-59713141D01*
X137308556Y-59449581D01*
X137328758Y-59180000D01*
X137308556Y-58910419D01*
X137248400Y-58646859D01*
X137149635Y-58395209D01*
X137014466Y-58161090D01*
X136845913Y-57949732D01*
X136647742Y-57765856D01*
X136598266Y-57732124D01*
X136424379Y-57613570D01*
X136180814Y-57496275D01*
X135922486Y-57416590D01*
X135655169Y-57376300D01*
X135384831Y-57376300D01*
X135117513Y-57416590D01*
X134859185Y-57496275D01*
X134615620Y-57613570D01*
X134392258Y-57765855D01*
X134194087Y-57949731D01*
X134025533Y-58161090D01*
X133890364Y-58395210D01*
X133791600Y-58646856D01*
X133731443Y-58910421D01*
X133711241Y-59179999D01*
X122815925Y-59179999D01*
X122815687Y-58650000D01*
X129781120Y-58650000D01*
X129801732Y-58793368D01*
X129861903Y-58925122D01*
X129956752Y-59034584D01*
X129956754Y-59034586D01*
X130078604Y-59112894D01*
X130148091Y-59133297D01*
X130217578Y-59153700D01*
X130217579Y-59153700D01*
X130362421Y-59153700D01*
X130362422Y-59153700D01*
X130408746Y-59140097D01*
X130501396Y-59112894D01*
X130623246Y-59034586D01*
X130718097Y-58925121D01*
X130778267Y-58793368D01*
X130798880Y-58650000D01*
X130778267Y-58506632D01*
X130718097Y-58374879D01*
X130718096Y-58374878D01*
X130718096Y-58374877D01*
X130623247Y-58265415D01*
X130623246Y-58265414D01*
X130501396Y-58187106D01*
X130501395Y-58187105D01*
X130501394Y-58187105D01*
X130362422Y-58146300D01*
X130362421Y-58146300D01*
X130217579Y-58146300D01*
X130217578Y-58146300D01*
X130078605Y-58187105D01*
X129956752Y-58265415D01*
X129861903Y-58374877D01*
X129801732Y-58506631D01*
X129781120Y-58650000D01*
X122815687Y-58650000D01*
X122814558Y-56139999D01*
X123271120Y-56139999D01*
X123291732Y-56283368D01*
X123351903Y-56415122D01*
X123439910Y-56516688D01*
X123446754Y-56524586D01*
X123568604Y-56602894D01*
X123638091Y-56623296D01*
X123707578Y-56643700D01*
X123707579Y-56643700D01*
X123852421Y-56643700D01*
X123852422Y-56643700D01*
X123898745Y-56630098D01*
X123991396Y-56602894D01*
X124113246Y-56524586D01*
X124208097Y-56415121D01*
X124268267Y-56283368D01*
X124288880Y-56140000D01*
X124280253Y-56079999D01*
X126811143Y-56079999D01*
X126831726Y-56302128D01*
X126892772Y-56516688D01*
X126992208Y-56716380D01*
X127126644Y-56894403D01*
X127291500Y-57044689D01*
X127445681Y-57140153D01*
X127481166Y-57162124D01*
X127689181Y-57242710D01*
X127908461Y-57283700D01*
X128131537Y-57283700D01*
X128131539Y-57283700D01*
X128350819Y-57242710D01*
X128558834Y-57162124D01*
X128748499Y-57044689D01*
X128913356Y-56894402D01*
X129047791Y-56716381D01*
X129147226Y-56516690D01*
X129208274Y-56302127D01*
X129228857Y-56080000D01*
X141311143Y-56080000D01*
X141331726Y-56302128D01*
X141392772Y-56516688D01*
X141492208Y-56716380D01*
X141626644Y-56894403D01*
X141791500Y-57044689D01*
X141945681Y-57140153D01*
X141981166Y-57162124D01*
X142189181Y-57242710D01*
X142408461Y-57283700D01*
X142631537Y-57283700D01*
X142631539Y-57283700D01*
X142850819Y-57242710D01*
X143058834Y-57162124D01*
X143248499Y-57044689D01*
X143413356Y-56894402D01*
X143547791Y-56716381D01*
X143647226Y-56516690D01*
X143708274Y-56302127D01*
X143709398Y-56290000D01*
X145271120Y-56290000D01*
X145291732Y-56433368D01*
X145351903Y-56565122D01*
X145419991Y-56643700D01*
X145446754Y-56674586D01*
X145568604Y-56752894D01*
X145638091Y-56773296D01*
X145707578Y-56793700D01*
X145707579Y-56793700D01*
X145852421Y-56793700D01*
X145852422Y-56793700D01*
X145898746Y-56780097D01*
X145991396Y-56752894D01*
X146113246Y-56674586D01*
X146208097Y-56565121D01*
X146268267Y-56433368D01*
X146288880Y-56290000D01*
X146268267Y-56146632D01*
X146265238Y-56140000D01*
X146208096Y-56014877D01*
X146113247Y-55905415D01*
X146113246Y-55905414D01*
X145991396Y-55827106D01*
X145991395Y-55827105D01*
X145991394Y-55827105D01*
X145852422Y-55786300D01*
X145852421Y-55786300D01*
X145707579Y-55786300D01*
X145707578Y-55786300D01*
X145568605Y-55827105D01*
X145446752Y-55905415D01*
X145351903Y-56014877D01*
X145291732Y-56146631D01*
X145271120Y-56290000D01*
X143709398Y-56290000D01*
X143728857Y-56080000D01*
X143708274Y-55857873D01*
X143685325Y-55777215D01*
X143647227Y-55643311D01*
X143547791Y-55443619D01*
X143413355Y-55265596D01*
X143248499Y-55115310D01*
X143058836Y-54997877D01*
X143058834Y-54997876D01*
X142850819Y-54917290D01*
X142631539Y-54876300D01*
X142408461Y-54876300D01*
X142189180Y-54917290D01*
X142189181Y-54917290D01*
X141981163Y-54997877D01*
X141791500Y-55115310D01*
X141626644Y-55265596D01*
X141492208Y-55443619D01*
X141392772Y-55643311D01*
X141331726Y-55857871D01*
X141311143Y-56080000D01*
X129228857Y-56080000D01*
X129208274Y-55857873D01*
X129185325Y-55777215D01*
X129147227Y-55643311D01*
X129047791Y-55443619D01*
X128913355Y-55265596D01*
X128748497Y-55115309D01*
X128737383Y-55108427D01*
X128693464Y-55061752D01*
X128678716Y-54999382D01*
X128697078Y-54937980D01*
X128743646Y-54893947D01*
X128843233Y-54840053D01*
X128890056Y-54803609D01*
X128020000Y-53933553D01*
X127149942Y-54803609D01*
X127149942Y-54803610D01*
X127196767Y-54840055D01*
X127296353Y-54893948D01*
X127342921Y-54937981D01*
X127361283Y-54999384D01*
X127346535Y-55061754D01*
X127302615Y-55108429D01*
X127291500Y-55115311D01*
X127126644Y-55265596D01*
X126992208Y-55443619D01*
X126892772Y-55643311D01*
X126831726Y-55857871D01*
X126811143Y-56079999D01*
X124280253Y-56079999D01*
X124271230Y-56017244D01*
X124268267Y-55996631D01*
X124208096Y-55864877D01*
X124113247Y-55755415D01*
X124113246Y-55755414D01*
X123991396Y-55677106D01*
X123991395Y-55677105D01*
X123991394Y-55677105D01*
X123852422Y-55636300D01*
X123852421Y-55636300D01*
X123707579Y-55636300D01*
X123707578Y-55636300D01*
X123568605Y-55677105D01*
X123446752Y-55755415D01*
X123351903Y-55864877D01*
X123291732Y-55996631D01*
X123271120Y-56139999D01*
X122814558Y-56139999D01*
X122813406Y-53580000D01*
X126514858Y-53580000D01*
X126535386Y-53827732D01*
X126596413Y-54068721D01*
X126696268Y-54296370D01*
X126796563Y-54449882D01*
X126796564Y-54449882D01*
X127666447Y-53580001D01*
X128373553Y-53580001D01*
X129243434Y-54449882D01*
X129343730Y-54296369D01*
X129443586Y-54068721D01*
X129504613Y-53827732D01*
X129525141Y-53580000D01*
X129504613Y-53332267D01*
X129443586Y-53091278D01*
X129343730Y-52863630D01*
X129243434Y-52710116D01*
X128373553Y-53580000D01*
X128373553Y-53580001D01*
X127666447Y-53580001D01*
X127666447Y-53580000D01*
X126796564Y-52710116D01*
X126696266Y-52863634D01*
X126596413Y-53091278D01*
X126535386Y-53332267D01*
X126514858Y-53580000D01*
X122813406Y-53580000D01*
X122812740Y-52100065D01*
X126816300Y-52100065D01*
X126828118Y-52159478D01*
X126828118Y-52159479D01*
X126828119Y-52159480D01*
X126873140Y-52226860D01*
X126940520Y-52271881D01*
X126970227Y-52277790D01*
X126999935Y-52283700D01*
X127025890Y-52283700D01*
X127073343Y-52293139D01*
X127113571Y-52320019D01*
X128020000Y-53226447D01*
X128020001Y-53226447D01*
X128926428Y-52320019D01*
X128950985Y-52303610D01*
X141649942Y-52303610D01*
X141696766Y-52340055D01*
X141915393Y-52458368D01*
X142150506Y-52539083D01*
X142395707Y-52580000D01*
X142644293Y-52580000D01*
X142889493Y-52539083D01*
X143124606Y-52458368D01*
X143343233Y-52340053D01*
X143390056Y-52303609D01*
X142520000Y-51433553D01*
X141649942Y-52303609D01*
X141649942Y-52303610D01*
X128950985Y-52303610D01*
X128966656Y-52293139D01*
X129014109Y-52283700D01*
X129040065Y-52283700D01*
X129059869Y-52279760D01*
X129099480Y-52271881D01*
X129166860Y-52226860D01*
X129211881Y-52159480D01*
X129223700Y-52100064D01*
X129223700Y-51080000D01*
X141014858Y-51080000D01*
X141035386Y-51327732D01*
X141096413Y-51568721D01*
X141196268Y-51796370D01*
X141296563Y-51949882D01*
X141296564Y-51949882D01*
X142166447Y-51080001D01*
X142166447Y-51080000D01*
X142873553Y-51080000D01*
X143743434Y-51949882D01*
X143843730Y-51796369D01*
X143903547Y-51660000D01*
X148561120Y-51660000D01*
X148581732Y-51803368D01*
X148641903Y-51935122D01*
X148736752Y-52044584D01*
X148736754Y-52044586D01*
X148858604Y-52122894D01*
X148928091Y-52143297D01*
X148997578Y-52163700D01*
X148997579Y-52163700D01*
X149142421Y-52163700D01*
X149142422Y-52163700D01*
X149188746Y-52150097D01*
X149281396Y-52122894D01*
X149403246Y-52044586D01*
X149498097Y-51935121D01*
X149558267Y-51803368D01*
X149578880Y-51660000D01*
X149558267Y-51516632D01*
X149555522Y-51510622D01*
X149498208Y-51385122D01*
X149498097Y-51384879D01*
X149498096Y-51384878D01*
X149498096Y-51384877D01*
X149403247Y-51275415D01*
X149403246Y-51275414D01*
X149281396Y-51197106D01*
X149281395Y-51197105D01*
X149281394Y-51197105D01*
X149142422Y-51156300D01*
X149142421Y-51156300D01*
X148997579Y-51156300D01*
X148997578Y-51156300D01*
X148858605Y-51197105D01*
X148736752Y-51275415D01*
X148641903Y-51384877D01*
X148581732Y-51516631D01*
X148561120Y-51660000D01*
X143903547Y-51660000D01*
X143943586Y-51568721D01*
X144004613Y-51327732D01*
X144025141Y-51080000D01*
X144004613Y-50832267D01*
X143943586Y-50591278D01*
X143843730Y-50363630D01*
X143743434Y-50210116D01*
X142873553Y-51080000D01*
X142166447Y-51080000D01*
X141296564Y-50210116D01*
X141196266Y-50363634D01*
X141096413Y-50591278D01*
X141035386Y-50832267D01*
X141014858Y-51080000D01*
X129223700Y-51080000D01*
X129223700Y-50059936D01*
X129211881Y-50000520D01*
X129166860Y-49933140D01*
X129099480Y-49888119D01*
X129099479Y-49888118D01*
X129099478Y-49888118D01*
X129040065Y-49876300D01*
X129040064Y-49876300D01*
X126999936Y-49876300D01*
X126999935Y-49876300D01*
X126940521Y-49888118D01*
X126873140Y-49933140D01*
X126828118Y-50000521D01*
X126816300Y-50059935D01*
X126816300Y-52100065D01*
X122812740Y-52100065D01*
X122812295Y-51110000D01*
X123481120Y-51110000D01*
X123501732Y-51253368D01*
X123561903Y-51385122D01*
X123603869Y-51433553D01*
X123656754Y-51494586D01*
X123778604Y-51572894D01*
X123848091Y-51593296D01*
X123917578Y-51613700D01*
X123917579Y-51613700D01*
X124062421Y-51613700D01*
X124062422Y-51613700D01*
X124108745Y-51600098D01*
X124201396Y-51572894D01*
X124323246Y-51494586D01*
X124418097Y-51385121D01*
X124478267Y-51253368D01*
X124498880Y-51110000D01*
X124478267Y-50966632D01*
X124418097Y-50834879D01*
X124418096Y-50834878D01*
X124418096Y-50834877D01*
X124323247Y-50725415D01*
X124323246Y-50725414D01*
X124201396Y-50647106D01*
X124201395Y-50647105D01*
X124201394Y-50647105D01*
X124062422Y-50606300D01*
X124062421Y-50606300D01*
X123917579Y-50606300D01*
X123917578Y-50606300D01*
X123778605Y-50647105D01*
X123656752Y-50725415D01*
X123561903Y-50834877D01*
X123501732Y-50966631D01*
X123481120Y-51110000D01*
X122812295Y-51110000D01*
X122811731Y-49856390D01*
X141649942Y-49856390D01*
X142520000Y-50726447D01*
X142520001Y-50726447D01*
X143390057Y-49856390D01*
X143390056Y-49856388D01*
X143343235Y-49819947D01*
X143124606Y-49701631D01*
X142889493Y-49620916D01*
X142644293Y-49580000D01*
X142395707Y-49580000D01*
X142150506Y-49620916D01*
X141915393Y-49701631D01*
X141696764Y-49819946D01*
X141649942Y-49856388D01*
X141649942Y-49856390D01*
X122811731Y-49856390D01*
X122810851Y-47900000D01*
X127341120Y-47900000D01*
X127361732Y-48043368D01*
X127421903Y-48175122D01*
X127486422Y-48249581D01*
X127516754Y-48284586D01*
X127638604Y-48362894D01*
X127708091Y-48383296D01*
X127777578Y-48403700D01*
X127777579Y-48403700D01*
X127922421Y-48403700D01*
X127922422Y-48403700D01*
X127968746Y-48390097D01*
X128061396Y-48362894D01*
X128183246Y-48284586D01*
X128278097Y-48175121D01*
X128338267Y-48043368D01*
X128347378Y-47980000D01*
X133711241Y-47980000D01*
X133731443Y-48249578D01*
X133791600Y-48513143D01*
X133890364Y-48764789D01*
X133890365Y-48764791D01*
X134025534Y-48998910D01*
X134194087Y-49210268D01*
X134392258Y-49394144D01*
X134615621Y-49546430D01*
X134859186Y-49663725D01*
X135117513Y-49743409D01*
X135384831Y-49783700D01*
X135655169Y-49783700D01*
X135922487Y-49743409D01*
X136180814Y-49663725D01*
X136424379Y-49546430D01*
X136477812Y-49510000D01*
X211161252Y-49510000D01*
X211181428Y-49869267D01*
X211241700Y-50224009D01*
X211281926Y-50363634D01*
X211341316Y-50569782D01*
X211479018Y-50902224D01*
X211653075Y-51217157D01*
X211770591Y-51382780D01*
X211861303Y-51510627D01*
X211994793Y-51660000D01*
X212101073Y-51778927D01*
X212214665Y-51880439D01*
X212369372Y-52018696D01*
X212369378Y-52018700D01*
X212662843Y-52226925D01*
X212977776Y-52400982D01*
X213310218Y-52538684D01*
X213655986Y-52638298D01*
X213655987Y-52638298D01*
X213655990Y-52638299D01*
X213771893Y-52657991D01*
X214010734Y-52698572D01*
X214370000Y-52718748D01*
X214729266Y-52698572D01*
X215029573Y-52647547D01*
X215084009Y-52638299D01*
X215084010Y-52638298D01*
X215084014Y-52638298D01*
X215429782Y-52538684D01*
X215762224Y-52400982D01*
X216077157Y-52226925D01*
X216370622Y-52018700D01*
X216370624Y-52018697D01*
X216370627Y-52018696D01*
X216464145Y-51935122D01*
X216638927Y-51778927D01*
X216831158Y-51563821D01*
X216878696Y-51510627D01*
X216890078Y-51494586D01*
X217086925Y-51217157D01*
X217260982Y-50902224D01*
X217398684Y-50569782D01*
X217498298Y-50224014D01*
X217558572Y-49869266D01*
X217578748Y-49510000D01*
X217558572Y-49150734D01*
X217498298Y-48795986D01*
X217398684Y-48450218D01*
X217260982Y-48117776D01*
X217086925Y-47802843D01*
X216921300Y-47569417D01*
X216878696Y-47509372D01*
X216740439Y-47354665D01*
X216638927Y-47241073D01*
X216453794Y-47075627D01*
X216370627Y-47001303D01*
X216129151Y-46829967D01*
X216077157Y-46793075D01*
X215762224Y-46619018D01*
X215429782Y-46481316D01*
X215231844Y-46424291D01*
X215084009Y-46381700D01*
X214729267Y-46321428D01*
X214370000Y-46301252D01*
X214010732Y-46321428D01*
X213655990Y-46381700D01*
X213310215Y-46481317D01*
X212977777Y-46619017D01*
X212662843Y-46793075D01*
X212369372Y-47001303D01*
X212101073Y-47241073D01*
X211861303Y-47509372D01*
X211653075Y-47802843D01*
X211479017Y-48117777D01*
X211341317Y-48450215D01*
X211241700Y-48795990D01*
X211181428Y-49150732D01*
X211161252Y-49510000D01*
X136477812Y-49510000D01*
X136647742Y-49394144D01*
X136845913Y-49210268D01*
X137014466Y-48998910D01*
X137149635Y-48764791D01*
X137248400Y-48513141D01*
X137308556Y-48249581D01*
X137328758Y-47980000D01*
X137308556Y-47710419D01*
X137299330Y-47669999D01*
X167141120Y-47669999D01*
X167161732Y-47813368D01*
X167221903Y-47945122D01*
X167316752Y-48054584D01*
X167316754Y-48054586D01*
X167438604Y-48132894D01*
X167508091Y-48153296D01*
X167577578Y-48173700D01*
X167577579Y-48173700D01*
X167722421Y-48173700D01*
X167722422Y-48173700D01*
X167768745Y-48160098D01*
X167861396Y-48132894D01*
X167983246Y-48054586D01*
X168078097Y-47945121D01*
X168138267Y-47813368D01*
X168158880Y-47670000D01*
X168138267Y-47526632D01*
X168133144Y-47515415D01*
X168078096Y-47394877D01*
X167983247Y-47285415D01*
X167983246Y-47285414D01*
X167861396Y-47207106D01*
X167861395Y-47207105D01*
X167861394Y-47207105D01*
X167722422Y-47166300D01*
X167722421Y-47166300D01*
X167577579Y-47166300D01*
X167577578Y-47166300D01*
X167438605Y-47207105D01*
X167316752Y-47285415D01*
X167221903Y-47394877D01*
X167161732Y-47526631D01*
X167141120Y-47669999D01*
X137299330Y-47669999D01*
X137248400Y-47446859D01*
X137149635Y-47195209D01*
X137014466Y-46961090D01*
X136845913Y-46749732D01*
X136710838Y-46624401D01*
X136647741Y-46565855D01*
X136424379Y-46413570D01*
X136180814Y-46296275D01*
X135922486Y-46216590D01*
X135655169Y-46176300D01*
X135384831Y-46176300D01*
X135117513Y-46216590D01*
X134859185Y-46296275D01*
X134615620Y-46413570D01*
X134392258Y-46565855D01*
X134194087Y-46749731D01*
X134025533Y-46961090D01*
X133890364Y-47195210D01*
X133791600Y-47446856D01*
X133731443Y-47710421D01*
X133711241Y-47980000D01*
X128347378Y-47980000D01*
X128358880Y-47900000D01*
X128338267Y-47756632D01*
X128278097Y-47624879D01*
X128278096Y-47624878D01*
X128278096Y-47624877D01*
X128183247Y-47515415D01*
X128183246Y-47515414D01*
X128061396Y-47437106D01*
X128061395Y-47437105D01*
X128061394Y-47437105D01*
X127922422Y-47396300D01*
X127922421Y-47396300D01*
X127777579Y-47396300D01*
X127777578Y-47396300D01*
X127638605Y-47437105D01*
X127516752Y-47515415D01*
X127421903Y-47624877D01*
X127361732Y-47756631D01*
X127341120Y-47900000D01*
X122810851Y-47900000D01*
X122810502Y-47124894D01*
X122810884Y-47115117D01*
X122814951Y-47063431D01*
X122815009Y-47062745D01*
X122826997Y-46925716D01*
X122829946Y-46907607D01*
X122848587Y-46829965D01*
X122849375Y-46826859D01*
X122877016Y-46723702D01*
X122882214Y-46708390D01*
X122915011Y-46629210D01*
X122917126Y-46624401D01*
X122959863Y-46532752D01*
X122966483Y-46520434D01*
X123012373Y-46445547D01*
X123016476Y-46439289D01*
X123073285Y-46358157D01*
X123080531Y-46348799D01*
X123138102Y-46281392D01*
X123144661Y-46274297D01*
X123214297Y-46204661D01*
X123221392Y-46198102D01*
X123288799Y-46140531D01*
X123298157Y-46133285D01*
X123379289Y-46076476D01*
X123385547Y-46072373D01*
X123460434Y-46026483D01*
X123472752Y-46019863D01*
X123564401Y-45977126D01*
X123569210Y-45975011D01*
X123648390Y-45942214D01*
X123663702Y-45937016D01*
X123766859Y-45909375D01*
X123769967Y-45908587D01*
X123847607Y-45889946D01*
X123865716Y-45886997D01*
X124002931Y-45874992D01*
X124003142Y-45874974D01*
X124052882Y-45871060D01*
X124055147Y-45870882D01*
X124064872Y-45870500D01*
X124111516Y-45870500D01*
X124111783Y-45870445D01*
X216911181Y-45774388D01*
X216921034Y-45774770D01*
G37*
%TD.AperFunction*%
%TD*%
M02*
