M48
; DRILL file {KiCad 7.0.7} date Sat Nov  4 20:56:16 2023
; FORMAT={-:-/ absolute / inch / decimal}
; #@! TF.CreationDate,2023-11-04T20:56:16-05:00
; #@! TF.GenerationSoftware,Kicad,Pcbnew,7.0.7
; #@! TF.FileFunction,Plated,1,4,PTH
FMAT,2
INCH
; #@! TA.AperFunction,Plated,PTH,ViaDrill
T1C0.0157
; #@! TA.AperFunction,Plated,PTH,ComponentDrill
T2C0.0236
; #@! TA.AperFunction,Plated,PTH,ComponentDrill
T3C0.0394
; #@! TA.AperFunction,Plated,PTH,ComponentDrill
T4C0.0400
; #@! TA.AperFunction,Plated,PTH,ComponentDrill
T5C0.1024
%
G90
G05
T1
X4.8892Y-3.4708
X4.89Y-4.96
X4.9Y-6.22
X4.92Y-2.22
X4.96Y-3.61
X4.99Y-2.2
X4.9921Y-3.54
X5.0Y-2.02
X5.0012Y-2.4535
X5.0104Y-4.8404
X5.0327Y-3.3291
X5.04Y-2.64
X5.0407Y-2.7353
X5.0433Y-4.8295
X5.0644Y-2.7589
X5.0741Y-2.6992
X5.0762Y-3.1839
X5.08Y-1.94
X5.08Y-2.28
X5.08Y-2.66
X5.0849Y-3.4445
X5.0889Y-2.7835
X5.0944Y-4.865
X5.0986Y-2.7237
X5.12Y-3.14
X5.12Y-3.18
X5.12Y-4.96
X5.12Y-5.58
X5.1209Y-2.746
X5.126Y-3.3421
X5.13Y-2.64
X5.14Y-2.34
X5.15Y-3.16
X5.16Y-1.97
X5.16Y-2.78
X5.1638Y-4.7114
X5.1689Y-3.3746
X5.17Y-1.83
X5.18Y-2.12
X5.18Y-3.07
X5.18Y-4.14
X5.18Y-6.09
X5.1803Y-2.4465
X5.1823Y-4.7685
X5.19Y-3.33
X5.2067Y-4.6685
X5.228Y-3.4598
X5.2352Y-4.7685
X5.24Y-3.13
X5.2529Y-4.865
X5.2618Y-2.8606
X5.2695Y-4.8917
X5.27Y-2.3
X5.27Y-2.43
X5.2732Y-3.3756
X5.2803Y-5.8945
X5.2894Y-2.7378
X5.3Y-3.4
X5.3Y-3.71
X5.3Y-5.0
X5.32Y-2.43
X5.32Y-5.58
X5.32Y-5.85
X5.33Y-3.54
X5.34Y-6.09
X5.3566Y-3.7051
X5.3573Y-2.5107
X5.3602Y-3.6559
X5.37Y-2.3
X5.38Y-5.31
X5.39Y-3.34
X5.39Y-5.67
X5.3917Y-2.3657
X5.4232Y-3.4071
X5.4327Y-2.7374
X5.45Y-2.51
X5.47Y-3.41
X5.51Y-5.4
X5.5118Y-2.8224
X5.52Y-3.51
X5.52Y-3.63
X5.54Y-2.51
X5.54Y-4.04
X5.56Y-3.4
X5.56Y-3.9
X5.5634Y-4.2277
X5.5756Y-4.2567
X5.58Y-3.13
X5.6Y-2.69
X5.6Y-4.49
X5.6Y-4.69
X5.6Y-4.87
X5.6008Y-4.2756
X5.6058Y-4.1717
X5.62Y-2.93
X5.6281Y-4.194
X5.6291Y-4.3
X5.6335Y-3.5091
X5.6462Y-3.1739
X5.65Y-2.5
X5.6553Y-4.2211
X5.66Y-4.33
X5.6632Y-3.0543
X5.6671Y-3.0894
X5.6729Y-3.2016
X5.6907Y-3.031
X5.6942Y-3.5387
X5.6965Y-4.2252
X5.701Y-3.4592
X5.71Y-2.67
X5.71Y-4.27
X5.712Y-3.0079
X5.722Y-3.1791
X5.7256Y-3.4838
X5.7256Y-3.5364
X5.7328Y-2.6269
X5.74Y-3.9
X5.7569Y-3.4872
X5.7571Y-3.5364
X5.77Y-2.52
X5.77Y-4.49
X5.78Y-2.58
X5.7817Y-3.556
X5.79Y-3.27
X5.8Y-3.34
X5.8Y-3.61
X5.8063Y-3.5364
X5.81Y-1.94
X5.81Y-2.03
X5.81Y-2.11
X5.8307Y-3.561
X5.8368Y-3.638
X5.84Y-4.25
X5.85Y-3.9
X5.86Y-4.88
X5.87Y-2.52
X5.87Y-3.11
X5.88Y-2.65
X5.88Y-3.06
X5.8851Y-3.5849
X5.8886Y-2.7972
X5.89Y-2.69
X5.89Y-2.87
X5.8988Y-3.2921
X5.9Y-2.11
X5.9225Y-2.5317
X5.9252Y-2.7227
X5.93Y-3.48
X5.9546Y-2.4373
X5.96Y-2.09
X5.99Y-2.39
X5.99Y-2.82
X6.0Y-2.97
X6.0Y-3.4787
X6.0Y-3.58
X6.0Y-4.07
X6.0Y-4.28
X6.0Y-4.53
X6.0Y-4.99
X6.0Y-6.26
X6.0169Y-4.6874
X6.0195Y-3.4468
X6.02Y-3.23
X6.03Y-3.13
X6.03Y-4.88
X6.0323Y-4.5982
X6.04Y-2.52
X6.04Y-2.74
X6.06Y-2.09
X6.06Y-3.4464
X6.0772Y-4.9606
X6.0815Y-4.5661
X6.0879Y-2.4374
X6.0971Y-3.4287
X6.1Y-3.39
X6.1085Y-4.9582
X6.11Y-2.51
X6.1171Y-2.4257
X6.12Y-2.38
X6.12Y-4.28
X6.1378Y-4.6803
X6.15Y-3.9
X6.16Y-4.07
X6.17Y-4.99
X6.187Y-3.4602
X6.1882Y-3.4917
X6.1886Y-3.3961
X6.1886Y-3.4276
X6.1909Y-4.9008
X6.21Y-2.72
X6.2134Y-4.9254
X6.22Y-2.14
X6.25Y-2.39
X6.26Y-2.64
X6.26Y-4.48
X6.29Y-4.99
X6.35Y-2.15
X6.3535Y-4.902
X6.38Y-1.99
X6.4319Y-5.7449
X6.4343Y-4.9266
X6.47Y-4.48
X6.5421Y-3.8518
X6.55Y-4.84
X6.55Y-4.99
X6.57Y-2.33
X6.59Y-6.1
X6.6Y-3.72
X6.6Y-5.65
X6.6087Y-5.272
X6.6106Y-3.9276
X6.63Y-4.7
X6.6637Y-5.612
X6.67Y-6.19
X6.6752Y-6.0453
X6.6843Y-5.0957
X6.69Y-5.43
X6.715Y-5.83
X6.725Y-5.695
X6.7259Y-6.0465
X6.7587Y-5.272
X6.8Y-5.82
X6.8337Y-5.282
X6.84Y-5.49
X6.88Y-5.66
X6.9156Y-3.8452
X6.93Y-4.7
X6.9846Y-3.9189
X6.99Y-6.0
X7.0679Y-5.3815
X7.07Y-5.77
X7.089Y-5.8783
X7.0996Y-5.987
X7.1Y-5.94
X7.1029Y-5.3815
X7.11Y-5.02
X7.11Y-5.13
X7.12Y-1.99
X7.13Y-2.16
X7.1329Y-5.3815
X7.1489Y-5.6095
X7.15Y-6.24
X7.1629Y-5.3815
X7.18Y-5.72
X7.1835Y-5.9866
X7.1929Y-5.3815
X7.2Y-5.64
X7.2239Y-5.5795
X7.24Y-2.2
X7.26Y-2.23
X7.26Y-2.31
X7.26Y-3.73
X7.26Y-5.77
X7.28Y-4.7
X7.2858Y-3.8453
X7.3Y-5.5
X7.3389Y-5.4395
X7.3583Y-3.9181
X7.3646Y-3.8035
X7.38Y-4.07
X7.4Y-5.65
X7.43Y-5.02
X7.43Y-5.13
X7.4735Y-2.2288
X7.55Y-5.32
X7.55Y-5.405
X7.575Y-5.565
X7.6Y-2.61
X7.71Y-5.72
X7.74Y-5.01
X7.74Y-5.13
X7.77Y-2.5
X7.81Y-5.63
X7.8139Y-5.1695
X7.85Y-2.69
X7.87Y-2.61
X7.92Y-5.08
X7.9739Y-5.3145
X8.02Y-3.12
X8.02Y-5.61
X8.0239Y-5.2445
X8.0289Y-5.4545
X8.0589Y-5.1245
X8.08Y-2.74
X8.08Y-2.9
X8.1039Y-5.6895
X8.11Y-3.17
X8.11Y-5.83
X8.14Y-3.6
X8.14Y-5.11
X8.1439Y-5.2445
X8.16Y-5.14
X8.21Y-5.05
X8.25Y-5.06
X8.2807Y-5.9213
X8.2807Y-6.1386
X8.3Y-2.51
X8.3Y-2.67
X8.3Y-3.32
X8.38Y-4.8
X8.38Y-5.05
X8.43Y-5.51
X8.47Y-1.97
X8.48Y-4.8
X8.48Y-5.05
X8.4847Y-3.3939
X8.485Y-2.595
X8.485Y-2.755
X8.485Y-2.915
X8.485Y-3.075
X8.485Y-3.235
X8.55Y-1.86
X8.56Y-5.51
T3
X4.9189Y-2.0193
X4.9189Y-2.1193
X4.9189Y-2.3293
X4.9189Y-2.4293
X5.0126Y-5.8457
X5.0126Y-5.9457
X5.0362Y-4.0677
X5.0362Y-4.1677
X5.274Y-3.8185
X5.5661Y-5.8835
X5.5661Y-5.9819
X5.5661Y-6.0803
X6.0902Y-2.5976
X6.0902Y-2.6976
X6.0902Y-2.7976
X6.0902Y-2.8976
X6.0902Y-2.9976
X6.0902Y-3.0976
X6.0902Y-3.1976
X6.0902Y-3.2976
X6.137Y-5.8835
X6.137Y-6.0803
X7.3055Y-5.8866
X7.3055Y-5.985
X7.3055Y-6.0835
X7.7772Y-2.7197
X7.7772Y-2.8197
X7.7772Y-2.9197
X7.7772Y-3.0197
X7.7772Y-3.1197
X7.7772Y-3.2197
X7.7772Y-3.3197
X7.8764Y-5.8866
X7.8764Y-6.0835
T4
X5.8988Y-1.9284
X5.8988Y-2.0284
X5.9988Y-1.9284
X5.9988Y-2.0284
X6.0988Y-1.9284
X6.0988Y-2.0284
T5
X5.8614Y-5.7614
X5.8614Y-6.2024
X7.6008Y-5.7646
X7.6008Y-6.2055
T2
G00X6.5252Y-6.0346
M15
G01X6.5252Y-5.9913
M16
G05
G00X6.5252Y-6.1921
M15
G01X6.5252Y-6.1606
M16
G05
G00X6.8654Y-6.0346
M15
G01X6.8654Y-5.9913
M16
G05
G00X6.8654Y-6.1921
M15
G01X6.8654Y-6.1606
M16
G05
T0
M30
