%TF.GenerationSoftware,KiCad,Pcbnew,7.0.7*%
%TF.CreationDate,2023-11-04T09:33:57-05:00*%
%TF.ProjectId,ProjectNeoRogue,50726f6a-6563-4744-9e65-6f526f677565,v1*%
%TF.SameCoordinates,Original*%
%TF.FileFunction,Soldermask,Top*%
%TF.FilePolarity,Negative*%
%FSLAX46Y46*%
G04 Gerber Fmt 4.6, Leading zero omitted, Abs format (unit mm)*
G04 Created by KiCad (PCBNEW 7.0.7) date 2023-11-04 09:33:57*
%MOMM*%
%LPD*%
G01*
G04 APERTURE LIST*
G04 Aperture macros list*
%AMRoundRect*
0 Rectangle with rounded corners*
0 $1 Rounding radius*
0 $2 $3 $4 $5 $6 $7 $8 $9 X,Y pos of 4 corners*
0 Add a 4 corners polygon primitive as box body*
4,1,4,$2,$3,$4,$5,$6,$7,$8,$9,$2,$3,0*
0 Add four circle primitives for the rounded corners*
1,1,$1+$1,$2,$3*
1,1,$1+$1,$4,$5*
1,1,$1+$1,$6,$7*
1,1,$1+$1,$8,$9*
0 Add four rect primitives between the rounded corners*
20,1,$1+$1,$2,$3,$4,$5,0*
20,1,$1+$1,$4,$5,$6,$7,0*
20,1,$1+$1,$6,$7,$8,$9,0*
20,1,$1+$1,$8,$9,$2,$3,0*%
G04 Aperture macros list end*
%ADD10O,2.127200X2.127200*%
%ADD11RoundRect,0.200000X-0.863600X0.863600X-0.863600X-0.863600X0.863600X-0.863600X0.863600X0.863600X0*%
%ADD12C,2.127200*%
%ADD13RoundRect,0.200000X-0.750000X-0.500000X0.750000X-0.500000X0.750000X0.500000X-0.750000X0.500000X0*%
%ADD14RoundRect,0.200000X0.850000X0.850000X-0.850000X0.850000X-0.850000X-0.850000X0.850000X-0.850000X0*%
%ADD15O,2.100000X2.100000*%
%ADD16RoundRect,0.200000X-1.000000X-1.000000X1.000000X-1.000000X1.000000X1.000000X-1.000000X1.000000X0*%
%ADD17C,2.400000*%
%ADD18C,3.600000*%
%ADD19RoundRect,0.200000X-0.850000X-0.850000X0.850000X-0.850000X0.850000X0.850000X-0.850000X0.850000X0*%
%ADD20C,2.774900*%
%ADD21C,1.390600*%
%ADD22C,1.300000*%
%ADD23C,1.050000*%
%ADD24O,1.400000X2.200000*%
%ADD25O,1.400000X2.500000*%
G04 APERTURE END LIST*
D10*
%TO.C,X1*%
X149828604Y-48981396D03*
D11*
X149828604Y-51521396D03*
D10*
X152368604Y-48981396D03*
X152368604Y-51521396D03*
D12*
X154908604Y-48981396D03*
X154908604Y-51521396D03*
%TD*%
D13*
%TO.C,D11*%
X173870000Y-96880000D03*
X173870000Y-100080000D03*
X178770000Y-100080000D03*
X178770000Y-96880000D03*
%TD*%
D14*
%TO.C,J7*%
X197540000Y-84320000D03*
D15*
X197540000Y-81780000D03*
X197540000Y-79240000D03*
X197540000Y-76700000D03*
X197540000Y-74160000D03*
X197540000Y-71620000D03*
X197540000Y-69080000D03*
%TD*%
D13*
%TO.C,D1*%
X183410000Y-96800000D03*
X183410000Y-100000000D03*
X188310000Y-100000000D03*
X188310000Y-96800000D03*
%TD*%
D16*
%TO.C,SW9*%
X185560000Y-149520000D03*
D17*
X185560000Y-154520000D03*
X185560000Y-152020000D03*
D18*
X193060000Y-146420000D03*
X193060000Y-157620000D03*
D17*
X200060000Y-154520000D03*
X200060000Y-149520000D03*
%TD*%
D16*
%TO.C,SW10*%
X141380000Y-149440000D03*
D17*
X141380000Y-154440000D03*
X141380000Y-151940000D03*
D18*
X148880000Y-146340000D03*
X148880000Y-157540000D03*
D17*
X155880000Y-154440000D03*
X155880000Y-149440000D03*
%TD*%
D13*
%TO.C,D12*%
X164570000Y-96940000D03*
X164570000Y-100140000D03*
X169470000Y-100140000D03*
X169470000Y-96940000D03*
%TD*%
D19*
%TO.C,J9*%
X154690000Y-83760000D03*
D15*
X154690000Y-81220000D03*
X154690000Y-78680000D03*
X154690000Y-76140000D03*
X154690000Y-73600000D03*
X154690000Y-71060000D03*
X154690000Y-68520000D03*
X154690000Y-65980000D03*
%TD*%
D14*
%TO.C,J5*%
X124941000Y-51291000D03*
D15*
X124941000Y-53831000D03*
%TD*%
D20*
%TO.C,J3*%
X127561200Y-88253000D03*
D21*
X127561200Y-90793000D03*
D20*
X127561200Y-93333000D03*
X130736200Y-88253000D03*
X130736200Y-93333000D03*
D21*
X132641200Y-89777000D03*
X132641200Y-91809000D03*
%TD*%
D19*
%TO.C,J4*%
X125260000Y-106760000D03*
D15*
X125260000Y-104220000D03*
%TD*%
D14*
%TO.C,J1*%
X125260000Y-152340000D03*
D15*
X125260000Y-154880000D03*
%TD*%
D14*
%TO.C,J6*%
X124941000Y-59165000D03*
D15*
X124941000Y-61705000D03*
%TD*%
D22*
%TO.C,SW1*%
X214068604Y-132311396D03*
X214068604Y-135311396D03*
%TD*%
D23*
%TO.C,J8*%
X172970000Y-152633744D03*
X167190000Y-152633744D03*
D24*
X174400000Y-156283744D03*
D25*
X174400000Y-152133744D03*
D24*
X165760000Y-156283744D03*
D25*
X165760000Y-152133744D03*
%TD*%
M02*
