%TF.GenerationSoftware,KiCad,Pcbnew,7.0.7*%
%TF.CreationDate,2023-11-04T20:56:19-05:00*%
%TF.ProjectId,ProjectNeoRogue,50726f6a-6563-4744-9e65-6f526f677565,v1*%
%TF.SameCoordinates,Original*%
%TF.FileFunction,Legend,Top*%
%TF.FilePolarity,Positive*%
%FSLAX46Y46*%
G04 Gerber Fmt 4.6, Leading zero omitted, Abs format (unit mm)*
G04 Created by KiCad (PCBNEW 7.0.7) date 2023-11-04 20:56:19*
%MOMM*%
%LPD*%
G01*
G04 APERTURE LIST*
%ADD10C,0.150000*%
%ADD11C,0.120000*%
G04 APERTURE END LIST*
D10*
X175135714Y-98974819D02*
X175135714Y-97974819D01*
X175135714Y-97974819D02*
X175373809Y-97974819D01*
X175373809Y-97974819D02*
X175516666Y-98022438D01*
X175516666Y-98022438D02*
X175611904Y-98117676D01*
X175611904Y-98117676D02*
X175659523Y-98212914D01*
X175659523Y-98212914D02*
X175707142Y-98403390D01*
X175707142Y-98403390D02*
X175707142Y-98546247D01*
X175707142Y-98546247D02*
X175659523Y-98736723D01*
X175659523Y-98736723D02*
X175611904Y-98831961D01*
X175611904Y-98831961D02*
X175516666Y-98927200D01*
X175516666Y-98927200D02*
X175373809Y-98974819D01*
X175373809Y-98974819D02*
X175135714Y-98974819D01*
X176659523Y-98974819D02*
X176088095Y-98974819D01*
X176373809Y-98974819D02*
X176373809Y-97974819D01*
X176373809Y-97974819D02*
X176278571Y-98117676D01*
X176278571Y-98117676D02*
X176183333Y-98212914D01*
X176183333Y-98212914D02*
X176088095Y-98260533D01*
X177611904Y-98974819D02*
X177040476Y-98974819D01*
X177326190Y-98974819D02*
X177326190Y-97974819D01*
X177326190Y-97974819D02*
X177230952Y-98117676D01*
X177230952Y-98117676D02*
X177135714Y-98212914D01*
X177135714Y-98212914D02*
X177040476Y-98260533D01*
X173010476Y-101934819D02*
X173248571Y-102934819D01*
X173248571Y-102934819D02*
X173439047Y-102220533D01*
X173439047Y-102220533D02*
X173629523Y-102934819D01*
X173629523Y-102934819D02*
X173867619Y-101934819D01*
X174200952Y-102887200D02*
X174343809Y-102934819D01*
X174343809Y-102934819D02*
X174581904Y-102934819D01*
X174581904Y-102934819D02*
X174677142Y-102887200D01*
X174677142Y-102887200D02*
X174724761Y-102839580D01*
X174724761Y-102839580D02*
X174772380Y-102744342D01*
X174772380Y-102744342D02*
X174772380Y-102649104D01*
X174772380Y-102649104D02*
X174724761Y-102553866D01*
X174724761Y-102553866D02*
X174677142Y-102506247D01*
X174677142Y-102506247D02*
X174581904Y-102458628D01*
X174581904Y-102458628D02*
X174391428Y-102411009D01*
X174391428Y-102411009D02*
X174296190Y-102363390D01*
X174296190Y-102363390D02*
X174248571Y-102315771D01*
X174248571Y-102315771D02*
X174200952Y-102220533D01*
X174200952Y-102220533D02*
X174200952Y-102125295D01*
X174200952Y-102125295D02*
X174248571Y-102030057D01*
X174248571Y-102030057D02*
X174296190Y-101982438D01*
X174296190Y-101982438D02*
X174391428Y-101934819D01*
X174391428Y-101934819D02*
X174629523Y-101934819D01*
X174629523Y-101934819D02*
X174772380Y-101982438D01*
X175153333Y-102030057D02*
X175200952Y-101982438D01*
X175200952Y-101982438D02*
X175296190Y-101934819D01*
X175296190Y-101934819D02*
X175534285Y-101934819D01*
X175534285Y-101934819D02*
X175629523Y-101982438D01*
X175629523Y-101982438D02*
X175677142Y-102030057D01*
X175677142Y-102030057D02*
X175724761Y-102125295D01*
X175724761Y-102125295D02*
X175724761Y-102220533D01*
X175724761Y-102220533D02*
X175677142Y-102363390D01*
X175677142Y-102363390D02*
X175105714Y-102934819D01*
X175105714Y-102934819D02*
X175724761Y-102934819D01*
X176296190Y-102363390D02*
X176200952Y-102315771D01*
X176200952Y-102315771D02*
X176153333Y-102268152D01*
X176153333Y-102268152D02*
X176105714Y-102172914D01*
X176105714Y-102172914D02*
X176105714Y-102125295D01*
X176105714Y-102125295D02*
X176153333Y-102030057D01*
X176153333Y-102030057D02*
X176200952Y-101982438D01*
X176200952Y-101982438D02*
X176296190Y-101934819D01*
X176296190Y-101934819D02*
X176486666Y-101934819D01*
X176486666Y-101934819D02*
X176581904Y-101982438D01*
X176581904Y-101982438D02*
X176629523Y-102030057D01*
X176629523Y-102030057D02*
X176677142Y-102125295D01*
X176677142Y-102125295D02*
X176677142Y-102172914D01*
X176677142Y-102172914D02*
X176629523Y-102268152D01*
X176629523Y-102268152D02*
X176581904Y-102315771D01*
X176581904Y-102315771D02*
X176486666Y-102363390D01*
X176486666Y-102363390D02*
X176296190Y-102363390D01*
X176296190Y-102363390D02*
X176200952Y-102411009D01*
X176200952Y-102411009D02*
X176153333Y-102458628D01*
X176153333Y-102458628D02*
X176105714Y-102553866D01*
X176105714Y-102553866D02*
X176105714Y-102744342D01*
X176105714Y-102744342D02*
X176153333Y-102839580D01*
X176153333Y-102839580D02*
X176200952Y-102887200D01*
X176200952Y-102887200D02*
X176296190Y-102934819D01*
X176296190Y-102934819D02*
X176486666Y-102934819D01*
X176486666Y-102934819D02*
X176581904Y-102887200D01*
X176581904Y-102887200D02*
X176629523Y-102839580D01*
X176629523Y-102839580D02*
X176677142Y-102744342D01*
X176677142Y-102744342D02*
X176677142Y-102553866D01*
X176677142Y-102553866D02*
X176629523Y-102458628D01*
X176629523Y-102458628D02*
X176581904Y-102411009D01*
X176581904Y-102411009D02*
X176486666Y-102363390D01*
X177629523Y-102934819D02*
X177058095Y-102934819D01*
X177343809Y-102934819D02*
X177343809Y-101934819D01*
X177343809Y-101934819D02*
X177248571Y-102077676D01*
X177248571Y-102077676D02*
X177153333Y-102172914D01*
X177153333Y-102172914D02*
X177058095Y-102220533D01*
X178010476Y-102030057D02*
X178058095Y-101982438D01*
X178058095Y-101982438D02*
X178153333Y-101934819D01*
X178153333Y-101934819D02*
X178391428Y-101934819D01*
X178391428Y-101934819D02*
X178486666Y-101982438D01*
X178486666Y-101982438D02*
X178534285Y-102030057D01*
X178534285Y-102030057D02*
X178581904Y-102125295D01*
X178581904Y-102125295D02*
X178581904Y-102220533D01*
X178581904Y-102220533D02*
X178534285Y-102363390D01*
X178534285Y-102363390D02*
X177962857Y-102934819D01*
X177962857Y-102934819D02*
X178581904Y-102934819D01*
X179343809Y-102411009D02*
X179486666Y-102458628D01*
X179486666Y-102458628D02*
X179534285Y-102506247D01*
X179534285Y-102506247D02*
X179581904Y-102601485D01*
X179581904Y-102601485D02*
X179581904Y-102744342D01*
X179581904Y-102744342D02*
X179534285Y-102839580D01*
X179534285Y-102839580D02*
X179486666Y-102887200D01*
X179486666Y-102887200D02*
X179391428Y-102934819D01*
X179391428Y-102934819D02*
X179010476Y-102934819D01*
X179010476Y-102934819D02*
X179010476Y-101934819D01*
X179010476Y-101934819D02*
X179343809Y-101934819D01*
X179343809Y-101934819D02*
X179439047Y-101982438D01*
X179439047Y-101982438D02*
X179486666Y-102030057D01*
X179486666Y-102030057D02*
X179534285Y-102125295D01*
X179534285Y-102125295D02*
X179534285Y-102220533D01*
X179534285Y-102220533D02*
X179486666Y-102315771D01*
X179486666Y-102315771D02*
X179439047Y-102363390D01*
X179439047Y-102363390D02*
X179343809Y-102411009D01*
X179343809Y-102411009D02*
X179010476Y-102411009D01*
X172455714Y-97334819D02*
X171884286Y-97334819D01*
X172170000Y-97334819D02*
X172170000Y-96334819D01*
X172170000Y-96334819D02*
X172074762Y-96477676D01*
X172074762Y-96477676D02*
X171979524Y-96572914D01*
X171979524Y-96572914D02*
X171884286Y-96620533D01*
X197206666Y-86544819D02*
X197206666Y-87259104D01*
X197206666Y-87259104D02*
X197159047Y-87401961D01*
X197159047Y-87401961D02*
X197063809Y-87497200D01*
X197063809Y-87497200D02*
X196920952Y-87544819D01*
X196920952Y-87544819D02*
X196825714Y-87544819D01*
X197587619Y-86544819D02*
X198254285Y-86544819D01*
X198254285Y-86544819D02*
X197825714Y-87544819D01*
X185151905Y-98894819D02*
X185151905Y-97894819D01*
X185151905Y-97894819D02*
X185390000Y-97894819D01*
X185390000Y-97894819D02*
X185532857Y-97942438D01*
X185532857Y-97942438D02*
X185628095Y-98037676D01*
X185628095Y-98037676D02*
X185675714Y-98132914D01*
X185675714Y-98132914D02*
X185723333Y-98323390D01*
X185723333Y-98323390D02*
X185723333Y-98466247D01*
X185723333Y-98466247D02*
X185675714Y-98656723D01*
X185675714Y-98656723D02*
X185628095Y-98751961D01*
X185628095Y-98751961D02*
X185532857Y-98847200D01*
X185532857Y-98847200D02*
X185390000Y-98894819D01*
X185390000Y-98894819D02*
X185151905Y-98894819D01*
X186675714Y-98894819D02*
X186104286Y-98894819D01*
X186390000Y-98894819D02*
X186390000Y-97894819D01*
X186390000Y-97894819D02*
X186294762Y-98037676D01*
X186294762Y-98037676D02*
X186199524Y-98132914D01*
X186199524Y-98132914D02*
X186104286Y-98180533D01*
X182550476Y-101854819D02*
X182788571Y-102854819D01*
X182788571Y-102854819D02*
X182979047Y-102140533D01*
X182979047Y-102140533D02*
X183169523Y-102854819D01*
X183169523Y-102854819D02*
X183407619Y-101854819D01*
X183740952Y-102807200D02*
X183883809Y-102854819D01*
X183883809Y-102854819D02*
X184121904Y-102854819D01*
X184121904Y-102854819D02*
X184217142Y-102807200D01*
X184217142Y-102807200D02*
X184264761Y-102759580D01*
X184264761Y-102759580D02*
X184312380Y-102664342D01*
X184312380Y-102664342D02*
X184312380Y-102569104D01*
X184312380Y-102569104D02*
X184264761Y-102473866D01*
X184264761Y-102473866D02*
X184217142Y-102426247D01*
X184217142Y-102426247D02*
X184121904Y-102378628D01*
X184121904Y-102378628D02*
X183931428Y-102331009D01*
X183931428Y-102331009D02*
X183836190Y-102283390D01*
X183836190Y-102283390D02*
X183788571Y-102235771D01*
X183788571Y-102235771D02*
X183740952Y-102140533D01*
X183740952Y-102140533D02*
X183740952Y-102045295D01*
X183740952Y-102045295D02*
X183788571Y-101950057D01*
X183788571Y-101950057D02*
X183836190Y-101902438D01*
X183836190Y-101902438D02*
X183931428Y-101854819D01*
X183931428Y-101854819D02*
X184169523Y-101854819D01*
X184169523Y-101854819D02*
X184312380Y-101902438D01*
X184693333Y-101950057D02*
X184740952Y-101902438D01*
X184740952Y-101902438D02*
X184836190Y-101854819D01*
X184836190Y-101854819D02*
X185074285Y-101854819D01*
X185074285Y-101854819D02*
X185169523Y-101902438D01*
X185169523Y-101902438D02*
X185217142Y-101950057D01*
X185217142Y-101950057D02*
X185264761Y-102045295D01*
X185264761Y-102045295D02*
X185264761Y-102140533D01*
X185264761Y-102140533D02*
X185217142Y-102283390D01*
X185217142Y-102283390D02*
X184645714Y-102854819D01*
X184645714Y-102854819D02*
X185264761Y-102854819D01*
X185836190Y-102283390D02*
X185740952Y-102235771D01*
X185740952Y-102235771D02*
X185693333Y-102188152D01*
X185693333Y-102188152D02*
X185645714Y-102092914D01*
X185645714Y-102092914D02*
X185645714Y-102045295D01*
X185645714Y-102045295D02*
X185693333Y-101950057D01*
X185693333Y-101950057D02*
X185740952Y-101902438D01*
X185740952Y-101902438D02*
X185836190Y-101854819D01*
X185836190Y-101854819D02*
X186026666Y-101854819D01*
X186026666Y-101854819D02*
X186121904Y-101902438D01*
X186121904Y-101902438D02*
X186169523Y-101950057D01*
X186169523Y-101950057D02*
X186217142Y-102045295D01*
X186217142Y-102045295D02*
X186217142Y-102092914D01*
X186217142Y-102092914D02*
X186169523Y-102188152D01*
X186169523Y-102188152D02*
X186121904Y-102235771D01*
X186121904Y-102235771D02*
X186026666Y-102283390D01*
X186026666Y-102283390D02*
X185836190Y-102283390D01*
X185836190Y-102283390D02*
X185740952Y-102331009D01*
X185740952Y-102331009D02*
X185693333Y-102378628D01*
X185693333Y-102378628D02*
X185645714Y-102473866D01*
X185645714Y-102473866D02*
X185645714Y-102664342D01*
X185645714Y-102664342D02*
X185693333Y-102759580D01*
X185693333Y-102759580D02*
X185740952Y-102807200D01*
X185740952Y-102807200D02*
X185836190Y-102854819D01*
X185836190Y-102854819D02*
X186026666Y-102854819D01*
X186026666Y-102854819D02*
X186121904Y-102807200D01*
X186121904Y-102807200D02*
X186169523Y-102759580D01*
X186169523Y-102759580D02*
X186217142Y-102664342D01*
X186217142Y-102664342D02*
X186217142Y-102473866D01*
X186217142Y-102473866D02*
X186169523Y-102378628D01*
X186169523Y-102378628D02*
X186121904Y-102331009D01*
X186121904Y-102331009D02*
X186026666Y-102283390D01*
X187169523Y-102854819D02*
X186598095Y-102854819D01*
X186883809Y-102854819D02*
X186883809Y-101854819D01*
X186883809Y-101854819D02*
X186788571Y-101997676D01*
X186788571Y-101997676D02*
X186693333Y-102092914D01*
X186693333Y-102092914D02*
X186598095Y-102140533D01*
X187550476Y-101950057D02*
X187598095Y-101902438D01*
X187598095Y-101902438D02*
X187693333Y-101854819D01*
X187693333Y-101854819D02*
X187931428Y-101854819D01*
X187931428Y-101854819D02*
X188026666Y-101902438D01*
X188026666Y-101902438D02*
X188074285Y-101950057D01*
X188074285Y-101950057D02*
X188121904Y-102045295D01*
X188121904Y-102045295D02*
X188121904Y-102140533D01*
X188121904Y-102140533D02*
X188074285Y-102283390D01*
X188074285Y-102283390D02*
X187502857Y-102854819D01*
X187502857Y-102854819D02*
X188121904Y-102854819D01*
X188883809Y-102331009D02*
X189026666Y-102378628D01*
X189026666Y-102378628D02*
X189074285Y-102426247D01*
X189074285Y-102426247D02*
X189121904Y-102521485D01*
X189121904Y-102521485D02*
X189121904Y-102664342D01*
X189121904Y-102664342D02*
X189074285Y-102759580D01*
X189074285Y-102759580D02*
X189026666Y-102807200D01*
X189026666Y-102807200D02*
X188931428Y-102854819D01*
X188931428Y-102854819D02*
X188550476Y-102854819D01*
X188550476Y-102854819D02*
X188550476Y-101854819D01*
X188550476Y-101854819D02*
X188883809Y-101854819D01*
X188883809Y-101854819D02*
X188979047Y-101902438D01*
X188979047Y-101902438D02*
X189026666Y-101950057D01*
X189026666Y-101950057D02*
X189074285Y-102045295D01*
X189074285Y-102045295D02*
X189074285Y-102140533D01*
X189074285Y-102140533D02*
X189026666Y-102235771D01*
X189026666Y-102235771D02*
X188979047Y-102283390D01*
X188979047Y-102283390D02*
X188883809Y-102331009D01*
X188883809Y-102331009D02*
X188550476Y-102331009D01*
X181995714Y-97254819D02*
X181424286Y-97254819D01*
X181710000Y-97254819D02*
X181710000Y-96254819D01*
X181710000Y-96254819D02*
X181614762Y-96397676D01*
X181614762Y-96397676D02*
X181519524Y-96492914D01*
X181519524Y-96492914D02*
X181424286Y-96540533D01*
X187026667Y-145227200D02*
X187169524Y-145274819D01*
X187169524Y-145274819D02*
X187407619Y-145274819D01*
X187407619Y-145274819D02*
X187502857Y-145227200D01*
X187502857Y-145227200D02*
X187550476Y-145179580D01*
X187550476Y-145179580D02*
X187598095Y-145084342D01*
X187598095Y-145084342D02*
X187598095Y-144989104D01*
X187598095Y-144989104D02*
X187550476Y-144893866D01*
X187550476Y-144893866D02*
X187502857Y-144846247D01*
X187502857Y-144846247D02*
X187407619Y-144798628D01*
X187407619Y-144798628D02*
X187217143Y-144751009D01*
X187217143Y-144751009D02*
X187121905Y-144703390D01*
X187121905Y-144703390D02*
X187074286Y-144655771D01*
X187074286Y-144655771D02*
X187026667Y-144560533D01*
X187026667Y-144560533D02*
X187026667Y-144465295D01*
X187026667Y-144465295D02*
X187074286Y-144370057D01*
X187074286Y-144370057D02*
X187121905Y-144322438D01*
X187121905Y-144322438D02*
X187217143Y-144274819D01*
X187217143Y-144274819D02*
X187455238Y-144274819D01*
X187455238Y-144274819D02*
X187598095Y-144322438D01*
X187931429Y-144274819D02*
X188169524Y-145274819D01*
X188169524Y-145274819D02*
X188360000Y-144560533D01*
X188360000Y-144560533D02*
X188550476Y-145274819D01*
X188550476Y-145274819D02*
X188788572Y-144274819D01*
X189217143Y-145274819D02*
X189407619Y-145274819D01*
X189407619Y-145274819D02*
X189502857Y-145227200D01*
X189502857Y-145227200D02*
X189550476Y-145179580D01*
X189550476Y-145179580D02*
X189645714Y-145036723D01*
X189645714Y-145036723D02*
X189693333Y-144846247D01*
X189693333Y-144846247D02*
X189693333Y-144465295D01*
X189693333Y-144465295D02*
X189645714Y-144370057D01*
X189645714Y-144370057D02*
X189598095Y-144322438D01*
X189598095Y-144322438D02*
X189502857Y-144274819D01*
X189502857Y-144274819D02*
X189312381Y-144274819D01*
X189312381Y-144274819D02*
X189217143Y-144322438D01*
X189217143Y-144322438D02*
X189169524Y-144370057D01*
X189169524Y-144370057D02*
X189121905Y-144465295D01*
X189121905Y-144465295D02*
X189121905Y-144703390D01*
X189121905Y-144703390D02*
X189169524Y-144798628D01*
X189169524Y-144798628D02*
X189217143Y-144846247D01*
X189217143Y-144846247D02*
X189312381Y-144893866D01*
X189312381Y-144893866D02*
X189502857Y-144893866D01*
X189502857Y-144893866D02*
X189598095Y-144846247D01*
X189598095Y-144846247D02*
X189645714Y-144798628D01*
X189645714Y-144798628D02*
X189693333Y-144703390D01*
X142370476Y-145147200D02*
X142513333Y-145194819D01*
X142513333Y-145194819D02*
X142751428Y-145194819D01*
X142751428Y-145194819D02*
X142846666Y-145147200D01*
X142846666Y-145147200D02*
X142894285Y-145099580D01*
X142894285Y-145099580D02*
X142941904Y-145004342D01*
X142941904Y-145004342D02*
X142941904Y-144909104D01*
X142941904Y-144909104D02*
X142894285Y-144813866D01*
X142894285Y-144813866D02*
X142846666Y-144766247D01*
X142846666Y-144766247D02*
X142751428Y-144718628D01*
X142751428Y-144718628D02*
X142560952Y-144671009D01*
X142560952Y-144671009D02*
X142465714Y-144623390D01*
X142465714Y-144623390D02*
X142418095Y-144575771D01*
X142418095Y-144575771D02*
X142370476Y-144480533D01*
X142370476Y-144480533D02*
X142370476Y-144385295D01*
X142370476Y-144385295D02*
X142418095Y-144290057D01*
X142418095Y-144290057D02*
X142465714Y-144242438D01*
X142465714Y-144242438D02*
X142560952Y-144194819D01*
X142560952Y-144194819D02*
X142799047Y-144194819D01*
X142799047Y-144194819D02*
X142941904Y-144242438D01*
X143275238Y-144194819D02*
X143513333Y-145194819D01*
X143513333Y-145194819D02*
X143703809Y-144480533D01*
X143703809Y-144480533D02*
X143894285Y-145194819D01*
X143894285Y-145194819D02*
X144132381Y-144194819D01*
X145037142Y-145194819D02*
X144465714Y-145194819D01*
X144751428Y-145194819D02*
X144751428Y-144194819D01*
X144751428Y-144194819D02*
X144656190Y-144337676D01*
X144656190Y-144337676D02*
X144560952Y-144432914D01*
X144560952Y-144432914D02*
X144465714Y-144480533D01*
X145656190Y-144194819D02*
X145751428Y-144194819D01*
X145751428Y-144194819D02*
X145846666Y-144242438D01*
X145846666Y-144242438D02*
X145894285Y-144290057D01*
X145894285Y-144290057D02*
X145941904Y-144385295D01*
X145941904Y-144385295D02*
X145989523Y-144575771D01*
X145989523Y-144575771D02*
X145989523Y-144813866D01*
X145989523Y-144813866D02*
X145941904Y-145004342D01*
X145941904Y-145004342D02*
X145894285Y-145099580D01*
X145894285Y-145099580D02*
X145846666Y-145147200D01*
X145846666Y-145147200D02*
X145751428Y-145194819D01*
X145751428Y-145194819D02*
X145656190Y-145194819D01*
X145656190Y-145194819D02*
X145560952Y-145147200D01*
X145560952Y-145147200D02*
X145513333Y-145099580D01*
X145513333Y-145099580D02*
X145465714Y-145004342D01*
X145465714Y-145004342D02*
X145418095Y-144813866D01*
X145418095Y-144813866D02*
X145418095Y-144575771D01*
X145418095Y-144575771D02*
X145465714Y-144385295D01*
X145465714Y-144385295D02*
X145513333Y-144290057D01*
X145513333Y-144290057D02*
X145560952Y-144242438D01*
X145560952Y-144242438D02*
X145656190Y-144194819D01*
X165835714Y-99034819D02*
X165835714Y-98034819D01*
X165835714Y-98034819D02*
X166073809Y-98034819D01*
X166073809Y-98034819D02*
X166216666Y-98082438D01*
X166216666Y-98082438D02*
X166311904Y-98177676D01*
X166311904Y-98177676D02*
X166359523Y-98272914D01*
X166359523Y-98272914D02*
X166407142Y-98463390D01*
X166407142Y-98463390D02*
X166407142Y-98606247D01*
X166407142Y-98606247D02*
X166359523Y-98796723D01*
X166359523Y-98796723D02*
X166311904Y-98891961D01*
X166311904Y-98891961D02*
X166216666Y-98987200D01*
X166216666Y-98987200D02*
X166073809Y-99034819D01*
X166073809Y-99034819D02*
X165835714Y-99034819D01*
X167359523Y-99034819D02*
X166788095Y-99034819D01*
X167073809Y-99034819D02*
X167073809Y-98034819D01*
X167073809Y-98034819D02*
X166978571Y-98177676D01*
X166978571Y-98177676D02*
X166883333Y-98272914D01*
X166883333Y-98272914D02*
X166788095Y-98320533D01*
X167740476Y-98130057D02*
X167788095Y-98082438D01*
X167788095Y-98082438D02*
X167883333Y-98034819D01*
X167883333Y-98034819D02*
X168121428Y-98034819D01*
X168121428Y-98034819D02*
X168216666Y-98082438D01*
X168216666Y-98082438D02*
X168264285Y-98130057D01*
X168264285Y-98130057D02*
X168311904Y-98225295D01*
X168311904Y-98225295D02*
X168311904Y-98320533D01*
X168311904Y-98320533D02*
X168264285Y-98463390D01*
X168264285Y-98463390D02*
X167692857Y-99034819D01*
X167692857Y-99034819D02*
X168311904Y-99034819D01*
X163710476Y-101994819D02*
X163948571Y-102994819D01*
X163948571Y-102994819D02*
X164139047Y-102280533D01*
X164139047Y-102280533D02*
X164329523Y-102994819D01*
X164329523Y-102994819D02*
X164567619Y-101994819D01*
X164900952Y-102947200D02*
X165043809Y-102994819D01*
X165043809Y-102994819D02*
X165281904Y-102994819D01*
X165281904Y-102994819D02*
X165377142Y-102947200D01*
X165377142Y-102947200D02*
X165424761Y-102899580D01*
X165424761Y-102899580D02*
X165472380Y-102804342D01*
X165472380Y-102804342D02*
X165472380Y-102709104D01*
X165472380Y-102709104D02*
X165424761Y-102613866D01*
X165424761Y-102613866D02*
X165377142Y-102566247D01*
X165377142Y-102566247D02*
X165281904Y-102518628D01*
X165281904Y-102518628D02*
X165091428Y-102471009D01*
X165091428Y-102471009D02*
X164996190Y-102423390D01*
X164996190Y-102423390D02*
X164948571Y-102375771D01*
X164948571Y-102375771D02*
X164900952Y-102280533D01*
X164900952Y-102280533D02*
X164900952Y-102185295D01*
X164900952Y-102185295D02*
X164948571Y-102090057D01*
X164948571Y-102090057D02*
X164996190Y-102042438D01*
X164996190Y-102042438D02*
X165091428Y-101994819D01*
X165091428Y-101994819D02*
X165329523Y-101994819D01*
X165329523Y-101994819D02*
X165472380Y-102042438D01*
X165853333Y-102090057D02*
X165900952Y-102042438D01*
X165900952Y-102042438D02*
X165996190Y-101994819D01*
X165996190Y-101994819D02*
X166234285Y-101994819D01*
X166234285Y-101994819D02*
X166329523Y-102042438D01*
X166329523Y-102042438D02*
X166377142Y-102090057D01*
X166377142Y-102090057D02*
X166424761Y-102185295D01*
X166424761Y-102185295D02*
X166424761Y-102280533D01*
X166424761Y-102280533D02*
X166377142Y-102423390D01*
X166377142Y-102423390D02*
X165805714Y-102994819D01*
X165805714Y-102994819D02*
X166424761Y-102994819D01*
X166996190Y-102423390D02*
X166900952Y-102375771D01*
X166900952Y-102375771D02*
X166853333Y-102328152D01*
X166853333Y-102328152D02*
X166805714Y-102232914D01*
X166805714Y-102232914D02*
X166805714Y-102185295D01*
X166805714Y-102185295D02*
X166853333Y-102090057D01*
X166853333Y-102090057D02*
X166900952Y-102042438D01*
X166900952Y-102042438D02*
X166996190Y-101994819D01*
X166996190Y-101994819D02*
X167186666Y-101994819D01*
X167186666Y-101994819D02*
X167281904Y-102042438D01*
X167281904Y-102042438D02*
X167329523Y-102090057D01*
X167329523Y-102090057D02*
X167377142Y-102185295D01*
X167377142Y-102185295D02*
X167377142Y-102232914D01*
X167377142Y-102232914D02*
X167329523Y-102328152D01*
X167329523Y-102328152D02*
X167281904Y-102375771D01*
X167281904Y-102375771D02*
X167186666Y-102423390D01*
X167186666Y-102423390D02*
X166996190Y-102423390D01*
X166996190Y-102423390D02*
X166900952Y-102471009D01*
X166900952Y-102471009D02*
X166853333Y-102518628D01*
X166853333Y-102518628D02*
X166805714Y-102613866D01*
X166805714Y-102613866D02*
X166805714Y-102804342D01*
X166805714Y-102804342D02*
X166853333Y-102899580D01*
X166853333Y-102899580D02*
X166900952Y-102947200D01*
X166900952Y-102947200D02*
X166996190Y-102994819D01*
X166996190Y-102994819D02*
X167186666Y-102994819D01*
X167186666Y-102994819D02*
X167281904Y-102947200D01*
X167281904Y-102947200D02*
X167329523Y-102899580D01*
X167329523Y-102899580D02*
X167377142Y-102804342D01*
X167377142Y-102804342D02*
X167377142Y-102613866D01*
X167377142Y-102613866D02*
X167329523Y-102518628D01*
X167329523Y-102518628D02*
X167281904Y-102471009D01*
X167281904Y-102471009D02*
X167186666Y-102423390D01*
X168329523Y-102994819D02*
X167758095Y-102994819D01*
X168043809Y-102994819D02*
X168043809Y-101994819D01*
X168043809Y-101994819D02*
X167948571Y-102137676D01*
X167948571Y-102137676D02*
X167853333Y-102232914D01*
X167853333Y-102232914D02*
X167758095Y-102280533D01*
X168710476Y-102090057D02*
X168758095Y-102042438D01*
X168758095Y-102042438D02*
X168853333Y-101994819D01*
X168853333Y-101994819D02*
X169091428Y-101994819D01*
X169091428Y-101994819D02*
X169186666Y-102042438D01*
X169186666Y-102042438D02*
X169234285Y-102090057D01*
X169234285Y-102090057D02*
X169281904Y-102185295D01*
X169281904Y-102185295D02*
X169281904Y-102280533D01*
X169281904Y-102280533D02*
X169234285Y-102423390D01*
X169234285Y-102423390D02*
X168662857Y-102994819D01*
X168662857Y-102994819D02*
X169281904Y-102994819D01*
X170043809Y-102471009D02*
X170186666Y-102518628D01*
X170186666Y-102518628D02*
X170234285Y-102566247D01*
X170234285Y-102566247D02*
X170281904Y-102661485D01*
X170281904Y-102661485D02*
X170281904Y-102804342D01*
X170281904Y-102804342D02*
X170234285Y-102899580D01*
X170234285Y-102899580D02*
X170186666Y-102947200D01*
X170186666Y-102947200D02*
X170091428Y-102994819D01*
X170091428Y-102994819D02*
X169710476Y-102994819D01*
X169710476Y-102994819D02*
X169710476Y-101994819D01*
X169710476Y-101994819D02*
X170043809Y-101994819D01*
X170043809Y-101994819D02*
X170139047Y-102042438D01*
X170139047Y-102042438D02*
X170186666Y-102090057D01*
X170186666Y-102090057D02*
X170234285Y-102185295D01*
X170234285Y-102185295D02*
X170234285Y-102280533D01*
X170234285Y-102280533D02*
X170186666Y-102375771D01*
X170186666Y-102375771D02*
X170139047Y-102423390D01*
X170139047Y-102423390D02*
X170043809Y-102471009D01*
X170043809Y-102471009D02*
X169710476Y-102471009D01*
X163155714Y-97394819D02*
X162584286Y-97394819D01*
X162870000Y-97394819D02*
X162870000Y-96394819D01*
X162870000Y-96394819D02*
X162774762Y-96537676D01*
X162774762Y-96537676D02*
X162679524Y-96632914D01*
X162679524Y-96632914D02*
X162584286Y-96680533D01*
D11*
%TO.C,D11*%
X172670000Y-95730000D02*
X179970000Y-95730000D01*
X172670000Y-101230000D02*
X179970000Y-101230000D01*
X179970000Y-100080000D02*
X179120000Y-101230000D01*
X179970000Y-101230000D02*
X179970000Y-100080000D01*
%TO.C,J7*%
X198870000Y-83050000D02*
X198870000Y-67750000D01*
X198870000Y-83050000D02*
X196210000Y-83050000D01*
X198870000Y-67750000D02*
X196210000Y-67750000D01*
X197540000Y-85650000D02*
X196210000Y-85650000D01*
X196210000Y-85650000D02*
X196210000Y-84320000D01*
X196210000Y-83050000D02*
X196210000Y-67750000D01*
%TO.C,D1*%
X182210000Y-95650000D02*
X189510000Y-95650000D01*
X182210000Y-101150000D02*
X189510000Y-101150000D01*
X189510000Y-100000000D02*
X188660000Y-101150000D01*
X189510000Y-101150000D02*
X189510000Y-100000000D01*
%TO.C,SW9*%
X185260000Y-147920000D02*
X185860000Y-147920000D01*
X185560000Y-148220000D02*
X185260000Y-147920000D01*
X185860000Y-147920000D02*
X185560000Y-148220000D01*
X186960000Y-146120000D02*
X186960000Y-157920000D01*
X191060000Y-146120000D02*
X186960000Y-146120000D01*
X191060000Y-157920000D02*
X186960000Y-157920000D01*
X192560000Y-152020000D02*
X193560000Y-152020000D01*
X193060000Y-151520000D02*
X193060000Y-152520000D01*
X195060000Y-146120000D02*
X199160000Y-146120000D01*
X199160000Y-146120000D02*
X199160000Y-148520000D01*
X199160000Y-150720000D02*
X199160000Y-153320000D01*
X199160000Y-155520000D02*
X199160000Y-157920000D01*
X199160000Y-157920000D02*
X195060000Y-157920000D01*
X196060000Y-152020000D02*
G75*
G03*
X196060000Y-152020000I-3000000J0D01*
G01*
%TO.C,SW10*%
X141080000Y-147840000D02*
X141680000Y-147840000D01*
X141380000Y-148140000D02*
X141080000Y-147840000D01*
X141680000Y-147840000D02*
X141380000Y-148140000D01*
X142780000Y-146040000D02*
X142780000Y-157840000D01*
X146880000Y-146040000D02*
X142780000Y-146040000D01*
X146880000Y-157840000D02*
X142780000Y-157840000D01*
X148380000Y-151940000D02*
X149380000Y-151940000D01*
X148880000Y-151440000D02*
X148880000Y-152440000D01*
X150880000Y-146040000D02*
X154980000Y-146040000D01*
X154980000Y-146040000D02*
X154980000Y-148440000D01*
X154980000Y-150640000D02*
X154980000Y-153240000D01*
X154980000Y-155440000D02*
X154980000Y-157840000D01*
X154980000Y-157840000D02*
X150880000Y-157840000D01*
X151880000Y-151940000D02*
G75*
G03*
X151880000Y-151940000I-3000000J0D01*
G01*
%TO.C,D12*%
X163370000Y-95790000D02*
X170670000Y-95790000D01*
X163370000Y-101290000D02*
X170670000Y-101290000D01*
X170670000Y-100140000D02*
X169820000Y-101290000D01*
X170670000Y-101290000D02*
X170670000Y-100140000D01*
%TD*%
M02*
