%TF.GenerationSoftware,KiCad,Pcbnew,7.0.1*%
%TF.CreationDate,2023-12-14T09:52:28-06:00*%
%TF.ProjectId,ProjectNeoRogue,50726f6a-6563-4744-9e65-6f526f677565,v1*%
%TF.SameCoordinates,Original*%
%TF.FileFunction,Soldermask,Bot*%
%TF.FilePolarity,Negative*%
%FSLAX46Y46*%
G04 Gerber Fmt 4.6, Leading zero omitted, Abs format (unit mm)*
G04 Created by KiCad (PCBNEW 7.0.1) date 2023-12-14 09:52:28*
%MOMM*%
%LPD*%
G01*
G04 APERTURE LIST*
G04 Aperture macros list*
%AMRoundRect*
0 Rectangle with rounded corners*
0 $1 Rounding radius*
0 $2 $3 $4 $5 $6 $7 $8 $9 X,Y pos of 4 corners*
0 Add a 4 corners polygon primitive as box body*
4,1,4,$2,$3,$4,$5,$6,$7,$8,$9,$2,$3,0*
0 Add four circle primitives for the rounded corners*
1,1,$1+$1,$2,$3*
1,1,$1+$1,$4,$5*
1,1,$1+$1,$6,$7*
1,1,$1+$1,$8,$9*
0 Add four rect primitives between the rounded corners*
20,1,$1+$1,$2,$3,$4,$5,0*
20,1,$1+$1,$4,$5,$6,$7,0*
20,1,$1+$1,$6,$7,$8,$9,0*
20,1,$1+$1,$8,$9,$2,$3,0*%
G04 Aperture macros list end*
%ADD10C,1.152495*%
%ADD11C,0.100000*%
%ADD12O,2.127200X2.127200*%
%ADD13RoundRect,0.200000X0.863600X0.863600X-0.863600X0.863600X-0.863600X-0.863600X0.863600X-0.863600X0*%
%ADD14C,2.127200*%
%ADD15RoundRect,0.200000X0.850000X-0.850000X0.850000X0.850000X-0.850000X0.850000X-0.850000X-0.850000X0*%
%ADD16O,2.100000X2.100000*%
%ADD17C,6.400000*%
%ADD18RoundRect,0.200000X-1.000000X-1.000000X1.000000X-1.000000X1.000000X1.000000X-1.000000X1.000000X0*%
%ADD19C,2.400000*%
%ADD20C,3.600000*%
%ADD21RoundRect,0.450000X0.375000X0.625000X-0.375000X0.625000X-0.375000X-0.625000X0.375000X-0.625000X0*%
%ADD22RoundRect,0.101600X0.317500X0.635000X-0.317500X0.635000X-0.317500X-0.635000X0.317500X-0.635000X0*%
%ADD23RoundRect,0.443750X-0.243750X-0.456250X0.243750X-0.456250X0.243750X0.456250X-0.243750X0.456250X0*%
%ADD24R,1.930400X2.438400*%
%ADD25R,1.955800X2.463800*%
%ADD26RoundRect,0.450000X-0.625000X0.375000X-0.625000X-0.375000X0.625000X-0.375000X0.625000X0.375000X0*%
%ADD27RoundRect,0.101600X-0.317500X-0.635000X0.317500X-0.635000X0.317500X0.635000X-0.317500X0.635000X0*%
%ADD28RoundRect,0.350000X0.150000X-0.587500X0.150000X0.587500X-0.150000X0.587500X-0.150000X-0.587500X0*%
%ADD29RoundRect,0.200000X2.750000X1.750000X-2.750000X1.750000X-2.750000X-1.750000X2.750000X-1.750000X0*%
%ADD30RoundRect,0.200000X2.250000X2.750000X-2.250000X2.750000X-2.250000X-2.750000X2.250000X-2.750000X0*%
%ADD31C,1.000000*%
%ADD32RoundRect,0.200000X0.800000X-0.350000X0.800000X0.350000X-0.800000X0.350000X-0.800000X-0.350000X0*%
%ADD33RoundRect,0.200000X1.100000X-0.600000X1.100000X0.600000X-1.100000X0.600000X-1.100000X-0.600000X0*%
%ADD34RoundRect,0.200000X0.750000X-0.600000X0.750000X0.600000X-0.750000X0.600000X-0.750000X-0.600000X0*%
%ADD35RoundRect,0.200000X0.750000X-0.800000X0.750000X0.800000X-0.750000X0.800000X-0.750000X-0.800000X0*%
%ADD36RoundRect,0.200000X-0.850000X-0.850000X0.850000X-0.850000X0.850000X0.850000X-0.850000X0.850000X0*%
%ADD37RoundRect,0.450000X0.625000X-0.375000X0.625000X0.375000X-0.625000X0.375000X-0.625000X-0.375000X0*%
%ADD38RoundRect,0.443750X-0.456250X0.243750X-0.456250X-0.243750X0.456250X-0.243750X0.456250X0.243750X0*%
%ADD39RoundRect,0.450000X-0.375000X-0.625000X0.375000X-0.625000X0.375000X0.625000X-0.375000X0.625000X0*%
%ADD40C,2.000000*%
%ADD41RoundRect,0.200000X-0.250000X0.400000X-0.250000X-0.400000X0.250000X-0.400000X0.250000X0.400000X0*%
%ADD42RoundRect,0.200000X-0.200000X0.400000X-0.200000X-0.400000X0.200000X-0.400000X0.200000X0.400000X0*%
%ADD43RoundRect,0.200000X0.974000X0.850000X-0.974000X0.850000X-0.974000X-0.850000X0.974000X-0.850000X0*%
%ADD44RoundRect,0.200000X-0.450000X0.750000X-0.450000X-0.750000X0.450000X-0.750000X0.450000X0.750000X0*%
%ADD45RoundRect,0.200000X0.750000X0.450000X-0.750000X0.450000X-0.750000X-0.450000X0.750000X-0.450000X0*%
%ADD46RoundRect,0.200000X0.450000X-0.750000X0.450000X0.750000X-0.450000X0.750000X-0.450000X-0.750000X0*%
%ADD47RoundRect,0.200000X0.450000X-0.450000X0.450000X0.450000X-0.450000X0.450000X-0.450000X-0.450000X0*%
%ADD48RoundRect,0.070000X0.325000X0.875000X-0.325000X0.875000X-0.325000X-0.875000X0.325000X-0.875000X0*%
%ADD49RoundRect,0.443750X0.243750X0.456250X-0.243750X0.456250X-0.243750X-0.456250X0.243750X-0.456250X0*%
%ADD50RoundRect,0.443750X0.456250X-0.243750X0.456250X0.243750X-0.456250X0.243750X-0.456250X-0.243750X0*%
%ADD51RoundRect,0.200000X0.300000X0.600000X-0.300000X0.600000X-0.300000X-0.600000X0.300000X-0.600000X0*%
%ADD52RoundRect,0.450001X-0.924999X0.499999X-0.924999X-0.499999X0.924999X-0.499999X0.924999X0.499999X0*%
%ADD53RoundRect,0.200000X-0.400000X0.500000X-0.400000X-0.500000X0.400000X-0.500000X0.400000X0.500000X0*%
%ADD54C,1.300000*%
%ADD55RoundRect,0.200000X-0.750000X0.350000X-0.750000X-0.350000X0.750000X-0.350000X0.750000X0.350000X0*%
%ADD56RoundRect,0.200000X-0.974000X-0.850000X0.974000X-0.850000X0.974000X0.850000X-0.974000X0.850000X0*%
%ADD57C,1.050000*%
%ADD58RoundRect,0.200000X0.125000X0.700000X-0.125000X0.700000X-0.125000X-0.700000X0.125000X-0.700000X0*%
%ADD59O,1.400000X2.200000*%
%ADD60O,1.400000X2.500000*%
%ADD61RoundRect,0.200000X0.750000X1.100000X-0.750000X1.100000X-0.750000X-1.100000X0.750000X-1.100000X0*%
%ADD62RoundRect,0.200000X1.900000X1.100000X-1.900000X1.100000X-1.900000X-1.100000X1.900000X-1.100000X0*%
%ADD63RoundRect,0.200000X0.150000X-0.350000X0.150000X0.350000X-0.150000X0.350000X-0.150000X-0.350000X0*%
%ADD64RoundRect,0.200000X0.690000X-0.400000X0.690000X0.400000X-0.690000X0.400000X-0.690000X-0.400000X0*%
G04 APERTURE END LIST*
%TO.C,D8*%
D10*
X203715047Y-149220000D02*
G75*
G03*
X203715047Y-149220000I-576247J0D01*
G01*
D11*
X206390000Y-150439200D02*
X204459600Y-150439200D01*
X204459600Y-148000800D01*
X206390000Y-148000800D01*
X206390000Y-150439200D01*
G36*
X206390000Y-150439200D02*
G01*
X204459600Y-150439200D01*
X204459600Y-148000800D01*
X206390000Y-148000800D01*
X206390000Y-150439200D01*
G37*
X201818000Y-150464600D02*
X199836800Y-150464600D01*
X199836800Y-147975400D01*
X201818000Y-147975400D01*
X201818000Y-150464600D01*
G36*
X201818000Y-150464600D02*
G01*
X199836800Y-150464600D01*
X199836800Y-147975400D01*
X201818000Y-147975400D01*
X201818000Y-150464600D01*
G37*
%TO.C,D5*%
D10*
X204006247Y-68940000D02*
G75*
G03*
X204006247Y-68940000I-576247J0D01*
G01*
D11*
X206681200Y-70159200D02*
X204750800Y-70159200D01*
X204750800Y-67720800D01*
X206681200Y-67720800D01*
X206681200Y-70159200D01*
G36*
X206681200Y-70159200D02*
G01*
X204750800Y-70159200D01*
X204750800Y-67720800D01*
X206681200Y-67720800D01*
X206681200Y-70159200D01*
G37*
X202109200Y-70184600D02*
X200128000Y-70184600D01*
X200128000Y-67695400D01*
X202109200Y-67695400D01*
X202109200Y-70184600D01*
G36*
X202109200Y-70184600D02*
G01*
X200128000Y-70184600D01*
X200128000Y-67695400D01*
X202109200Y-67695400D01*
X202109200Y-70184600D01*
G37*
%TO.C,D2*%
D10*
X203846247Y-56440000D02*
G75*
G03*
X203846247Y-56440000I-576247J0D01*
G01*
D11*
X206521200Y-57659200D02*
X204590800Y-57659200D01*
X204590800Y-55220800D01*
X206521200Y-55220800D01*
X206521200Y-57659200D01*
G36*
X206521200Y-57659200D02*
G01*
X204590800Y-57659200D01*
X204590800Y-55220800D01*
X206521200Y-55220800D01*
X206521200Y-57659200D01*
G37*
X201949200Y-57684600D02*
X199968000Y-57684600D01*
X199968000Y-55195400D01*
X201949200Y-55195400D01*
X201949200Y-57684600D01*
G36*
X201949200Y-57684600D02*
G01*
X199968000Y-57684600D01*
X199968000Y-55195400D01*
X201949200Y-55195400D01*
X201949200Y-57684600D01*
G37*
%TO.C,D4*%
D10*
X203816247Y-62870000D02*
G75*
G03*
X203816247Y-62870000I-576247J0D01*
G01*
D11*
X206491200Y-64089200D02*
X204560800Y-64089200D01*
X204560800Y-61650800D01*
X206491200Y-61650800D01*
X206491200Y-64089200D01*
G36*
X206491200Y-64089200D02*
G01*
X204560800Y-64089200D01*
X204560800Y-61650800D01*
X206491200Y-61650800D01*
X206491200Y-64089200D01*
G37*
X201919200Y-64114600D02*
X199938000Y-64114600D01*
X199938000Y-61625400D01*
X201919200Y-61625400D01*
X201919200Y-64114600D01*
G36*
X201919200Y-64114600D02*
G01*
X199938000Y-64114600D01*
X199938000Y-61625400D01*
X201919200Y-61625400D01*
X201919200Y-64114600D01*
G37*
%TO.C,D6*%
D10*
X204050247Y-136600000D02*
G75*
G03*
X204050247Y-136600000I-576247J0D01*
G01*
D11*
X206725200Y-137819200D02*
X204794800Y-137819200D01*
X204794800Y-135380800D01*
X206725200Y-135380800D01*
X206725200Y-137819200D01*
G36*
X206725200Y-137819200D02*
G01*
X204794800Y-137819200D01*
X204794800Y-135380800D01*
X206725200Y-135380800D01*
X206725200Y-137819200D01*
G37*
X202153200Y-137844600D02*
X200172000Y-137844600D01*
X200172000Y-135355400D01*
X202153200Y-135355400D01*
X202153200Y-137844600D01*
G36*
X202153200Y-137844600D02*
G01*
X200172000Y-137844600D01*
X200172000Y-135355400D01*
X202153200Y-135355400D01*
X202153200Y-137844600D01*
G37*
%TO.C,D7*%
D10*
X203835047Y-143040000D02*
G75*
G03*
X203835047Y-143040000I-576247J0D01*
G01*
D11*
X206510000Y-144259200D02*
X204579600Y-144259200D01*
X204579600Y-141820800D01*
X206510000Y-141820800D01*
X206510000Y-144259200D01*
G36*
X206510000Y-144259200D02*
G01*
X204579600Y-144259200D01*
X204579600Y-141820800D01*
X206510000Y-141820800D01*
X206510000Y-144259200D01*
G37*
X201938000Y-144284600D02*
X199956800Y-144284600D01*
X199956800Y-141795400D01*
X201938000Y-141795400D01*
X201938000Y-144284600D01*
G36*
X201938000Y-144284600D02*
G01*
X199956800Y-144284600D01*
X199956800Y-141795400D01*
X201938000Y-141795400D01*
X201938000Y-144284600D01*
G37*
%TD*%
D12*
%TO.C,X1*%
X213220000Y-65250000D03*
D13*
X210680000Y-65250000D03*
D12*
X213220000Y-67790000D03*
X210680000Y-67790000D03*
D14*
X213220000Y-70330000D03*
X210680000Y-70330000D03*
%TD*%
D15*
%TO.C,J7*%
X168040000Y-128340000D03*
D16*
X170580000Y-128340000D03*
X173120000Y-128340000D03*
X175660000Y-128340000D03*
X178200000Y-128340000D03*
X180740000Y-128340000D03*
X183280000Y-128340000D03*
%TD*%
D17*
%TO.C,REF\u002A\u002A*%
X214370000Y-49510000D03*
%TD*%
%TO.C,REF\u002A\u002A*%
X214690000Y-155670000D03*
%TD*%
D18*
%TO.C,SW9*%
X128020000Y-51080000D03*
D19*
X128020000Y-56080000D03*
X128020000Y-53580000D03*
D20*
X135520000Y-47980000D03*
X135520000Y-59180000D03*
D19*
X142520000Y-56080000D03*
X142520000Y-51080000D03*
%TD*%
D18*
%TO.C,SW10*%
X128270000Y-149270000D03*
D19*
X128270000Y-154270000D03*
X128270000Y-151770000D03*
D20*
X135770000Y-146170000D03*
X135770000Y-157370000D03*
D19*
X142770000Y-154270000D03*
X142770000Y-149270000D03*
%TD*%
D21*
%TO.C,D3*%
X194120000Y-130890000D03*
X191320000Y-130890000D03*
%TD*%
D22*
%TO.C,JP3*%
X161750000Y-56470000D03*
X160734000Y-56470000D03*
%TD*%
D21*
%TO.C,R23*%
X177560000Y-91970000D03*
X174760000Y-91970000D03*
%TD*%
D23*
%TO.C,C1*%
X147032500Y-56040000D03*
X148907500Y-56040000D03*
%TD*%
D21*
%TO.C,R19*%
X161540000Y-145920000D03*
X158740000Y-145920000D03*
%TD*%
D24*
%TO.C,D8*%
X205424800Y-149220000D03*
D25*
X200852800Y-149220000D03*
%TD*%
D21*
%TO.C,R1*%
X208530000Y-155500000D03*
X205730000Y-155500000D03*
%TD*%
%TO.C,R5*%
X130270000Y-114370000D03*
X127470000Y-114370000D03*
%TD*%
D26*
%TO.C,R15*%
X125340000Y-56250000D03*
X125340000Y-59050000D03*
%TD*%
D24*
%TO.C,D5*%
X205716000Y-68940000D03*
D25*
X201144000Y-68940000D03*
%TD*%
D27*
%TO.C,JP2*%
X182304000Y-52780000D03*
X183320000Y-52780000D03*
%TD*%
D28*
%TO.C,D19*%
X171650000Y-147490000D03*
X169750000Y-147490000D03*
X170700000Y-145615000D03*
%TD*%
D29*
%TO.C,BT2*%
X205311000Y-119174800D03*
D30*
X192136000Y-119174800D03*
X161836000Y-119199800D03*
D29*
X148711000Y-119174800D03*
%TD*%
D31*
%TO.C,J2*%
X127050000Y-138820000D03*
X127050000Y-130820000D03*
D32*
X138050000Y-131620000D03*
X138050000Y-132720000D03*
X138050000Y-133820000D03*
X138050000Y-134920000D03*
X138050000Y-136020000D03*
X138050000Y-137120000D03*
X138050000Y-138220000D03*
X138050000Y-139320000D03*
X138050000Y-140420000D03*
D33*
X127450000Y-141620000D03*
D34*
X137050000Y-141620000D03*
D35*
X137050000Y-127020000D03*
D33*
X127450000Y-126120000D03*
%TD*%
D36*
%TO.C,J4*%
X124700000Y-108200000D03*
D16*
X124700000Y-105660000D03*
%TD*%
D15*
%TO.C,J1*%
X152765000Y-156840000D03*
D16*
X150225000Y-156840000D03*
%TD*%
D24*
%TO.C,D2*%
X205556000Y-56440000D03*
D25*
X200984000Y-56440000D03*
%TD*%
D37*
%TO.C,R28*%
X215392000Y-126622000D03*
X215392000Y-123822000D03*
%TD*%
D23*
%TO.C,C9*%
X132632104Y-63460000D03*
X134507104Y-63460000D03*
%TD*%
D26*
%TO.C,R30*%
X158750000Y-56512000D03*
X158750000Y-59312000D03*
%TD*%
D38*
%TO.C,C2*%
X189611000Y-140286500D03*
X189611000Y-142161500D03*
%TD*%
D24*
%TO.C,D4*%
X205526000Y-62870000D03*
D25*
X200954000Y-62870000D03*
%TD*%
D21*
%TO.C,R12*%
X130260000Y-117810000D03*
X127460000Y-117810000D03*
%TD*%
D23*
%TO.C,C6*%
X178486500Y-142482000D03*
X180361500Y-142482000D03*
%TD*%
D39*
%TO.C,R25*%
X194140000Y-56450000D03*
X196940000Y-56450000D03*
%TD*%
D21*
%TO.C,R8*%
X181490000Y-154960140D03*
X178690000Y-154960140D03*
%TD*%
D26*
%TO.C,F2*%
X206348000Y-109713000D03*
X206348000Y-112513000D03*
%TD*%
D40*
%TO.C,Fid-3*%
X124500000Y-157970000D03*
%TD*%
D26*
%TO.C,R26*%
X212852000Y-123822000D03*
X212852000Y-126622000D03*
%TD*%
D41*
%TO.C,RN2*%
X202227000Y-89131000D03*
D42*
X203027000Y-89131000D03*
X203827000Y-89131000D03*
D41*
X204627000Y-89131000D03*
X204627000Y-90931000D03*
D42*
X203827000Y-90931000D03*
X203027000Y-90931000D03*
D41*
X202227000Y-90931000D03*
%TD*%
D43*
%TO.C,SW2*%
X173030000Y-49430000D03*
X169630000Y-49430000D03*
%TD*%
D37*
%TO.C,R11*%
X166750000Y-148327000D03*
X166750000Y-145527000D03*
%TD*%
%TO.C,R10*%
X174880000Y-148390000D03*
X174880000Y-145590000D03*
%TD*%
D22*
%TO.C,JP1*%
X149628000Y-87820000D03*
X148612000Y-87820000D03*
%TD*%
D40*
%TO.C,Fid-2*%
X215480000Y-102090000D03*
%TD*%
D44*
%TO.C,U2*%
X129098604Y-65475000D03*
X130368604Y-65475000D03*
X131638604Y-65475000D03*
X132908604Y-65475000D03*
X134178604Y-65475000D03*
X135448604Y-65475000D03*
X136718604Y-65475000D03*
X137988604Y-65475000D03*
X139258604Y-65475000D03*
X140528604Y-65475000D03*
X141798604Y-65475000D03*
X143068604Y-65475000D03*
X144338604Y-65475000D03*
X145608604Y-65475000D03*
D45*
X146858604Y-67240000D03*
X146858604Y-68510000D03*
X146858604Y-69780000D03*
X146858604Y-71050000D03*
X146858604Y-72320000D03*
X146858604Y-73590000D03*
X146858604Y-74860000D03*
X146858604Y-76130000D03*
X146858604Y-77400000D03*
X146858604Y-78670000D03*
X146858604Y-79940000D03*
X146858604Y-81210000D03*
D46*
X145608604Y-82975000D03*
X144338604Y-82975000D03*
X143068604Y-82975000D03*
X141798604Y-82975000D03*
X140528604Y-82975000D03*
X139258604Y-82975000D03*
X137988604Y-82975000D03*
X136718604Y-82975000D03*
X135448604Y-82975000D03*
X134178604Y-82975000D03*
X132908604Y-82975000D03*
X131638604Y-82975000D03*
X130368604Y-82975000D03*
X129098604Y-82975000D03*
D47*
X138218604Y-71325000D03*
X136818604Y-71325000D03*
X135418604Y-71325000D03*
X138218604Y-72725000D03*
X136818604Y-72725000D03*
X135418604Y-72725000D03*
X138218604Y-74125000D03*
X136818604Y-74125000D03*
X135418604Y-74125000D03*
%TD*%
D48*
%TO.C,U3*%
X171704000Y-140970000D03*
X170434000Y-140970000D03*
X169164000Y-140970000D03*
X167894000Y-140970000D03*
X167894000Y-135470000D03*
X169164000Y-135470000D03*
X170434000Y-135470000D03*
X171704000Y-135470000D03*
%TD*%
D49*
%TO.C,C4*%
X130316104Y-61555000D03*
X128441104Y-61555000D03*
%TD*%
D21*
%TO.C,R4*%
X148800000Y-58350000D03*
X146000000Y-58350000D03*
%TD*%
D40*
%TO.C,Fid-1*%
X146860000Y-48790000D03*
%TD*%
D21*
%TO.C,R6*%
X130340000Y-111190000D03*
X127540000Y-111190000D03*
%TD*%
D37*
%TO.C,R18*%
X124390000Y-154100000D03*
X124390000Y-151300000D03*
%TD*%
D21*
%TO.C,R16*%
X149070000Y-53030000D03*
X146270000Y-53030000D03*
%TD*%
D26*
%TO.C,R17*%
X124380000Y-145940000D03*
X124380000Y-148740000D03*
%TD*%
D50*
%TO.C,C8*%
X163422000Y-155357500D03*
X163422000Y-153482500D03*
%TD*%
D38*
%TO.C,C5*%
X173551600Y-135410056D03*
X173551600Y-137285056D03*
%TD*%
D24*
%TO.C,D6*%
X205760000Y-136600000D03*
D25*
X201188000Y-136600000D03*
%TD*%
D37*
%TO.C,R14*%
X125330000Y-51170000D03*
X125330000Y-48370000D03*
%TD*%
D39*
%TO.C,R20*%
X197420000Y-129320000D03*
X200220000Y-129320000D03*
%TD*%
%TO.C,R9*%
X191410000Y-149280000D03*
X194210000Y-149280000D03*
%TD*%
D26*
%TO.C,F1*%
X206602000Y-124330000D03*
X206602000Y-127130000D03*
%TD*%
D39*
%TO.C,R27*%
X180320000Y-92010000D03*
X183120000Y-92010000D03*
%TD*%
D51*
%TO.C,U1*%
X193615000Y-142839744D03*
X192665000Y-142839744D03*
X191715000Y-142839744D03*
X191715000Y-140239744D03*
X193615000Y-140239744D03*
%TD*%
D37*
%TO.C,R7*%
X161263000Y-155693000D03*
X161263000Y-152893000D03*
%TD*%
D52*
%TO.C,C7*%
X186484800Y-133321256D03*
X186484800Y-136571256D03*
%TD*%
D53*
%TO.C,SW1*%
X215168604Y-130161396D03*
X212958604Y-130161396D03*
D54*
X214068604Y-132311396D03*
X214068604Y-135311396D03*
D53*
X215168604Y-137461396D03*
X212958604Y-137461396D03*
D55*
X212308604Y-131561396D03*
X212308604Y-134561396D03*
X212308604Y-136061396D03*
%TD*%
D29*
%TO.C,BT1*%
X205240000Y-103450000D03*
D30*
X192065000Y-103450000D03*
X161765000Y-103475000D03*
D29*
X148640000Y-103450000D03*
%TD*%
D21*
%TO.C,R29*%
X178130000Y-52920000D03*
X175330000Y-52920000D03*
%TD*%
D49*
%TO.C,C3*%
X130316104Y-63460000D03*
X128441104Y-63460000D03*
%TD*%
D56*
%TO.C,SW3*%
X177970000Y-49450000D03*
X181370000Y-49450000D03*
%TD*%
D39*
%TO.C,D9*%
X199980000Y-155470000D03*
X202780000Y-155470000D03*
%TD*%
D21*
%TO.C,R13*%
X130260000Y-121100000D03*
X127460000Y-121100000D03*
%TD*%
D23*
%TO.C,C10*%
X208255000Y-134840000D03*
X210130000Y-134840000D03*
%TD*%
D24*
%TO.C,D7*%
X205544800Y-143040000D03*
D25*
X200972800Y-143040000D03*
%TD*%
D26*
%TO.C,R3*%
X197104000Y-134744000D03*
X197104000Y-137544000D03*
%TD*%
D57*
%TO.C,J8*%
X172950000Y-153230000D03*
X167170000Y-153230000D03*
D58*
X173385000Y-152030000D03*
X172585000Y-152030000D03*
X171310000Y-152030000D03*
X170310000Y-152030000D03*
X169810000Y-152030000D03*
X171810000Y-152030000D03*
X167535000Y-152030000D03*
X166735000Y-152030000D03*
X166985000Y-152030000D03*
X167785000Y-152030000D03*
X168310000Y-152030000D03*
X169310000Y-152030000D03*
X170810000Y-152030000D03*
X168810000Y-152030000D03*
X172335000Y-152030000D03*
X173135000Y-152030000D03*
D59*
X174380000Y-156880000D03*
D60*
X174380000Y-152730000D03*
D59*
X165740000Y-156880000D03*
D60*
X165740000Y-152730000D03*
%TD*%
D61*
%TO.C,U4*%
X183476600Y-139840800D03*
X181176600Y-139840800D03*
X178876600Y-139840800D03*
D62*
X181176600Y-133540800D03*
%TD*%
D26*
%TO.C,R2*%
X195834000Y-140078000D03*
X195834000Y-142878000D03*
%TD*%
D63*
%TO.C,U5*%
X205780000Y-132130000D03*
X205280000Y-132130000D03*
X204780000Y-132130000D03*
X204280000Y-132130000D03*
X204280000Y-130150000D03*
X204780000Y-130150000D03*
X205280000Y-130150000D03*
X205780000Y-130150000D03*
D64*
X205030000Y-131140000D03*
%TD*%
M02*
