%TF.GenerationSoftware,KiCad,Pcbnew,7.0.7*%
%TF.CreationDate,2023-11-04T20:56:19-05:00*%
%TF.ProjectId,ProjectNeoRogue,50726f6a-6563-4744-9e65-6f526f677565,v1*%
%TF.SameCoordinates,Original*%
%TF.FileFunction,Copper,L1,Top*%
%TF.FilePolarity,Positive*%
%FSLAX46Y46*%
G04 Gerber Fmt 4.6, Leading zero omitted, Abs format (unit mm)*
G04 Created by KiCad (PCBNEW 7.0.7) date 2023-11-04 20:56:19*
%MOMM*%
%LPD*%
G01*
G04 APERTURE LIST*
%TA.AperFunction,ComponentPad*%
%ADD10O,1.727200X1.727200*%
%TD*%
%TA.AperFunction,ComponentPad*%
%ADD11R,1.727200X1.727200*%
%TD*%
%TA.AperFunction,ComponentPad*%
%ADD12C,1.727200*%
%TD*%
%TA.AperFunction,SMDPad,CuDef*%
%ADD13R,1.500000X1.000000*%
%TD*%
%TA.AperFunction,ComponentPad*%
%ADD14R,1.700000X1.700000*%
%TD*%
%TA.AperFunction,ComponentPad*%
%ADD15O,1.700000X1.700000*%
%TD*%
%TA.AperFunction,ComponentPad*%
%ADD16R,2.000000X2.000000*%
%TD*%
%TA.AperFunction,ComponentPad*%
%ADD17C,2.000000*%
%TD*%
%TA.AperFunction,ComponentPad*%
%ADD18C,3.200000*%
%TD*%
%TA.AperFunction,ComponentPad*%
%ADD19O,1.000000X1.800000*%
%TD*%
%TA.AperFunction,ComponentPad*%
%ADD20O,1.000000X2.100000*%
%TD*%
%TA.AperFunction,ViaPad*%
%ADD21C,0.750000*%
%TD*%
%TA.AperFunction,Conductor*%
%ADD22C,0.250000*%
%TD*%
G04 APERTURE END LIST*
D10*
%TO.P,X1,1,VCC*%
%TO.N,VCC*%
X149828604Y-48981396D03*
D11*
%TO.P,X1,2,GND*%
%TO.N,GND*%
X149828604Y-51521396D03*
D10*
%TO.P,X1,3,SDA*%
%TO.N,IO06*%
X152368604Y-48981396D03*
%TO.P,X1,4,SCL*%
%TO.N,IO07*%
X152368604Y-51521396D03*
D12*
%TO.P,X1,5,GPIO1*%
%TO.N,Net-(JP2-B)*%
X154908604Y-48981396D03*
%TO.P,X1,6,GPIO2*%
%TO.N,Net-(JP3-A)*%
X154908604Y-51521396D03*
%TD*%
D13*
%TO.P,D11,1,VDD*%
%TO.N,VCC*%
X173870000Y-96880000D03*
%TO.P,D11,2,DOUT*%
%TO.N,Net-(D11-DOUT)*%
X173870000Y-100080000D03*
%TO.P,D11,3,VSS*%
%TO.N,GND*%
X178770000Y-100080000D03*
%TO.P,D11,4,DIN*%
%TO.N,Net-(D1-DOUT)*%
X178770000Y-96880000D03*
%TD*%
D14*
%TO.P,J7,1,Pin_1*%
%TO.N,unconnected-(J7-Pin_1-Pad1)*%
X197540000Y-84320000D03*
D15*
%TO.P,J7,2,Pin_2*%
%TO.N,IO02*%
X197540000Y-81780000D03*
%TO.P,J7,3,Pin_3*%
%TO.N,IO01*%
X197540000Y-79240000D03*
%TO.P,J7,4,Pin_4*%
%TO.N,IO08*%
X197540000Y-76700000D03*
%TO.P,J7,5,Pin_5*%
%TO.N,IO09*%
X197540000Y-74160000D03*
%TO.P,J7,6,Pin_6*%
%TO.N,GND*%
X197540000Y-71620000D03*
%TO.P,J7,7,Pin_7*%
%TO.N,VCC*%
X197540000Y-69080000D03*
%TD*%
D13*
%TO.P,D1,1,VDD*%
%TO.N,VCC*%
X183410000Y-96800000D03*
%TO.P,D1,2,DOUT*%
%TO.N,Net-(D1-DOUT)*%
X183410000Y-100000000D03*
%TO.P,D1,3,VSS*%
%TO.N,GND*%
X188310000Y-100000000D03*
%TO.P,D1,4,DIN*%
%TO.N,IO18*%
X188310000Y-96800000D03*
%TD*%
D16*
%TO.P,SW9,A,A*%
%TO.N,IO04*%
X185560000Y-149520000D03*
D17*
%TO.P,SW9,B,B*%
%TO.N,IO05*%
X185560000Y-154520000D03*
%TO.P,SW9,C,C*%
%TO.N,GND*%
X185560000Y-152020000D03*
D18*
%TO.P,SW9,MP*%
%TO.N,N/C*%
X193060000Y-146420000D03*
X193060000Y-157620000D03*
D17*
%TO.P,SW9,S1,S1*%
%TO.N,IO20*%
X200060000Y-154520000D03*
%TO.P,SW9,S2,S2*%
%TO.N,GND*%
X200060000Y-149520000D03*
%TD*%
D16*
%TO.P,SW10,A,A*%
%TO.N,IO16*%
X141380000Y-149440000D03*
D17*
%TO.P,SW10,B,B*%
%TO.N,IO17*%
X141380000Y-154440000D03*
%TO.P,SW10,C,C*%
%TO.N,GND*%
X141380000Y-151940000D03*
D18*
%TO.P,SW10,MP*%
%TO.N,N/C*%
X148880000Y-146340000D03*
X148880000Y-157540000D03*
D17*
%TO.P,SW10,S1,S1*%
%TO.N,IO19*%
X155880000Y-154440000D03*
%TO.P,SW10,S2,S2*%
%TO.N,GND*%
X155880000Y-149440000D03*
%TD*%
D13*
%TO.P,D12,1,VDD*%
%TO.N,VCC*%
X164570000Y-96940000D03*
%TO.P,D12,2,DOUT*%
%TO.N,unconnected-(D12-DOUT-Pad2)*%
X164570000Y-100140000D03*
%TO.P,D12,3,VSS*%
%TO.N,GND*%
X169470000Y-100140000D03*
%TO.P,D12,4,DIN*%
%TO.N,Net-(D11-DOUT)*%
X169470000Y-96940000D03*
%TD*%
D14*
%TO.P,J10,1,Pin_1*%
%TO.N,TDI*%
X133960000Y-96990000D03*
%TD*%
%TO.P,J9,1,Pin_1*%
%TO.N,GND*%
X154690000Y-83760000D03*
D15*
%TO.P,J9,2,Pin_2*%
%TO.N,VCC*%
X154690000Y-81220000D03*
%TO.P,J9,3,Pin_3*%
%TO.N,IO09*%
X154690000Y-78680000D03*
%TO.P,J9,4,Pin_4*%
%TO.N,IO08*%
X154690000Y-76140000D03*
%TO.P,J9,5,Pin_5*%
%TO.N,IO21*%
X154690000Y-73600000D03*
%TO.P,J9,6,Pin_6*%
%TO.N,IO01*%
X154690000Y-71060000D03*
%TO.P,J9,7,Pin_7*%
%TO.N,IO02*%
X154690000Y-68520000D03*
%TO.P,J9,8,Pin_8*%
%TO.N,IO38*%
X154690000Y-65980000D03*
%TD*%
D14*
%TO.P,J5,1,Pin_1*%
%TO.N,GND*%
X124941000Y-51291000D03*
D15*
%TO.P,J5,2,Pin_2*%
%TO.N,RESET*%
X124941000Y-53831000D03*
%TD*%
D14*
%TO.P,J4,1,Pin_1*%
%TO.N,USB_TX_ESP_RX*%
X127920000Y-105860000D03*
D15*
%TO.P,J4,2,Pin_2*%
%TO.N,USB_RX_ESP_TX*%
X127920000Y-103320000D03*
%TD*%
D14*
%TO.P,J1,1,Pin_1*%
%TO.N,VBUS*%
X127320000Y-148480000D03*
D15*
%TO.P,J1,2,Pin_2*%
%TO.N,GND*%
X127320000Y-151020000D03*
%TD*%
D14*
%TO.P,J6,1,Pin_1*%
%TO.N,GND*%
X124941000Y-59165000D03*
D15*
%TO.P,J6,2,Pin_2*%
%TO.N,Boot*%
X124941000Y-61705000D03*
%TD*%
D19*
%TO.P,J8,S1,SHIELD*%
%TO.N,Net-(J8-SHIELD)*%
X174380000Y-156880000D03*
D20*
X174380000Y-152730000D03*
D19*
X165740000Y-156880000D03*
D20*
X165740000Y-152730000D03*
%TD*%
D21*
%TO.N,GND*%
X195834000Y-145288000D03*
X125984000Y-91694000D03*
X159004000Y-67056000D03*
X140208000Y-92202000D03*
X143090000Y-89130000D03*
X158750000Y-60706000D03*
X129032000Y-49276000D03*
X130200000Y-84890000D03*
X134620000Y-94234000D03*
X141224000Y-86360000D03*
X164338000Y-113792000D03*
X140716000Y-63754000D03*
X215519000Y-65913000D03*
X146558000Y-114046000D03*
X130810000Y-80264000D03*
X203708000Y-142494000D03*
X161290000Y-54610000D03*
X131572000Y-154686000D03*
X141732000Y-79502000D03*
X173736000Y-139446000D03*
X133858000Y-58420000D03*
X130302000Y-67056000D03*
X135128000Y-148590000D03*
X145034000Y-108458000D03*
X131826000Y-84582000D03*
X148590000Y-99060000D03*
X188722000Y-127508000D03*
X140000000Y-71690000D03*
X154940000Y-86106000D03*
X181610000Y-158496000D03*
X215519000Y-69977000D03*
X138430000Y-63754000D03*
X184404000Y-58674000D03*
X152400000Y-159004000D03*
X170815000Y-144653000D03*
X205840000Y-144514000D03*
X214122000Y-139954000D03*
X215519000Y-82169000D03*
X162052000Y-50546000D03*
X149860000Y-53594000D03*
X169926000Y-137922000D03*
X167386000Y-154940000D03*
X135636000Y-154686000D03*
X124460000Y-157988000D03*
X153162000Y-123952000D03*
X145034000Y-67818000D03*
X184404000Y-94742000D03*
X135382000Y-89916000D03*
X196596000Y-130302000D03*
X196596000Y-127254000D03*
X126746000Y-55880000D03*
X131064000Y-70612000D03*
X131572000Y-53848000D03*
X152400000Y-126746000D03*
X133650000Y-72660000D03*
X187452000Y-103378000D03*
X156464000Y-103378000D03*
X181102000Y-54864000D03*
X147574000Y-53594000D03*
X166370000Y-126746000D03*
X141224000Y-99060000D03*
X166370000Y-122936000D03*
X156718000Y-126746000D03*
X186900000Y-99520000D03*
X203808000Y-133211000D03*
X129032000Y-67564000D03*
X149606000Y-68326000D03*
X131572000Y-105156000D03*
X148844000Y-123952000D03*
X181583000Y-142482000D03*
X168402000Y-119380000D03*
X127030000Y-62320000D03*
X148336000Y-107950000D03*
X130048000Y-80772000D03*
X185420000Y-139700000D03*
X197358000Y-63500000D03*
X131572000Y-77978000D03*
X215519000Y-74041000D03*
X215519000Y-78105000D03*
X149606000Y-72898000D03*
X129032000Y-57912000D03*
X153162000Y-79502000D03*
X146812000Y-65532000D03*
X136075542Y-63770536D03*
X142748000Y-74422000D03*
X147574000Y-49276000D03*
X152400000Y-75438000D03*
X147320000Y-84836000D03*
X198374000Y-143002000D03*
X159004000Y-113792000D03*
X183488000Y-141720000D03*
X180594000Y-127508000D03*
X127000000Y-51308000D03*
X134350000Y-69540000D03*
X153416000Y-69596000D03*
X145796000Y-99060000D03*
X136906000Y-84836000D03*
X149098000Y-64008000D03*
X184404000Y-146558000D03*
X176022000Y-119380000D03*
X217424000Y-139954000D03*
X151384000Y-53086000D03*
X143510000Y-63500000D03*
X177546000Y-152400000D03*
X132790000Y-87880000D03*
X128016000Y-67056000D03*
X192405000Y-141351000D03*
X149830000Y-83620000D03*
X153924000Y-53086000D03*
X203708000Y-79248000D03*
X135128000Y-61722000D03*
X188722000Y-130302000D03*
X137990000Y-69530000D03*
X177410000Y-99540000D03*
X142240000Y-68326000D03*
X206856000Y-133211000D03*
X167640000Y-143510000D03*
X124968000Y-56388000D03*
X124206000Y-125984000D03*
X166878000Y-59182000D03*
X182372000Y-145288000D03*
X133096000Y-79502000D03*
X180340000Y-150876000D03*
X130048000Y-141732000D03*
X180848000Y-50546000D03*
X155448000Y-108712000D03*
X172720000Y-147828000D03*
X150622000Y-88392000D03*
X184912000Y-119380000D03*
X134620000Y-127000000D03*
X152908000Y-82042000D03*
X152400000Y-90932000D03*
X167640000Y-94488000D03*
X170561000Y-148082000D03*
X130048000Y-79756000D03*
X156210000Y-99060000D03*
X136398000Y-58420000D03*
X142240000Y-123698000D03*
X134620000Y-86360000D03*
X182880000Y-143256000D03*
X142240000Y-114046000D03*
X180594000Y-130302000D03*
X202538000Y-134989000D03*
X131064000Y-50038000D03*
X167910000Y-99760000D03*
X169259000Y-142545156D03*
X152400000Y-115062000D03*
X210820000Y-84328000D03*
X152146000Y-71628000D03*
X186409000Y-138164000D03*
X133858000Y-61722000D03*
X138938000Y-86614000D03*
X135128000Y-141732000D03*
X204697000Y-130163000D03*
X215138000Y-50038000D03*
X130556000Y-59436000D03*
X205994000Y-80518000D03*
X139954000Y-137160000D03*
X152400000Y-108712000D03*
X187960000Y-143510000D03*
X215510628Y-86205174D03*
X130048000Y-125984000D03*
X169418000Y-157226000D03*
X147574000Y-51562000D03*
X131318000Y-46482000D03*
X206756000Y-91440000D03*
X143764000Y-109982000D03*
X140208000Y-89154000D03*
X179578000Y-146558000D03*
X142240000Y-119126000D03*
X152400000Y-103378000D03*
X210820000Y-63754000D03*
X140716000Y-102616000D03*
X136906000Y-144018000D03*
X155194000Y-63754000D03*
X159766000Y-126746000D03*
X210820000Y-67818000D03*
X217170000Y-47244000D03*
X174752000Y-143764000D03*
%TO.N,RESET*%
X127830000Y-84560000D03*
X128033411Y-69476589D03*
X128881589Y-68558411D03*
X129156940Y-87490050D03*
%TO.N,VBUS*%
X191770000Y-135128000D03*
X191770000Y-137287000D03*
%TO.N,VCC*%
X173577000Y-134163156D03*
X205232000Y-73660000D03*
X182700600Y-136690800D03*
X181938600Y-136690800D03*
X167862000Y-133909156D03*
X128100000Y-122670000D03*
X136652000Y-134874000D03*
X181176600Y-136690800D03*
X137750000Y-86540000D03*
X169780000Y-129430000D03*
X210330000Y-155920000D03*
X198474000Y-131306000D03*
X175657200Y-97669006D03*
X163370000Y-145920000D03*
X212852000Y-128270000D03*
X166170000Y-97835500D03*
X215392000Y-128270000D03*
X180414600Y-136690800D03*
X136950000Y-60090000D03*
X126798250Y-89916000D03*
X171672000Y-133909156D03*
X205232000Y-69596000D03*
X185060000Y-97670000D03*
X131580000Y-62140000D03*
X203935000Y-138545000D03*
X134120000Y-149720000D03*
X210330000Y-150400000D03*
X179525600Y-136690800D03*
%TO.N,IO18*%
X151247015Y-61907015D03*
X187060000Y-96610000D03*
X154631704Y-61910000D03*
%TO.N,D-*%
X169550000Y-153550000D03*
X170837300Y-153580000D03*
%TO.N,TDI*%
X136057149Y-94109500D03*
X136150000Y-92860000D03*
%TO.N,USB_TX_ESP_RX*%
X133940000Y-85740000D03*
X131290000Y-85716050D03*
%TO.N,IO15*%
X145340000Y-80750000D03*
X147479500Y-89824500D03*
%TO.N,IO05*%
X130071131Y-69747884D03*
X163430000Y-125134500D03*
X128934500Y-80870000D03*
X180330000Y-152070000D03*
X124185899Y-88157279D03*
X129258537Y-70701714D03*
X127263058Y-122946874D03*
X157821423Y-125104500D03*
X133845863Y-124249454D03*
X182460000Y-152060000D03*
%TO.N,IO04*%
X157250000Y-124480500D03*
X180060000Y-149310000D03*
X129505437Y-69182911D03*
X161380000Y-124510000D03*
X128634500Y-70077119D03*
X133424500Y-123570000D03*
X129398626Y-123571374D03*
%TO.N,IO10*%
X150500000Y-69155500D03*
X149570000Y-71050000D03*
X184404000Y-56642000D03*
X189827589Y-56610411D03*
X150432599Y-64304373D03*
X155373964Y-61612924D03*
%TO.N,IO14*%
X157181126Y-88688896D03*
X152400000Y-88360000D03*
%TO.N,IO13*%
X152894624Y-87549505D03*
X157150000Y-87890000D03*
%TO.N,IO12*%
X153924000Y-87539396D03*
X157190000Y-87060000D03*
%TO.N,IO11*%
X154866861Y-87089396D03*
X157190000Y-86260000D03*
%TO.N,IO37*%
X141310000Y-107384500D03*
X144633153Y-89883212D03*
X144805825Y-87862648D03*
X142388581Y-105961403D03*
%TO.N,IO36*%
X145430497Y-89824500D03*
X145429863Y-88487379D03*
X142953589Y-106526411D03*
X141620130Y-108121401D03*
%TO.N,IO35*%
X142260000Y-108600000D03*
X143643589Y-107216411D03*
X146230000Y-89824500D03*
X146224288Y-88575500D03*
%TO.N,IO16*%
X143844500Y-77580000D03*
X155157162Y-125938860D03*
X146854832Y-90323288D03*
X155900000Y-118880000D03*
%TO.N,IO17*%
X148100000Y-90449000D03*
X154470000Y-115980000D03*
X144543805Y-76988023D03*
X154360000Y-126000000D03*
%TO.N,IO08*%
X155448000Y-60452000D03*
X152146000Y-60706000D03*
%TO.N,IO09*%
X199390000Y-68326000D03*
%TO.N,IO02*%
X143943839Y-78470661D03*
X183896000Y-55880000D03*
X145613543Y-66724502D03*
X144090500Y-81320000D03*
%TO.N,IO01*%
X143413302Y-80616480D03*
X157734000Y-69088000D03*
X199898000Y-66294000D03*
X193040000Y-66294000D03*
%TO.N,IO19*%
X145085500Y-76400000D03*
X148255213Y-92404787D03*
X153220990Y-116793813D03*
X152830000Y-119060000D03*
%TO.N,IO47*%
X132250000Y-118580000D03*
X149098000Y-78994000D03*
X147320000Y-91694000D03*
X142980000Y-109220000D03*
X131630000Y-121120000D03*
X144690000Y-107320000D03*
X132974500Y-121120000D03*
X131160000Y-119670000D03*
%TO.N,IO06*%
X215392000Y-121920000D03*
X209550000Y-128524000D03*
X207264000Y-130556000D03*
%TO.N,IO07*%
X206756000Y-129794000D03*
X208534000Y-128270000D03*
X212852000Y-121920000D03*
%TO.N,IO20*%
X146558000Y-64008000D03*
X149482609Y-91055391D03*
X205994000Y-148082000D03*
X201168000Y-129032000D03*
%TO.N,IO21*%
X149352000Y-77724000D03*
%TO.N,IO45*%
X147066000Y-83058000D03*
X157988000Y-54356000D03*
%TO.N,IO46*%
X149352000Y-67310000D03*
X153416000Y-64008000D03*
%TD*%
D22*
%TO.N,GND*%
X187380000Y-100000000D02*
X186900000Y-99520000D01*
X169470000Y-100140000D02*
X168290000Y-100140000D01*
X178770000Y-100080000D02*
X177950000Y-100080000D01*
X188310000Y-100000000D02*
X187380000Y-100000000D01*
X177950000Y-100080000D02*
X177410000Y-99540000D01*
X168290000Y-100140000D02*
X167910000Y-99760000D01*
%TO.N,VCC*%
X184190000Y-96800000D02*
X183410000Y-96800000D01*
X165274500Y-96940000D02*
X166170000Y-97835500D01*
X175657200Y-97669006D02*
X174868194Y-96880000D01*
X164570000Y-96940000D02*
X165274500Y-96940000D01*
X174868194Y-96880000D02*
X173870000Y-96880000D01*
X185060000Y-97670000D02*
X184190000Y-96800000D01*
%TO.N,IO18*%
X188310000Y-96800000D02*
X187250000Y-96800000D01*
X187250000Y-96800000D02*
X187060000Y-96610000D01*
%TO.N,USB_TX_ESP_RX*%
X133916050Y-85716050D02*
X133940000Y-85740000D01*
%TO.N,IO05*%
X128934500Y-81025500D02*
X128934500Y-80870000D01*
X182450000Y-152070000D02*
X182460000Y-152060000D01*
%TO.N,IO04*%
X133423126Y-123571374D02*
X133424500Y-123570000D01*
X161350000Y-124480000D02*
X161380000Y-124510000D01*
%TO.N,IO10*%
X155373964Y-61612924D02*
X155256704Y-61730184D01*
%TO.N,IO17*%
X154360000Y-116090000D02*
X154470000Y-115980000D01*
%TO.N,IO01*%
X197800000Y-78980000D02*
X197540000Y-79240000D01*
%TO.N,Net-(D1-DOUT)*%
X181890000Y-100000000D02*
X178770000Y-96880000D01*
X183410000Y-100000000D02*
X181890000Y-100000000D01*
%TO.N,Net-(D11-DOUT)*%
X173870000Y-100080000D02*
X172610000Y-100080000D01*
X172610000Y-100080000D02*
X169470000Y-96940000D01*
%TO.N,IO47*%
X144690000Y-107510000D02*
X144690000Y-107320000D01*
%TD*%
M02*
