%TF.GenerationSoftware,KiCad,Pcbnew,7.0.7*%
%TF.CreationDate,2023-12-10T19:04:42-06:00*%
%TF.ProjectId,ProjectNeoRogue,50726f6a-6563-4744-9e65-6f526f677565,v1*%
%TF.SameCoordinates,Original*%
%TF.FileFunction,Copper,L2,Inr*%
%TF.FilePolarity,Positive*%
%FSLAX46Y46*%
G04 Gerber Fmt 4.6, Leading zero omitted, Abs format (unit mm)*
G04 Created by KiCad (PCBNEW 7.0.7) date 2023-12-10 19:04:42*
%MOMM*%
%LPD*%
G01*
G04 APERTURE LIST*
%TA.AperFunction,ComponentPad*%
%ADD10O,1.727200X1.727200*%
%TD*%
%TA.AperFunction,ComponentPad*%
%ADD11R,1.727200X1.727200*%
%TD*%
%TA.AperFunction,ComponentPad*%
%ADD12C,1.727200*%
%TD*%
%TA.AperFunction,ComponentPad*%
%ADD13R,1.700000X1.700000*%
%TD*%
%TA.AperFunction,ComponentPad*%
%ADD14O,1.700000X1.700000*%
%TD*%
%TA.AperFunction,ComponentPad*%
%ADD15C,6.000000*%
%TD*%
%TA.AperFunction,ComponentPad*%
%ADD16R,2.000000X2.000000*%
%TD*%
%TA.AperFunction,ComponentPad*%
%ADD17C,2.000000*%
%TD*%
%TA.AperFunction,ComponentPad*%
%ADD18C,3.200000*%
%TD*%
%TA.AperFunction,ComponentPad*%
%ADD19O,1.000000X1.800000*%
%TD*%
%TA.AperFunction,ComponentPad*%
%ADD20O,1.000000X2.100000*%
%TD*%
%TA.AperFunction,ViaPad*%
%ADD21C,0.600000*%
%TD*%
%TA.AperFunction,ViaPad*%
%ADD22C,0.750000*%
%TD*%
%TA.AperFunction,Conductor*%
%ADD23C,0.250000*%
%TD*%
G04 APERTURE END LIST*
D10*
%TO.N,VCC*%
%TO.C,X1*%
X213220000Y-65250000D03*
D11*
%TO.N,GND*%
X210680000Y-65250000D03*
D10*
%TO.N,IO06*%
X213220000Y-67790000D03*
%TO.N,IO07*%
X210680000Y-67790000D03*
D12*
%TO.N,Net-(JP2-B)*%
X213220000Y-70330000D03*
%TO.N,Net-(JP3-A)*%
X210680000Y-70330000D03*
%TD*%
D13*
%TO.N,unconnected-(J7-Pin_1-Pad1)*%
%TO.C,J7*%
X168040000Y-128340000D03*
D14*
%TO.N,IO02*%
X170580000Y-128340000D03*
%TO.N,IO01*%
X173120000Y-128340000D03*
%TO.N,IO08*%
X175660000Y-128340000D03*
%TO.N,IO09*%
X178200000Y-128340000D03*
%TO.N,GND*%
X180740000Y-128340000D03*
%TO.N,VCC*%
X183280000Y-128340000D03*
%TD*%
D15*
%TO.N,*%
%TO.C,REF\u002A\u002A*%
X214370000Y-49510000D03*
%TD*%
%TO.N,*%
%TO.C,REF\u002A\u002A*%
X214690000Y-155670000D03*
%TD*%
D16*
%TO.N,IO04*%
%TO.C,SW9*%
X128020000Y-51080000D03*
D17*
%TO.N,IO05*%
X128020000Y-56080000D03*
%TO.N,GND*%
X128020000Y-53580000D03*
D18*
%TO.N,N/C*%
X135520000Y-47980000D03*
X135520000Y-59180000D03*
D17*
%TO.N,IO20*%
X142520000Y-56080000D03*
%TO.N,GND*%
X142520000Y-51080000D03*
%TD*%
D16*
%TO.N,IO16*%
%TO.C,SW10*%
X128270000Y-149270000D03*
D17*
%TO.N,IO17*%
X128270000Y-154270000D03*
%TO.N,GND*%
X128270000Y-151770000D03*
D18*
%TO.N,N/C*%
X135770000Y-146170000D03*
X135770000Y-157370000D03*
D17*
%TO.N,IO19*%
X142770000Y-154270000D03*
%TO.N,GND*%
X142770000Y-149270000D03*
%TD*%
D19*
%TO.N,Net-(J8-SHIELD)*%
%TO.C,J8*%
X174380000Y-156880000D03*
D20*
X174380000Y-152730000D03*
D19*
X165740000Y-156880000D03*
D20*
X165740000Y-152730000D03*
%TD*%
D21*
%TO.N,GND*%
X205460000Y-128620000D03*
X205040000Y-131130000D03*
D22*
X158750000Y-60706000D03*
D21*
X167630000Y-53040000D03*
D22*
X164338000Y-113792000D03*
X131190000Y-107900000D03*
X174510000Y-139670000D03*
X187780000Y-128620000D03*
X155350000Y-82440000D03*
X171150000Y-143550000D03*
X194890000Y-156280000D03*
X164010000Y-137530000D03*
X152210000Y-122910000D03*
X151710000Y-107520000D03*
X166080000Y-124450000D03*
X191880000Y-95300000D03*
X128810000Y-101550000D03*
X182520000Y-142482000D03*
X167760000Y-117430000D03*
X157230000Y-113550000D03*
X149098000Y-64008000D03*
X149830000Y-83620000D03*
X186330000Y-130960000D03*
X179500000Y-111910000D03*
X210660000Y-63300000D03*
X161600000Y-110090000D03*
X162970000Y-148030000D03*
X135410000Y-115700000D03*
X167450000Y-88759500D03*
X168000000Y-143430000D03*
X186409000Y-138164000D03*
X127230000Y-61560000D03*
X141130000Y-137110000D03*
D21*
X138460000Y-61660000D03*
D22*
X142240000Y-119126000D03*
X175170000Y-143240000D03*
%TO.N,VBUS*%
X191300000Y-134785000D03*
X191770000Y-137287000D03*
%TO.N,VCC*%
X174315901Y-134084108D03*
X178970000Y-91970000D03*
X183300000Y-135710000D03*
X183480000Y-137300000D03*
X166680000Y-134330000D03*
X185340000Y-99240000D03*
X126540000Y-122840000D03*
X141040000Y-135480000D03*
X181176600Y-136690800D03*
D21*
X149070000Y-51660000D03*
D22*
X197410000Y-131440000D03*
X163370000Y-145920000D03*
D21*
X127850000Y-47900000D03*
D22*
X212852000Y-128270000D03*
D21*
X130290000Y-58650000D03*
D22*
X162980000Y-95460000D03*
X215392000Y-128270000D03*
X178660000Y-135850000D03*
X148000000Y-59890000D03*
X172540000Y-133610000D03*
X172550000Y-116110000D03*
X130330000Y-60220000D03*
X210470000Y-155560000D03*
X178770000Y-137450000D03*
D21*
X124380000Y-150040000D03*
%TO.N,Net-(D6-A)*%
X203720000Y-87060000D03*
X199430000Y-136570000D03*
%TO.N,IO18*%
X156320000Y-89313396D03*
%TO.N,Net-(D7-A)*%
X199010000Y-141940000D03*
X204940000Y-87520000D03*
D22*
%TO.N,USB_TX_ESP_RX*%
X133860000Y-91010000D03*
X124560500Y-102030000D03*
D21*
%TO.N,Boot*%
X140820000Y-77060000D03*
X167650000Y-47670000D03*
D22*
%TO.N,IO15*%
X145229500Y-80295378D03*
D21*
X189710000Y-149230000D03*
D22*
X146054363Y-84710000D03*
D21*
X187770000Y-92750000D03*
D22*
%TO.N,IO05*%
X134180000Y-67300000D03*
D21*
X123780000Y-56140000D03*
D22*
%TO.N,IO04*%
X132175000Y-67145000D03*
D21*
X123990000Y-51110000D03*
D22*
%TO.N,IO10*%
X152659466Y-66530534D03*
X155380000Y-63810000D03*
%TO.N,IO14*%
X157181126Y-88688896D03*
X152400000Y-88360000D03*
%TO.N,IO13*%
X152894624Y-87549505D03*
X157150000Y-87890000D03*
%TO.N,IO12*%
X153924000Y-87539396D03*
X157190000Y-87060000D03*
%TO.N,IO11*%
X154866861Y-87089396D03*
X157190000Y-86260000D03*
%TO.N,IO37*%
X141040000Y-107459000D03*
X142388581Y-105961403D03*
%TO.N,IO36*%
X142953589Y-106526411D03*
X141866666Y-108121401D03*
%TO.N,IO35*%
X142650000Y-108900000D03*
X143643589Y-107216411D03*
%TO.N,IO16*%
X144500500Y-77865453D03*
D21*
X144980000Y-84740000D03*
D22*
X155180000Y-122410000D03*
X155900000Y-118880000D03*
%TO.N,IO17*%
X152540000Y-90714500D03*
X154470000Y-115980000D03*
X144560500Y-75522774D03*
X154279432Y-121139419D03*
D21*
%TO.N,IO08*%
X174677775Y-90300000D03*
D22*
X155620500Y-73310500D03*
D21*
%TO.N,IO09*%
X148310000Y-69800000D03*
D22*
X182900378Y-89910378D03*
%TO.N,IO02*%
X141947976Y-81650897D03*
%TO.N,IO01*%
X142170000Y-80440000D03*
X157019500Y-74010000D03*
X186539622Y-87450378D03*
%TO.N,IO19*%
X145085500Y-76400000D03*
X152830000Y-119060000D03*
%TO.N,IO47*%
X132297567Y-116752399D03*
X148340000Y-78670000D03*
X143830500Y-84868161D03*
X143370000Y-109670000D03*
X131430000Y-122760000D03*
X144396855Y-107794465D03*
X133049500Y-124460000D03*
X131160000Y-119670000D03*
%TO.N,IO06*%
X215392000Y-121920000D03*
X209550000Y-128524000D03*
X207264000Y-130556000D03*
D21*
%TO.N,IO07*%
X212030000Y-57260000D03*
D22*
X206756000Y-129794000D03*
X208534000Y-128270000D03*
X212852000Y-121920000D03*
%TO.N,IO20*%
X146558000Y-64008000D03*
D21*
X145780000Y-56290000D03*
D22*
%TO.N,IO45*%
X147066000Y-83058000D03*
X157988000Y-54356000D03*
%TO.N,IO46*%
X149352000Y-67310000D03*
X154502000Y-62922000D03*
%TD*%
D23*
%TO.N,IO02*%
X169757211Y-127517211D02*
X170580000Y-128340000D01*
X169757211Y-104312789D02*
X169757211Y-127517211D01*
X170610000Y-103460000D02*
X169757211Y-104312789D01*
X170610000Y-93079950D02*
X170610000Y-103460000D01*
X163220050Y-85690000D02*
X170610000Y-93079950D01*
X157609950Y-85690000D02*
X163220050Y-85690000D01*
X157479950Y-85560000D02*
X157609950Y-85690000D01*
X154370050Y-85560000D02*
X157479950Y-85560000D01*
X154361889Y-85568161D02*
X154370050Y-85560000D01*
X143540550Y-85568161D02*
X154361889Y-85568161D01*
X141947976Y-81650897D02*
X143130500Y-82833421D01*
X143130500Y-82833421D02*
X143130500Y-85158111D01*
X143130500Y-85158111D02*
X143540550Y-85568161D01*
%TO.N,IO45*%
X150890000Y-61454000D02*
X157988000Y-54356000D01*
X150662050Y-61454000D02*
X150890000Y-61454000D01*
X146060000Y-66056050D02*
X150662050Y-61454000D01*
X146060000Y-74940000D02*
X146060000Y-66056050D01*
X147574000Y-76454000D02*
X146060000Y-74940000D01*
X147574000Y-82550000D02*
X147574000Y-76454000D01*
X147066000Y-83058000D02*
X147574000Y-82550000D01*
%TO.N,GND*%
X210680000Y-63320000D02*
X210660000Y-63300000D01*
X210680000Y-65250000D02*
X210680000Y-63320000D01*
%TO.N,IO09*%
X169624950Y-89675000D02*
X149749950Y-69800000D01*
X149749950Y-69800000D02*
X148310000Y-69800000D01*
X182665000Y-89675000D02*
X169624950Y-89675000D01*
X182900378Y-89910378D02*
X182665000Y-89675000D01*
%TO.N,IO47*%
X147355950Y-83758000D02*
X148340000Y-82773950D01*
X144940661Y-83758000D02*
X147355950Y-83758000D01*
X148340000Y-82773950D02*
X148340000Y-78670000D01*
X143830500Y-84868161D02*
X144940661Y-83758000D01*
%TO.N,IO06*%
X213470000Y-121548050D02*
X209491400Y-117569450D01*
X212031400Y-68978600D02*
X213220000Y-67790000D01*
X207264000Y-130556000D02*
X209296000Y-128524000D01*
X210187665Y-68978600D02*
X212031400Y-68978600D01*
X209296000Y-128524000D02*
X209550000Y-128524000D01*
X209491400Y-117569450D02*
X209491400Y-69674865D01*
X215392000Y-121920000D02*
X213830000Y-121920000D01*
X213470000Y-121560000D02*
X213470000Y-121548050D01*
X213830000Y-121920000D02*
X213470000Y-121560000D01*
X209491400Y-69674865D02*
X210187665Y-68978600D01*
%TO.N,IO07*%
X208280000Y-128270000D02*
X208534000Y-128270000D01*
X212852000Y-121920000D02*
X209041400Y-118109400D01*
X209041400Y-69428600D02*
X210680000Y-67790000D01*
X209041400Y-118109400D02*
X209041400Y-69428600D01*
X206756000Y-129794000D02*
X208280000Y-128270000D01*
X212030000Y-66440000D02*
X212030000Y-57260000D01*
X210680000Y-67790000D02*
X212030000Y-66440000D01*
%TO.N,IO20*%
X146812000Y-64008000D02*
X146558000Y-64008000D01*
%TD*%
%TA.AperFunction,Conductor*%
%TO.N,GND*%
G36*
X216918577Y-45774577D02*
G01*
X216932388Y-45775663D01*
X216973067Y-45778865D01*
X217110390Y-45790882D01*
X217128515Y-45793834D01*
X217207736Y-45812854D01*
X217278784Y-45831892D01*
X217316310Y-45841948D01*
X217323998Y-45844558D01*
X217409344Y-45879910D01*
X217506508Y-45925219D01*
X217512700Y-45928546D01*
X217592178Y-45977250D01*
X217595282Y-45979286D01*
X217655325Y-46021329D01*
X217680370Y-46038866D01*
X217685068Y-46042503D01*
X217723575Y-46075391D01*
X217756537Y-46103543D01*
X217760113Y-46106849D01*
X217833149Y-46179885D01*
X217836455Y-46183461D01*
X217897488Y-46254921D01*
X217901132Y-46259628D01*
X217960697Y-46344693D01*
X217962758Y-46347838D01*
X217983512Y-46381703D01*
X218011449Y-46427292D01*
X218014779Y-46433489D01*
X218060089Y-46530655D01*
X218095440Y-46616000D01*
X218098050Y-46623687D01*
X218127146Y-46732268D01*
X218146164Y-46811482D01*
X218149118Y-46829621D01*
X218161137Y-46966976D01*
X218165426Y-47021458D01*
X218165617Y-47026326D01*
X218165617Y-47074860D01*
X218165700Y-47075627D01*
X218345612Y-158183624D01*
X218345421Y-158188591D01*
X218341137Y-158243021D01*
X218329118Y-158380377D01*
X218326164Y-158398516D01*
X218307146Y-158477731D01*
X218278050Y-158586311D01*
X218275441Y-158593997D01*
X218240089Y-158679344D01*
X218194779Y-158776509D01*
X218191449Y-158782706D01*
X218142774Y-158862137D01*
X218140697Y-158865305D01*
X218081132Y-158950370D01*
X218077488Y-158955077D01*
X218016455Y-159026537D01*
X218013149Y-159030113D01*
X217940113Y-159103149D01*
X217936537Y-159106455D01*
X217865077Y-159167488D01*
X217860370Y-159171132D01*
X217775305Y-159230697D01*
X217772137Y-159232774D01*
X217692706Y-159281449D01*
X217686509Y-159284779D01*
X217589344Y-159330089D01*
X217503997Y-159365441D01*
X217496311Y-159368050D01*
X217387731Y-159397146D01*
X217308516Y-159416164D01*
X217290377Y-159419118D01*
X217153022Y-159431137D01*
X217098523Y-159435427D01*
X217093698Y-159435618D01*
X124112460Y-159499497D01*
X124107552Y-159499306D01*
X124053029Y-159495015D01*
X123915737Y-159483004D01*
X123897597Y-159480050D01*
X123818390Y-159461034D01*
X123709800Y-159431937D01*
X123702112Y-159429327D01*
X123616774Y-159393979D01*
X123591489Y-159382188D01*
X123519598Y-159348665D01*
X123513406Y-159345338D01*
X123471281Y-159319524D01*
X123433964Y-159296655D01*
X123430802Y-159294582D01*
X123345745Y-159235025D01*
X123341038Y-159231380D01*
X123269569Y-159170340D01*
X123265993Y-159167034D01*
X123192964Y-159094005D01*
X123189658Y-159090429D01*
X123128618Y-159018960D01*
X123124979Y-159014260D01*
X123065411Y-158929189D01*
X123063354Y-158926052D01*
X123014657Y-158846585D01*
X123011340Y-158840414D01*
X122966025Y-158743238D01*
X122930666Y-158657872D01*
X122928061Y-158650197D01*
X122913002Y-158593997D01*
X122898970Y-158541631D01*
X122879944Y-158462383D01*
X122876996Y-158444279D01*
X122864985Y-158306994D01*
X122860689Y-158252412D01*
X122860499Y-158247579D01*
X122860497Y-158243021D01*
X122860104Y-157370004D01*
X133961242Y-157370004D01*
X133981443Y-157639578D01*
X134032526Y-157863387D01*
X134041600Y-157903141D01*
X134140365Y-158154791D01*
X134275534Y-158388910D01*
X134397297Y-158541595D01*
X134444090Y-158600272D01*
X134598149Y-158743217D01*
X134642258Y-158784144D01*
X134865621Y-158936430D01*
X135109186Y-159053725D01*
X135367513Y-159133409D01*
X135367514Y-159133409D01*
X135367517Y-159133410D01*
X135634823Y-159173699D01*
X135634828Y-159173699D01*
X135634831Y-159173700D01*
X135634832Y-159173700D01*
X135905168Y-159173700D01*
X135905169Y-159173700D01*
X135949396Y-159167034D01*
X136172482Y-159133410D01*
X136172483Y-159133409D01*
X136172487Y-159133409D01*
X136430814Y-159053725D01*
X136674379Y-158936430D01*
X136897742Y-158784144D01*
X137095913Y-158600268D01*
X137264466Y-158388910D01*
X137399635Y-158154791D01*
X137498400Y-157903141D01*
X137558556Y-157639581D01*
X137578221Y-157377166D01*
X137578758Y-157370004D01*
X137578758Y-157369995D01*
X137575204Y-157322565D01*
X165036300Y-157322565D01*
X165051729Y-157449642D01*
X165112329Y-157609428D01*
X165200378Y-157736988D01*
X165209405Y-157750066D01*
X165337317Y-157863387D01*
X165488632Y-157942803D01*
X165654555Y-157983700D01*
X165654556Y-157983700D01*
X165825444Y-157983700D01*
X165825445Y-157983700D01*
X165991368Y-157942803D01*
X166142683Y-157863387D01*
X166270595Y-157750066D01*
X166367671Y-157609427D01*
X166428270Y-157449643D01*
X166443700Y-157322565D01*
X173676300Y-157322565D01*
X173691729Y-157449642D01*
X173752329Y-157609428D01*
X173840378Y-157736988D01*
X173849405Y-157750066D01*
X173977317Y-157863387D01*
X174128632Y-157942803D01*
X174294555Y-157983700D01*
X174294556Y-157983700D01*
X174465444Y-157983700D01*
X174465445Y-157983700D01*
X174631368Y-157942803D01*
X174782683Y-157863387D01*
X174910595Y-157750066D01*
X175007671Y-157609427D01*
X175068270Y-157449643D01*
X175083700Y-157322563D01*
X175083700Y-156437437D01*
X175077213Y-156384014D01*
X175068270Y-156310357D01*
X175007670Y-156150571D01*
X174948945Y-156065494D01*
X174910595Y-156009934D01*
X174782683Y-155896613D01*
X174631368Y-155817197D01*
X174631367Y-155817196D01*
X174631366Y-155817196D01*
X174519718Y-155789677D01*
X174465445Y-155776300D01*
X174294555Y-155776300D01*
X174253658Y-155786380D01*
X174128633Y-155817196D01*
X173977318Y-155896612D01*
X173849405Y-156009933D01*
X173849403Y-156009936D01*
X173752329Y-156150571D01*
X173691729Y-156310357D01*
X173676300Y-156437434D01*
X173676300Y-157322565D01*
X166443700Y-157322565D01*
X166443700Y-157322563D01*
X166443700Y-156437437D01*
X166437213Y-156384014D01*
X166428270Y-156310357D01*
X166367670Y-156150571D01*
X166308945Y-156065494D01*
X166270595Y-156009934D01*
X166142683Y-155896613D01*
X165991368Y-155817197D01*
X165991367Y-155817196D01*
X165991366Y-155817196D01*
X165879718Y-155789677D01*
X165825445Y-155776300D01*
X165654555Y-155776300D01*
X165613658Y-155786380D01*
X165488633Y-155817196D01*
X165337318Y-155896612D01*
X165209405Y-156009933D01*
X165209403Y-156009936D01*
X165112329Y-156150571D01*
X165051729Y-156310357D01*
X165036300Y-156437434D01*
X165036300Y-157322565D01*
X137575204Y-157322565D01*
X137558556Y-157100421D01*
X137549838Y-157062224D01*
X137498400Y-156836859D01*
X137399635Y-156585209D01*
X137264466Y-156351090D01*
X137095913Y-156139732D01*
X137095912Y-156139731D01*
X137095909Y-156139727D01*
X136897742Y-155955856D01*
X136810847Y-155896612D01*
X136674379Y-155803570D01*
X136674376Y-155803569D01*
X136674374Y-155803567D01*
X136430814Y-155686275D01*
X136172488Y-155606591D01*
X136172482Y-155606589D01*
X135905176Y-155566300D01*
X135905169Y-155566300D01*
X135634831Y-155566300D01*
X135634823Y-155566300D01*
X135367517Y-155606589D01*
X135367511Y-155606591D01*
X135109185Y-155686275D01*
X134865625Y-155803567D01*
X134642257Y-155955856D01*
X134444090Y-156139727D01*
X134275534Y-156351090D01*
X134140365Y-156585208D01*
X134041602Y-156836853D01*
X134041597Y-156836870D01*
X133981443Y-157100421D01*
X133961242Y-157369995D01*
X133961242Y-157370004D01*
X122860104Y-157370004D01*
X122859289Y-155560000D01*
X209886306Y-155560000D01*
X209887136Y-155566300D01*
X209906195Y-155711070D01*
X209906196Y-155711074D01*
X209964504Y-155851844D01*
X209964505Y-155851846D01*
X209964506Y-155851847D01*
X210057266Y-155972734D01*
X210178153Y-156065494D01*
X210318929Y-156123805D01*
X210470000Y-156143694D01*
X210621071Y-156123805D01*
X210761847Y-156065494D01*
X210882734Y-155972734D01*
X210975494Y-155851847D01*
X211033805Y-155711071D01*
X211039212Y-155669999D01*
X211481252Y-155669999D01*
X211501427Y-156029261D01*
X211501429Y-156029273D01*
X211561701Y-156384010D01*
X211561703Y-156384019D01*
X211661314Y-156729776D01*
X211799014Y-157062217D01*
X211799016Y-157062221D01*
X211973077Y-157377161D01*
X211973080Y-157377166D01*
X212181297Y-157670618D01*
X212181303Y-157670626D01*
X212421071Y-157938925D01*
X212421074Y-157938928D01*
X212689373Y-158178696D01*
X212689381Y-158178702D01*
X212982833Y-158386919D01*
X212982838Y-158386922D01*
X212982841Y-158386923D01*
X212982843Y-158386925D01*
X213149336Y-158478942D01*
X213297778Y-158560983D01*
X213297782Y-158560985D01*
X213377481Y-158593997D01*
X213630218Y-158698684D01*
X213975986Y-158798298D01*
X214330734Y-158858572D01*
X214690000Y-158878748D01*
X215049266Y-158858572D01*
X215404014Y-158798298D01*
X215749782Y-158698684D01*
X216082224Y-158560982D01*
X216397157Y-158386925D01*
X216397162Y-158386921D01*
X216397166Y-158386919D01*
X216510057Y-158306818D01*
X216690622Y-158178700D01*
X216958927Y-157938927D01*
X217198700Y-157670622D01*
X217406925Y-157377157D01*
X217580982Y-157062224D01*
X217718684Y-156729782D01*
X217818298Y-156384014D01*
X217878572Y-156029266D01*
X217898748Y-155670000D01*
X217878572Y-155310734D01*
X217818298Y-154955986D01*
X217718684Y-154610218D01*
X217625679Y-154385686D01*
X217580985Y-154277782D01*
X217580983Y-154277778D01*
X217576684Y-154269999D01*
X217406925Y-153962843D01*
X217406923Y-153962841D01*
X217406922Y-153962838D01*
X217406919Y-153962833D01*
X217198702Y-153669381D01*
X217198696Y-153669373D01*
X216958928Y-153401074D01*
X216958925Y-153401071D01*
X216690626Y-153161303D01*
X216690618Y-153161297D01*
X216397166Y-152953080D01*
X216397161Y-152953077D01*
X216082221Y-152779016D01*
X216082217Y-152779014D01*
X215851509Y-152683452D01*
X215749782Y-152641316D01*
X215749778Y-152641314D01*
X215749776Y-152641314D01*
X215404019Y-152541703D01*
X215404010Y-152541701D01*
X215049273Y-152481429D01*
X215049261Y-152481427D01*
X214690000Y-152461252D01*
X214330738Y-152481427D01*
X214330726Y-152481429D01*
X213975989Y-152541701D01*
X213975980Y-152541703D01*
X213630223Y-152641314D01*
X213297782Y-152779014D01*
X213297778Y-152779016D01*
X212982838Y-152953077D01*
X212982833Y-152953080D01*
X212689381Y-153161297D01*
X212689373Y-153161303D01*
X212421074Y-153401071D01*
X212421071Y-153401074D01*
X212181303Y-153669373D01*
X212181297Y-153669381D01*
X211973080Y-153962833D01*
X211973077Y-153962838D01*
X211799016Y-154277778D01*
X211799014Y-154277782D01*
X211661314Y-154610223D01*
X211561703Y-154955980D01*
X211561701Y-154955989D01*
X211501429Y-155310726D01*
X211501427Y-155310738D01*
X211481252Y-155669999D01*
X211039212Y-155669999D01*
X211053694Y-155560000D01*
X211033805Y-155408929D01*
X210975494Y-155268153D01*
X210882734Y-155147266D01*
X210761847Y-155054506D01*
X210761846Y-155054505D01*
X210761844Y-155054504D01*
X210621074Y-154996196D01*
X210621072Y-154996195D01*
X210621071Y-154996195D01*
X210470000Y-154976306D01*
X210318929Y-154996195D01*
X210318925Y-154996196D01*
X210178155Y-155054504D01*
X210057266Y-155147266D01*
X209964504Y-155268155D01*
X209906196Y-155408925D01*
X209906195Y-155408929D01*
X209886306Y-155560000D01*
X122859289Y-155560000D01*
X122857584Y-151770005D01*
X126764858Y-151770005D01*
X126785385Y-152017729D01*
X126785387Y-152017738D01*
X126846412Y-152258717D01*
X126946266Y-152486364D01*
X127046564Y-152639882D01*
X127661050Y-152025395D01*
X127722373Y-151991910D01*
X127792064Y-151996894D01*
X127847998Y-152038765D01*
X127853039Y-152046025D01*
X127853048Y-152046039D01*
X127888239Y-152100798D01*
X128003602Y-152200759D01*
X128001293Y-152203422D01*
X128036006Y-152243499D01*
X128045935Y-152312660D01*
X128016898Y-152376210D01*
X128010882Y-152382669D01*
X127399942Y-152993609D01*
X127446768Y-153030055D01*
X127446770Y-153030056D01*
X127546353Y-153083948D01*
X127595944Y-153133168D01*
X127611052Y-153201384D01*
X127586882Y-153266940D01*
X127552615Y-153298429D01*
X127541501Y-153305310D01*
X127541500Y-153305311D01*
X127376645Y-153455595D01*
X127242210Y-153633616D01*
X127242205Y-153633624D01*
X127142775Y-153833306D01*
X127081725Y-154047877D01*
X127061143Y-154269999D01*
X127061143Y-154270000D01*
X127081725Y-154492122D01*
X127142775Y-154706693D01*
X127242205Y-154906375D01*
X127242210Y-154906383D01*
X127376645Y-155084404D01*
X127541500Y-155234688D01*
X127541502Y-155234690D01*
X127731162Y-155352122D01*
X127731168Y-155352125D01*
X127760216Y-155363378D01*
X127939181Y-155432710D01*
X128158461Y-155473700D01*
X128158464Y-155473700D01*
X128381536Y-155473700D01*
X128381539Y-155473700D01*
X128600819Y-155432710D01*
X128808834Y-155352124D01*
X128998499Y-155234689D01*
X129163356Y-155084402D01*
X129297791Y-154906381D01*
X129397226Y-154706690D01*
X129458274Y-154492127D01*
X129478857Y-154270000D01*
X141561143Y-154270000D01*
X141581725Y-154492122D01*
X141642775Y-154706693D01*
X141742205Y-154906375D01*
X141742210Y-154906383D01*
X141876645Y-155084404D01*
X142041500Y-155234688D01*
X142041502Y-155234690D01*
X142231162Y-155352122D01*
X142231168Y-155352125D01*
X142260216Y-155363378D01*
X142439181Y-155432710D01*
X142658461Y-155473700D01*
X142658464Y-155473700D01*
X142881536Y-155473700D01*
X142881539Y-155473700D01*
X143100819Y-155432710D01*
X143308834Y-155352124D01*
X143498499Y-155234689D01*
X143663356Y-155084402D01*
X143797791Y-154906381D01*
X143897226Y-154706690D01*
X143958274Y-154492127D01*
X143978857Y-154270000D01*
X143958274Y-154047873D01*
X143897226Y-153833310D01*
X143833584Y-153705500D01*
X143797794Y-153633624D01*
X143797789Y-153633616D01*
X143663354Y-153455595D01*
X143517426Y-153322565D01*
X165036300Y-153322565D01*
X165051729Y-153449642D01*
X165112329Y-153609428D01*
X165178643Y-153705500D01*
X165209405Y-153750066D01*
X165337317Y-153863387D01*
X165488632Y-153942803D01*
X165654555Y-153983700D01*
X165654556Y-153983700D01*
X165825444Y-153983700D01*
X165825445Y-153983700D01*
X165991368Y-153942803D01*
X166142683Y-153863387D01*
X166270595Y-153750066D01*
X166367671Y-153609427D01*
X166428270Y-153449643D01*
X166443700Y-153322563D01*
X166443700Y-153298367D01*
X166694500Y-153298367D01*
X166733021Y-153429559D01*
X166733020Y-153429559D01*
X166806942Y-153544586D01*
X166806946Y-153544590D01*
X166910278Y-153634127D01*
X166910285Y-153634132D01*
X166987453Y-153669373D01*
X167034658Y-153690931D01*
X167135989Y-153705500D01*
X167135992Y-153705500D01*
X167204008Y-153705500D01*
X167204011Y-153705500D01*
X167305342Y-153690931D01*
X167429718Y-153634130D01*
X167533055Y-153544589D01*
X167606978Y-153429561D01*
X167645500Y-153298367D01*
X172474500Y-153298367D01*
X172513021Y-153429559D01*
X172513020Y-153429559D01*
X172586942Y-153544586D01*
X172586946Y-153544590D01*
X172690278Y-153634127D01*
X172690285Y-153634132D01*
X172767453Y-153669373D01*
X172814658Y-153690931D01*
X172915989Y-153705500D01*
X172915992Y-153705500D01*
X172984008Y-153705500D01*
X172984011Y-153705500D01*
X173085342Y-153690931D01*
X173209718Y-153634130D01*
X173313055Y-153544589D01*
X173386978Y-153429561D01*
X173418395Y-153322565D01*
X173676300Y-153322565D01*
X173691729Y-153449642D01*
X173752329Y-153609428D01*
X173818643Y-153705500D01*
X173849405Y-153750066D01*
X173977317Y-153863387D01*
X174128632Y-153942803D01*
X174294555Y-153983700D01*
X174294556Y-153983700D01*
X174465444Y-153983700D01*
X174465445Y-153983700D01*
X174631368Y-153942803D01*
X174782683Y-153863387D01*
X174910595Y-153750066D01*
X175007671Y-153609427D01*
X175068270Y-153449643D01*
X175083700Y-153322563D01*
X175083700Y-152137437D01*
X175079251Y-152100798D01*
X175068270Y-152010357D01*
X175007670Y-151850571D01*
X174910596Y-151709936D01*
X174910594Y-151709933D01*
X174894124Y-151695341D01*
X174782683Y-151596613D01*
X174631368Y-151517197D01*
X174631367Y-151517196D01*
X174631366Y-151517196D01*
X174519718Y-151489677D01*
X174465445Y-151476300D01*
X174294555Y-151476300D01*
X174253658Y-151486380D01*
X174128633Y-151517196D01*
X173977318Y-151596612D01*
X173849405Y-151709933D01*
X173849403Y-151709936D01*
X173752329Y-151850571D01*
X173691729Y-152010357D01*
X173676300Y-152137434D01*
X173676300Y-153322565D01*
X173418395Y-153322565D01*
X173425500Y-153298367D01*
X173425500Y-153161633D01*
X173425402Y-153161300D01*
X173386978Y-153030440D01*
X173386979Y-153030440D01*
X173313057Y-152915413D01*
X173313053Y-152915409D01*
X173209721Y-152825872D01*
X173209714Y-152825867D01*
X173085345Y-152769070D01*
X173085343Y-152769069D01*
X173085342Y-152769069D01*
X173085337Y-152769068D01*
X173085336Y-152769068D01*
X172984011Y-152754500D01*
X172915989Y-152754500D01*
X172915988Y-152754500D01*
X172814663Y-152769068D01*
X172814654Y-152769070D01*
X172690285Y-152825867D01*
X172690278Y-152825872D01*
X172586946Y-152915409D01*
X172586942Y-152915413D01*
X172513021Y-153030440D01*
X172474500Y-153161632D01*
X172474500Y-153298367D01*
X167645500Y-153298367D01*
X167645500Y-153161633D01*
X167645402Y-153161300D01*
X167606978Y-153030440D01*
X167606979Y-153030440D01*
X167533057Y-152915413D01*
X167533053Y-152915409D01*
X167429721Y-152825872D01*
X167429714Y-152825867D01*
X167305345Y-152769070D01*
X167305343Y-152769069D01*
X167305342Y-152769069D01*
X167305337Y-152769068D01*
X167305336Y-152769068D01*
X167204011Y-152754500D01*
X167135989Y-152754500D01*
X167135988Y-152754500D01*
X167034663Y-152769068D01*
X167034654Y-152769070D01*
X166910285Y-152825867D01*
X166910278Y-152825872D01*
X166806946Y-152915409D01*
X166806942Y-152915413D01*
X166733021Y-153030440D01*
X166694500Y-153161632D01*
X166694500Y-153298367D01*
X166443700Y-153298367D01*
X166443700Y-152137437D01*
X166439251Y-152100798D01*
X166428270Y-152010357D01*
X166367670Y-151850571D01*
X166270596Y-151709936D01*
X166270594Y-151709933D01*
X166254124Y-151695341D01*
X166142683Y-151596613D01*
X165991368Y-151517197D01*
X165991367Y-151517196D01*
X165991366Y-151517196D01*
X165879718Y-151489677D01*
X165825445Y-151476300D01*
X165654555Y-151476300D01*
X165613658Y-151486380D01*
X165488633Y-151517196D01*
X165337318Y-151596612D01*
X165209405Y-151709933D01*
X165209403Y-151709936D01*
X165112329Y-151850571D01*
X165051729Y-152010357D01*
X165036300Y-152137434D01*
X165036300Y-153322565D01*
X143517426Y-153322565D01*
X143498499Y-153305311D01*
X143498497Y-153305309D01*
X143308837Y-153187877D01*
X143308831Y-153187874D01*
X143167617Y-153133168D01*
X143100819Y-153107290D01*
X142881539Y-153066300D01*
X142658461Y-153066300D01*
X142439181Y-153107290D01*
X142389209Y-153126649D01*
X142231168Y-153187874D01*
X142231162Y-153187877D01*
X142041502Y-153305309D01*
X142041500Y-153305311D01*
X141876645Y-153455595D01*
X141742210Y-153633616D01*
X141742205Y-153633624D01*
X141642775Y-153833306D01*
X141581725Y-154047877D01*
X141561143Y-154269999D01*
X141561143Y-154270000D01*
X129478857Y-154270000D01*
X129458274Y-154047873D01*
X129397226Y-153833310D01*
X129333584Y-153705500D01*
X129297794Y-153633624D01*
X129297789Y-153633616D01*
X129163354Y-153455595D01*
X128998500Y-153305311D01*
X128987387Y-153298431D01*
X128940751Y-153246404D01*
X128929646Y-153177422D01*
X128957598Y-153113388D01*
X128993646Y-153083948D01*
X129093228Y-153030057D01*
X129093231Y-153030055D01*
X129140056Y-152993609D01*
X128529116Y-152382669D01*
X128495631Y-152321346D01*
X128500615Y-152251654D01*
X128537641Y-152202193D01*
X128536398Y-152200759D01*
X128543100Y-152194952D01*
X128651761Y-152100798D01*
X128686954Y-152046037D01*
X128739755Y-152000283D01*
X128808914Y-151990339D01*
X128872470Y-152019363D01*
X128878949Y-152025396D01*
X129493434Y-152639882D01*
X129593731Y-152486369D01*
X129693587Y-152258717D01*
X129754612Y-152017738D01*
X129754614Y-152017729D01*
X129775141Y-151770005D01*
X129775141Y-151769994D01*
X129754614Y-151522270D01*
X129754612Y-151522261D01*
X129693587Y-151281282D01*
X129593731Y-151053630D01*
X129493434Y-150900116D01*
X128878949Y-151514602D01*
X128817626Y-151548087D01*
X128747934Y-151543103D01*
X128692001Y-151501231D01*
X128686953Y-151493961D01*
X128651761Y-151439202D01*
X128536398Y-151339241D01*
X128538698Y-151336585D01*
X128503960Y-151296428D01*
X128494074Y-151227261D01*
X128523152Y-151163729D01*
X128529116Y-151157329D01*
X129176427Y-150510019D01*
X129237750Y-150476534D01*
X129264108Y-150473700D01*
X129290066Y-150473700D01*
X129349476Y-150461882D01*
X129349477Y-150461881D01*
X129349480Y-150461881D01*
X129416860Y-150416860D01*
X129461881Y-150349480D01*
X129468716Y-150315121D01*
X129473700Y-150290066D01*
X129473700Y-149270005D01*
X141264859Y-149270005D01*
X141285385Y-149517729D01*
X141285387Y-149517738D01*
X141346412Y-149758717D01*
X141446266Y-149986364D01*
X141546564Y-150139882D01*
X142161050Y-149525395D01*
X142222373Y-149491910D01*
X142292064Y-149496894D01*
X142347998Y-149538765D01*
X142353039Y-149546025D01*
X142353048Y-149546039D01*
X142388239Y-149600798D01*
X142503602Y-149700759D01*
X142501293Y-149703422D01*
X142536006Y-149743499D01*
X142545935Y-149812660D01*
X142516898Y-149876210D01*
X142510882Y-149882669D01*
X141899942Y-150493609D01*
X141946768Y-150530055D01*
X141946770Y-150530056D01*
X142165385Y-150648364D01*
X142165396Y-150648369D01*
X142400506Y-150729083D01*
X142645707Y-150770000D01*
X142894293Y-150770000D01*
X143139493Y-150729083D01*
X143374603Y-150648369D01*
X143374614Y-150648364D01*
X143593228Y-150530057D01*
X143593231Y-150530055D01*
X143640056Y-150493609D01*
X143029116Y-149882669D01*
X142995631Y-149821346D01*
X143000615Y-149751654D01*
X143037641Y-149702193D01*
X143036398Y-149700759D01*
X143043100Y-149694952D01*
X143151761Y-149600798D01*
X143186954Y-149546037D01*
X143239755Y-149500283D01*
X143308914Y-149490339D01*
X143372470Y-149519363D01*
X143378949Y-149525396D01*
X143993434Y-150139882D01*
X144093731Y-149986369D01*
X144193587Y-149758717D01*
X144254612Y-149517738D01*
X144254614Y-149517729D01*
X144275141Y-149270005D01*
X144275141Y-149269994D01*
X144271827Y-149230000D01*
X189201120Y-149230000D01*
X189221732Y-149373363D01*
X189221734Y-149373371D01*
X189281900Y-149505117D01*
X189281905Y-149505125D01*
X189376751Y-149614584D01*
X189376753Y-149614585D01*
X189376754Y-149614586D01*
X189498604Y-149692894D01*
X189498605Y-149692894D01*
X189498608Y-149692896D01*
X189637576Y-149733699D01*
X189637578Y-149733700D01*
X189637579Y-149733700D01*
X189782422Y-149733700D01*
X189782422Y-149733699D01*
X189843143Y-149715870D01*
X189921391Y-149692896D01*
X189921392Y-149692895D01*
X189921396Y-149692894D01*
X190043246Y-149614586D01*
X190043248Y-149614584D01*
X190138094Y-149505125D01*
X190138095Y-149505123D01*
X190138097Y-149505121D01*
X190140307Y-149500283D01*
X190151076Y-149476699D01*
X190198267Y-149373368D01*
X190218880Y-149230000D01*
X190198267Y-149086632D01*
X190178388Y-149043103D01*
X190138099Y-148954882D01*
X190138094Y-148954874D01*
X190082475Y-148890686D01*
X201969973Y-148890686D01*
X201970400Y-148897121D01*
X201970400Y-150388400D01*
X202186706Y-150388400D01*
X202224877Y-150399608D01*
X202249999Y-150399999D01*
X202250000Y-150400000D01*
X205460000Y-150450000D01*
X205010000Y-146700000D01*
X204800000Y-146420000D01*
X204748000Y-146420000D01*
X204680961Y-146400315D01*
X204673600Y-146395200D01*
X204640002Y-146370001D01*
X204639996Y-146369998D01*
X202450000Y-145779999D01*
X202240000Y-145909999D01*
X202239999Y-145909999D01*
X202244493Y-147927324D01*
X202224957Y-147994407D01*
X202172256Y-148040279D01*
X202120493Y-148051600D01*
X201970400Y-148051600D01*
X201970400Y-148879801D01*
X201969973Y-148890686D01*
X190082475Y-148890686D01*
X190043248Y-148845415D01*
X189954443Y-148788344D01*
X189921396Y-148767106D01*
X189921395Y-148767105D01*
X189921391Y-148767103D01*
X189782423Y-148726300D01*
X189782421Y-148726300D01*
X189637579Y-148726300D01*
X189637576Y-148726300D01*
X189498608Y-148767103D01*
X189376751Y-148845415D01*
X189281905Y-148954874D01*
X189281900Y-148954882D01*
X189221734Y-149086628D01*
X189221732Y-149086636D01*
X189201120Y-149230000D01*
X144271827Y-149230000D01*
X144254614Y-149022270D01*
X144254612Y-149022261D01*
X144193587Y-148781282D01*
X144093731Y-148553630D01*
X143993434Y-148400116D01*
X143378949Y-149014602D01*
X143317626Y-149048087D01*
X143247934Y-149043103D01*
X143192001Y-149001231D01*
X143186953Y-148993961D01*
X143151761Y-148939202D01*
X143092823Y-148888133D01*
X143043100Y-148845048D01*
X143043099Y-148845047D01*
X143036398Y-148839241D01*
X143038698Y-148836585D01*
X143003960Y-148796428D01*
X142994074Y-148727261D01*
X143023152Y-148663729D01*
X143029116Y-148657329D01*
X143640056Y-148046389D01*
X143593229Y-148009943D01*
X143374614Y-147891635D01*
X143374603Y-147891630D01*
X143139493Y-147810916D01*
X142894293Y-147770000D01*
X142645707Y-147770000D01*
X142400506Y-147810916D01*
X142165396Y-147891630D01*
X142165390Y-147891632D01*
X141946761Y-148009949D01*
X141899942Y-148046388D01*
X141899942Y-148046390D01*
X142510883Y-148657330D01*
X142544368Y-148718653D01*
X142539384Y-148788344D01*
X142502358Y-148837805D01*
X142503602Y-148839241D01*
X142496900Y-148845047D01*
X142496900Y-148845048D01*
X142478879Y-148860662D01*
X142388238Y-148939202D01*
X142353046Y-148993962D01*
X142300242Y-149039717D01*
X142231083Y-149049660D01*
X142167528Y-149020634D01*
X142161050Y-149014603D01*
X141546564Y-148400116D01*
X141446267Y-148553632D01*
X141346412Y-148781282D01*
X141285387Y-149022261D01*
X141285385Y-149022270D01*
X141264859Y-149269994D01*
X141264859Y-149270005D01*
X129473700Y-149270005D01*
X129473700Y-148249933D01*
X129461882Y-148190523D01*
X129461881Y-148190520D01*
X129461880Y-148190520D01*
X129416860Y-148123140D01*
X129349480Y-148078119D01*
X129349479Y-148078118D01*
X129349476Y-148078117D01*
X129290066Y-148066300D01*
X129290064Y-148066300D01*
X127249936Y-148066300D01*
X127249934Y-148066300D01*
X127190523Y-148078117D01*
X127190520Y-148078118D01*
X127123140Y-148123140D01*
X127078118Y-148190520D01*
X127078117Y-148190523D01*
X127066300Y-148249933D01*
X127066299Y-148249936D01*
X127066300Y-148249936D01*
X127066300Y-150290064D01*
X127066300Y-150290066D01*
X127066299Y-150290066D01*
X127078117Y-150349476D01*
X127078118Y-150349479D01*
X127078119Y-150349480D01*
X127123140Y-150416860D01*
X127190520Y-150461880D01*
X127190520Y-150461881D01*
X127190523Y-150461882D01*
X127249933Y-150473700D01*
X127275890Y-150473700D01*
X127342929Y-150493385D01*
X127363571Y-150510019D01*
X128010883Y-151157330D01*
X128044368Y-151218653D01*
X128039384Y-151288344D01*
X128002358Y-151337805D01*
X128003602Y-151339241D01*
X127888238Y-151439202D01*
X127853046Y-151493962D01*
X127800242Y-151539717D01*
X127731083Y-151549660D01*
X127667528Y-151520634D01*
X127661050Y-151514603D01*
X127046564Y-150900116D01*
X126946267Y-151053632D01*
X126846412Y-151281282D01*
X126785387Y-151522261D01*
X126785385Y-151522270D01*
X126764858Y-151769994D01*
X126764858Y-151770005D01*
X122857584Y-151770005D01*
X122856806Y-150040000D01*
X123871120Y-150040000D01*
X123891732Y-150183363D01*
X123891734Y-150183371D01*
X123951900Y-150315117D01*
X123951905Y-150315125D01*
X124046751Y-150424584D01*
X124046753Y-150424585D01*
X124046754Y-150424586D01*
X124168604Y-150502894D01*
X124168605Y-150502894D01*
X124168608Y-150502896D01*
X124307576Y-150543699D01*
X124307578Y-150543700D01*
X124307579Y-150543700D01*
X124452422Y-150543700D01*
X124452422Y-150543699D01*
X124513143Y-150525870D01*
X124591391Y-150502896D01*
X124591392Y-150502895D01*
X124591396Y-150502894D01*
X124713246Y-150424586D01*
X124719941Y-150416860D01*
X124808094Y-150315125D01*
X124808095Y-150315123D01*
X124808097Y-150315121D01*
X124868267Y-150183368D01*
X124888880Y-150040000D01*
X124868267Y-149896632D01*
X124810436Y-149770000D01*
X124808099Y-149764882D01*
X124808094Y-149764874D01*
X124713248Y-149655415D01*
X124643518Y-149610603D01*
X124591396Y-149577106D01*
X124591395Y-149577105D01*
X124591391Y-149577103D01*
X124452423Y-149536300D01*
X124452421Y-149536300D01*
X124307579Y-149536300D01*
X124307576Y-149536300D01*
X124168608Y-149577103D01*
X124046751Y-149655415D01*
X123951905Y-149764874D01*
X123951900Y-149764882D01*
X123891734Y-149896628D01*
X123891732Y-149896636D01*
X123871120Y-150040000D01*
X122856806Y-150040000D01*
X122855065Y-146170004D01*
X133961242Y-146170004D01*
X133981443Y-146439578D01*
X133991538Y-146483805D01*
X134041600Y-146703141D01*
X134140365Y-146954791D01*
X134275534Y-147188910D01*
X134411671Y-147359620D01*
X134444090Y-147400272D01*
X134631163Y-147573849D01*
X134642258Y-147584144D01*
X134865621Y-147736430D01*
X135109186Y-147853725D01*
X135367513Y-147933409D01*
X135367514Y-147933409D01*
X135367517Y-147933410D01*
X135634823Y-147973699D01*
X135634828Y-147973699D01*
X135634831Y-147973700D01*
X135634832Y-147973700D01*
X135905168Y-147973700D01*
X135905169Y-147973700D01*
X135905176Y-147973699D01*
X136172482Y-147933410D01*
X136172483Y-147933409D01*
X136172487Y-147933409D01*
X136430814Y-147853725D01*
X136674379Y-147736430D01*
X136897742Y-147584144D01*
X137095913Y-147400268D01*
X137264466Y-147188910D01*
X137399635Y-146954791D01*
X137498400Y-146703141D01*
X137558556Y-146439581D01*
X137578758Y-146170000D01*
X137571344Y-146071071D01*
X137560023Y-145920000D01*
X162786306Y-145920000D01*
X162806195Y-146071070D01*
X162806196Y-146071074D01*
X162864504Y-146211844D01*
X162864505Y-146211846D01*
X162864506Y-146211847D01*
X162957266Y-146332734D01*
X163078153Y-146425494D01*
X163218929Y-146483805D01*
X163370000Y-146503694D01*
X163521071Y-146483805D01*
X163661847Y-146425494D01*
X163782734Y-146332734D01*
X163875494Y-146211847D01*
X163933805Y-146071071D01*
X163953694Y-145920000D01*
X163933805Y-145768929D01*
X163875494Y-145628153D01*
X163782734Y-145507266D01*
X163661847Y-145414506D01*
X163661846Y-145414505D01*
X163661844Y-145414504D01*
X163521074Y-145356196D01*
X163521072Y-145356195D01*
X163521071Y-145356195D01*
X163370000Y-145336306D01*
X163218929Y-145356195D01*
X163218925Y-145356196D01*
X163078155Y-145414504D01*
X162957266Y-145507266D01*
X162864504Y-145628155D01*
X162806196Y-145768925D01*
X162806195Y-145768929D01*
X162786306Y-145920000D01*
X137560023Y-145920000D01*
X137558556Y-145900421D01*
X137531071Y-145780000D01*
X137498400Y-145636859D01*
X137399635Y-145385209D01*
X137264466Y-145151090D01*
X137095913Y-144939732D01*
X137095912Y-144939731D01*
X137095909Y-144939727D01*
X136897742Y-144755856D01*
X136897742Y-144755855D01*
X136674379Y-144603570D01*
X136674376Y-144603569D01*
X136674374Y-144603567D01*
X136430814Y-144486275D01*
X136172488Y-144406591D01*
X136172482Y-144406589D01*
X135905176Y-144366300D01*
X135905169Y-144366300D01*
X135634831Y-144366300D01*
X135634823Y-144366300D01*
X135367517Y-144406589D01*
X135367511Y-144406591D01*
X135109185Y-144486275D01*
X134865625Y-144603567D01*
X134642257Y-144755856D01*
X134444090Y-144939727D01*
X134275534Y-145151090D01*
X134140365Y-145385208D01*
X134041602Y-145636853D01*
X134041597Y-145636870D01*
X133981443Y-145900421D01*
X133961242Y-146169995D01*
X133961242Y-146170004D01*
X122855065Y-146170004D01*
X122854183Y-144208400D01*
X202090400Y-144208400D01*
X204446333Y-144208400D01*
X204465499Y-144197934D01*
X204493790Y-144195114D01*
X205467634Y-144210284D01*
X205017634Y-140460284D01*
X204807634Y-140180284D01*
X204755634Y-140180284D01*
X204688595Y-140160599D01*
X204681234Y-140155484D01*
X204647636Y-140130285D01*
X204647630Y-140130282D01*
X202457634Y-139540283D01*
X202247634Y-139670283D01*
X202247633Y-139670283D01*
X202252260Y-141747324D01*
X202232724Y-141814407D01*
X202180023Y-141860279D01*
X202128260Y-141871600D01*
X202090400Y-141871600D01*
X202090400Y-144208400D01*
X122854183Y-144208400D01*
X122853162Y-141940000D01*
X198501120Y-141940000D01*
X198521732Y-142083363D01*
X198521734Y-142083371D01*
X198581900Y-142215117D01*
X198581905Y-142215125D01*
X198676751Y-142324584D01*
X198676753Y-142324585D01*
X198676754Y-142324586D01*
X198798604Y-142402894D01*
X198798605Y-142402894D01*
X198798608Y-142402896D01*
X198937576Y-142443699D01*
X198937578Y-142443700D01*
X198937579Y-142443700D01*
X199082422Y-142443700D01*
X199082422Y-142443699D01*
X199143143Y-142425870D01*
X199221391Y-142402896D01*
X199221392Y-142402895D01*
X199221396Y-142402894D01*
X199343246Y-142324586D01*
X199438097Y-142215121D01*
X199498267Y-142083368D01*
X199518880Y-141940000D01*
X199498267Y-141796632D01*
X199475749Y-141747324D01*
X199438099Y-141664882D01*
X199438094Y-141664874D01*
X199343248Y-141555415D01*
X199221391Y-141477103D01*
X199082423Y-141436300D01*
X199082421Y-141436300D01*
X198937579Y-141436300D01*
X198937576Y-141436300D01*
X198798608Y-141477103D01*
X198676751Y-141555415D01*
X198581905Y-141664874D01*
X198581900Y-141664882D01*
X198521734Y-141796628D01*
X198521732Y-141796636D01*
X198501120Y-141940000D01*
X122853162Y-141940000D01*
X122851739Y-138778833D01*
X126395624Y-138778833D01*
X126405944Y-138942860D01*
X126456732Y-139099171D01*
X126456734Y-139099175D01*
X126544798Y-139237940D01*
X126664603Y-139350445D01*
X126664611Y-139350451D01*
X126744860Y-139394568D01*
X126808632Y-139429627D01*
X126967823Y-139470500D01*
X126967827Y-139470500D01*
X127090923Y-139470500D01*
X127090925Y-139470500D01*
X127090930Y-139470499D01*
X127090934Y-139470499D01*
X127104174Y-139468826D01*
X127213058Y-139455071D01*
X127365871Y-139394568D01*
X127365878Y-139394563D01*
X127498835Y-139297965D01*
X127498835Y-139297963D01*
X127498837Y-139297963D01*
X127603600Y-139171326D01*
X127673579Y-139022613D01*
X127704376Y-138861170D01*
X127694056Y-138697140D01*
X127643268Y-138540829D01*
X127555202Y-138402060D01*
X127491281Y-138342034D01*
X127435396Y-138289554D01*
X127435388Y-138289548D01*
X127291371Y-138210374D01*
X127291361Y-138210371D01*
X127132180Y-138169500D01*
X127132177Y-138169500D01*
X127009075Y-138169500D01*
X127009065Y-138169500D01*
X126886942Y-138184929D01*
X126886939Y-138184929D01*
X126734130Y-138245431D01*
X126734121Y-138245436D01*
X126601164Y-138342034D01*
X126601162Y-138342037D01*
X126496400Y-138468673D01*
X126426420Y-138617387D01*
X126411207Y-138697139D01*
X126395624Y-138778830D01*
X126395624Y-138778832D01*
X126395624Y-138778833D01*
X122851739Y-138778833D01*
X122851141Y-137450000D01*
X178186306Y-137450000D01*
X178206195Y-137601070D01*
X178206196Y-137601074D01*
X178264504Y-137741844D01*
X178264505Y-137741846D01*
X178264506Y-137741847D01*
X178357266Y-137862734D01*
X178478153Y-137955494D01*
X178618929Y-138013805D01*
X178770000Y-138033694D01*
X178921071Y-138013805D01*
X179061847Y-137955494D01*
X179182734Y-137862734D01*
X179275494Y-137741847D01*
X179333805Y-137601071D01*
X179353694Y-137450000D01*
X179333946Y-137300000D01*
X182896306Y-137300000D01*
X182916195Y-137451070D01*
X182916196Y-137451074D01*
X182974504Y-137591844D01*
X182974505Y-137591846D01*
X182974506Y-137591847D01*
X183067266Y-137712734D01*
X183188153Y-137805494D01*
X183188154Y-137805494D01*
X183188155Y-137805495D01*
X183199717Y-137810284D01*
X183328929Y-137863805D01*
X183480000Y-137883694D01*
X183631071Y-137863805D01*
X183771847Y-137805494D01*
X183892734Y-137712734D01*
X183985494Y-137591847D01*
X184043805Y-137451071D01*
X184063694Y-137300000D01*
X184061983Y-137287000D01*
X191186306Y-137287000D01*
X191188018Y-137300000D01*
X191206195Y-137438070D01*
X191206196Y-137438074D01*
X191264504Y-137578844D01*
X191264505Y-137578846D01*
X191264506Y-137578847D01*
X191357266Y-137699734D01*
X191478153Y-137792494D01*
X191618929Y-137850805D01*
X191770000Y-137870694D01*
X191921071Y-137850805D01*
X192061847Y-137792494D01*
X192182734Y-137699734D01*
X192275494Y-137578847D01*
X192333805Y-137438071D01*
X192353694Y-137287000D01*
X192333805Y-137135929D01*
X192275494Y-136995153D01*
X192182734Y-136874266D01*
X192061847Y-136781506D01*
X192061846Y-136781505D01*
X192061844Y-136781504D01*
X191921074Y-136723196D01*
X191921072Y-136723195D01*
X191921071Y-136723195D01*
X191770000Y-136703306D01*
X191618929Y-136723195D01*
X191618925Y-136723196D01*
X191478155Y-136781504D01*
X191357266Y-136874266D01*
X191264504Y-136995155D01*
X191206196Y-137135925D01*
X191206195Y-137135929D01*
X191187953Y-137274493D01*
X191186306Y-137287000D01*
X184061983Y-137287000D01*
X184043805Y-137148929D01*
X183985494Y-137008153D01*
X183892734Y-136887266D01*
X183771847Y-136794506D01*
X183771846Y-136794505D01*
X183771844Y-136794504D01*
X183631074Y-136736196D01*
X183631072Y-136736195D01*
X183631071Y-136736195D01*
X183480000Y-136716306D01*
X183328929Y-136736195D01*
X183328925Y-136736196D01*
X183188155Y-136794504D01*
X183067266Y-136887266D01*
X182974504Y-137008155D01*
X182916196Y-137148925D01*
X182916195Y-137148929D01*
X182896306Y-137300000D01*
X179333946Y-137300000D01*
X179333805Y-137298929D01*
X179275494Y-137158153D01*
X179182734Y-137037266D01*
X179061847Y-136944506D01*
X179061846Y-136944505D01*
X179061844Y-136944504D01*
X178921074Y-136886196D01*
X178921072Y-136886195D01*
X178921071Y-136886195D01*
X178770000Y-136866306D01*
X178618929Y-136886195D01*
X178618925Y-136886196D01*
X178478155Y-136944504D01*
X178357266Y-137037266D01*
X178264504Y-137158155D01*
X178206196Y-137298925D01*
X178206195Y-137298929D01*
X178186306Y-137450000D01*
X122851141Y-137450000D01*
X122850800Y-136690800D01*
X180592906Y-136690800D01*
X180604847Y-136781504D01*
X180612795Y-136841870D01*
X180612796Y-136841874D01*
X180671104Y-136982644D01*
X180671105Y-136982646D01*
X180671106Y-136982647D01*
X180763866Y-137103534D01*
X180884753Y-137196294D01*
X181025529Y-137254605D01*
X181176600Y-137274494D01*
X181327671Y-137254605D01*
X181468447Y-137196294D01*
X181589334Y-137103534D01*
X181682094Y-136982647D01*
X181740405Y-136841871D01*
X181760294Y-136690800D01*
X181744390Y-136570000D01*
X198921120Y-136570000D01*
X198941732Y-136713363D01*
X198941734Y-136713371D01*
X199001900Y-136845117D01*
X199001905Y-136845125D01*
X199096751Y-136954584D01*
X199096753Y-136954585D01*
X199096754Y-136954586D01*
X199218604Y-137032894D01*
X199218605Y-137032894D01*
X199218608Y-137032896D01*
X199357576Y-137073699D01*
X199357578Y-137073700D01*
X199357579Y-137073700D01*
X199502422Y-137073700D01*
X199502422Y-137073699D01*
X199563143Y-137055870D01*
X199641391Y-137032896D01*
X199641392Y-137032895D01*
X199641396Y-137032894D01*
X199763246Y-136954586D01*
X199763248Y-136954584D01*
X199858094Y-136845125D01*
X199858095Y-136845123D01*
X199858097Y-136845121D01*
X199918267Y-136713368D01*
X199938880Y-136570000D01*
X199918267Y-136426632D01*
X199885779Y-136355494D01*
X199858099Y-136294882D01*
X199858094Y-136294874D01*
X199763248Y-136185415D01*
X199693518Y-136140603D01*
X199641396Y-136107106D01*
X199641395Y-136107105D01*
X199641391Y-136107103D01*
X199502423Y-136066300D01*
X199502421Y-136066300D01*
X199357579Y-136066300D01*
X199357576Y-136066300D01*
X199218608Y-136107103D01*
X199096751Y-136185415D01*
X199001905Y-136294874D01*
X199001900Y-136294882D01*
X198941734Y-136426628D01*
X198941732Y-136426636D01*
X198921120Y-136570000D01*
X181744390Y-136570000D01*
X181740405Y-136539729D01*
X181688246Y-136413805D01*
X181682095Y-136398955D01*
X181682094Y-136398954D01*
X181682094Y-136398953D01*
X181589334Y-136278066D01*
X181468447Y-136185306D01*
X181468446Y-136185305D01*
X181468444Y-136185304D01*
X181327674Y-136126996D01*
X181327672Y-136126995D01*
X181327671Y-136126995D01*
X181176600Y-136107106D01*
X181025529Y-136126995D01*
X181025525Y-136126996D01*
X180884755Y-136185304D01*
X180763866Y-136278066D01*
X180671104Y-136398955D01*
X180612796Y-136539725D01*
X180612795Y-136539729D01*
X180592906Y-136690800D01*
X122850800Y-136690800D01*
X122850255Y-135480000D01*
X140456306Y-135480000D01*
X140473979Y-135614235D01*
X140476195Y-135631070D01*
X140476196Y-135631074D01*
X140534504Y-135771844D01*
X140534505Y-135771846D01*
X140534506Y-135771847D01*
X140627266Y-135892734D01*
X140748153Y-135985494D01*
X140888929Y-136043805D01*
X141040000Y-136063694D01*
X141191071Y-136043805D01*
X141331847Y-135985494D01*
X141452734Y-135892734D01*
X141485525Y-135850000D01*
X178076306Y-135850000D01*
X178096195Y-136001070D01*
X178096196Y-136001074D01*
X178154504Y-136141844D01*
X178154505Y-136141846D01*
X178154506Y-136141847D01*
X178247266Y-136262734D01*
X178368153Y-136355494D01*
X178508929Y-136413805D01*
X178660000Y-136433694D01*
X178811071Y-136413805D01*
X178951847Y-136355494D01*
X179072734Y-136262734D01*
X179165494Y-136141847D01*
X179223805Y-136001071D01*
X179243694Y-135850000D01*
X179225263Y-135710000D01*
X182716306Y-135710000D01*
X182734737Y-135850000D01*
X182736195Y-135861070D01*
X182736196Y-135861074D01*
X182794504Y-136001844D01*
X182794505Y-136001846D01*
X182794506Y-136001847D01*
X182887266Y-136122734D01*
X183008153Y-136215494D01*
X183148929Y-136273805D01*
X183300000Y-136293694D01*
X183451071Y-136273805D01*
X183591847Y-136215494D01*
X183712734Y-136122734D01*
X183805494Y-136001847D01*
X183863805Y-135861071D01*
X183883694Y-135710000D01*
X183863805Y-135558929D01*
X183805494Y-135418153D01*
X183712734Y-135297266D01*
X183591847Y-135204506D01*
X183591846Y-135204505D01*
X183591844Y-135204504D01*
X183451074Y-135146196D01*
X183451072Y-135146195D01*
X183451071Y-135146195D01*
X183300000Y-135126306D01*
X183148929Y-135146195D01*
X183148925Y-135146196D01*
X183008155Y-135204504D01*
X182887266Y-135297266D01*
X182794504Y-135418155D01*
X182736196Y-135558925D01*
X182736195Y-135558929D01*
X182716306Y-135710000D01*
X179225263Y-135710000D01*
X179223805Y-135698929D01*
X179184931Y-135605078D01*
X179165495Y-135558155D01*
X179165494Y-135558154D01*
X179165494Y-135558153D01*
X179072734Y-135437266D01*
X178951847Y-135344506D01*
X178951846Y-135344505D01*
X178951844Y-135344504D01*
X178811074Y-135286196D01*
X178811072Y-135286195D01*
X178811071Y-135286195D01*
X178660000Y-135266306D01*
X178508929Y-135286195D01*
X178508925Y-135286196D01*
X178368155Y-135344504D01*
X178247266Y-135437266D01*
X178154504Y-135558155D01*
X178096196Y-135698925D01*
X178096195Y-135698929D01*
X178076306Y-135850000D01*
X141485525Y-135850000D01*
X141545494Y-135771847D01*
X141603805Y-135631071D01*
X141623694Y-135480000D01*
X141603805Y-135328929D01*
X141545494Y-135188153D01*
X141452734Y-135067266D01*
X141331847Y-134974506D01*
X141331846Y-134974505D01*
X141331844Y-134974504D01*
X141191074Y-134916196D01*
X141191072Y-134916195D01*
X141191071Y-134916195D01*
X141040000Y-134896306D01*
X140888929Y-134916195D01*
X140888925Y-134916196D01*
X140748155Y-134974504D01*
X140627266Y-135067266D01*
X140534504Y-135188155D01*
X140476196Y-135328925D01*
X140476195Y-135328929D01*
X140456306Y-135480000D01*
X122850255Y-135480000D01*
X122849738Y-134330000D01*
X166096306Y-134330000D01*
X166116195Y-134481070D01*
X166116196Y-134481074D01*
X166174504Y-134621844D01*
X166174505Y-134621846D01*
X166174506Y-134621847D01*
X166267266Y-134742734D01*
X166388153Y-134835494D01*
X166528929Y-134893805D01*
X166680000Y-134913694D01*
X166831071Y-134893805D01*
X166971847Y-134835494D01*
X167037652Y-134785000D01*
X190716306Y-134785000D01*
X190733579Y-134916196D01*
X190736195Y-134936070D01*
X190736196Y-134936074D01*
X190794504Y-135076844D01*
X190794505Y-135076846D01*
X190794506Y-135076847D01*
X190887266Y-135197734D01*
X191008153Y-135290494D01*
X191148929Y-135348805D01*
X191300000Y-135368694D01*
X191451071Y-135348805D01*
X191591847Y-135290494D01*
X191712734Y-135197734D01*
X191805494Y-135076847D01*
X191863805Y-134936071D01*
X191883694Y-134785000D01*
X191863805Y-134633929D01*
X191805494Y-134493153D01*
X191712734Y-134372266D01*
X191591847Y-134279506D01*
X191591846Y-134279505D01*
X191591844Y-134279504D01*
X191451074Y-134221196D01*
X191451072Y-134221195D01*
X191451071Y-134221195D01*
X191300000Y-134201306D01*
X191148929Y-134221195D01*
X191148925Y-134221196D01*
X191008155Y-134279504D01*
X190887266Y-134372266D01*
X190794504Y-134493155D01*
X190736196Y-134633925D01*
X190736195Y-134633929D01*
X190721871Y-134742733D01*
X190716306Y-134785000D01*
X167037652Y-134785000D01*
X167092734Y-134742734D01*
X167185494Y-134621847D01*
X167243805Y-134481071D01*
X167263694Y-134330000D01*
X167243805Y-134178929D01*
X167194661Y-134060284D01*
X167185495Y-134038155D01*
X167185494Y-134038154D01*
X167185494Y-134038153D01*
X167092734Y-133917266D01*
X166971847Y-133824506D01*
X166971846Y-133824505D01*
X166971844Y-133824504D01*
X166831074Y-133766196D01*
X166831072Y-133766195D01*
X166831071Y-133766195D01*
X166680000Y-133746306D01*
X166528929Y-133766195D01*
X166528925Y-133766196D01*
X166388155Y-133824504D01*
X166267266Y-133917266D01*
X166174504Y-134038155D01*
X166116196Y-134178925D01*
X166116195Y-134178929D01*
X166096306Y-134330000D01*
X122849738Y-134330000D01*
X122849414Y-133610000D01*
X171956306Y-133610000D01*
X171976092Y-133760284D01*
X171976195Y-133761070D01*
X171976196Y-133761074D01*
X172034504Y-133901844D01*
X172034505Y-133901846D01*
X172034506Y-133901847D01*
X172127266Y-134022734D01*
X172248153Y-134115494D01*
X172388929Y-134173805D01*
X172540000Y-134193694D01*
X172691071Y-134173805D01*
X172831847Y-134115494D01*
X172872750Y-134084108D01*
X173732207Y-134084108D01*
X173752096Y-134235178D01*
X173752097Y-134235182D01*
X173810405Y-134375952D01*
X173810406Y-134375954D01*
X173810407Y-134375955D01*
X173903167Y-134496842D01*
X174024054Y-134589602D01*
X174164830Y-134647913D01*
X174315901Y-134667802D01*
X174466972Y-134647913D01*
X174607748Y-134589602D01*
X174728635Y-134496842D01*
X174821395Y-134375955D01*
X174879706Y-134235179D01*
X174899595Y-134084108D01*
X174879706Y-133933037D01*
X174821395Y-133792261D01*
X174728635Y-133671374D01*
X174607748Y-133578614D01*
X174607747Y-133578613D01*
X174607745Y-133578612D01*
X174466975Y-133520304D01*
X174466973Y-133520303D01*
X174466972Y-133520303D01*
X174315901Y-133500414D01*
X174164830Y-133520303D01*
X174164826Y-133520304D01*
X174024056Y-133578612D01*
X173903167Y-133671374D01*
X173810405Y-133792263D01*
X173752097Y-133933033D01*
X173752096Y-133933037D01*
X173732207Y-134084108D01*
X172872750Y-134084108D01*
X172952734Y-134022734D01*
X173045494Y-133901847D01*
X173103805Y-133761071D01*
X173123694Y-133610000D01*
X173103805Y-133458929D01*
X173045494Y-133318153D01*
X173008762Y-133270283D01*
X202267633Y-133270283D01*
X202275902Y-136982644D01*
X202277634Y-137760284D01*
X202277635Y-137760284D01*
X202285643Y-137768400D01*
X202305600Y-137768400D01*
X202798680Y-137768400D01*
X202804698Y-137768493D01*
X203026382Y-137771946D01*
X203076411Y-137783343D01*
X203340000Y-137905000D01*
X203665000Y-137880000D01*
X204041103Y-137791504D01*
X204071428Y-137788224D01*
X205487634Y-137810284D01*
X205187768Y-135311397D01*
X213462922Y-135311397D01*
X213483559Y-135468156D01*
X213483560Y-135468158D01*
X213544068Y-135614237D01*
X213640322Y-135739678D01*
X213765763Y-135835932D01*
X213911842Y-135896440D01*
X214029243Y-135911896D01*
X214029250Y-135911896D01*
X214107958Y-135911896D01*
X214107965Y-135911896D01*
X214225366Y-135896440D01*
X214371445Y-135835932D01*
X214496886Y-135739678D01*
X214593140Y-135614237D01*
X214653648Y-135468158D01*
X214674286Y-135311396D01*
X214671534Y-135290495D01*
X214653648Y-135154635D01*
X214653648Y-135154634D01*
X214593140Y-135008555D01*
X214496886Y-134883114D01*
X214371445Y-134786860D01*
X214366952Y-134784999D01*
X214225366Y-134726352D01*
X214225364Y-134726351D01*
X214107974Y-134710897D01*
X214107971Y-134710896D01*
X214107965Y-134710896D01*
X214029243Y-134710896D01*
X214029237Y-134710896D01*
X214029233Y-134710897D01*
X213911843Y-134726351D01*
X213911841Y-134726352D01*
X213765764Y-134786859D01*
X213640322Y-134883114D01*
X213544067Y-135008556D01*
X213483560Y-135154633D01*
X213483559Y-135154635D01*
X213462922Y-135311394D01*
X213462922Y-135311397D01*
X205187768Y-135311397D01*
X205037634Y-134060284D01*
X204827634Y-133780284D01*
X204775634Y-133780284D01*
X204708595Y-133760599D01*
X204701234Y-133755484D01*
X204667636Y-133730285D01*
X204667630Y-133730282D01*
X202477634Y-133140283D01*
X202267634Y-133270283D01*
X202267633Y-133270283D01*
X173008762Y-133270283D01*
X172952734Y-133197266D01*
X172831847Y-133104506D01*
X172831846Y-133104505D01*
X172831844Y-133104504D01*
X172691074Y-133046196D01*
X172691072Y-133046195D01*
X172691071Y-133046195D01*
X172540000Y-133026306D01*
X172388929Y-133046195D01*
X172388925Y-133046196D01*
X172248155Y-133104504D01*
X172127266Y-133197266D01*
X172034504Y-133318155D01*
X171976196Y-133458925D01*
X171976195Y-133458929D01*
X171956306Y-133610000D01*
X122849414Y-133610000D01*
X122848830Y-132311397D01*
X213462922Y-132311397D01*
X213483559Y-132468156D01*
X213483560Y-132468158D01*
X213544068Y-132614237D01*
X213640322Y-132739678D01*
X213765763Y-132835932D01*
X213911842Y-132896440D01*
X214029243Y-132911896D01*
X214029250Y-132911896D01*
X214107958Y-132911896D01*
X214107965Y-132911896D01*
X214225366Y-132896440D01*
X214371445Y-132835932D01*
X214496886Y-132739678D01*
X214593140Y-132614237D01*
X214653648Y-132468158D01*
X214674286Y-132311396D01*
X214653648Y-132154634D01*
X214593140Y-132008555D01*
X214496886Y-131883114D01*
X214371445Y-131786860D01*
X214225366Y-131726352D01*
X214225364Y-131726351D01*
X214107974Y-131710897D01*
X214107971Y-131710896D01*
X214107965Y-131710896D01*
X214029243Y-131710896D01*
X214029237Y-131710896D01*
X214029233Y-131710897D01*
X213911843Y-131726351D01*
X213911841Y-131726352D01*
X213765764Y-131786859D01*
X213640322Y-131883114D01*
X213544067Y-132008556D01*
X213483560Y-132154633D01*
X213483559Y-132154635D01*
X213462922Y-132311394D01*
X213462922Y-132311397D01*
X122848830Y-132311397D01*
X122848140Y-130778833D01*
X126395624Y-130778833D01*
X126405944Y-130942860D01*
X126456732Y-131099171D01*
X126456734Y-131099175D01*
X126544798Y-131237940D01*
X126664603Y-131350445D01*
X126664611Y-131350451D01*
X126744860Y-131394568D01*
X126808632Y-131429627D01*
X126967823Y-131470500D01*
X126967827Y-131470500D01*
X127090923Y-131470500D01*
X127090925Y-131470500D01*
X127090930Y-131470499D01*
X127090934Y-131470499D01*
X127104174Y-131468826D01*
X127213058Y-131455071D01*
X127251123Y-131440000D01*
X196826306Y-131440000D01*
X196830322Y-131470500D01*
X196846195Y-131591070D01*
X196846196Y-131591074D01*
X196904504Y-131731844D01*
X196904505Y-131731846D01*
X196904506Y-131731847D01*
X196997266Y-131852734D01*
X197118153Y-131945494D01*
X197258929Y-132003805D01*
X197410000Y-132023694D01*
X197561071Y-132003805D01*
X197701847Y-131945494D01*
X197822734Y-131852734D01*
X197915494Y-131731847D01*
X197973805Y-131591071D01*
X197993694Y-131440000D01*
X197973805Y-131288929D01*
X197915494Y-131148153D01*
X197822734Y-131027266D01*
X197701847Y-130934506D01*
X197701846Y-130934505D01*
X197701844Y-130934504D01*
X197561074Y-130876196D01*
X197561072Y-130876195D01*
X197561071Y-130876195D01*
X197410000Y-130856306D01*
X197258929Y-130876195D01*
X197258925Y-130876196D01*
X197118155Y-130934504D01*
X196997266Y-131027266D01*
X196904504Y-131148155D01*
X196846196Y-131288925D01*
X196846195Y-131288929D01*
X196827672Y-131429628D01*
X196826306Y-131440000D01*
X127251123Y-131440000D01*
X127365871Y-131394568D01*
X127365878Y-131394563D01*
X127498835Y-131297965D01*
X127498835Y-131297963D01*
X127498837Y-131297963D01*
X127603600Y-131171326D01*
X127673579Y-131022613D01*
X127704376Y-130861170D01*
X127694056Y-130697140D01*
X127643268Y-130540829D01*
X127555202Y-130402060D01*
X127511387Y-130360915D01*
X127435396Y-130289554D01*
X127435388Y-130289548D01*
X127291371Y-130210374D01*
X127291361Y-130210371D01*
X127132180Y-130169500D01*
X127132177Y-130169500D01*
X127009075Y-130169500D01*
X127009065Y-130169500D01*
X126886942Y-130184929D01*
X126886939Y-130184929D01*
X126734130Y-130245431D01*
X126734121Y-130245436D01*
X126601164Y-130342034D01*
X126601162Y-130342037D01*
X126496400Y-130468673D01*
X126426420Y-130617387D01*
X126411207Y-130697139D01*
X126395624Y-130778830D01*
X126395624Y-130778832D01*
X126395624Y-130778833D01*
X122848140Y-130778833D01*
X122847697Y-129793999D01*
X206172306Y-129793999D01*
X206192195Y-129945070D01*
X206192196Y-129945074D01*
X206250504Y-130085844D01*
X206250505Y-130085846D01*
X206250506Y-130085847D01*
X206343266Y-130206734D01*
X206464153Y-130299494D01*
X206464154Y-130299494D01*
X206464155Y-130299495D01*
X206612437Y-130360915D01*
X206611154Y-130364012D01*
X206657513Y-130392232D01*
X206688079Y-130455061D01*
X206688747Y-130491881D01*
X206682304Y-130540824D01*
X206680306Y-130556000D01*
X206698888Y-130697139D01*
X206700195Y-130707070D01*
X206700196Y-130707074D01*
X206758504Y-130847844D01*
X206758505Y-130847846D01*
X206758506Y-130847847D01*
X206851266Y-130968734D01*
X206972153Y-131061494D01*
X207112929Y-131119805D01*
X207264000Y-131139694D01*
X207415071Y-131119805D01*
X207555847Y-131061494D01*
X207676734Y-130968734D01*
X207769494Y-130847847D01*
X207827805Y-130707071D01*
X207847694Y-130556000D01*
X207841849Y-130511608D01*
X207852614Y-130442576D01*
X207877104Y-130407746D01*
X209197591Y-129087259D01*
X209258912Y-129053776D01*
X209328604Y-129058760D01*
X209332687Y-129060367D01*
X209398929Y-129087805D01*
X209550000Y-129107694D01*
X209701071Y-129087805D01*
X209841847Y-129029494D01*
X209962734Y-128936734D01*
X210055494Y-128815847D01*
X210113805Y-128675071D01*
X210133694Y-128524000D01*
X210113805Y-128372929D01*
X210071171Y-128270000D01*
X212268306Y-128270000D01*
X212281857Y-128372925D01*
X212288195Y-128421070D01*
X212288196Y-128421074D01*
X212346504Y-128561844D01*
X212346505Y-128561846D01*
X212346506Y-128561847D01*
X212439266Y-128682734D01*
X212560153Y-128775494D01*
X212700929Y-128833805D01*
X212852000Y-128853694D01*
X213003071Y-128833805D01*
X213143847Y-128775494D01*
X213264734Y-128682734D01*
X213357494Y-128561847D01*
X213415805Y-128421071D01*
X213435694Y-128270000D01*
X214808306Y-128270000D01*
X214821856Y-128372925D01*
X214828195Y-128421070D01*
X214828196Y-128421074D01*
X214886504Y-128561844D01*
X214886505Y-128561846D01*
X214886506Y-128561847D01*
X214979266Y-128682734D01*
X215100153Y-128775494D01*
X215240929Y-128833805D01*
X215392000Y-128853694D01*
X215543071Y-128833805D01*
X215683847Y-128775494D01*
X215804734Y-128682734D01*
X215897494Y-128561847D01*
X215955805Y-128421071D01*
X215975694Y-128270000D01*
X215955805Y-128118929D01*
X215910355Y-128009202D01*
X215897495Y-127978155D01*
X215897494Y-127978154D01*
X215897494Y-127978153D01*
X215804734Y-127857266D01*
X215683847Y-127764506D01*
X215683846Y-127764505D01*
X215683844Y-127764504D01*
X215543074Y-127706196D01*
X215543072Y-127706195D01*
X215543071Y-127706195D01*
X215392000Y-127686306D01*
X215240929Y-127706195D01*
X215240925Y-127706196D01*
X215100155Y-127764504D01*
X214979266Y-127857266D01*
X214886504Y-127978155D01*
X214828196Y-128118925D01*
X214828195Y-128118929D01*
X214808306Y-128270000D01*
X213435694Y-128270000D01*
X213415805Y-128118929D01*
X213370355Y-128009202D01*
X213357495Y-127978155D01*
X213357494Y-127978154D01*
X213357494Y-127978153D01*
X213264734Y-127857266D01*
X213143847Y-127764506D01*
X213143846Y-127764505D01*
X213143844Y-127764504D01*
X213003074Y-127706196D01*
X213003072Y-127706195D01*
X213003071Y-127706195D01*
X212852000Y-127686306D01*
X212700929Y-127706195D01*
X212700925Y-127706196D01*
X212560155Y-127764504D01*
X212439266Y-127857266D01*
X212346504Y-127978155D01*
X212288196Y-128118925D01*
X212288195Y-128118929D01*
X212268306Y-128270000D01*
X210071171Y-128270000D01*
X210055494Y-128232153D01*
X209962734Y-128111266D01*
X209841847Y-128018506D01*
X209841846Y-128018505D01*
X209841844Y-128018504D01*
X209701074Y-127960196D01*
X209701072Y-127960195D01*
X209701071Y-127960195D01*
X209550000Y-127940306D01*
X209398929Y-127960195D01*
X209398925Y-127960196D01*
X209258154Y-128018504D01*
X209258152Y-128018506D01*
X209233119Y-128037715D01*
X209167950Y-128062909D01*
X209099505Y-128048870D01*
X209049515Y-128000056D01*
X209043074Y-127986797D01*
X209039494Y-127978153D01*
X208946734Y-127857266D01*
X208825847Y-127764506D01*
X208825846Y-127764505D01*
X208825844Y-127764504D01*
X208685074Y-127706196D01*
X208685072Y-127706195D01*
X208685071Y-127706195D01*
X208534000Y-127686306D01*
X208382929Y-127706195D01*
X208382925Y-127706196D01*
X208242155Y-127764504D01*
X208202755Y-127794737D01*
X208121266Y-127857266D01*
X208061761Y-127934815D01*
X208028504Y-127978156D01*
X207982444Y-128089354D01*
X207955564Y-128129582D01*
X206904255Y-129180891D01*
X206842932Y-129214376D01*
X206800391Y-129216149D01*
X206756004Y-129210306D01*
X206755999Y-129210306D01*
X206604929Y-129230195D01*
X206604925Y-129230196D01*
X206464155Y-129288504D01*
X206343266Y-129381266D01*
X206250504Y-129502155D01*
X206192196Y-129642925D01*
X206192195Y-129642929D01*
X206172306Y-129793999D01*
X122847697Y-129793999D01*
X122847434Y-129210066D01*
X166986299Y-129210066D01*
X166998117Y-129269476D01*
X166998118Y-129269479D01*
X167013057Y-129291837D01*
X167043140Y-129336860D01*
X167104869Y-129378105D01*
X167110520Y-129381881D01*
X167110523Y-129381882D01*
X167169933Y-129393700D01*
X167169936Y-129393700D01*
X168910066Y-129393700D01*
X168969476Y-129381882D01*
X168969477Y-129381881D01*
X168969480Y-129381881D01*
X169036860Y-129336860D01*
X169081881Y-129269480D01*
X169081882Y-129269476D01*
X169093700Y-129210066D01*
X169093700Y-127469933D01*
X169081882Y-127410523D01*
X169081881Y-127410520D01*
X169062196Y-127381059D01*
X169036860Y-127343140D01*
X168975130Y-127301894D01*
X168969479Y-127298118D01*
X168969476Y-127298117D01*
X168910066Y-127286300D01*
X168910064Y-127286300D01*
X167169936Y-127286300D01*
X167169934Y-127286300D01*
X167110523Y-127298117D01*
X167110520Y-127298118D01*
X167043140Y-127343140D01*
X166998118Y-127410520D01*
X166998117Y-127410523D01*
X166986300Y-127469933D01*
X166986300Y-127469935D01*
X166986300Y-127469936D01*
X166986300Y-129210064D01*
X166986300Y-129210066D01*
X166986299Y-129210066D01*
X122847434Y-129210066D01*
X122845297Y-124460000D01*
X132465806Y-124460000D01*
X132485695Y-124611070D01*
X132485696Y-124611074D01*
X132544004Y-124751844D01*
X132544005Y-124751846D01*
X132544006Y-124751847D01*
X132636766Y-124872734D01*
X132757653Y-124965494D01*
X132898429Y-125023805D01*
X133049500Y-125043694D01*
X133200571Y-125023805D01*
X133341347Y-124965494D01*
X133462234Y-124872734D01*
X133554994Y-124751847D01*
X133613305Y-124611071D01*
X133633194Y-124460000D01*
X133613305Y-124308929D01*
X133554994Y-124168153D01*
X133462234Y-124047266D01*
X133341347Y-123954506D01*
X133341346Y-123954505D01*
X133341344Y-123954504D01*
X133200574Y-123896196D01*
X133200572Y-123896195D01*
X133200571Y-123896195D01*
X133049500Y-123876306D01*
X132898429Y-123896195D01*
X132898425Y-123896196D01*
X132757655Y-123954504D01*
X132636766Y-124047266D01*
X132544004Y-124168155D01*
X132485696Y-124308925D01*
X132485695Y-124308929D01*
X132465806Y-124460000D01*
X122845297Y-124460000D01*
X122844568Y-122840000D01*
X125956306Y-122840000D01*
X125976195Y-122991070D01*
X125976196Y-122991074D01*
X126034504Y-123131844D01*
X126034505Y-123131846D01*
X126034506Y-123131847D01*
X126127266Y-123252734D01*
X126248153Y-123345494D01*
X126388929Y-123403805D01*
X126540000Y-123423694D01*
X126691071Y-123403805D01*
X126831847Y-123345494D01*
X126952734Y-123252734D01*
X127045494Y-123131847D01*
X127103805Y-122991071D01*
X127123694Y-122840000D01*
X127113162Y-122759999D01*
X130846306Y-122759999D01*
X130866195Y-122911070D01*
X130866196Y-122911074D01*
X130924504Y-123051844D01*
X130924505Y-123051846D01*
X130924506Y-123051847D01*
X131017266Y-123172734D01*
X131138153Y-123265494D01*
X131278929Y-123323805D01*
X131430000Y-123343694D01*
X131581071Y-123323805D01*
X131721847Y-123265494D01*
X131842734Y-123172734D01*
X131935494Y-123051847D01*
X131993805Y-122911071D01*
X132013694Y-122760000D01*
X131993805Y-122608929D01*
X131954930Y-122515078D01*
X131935495Y-122468155D01*
X131935494Y-122468154D01*
X131935494Y-122468153D01*
X131890872Y-122410000D01*
X154596306Y-122410000D01*
X154616195Y-122561070D01*
X154616196Y-122561074D01*
X154674504Y-122701844D01*
X154674505Y-122701846D01*
X154674506Y-122701847D01*
X154767266Y-122822734D01*
X154888153Y-122915494D01*
X155028929Y-122973805D01*
X155180000Y-122993694D01*
X155331071Y-122973805D01*
X155471847Y-122915494D01*
X155592734Y-122822734D01*
X155685494Y-122701847D01*
X155743805Y-122561071D01*
X155763694Y-122410000D01*
X155743805Y-122258929D01*
X155685494Y-122118153D01*
X155592734Y-121997266D01*
X155471847Y-121904506D01*
X155471846Y-121904505D01*
X155471844Y-121904504D01*
X155331074Y-121846196D01*
X155331072Y-121846195D01*
X155331071Y-121846195D01*
X155180000Y-121826306D01*
X155028929Y-121846195D01*
X155028925Y-121846196D01*
X154888155Y-121904504D01*
X154767266Y-121997266D01*
X154674504Y-122118155D01*
X154616196Y-122258925D01*
X154616195Y-122258929D01*
X154596306Y-122410000D01*
X131890872Y-122410000D01*
X131842734Y-122347266D01*
X131721847Y-122254506D01*
X131721846Y-122254505D01*
X131721844Y-122254504D01*
X131581074Y-122196196D01*
X131581072Y-122196195D01*
X131581071Y-122196195D01*
X131430000Y-122176306D01*
X131278929Y-122196195D01*
X131278925Y-122196196D01*
X131138155Y-122254504D01*
X131017266Y-122347266D01*
X130924504Y-122468155D01*
X130866196Y-122608925D01*
X130866195Y-122608929D01*
X130846306Y-122759999D01*
X127113162Y-122759999D01*
X127103805Y-122688929D01*
X127045494Y-122548153D01*
X126952734Y-122427266D01*
X126831847Y-122334506D01*
X126831846Y-122334505D01*
X126831844Y-122334504D01*
X126691074Y-122276196D01*
X126691072Y-122276195D01*
X126691071Y-122276195D01*
X126540000Y-122256306D01*
X126388929Y-122276195D01*
X126388925Y-122276196D01*
X126248155Y-122334504D01*
X126127266Y-122427266D01*
X126034504Y-122548155D01*
X125976196Y-122688925D01*
X125976195Y-122688929D01*
X125956306Y-122840000D01*
X122844568Y-122840000D01*
X122843803Y-121139418D01*
X153695738Y-121139418D01*
X153715627Y-121290489D01*
X153715628Y-121290493D01*
X153773936Y-121431263D01*
X153773937Y-121431265D01*
X153773938Y-121431266D01*
X153866698Y-121552153D01*
X153987585Y-121644913D01*
X154128361Y-121703224D01*
X154279432Y-121723113D01*
X154430503Y-121703224D01*
X154571279Y-121644913D01*
X154692166Y-121552153D01*
X154784926Y-121431266D01*
X154843237Y-121290490D01*
X154863126Y-121139419D01*
X154843237Y-120988348D01*
X154784926Y-120847572D01*
X154692166Y-120726685D01*
X154571279Y-120633925D01*
X154571278Y-120633924D01*
X154571276Y-120633923D01*
X154430506Y-120575615D01*
X154430504Y-120575614D01*
X154430503Y-120575614D01*
X154279432Y-120555725D01*
X154128361Y-120575614D01*
X154128357Y-120575615D01*
X153987587Y-120633923D01*
X153866698Y-120726685D01*
X153773936Y-120847574D01*
X153715628Y-120988344D01*
X153715627Y-120988348D01*
X153695738Y-121139418D01*
X122843803Y-121139418D01*
X122843142Y-119670000D01*
X130576306Y-119670000D01*
X130596195Y-119821070D01*
X130596196Y-119821074D01*
X130654504Y-119961844D01*
X130654505Y-119961846D01*
X130654506Y-119961847D01*
X130747266Y-120082734D01*
X130868153Y-120175494D01*
X131008929Y-120233805D01*
X131160000Y-120253694D01*
X131311071Y-120233805D01*
X131451847Y-120175494D01*
X131572734Y-120082734D01*
X131665494Y-119961847D01*
X131723805Y-119821071D01*
X131743694Y-119670000D01*
X131723805Y-119518929D01*
X131665494Y-119378153D01*
X131572734Y-119257266D01*
X131451847Y-119164506D01*
X131451846Y-119164505D01*
X131451844Y-119164504D01*
X131311074Y-119106196D01*
X131311072Y-119106195D01*
X131311071Y-119106195D01*
X131160000Y-119086306D01*
X131008929Y-119106195D01*
X131008925Y-119106196D01*
X130868155Y-119164504D01*
X130747266Y-119257266D01*
X130654504Y-119378155D01*
X130596196Y-119518925D01*
X130596195Y-119518929D01*
X130576306Y-119670000D01*
X122843142Y-119670000D01*
X122842867Y-119059999D01*
X152246306Y-119059999D01*
X152266195Y-119211070D01*
X152266196Y-119211074D01*
X152324504Y-119351844D01*
X152324505Y-119351846D01*
X152324506Y-119351847D01*
X152417266Y-119472734D01*
X152538153Y-119565494D01*
X152678929Y-119623805D01*
X152830000Y-119643694D01*
X152981071Y-119623805D01*
X153121847Y-119565494D01*
X153242734Y-119472734D01*
X153335494Y-119351847D01*
X153393805Y-119211071D01*
X153413694Y-119060000D01*
X153393805Y-118908929D01*
X153381822Y-118880000D01*
X155316306Y-118880000D01*
X155336195Y-119031070D01*
X155336196Y-119031074D01*
X155394504Y-119171844D01*
X155394505Y-119171846D01*
X155394506Y-119171847D01*
X155487266Y-119292734D01*
X155608153Y-119385494D01*
X155748929Y-119443805D01*
X155900000Y-119463694D01*
X156051071Y-119443805D01*
X156191847Y-119385494D01*
X156312734Y-119292734D01*
X156405494Y-119171847D01*
X156463805Y-119031071D01*
X156483694Y-118880000D01*
X156463805Y-118728929D01*
X156405494Y-118588153D01*
X156312734Y-118467266D01*
X156191847Y-118374506D01*
X156191846Y-118374505D01*
X156191844Y-118374504D01*
X156051074Y-118316196D01*
X156051072Y-118316195D01*
X156051071Y-118316195D01*
X155900000Y-118296306D01*
X155748929Y-118316195D01*
X155748925Y-118316196D01*
X155608155Y-118374504D01*
X155487266Y-118467266D01*
X155394504Y-118588155D01*
X155336196Y-118728925D01*
X155336195Y-118728929D01*
X155316306Y-118880000D01*
X153381822Y-118880000D01*
X153335494Y-118768153D01*
X153242734Y-118647266D01*
X153121847Y-118554506D01*
X153121846Y-118554505D01*
X153121844Y-118554504D01*
X152981074Y-118496196D01*
X152981072Y-118496195D01*
X152981071Y-118496195D01*
X152830000Y-118476306D01*
X152678929Y-118496195D01*
X152678925Y-118496196D01*
X152538155Y-118554504D01*
X152417266Y-118647266D01*
X152324504Y-118768155D01*
X152266196Y-118908925D01*
X152266195Y-118908929D01*
X152246306Y-119059999D01*
X122842867Y-119059999D01*
X122841829Y-116752398D01*
X131713873Y-116752398D01*
X131733762Y-116903469D01*
X131733763Y-116903473D01*
X131792071Y-117044243D01*
X131792072Y-117044245D01*
X131792073Y-117044246D01*
X131884833Y-117165133D01*
X132005720Y-117257893D01*
X132146496Y-117316204D01*
X132297567Y-117336093D01*
X132448638Y-117316204D01*
X132589414Y-117257893D01*
X132710301Y-117165133D01*
X132803061Y-117044246D01*
X132861372Y-116903470D01*
X132881261Y-116752399D01*
X132861372Y-116601328D01*
X132803061Y-116460552D01*
X132710301Y-116339665D01*
X132589414Y-116246905D01*
X132589413Y-116246904D01*
X132589411Y-116246903D01*
X132448641Y-116188595D01*
X132448639Y-116188594D01*
X132448638Y-116188594D01*
X132297567Y-116168705D01*
X132146496Y-116188594D01*
X132146492Y-116188595D01*
X132005722Y-116246903D01*
X131884833Y-116339665D01*
X131792071Y-116460554D01*
X131733763Y-116601324D01*
X131733762Y-116601328D01*
X131713873Y-116752398D01*
X122841829Y-116752398D01*
X122841482Y-115979999D01*
X153886306Y-115979999D01*
X153906195Y-116131070D01*
X153906196Y-116131074D01*
X153964504Y-116271844D01*
X153964505Y-116271846D01*
X153964506Y-116271847D01*
X154057266Y-116392734D01*
X154178153Y-116485494D01*
X154318929Y-116543805D01*
X154470000Y-116563694D01*
X154621071Y-116543805D01*
X154761847Y-116485494D01*
X154882734Y-116392734D01*
X154975494Y-116271847D01*
X155033805Y-116131071D01*
X155053694Y-115980000D01*
X155033805Y-115828929D01*
X154975494Y-115688153D01*
X154882734Y-115567266D01*
X154761847Y-115474506D01*
X154761846Y-115474505D01*
X154761844Y-115474504D01*
X154621074Y-115416196D01*
X154621072Y-115416195D01*
X154621071Y-115416195D01*
X154470000Y-115396306D01*
X154318929Y-115416195D01*
X154318925Y-115416196D01*
X154178155Y-115474504D01*
X154057266Y-115567266D01*
X153964504Y-115688155D01*
X153906196Y-115828925D01*
X153906195Y-115828929D01*
X153886306Y-115979999D01*
X122841482Y-115979999D01*
X122837648Y-107459000D01*
X140456306Y-107459000D01*
X140469287Y-107557596D01*
X140476195Y-107610070D01*
X140476196Y-107610074D01*
X140534504Y-107750844D01*
X140534505Y-107750846D01*
X140534506Y-107750847D01*
X140627266Y-107871734D01*
X140748153Y-107964494D01*
X140748154Y-107964494D01*
X140748155Y-107964495D01*
X140762242Y-107970330D01*
X140888929Y-108022805D01*
X141040000Y-108042694D01*
X141145708Y-108028777D01*
X141214743Y-108039542D01*
X141266999Y-108085922D01*
X141284832Y-108135530D01*
X141302861Y-108272471D01*
X141302862Y-108272475D01*
X141361170Y-108413245D01*
X141361171Y-108413247D01*
X141361172Y-108413248D01*
X141453932Y-108534135D01*
X141574819Y-108626895D01*
X141715595Y-108685206D01*
X141866666Y-108705095D01*
X141935723Y-108696003D01*
X142004756Y-108706768D01*
X142057012Y-108753148D01*
X142075898Y-108820416D01*
X142074846Y-108835126D01*
X142066306Y-108899997D01*
X142066306Y-108900000D01*
X142083370Y-109029609D01*
X142086195Y-109051070D01*
X142086196Y-109051074D01*
X142144504Y-109191844D01*
X142144505Y-109191846D01*
X142144506Y-109191847D01*
X142237266Y-109312734D01*
X142358153Y-109405494D01*
X142498929Y-109463805D01*
X142650000Y-109483694D01*
X142653447Y-109483240D01*
X142656359Y-109483694D01*
X142658127Y-109483694D01*
X142658127Y-109483969D01*
X142722483Y-109494002D01*
X142774741Y-109540380D01*
X142793629Y-109607648D01*
X142792577Y-109622362D01*
X142786306Y-109669997D01*
X142786306Y-109669999D01*
X142806195Y-109821070D01*
X142806196Y-109821074D01*
X142864504Y-109961844D01*
X142864505Y-109961846D01*
X142864506Y-109961847D01*
X142957266Y-110082734D01*
X143078153Y-110175494D01*
X143218929Y-110233805D01*
X143370000Y-110253694D01*
X143521071Y-110233805D01*
X143661847Y-110175494D01*
X143782734Y-110082734D01*
X143875494Y-109961847D01*
X143933805Y-109821071D01*
X143953694Y-109670000D01*
X143933805Y-109518929D01*
X143875494Y-109378153D01*
X143782734Y-109257266D01*
X143661847Y-109164506D01*
X143661846Y-109164505D01*
X143661844Y-109164504D01*
X143521074Y-109106196D01*
X143521072Y-109106195D01*
X143521071Y-109106195D01*
X143370000Y-109086306D01*
X143369997Y-109086306D01*
X143366540Y-109086761D01*
X143363623Y-109086306D01*
X143361873Y-109086306D01*
X143361873Y-109086032D01*
X143297505Y-109075992D01*
X143245252Y-109029609D01*
X143226370Y-108962339D01*
X143227421Y-108947647D01*
X143233694Y-108900000D01*
X143213805Y-108748929D01*
X143155494Y-108608153D01*
X143062734Y-108487266D01*
X142941847Y-108394506D01*
X142941846Y-108394505D01*
X142941844Y-108394504D01*
X142801074Y-108336196D01*
X142801072Y-108336195D01*
X142801071Y-108336195D01*
X142650000Y-108316306D01*
X142649999Y-108316306D01*
X142580943Y-108325397D01*
X142511907Y-108314631D01*
X142459652Y-108268251D01*
X142440767Y-108200982D01*
X142441818Y-108186280D01*
X142450360Y-108121401D01*
X142430471Y-107970330D01*
X142372160Y-107829554D01*
X142279400Y-107708667D01*
X142158513Y-107615907D01*
X142158512Y-107615906D01*
X142158510Y-107615905D01*
X142017740Y-107557597D01*
X142017738Y-107557596D01*
X142017737Y-107557596D01*
X141866666Y-107537707D01*
X141866664Y-107537707D01*
X141760956Y-107551623D01*
X141691921Y-107540857D01*
X141639666Y-107494477D01*
X141621833Y-107444871D01*
X141603805Y-107307929D01*
X141545494Y-107167153D01*
X141452734Y-107046266D01*
X141331847Y-106953506D01*
X141331846Y-106953505D01*
X141331844Y-106953504D01*
X141191074Y-106895196D01*
X141191072Y-106895195D01*
X141191071Y-106895195D01*
X141040000Y-106875306D01*
X140888929Y-106895195D01*
X140888925Y-106895196D01*
X140748155Y-106953504D01*
X140627266Y-107046266D01*
X140534504Y-107167155D01*
X140476196Y-107307925D01*
X140476195Y-107307929D01*
X140456306Y-107459000D01*
X122837648Y-107459000D01*
X122836974Y-105961403D01*
X141804887Y-105961403D01*
X141805046Y-105962606D01*
X141824776Y-106112473D01*
X141824777Y-106112477D01*
X141883085Y-106253247D01*
X141883086Y-106253249D01*
X141883087Y-106253250D01*
X141975847Y-106374137D01*
X142096734Y-106466897D01*
X142237510Y-106525208D01*
X142277733Y-106530503D01*
X142341629Y-106558769D01*
X142380101Y-106617093D01*
X142384487Y-106637254D01*
X142389784Y-106677483D01*
X142448093Y-106818255D01*
X142448094Y-106818257D01*
X142448095Y-106818258D01*
X142540855Y-106939145D01*
X142661742Y-107031905D01*
X142802518Y-107090216D01*
X142953194Y-107110053D01*
X143017089Y-107138318D01*
X143055560Y-107196643D01*
X143059946Y-107216805D01*
X143079784Y-107367480D01*
X143079785Y-107367485D01*
X143138093Y-107508255D01*
X143138094Y-107508257D01*
X143138095Y-107508258D01*
X143230855Y-107629145D01*
X143351742Y-107721905D01*
X143492518Y-107780216D01*
X143643589Y-107800105D01*
X143688064Y-107794249D01*
X143757096Y-107805014D01*
X143809353Y-107851393D01*
X143827187Y-107901002D01*
X143833050Y-107945535D01*
X143833051Y-107945539D01*
X143891359Y-108086309D01*
X143891360Y-108086311D01*
X143891361Y-108086312D01*
X143984121Y-108207199D01*
X144105008Y-108299959D01*
X144105009Y-108299959D01*
X144105010Y-108299960D01*
X144144473Y-108316306D01*
X144245784Y-108358270D01*
X144396855Y-108378159D01*
X144547926Y-108358270D01*
X144688702Y-108299959D01*
X144809589Y-108207199D01*
X144902349Y-108086312D01*
X144960660Y-107945536D01*
X144980549Y-107794465D01*
X144960660Y-107643394D01*
X144902349Y-107502618D01*
X144809589Y-107381731D01*
X144688702Y-107288971D01*
X144688701Y-107288970D01*
X144688699Y-107288969D01*
X144547929Y-107230661D01*
X144547927Y-107230660D01*
X144547926Y-107230660D01*
X144396855Y-107210771D01*
X144396854Y-107210771D01*
X144352380Y-107216626D01*
X144283345Y-107205860D01*
X144231089Y-107159480D01*
X144213257Y-107109873D01*
X144207394Y-107065340D01*
X144149083Y-106924564D01*
X144056323Y-106803677D01*
X143935436Y-106710917D01*
X143935435Y-106710916D01*
X143935433Y-106710915D01*
X143794663Y-106652607D01*
X143794661Y-106652606D01*
X143794660Y-106652606D01*
X143759694Y-106648002D01*
X143643983Y-106632768D01*
X143580086Y-106604501D01*
X143541616Y-106546176D01*
X143537231Y-106526022D01*
X143517394Y-106375340D01*
X143459083Y-106234564D01*
X143366323Y-106113677D01*
X143245436Y-106020917D01*
X143245435Y-106020916D01*
X143245433Y-106020915D01*
X143104661Y-105962606D01*
X143064432Y-105957309D01*
X143000536Y-105929040D01*
X142962066Y-105870715D01*
X142957681Y-105850554D01*
X142952386Y-105810334D01*
X142952386Y-105810332D01*
X142894075Y-105669556D01*
X142801315Y-105548669D01*
X142680428Y-105455909D01*
X142680427Y-105455908D01*
X142680425Y-105455907D01*
X142539655Y-105397599D01*
X142539653Y-105397598D01*
X142539652Y-105397598D01*
X142388581Y-105377709D01*
X142237510Y-105397598D01*
X142237506Y-105397599D01*
X142096736Y-105455907D01*
X141975847Y-105548669D01*
X141883085Y-105669558D01*
X141824777Y-105810328D01*
X141824776Y-105810332D01*
X141804887Y-105961403D01*
X122836974Y-105961403D01*
X122835205Y-102029999D01*
X123976806Y-102029999D01*
X123996695Y-102181070D01*
X123996696Y-102181074D01*
X124055004Y-102321844D01*
X124055005Y-102321846D01*
X124055006Y-102321847D01*
X124147766Y-102442734D01*
X124268653Y-102535494D01*
X124409429Y-102593805D01*
X124560500Y-102613694D01*
X124711571Y-102593805D01*
X124852347Y-102535494D01*
X124973234Y-102442734D01*
X125065994Y-102321847D01*
X125124305Y-102181071D01*
X125144194Y-102030000D01*
X125124305Y-101878929D01*
X125065994Y-101738153D01*
X124973234Y-101617266D01*
X124852347Y-101524506D01*
X124852346Y-101524505D01*
X124852344Y-101524504D01*
X124711574Y-101466196D01*
X124711572Y-101466195D01*
X124711571Y-101466195D01*
X124560500Y-101446306D01*
X124409429Y-101466195D01*
X124409425Y-101466196D01*
X124268655Y-101524504D01*
X124147766Y-101617266D01*
X124055004Y-101738155D01*
X123996696Y-101878925D01*
X123996695Y-101878929D01*
X123976806Y-102029999D01*
X122835205Y-102029999D01*
X122832249Y-95460000D01*
X162396306Y-95460000D01*
X162416195Y-95611070D01*
X162416196Y-95611074D01*
X162474504Y-95751844D01*
X162474505Y-95751846D01*
X162474506Y-95751847D01*
X162567266Y-95872734D01*
X162688153Y-95965494D01*
X162828929Y-96023805D01*
X162980000Y-96043694D01*
X163131071Y-96023805D01*
X163271847Y-95965494D01*
X163392734Y-95872734D01*
X163485494Y-95751847D01*
X163543805Y-95611071D01*
X163563694Y-95460000D01*
X163543805Y-95308929D01*
X163485494Y-95168153D01*
X163392734Y-95047266D01*
X163271847Y-94954506D01*
X163271846Y-94954505D01*
X163271844Y-94954504D01*
X163131074Y-94896196D01*
X163131072Y-94896195D01*
X163131071Y-94896195D01*
X162980000Y-94876306D01*
X162828929Y-94896195D01*
X162828925Y-94896196D01*
X162688155Y-94954504D01*
X162567266Y-95047266D01*
X162474504Y-95168155D01*
X162416196Y-95308925D01*
X162416195Y-95308929D01*
X162396306Y-95460000D01*
X122832249Y-95460000D01*
X122830247Y-91010000D01*
X133276306Y-91010000D01*
X133296195Y-91161070D01*
X133296196Y-91161074D01*
X133354504Y-91301844D01*
X133354505Y-91301846D01*
X133354506Y-91301847D01*
X133447266Y-91422734D01*
X133568153Y-91515494D01*
X133708929Y-91573805D01*
X133860000Y-91593694D01*
X134011071Y-91573805D01*
X134151847Y-91515494D01*
X134272734Y-91422734D01*
X134365494Y-91301847D01*
X134423805Y-91161071D01*
X134443694Y-91010000D01*
X134423805Y-90858929D01*
X134365494Y-90718153D01*
X134362691Y-90714500D01*
X151956306Y-90714500D01*
X151968049Y-90803700D01*
X151976195Y-90865570D01*
X151976196Y-90865574D01*
X152034504Y-91006344D01*
X152034505Y-91006346D01*
X152034506Y-91006347D01*
X152127266Y-91127234D01*
X152248153Y-91219994D01*
X152388929Y-91278305D01*
X152540000Y-91298194D01*
X152691071Y-91278305D01*
X152831847Y-91219994D01*
X152952734Y-91127234D01*
X153045494Y-91006347D01*
X153103805Y-90865571D01*
X153123694Y-90714500D01*
X153103805Y-90563429D01*
X153045494Y-90422653D01*
X152952734Y-90301766D01*
X152831847Y-90209006D01*
X152831846Y-90209005D01*
X152831844Y-90209004D01*
X152691074Y-90150696D01*
X152691072Y-90150695D01*
X152691071Y-90150695D01*
X152540000Y-90130806D01*
X152388929Y-90150695D01*
X152388925Y-90150696D01*
X152248155Y-90209004D01*
X152127266Y-90301766D01*
X152034504Y-90422655D01*
X151976196Y-90563425D01*
X151976195Y-90563429D01*
X151956306Y-90714500D01*
X134362691Y-90714500D01*
X134272734Y-90597266D01*
X134151847Y-90504506D01*
X134151846Y-90504505D01*
X134151844Y-90504504D01*
X134011074Y-90446196D01*
X134011072Y-90446195D01*
X134011071Y-90446195D01*
X133860000Y-90426306D01*
X133708929Y-90446195D01*
X133708925Y-90446196D01*
X133568155Y-90504504D01*
X133447266Y-90597266D01*
X133354504Y-90718155D01*
X133296196Y-90858925D01*
X133296195Y-90858929D01*
X133276306Y-91010000D01*
X122830247Y-91010000D01*
X122829055Y-88360000D01*
X151816306Y-88360000D01*
X151821183Y-88397048D01*
X151836195Y-88511070D01*
X151836196Y-88511074D01*
X151894504Y-88651844D01*
X151894505Y-88651846D01*
X151894506Y-88651847D01*
X151987266Y-88772734D01*
X152108153Y-88865494D01*
X152248929Y-88923805D01*
X152400000Y-88943694D01*
X152551071Y-88923805D01*
X152691847Y-88865494D01*
X152812734Y-88772734D01*
X152905494Y-88651847D01*
X152963805Y-88511071D01*
X152983694Y-88360000D01*
X152968521Y-88244752D01*
X152979286Y-88175720D01*
X153025666Y-88123464D01*
X153044008Y-88114008D01*
X153045692Y-88113310D01*
X153045695Y-88113310D01*
X153186471Y-88054999D01*
X153307358Y-87962239D01*
X153314815Y-87952520D01*
X153371239Y-87911319D01*
X153440985Y-87907162D01*
X153501906Y-87941373D01*
X153510972Y-87951836D01*
X153511261Y-87952125D01*
X153511263Y-87952127D01*
X153511266Y-87952130D01*
X153632153Y-88044890D01*
X153772929Y-88103201D01*
X153924000Y-88123090D01*
X154075071Y-88103201D01*
X154215847Y-88044890D01*
X154336734Y-87952130D01*
X154429494Y-87831243D01*
X154486915Y-87692614D01*
X154530755Y-87638211D01*
X154597049Y-87616146D01*
X154648927Y-87625505D01*
X154715790Y-87653201D01*
X154866861Y-87673090D01*
X155017932Y-87653201D01*
X155158708Y-87594890D01*
X155279595Y-87502130D01*
X155372355Y-87381243D01*
X155430666Y-87240467D01*
X155450555Y-87089396D01*
X155430666Y-86938325D01*
X155372355Y-86797549D01*
X155279595Y-86676662D01*
X155158708Y-86583902D01*
X155158707Y-86583901D01*
X155158705Y-86583900D01*
X155017935Y-86525592D01*
X155017933Y-86525591D01*
X155017932Y-86525591D01*
X154866861Y-86505702D01*
X154715790Y-86525591D01*
X154715786Y-86525592D01*
X154575016Y-86583900D01*
X154454127Y-86676662D01*
X154361366Y-86797550D01*
X154303945Y-86936177D01*
X154260104Y-86990580D01*
X154193809Y-87012645D01*
X154141932Y-87003285D01*
X154075074Y-86975592D01*
X154075072Y-86975591D01*
X154075071Y-86975591D01*
X153924000Y-86955702D01*
X153772929Y-86975591D01*
X153772925Y-86975592D01*
X153632155Y-87033900D01*
X153601917Y-87057103D01*
X153511266Y-87126662D01*
X153511264Y-87126663D01*
X153511263Y-87126665D01*
X153503805Y-87136384D01*
X153447376Y-87177584D01*
X153377629Y-87181736D01*
X153316711Y-87147521D01*
X153307648Y-87137061D01*
X153307362Y-87136775D01*
X153307359Y-87136773D01*
X153307358Y-87136771D01*
X153186471Y-87044011D01*
X153186470Y-87044010D01*
X153186468Y-87044009D01*
X153045698Y-86985701D01*
X153045696Y-86985700D01*
X153045695Y-86985700D01*
X152894624Y-86965811D01*
X152743553Y-86985700D01*
X152743549Y-86985701D01*
X152602779Y-87044009D01*
X152481890Y-87136771D01*
X152389128Y-87257660D01*
X152330820Y-87398430D01*
X152330819Y-87398434D01*
X152310930Y-87549505D01*
X152310930Y-87549506D01*
X152326102Y-87664750D01*
X152315336Y-87733785D01*
X152268956Y-87786041D01*
X152250616Y-87795496D01*
X152108154Y-87854505D01*
X151987266Y-87947266D01*
X151894504Y-88068155D01*
X151836196Y-88208925D01*
X151836195Y-88208929D01*
X151816306Y-88360000D01*
X122829055Y-88360000D01*
X122827143Y-84112113D01*
X122846797Y-84045066D01*
X122899581Y-83999288D01*
X122947764Y-83988105D01*
X127650000Y-83860000D01*
X127644315Y-81650897D01*
X141364282Y-81650897D01*
X141384171Y-81801967D01*
X141384172Y-81801971D01*
X141442480Y-81942741D01*
X141442481Y-81942743D01*
X141442482Y-81942744D01*
X141535242Y-82063631D01*
X141656129Y-82156391D01*
X141796905Y-82214702D01*
X141947976Y-82234591D01*
X141992366Y-82228746D01*
X142061397Y-82239510D01*
X142096231Y-82264004D01*
X142765481Y-82933254D01*
X142798966Y-82994577D01*
X142801800Y-83020935D01*
X142801800Y-85141048D01*
X142801564Y-85146455D01*
X142797998Y-85187202D01*
X142808582Y-85226703D01*
X142809753Y-85231983D01*
X142816856Y-85272265D01*
X142818528Y-85276857D01*
X142825936Y-85294741D01*
X142828001Y-85299169D01*
X142851459Y-85332671D01*
X142854365Y-85337233D01*
X142874817Y-85372655D01*
X142906149Y-85398946D01*
X142910139Y-85402602D01*
X143296058Y-85788521D01*
X143299711Y-85792506D01*
X143326006Y-85823844D01*
X143326008Y-85823845D01*
X143361428Y-85844295D01*
X143365988Y-85847200D01*
X143399492Y-85870660D01*
X143399494Y-85870660D01*
X143403980Y-85872753D01*
X143421743Y-85880110D01*
X143426387Y-85881801D01*
X143426392Y-85881801D01*
X143426394Y-85881803D01*
X143466691Y-85888908D01*
X143471939Y-85890072D01*
X143511460Y-85900662D01*
X143552210Y-85897096D01*
X143557612Y-85896861D01*
X154344827Y-85896861D01*
X154350228Y-85897096D01*
X154390979Y-85900662D01*
X154419849Y-85892925D01*
X154451945Y-85888700D01*
X156531838Y-85888700D01*
X156598877Y-85908385D01*
X156644632Y-85961189D01*
X156654576Y-86030347D01*
X156646399Y-86060153D01*
X156626195Y-86108928D01*
X156626195Y-86108929D01*
X156606306Y-86259999D01*
X156626195Y-86411070D01*
X156626196Y-86411074D01*
X156684504Y-86551845D01*
X156684506Y-86551847D01*
X156709571Y-86584513D01*
X156734765Y-86649683D01*
X156720726Y-86718127D01*
X156709573Y-86735483D01*
X156684505Y-86768153D01*
X156626196Y-86908925D01*
X156626195Y-86908929D01*
X156606306Y-87060000D01*
X156617829Y-87147521D01*
X156626195Y-87211070D01*
X156626196Y-87211074D01*
X156684504Y-87351845D01*
X156684506Y-87351848D01*
X156701081Y-87373448D01*
X156726276Y-87438617D01*
X156712238Y-87507062D01*
X156701082Y-87524421D01*
X156644506Y-87598152D01*
X156644504Y-87598154D01*
X156586196Y-87738925D01*
X156586195Y-87738929D01*
X156566306Y-87890000D01*
X156585273Y-88034071D01*
X156586195Y-88041070D01*
X156586196Y-88041074D01*
X156644504Y-88181844D01*
X156644505Y-88181845D01*
X156644506Y-88181847D01*
X156684711Y-88234244D01*
X156709905Y-88299412D01*
X156695867Y-88367856D01*
X156684714Y-88385211D01*
X156675632Y-88397046D01*
X156675631Y-88397048D01*
X156617322Y-88537821D01*
X156617321Y-88537825D01*
X156597432Y-88688896D01*
X156597432Y-88697023D01*
X156596009Y-88697023D01*
X156586592Y-88757393D01*
X156540209Y-88809647D01*
X156472939Y-88828529D01*
X156439487Y-88823515D01*
X156392423Y-88809696D01*
X156392421Y-88809696D01*
X156247579Y-88809696D01*
X156247576Y-88809696D01*
X156108608Y-88850499D01*
X155986751Y-88928811D01*
X155891905Y-89038270D01*
X155891900Y-89038278D01*
X155831734Y-89170024D01*
X155831732Y-89170032D01*
X155811120Y-89313395D01*
X155831732Y-89456759D01*
X155831734Y-89456767D01*
X155891900Y-89588513D01*
X155891905Y-89588521D01*
X155986751Y-89697980D01*
X155986753Y-89697981D01*
X155986754Y-89697982D01*
X156108604Y-89776290D01*
X156108605Y-89776290D01*
X156108608Y-89776292D01*
X156247576Y-89817095D01*
X156247578Y-89817096D01*
X156247579Y-89817096D01*
X156392422Y-89817096D01*
X156392422Y-89817095D01*
X156453143Y-89799266D01*
X156531391Y-89776292D01*
X156531392Y-89776291D01*
X156531396Y-89776290D01*
X156653246Y-89697982D01*
X156653248Y-89697980D01*
X156748094Y-89588521D01*
X156748095Y-89588519D01*
X156748097Y-89588517D01*
X156808267Y-89456764D01*
X156825707Y-89335464D01*
X156854730Y-89271911D01*
X156913508Y-89234136D01*
X156983378Y-89234136D01*
X156995890Y-89238549D01*
X157030055Y-89252701D01*
X157181126Y-89272590D01*
X157332197Y-89252701D01*
X157472973Y-89194390D01*
X157593860Y-89101630D01*
X157686620Y-88980743D01*
X157744931Y-88839967D01*
X157764820Y-88688896D01*
X157744931Y-88537825D01*
X157723389Y-88485819D01*
X157686621Y-88397050D01*
X157686619Y-88397048D01*
X157686617Y-88397046D01*
X157673138Y-88379479D01*
X157646414Y-88344651D01*
X157621220Y-88279482D01*
X157635259Y-88211037D01*
X157646412Y-88193682D01*
X157655494Y-88181847D01*
X157713805Y-88041071D01*
X157733694Y-87890000D01*
X157713805Y-87738929D01*
X157682505Y-87663363D01*
X157655495Y-87598154D01*
X157655493Y-87598152D01*
X157638918Y-87576551D01*
X157613723Y-87511383D01*
X157627761Y-87442938D01*
X157638913Y-87425584D01*
X157695494Y-87351847D01*
X157702421Y-87335125D01*
X157706264Y-87325844D01*
X157753805Y-87211071D01*
X157773694Y-87060000D01*
X157753805Y-86908929D01*
X157695494Y-86768153D01*
X157670426Y-86735484D01*
X157645233Y-86670319D01*
X157659271Y-86601874D01*
X157670421Y-86584521D01*
X157695494Y-86551847D01*
X157753805Y-86411071D01*
X157773694Y-86260000D01*
X157760381Y-86158885D01*
X157771148Y-86089850D01*
X157817528Y-86037594D01*
X157883321Y-86018700D01*
X163032536Y-86018700D01*
X163099575Y-86038385D01*
X163120217Y-86055019D01*
X170244981Y-93179782D01*
X170278466Y-93241105D01*
X170281300Y-93267463D01*
X170281300Y-103272485D01*
X170261615Y-103339524D01*
X170244981Y-103360166D01*
X169536853Y-104068294D01*
X169532865Y-104071948D01*
X169501527Y-104098245D01*
X169501526Y-104098246D01*
X169481075Y-104133668D01*
X169478169Y-104138229D01*
X169454710Y-104171733D01*
X169452646Y-104176159D01*
X169445247Y-104194024D01*
X169443567Y-104198638D01*
X169436464Y-104238918D01*
X169435293Y-104244198D01*
X169424709Y-104283697D01*
X169424709Y-104283698D01*
X169428275Y-104324443D01*
X169428511Y-104329850D01*
X169428511Y-127500148D01*
X169428275Y-127505555D01*
X169424709Y-127546302D01*
X169435293Y-127585803D01*
X169436464Y-127591083D01*
X169443567Y-127631365D01*
X169445239Y-127635957D01*
X169452647Y-127653841D01*
X169454712Y-127658269D01*
X169478170Y-127691771D01*
X169481076Y-127696333D01*
X169501528Y-127731755D01*
X169532860Y-127758046D01*
X169536850Y-127761702D01*
X169574892Y-127799744D01*
X169608377Y-127861067D01*
X169603520Y-127928972D01*
X169603567Y-127928987D01*
X169603505Y-127929190D01*
X169603393Y-127930759D01*
X169601805Y-127934792D01*
X169541546Y-128133440D01*
X169521202Y-128340000D01*
X169541546Y-128546559D01*
X169541547Y-128546561D01*
X169601798Y-128745184D01*
X169601799Y-128745186D01*
X169601800Y-128745188D01*
X169601801Y-128745191D01*
X169699638Y-128928231D01*
X169699642Y-128928238D01*
X169831316Y-129088683D01*
X169991761Y-129220357D01*
X169991768Y-129220361D01*
X170174808Y-129318198D01*
X170174809Y-129318198D01*
X170174816Y-129318202D01*
X170373439Y-129378453D01*
X170373438Y-129378453D01*
X170393783Y-129380456D01*
X170580000Y-129398798D01*
X170786561Y-129378453D01*
X170985184Y-129318202D01*
X171168237Y-129220358D01*
X171328683Y-129088683D01*
X171460358Y-128928237D01*
X171558202Y-128745184D01*
X171618453Y-128546561D01*
X171638798Y-128340000D01*
X172061202Y-128340000D01*
X172081546Y-128546559D01*
X172081547Y-128546561D01*
X172141798Y-128745184D01*
X172141799Y-128745186D01*
X172141800Y-128745188D01*
X172141801Y-128745191D01*
X172239638Y-128928231D01*
X172239642Y-128928238D01*
X172371316Y-129088683D01*
X172531761Y-129220357D01*
X172531768Y-129220361D01*
X172714808Y-129318198D01*
X172714809Y-129318198D01*
X172714816Y-129318202D01*
X172913439Y-129378453D01*
X172913438Y-129378453D01*
X172931958Y-129380277D01*
X173120000Y-129398798D01*
X173326561Y-129378453D01*
X173525184Y-129318202D01*
X173708237Y-129220358D01*
X173868683Y-129088683D01*
X174000358Y-128928237D01*
X174098202Y-128745184D01*
X174158453Y-128546561D01*
X174178798Y-128340000D01*
X174178798Y-128339999D01*
X174601202Y-128339999D01*
X174621546Y-128546559D01*
X174621547Y-128546561D01*
X174681798Y-128745184D01*
X174681799Y-128745186D01*
X174681800Y-128745188D01*
X174681801Y-128745191D01*
X174779638Y-128928231D01*
X174779642Y-128928238D01*
X174911316Y-129088683D01*
X175071761Y-129220357D01*
X175071768Y-129220361D01*
X175254808Y-129318198D01*
X175254809Y-129318198D01*
X175254816Y-129318202D01*
X175453439Y-129378453D01*
X175453438Y-129378453D01*
X175471958Y-129380277D01*
X175660000Y-129398798D01*
X175866561Y-129378453D01*
X176065184Y-129318202D01*
X176248237Y-129220358D01*
X176408683Y-129088683D01*
X176540358Y-128928237D01*
X176638202Y-128745184D01*
X176698453Y-128546561D01*
X176718798Y-128340000D01*
X176718798Y-128339999D01*
X177141202Y-128339999D01*
X177161546Y-128546559D01*
X177161547Y-128546561D01*
X177221798Y-128745184D01*
X177221799Y-128745186D01*
X177221800Y-128745188D01*
X177221801Y-128745191D01*
X177319638Y-128928231D01*
X177319642Y-128928238D01*
X177451316Y-129088683D01*
X177611761Y-129220357D01*
X177611768Y-129220361D01*
X177794808Y-129318198D01*
X177794809Y-129318198D01*
X177794816Y-129318202D01*
X177993439Y-129378453D01*
X177993438Y-129378453D01*
X178011958Y-129380277D01*
X178200000Y-129398798D01*
X178406561Y-129378453D01*
X178605184Y-129318202D01*
X178788237Y-129220358D01*
X178948683Y-129088683D01*
X179080358Y-128928237D01*
X179178202Y-128745184D01*
X179196974Y-128683298D01*
X179235270Y-128624862D01*
X179299082Y-128596405D01*
X179368149Y-128606964D01*
X179420543Y-128653188D01*
X179435409Y-128687201D01*
X179466567Y-128803486D01*
X179466570Y-128803492D01*
X179566399Y-129017578D01*
X179701894Y-129211082D01*
X179868917Y-129378105D01*
X180062421Y-129513600D01*
X180276507Y-129613429D01*
X180276516Y-129613433D01*
X180490000Y-129670634D01*
X180490000Y-128952301D01*
X180509685Y-128885262D01*
X180562489Y-128839507D01*
X180631647Y-128829563D01*
X180704237Y-128840000D01*
X180704238Y-128840000D01*
X180775762Y-128840000D01*
X180775763Y-128840000D01*
X180848353Y-128829563D01*
X180917512Y-128839507D01*
X180970315Y-128885262D01*
X180990000Y-128952301D01*
X180990000Y-129670633D01*
X181203483Y-129613433D01*
X181203492Y-129613429D01*
X181417578Y-129513600D01*
X181611082Y-129378105D01*
X181778105Y-129211082D01*
X181913600Y-129017578D01*
X182013429Y-128803492D01*
X182013433Y-128803483D01*
X182044590Y-128687202D01*
X182080954Y-128627542D01*
X182143801Y-128597012D01*
X182213177Y-128605306D01*
X182267055Y-128649791D01*
X182283025Y-128683299D01*
X182301797Y-128745181D01*
X182301801Y-128745191D01*
X182399638Y-128928231D01*
X182399642Y-128928238D01*
X182531316Y-129088683D01*
X182691761Y-129220357D01*
X182691768Y-129220361D01*
X182874808Y-129318198D01*
X182874809Y-129318198D01*
X182874816Y-129318202D01*
X183073439Y-129378453D01*
X183073438Y-129378453D01*
X183093782Y-129380456D01*
X183280000Y-129398798D01*
X183486561Y-129378453D01*
X183685184Y-129318202D01*
X183868237Y-129220358D01*
X184028683Y-129088683D01*
X184160358Y-128928237D01*
X184258202Y-128745184D01*
X184318453Y-128546561D01*
X184338798Y-128340000D01*
X184318453Y-128133439D01*
X184258202Y-127934816D01*
X184258189Y-127934792D01*
X184160361Y-127751768D01*
X184160357Y-127751761D01*
X184028683Y-127591316D01*
X183868238Y-127459642D01*
X183868231Y-127459638D01*
X183685191Y-127361801D01*
X183685188Y-127361800D01*
X183685187Y-127361799D01*
X183685184Y-127361798D01*
X183486561Y-127301547D01*
X183486559Y-127301546D01*
X183486561Y-127301546D01*
X183280000Y-127281202D01*
X183073440Y-127301546D01*
X182956165Y-127337121D01*
X182874816Y-127361798D01*
X182874813Y-127361799D01*
X182874811Y-127361800D01*
X182874808Y-127361801D01*
X182691768Y-127459638D01*
X182691761Y-127459642D01*
X182531316Y-127591316D01*
X182399642Y-127751761D01*
X182399638Y-127751768D01*
X182301801Y-127934808D01*
X182301798Y-127934815D01*
X182283025Y-127996701D01*
X182244727Y-128055139D01*
X182180915Y-128083595D01*
X182111848Y-128073034D01*
X182059455Y-128026809D01*
X182044590Y-127992797D01*
X182013433Y-127876516D01*
X182013429Y-127876507D01*
X181913600Y-127662422D01*
X181913599Y-127662420D01*
X181778113Y-127468926D01*
X181778108Y-127468920D01*
X181611082Y-127301894D01*
X181417578Y-127166399D01*
X181203492Y-127066570D01*
X181203486Y-127066567D01*
X180990000Y-127009364D01*
X180990000Y-127727698D01*
X180970315Y-127794737D01*
X180917511Y-127840492D01*
X180848355Y-127850436D01*
X180775766Y-127840000D01*
X180775763Y-127840000D01*
X180704237Y-127840000D01*
X180704233Y-127840000D01*
X180631645Y-127850436D01*
X180562487Y-127840492D01*
X180509684Y-127794736D01*
X180490000Y-127727698D01*
X180490000Y-127009364D01*
X180489999Y-127009364D01*
X180276513Y-127066567D01*
X180276507Y-127066570D01*
X180062422Y-127166399D01*
X180062420Y-127166400D01*
X179868926Y-127301886D01*
X179868920Y-127301891D01*
X179701891Y-127468920D01*
X179701886Y-127468926D01*
X179566400Y-127662420D01*
X179566399Y-127662422D01*
X179466570Y-127876507D01*
X179466567Y-127876514D01*
X179435409Y-127992798D01*
X179399044Y-128052458D01*
X179336197Y-128082987D01*
X179266821Y-128074692D01*
X179212943Y-128030207D01*
X179196974Y-127996701D01*
X179178202Y-127934816D01*
X179178189Y-127934792D01*
X179080361Y-127751768D01*
X179080357Y-127751761D01*
X178948683Y-127591316D01*
X178788238Y-127459642D01*
X178788231Y-127459638D01*
X178605191Y-127361801D01*
X178605188Y-127361800D01*
X178605187Y-127361799D01*
X178605184Y-127361798D01*
X178406561Y-127301547D01*
X178406559Y-127301546D01*
X178406561Y-127301546D01*
X178200000Y-127281202D01*
X177993440Y-127301546D01*
X177876165Y-127337121D01*
X177794816Y-127361798D01*
X177794813Y-127361799D01*
X177794811Y-127361800D01*
X177794808Y-127361801D01*
X177611768Y-127459638D01*
X177611761Y-127459642D01*
X177451316Y-127591316D01*
X177319642Y-127751761D01*
X177319638Y-127751768D01*
X177221801Y-127934808D01*
X177221800Y-127934811D01*
X177221799Y-127934813D01*
X177221798Y-127934816D01*
X177197121Y-128016165D01*
X177161546Y-128133440D01*
X177141202Y-128339999D01*
X176718798Y-128339999D01*
X176698453Y-128133439D01*
X176638202Y-127934816D01*
X176638189Y-127934792D01*
X176540361Y-127751768D01*
X176540357Y-127751761D01*
X176408683Y-127591316D01*
X176248238Y-127459642D01*
X176248231Y-127459638D01*
X176065191Y-127361801D01*
X176065188Y-127361800D01*
X176065187Y-127361799D01*
X176065184Y-127361798D01*
X175866561Y-127301547D01*
X175866559Y-127301546D01*
X175866561Y-127301546D01*
X175678519Y-127283026D01*
X175660000Y-127281202D01*
X175659999Y-127281202D01*
X175453440Y-127301546D01*
X175336165Y-127337121D01*
X175254816Y-127361798D01*
X175254813Y-127361799D01*
X175254811Y-127361800D01*
X175254808Y-127361801D01*
X175071768Y-127459638D01*
X175071761Y-127459642D01*
X174911316Y-127591316D01*
X174779642Y-127751761D01*
X174779638Y-127751768D01*
X174681801Y-127934808D01*
X174681800Y-127934811D01*
X174681799Y-127934813D01*
X174681798Y-127934816D01*
X174657121Y-128016165D01*
X174621546Y-128133440D01*
X174601202Y-128339999D01*
X174178798Y-128339999D01*
X174158453Y-128133439D01*
X174098202Y-127934816D01*
X174098189Y-127934792D01*
X174000361Y-127751768D01*
X174000357Y-127751761D01*
X173868683Y-127591316D01*
X173708238Y-127459642D01*
X173708231Y-127459638D01*
X173525191Y-127361801D01*
X173525188Y-127361800D01*
X173525187Y-127361799D01*
X173525184Y-127361798D01*
X173326561Y-127301547D01*
X173326559Y-127301546D01*
X173326561Y-127301546D01*
X173120000Y-127281202D01*
X172913440Y-127301546D01*
X172796165Y-127337121D01*
X172714816Y-127361798D01*
X172714813Y-127361799D01*
X172714811Y-127361800D01*
X172714808Y-127361801D01*
X172531768Y-127459638D01*
X172531761Y-127459642D01*
X172371316Y-127591316D01*
X172239642Y-127751761D01*
X172239638Y-127751768D01*
X172141801Y-127934808D01*
X172141800Y-127934811D01*
X172141799Y-127934813D01*
X172141798Y-127934816D01*
X172117121Y-128016165D01*
X172081546Y-128133440D01*
X172061202Y-128340000D01*
X171638798Y-128340000D01*
X171618453Y-128133439D01*
X171558202Y-127934816D01*
X171558189Y-127934792D01*
X171460361Y-127751768D01*
X171460357Y-127751761D01*
X171328683Y-127591316D01*
X171168238Y-127459642D01*
X171168231Y-127459638D01*
X170985191Y-127361801D01*
X170985188Y-127361800D01*
X170985187Y-127361799D01*
X170985184Y-127361798D01*
X170786561Y-127301547D01*
X170786559Y-127301546D01*
X170786561Y-127301546D01*
X170580000Y-127281202D01*
X170373440Y-127301546D01*
X170245906Y-127340233D01*
X170176039Y-127340856D01*
X170116926Y-127303607D01*
X170087335Y-127240313D01*
X170085911Y-127221572D01*
X170085911Y-118138490D01*
X208708898Y-118138490D01*
X208719482Y-118177992D01*
X208720653Y-118183272D01*
X208727756Y-118223554D01*
X208729428Y-118228146D01*
X208736836Y-118246030D01*
X208738901Y-118250458D01*
X208762359Y-118283960D01*
X208765265Y-118288522D01*
X208785717Y-118323944D01*
X208817049Y-118350235D01*
X208821039Y-118353891D01*
X212238891Y-121771743D01*
X212272376Y-121833066D01*
X212274149Y-121875607D01*
X212268306Y-121919995D01*
X212268306Y-121920000D01*
X212288195Y-122071070D01*
X212288196Y-122071074D01*
X212346504Y-122211844D01*
X212346505Y-122211845D01*
X212346506Y-122211847D01*
X212439266Y-122332734D01*
X212560153Y-122425494D01*
X212700929Y-122483805D01*
X212852000Y-122503694D01*
X213003071Y-122483805D01*
X213143847Y-122425494D01*
X213264734Y-122332734D01*
X213357494Y-122211847D01*
X213374198Y-122171519D01*
X213418036Y-122117117D01*
X213484329Y-122095051D01*
X213552029Y-122112329D01*
X213576439Y-122131291D01*
X213585508Y-122140360D01*
X213589161Y-122144345D01*
X213615456Y-122175683D01*
X213615458Y-122175684D01*
X213615459Y-122175685D01*
X213650872Y-122196131D01*
X213655435Y-122199037D01*
X213688942Y-122222499D01*
X213688944Y-122222500D01*
X213693421Y-122224587D01*
X213711217Y-122231958D01*
X213715837Y-122233640D01*
X213715842Y-122233640D01*
X213715844Y-122233642D01*
X213756141Y-122240747D01*
X213761389Y-122241911D01*
X213800910Y-122252501D01*
X213841660Y-122248935D01*
X213847062Y-122248700D01*
X214853634Y-122248700D01*
X214920673Y-122268385D01*
X214952010Y-122297214D01*
X214979262Y-122332730D01*
X214979264Y-122332731D01*
X214979266Y-122332734D01*
X215100153Y-122425494D01*
X215240929Y-122483805D01*
X215392000Y-122503694D01*
X215543071Y-122483805D01*
X215683847Y-122425494D01*
X215804734Y-122332734D01*
X215897494Y-122211847D01*
X215955805Y-122071071D01*
X215975694Y-121920000D01*
X215955805Y-121768929D01*
X215897494Y-121628153D01*
X215804734Y-121507266D01*
X215683847Y-121414506D01*
X215683846Y-121414505D01*
X215683844Y-121414504D01*
X215543074Y-121356196D01*
X215543072Y-121356195D01*
X215543071Y-121356195D01*
X215392000Y-121336306D01*
X215240929Y-121356195D01*
X215240925Y-121356196D01*
X215100155Y-121414504D01*
X214979262Y-121507269D01*
X214952010Y-121542786D01*
X214895582Y-121583989D01*
X214853634Y-121591300D01*
X214017514Y-121591300D01*
X213950475Y-121571615D01*
X213929833Y-121554981D01*
X213760893Y-121386041D01*
X213741188Y-121360362D01*
X213725683Y-121333506D01*
X213694343Y-121307208D01*
X213690359Y-121303557D01*
X211764955Y-119378153D01*
X209856416Y-117469613D01*
X209822933Y-117408293D01*
X209820099Y-117381944D01*
X209820099Y-71267178D01*
X209839784Y-71200140D01*
X209892588Y-71154385D01*
X209961746Y-71144441D01*
X210022764Y-71171326D01*
X210084169Y-71221720D01*
X210084176Y-71221725D01*
X210269581Y-71320826D01*
X210269583Y-71320826D01*
X210269586Y-71320828D01*
X210470773Y-71381857D01*
X210680000Y-71402464D01*
X210889227Y-71381857D01*
X211090414Y-71320828D01*
X211090418Y-71320826D01*
X211275823Y-71221725D01*
X211275825Y-71221722D01*
X211275829Y-71221721D01*
X211438347Y-71088347D01*
X211571721Y-70925829D01*
X211571722Y-70925825D01*
X211571725Y-70925823D01*
X211670826Y-70740418D01*
X211670826Y-70740417D01*
X211670828Y-70740414D01*
X211731857Y-70539227D01*
X211752464Y-70330000D01*
X211752464Y-70329999D01*
X212147536Y-70329999D01*
X212168142Y-70539225D01*
X212229173Y-70740418D01*
X212328274Y-70925823D01*
X212328279Y-70925829D01*
X212461652Y-71088347D01*
X212624170Y-71221720D01*
X212624176Y-71221725D01*
X212809581Y-71320826D01*
X212809583Y-71320826D01*
X212809586Y-71320828D01*
X213010773Y-71381857D01*
X213220000Y-71402464D01*
X213429227Y-71381857D01*
X213630414Y-71320828D01*
X213630418Y-71320826D01*
X213815823Y-71221725D01*
X213815825Y-71221722D01*
X213815829Y-71221721D01*
X213978347Y-71088347D01*
X214111721Y-70925829D01*
X214111722Y-70925825D01*
X214111725Y-70925823D01*
X214210826Y-70740418D01*
X214210826Y-70740417D01*
X214210828Y-70740414D01*
X214271857Y-70539227D01*
X214292464Y-70330000D01*
X214271857Y-70120773D01*
X214210828Y-69919586D01*
X214210826Y-69919583D01*
X214210826Y-69919581D01*
X214111725Y-69734176D01*
X214111720Y-69734170D01*
X213978347Y-69571652D01*
X213815829Y-69438279D01*
X213815823Y-69438274D01*
X213630418Y-69339173D01*
X213429225Y-69278142D01*
X213220000Y-69257536D01*
X213010774Y-69278142D01*
X212809581Y-69339173D01*
X212624176Y-69438274D01*
X212624170Y-69438279D01*
X212461652Y-69571652D01*
X212328279Y-69734170D01*
X212328274Y-69734176D01*
X212229173Y-69919581D01*
X212168142Y-70120774D01*
X212147536Y-70329999D01*
X211752464Y-70329999D01*
X211731857Y-70120773D01*
X211670828Y-69919586D01*
X211670826Y-69919583D01*
X211670826Y-69919581D01*
X211571725Y-69734176D01*
X211571720Y-69734170D01*
X211508084Y-69656628D01*
X211438347Y-69571653D01*
X211405038Y-69544317D01*
X211384124Y-69527153D01*
X211344790Y-69469408D01*
X211342919Y-69399563D01*
X211379106Y-69339795D01*
X211441862Y-69309079D01*
X211462789Y-69307300D01*
X212014338Y-69307300D01*
X212019739Y-69307535D01*
X212046020Y-69309835D01*
X212060489Y-69311101D01*
X212060489Y-69311100D01*
X212060490Y-69311101D01*
X212100009Y-69300511D01*
X212105278Y-69299344D01*
X212145550Y-69292243D01*
X212145549Y-69292243D01*
X212145556Y-69292242D01*
X212145561Y-69292238D01*
X212150215Y-69290545D01*
X212167965Y-69283193D01*
X212172450Y-69281101D01*
X212172458Y-69281099D01*
X212205981Y-69257624D01*
X212210503Y-69254743D01*
X212245944Y-69234283D01*
X212272252Y-69202929D01*
X212275870Y-69198980D01*
X212669285Y-68805565D01*
X212730606Y-68772082D01*
X212800298Y-68777066D01*
X212804414Y-68778686D01*
X212809579Y-68780825D01*
X212809582Y-68780825D01*
X212809586Y-68780828D01*
X213010773Y-68841857D01*
X213220000Y-68862464D01*
X213429227Y-68841857D01*
X213630414Y-68780828D01*
X213630420Y-68780825D01*
X213815823Y-68681725D01*
X213815825Y-68681722D01*
X213815829Y-68681721D01*
X213978347Y-68548347D01*
X214111721Y-68385829D01*
X214111722Y-68385825D01*
X214111725Y-68385823D01*
X214210826Y-68200418D01*
X214210827Y-68200415D01*
X214210828Y-68200414D01*
X214271857Y-67999227D01*
X214292464Y-67790000D01*
X214271857Y-67580773D01*
X214210828Y-67379586D01*
X214210826Y-67379583D01*
X214210826Y-67379581D01*
X214111725Y-67194176D01*
X214111720Y-67194170D01*
X213978347Y-67031652D01*
X213815829Y-66898279D01*
X213815823Y-66898274D01*
X213630418Y-66799173D01*
X213429225Y-66738142D01*
X213220000Y-66717536D01*
X213010774Y-66738142D01*
X212809581Y-66799173D01*
X212624176Y-66898274D01*
X212624170Y-66898279D01*
X212461652Y-67031652D01*
X212328279Y-67194170D01*
X212328274Y-67194176D01*
X212229173Y-67379581D01*
X212168142Y-67580774D01*
X212147536Y-67790000D01*
X212168142Y-67999225D01*
X212229172Y-68200415D01*
X212231314Y-68205585D01*
X212238780Y-68275055D01*
X212207503Y-68337533D01*
X212204432Y-68340715D01*
X211931567Y-68613581D01*
X211870244Y-68647066D01*
X211843886Y-68649900D01*
X211617180Y-68649900D01*
X211550141Y-68630215D01*
X211504386Y-68577411D01*
X211494442Y-68508253D01*
X211521327Y-68447235D01*
X211528488Y-68438508D01*
X211571721Y-68385829D01*
X211571722Y-68385825D01*
X211571725Y-68385823D01*
X211670826Y-68200418D01*
X211670827Y-68200415D01*
X211670828Y-68200414D01*
X211731857Y-67999227D01*
X211752464Y-67790000D01*
X211731857Y-67580773D01*
X211670828Y-67379586D01*
X211670825Y-67379582D01*
X211670825Y-67379579D01*
X211668686Y-67374414D01*
X211661219Y-67304945D01*
X211692495Y-67242466D01*
X211695539Y-67239311D01*
X212250370Y-66684480D01*
X212254332Y-66680849D01*
X212285683Y-66654544D01*
X212306143Y-66619103D01*
X212309029Y-66614574D01*
X212332499Y-66581058D01*
X212332500Y-66581053D01*
X212334598Y-66576554D01*
X212341945Y-66558816D01*
X212343640Y-66554160D01*
X212343640Y-66554159D01*
X212343642Y-66554156D01*
X212350748Y-66513850D01*
X212351914Y-66508595D01*
X212362500Y-66469091D01*
X212362500Y-66469090D01*
X212358935Y-66428347D01*
X212358700Y-66422946D01*
X212358700Y-66186031D01*
X212378385Y-66118992D01*
X212431189Y-66073237D01*
X212500347Y-66063293D01*
X212561365Y-66090178D01*
X212596475Y-66118992D01*
X212624169Y-66141719D01*
X212624176Y-66141725D01*
X212809581Y-66240826D01*
X212809583Y-66240826D01*
X212809586Y-66240828D01*
X213010773Y-66301857D01*
X213220000Y-66322464D01*
X213429227Y-66301857D01*
X213630414Y-66240828D01*
X213667562Y-66220972D01*
X213815823Y-66141725D01*
X213815825Y-66141722D01*
X213815829Y-66141721D01*
X213978347Y-66008347D01*
X214111721Y-65845829D01*
X214111722Y-65845825D01*
X214111725Y-65845823D01*
X214210826Y-65660418D01*
X214210826Y-65660417D01*
X214210828Y-65660414D01*
X214271857Y-65459227D01*
X214292464Y-65250000D01*
X214271857Y-65040773D01*
X214210828Y-64839586D01*
X214210826Y-64839583D01*
X214210826Y-64839581D01*
X214111725Y-64654176D01*
X214111720Y-64654170D01*
X213978347Y-64491652D01*
X213815829Y-64358279D01*
X213815823Y-64358274D01*
X213630418Y-64259173D01*
X213429225Y-64198142D01*
X213220000Y-64177536D01*
X213010774Y-64198142D01*
X212809581Y-64259173D01*
X212624176Y-64358274D01*
X212624169Y-64358279D01*
X212561364Y-64409822D01*
X212497054Y-64437134D01*
X212428186Y-64425342D01*
X212376627Y-64378190D01*
X212358700Y-64313968D01*
X212358700Y-61088981D01*
X212358700Y-57696077D01*
X212378384Y-57629042D01*
X212388981Y-57614885D01*
X212458097Y-57535121D01*
X212518267Y-57403368D01*
X212538880Y-57260000D01*
X212518267Y-57116632D01*
X212485411Y-57044688D01*
X212458099Y-56984882D01*
X212458094Y-56984874D01*
X212363248Y-56875415D01*
X212241391Y-56797103D01*
X212102423Y-56756300D01*
X212102421Y-56756300D01*
X211957579Y-56756300D01*
X211957576Y-56756300D01*
X211818608Y-56797103D01*
X211696751Y-56875415D01*
X211601905Y-56984874D01*
X211601900Y-56984882D01*
X211541734Y-57116628D01*
X211541732Y-57116636D01*
X211521120Y-57259999D01*
X211541732Y-57403363D01*
X211541734Y-57403371D01*
X211601900Y-57535117D01*
X211601902Y-57535119D01*
X211601903Y-57535121D01*
X211671013Y-57614880D01*
X211700038Y-57678434D01*
X211701300Y-57696081D01*
X211701300Y-63762400D01*
X211681615Y-63829439D01*
X211628811Y-63875194D01*
X211577300Y-63886400D01*
X210930000Y-63886400D01*
X210930000Y-64629616D01*
X210910315Y-64696655D01*
X210857511Y-64742410D01*
X210788355Y-64752354D01*
X210716337Y-64742000D01*
X210716334Y-64742000D01*
X210643666Y-64742000D01*
X210643662Y-64742000D01*
X210571645Y-64752354D01*
X210502487Y-64742410D01*
X210449684Y-64696654D01*
X210430000Y-64629616D01*
X210430000Y-63886400D01*
X209768555Y-63886400D01*
X209709027Y-63892801D01*
X209709020Y-63892803D01*
X209574313Y-63943045D01*
X209574306Y-63943049D01*
X209459212Y-64029209D01*
X209459209Y-64029212D01*
X209373049Y-64144306D01*
X209373045Y-64144313D01*
X209322803Y-64279020D01*
X209322801Y-64279027D01*
X209316400Y-64338555D01*
X209316400Y-65000000D01*
X210058316Y-65000000D01*
X210125355Y-65019685D01*
X210171110Y-65072489D01*
X210181054Y-65141647D01*
X210177293Y-65158936D01*
X210172000Y-65176961D01*
X210172000Y-65323038D01*
X210177293Y-65341064D01*
X210177294Y-65410933D01*
X210139520Y-65469712D01*
X210075964Y-65498738D01*
X210058316Y-65500000D01*
X209316400Y-65500000D01*
X209316400Y-66161444D01*
X209322801Y-66220972D01*
X209322803Y-66220979D01*
X209373045Y-66355686D01*
X209373049Y-66355693D01*
X209459209Y-66470787D01*
X209459212Y-66470790D01*
X209574306Y-66556950D01*
X209574313Y-66556954D01*
X209709020Y-66607196D01*
X209709027Y-66607198D01*
X209768555Y-66613599D01*
X209768572Y-66613600D01*
X210121731Y-66613600D01*
X210188770Y-66633285D01*
X210234525Y-66686089D01*
X210244469Y-66755247D01*
X210215444Y-66818803D01*
X210180184Y-66846958D01*
X210084176Y-66898275D01*
X210084170Y-66898279D01*
X209921652Y-67031652D01*
X209788279Y-67194170D01*
X209788274Y-67194176D01*
X209689173Y-67379581D01*
X209628142Y-67580774D01*
X209607536Y-67790000D01*
X209628142Y-67999225D01*
X209689173Y-68200416D01*
X209691312Y-68205580D01*
X209698781Y-68275050D01*
X209667506Y-68337529D01*
X209664432Y-68340714D01*
X208821042Y-69184105D01*
X208817054Y-69187759D01*
X208785716Y-69214056D01*
X208785715Y-69214057D01*
X208765264Y-69249479D01*
X208762358Y-69254040D01*
X208738899Y-69287544D01*
X208736835Y-69291970D01*
X208729436Y-69309835D01*
X208727756Y-69314449D01*
X208720653Y-69354729D01*
X208719482Y-69360009D01*
X208708898Y-69399508D01*
X208708898Y-69399511D01*
X208712463Y-69440256D01*
X208712699Y-69445662D01*
X208712699Y-118092336D01*
X208712463Y-118097742D01*
X208708898Y-118138488D01*
X208708898Y-118138490D01*
X170085911Y-118138490D01*
X170085911Y-116110000D01*
X171966306Y-116110000D01*
X171986195Y-116261070D01*
X171986196Y-116261074D01*
X172044504Y-116401844D01*
X172044505Y-116401846D01*
X172044506Y-116401847D01*
X172137266Y-116522734D01*
X172258153Y-116615494D01*
X172398929Y-116673805D01*
X172550000Y-116693694D01*
X172701071Y-116673805D01*
X172841847Y-116615494D01*
X172962734Y-116522734D01*
X173055494Y-116401847D01*
X173113805Y-116261071D01*
X173133694Y-116110000D01*
X173113805Y-115958929D01*
X173055494Y-115818153D01*
X172962734Y-115697266D01*
X172841847Y-115604506D01*
X172841846Y-115604505D01*
X172841844Y-115604504D01*
X172701074Y-115546196D01*
X172701072Y-115546195D01*
X172701071Y-115546195D01*
X172550000Y-115526306D01*
X172398929Y-115546195D01*
X172398925Y-115546196D01*
X172258155Y-115604504D01*
X172137266Y-115697266D01*
X172044504Y-115818155D01*
X171986196Y-115958925D01*
X171986195Y-115958929D01*
X171966306Y-116110000D01*
X170085911Y-116110000D01*
X170085911Y-104500302D01*
X170105596Y-104433263D01*
X170122226Y-104412625D01*
X170830381Y-103704469D01*
X170834332Y-103700849D01*
X170865683Y-103674544D01*
X170886143Y-103639103D01*
X170889024Y-103634581D01*
X170912499Y-103601058D01*
X170912501Y-103601050D01*
X170914593Y-103596565D01*
X170921945Y-103578815D01*
X170923638Y-103574161D01*
X170923642Y-103574156D01*
X170930744Y-103533878D01*
X170931911Y-103528609D01*
X170942501Y-103489090D01*
X170938935Y-103448339D01*
X170938700Y-103442938D01*
X170938700Y-99240000D01*
X184756306Y-99240000D01*
X184776195Y-99391070D01*
X184776196Y-99391074D01*
X184834504Y-99531844D01*
X184834505Y-99531846D01*
X184834506Y-99531847D01*
X184927266Y-99652734D01*
X185048153Y-99745494D01*
X185188929Y-99803805D01*
X185340000Y-99823694D01*
X185491071Y-99803805D01*
X185631847Y-99745494D01*
X185752734Y-99652734D01*
X185845494Y-99531847D01*
X185903805Y-99391071D01*
X185923694Y-99240000D01*
X185903805Y-99088929D01*
X185845494Y-98948153D01*
X185752734Y-98827266D01*
X185631847Y-98734506D01*
X185631846Y-98734505D01*
X185631844Y-98734504D01*
X185491074Y-98676196D01*
X185491072Y-98676195D01*
X185491071Y-98676195D01*
X185340000Y-98656306D01*
X185188929Y-98676195D01*
X185188925Y-98676196D01*
X185048155Y-98734504D01*
X184927266Y-98827266D01*
X184834504Y-98948155D01*
X184776196Y-99088925D01*
X184776195Y-99088929D01*
X184756306Y-99240000D01*
X170938700Y-99240000D01*
X170938700Y-93097012D01*
X170938936Y-93091605D01*
X170942501Y-93050861D01*
X170931908Y-93011328D01*
X170930748Y-93006100D01*
X170923642Y-92965794D01*
X170923640Y-92965791D01*
X170923640Y-92965789D01*
X170921955Y-92961160D01*
X170914587Y-92943371D01*
X170912500Y-92938894D01*
X170889038Y-92905386D01*
X170886131Y-92900822D01*
X170865685Y-92865409D01*
X170865684Y-92865408D01*
X170865683Y-92865406D01*
X170834343Y-92839108D01*
X170830359Y-92835457D01*
X170744901Y-92749999D01*
X187261120Y-92749999D01*
X187281732Y-92893363D01*
X187281734Y-92893371D01*
X187341900Y-93025117D01*
X187341905Y-93025125D01*
X187436751Y-93134584D01*
X187436753Y-93134585D01*
X187436754Y-93134586D01*
X187558604Y-93212894D01*
X187558605Y-93212894D01*
X187558608Y-93212896D01*
X187697576Y-93253699D01*
X187697578Y-93253700D01*
X187697579Y-93253700D01*
X187842422Y-93253700D01*
X187842422Y-93253699D01*
X187903143Y-93235870D01*
X187981391Y-93212896D01*
X187981392Y-93212895D01*
X187981396Y-93212894D01*
X188103246Y-93134586D01*
X188135804Y-93097012D01*
X188198094Y-93025125D01*
X188198095Y-93025123D01*
X188198097Y-93025121D01*
X188205579Y-93008739D01*
X188227307Y-92961160D01*
X188258267Y-92893368D01*
X188278880Y-92750000D01*
X188258267Y-92606632D01*
X188234091Y-92553694D01*
X188198099Y-92474882D01*
X188198094Y-92474874D01*
X188103248Y-92365415D01*
X187981391Y-92287103D01*
X187842423Y-92246300D01*
X187842421Y-92246300D01*
X187697579Y-92246300D01*
X187697576Y-92246300D01*
X187558608Y-92287103D01*
X187436751Y-92365415D01*
X187341905Y-92474874D01*
X187341900Y-92474882D01*
X187281734Y-92606628D01*
X187281732Y-92606636D01*
X187261120Y-92749999D01*
X170744901Y-92749999D01*
X169964902Y-91970000D01*
X178386306Y-91970000D01*
X178406195Y-92121070D01*
X178406196Y-92121074D01*
X178464504Y-92261844D01*
X178464505Y-92261846D01*
X178464506Y-92261847D01*
X178557266Y-92382734D01*
X178678153Y-92475494D01*
X178818929Y-92533805D01*
X178970000Y-92553694D01*
X179121071Y-92533805D01*
X179261847Y-92475494D01*
X179382734Y-92382734D01*
X179475494Y-92261847D01*
X179533805Y-92121071D01*
X179553694Y-91970000D01*
X179533805Y-91818929D01*
X179475494Y-91678153D01*
X179382734Y-91557266D01*
X179261847Y-91464506D01*
X179261846Y-91464505D01*
X179261844Y-91464504D01*
X179121074Y-91406196D01*
X179121072Y-91406195D01*
X179121071Y-91406195D01*
X178970000Y-91386306D01*
X178818929Y-91406195D01*
X178818925Y-91406196D01*
X178678155Y-91464504D01*
X178557266Y-91557266D01*
X178464504Y-91678155D01*
X178406196Y-91818925D01*
X178406195Y-91818929D01*
X178386306Y-91970000D01*
X169964902Y-91970000D01*
X167164926Y-89170024D01*
X163464529Y-85469627D01*
X163460884Y-85465648D01*
X163434595Y-85434317D01*
X163399172Y-85413865D01*
X163394610Y-85410959D01*
X163379938Y-85400686D01*
X163361108Y-85387501D01*
X163356680Y-85385436D01*
X163338796Y-85378028D01*
X163334208Y-85376358D01*
X163293921Y-85369253D01*
X163288641Y-85368082D01*
X163249140Y-85357498D01*
X163215819Y-85360414D01*
X163208389Y-85361064D01*
X163202988Y-85361300D01*
X157800131Y-85361300D01*
X157733092Y-85341615D01*
X157705141Y-85317005D01*
X157694495Y-85304317D01*
X157659072Y-85283865D01*
X157654510Y-85280959D01*
X157642093Y-85272265D01*
X157621008Y-85257501D01*
X157616580Y-85255436D01*
X157598696Y-85248028D01*
X157594108Y-85246358D01*
X157553821Y-85239253D01*
X157548541Y-85238082D01*
X157509040Y-85227498D01*
X157475719Y-85230414D01*
X157468289Y-85231064D01*
X157462888Y-85231300D01*
X154387101Y-85231300D01*
X154381699Y-85231064D01*
X154374335Y-85230420D01*
X154340960Y-85227499D01*
X154320640Y-85232944D01*
X154312084Y-85235236D01*
X154279995Y-85239461D01*
X146628976Y-85239461D01*
X146561937Y-85219776D01*
X146516182Y-85166972D01*
X146506238Y-85097814D01*
X146530601Y-85039974D01*
X146559856Y-85001848D01*
X146559858Y-85001845D01*
X146615231Y-84868161D01*
X146618168Y-84861071D01*
X146638057Y-84710000D01*
X146618168Y-84558929D01*
X146574643Y-84453850D01*
X146559858Y-84418155D01*
X146559857Y-84418154D01*
X146559857Y-84418153D01*
X146467097Y-84297266D01*
X146467094Y-84297264D01*
X146462149Y-84290819D01*
X146463511Y-84289773D01*
X146434727Y-84237058D01*
X146439711Y-84167366D01*
X146481583Y-84111433D01*
X146547047Y-84087016D01*
X146555893Y-84086700D01*
X147338888Y-84086700D01*
X147344289Y-84086935D01*
X147373551Y-84089495D01*
X147385039Y-84090501D01*
X147385039Y-84090500D01*
X147385040Y-84090501D01*
X147424559Y-84079911D01*
X147429828Y-84078744D01*
X147470100Y-84071643D01*
X147470099Y-84071643D01*
X147470106Y-84071642D01*
X147470111Y-84071638D01*
X147474765Y-84069945D01*
X147492515Y-84062593D01*
X147497000Y-84060501D01*
X147497008Y-84060499D01*
X147530531Y-84037024D01*
X147535053Y-84034143D01*
X147570494Y-84013683D01*
X147596802Y-83982329D01*
X147600420Y-83978380D01*
X148560370Y-83018430D01*
X148564332Y-83014799D01*
X148595683Y-82988494D01*
X148616143Y-82953053D01*
X148619024Y-82948531D01*
X148642499Y-82915008D01*
X148642501Y-82915000D01*
X148644593Y-82910515D01*
X148651945Y-82892765D01*
X148653638Y-82888111D01*
X148653642Y-82888106D01*
X148660744Y-82847828D01*
X148661911Y-82842559D01*
X148672501Y-82803040D01*
X148668935Y-82762289D01*
X148668700Y-82756888D01*
X148668700Y-79208365D01*
X148688385Y-79141326D01*
X148717214Y-79109989D01*
X148752734Y-79082734D01*
X148845494Y-78961847D01*
X148903805Y-78821071D01*
X148923694Y-78670000D01*
X148903805Y-78518929D01*
X148845494Y-78378153D01*
X148752734Y-78257266D01*
X148631847Y-78164506D01*
X148631846Y-78164505D01*
X148631844Y-78164504D01*
X148491074Y-78106196D01*
X148491072Y-78106195D01*
X148491071Y-78106195D01*
X148340000Y-78086306D01*
X148188929Y-78106195D01*
X148188925Y-78106196D01*
X148074152Y-78153736D01*
X148004682Y-78161205D01*
X147942203Y-78129929D01*
X147906552Y-78069840D01*
X147902700Y-78039175D01*
X147902700Y-76471050D01*
X147902936Y-76465643D01*
X147906500Y-76424908D01*
X147895914Y-76385404D01*
X147894748Y-76380148D01*
X147887642Y-76339844D01*
X147887640Y-76339840D01*
X147885955Y-76335211D01*
X147878576Y-76317397D01*
X147876499Y-76312942D01*
X147853042Y-76279443D01*
X147850135Y-76274879D01*
X147835150Y-76248925D01*
X147829683Y-76239456D01*
X147829680Y-76239453D01*
X147829679Y-76239452D01*
X147812558Y-76225086D01*
X147798342Y-76213157D01*
X147794370Y-76209518D01*
X146767427Y-75182575D01*
X146425019Y-74840166D01*
X146391534Y-74778843D01*
X146388700Y-74752485D01*
X146388700Y-69800000D01*
X147801120Y-69800000D01*
X147821732Y-69943363D01*
X147821734Y-69943371D01*
X147881900Y-70075117D01*
X147881905Y-70075125D01*
X147976751Y-70184584D01*
X147976753Y-70184585D01*
X147976754Y-70184586D01*
X148098604Y-70262894D01*
X148098605Y-70262894D01*
X148098608Y-70262896D01*
X148237576Y-70303699D01*
X148237578Y-70303700D01*
X148237579Y-70303700D01*
X148382422Y-70303700D01*
X148382422Y-70303699D01*
X148443143Y-70285870D01*
X148521391Y-70262896D01*
X148521392Y-70262895D01*
X148521396Y-70262894D01*
X148643246Y-70184586D01*
X148654584Y-70171500D01*
X148713362Y-70133724D01*
X148748300Y-70128700D01*
X149562436Y-70128700D01*
X149629475Y-70148385D01*
X149650117Y-70165019D01*
X169380458Y-89895360D01*
X169384111Y-89899345D01*
X169410406Y-89930683D01*
X169410408Y-89930684D01*
X169410409Y-89930685D01*
X169445822Y-89951131D01*
X169450385Y-89954037D01*
X169483892Y-89977499D01*
X169483894Y-89977500D01*
X169488371Y-89979587D01*
X169506160Y-89986955D01*
X169510789Y-89988640D01*
X169510791Y-89988640D01*
X169510794Y-89988642D01*
X169551100Y-89995748D01*
X169556324Y-89996906D01*
X169595861Y-90007501D01*
X169636615Y-90003935D01*
X169642015Y-90003700D01*
X174068768Y-90003700D01*
X174135807Y-90023385D01*
X174181562Y-90076189D01*
X174191506Y-90145347D01*
X174190398Y-90150441D01*
X174168895Y-90299999D01*
X174189507Y-90443363D01*
X174189509Y-90443371D01*
X174249675Y-90575117D01*
X174249680Y-90575125D01*
X174344526Y-90684584D01*
X174344528Y-90684585D01*
X174344529Y-90684586D01*
X174466379Y-90762894D01*
X174466380Y-90762894D01*
X174466383Y-90762896D01*
X174605351Y-90803699D01*
X174605353Y-90803700D01*
X174605354Y-90803700D01*
X174750197Y-90803700D01*
X174750197Y-90803699D01*
X174810918Y-90785870D01*
X174889166Y-90762896D01*
X174889167Y-90762895D01*
X174889171Y-90762894D01*
X175011021Y-90684586D01*
X175011023Y-90684584D01*
X175105869Y-90575125D01*
X175105870Y-90575123D01*
X175105872Y-90575121D01*
X175111214Y-90563425D01*
X175142886Y-90494072D01*
X175166042Y-90443368D01*
X175186655Y-90300000D01*
X175166042Y-90156632D01*
X175164780Y-90147854D01*
X175167803Y-90147419D01*
X175167806Y-90092760D01*
X175205583Y-90033983D01*
X175269140Y-90004961D01*
X175286782Y-90003700D01*
X182229799Y-90003700D01*
X182296838Y-90023385D01*
X182342593Y-90076189D01*
X182344354Y-90080236D01*
X182356636Y-90109886D01*
X182394882Y-90202222D01*
X182394883Y-90202224D01*
X182394884Y-90202225D01*
X182487644Y-90323112D01*
X182608531Y-90415872D01*
X182608532Y-90415872D01*
X182608533Y-90415873D01*
X182633721Y-90426306D01*
X182749307Y-90474183D01*
X182900378Y-90494072D01*
X183051449Y-90474183D01*
X183192225Y-90415872D01*
X183313112Y-90323112D01*
X183405872Y-90202225D01*
X183464183Y-90061449D01*
X183484072Y-89910378D01*
X183464183Y-89759307D01*
X183405872Y-89618531D01*
X183313112Y-89497644D01*
X183192225Y-89404884D01*
X183192224Y-89404883D01*
X183192222Y-89404882D01*
X183051452Y-89346574D01*
X183051450Y-89346573D01*
X183051449Y-89346573D01*
X182900378Y-89326684D01*
X182900377Y-89326684D01*
X182746932Y-89346885D01*
X182698657Y-89343722D01*
X182694090Y-89342498D01*
X182660769Y-89345414D01*
X182653339Y-89346064D01*
X182647938Y-89346300D01*
X169812464Y-89346300D01*
X169745425Y-89326615D01*
X169724783Y-89309981D01*
X167865180Y-87450378D01*
X185955928Y-87450378D01*
X185974954Y-87594890D01*
X185975817Y-87601448D01*
X185975818Y-87601452D01*
X186034126Y-87742222D01*
X186034127Y-87742224D01*
X186034128Y-87742225D01*
X186126888Y-87863112D01*
X186247775Y-87955872D01*
X186388551Y-88014183D01*
X186539622Y-88034072D01*
X186690693Y-88014183D01*
X186831469Y-87955872D01*
X186952356Y-87863112D01*
X187045116Y-87742225D01*
X187103427Y-87601449D01*
X187123316Y-87450378D01*
X187103427Y-87299307D01*
X187045116Y-87158531D01*
X186969510Y-87060000D01*
X203211120Y-87060000D01*
X203231732Y-87203363D01*
X203231734Y-87203371D01*
X203291900Y-87335117D01*
X203291905Y-87335125D01*
X203386751Y-87444584D01*
X203386753Y-87444585D01*
X203386754Y-87444586D01*
X203508604Y-87522894D01*
X203508605Y-87522894D01*
X203508608Y-87522896D01*
X203647576Y-87563699D01*
X203647578Y-87563700D01*
X203647579Y-87563700D01*
X203792422Y-87563700D01*
X203792422Y-87563699D01*
X203853143Y-87545870D01*
X203931391Y-87522896D01*
X203931392Y-87522895D01*
X203931396Y-87522894D01*
X203935899Y-87520000D01*
X204431120Y-87520000D01*
X204451732Y-87663363D01*
X204451734Y-87663371D01*
X204511900Y-87795117D01*
X204511905Y-87795125D01*
X204606751Y-87904584D01*
X204606753Y-87904585D01*
X204606754Y-87904586D01*
X204728604Y-87982894D01*
X204728605Y-87982894D01*
X204728608Y-87982896D01*
X204867576Y-88023699D01*
X204867578Y-88023700D01*
X204867579Y-88023700D01*
X205012422Y-88023700D01*
X205012422Y-88023699D01*
X205073143Y-88005870D01*
X205151391Y-87982896D01*
X205151392Y-87982895D01*
X205151396Y-87982894D01*
X205273246Y-87904586D01*
X205328038Y-87841352D01*
X205368094Y-87795125D01*
X205368095Y-87795123D01*
X205368097Y-87795121D01*
X205428267Y-87663368D01*
X205448880Y-87520000D01*
X205428267Y-87376632D01*
X205409311Y-87335125D01*
X205368099Y-87244882D01*
X205368094Y-87244874D01*
X205273248Y-87135415D01*
X205155899Y-87060000D01*
X205151396Y-87057106D01*
X205151395Y-87057105D01*
X205151391Y-87057103D01*
X205012423Y-87016300D01*
X205012421Y-87016300D01*
X204867579Y-87016300D01*
X204867576Y-87016300D01*
X204728608Y-87057103D01*
X204606751Y-87135415D01*
X204511905Y-87244874D01*
X204511900Y-87244882D01*
X204451734Y-87376628D01*
X204451732Y-87376636D01*
X204431120Y-87520000D01*
X203935899Y-87520000D01*
X204053246Y-87444586D01*
X204058418Y-87438617D01*
X204148094Y-87335125D01*
X204148095Y-87335123D01*
X204148097Y-87335121D01*
X204208267Y-87203368D01*
X204228880Y-87060000D01*
X204208267Y-86916632D01*
X204185456Y-86866684D01*
X204148099Y-86784882D01*
X204148094Y-86784874D01*
X204053248Y-86675415D01*
X203931391Y-86597103D01*
X203792423Y-86556300D01*
X203792421Y-86556300D01*
X203647579Y-86556300D01*
X203647576Y-86556300D01*
X203508608Y-86597103D01*
X203386751Y-86675415D01*
X203291905Y-86784874D01*
X203291900Y-86784882D01*
X203231734Y-86916628D01*
X203231732Y-86916636D01*
X203211120Y-87060000D01*
X186969510Y-87060000D01*
X186952356Y-87037644D01*
X186831469Y-86944884D01*
X186831468Y-86944883D01*
X186831466Y-86944882D01*
X186690696Y-86886574D01*
X186690694Y-86886573D01*
X186690693Y-86886573D01*
X186539622Y-86866684D01*
X186388551Y-86886573D01*
X186388547Y-86886574D01*
X186247777Y-86944882D01*
X186126888Y-87037644D01*
X186034126Y-87158533D01*
X185975818Y-87299303D01*
X185975817Y-87299307D01*
X185956691Y-87444586D01*
X185955928Y-87450378D01*
X167865180Y-87450378D01*
X160126486Y-79711684D01*
X154424802Y-74010000D01*
X156435806Y-74010000D01*
X156455695Y-74161070D01*
X156455696Y-74161074D01*
X156514004Y-74301844D01*
X156514005Y-74301846D01*
X156514006Y-74301847D01*
X156606766Y-74422734D01*
X156727653Y-74515494D01*
X156868429Y-74573805D01*
X157019500Y-74593694D01*
X157170571Y-74573805D01*
X157311347Y-74515494D01*
X157432234Y-74422734D01*
X157524994Y-74301847D01*
X157583305Y-74161071D01*
X157603194Y-74010000D01*
X157583305Y-73858929D01*
X157524994Y-73718153D01*
X157432234Y-73597266D01*
X157311347Y-73504506D01*
X157311346Y-73504505D01*
X157311344Y-73504504D01*
X157170574Y-73446196D01*
X157170572Y-73446195D01*
X157170571Y-73446195D01*
X157019500Y-73426306D01*
X156868429Y-73446195D01*
X156868425Y-73446196D01*
X156727655Y-73504504D01*
X156606766Y-73597266D01*
X156514004Y-73718155D01*
X156455696Y-73858925D01*
X156455695Y-73858929D01*
X156435806Y-74010000D01*
X154424802Y-74010000D01*
X153725301Y-73310499D01*
X155036806Y-73310499D01*
X155056695Y-73461570D01*
X155056696Y-73461574D01*
X155115004Y-73602344D01*
X155115005Y-73602346D01*
X155115006Y-73602347D01*
X155207766Y-73723234D01*
X155328653Y-73815994D01*
X155469429Y-73874305D01*
X155620500Y-73894194D01*
X155771571Y-73874305D01*
X155912347Y-73815994D01*
X156033234Y-73723234D01*
X156125994Y-73602347D01*
X156184305Y-73461571D01*
X156204194Y-73310500D01*
X156184305Y-73159429D01*
X156125994Y-73018653D01*
X156033234Y-72897766D01*
X155912347Y-72805006D01*
X155912346Y-72805005D01*
X155912344Y-72805004D01*
X155771574Y-72746696D01*
X155771572Y-72746695D01*
X155771571Y-72746695D01*
X155620500Y-72726806D01*
X155469429Y-72746695D01*
X155469425Y-72746696D01*
X155328655Y-72805004D01*
X155207766Y-72897766D01*
X155115004Y-73018655D01*
X155056696Y-73159425D01*
X155056695Y-73159429D01*
X155036806Y-73310499D01*
X153725301Y-73310499D01*
X149994429Y-69579627D01*
X149990784Y-69575648D01*
X149964495Y-69544317D01*
X149929072Y-69523865D01*
X149924510Y-69520959D01*
X149891008Y-69497501D01*
X149886580Y-69495436D01*
X149868696Y-69488028D01*
X149864108Y-69486358D01*
X149823821Y-69479253D01*
X149818541Y-69478082D01*
X149779040Y-69467498D01*
X149745719Y-69470414D01*
X149738289Y-69471064D01*
X149732888Y-69471300D01*
X148748300Y-69471300D01*
X148681261Y-69451615D01*
X148654585Y-69428500D01*
X148643247Y-69415415D01*
X148643246Y-69415414D01*
X148521396Y-69337106D01*
X148521395Y-69337105D01*
X148521391Y-69337103D01*
X148382423Y-69296300D01*
X148382421Y-69296300D01*
X148237579Y-69296300D01*
X148237576Y-69296300D01*
X148098608Y-69337103D01*
X147976751Y-69415415D01*
X147881905Y-69524874D01*
X147881900Y-69524882D01*
X147821734Y-69656628D01*
X147821732Y-69656636D01*
X147801120Y-69800000D01*
X146388700Y-69800000D01*
X146388700Y-68705000D01*
X202239999Y-68705000D01*
X202261055Y-68862913D01*
X202261600Y-68871116D01*
X202261600Y-70125811D01*
X202274142Y-70148780D01*
X202276976Y-70174862D01*
X202277634Y-70470284D01*
X205487634Y-70520284D01*
X205037634Y-66770284D01*
X204827634Y-66490284D01*
X204775634Y-66490284D01*
X204708595Y-66470599D01*
X204701234Y-66465484D01*
X204667636Y-66440285D01*
X204667630Y-66440282D01*
X202477634Y-65850283D01*
X202267634Y-65980283D01*
X202267633Y-65980283D01*
X202271486Y-67710075D01*
X202261600Y-67744021D01*
X202261600Y-68591065D01*
X202258847Y-68617047D01*
X202239999Y-68705000D01*
X146388700Y-68705000D01*
X146388700Y-67310000D01*
X148768306Y-67310000D01*
X148786879Y-67451071D01*
X148788195Y-67461070D01*
X148788196Y-67461074D01*
X148846504Y-67601844D01*
X148846505Y-67601846D01*
X148846506Y-67601847D01*
X148939266Y-67722734D01*
X149060153Y-67815494D01*
X149200929Y-67873805D01*
X149352000Y-67893694D01*
X149503071Y-67873805D01*
X149643847Y-67815494D01*
X149764734Y-67722734D01*
X149857494Y-67601847D01*
X149915805Y-67461071D01*
X149935694Y-67310000D01*
X149915805Y-67158929D01*
X149876930Y-67065078D01*
X149857495Y-67018155D01*
X149857494Y-67018154D01*
X149857494Y-67018153D01*
X149764734Y-66897266D01*
X149643847Y-66804506D01*
X149643846Y-66804505D01*
X149643844Y-66804504D01*
X149503074Y-66746196D01*
X149503072Y-66746195D01*
X149503071Y-66746195D01*
X149352000Y-66726306D01*
X149200929Y-66746195D01*
X149200925Y-66746196D01*
X149060155Y-66804504D01*
X148939266Y-66897266D01*
X148846504Y-67018155D01*
X148788196Y-67158925D01*
X148788195Y-67158929D01*
X148768972Y-67304945D01*
X148768306Y-67310000D01*
X146388700Y-67310000D01*
X146388700Y-66530534D01*
X152075772Y-66530534D01*
X152095559Y-66680834D01*
X152095661Y-66681604D01*
X152095662Y-66681608D01*
X152153970Y-66822378D01*
X152153971Y-66822380D01*
X152153972Y-66822381D01*
X152246732Y-66943268D01*
X152367619Y-67036028D01*
X152508395Y-67094339D01*
X152659466Y-67114228D01*
X152810537Y-67094339D01*
X152951313Y-67036028D01*
X153072200Y-66943268D01*
X153164960Y-66822381D01*
X153223271Y-66681605D01*
X153243160Y-66530534D01*
X153223271Y-66379463D01*
X153164960Y-66238687D01*
X153072200Y-66117800D01*
X152951313Y-66025040D01*
X152951312Y-66025039D01*
X152951310Y-66025038D01*
X152810540Y-65966730D01*
X152810538Y-65966729D01*
X152810537Y-65966729D01*
X152659466Y-65946840D01*
X152508395Y-65966729D01*
X152508391Y-65966730D01*
X152367621Y-66025038D01*
X152246732Y-66117800D01*
X152153970Y-66238689D01*
X152095662Y-66379459D01*
X152095661Y-66379463D01*
X152075772Y-66530534D01*
X146388700Y-66530534D01*
X146388700Y-66243564D01*
X146408385Y-66176525D01*
X146425019Y-66155883D01*
X149658903Y-62921999D01*
X153918306Y-62921999D01*
X153938195Y-63073070D01*
X153938196Y-63073074D01*
X153996504Y-63213844D01*
X153996505Y-63213846D01*
X153996506Y-63213847D01*
X154089266Y-63334734D01*
X154210153Y-63427494D01*
X154350929Y-63485805D01*
X154502000Y-63505694D01*
X154653071Y-63485805D01*
X154659964Y-63482949D01*
X154729431Y-63475478D01*
X154791911Y-63506751D01*
X154827566Y-63566838D01*
X154825075Y-63636663D01*
X154821981Y-63644959D01*
X154816196Y-63658925D01*
X154816195Y-63658929D01*
X154796306Y-63810000D01*
X154816195Y-63961070D01*
X154816196Y-63961074D01*
X154874504Y-64101844D01*
X154874505Y-64101846D01*
X154874506Y-64101847D01*
X154967266Y-64222734D01*
X155088153Y-64315494D01*
X155228929Y-64373805D01*
X155380000Y-64393694D01*
X155531071Y-64373805D01*
X155671847Y-64315494D01*
X155792734Y-64222734D01*
X155885494Y-64101847D01*
X155943805Y-63961071D01*
X155963694Y-63810000D01*
X155943805Y-63658929D01*
X155885494Y-63518153D01*
X155792734Y-63397266D01*
X155671847Y-63304506D01*
X155671846Y-63304505D01*
X155671844Y-63304504D01*
X155531074Y-63246196D01*
X155531072Y-63246195D01*
X155531071Y-63246195D01*
X155380000Y-63226306D01*
X155228929Y-63246195D01*
X155228925Y-63246196D01*
X155222028Y-63249053D01*
X155152558Y-63256519D01*
X155090080Y-63225241D01*
X155054430Y-63165151D01*
X155056927Y-63095326D01*
X155060007Y-63087067D01*
X155065805Y-63073071D01*
X155085694Y-62922000D01*
X155065805Y-62770929D01*
X155017787Y-62655002D01*
X202039999Y-62655002D01*
X202055457Y-62770929D01*
X202071056Y-62887924D01*
X202071600Y-62896115D01*
X202071600Y-64038400D01*
X202173549Y-64038400D01*
X202240588Y-64058085D01*
X202286343Y-64110889D01*
X202297548Y-64162123D01*
X202297634Y-64200284D01*
X205507634Y-64250284D01*
X205057634Y-60500284D01*
X204847634Y-60220284D01*
X204795634Y-60220284D01*
X204728595Y-60200599D01*
X204721234Y-60195484D01*
X204687636Y-60170285D01*
X204687630Y-60170282D01*
X202497634Y-59580283D01*
X202287634Y-59710283D01*
X202287633Y-59710283D01*
X202291792Y-61577324D01*
X202272256Y-61644407D01*
X202219555Y-61690279D01*
X202167792Y-61701600D01*
X202071600Y-61701600D01*
X202071600Y-62494393D01*
X202068848Y-62520374D01*
X202039999Y-62655002D01*
X155017787Y-62655002D01*
X155007494Y-62630153D01*
X154914734Y-62509266D01*
X154793847Y-62416506D01*
X154793846Y-62416505D01*
X154793844Y-62416504D01*
X154653074Y-62358196D01*
X154653072Y-62358195D01*
X154653071Y-62358195D01*
X154502000Y-62338306D01*
X154350929Y-62358195D01*
X154350925Y-62358196D01*
X154210155Y-62416504D01*
X154089266Y-62509266D01*
X153996504Y-62630155D01*
X153938196Y-62770925D01*
X153938195Y-62770929D01*
X153918306Y-62921999D01*
X149658903Y-62921999D01*
X150761883Y-61819019D01*
X150823206Y-61785534D01*
X150849564Y-61782700D01*
X150872938Y-61782700D01*
X150878339Y-61782935D01*
X150907601Y-61785495D01*
X150919089Y-61786501D01*
X150919089Y-61786500D01*
X150919090Y-61786501D01*
X150958609Y-61775911D01*
X150963878Y-61774744D01*
X151004150Y-61767643D01*
X151004149Y-61767643D01*
X151004156Y-61767642D01*
X151004161Y-61767638D01*
X151008815Y-61765945D01*
X151026565Y-61758593D01*
X151031050Y-61756501D01*
X151031058Y-61756499D01*
X151064581Y-61733024D01*
X151069103Y-61730143D01*
X151104544Y-61709683D01*
X151130852Y-61678329D01*
X151134470Y-61674380D01*
X155200450Y-57608400D01*
X202101600Y-57608400D01*
X202203527Y-57608400D01*
X202270566Y-57628085D01*
X202316321Y-57680889D01*
X202327526Y-57732122D01*
X202327634Y-57780284D01*
X205537634Y-57830284D01*
X205087634Y-54080284D01*
X204877634Y-53800284D01*
X204825634Y-53800284D01*
X204758595Y-53780599D01*
X204751234Y-53775484D01*
X204717636Y-53750285D01*
X204717630Y-53750282D01*
X202527634Y-53160283D01*
X202317634Y-53290283D01*
X202317633Y-53290283D01*
X202321770Y-55147324D01*
X202302234Y-55214407D01*
X202249533Y-55260279D01*
X202197770Y-55271600D01*
X202101600Y-55271600D01*
X202101600Y-57608400D01*
X155200450Y-57608400D01*
X157839745Y-54969105D01*
X157901066Y-54935622D01*
X157943605Y-54933849D01*
X157988000Y-54939694D01*
X158139071Y-54919805D01*
X158279847Y-54861494D01*
X158400734Y-54768734D01*
X158493494Y-54647847D01*
X158551805Y-54507071D01*
X158571694Y-54356000D01*
X158551805Y-54204929D01*
X158500058Y-54080000D01*
X158493495Y-54064155D01*
X158493494Y-54064154D01*
X158493494Y-54064153D01*
X158400734Y-53943266D01*
X158279847Y-53850506D01*
X158279846Y-53850505D01*
X158279844Y-53850504D01*
X158139074Y-53792196D01*
X158139072Y-53792195D01*
X158139071Y-53792195D01*
X157988000Y-53772306D01*
X157836929Y-53792195D01*
X157836925Y-53792196D01*
X157696155Y-53850504D01*
X157575266Y-53943266D01*
X157482504Y-54064155D01*
X157424196Y-54204925D01*
X157424195Y-54204929D01*
X157404306Y-54355999D01*
X157404306Y-54356004D01*
X157410149Y-54400391D01*
X157399383Y-54469426D01*
X157374891Y-54504255D01*
X150790167Y-61088981D01*
X150728844Y-61122466D01*
X150702486Y-61125300D01*
X150679113Y-61125300D01*
X150673711Y-61125064D01*
X150665709Y-61124364D01*
X150632960Y-61121498D01*
X150593457Y-61132083D01*
X150588177Y-61133254D01*
X150547890Y-61140358D01*
X150543290Y-61142032D01*
X150525426Y-61149432D01*
X150520994Y-61151499D01*
X150487490Y-61174958D01*
X150482929Y-61177864D01*
X150447510Y-61198313D01*
X150447502Y-61198321D01*
X150421214Y-61229649D01*
X150417559Y-61233638D01*
X147300751Y-64350445D01*
X147239428Y-64383930D01*
X147169736Y-64378946D01*
X147113803Y-64337074D01*
X147089386Y-64271610D01*
X147098508Y-64215314D01*
X147121805Y-64159071D01*
X147128529Y-64107985D01*
X147134948Y-64081761D01*
X147140700Y-64065959D01*
X147140700Y-64019617D01*
X147141231Y-64011514D01*
X147141694Y-64008000D01*
X147141231Y-64004482D01*
X147140700Y-63996382D01*
X147140700Y-63950042D01*
X147140699Y-63950039D01*
X147138153Y-63943045D01*
X147134947Y-63934235D01*
X147128529Y-63908007D01*
X147121805Y-63856929D01*
X147063494Y-63716153D01*
X146970734Y-63595266D01*
X146849847Y-63502506D01*
X146849846Y-63502505D01*
X146849844Y-63502504D01*
X146709074Y-63444196D01*
X146709072Y-63444195D01*
X146709071Y-63444195D01*
X146558000Y-63424306D01*
X146406929Y-63444195D01*
X146406925Y-63444196D01*
X146266155Y-63502504D01*
X146145266Y-63595266D01*
X146052504Y-63716155D01*
X145994196Y-63856925D01*
X145994195Y-63856929D01*
X145974306Y-64008000D01*
X145981936Y-64065959D01*
X145994195Y-64159070D01*
X145994196Y-64159074D01*
X146052504Y-64299844D01*
X146052505Y-64299846D01*
X146052506Y-64299847D01*
X146145266Y-64420734D01*
X146266153Y-64513494D01*
X146406929Y-64571805D01*
X146558000Y-64591694D01*
X146709071Y-64571805D01*
X146765313Y-64548508D01*
X146834780Y-64541040D01*
X146897259Y-64572315D01*
X146932912Y-64632404D01*
X146930419Y-64702229D01*
X146900445Y-64750751D01*
X145839642Y-65811555D01*
X145835654Y-65815209D01*
X145804316Y-65841506D01*
X145804315Y-65841507D01*
X145783864Y-65876929D01*
X145780958Y-65881490D01*
X145757499Y-65914994D01*
X145755435Y-65919420D01*
X145748036Y-65937285D01*
X145746356Y-65941899D01*
X145739253Y-65982179D01*
X145738082Y-65987459D01*
X145727498Y-66026958D01*
X145727498Y-66026959D01*
X145731064Y-66067704D01*
X145731300Y-66073111D01*
X145731300Y-74922937D01*
X145731064Y-74928344D01*
X145727498Y-74969091D01*
X145738082Y-75008592D01*
X145739253Y-75013872D01*
X145746356Y-75054154D01*
X145748028Y-75058746D01*
X145755436Y-75076630D01*
X145757501Y-75081058D01*
X145780959Y-75114560D01*
X145783865Y-75119122D01*
X145804317Y-75154544D01*
X145835649Y-75180835D01*
X145839639Y-75184491D01*
X147208981Y-76553833D01*
X147242466Y-76615156D01*
X147245300Y-76641514D01*
X147245300Y-82356516D01*
X147225615Y-82423555D01*
X147172811Y-82469310D01*
X147105116Y-82479455D01*
X147066003Y-82474306D01*
X147065999Y-82474306D01*
X146914929Y-82494195D01*
X146914925Y-82494196D01*
X146774155Y-82552504D01*
X146653266Y-82645266D01*
X146560504Y-82766155D01*
X146502196Y-82906925D01*
X146502195Y-82906929D01*
X146482306Y-83057999D01*
X146502195Y-83209070D01*
X146502195Y-83209071D01*
X146522399Y-83257847D01*
X146529868Y-83327317D01*
X146498593Y-83389796D01*
X146438504Y-83425448D01*
X146407838Y-83429300D01*
X144957724Y-83429300D01*
X144952322Y-83429064D01*
X144944320Y-83428364D01*
X144911571Y-83425498D01*
X144872068Y-83436083D01*
X144866788Y-83437254D01*
X144826501Y-83444358D01*
X144821901Y-83446032D01*
X144804037Y-83453432D01*
X144799605Y-83455499D01*
X144766101Y-83478958D01*
X144761540Y-83481864D01*
X144726121Y-83502313D01*
X144726113Y-83502321D01*
X144699825Y-83533649D01*
X144696170Y-83537638D01*
X143978755Y-84255052D01*
X143917432Y-84288537D01*
X143874891Y-84290310D01*
X143830504Y-84284467D01*
X143830499Y-84284467D01*
X143679429Y-84304356D01*
X143630651Y-84324560D01*
X143561182Y-84332027D01*
X143498703Y-84300752D01*
X143463051Y-84240662D01*
X143459200Y-84209998D01*
X143459200Y-82850471D01*
X143459436Y-82845064D01*
X143463000Y-82804329D01*
X143456600Y-82780448D01*
X143452412Y-82764817D01*
X143451248Y-82759569D01*
X143444142Y-82719265D01*
X143444140Y-82719261D01*
X143442455Y-82714632D01*
X143435076Y-82696818D01*
X143432999Y-82692363D01*
X143432085Y-82691058D01*
X143409539Y-82658859D01*
X143406635Y-82654300D01*
X143394979Y-82634113D01*
X143386183Y-82618877D01*
X143386180Y-82618874D01*
X143386179Y-82618873D01*
X143369058Y-82604507D01*
X143354842Y-82592578D01*
X143350870Y-82588939D01*
X142561083Y-81799152D01*
X142527598Y-81737829D01*
X142525825Y-81695290D01*
X142531670Y-81650897D01*
X142511781Y-81499826D01*
X142453470Y-81359050D01*
X142360710Y-81238163D01*
X142344536Y-81225752D01*
X142318855Y-81206046D01*
X142277652Y-81149618D01*
X142273498Y-81079872D01*
X142307711Y-81018952D01*
X142346888Y-80993111D01*
X142461847Y-80945494D01*
X142582734Y-80852734D01*
X142675494Y-80731847D01*
X142733805Y-80591071D01*
X142753694Y-80440000D01*
X142734654Y-80295378D01*
X144645806Y-80295378D01*
X144665695Y-80446448D01*
X144665696Y-80446452D01*
X144724004Y-80587222D01*
X144724005Y-80587224D01*
X144724006Y-80587225D01*
X144816766Y-80708112D01*
X144937653Y-80800872D01*
X145078429Y-80859183D01*
X145229500Y-80879072D01*
X145380571Y-80859183D01*
X145521347Y-80800872D01*
X145642234Y-80708112D01*
X145734994Y-80587225D01*
X145793305Y-80446449D01*
X145813194Y-80295378D01*
X145793305Y-80144307D01*
X145734994Y-80003531D01*
X145642234Y-79882644D01*
X145521347Y-79789884D01*
X145521346Y-79789883D01*
X145521344Y-79789882D01*
X145380574Y-79731574D01*
X145380572Y-79731573D01*
X145380571Y-79731573D01*
X145229500Y-79711684D01*
X145078429Y-79731573D01*
X145078425Y-79731574D01*
X144937655Y-79789882D01*
X144816766Y-79882644D01*
X144724004Y-80003533D01*
X144665696Y-80144303D01*
X144665695Y-80144307D01*
X144645806Y-80295378D01*
X142734654Y-80295378D01*
X142733805Y-80288929D01*
X142675494Y-80148153D01*
X142582734Y-80027266D01*
X142461847Y-79934506D01*
X142461846Y-79934505D01*
X142461844Y-79934504D01*
X142321074Y-79876196D01*
X142321072Y-79876195D01*
X142321071Y-79876195D01*
X142170000Y-79856306D01*
X142018929Y-79876195D01*
X142018925Y-79876196D01*
X141878155Y-79934504D01*
X141757266Y-80027266D01*
X141664504Y-80148155D01*
X141606196Y-80288925D01*
X141606195Y-80288929D01*
X141586306Y-80440000D01*
X141606195Y-80591070D01*
X141606196Y-80591074D01*
X141664504Y-80731844D01*
X141664505Y-80731846D01*
X141664506Y-80731847D01*
X141757266Y-80852734D01*
X141785897Y-80874703D01*
X141799120Y-80884850D01*
X141840322Y-80941278D01*
X141844477Y-81011024D01*
X141810264Y-81071944D01*
X141771086Y-81097786D01*
X141656130Y-81145402D01*
X141535242Y-81238163D01*
X141442480Y-81359052D01*
X141384172Y-81499822D01*
X141384171Y-81499826D01*
X141364282Y-81650897D01*
X127644315Y-81650897D01*
X127634574Y-77865453D01*
X143916806Y-77865453D01*
X143936695Y-78016523D01*
X143936696Y-78016527D01*
X143995004Y-78157297D01*
X143995005Y-78157299D01*
X143995006Y-78157300D01*
X144087766Y-78278187D01*
X144208653Y-78370947D01*
X144208654Y-78370947D01*
X144208655Y-78370948D01*
X144255578Y-78390384D01*
X144349429Y-78429258D01*
X144500500Y-78449147D01*
X144651571Y-78429258D01*
X144792347Y-78370947D01*
X144913234Y-78278187D01*
X145005994Y-78157300D01*
X145064305Y-78016524D01*
X145084194Y-77865453D01*
X145064305Y-77714382D01*
X145005994Y-77573606D01*
X144913234Y-77452719D01*
X144792347Y-77359959D01*
X144792346Y-77359958D01*
X144792344Y-77359957D01*
X144651574Y-77301649D01*
X144651572Y-77301648D01*
X144651571Y-77301648D01*
X144500500Y-77281759D01*
X144349429Y-77301648D01*
X144349425Y-77301649D01*
X144208655Y-77359957D01*
X144087766Y-77452719D01*
X143995004Y-77573608D01*
X143936696Y-77714378D01*
X143936695Y-77714382D01*
X143916806Y-77865453D01*
X127634574Y-77865453D01*
X127632501Y-77060000D01*
X140311120Y-77060000D01*
X140331732Y-77203363D01*
X140331734Y-77203371D01*
X140391900Y-77335117D01*
X140391905Y-77335125D01*
X140486751Y-77444584D01*
X140486753Y-77444585D01*
X140486754Y-77444586D01*
X140608604Y-77522894D01*
X140608605Y-77522894D01*
X140608608Y-77522896D01*
X140747576Y-77563699D01*
X140747578Y-77563700D01*
X140747579Y-77563700D01*
X140892422Y-77563700D01*
X140892422Y-77563699D01*
X140953143Y-77545870D01*
X141031391Y-77522896D01*
X141031392Y-77522895D01*
X141031396Y-77522894D01*
X141153246Y-77444586D01*
X141248097Y-77335121D01*
X141308267Y-77203368D01*
X141328880Y-77060000D01*
X141308267Y-76916632D01*
X141295287Y-76888210D01*
X141248099Y-76784882D01*
X141248094Y-76784874D01*
X141153248Y-76675415D01*
X141031391Y-76597103D01*
X140892423Y-76556300D01*
X140892421Y-76556300D01*
X140747579Y-76556300D01*
X140747576Y-76556300D01*
X140608608Y-76597103D01*
X140486751Y-76675415D01*
X140391905Y-76784874D01*
X140391900Y-76784882D01*
X140331734Y-76916628D01*
X140331732Y-76916636D01*
X140311120Y-77060000D01*
X127632501Y-77060000D01*
X127628545Y-75522774D01*
X143976806Y-75522774D01*
X143996695Y-75673844D01*
X143996696Y-75673848D01*
X144055004Y-75814618D01*
X144055005Y-75814620D01*
X144055006Y-75814621D01*
X144147766Y-75935508D01*
X144268653Y-76028268D01*
X144409429Y-76086579D01*
X144419703Y-76087931D01*
X144483598Y-76116195D01*
X144522070Y-76174519D01*
X144523295Y-76242956D01*
X144521695Y-76248926D01*
X144501806Y-76399999D01*
X144501806Y-76400000D01*
X144505086Y-76424910D01*
X144521695Y-76551070D01*
X144521696Y-76551074D01*
X144580004Y-76691844D01*
X144580005Y-76691846D01*
X144580006Y-76691847D01*
X144672766Y-76812734D01*
X144793653Y-76905494D01*
X144793654Y-76905494D01*
X144793655Y-76905495D01*
X144820552Y-76916636D01*
X144934429Y-76963805D01*
X145085500Y-76983694D01*
X145236571Y-76963805D01*
X145377347Y-76905494D01*
X145498234Y-76812734D01*
X145590994Y-76691847D01*
X145649305Y-76551071D01*
X145669194Y-76400000D01*
X145649305Y-76248929D01*
X145590994Y-76108153D01*
X145498234Y-75987266D01*
X145377347Y-75894506D01*
X145377346Y-75894505D01*
X145377344Y-75894504D01*
X145236574Y-75836196D01*
X145236572Y-75836195D01*
X145236571Y-75836195D01*
X145226292Y-75834841D01*
X145162397Y-75806574D01*
X145123927Y-75748249D01*
X145122707Y-75679807D01*
X145124301Y-75673853D01*
X145124305Y-75673845D01*
X145144194Y-75522774D01*
X145124305Y-75371703D01*
X145065994Y-75230927D01*
X144973234Y-75110040D01*
X144852347Y-75017280D01*
X144852346Y-75017279D01*
X144852344Y-75017278D01*
X144711574Y-74958970D01*
X144711572Y-74958969D01*
X144711571Y-74958969D01*
X144560500Y-74939080D01*
X144409429Y-74958969D01*
X144409425Y-74958970D01*
X144268655Y-75017278D01*
X144147766Y-75110040D01*
X144055004Y-75230929D01*
X143996696Y-75371699D01*
X143996695Y-75371703D01*
X143976806Y-75522774D01*
X127628545Y-75522774D01*
X127606987Y-67145000D01*
X131591306Y-67145000D01*
X131597780Y-67194170D01*
X131611195Y-67296070D01*
X131611196Y-67296074D01*
X131669504Y-67436844D01*
X131669505Y-67436846D01*
X131669506Y-67436847D01*
X131762266Y-67557734D01*
X131883153Y-67650494D01*
X132023929Y-67708805D01*
X132175000Y-67728694D01*
X132326071Y-67708805D01*
X132466847Y-67650494D01*
X132587734Y-67557734D01*
X132680494Y-67436847D01*
X132737178Y-67300000D01*
X133596306Y-67300000D01*
X133597623Y-67309999D01*
X133616195Y-67451070D01*
X133616196Y-67451074D01*
X133674504Y-67591844D01*
X133674505Y-67591846D01*
X133674506Y-67591847D01*
X133767266Y-67712734D01*
X133888153Y-67805494D01*
X133888154Y-67805494D01*
X133888155Y-67805495D01*
X133935078Y-67824931D01*
X134028929Y-67863805D01*
X134180000Y-67883694D01*
X134331071Y-67863805D01*
X134471847Y-67805494D01*
X134592734Y-67712734D01*
X134685494Y-67591847D01*
X134743805Y-67451071D01*
X134763694Y-67300000D01*
X134743805Y-67148929D01*
X134685494Y-67008153D01*
X134592734Y-66887266D01*
X134471847Y-66794506D01*
X134471846Y-66794505D01*
X134471844Y-66794504D01*
X134331074Y-66736196D01*
X134331072Y-66736195D01*
X134331071Y-66736195D01*
X134180000Y-66716306D01*
X134028929Y-66736195D01*
X134028925Y-66736196D01*
X133888155Y-66794504D01*
X133767266Y-66887266D01*
X133674504Y-67008155D01*
X133616196Y-67148925D01*
X133616195Y-67148929D01*
X133603881Y-67242466D01*
X133596306Y-67300000D01*
X132737178Y-67300000D01*
X132738805Y-67296071D01*
X132758694Y-67145000D01*
X132738805Y-66993929D01*
X132680494Y-66853153D01*
X132587734Y-66732266D01*
X132466847Y-66639506D01*
X132466846Y-66639505D01*
X132466844Y-66639504D01*
X132326074Y-66581196D01*
X132326072Y-66581195D01*
X132326071Y-66581195D01*
X132175000Y-66561306D01*
X132023929Y-66581195D01*
X132023925Y-66581196D01*
X131883155Y-66639504D01*
X131762266Y-66732266D01*
X131669504Y-66853155D01*
X131611196Y-66993925D01*
X131611195Y-66993929D01*
X131605653Y-67036028D01*
X131591306Y-67145000D01*
X127606987Y-67145000D01*
X127600000Y-64430000D01*
X122942232Y-64430000D01*
X122875193Y-64410315D01*
X122829438Y-64357511D01*
X122818232Y-64306056D01*
X122818184Y-64200284D01*
X122816393Y-60220000D01*
X129746306Y-60220000D01*
X129746344Y-60220284D01*
X129766195Y-60371070D01*
X129766196Y-60371074D01*
X129824504Y-60511844D01*
X129824505Y-60511846D01*
X129824506Y-60511847D01*
X129917266Y-60632734D01*
X130038153Y-60725494D01*
X130178929Y-60783805D01*
X130330000Y-60803694D01*
X130481071Y-60783805D01*
X130621847Y-60725494D01*
X130742734Y-60632734D01*
X130835494Y-60511847D01*
X130893805Y-60371071D01*
X130913694Y-60220000D01*
X130893805Y-60068929D01*
X130835494Y-59928153D01*
X130742734Y-59807266D01*
X130621847Y-59714506D01*
X130621846Y-59714505D01*
X130621844Y-59714504D01*
X130481074Y-59656196D01*
X130481072Y-59656195D01*
X130481071Y-59656195D01*
X130330000Y-59636306D01*
X130178929Y-59656195D01*
X130178925Y-59656196D01*
X130038155Y-59714504D01*
X129917266Y-59807266D01*
X129824504Y-59928155D01*
X129766196Y-60068925D01*
X129766195Y-60068929D01*
X129749083Y-60198910D01*
X129746306Y-60220000D01*
X122816393Y-60220000D01*
X122815925Y-59180004D01*
X133711242Y-59180004D01*
X133731443Y-59449578D01*
X133790948Y-59710284D01*
X133791600Y-59713141D01*
X133890365Y-59964791D01*
X134025534Y-60198910D01*
X134108331Y-60302734D01*
X134194090Y-60410272D01*
X134381163Y-60583849D01*
X134392258Y-60594144D01*
X134615621Y-60746430D01*
X134859186Y-60863725D01*
X135117513Y-60943409D01*
X135117514Y-60943409D01*
X135117517Y-60943410D01*
X135384823Y-60983699D01*
X135384828Y-60983699D01*
X135384831Y-60983700D01*
X135384832Y-60983700D01*
X135655168Y-60983700D01*
X135655169Y-60983700D01*
X135655176Y-60983699D01*
X135922482Y-60943410D01*
X135922483Y-60943409D01*
X135922487Y-60943409D01*
X136180814Y-60863725D01*
X136424379Y-60746430D01*
X136647742Y-60594144D01*
X136845913Y-60410268D01*
X137014466Y-60198910D01*
X137149635Y-59964791D01*
X137178988Y-59890000D01*
X147416306Y-59890000D01*
X147426153Y-59964791D01*
X147436195Y-60041070D01*
X147436196Y-60041074D01*
X147494504Y-60181844D01*
X147494505Y-60181846D01*
X147494506Y-60181847D01*
X147587266Y-60302734D01*
X147708153Y-60395494D01*
X147848929Y-60453805D01*
X148000000Y-60473694D01*
X148151071Y-60453805D01*
X148291847Y-60395494D01*
X148412734Y-60302734D01*
X148505494Y-60181847D01*
X148563805Y-60041071D01*
X148583694Y-59890000D01*
X148563805Y-59738929D01*
X148505494Y-59598153D01*
X148412734Y-59477266D01*
X148291847Y-59384506D01*
X148291846Y-59384505D01*
X148291844Y-59384504D01*
X148151074Y-59326196D01*
X148151072Y-59326195D01*
X148151071Y-59326195D01*
X148000000Y-59306306D01*
X147848929Y-59326195D01*
X147848925Y-59326196D01*
X147708155Y-59384504D01*
X147587266Y-59477266D01*
X147494504Y-59598155D01*
X147436196Y-59738925D01*
X147436195Y-59738929D01*
X147416306Y-59890000D01*
X137178988Y-59890000D01*
X137248400Y-59713141D01*
X137308556Y-59449581D01*
X137328758Y-59180000D01*
X137323729Y-59112896D01*
X137308556Y-58910421D01*
X137281840Y-58793371D01*
X137248400Y-58646859D01*
X137149635Y-58395209D01*
X137014466Y-58161090D01*
X136845913Y-57949732D01*
X136845912Y-57949731D01*
X136845909Y-57949727D01*
X136647742Y-57765856D01*
X136598266Y-57732124D01*
X136424379Y-57613570D01*
X136424376Y-57613569D01*
X136424374Y-57613567D01*
X136180814Y-57496275D01*
X135922488Y-57416591D01*
X135922482Y-57416589D01*
X135655176Y-57376300D01*
X135655169Y-57376300D01*
X135384831Y-57376300D01*
X135384823Y-57376300D01*
X135117517Y-57416589D01*
X135117511Y-57416591D01*
X134859185Y-57496275D01*
X134615625Y-57613567D01*
X134392257Y-57765856D01*
X134194090Y-57949727D01*
X134025534Y-58161090D01*
X133890365Y-58395208D01*
X133791602Y-58646853D01*
X133791597Y-58646870D01*
X133731443Y-58910421D01*
X133711242Y-59179995D01*
X133711242Y-59180004D01*
X122815925Y-59180004D01*
X122815687Y-58649999D01*
X129781120Y-58649999D01*
X129801732Y-58793363D01*
X129801734Y-58793371D01*
X129861900Y-58925117D01*
X129861905Y-58925125D01*
X129956751Y-59034584D01*
X129956753Y-59034585D01*
X129956754Y-59034586D01*
X130078604Y-59112894D01*
X130078605Y-59112894D01*
X130078608Y-59112896D01*
X130217576Y-59153699D01*
X130217578Y-59153700D01*
X130217579Y-59153700D01*
X130362422Y-59153700D01*
X130362422Y-59153699D01*
X130423143Y-59135870D01*
X130501391Y-59112896D01*
X130501392Y-59112895D01*
X130501396Y-59112894D01*
X130623246Y-59034586D01*
X130718097Y-58925121D01*
X130778267Y-58793368D01*
X130798880Y-58650000D01*
X130778267Y-58506632D01*
X130765287Y-58478210D01*
X130718099Y-58374882D01*
X130718094Y-58374874D01*
X130623248Y-58265415D01*
X130501391Y-58187103D01*
X130362423Y-58146300D01*
X130362421Y-58146300D01*
X130217579Y-58146300D01*
X130217576Y-58146300D01*
X130078608Y-58187103D01*
X129956751Y-58265415D01*
X129861905Y-58374874D01*
X129861900Y-58374882D01*
X129801734Y-58506628D01*
X129801732Y-58506636D01*
X129781120Y-58649999D01*
X122815687Y-58649999D01*
X122814558Y-56139999D01*
X123271120Y-56139999D01*
X123291732Y-56283363D01*
X123291734Y-56283371D01*
X123351900Y-56415117D01*
X123351905Y-56415125D01*
X123446751Y-56524584D01*
X123446753Y-56524585D01*
X123446754Y-56524586D01*
X123568604Y-56602894D01*
X123568605Y-56602894D01*
X123568608Y-56602896D01*
X123707576Y-56643699D01*
X123707578Y-56643700D01*
X123707579Y-56643700D01*
X123852422Y-56643700D01*
X123852422Y-56643699D01*
X123913143Y-56625870D01*
X123991391Y-56602896D01*
X123991392Y-56602895D01*
X123991396Y-56602894D01*
X124113246Y-56524586D01*
X124113248Y-56524584D01*
X124208094Y-56415125D01*
X124208095Y-56415123D01*
X124208097Y-56415121D01*
X124268267Y-56283368D01*
X124288880Y-56140000D01*
X124268267Y-55996632D01*
X124255287Y-55968210D01*
X124208099Y-55864882D01*
X124208094Y-55864874D01*
X124113248Y-55755415D01*
X123991391Y-55677103D01*
X123852423Y-55636300D01*
X123852421Y-55636300D01*
X123707579Y-55636300D01*
X123707576Y-55636300D01*
X123568608Y-55677103D01*
X123446751Y-55755415D01*
X123351905Y-55864874D01*
X123351900Y-55864882D01*
X123291734Y-55996628D01*
X123291732Y-55996636D01*
X123271120Y-56139999D01*
X122814558Y-56139999D01*
X122813406Y-53580005D01*
X126514858Y-53580005D01*
X126535385Y-53827729D01*
X126535387Y-53827738D01*
X126596412Y-54068717D01*
X126696266Y-54296364D01*
X126796564Y-54449882D01*
X127411050Y-53835395D01*
X127472373Y-53801910D01*
X127542064Y-53806894D01*
X127597998Y-53848765D01*
X127603039Y-53856025D01*
X127603048Y-53856039D01*
X127638239Y-53910798D01*
X127753602Y-54010759D01*
X127751293Y-54013422D01*
X127786006Y-54053499D01*
X127795935Y-54122660D01*
X127766898Y-54186210D01*
X127760882Y-54192669D01*
X127149942Y-54803609D01*
X127196768Y-54840055D01*
X127196770Y-54840056D01*
X127296353Y-54893948D01*
X127345944Y-54943168D01*
X127361052Y-55011384D01*
X127336882Y-55076940D01*
X127302615Y-55108429D01*
X127291501Y-55115310D01*
X127291500Y-55115311D01*
X127126645Y-55265595D01*
X126992210Y-55443616D01*
X126992205Y-55443624D01*
X126892775Y-55643306D01*
X126831725Y-55857877D01*
X126811143Y-56079999D01*
X126811143Y-56080000D01*
X126831725Y-56302122D01*
X126831725Y-56302124D01*
X126831726Y-56302127D01*
X126869066Y-56433363D01*
X126892775Y-56516693D01*
X126992205Y-56716375D01*
X126992210Y-56716383D01*
X127126645Y-56894404D01*
X127291500Y-57044688D01*
X127291502Y-57044690D01*
X127481162Y-57162122D01*
X127481168Y-57162125D01*
X127510216Y-57173378D01*
X127689181Y-57242710D01*
X127908461Y-57283700D01*
X127908464Y-57283700D01*
X128131536Y-57283700D01*
X128131539Y-57283700D01*
X128350819Y-57242710D01*
X128558834Y-57162124D01*
X128748499Y-57044689D01*
X128913356Y-56894402D01*
X129047791Y-56716381D01*
X129147226Y-56516690D01*
X129208274Y-56302127D01*
X129228857Y-56080000D01*
X141311143Y-56080000D01*
X141331725Y-56302122D01*
X141331725Y-56302124D01*
X141331726Y-56302127D01*
X141369066Y-56433363D01*
X141392775Y-56516693D01*
X141492205Y-56716375D01*
X141492210Y-56716383D01*
X141626645Y-56894404D01*
X141791500Y-57044688D01*
X141791502Y-57044690D01*
X141981162Y-57162122D01*
X141981168Y-57162125D01*
X142010216Y-57173378D01*
X142189181Y-57242710D01*
X142408461Y-57283700D01*
X142408464Y-57283700D01*
X142631536Y-57283700D01*
X142631539Y-57283700D01*
X142850819Y-57242710D01*
X143058834Y-57162124D01*
X143248499Y-57044689D01*
X143413356Y-56894402D01*
X143547791Y-56716381D01*
X143647226Y-56516690D01*
X143708274Y-56302127D01*
X143709398Y-56289999D01*
X145271120Y-56289999D01*
X145291732Y-56433363D01*
X145291734Y-56433371D01*
X145351900Y-56565117D01*
X145351905Y-56565125D01*
X145446751Y-56674584D01*
X145446753Y-56674585D01*
X145446754Y-56674586D01*
X145568604Y-56752894D01*
X145568605Y-56752894D01*
X145568608Y-56752896D01*
X145707576Y-56793699D01*
X145707578Y-56793700D01*
X145707579Y-56793700D01*
X145852422Y-56793700D01*
X145852422Y-56793699D01*
X145913143Y-56775870D01*
X145991391Y-56752896D01*
X145991392Y-56752895D01*
X145991396Y-56752894D01*
X146113246Y-56674586D01*
X146140009Y-56643700D01*
X146208094Y-56565125D01*
X146208095Y-56565123D01*
X146208097Y-56565121D01*
X146268267Y-56433368D01*
X146288880Y-56290000D01*
X146268267Y-56146632D01*
X146237837Y-56079999D01*
X146208099Y-56014882D01*
X146208094Y-56014874D01*
X146113248Y-55905415D01*
X145991391Y-55827103D01*
X145852423Y-55786300D01*
X145852421Y-55786300D01*
X145707579Y-55786300D01*
X145707576Y-55786300D01*
X145568608Y-55827103D01*
X145446751Y-55905415D01*
X145351905Y-56014874D01*
X145351900Y-56014882D01*
X145291734Y-56146628D01*
X145291732Y-56146636D01*
X145271120Y-56289999D01*
X143709398Y-56289999D01*
X143728857Y-56080000D01*
X143708274Y-55857873D01*
X143647226Y-55643310D01*
X143643735Y-55636300D01*
X143547794Y-55443624D01*
X143547789Y-55443616D01*
X143413354Y-55265595D01*
X143248499Y-55115311D01*
X143248497Y-55115309D01*
X143058837Y-54997877D01*
X143058831Y-54997874D01*
X142917617Y-54943168D01*
X142850819Y-54917290D01*
X142631539Y-54876300D01*
X142408461Y-54876300D01*
X142189181Y-54917290D01*
X142167039Y-54925868D01*
X141981168Y-54997874D01*
X141981162Y-54997877D01*
X141791502Y-55115309D01*
X141791500Y-55115311D01*
X141626645Y-55265595D01*
X141492210Y-55443616D01*
X141492205Y-55443624D01*
X141392775Y-55643306D01*
X141331725Y-55857877D01*
X141311143Y-56079999D01*
X141311143Y-56080000D01*
X129228857Y-56080000D01*
X129208274Y-55857873D01*
X129147226Y-55643310D01*
X129143735Y-55636300D01*
X129047794Y-55443624D01*
X129047789Y-55443616D01*
X128913354Y-55265595D01*
X128748500Y-55115311D01*
X128737387Y-55108431D01*
X128690751Y-55056404D01*
X128679646Y-54987422D01*
X128707598Y-54923388D01*
X128743646Y-54893948D01*
X128843228Y-54840057D01*
X128843231Y-54840055D01*
X128890056Y-54803609D01*
X128279116Y-54192669D01*
X128245631Y-54131346D01*
X128250615Y-54061654D01*
X128287641Y-54012193D01*
X128286398Y-54010759D01*
X128364290Y-53943266D01*
X128401761Y-53910798D01*
X128436954Y-53856037D01*
X128489755Y-53810283D01*
X128558914Y-53800339D01*
X128622470Y-53829363D01*
X128628949Y-53835396D01*
X129243434Y-54449882D01*
X129343731Y-54296369D01*
X129443587Y-54068717D01*
X129504612Y-53827738D01*
X129504614Y-53827729D01*
X129525141Y-53580005D01*
X129525141Y-53579994D01*
X129504614Y-53332270D01*
X129504612Y-53332261D01*
X129443587Y-53091282D01*
X129343731Y-52863630D01*
X129243434Y-52710116D01*
X128628949Y-53324602D01*
X128567626Y-53358087D01*
X128497934Y-53353103D01*
X128442001Y-53311231D01*
X128436953Y-53303961D01*
X128401761Y-53249202D01*
X128299143Y-53160284D01*
X128293100Y-53155048D01*
X128293099Y-53155047D01*
X128286398Y-53149241D01*
X128288698Y-53146585D01*
X128253960Y-53106428D01*
X128244074Y-53037261D01*
X128273152Y-52973729D01*
X128279116Y-52967329D01*
X128926427Y-52320019D01*
X128987750Y-52286534D01*
X129014108Y-52283700D01*
X129040066Y-52283700D01*
X129099476Y-52271882D01*
X129099477Y-52271881D01*
X129099480Y-52271881D01*
X129166860Y-52226860D01*
X129211881Y-52159480D01*
X129211882Y-52159476D01*
X129223700Y-52100066D01*
X129223700Y-51080005D01*
X141014859Y-51080005D01*
X141035385Y-51327729D01*
X141035387Y-51327738D01*
X141096412Y-51568717D01*
X141196266Y-51796364D01*
X141296564Y-51949882D01*
X141911050Y-51335395D01*
X141972373Y-51301910D01*
X142042064Y-51306894D01*
X142097998Y-51348765D01*
X142103039Y-51356025D01*
X142121740Y-51385125D01*
X142138239Y-51410798D01*
X142253602Y-51510759D01*
X142251293Y-51513422D01*
X142286006Y-51553499D01*
X142295935Y-51622660D01*
X142266898Y-51686210D01*
X142260882Y-51692669D01*
X141649942Y-52303609D01*
X141696768Y-52340055D01*
X141696770Y-52340056D01*
X141915385Y-52458364D01*
X141915396Y-52458369D01*
X142150506Y-52539083D01*
X142395707Y-52580000D01*
X142644293Y-52580000D01*
X142889493Y-52539083D01*
X143124603Y-52458369D01*
X143124614Y-52458364D01*
X143343228Y-52340057D01*
X143343231Y-52340055D01*
X143390056Y-52303609D01*
X142779116Y-51692669D01*
X142745631Y-51631346D01*
X142750615Y-51561654D01*
X142787641Y-51512193D01*
X142786398Y-51510759D01*
X142805065Y-51494584D01*
X142901761Y-51410798D01*
X142936954Y-51356037D01*
X142989755Y-51310283D01*
X143058914Y-51300339D01*
X143122470Y-51329363D01*
X143128949Y-51335396D01*
X143743434Y-51949882D01*
X143843731Y-51796369D01*
X143903547Y-51660000D01*
X148561120Y-51660000D01*
X148581732Y-51803363D01*
X148581734Y-51803371D01*
X148641900Y-51935117D01*
X148641905Y-51935125D01*
X148736751Y-52044584D01*
X148736753Y-52044585D01*
X148736754Y-52044586D01*
X148858604Y-52122894D01*
X148858605Y-52122894D01*
X148858608Y-52122896D01*
X148997576Y-52163699D01*
X148997578Y-52163700D01*
X148997579Y-52163700D01*
X149142422Y-52163700D01*
X149142422Y-52163699D01*
X149203143Y-52145870D01*
X149281391Y-52122896D01*
X149281392Y-52122895D01*
X149281396Y-52122894D01*
X149403246Y-52044586D01*
X149403248Y-52044584D01*
X149498094Y-51935125D01*
X149498095Y-51935123D01*
X149498097Y-51935121D01*
X149558267Y-51803368D01*
X149578880Y-51660000D01*
X149558267Y-51516632D01*
X149509934Y-51410798D01*
X149498099Y-51384882D01*
X149498094Y-51384874D01*
X149403248Y-51275415D01*
X149281391Y-51197103D01*
X149142423Y-51156300D01*
X149142421Y-51156300D01*
X148997579Y-51156300D01*
X148997576Y-51156300D01*
X148858608Y-51197103D01*
X148736751Y-51275415D01*
X148641905Y-51384874D01*
X148641900Y-51384882D01*
X148581734Y-51516628D01*
X148581732Y-51516636D01*
X148561120Y-51660000D01*
X143903547Y-51660000D01*
X143943587Y-51568717D01*
X144004612Y-51327738D01*
X144004614Y-51327729D01*
X144025141Y-51080005D01*
X144025141Y-51079994D01*
X144004614Y-50832270D01*
X144004612Y-50832261D01*
X143943587Y-50591282D01*
X143843731Y-50363630D01*
X143743434Y-50210116D01*
X143128949Y-50824602D01*
X143067626Y-50858087D01*
X142997934Y-50853103D01*
X142942001Y-50811231D01*
X142936953Y-50803961D01*
X142901761Y-50749202D01*
X142786398Y-50649241D01*
X142788698Y-50646585D01*
X142753960Y-50606428D01*
X142744074Y-50537261D01*
X142773152Y-50473729D01*
X142779116Y-50467329D01*
X143390056Y-49856389D01*
X143343229Y-49819943D01*
X143124614Y-49701635D01*
X143124603Y-49701630D01*
X142889493Y-49620916D01*
X142644293Y-49580000D01*
X142395707Y-49580000D01*
X142150506Y-49620916D01*
X141915396Y-49701630D01*
X141915390Y-49701632D01*
X141696761Y-49819949D01*
X141649942Y-49856388D01*
X141649942Y-49856390D01*
X142260883Y-50467330D01*
X142294368Y-50528653D01*
X142289384Y-50598344D01*
X142252358Y-50647805D01*
X142253602Y-50649241D01*
X142138238Y-50749202D01*
X142103046Y-50803962D01*
X142050242Y-50849717D01*
X141981083Y-50859660D01*
X141917528Y-50830634D01*
X141911050Y-50824603D01*
X141296564Y-50210116D01*
X141196267Y-50363632D01*
X141096412Y-50591282D01*
X141035387Y-50832261D01*
X141035385Y-50832270D01*
X141014859Y-51079994D01*
X141014859Y-51080005D01*
X129223700Y-51080005D01*
X129223700Y-50059933D01*
X129211882Y-50000523D01*
X129211881Y-50000520D01*
X129166860Y-49933140D01*
X129099480Y-49888119D01*
X129099479Y-49888118D01*
X129099476Y-49888117D01*
X129040066Y-49876300D01*
X129040064Y-49876300D01*
X126999936Y-49876300D01*
X126999934Y-49876300D01*
X126940523Y-49888117D01*
X126940520Y-49888118D01*
X126873140Y-49933140D01*
X126828118Y-50000520D01*
X126828117Y-50000523D01*
X126816300Y-50059933D01*
X126816300Y-50059935D01*
X126816300Y-50059936D01*
X126816300Y-52100064D01*
X126816300Y-52100066D01*
X126816299Y-52100066D01*
X126828117Y-52159476D01*
X126828118Y-52159479D01*
X126843057Y-52181837D01*
X126873140Y-52226860D01*
X126940520Y-52271880D01*
X126940520Y-52271881D01*
X126940523Y-52271882D01*
X126999933Y-52283700D01*
X127025890Y-52283700D01*
X127092929Y-52303385D01*
X127113571Y-52320019D01*
X127760883Y-52967330D01*
X127794368Y-53028653D01*
X127789384Y-53098344D01*
X127752358Y-53147805D01*
X127753602Y-53149241D01*
X127746900Y-53155047D01*
X127746900Y-53155048D01*
X127740857Y-53160284D01*
X127638238Y-53249202D01*
X127603046Y-53303962D01*
X127550242Y-53349717D01*
X127481083Y-53359660D01*
X127417528Y-53330634D01*
X127411050Y-53324603D01*
X126796564Y-52710116D01*
X126696267Y-52863632D01*
X126596412Y-53091282D01*
X126535387Y-53332261D01*
X126535385Y-53332270D01*
X126514858Y-53579994D01*
X126514858Y-53580005D01*
X122813406Y-53580005D01*
X122812295Y-51110000D01*
X123481120Y-51110000D01*
X123501732Y-51253363D01*
X123501734Y-51253371D01*
X123561900Y-51385117D01*
X123561905Y-51385125D01*
X123656751Y-51494584D01*
X123656753Y-51494585D01*
X123656754Y-51494586D01*
X123778604Y-51572894D01*
X123778605Y-51572894D01*
X123778608Y-51572896D01*
X123917576Y-51613699D01*
X123917578Y-51613700D01*
X123917579Y-51613700D01*
X124062422Y-51613700D01*
X124062422Y-51613699D01*
X124123143Y-51595870D01*
X124201391Y-51572896D01*
X124201392Y-51572895D01*
X124201396Y-51572894D01*
X124323246Y-51494586D01*
X124418097Y-51385121D01*
X124478267Y-51253368D01*
X124498880Y-51110000D01*
X124478267Y-50966632D01*
X124448851Y-50902221D01*
X124418099Y-50834882D01*
X124418094Y-50834874D01*
X124323248Y-50725415D01*
X124204718Y-50649241D01*
X124201396Y-50647106D01*
X124201395Y-50647105D01*
X124201391Y-50647103D01*
X124062423Y-50606300D01*
X124062421Y-50606300D01*
X123917579Y-50606300D01*
X123917576Y-50606300D01*
X123778608Y-50647103D01*
X123656751Y-50725415D01*
X123561905Y-50834874D01*
X123561900Y-50834882D01*
X123501734Y-50966628D01*
X123501732Y-50966636D01*
X123481120Y-51110000D01*
X122812295Y-51110000D01*
X122810851Y-47900000D01*
X127341120Y-47900000D01*
X127361732Y-48043363D01*
X127361734Y-48043371D01*
X127421900Y-48175117D01*
X127421905Y-48175125D01*
X127516751Y-48284584D01*
X127516753Y-48284585D01*
X127516754Y-48284586D01*
X127638604Y-48362894D01*
X127638605Y-48362894D01*
X127638608Y-48362896D01*
X127777576Y-48403699D01*
X127777578Y-48403700D01*
X127777579Y-48403700D01*
X127922422Y-48403700D01*
X127922422Y-48403699D01*
X127983143Y-48385870D01*
X128061391Y-48362896D01*
X128061392Y-48362895D01*
X128061396Y-48362894D01*
X128183246Y-48284586D01*
X128213578Y-48249581D01*
X128278094Y-48175125D01*
X128278095Y-48175123D01*
X128278097Y-48175121D01*
X128278747Y-48173699D01*
X128297381Y-48132896D01*
X128338267Y-48043368D01*
X128347377Y-47980004D01*
X133711242Y-47980004D01*
X133731443Y-48249578D01*
X133777238Y-48450218D01*
X133791600Y-48513141D01*
X133890365Y-48764791D01*
X134025534Y-48998910D01*
X134146604Y-49150726D01*
X134194090Y-49210272D01*
X134381163Y-49383849D01*
X134392258Y-49394144D01*
X134615621Y-49546430D01*
X134859186Y-49663725D01*
X135117513Y-49743409D01*
X135117514Y-49743409D01*
X135117517Y-49743410D01*
X135384823Y-49783699D01*
X135384828Y-49783699D01*
X135384831Y-49783700D01*
X135384832Y-49783700D01*
X135655168Y-49783700D01*
X135655169Y-49783700D01*
X135655176Y-49783699D01*
X135922482Y-49743410D01*
X135922483Y-49743409D01*
X135922487Y-49743409D01*
X136180814Y-49663725D01*
X136424379Y-49546430D01*
X136477814Y-49509999D01*
X211161252Y-49509999D01*
X211181427Y-49869261D01*
X211181429Y-49869273D01*
X211241701Y-50224010D01*
X211241703Y-50224019D01*
X211329467Y-50528653D01*
X211341316Y-50569782D01*
X211373345Y-50647106D01*
X211479014Y-50902217D01*
X211479016Y-50902221D01*
X211653077Y-51217161D01*
X211653080Y-51217166D01*
X211861297Y-51510618D01*
X211861303Y-51510626D01*
X212101071Y-51778925D01*
X212101074Y-51778928D01*
X212369373Y-52018696D01*
X212369381Y-52018702D01*
X212662833Y-52226919D01*
X212662838Y-52226922D01*
X212662841Y-52226923D01*
X212662843Y-52226925D01*
X212977776Y-52400982D01*
X212977778Y-52400983D01*
X212977782Y-52400985D01*
X213085686Y-52445679D01*
X213310218Y-52538684D01*
X213655986Y-52638298D01*
X214010734Y-52698572D01*
X214370000Y-52718748D01*
X214729266Y-52698572D01*
X215084014Y-52638298D01*
X215429782Y-52538684D01*
X215762224Y-52400982D01*
X216077157Y-52226925D01*
X216077162Y-52226921D01*
X216077166Y-52226919D01*
X216223772Y-52122896D01*
X216370622Y-52018700D01*
X216638927Y-51778927D01*
X216878700Y-51510622D01*
X217045589Y-51275415D01*
X217086919Y-51217166D01*
X217086922Y-51217161D01*
X217086925Y-51217157D01*
X217260982Y-50902224D01*
X217398684Y-50569782D01*
X217498298Y-50224014D01*
X217558572Y-49869266D01*
X217578748Y-49510000D01*
X217558572Y-49150734D01*
X217498298Y-48795986D01*
X217398684Y-48450218D01*
X217284735Y-48175121D01*
X217260985Y-48117782D01*
X217260983Y-48117778D01*
X217165557Y-47945117D01*
X217086925Y-47802843D01*
X217086923Y-47802841D01*
X217086922Y-47802838D01*
X217086919Y-47802833D01*
X216890942Y-47526632D01*
X216878700Y-47509378D01*
X216822839Y-47446870D01*
X216638928Y-47241074D01*
X216638925Y-47241071D01*
X216370626Y-47001303D01*
X216370618Y-47001297D01*
X216077166Y-46793080D01*
X216077161Y-46793077D01*
X215762221Y-46619016D01*
X215762217Y-46619014D01*
X215531399Y-46523407D01*
X215429782Y-46481316D01*
X215429778Y-46481314D01*
X215429776Y-46481314D01*
X215084019Y-46381703D01*
X215084010Y-46381701D01*
X214729273Y-46321429D01*
X214729261Y-46321427D01*
X214370000Y-46301252D01*
X214010738Y-46321427D01*
X214010726Y-46321429D01*
X213655989Y-46381701D01*
X213655980Y-46381703D01*
X213310223Y-46481314D01*
X212977782Y-46619014D01*
X212977778Y-46619016D01*
X212662838Y-46793077D01*
X212662833Y-46793080D01*
X212369381Y-47001297D01*
X212369373Y-47001303D01*
X212101074Y-47241071D01*
X212101071Y-47241074D01*
X211861303Y-47509373D01*
X211861297Y-47509381D01*
X211653080Y-47802833D01*
X211653077Y-47802838D01*
X211479016Y-48117778D01*
X211479014Y-48117782D01*
X211341314Y-48450223D01*
X211241703Y-48795980D01*
X211241701Y-48795989D01*
X211181429Y-49150726D01*
X211181427Y-49150738D01*
X211161252Y-49509999D01*
X136477814Y-49509999D01*
X136647742Y-49394144D01*
X136845913Y-49210268D01*
X137014466Y-48998910D01*
X137149635Y-48764791D01*
X137248400Y-48513141D01*
X137308556Y-48249581D01*
X137328758Y-47980000D01*
X137326144Y-47945121D01*
X137308556Y-47710421D01*
X137308556Y-47710419D01*
X137299331Y-47670000D01*
X167141120Y-47670000D01*
X167161732Y-47813363D01*
X167161734Y-47813371D01*
X167221900Y-47945117D01*
X167221905Y-47945125D01*
X167316751Y-48054584D01*
X167316753Y-48054585D01*
X167316754Y-48054586D01*
X167438604Y-48132894D01*
X167438605Y-48132894D01*
X167438608Y-48132896D01*
X167577576Y-48173699D01*
X167577578Y-48173700D01*
X167577579Y-48173700D01*
X167722422Y-48173700D01*
X167722422Y-48173699D01*
X167783143Y-48155870D01*
X167861391Y-48132896D01*
X167861392Y-48132895D01*
X167861396Y-48132894D01*
X167983246Y-48054586D01*
X167992964Y-48043371D01*
X168078094Y-47945125D01*
X168078095Y-47945123D01*
X168078097Y-47945121D01*
X168138267Y-47813368D01*
X168158880Y-47670000D01*
X168138267Y-47526632D01*
X168097382Y-47437106D01*
X168078099Y-47394882D01*
X168078094Y-47394874D01*
X167983248Y-47285415D01*
X167861391Y-47207103D01*
X167722423Y-47166300D01*
X167722421Y-47166300D01*
X167577579Y-47166300D01*
X167577576Y-47166300D01*
X167438608Y-47207103D01*
X167316751Y-47285415D01*
X167221905Y-47394874D01*
X167221900Y-47394882D01*
X167161734Y-47526628D01*
X167161732Y-47526636D01*
X167141120Y-47670000D01*
X137299331Y-47670000D01*
X137248400Y-47446859D01*
X137149635Y-47195209D01*
X137014466Y-46961090D01*
X136845913Y-46749732D01*
X136845912Y-46749731D01*
X136845909Y-46749727D01*
X136647742Y-46565856D01*
X136615480Y-46543860D01*
X136424379Y-46413570D01*
X136424376Y-46413569D01*
X136424374Y-46413567D01*
X136180814Y-46296275D01*
X135922488Y-46216591D01*
X135922482Y-46216589D01*
X135655176Y-46176300D01*
X135655169Y-46176300D01*
X135384831Y-46176300D01*
X135384823Y-46176300D01*
X135117517Y-46216589D01*
X135117511Y-46216591D01*
X134859185Y-46296275D01*
X134615625Y-46413567D01*
X134392257Y-46565856D01*
X134194090Y-46749727D01*
X134025534Y-46961090D01*
X133890365Y-47195208D01*
X133791602Y-47446853D01*
X133791597Y-47446870D01*
X133731443Y-47710421D01*
X133711242Y-47979995D01*
X133711242Y-47980004D01*
X128347377Y-47980004D01*
X128358880Y-47900000D01*
X128338267Y-47756632D01*
X128317162Y-47710419D01*
X128278099Y-47624882D01*
X128278094Y-47624874D01*
X128183248Y-47515415D01*
X128076572Y-47446859D01*
X128061396Y-47437106D01*
X128061395Y-47437105D01*
X128061391Y-47437103D01*
X127922423Y-47396300D01*
X127922421Y-47396300D01*
X127777579Y-47396300D01*
X127777576Y-47396300D01*
X127638608Y-47437103D01*
X127516751Y-47515415D01*
X127421905Y-47624874D01*
X127421900Y-47624882D01*
X127361734Y-47756628D01*
X127361732Y-47756636D01*
X127341120Y-47900000D01*
X122810851Y-47900000D01*
X122810501Y-47122448D01*
X122810692Y-47117557D01*
X122814977Y-47063110D01*
X122818195Y-47026326D01*
X122826997Y-46925718D01*
X122829946Y-46907607D01*
X122848971Y-46828363D01*
X122878065Y-46719786D01*
X122880662Y-46712136D01*
X122916023Y-46626767D01*
X122961347Y-46529570D01*
X122964648Y-46523428D01*
X123013372Y-46443917D01*
X123015391Y-46440839D01*
X123074993Y-46355718D01*
X123078604Y-46351055D01*
X123139682Y-46279542D01*
X123142939Y-46276019D01*
X123216019Y-46202939D01*
X123219542Y-46199682D01*
X123291055Y-46138604D01*
X123295718Y-46134993D01*
X123380839Y-46075391D01*
X123383917Y-46073372D01*
X123463428Y-46024648D01*
X123469570Y-46021347D01*
X123566767Y-45976023D01*
X123652136Y-45940662D01*
X123659786Y-45938065D01*
X123768363Y-45908971D01*
X123847607Y-45889946D01*
X123865716Y-45886997D01*
X124002995Y-45874986D01*
X124057573Y-45870690D01*
X124062438Y-45870500D01*
X124111300Y-45870500D01*
X124111779Y-45870445D01*
X186589542Y-45805774D01*
X216913647Y-45774386D01*
X216918577Y-45774577D01*
G37*
%TD.AperFunction*%
%TD*%
M02*
