%TF.GenerationSoftware,KiCad,Pcbnew,7.0.7*%
%TF.CreationDate,2023-12-10T19:04:39-06:00*%
%TF.ProjectId,ProjectNeoRogue,50726f6a-6563-4744-9e65-6f526f677565,v1*%
%TF.SameCoordinates,Original*%
%TF.FileFunction,Drillmap*%
%TF.FilePolarity,Positive*%
%FSLAX45Y45*%
G04 Gerber Fmt 4.5, Leading zero omitted, Abs format (unit mm)*
G04 Created by KiCad (PCBNEW 7.0.7) date 2023-12-10 19:04:39*
%MOMM*%
%LPD*%
G01*
G04 APERTURE LIST*
%ADD10C,0.100000*%
%ADD11C,0.200000*%
%ADD12C,0.040000*%
%ADD13C,0.060000*%
%ADD14C,0.101600*%
%ADD15C,0.260000*%
%ADD16C,0.550000*%
G04 APERTURE END LIST*
D10*
X12406000Y-4587000D02*
G75*
G03*
X12281000Y-4712000I0J-125000D01*
G01*
X21691612Y-4577388D02*
X12406000Y-4587000D01*
X12286000Y-15825000D02*
G75*
G03*
X12411000Y-15950000I125000J0D01*
G01*
X12281000Y-4712000D02*
X12286000Y-15825000D01*
X21816612Y-4702388D02*
G75*
G03*
X21691612Y-4577388I-125002J-2D01*
G01*
X12411000Y-15950000D02*
X21709612Y-15943612D01*
X21709612Y-15943612D02*
G75*
G03*
X21834612Y-15818612I-2J125002D01*
G01*
X21834612Y-15818612D02*
X21816612Y-4702388D01*
D11*
D12*
X12358000Y-5594000D02*
X12398000Y-5634000D01*
X12398000Y-5594000D02*
X12358000Y-5634000D01*
X12379000Y-5091000D02*
X12419000Y-5131000D01*
X12419000Y-5091000D02*
X12379000Y-5131000D01*
X12418000Y-14984000D02*
X12458000Y-15024000D01*
X12458000Y-14984000D02*
X12418000Y-15024000D01*
X12436050Y-10183000D02*
X12476050Y-10223000D01*
X12476050Y-10183000D02*
X12436050Y-10223000D01*
X12634000Y-12264000D02*
X12674000Y-12304000D01*
X12674000Y-12264000D02*
X12634000Y-12304000D01*
X12703000Y-6136000D02*
X12743000Y-6176000D01*
X12743000Y-6136000D02*
X12703000Y-6176000D01*
X12765000Y-4770000D02*
X12805000Y-4810000D01*
X12805000Y-4770000D02*
X12765000Y-4810000D01*
X12861000Y-10135000D02*
X12901000Y-10175000D01*
X12901000Y-10135000D02*
X12861000Y-10175000D01*
X13009000Y-5845000D02*
X13049000Y-5885000D01*
X13049000Y-5845000D02*
X13009000Y-5885000D01*
X13013000Y-6002000D02*
X13053000Y-6042000D01*
X13053000Y-6002000D02*
X13013000Y-6042000D01*
X13096000Y-11947000D02*
X13136000Y-11987000D01*
X13136000Y-11947000D02*
X13096000Y-11987000D01*
X13099000Y-10770000D02*
X13139000Y-10810000D01*
X13139000Y-10770000D02*
X13099000Y-10810000D01*
X13123000Y-12256000D02*
X13163000Y-12296000D01*
X13163000Y-12256000D02*
X13123000Y-12296000D01*
X13197500Y-6694500D02*
X13237500Y-6734500D01*
X13237500Y-6694500D02*
X13197500Y-6734500D01*
X13209757Y-11655240D02*
X13249757Y-11695240D01*
X13249757Y-11655240D02*
X13209757Y-11695240D01*
X13284950Y-12426000D02*
X13324950Y-12466000D01*
X13324950Y-12426000D02*
X13284950Y-12466000D01*
X13366000Y-9081000D02*
X13406000Y-9121000D01*
X13406000Y-9081000D02*
X13366000Y-9121000D01*
X13398000Y-6710000D02*
X13438000Y-6750000D01*
X13438000Y-6710000D02*
X13398000Y-6750000D01*
X13521000Y-11550000D02*
X13561000Y-11590000D01*
X13561000Y-11550000D02*
X13521000Y-11590000D01*
X13826000Y-6146000D02*
X13866000Y-6186000D01*
X13866000Y-6146000D02*
X13826000Y-6186000D01*
X14062000Y-7686000D02*
X14102000Y-7726000D01*
X14102000Y-7686000D02*
X14062000Y-7726000D01*
X14084000Y-10725900D02*
X14124000Y-10765900D01*
X14124000Y-10725900D02*
X14084000Y-10765900D01*
X14084000Y-13528000D02*
X14124000Y-13568000D01*
X14124000Y-13528000D02*
X14084000Y-13568000D01*
X14093000Y-13691000D02*
X14133000Y-13731000D01*
X14133000Y-13691000D02*
X14093000Y-13731000D01*
X14166667Y-10792140D02*
X14206667Y-10832140D01*
X14206667Y-10792140D02*
X14166667Y-10832140D01*
X14174798Y-8145090D02*
X14214798Y-8185090D01*
X14214798Y-8145090D02*
X14174798Y-8185090D01*
X14197000Y-8024000D02*
X14237000Y-8064000D01*
X14237000Y-8024000D02*
X14197000Y-8064000D01*
X14204000Y-11892600D02*
X14244000Y-11932600D01*
X14244000Y-11892600D02*
X14204000Y-11932600D01*
X14218858Y-10576140D02*
X14258858Y-10616140D01*
X14258858Y-10576140D02*
X14218858Y-10616140D01*
X14245000Y-10870000D02*
X14285000Y-10910000D01*
X14285000Y-10870000D02*
X14245000Y-10910000D01*
X14275359Y-10632641D02*
X14315359Y-10672641D01*
X14315359Y-10632641D02*
X14275359Y-10672641D01*
X14317000Y-10947000D02*
X14357000Y-10987000D01*
X14357000Y-10947000D02*
X14317000Y-10987000D01*
X14344359Y-10701641D02*
X14384359Y-10741641D01*
X14384359Y-10701641D02*
X14344359Y-10741641D01*
X14363050Y-8466816D02*
X14403050Y-8506816D01*
X14403050Y-8466816D02*
X14363050Y-8506816D01*
X14419685Y-10759447D02*
X14459685Y-10799447D01*
X14459685Y-10759447D02*
X14419685Y-10799447D01*
X14430050Y-7766545D02*
X14470050Y-7806545D01*
X14470050Y-7766545D02*
X14430050Y-7806545D01*
X14436050Y-7532277D02*
X14476050Y-7572277D01*
X14476050Y-7532277D02*
X14436050Y-7572277D01*
X14478000Y-8454000D02*
X14518000Y-8494000D01*
X14518000Y-8454000D02*
X14478000Y-8494000D01*
X14488550Y-7620000D02*
X14528550Y-7660000D01*
X14528550Y-7620000D02*
X14488550Y-7660000D01*
X14502950Y-8009538D02*
X14542950Y-8049538D01*
X14542950Y-8009538D02*
X14502950Y-8049538D01*
X14558000Y-5609000D02*
X14598000Y-5649000D01*
X14598000Y-5609000D02*
X14558000Y-5649000D01*
X14585436Y-8451000D02*
X14625436Y-8491000D01*
X14625436Y-8451000D02*
X14585436Y-8491000D01*
X14635800Y-6380800D02*
X14675800Y-6420800D01*
X14675800Y-6380800D02*
X14635800Y-6420800D01*
X14686600Y-8285800D02*
X14726600Y-8325800D01*
X14726600Y-8285800D02*
X14686600Y-8325800D01*
X14780000Y-5969000D02*
X14820000Y-6009000D01*
X14820000Y-5969000D02*
X14780000Y-6009000D01*
X14811000Y-6960000D02*
X14851000Y-7000000D01*
X14851000Y-6960000D02*
X14811000Y-7000000D01*
X14814000Y-7847000D02*
X14854000Y-7887000D01*
X14854000Y-7847000D02*
X14814000Y-7887000D01*
X14887000Y-5146000D02*
X14927000Y-5186000D01*
X14927000Y-5146000D02*
X14887000Y-5186000D01*
X14889800Y-6380800D02*
X14929800Y-6420800D01*
X14929800Y-6380800D02*
X14889800Y-6420800D01*
X14915200Y-6711000D02*
X14955200Y-6751000D01*
X14955200Y-6711000D02*
X14915200Y-6751000D01*
X14963000Y-8342000D02*
X15003000Y-8382000D01*
X15003000Y-8342000D02*
X14963000Y-8382000D01*
X15151000Y-10732000D02*
X15191000Y-10772000D01*
X15191000Y-10732000D02*
X15151000Y-10772000D01*
X15201000Y-12271000D02*
X15241000Y-12311000D01*
X15241000Y-12271000D02*
X15201000Y-12311000D01*
X15220000Y-8816000D02*
X15260000Y-8856000D01*
X15260000Y-8816000D02*
X15220000Y-8856000D01*
X15234000Y-9051450D02*
X15274000Y-9091450D01*
X15274000Y-9051450D02*
X15234000Y-9091450D01*
X15245947Y-6633053D02*
X15285947Y-6673053D01*
X15285947Y-6633053D02*
X15245947Y-6673053D01*
X15263000Y-11886000D02*
X15303000Y-11926000D01*
X15303000Y-11886000D02*
X15263000Y-11926000D01*
X15269462Y-8734951D02*
X15309462Y-8774951D01*
X15309462Y-8734951D02*
X15269462Y-8774951D01*
X15372400Y-8733940D02*
X15412400Y-8773940D01*
X15412400Y-8733940D02*
X15372400Y-8773940D01*
X15407943Y-12093942D02*
X15447943Y-12133942D01*
X15447943Y-12093942D02*
X15407943Y-12133942D01*
X15427000Y-11578000D02*
X15467000Y-11618000D01*
X15467000Y-11578000D02*
X15427000Y-11618000D01*
X15430200Y-6272200D02*
X15470200Y-6312200D01*
X15470200Y-6272200D02*
X15430200Y-6312200D01*
X15466686Y-8688940D02*
X15506686Y-8728940D01*
X15506686Y-8688940D02*
X15466686Y-8728940D01*
X15498000Y-12221000D02*
X15538000Y-12261000D01*
X15538000Y-12221000D02*
X15498000Y-12261000D01*
X15515000Y-8224000D02*
X15555000Y-8264000D01*
X15555000Y-8224000D02*
X15515000Y-8264000D01*
X15518000Y-6361000D02*
X15558000Y-6401000D01*
X15558000Y-6361000D02*
X15518000Y-6401000D01*
X15542050Y-7311050D02*
X15582050Y-7351050D01*
X15582050Y-7311050D02*
X15542050Y-7351050D01*
X15570000Y-11868000D02*
X15610000Y-11908000D01*
X15610000Y-11868000D02*
X15570000Y-11908000D01*
X15612000Y-8911340D02*
X15652000Y-8951340D01*
X15652000Y-8911340D02*
X15612000Y-8951340D01*
X15681950Y-7381000D02*
X15721950Y-7421000D01*
X15721950Y-7381000D02*
X15681950Y-7421000D01*
X15695000Y-8769000D02*
X15735000Y-8809000D01*
X15735000Y-8769000D02*
X15695000Y-8809000D01*
X15698113Y-8848890D02*
X15738113Y-8888890D01*
X15738113Y-8848890D02*
X15698113Y-8888890D01*
X15699000Y-8606000D02*
X15739000Y-8646000D01*
X15739000Y-8606000D02*
X15699000Y-8646000D01*
X15699000Y-8686000D02*
X15739000Y-8726000D01*
X15739000Y-8686000D02*
X15699000Y-8726000D01*
X15703000Y-11335000D02*
X15743000Y-11375000D01*
X15743000Y-11335000D02*
X15703000Y-11375000D01*
X15778800Y-5415600D02*
X15818800Y-5455600D01*
X15818800Y-5415600D02*
X15778800Y-5455600D01*
X15855000Y-6050600D02*
X15895000Y-6090600D01*
X15895000Y-6050600D02*
X15855000Y-6090600D01*
X16140000Y-10989000D02*
X16180000Y-11029000D01*
X16180000Y-10989000D02*
X16140000Y-11029000D01*
X16277000Y-14783000D02*
X16317000Y-14823000D01*
X16317000Y-14783000D02*
X16277000Y-14823000D01*
X16278000Y-9526000D02*
X16318000Y-9566000D01*
X16318000Y-9526000D02*
X16278000Y-9566000D01*
X16317000Y-14572000D02*
X16357000Y-14612000D01*
X16357000Y-14572000D02*
X16317000Y-14612000D01*
X16381000Y-13733000D02*
X16421000Y-13773000D01*
X16421000Y-13733000D02*
X16381000Y-13773000D01*
X16413800Y-11359200D02*
X16453800Y-11399200D01*
X16453800Y-11359200D02*
X16413800Y-11399200D01*
X16588000Y-12425000D02*
X16628000Y-12465000D01*
X16628000Y-12425000D02*
X16588000Y-12465000D01*
X16648000Y-13413000D02*
X16688000Y-13453000D01*
X16688000Y-13413000D02*
X16648000Y-13453000D01*
X16725000Y-8855950D02*
X16765000Y-8895950D01*
X16765000Y-8855950D02*
X16725000Y-8895950D01*
X16743000Y-5284000D02*
X16783000Y-5324000D01*
X16783000Y-5284000D02*
X16743000Y-5324000D01*
X16745000Y-4747000D02*
X16785000Y-4787000D01*
X16785000Y-4747000D02*
X16745000Y-4787000D01*
X16756000Y-11723000D02*
X16796000Y-11763000D01*
X16796000Y-11723000D02*
X16756000Y-11763000D01*
X16780000Y-14323000D02*
X16820000Y-14363000D01*
X16820000Y-14323000D02*
X16780000Y-14363000D01*
X17095000Y-14335000D02*
X17135000Y-14375000D01*
X17135000Y-14335000D02*
X17095000Y-14375000D01*
X17234000Y-13341000D02*
X17274000Y-13381000D01*
X17274000Y-13341000D02*
X17234000Y-13381000D01*
X17235000Y-11591000D02*
X17275000Y-11631000D01*
X17275000Y-11591000D02*
X17235000Y-11631000D01*
X17411590Y-13388411D02*
X17451590Y-13428411D01*
X17451590Y-13388411D02*
X17411590Y-13428411D01*
X17431000Y-13947000D02*
X17471000Y-13987000D01*
X17471000Y-13947000D02*
X17431000Y-13987000D01*
X17447778Y-9010000D02*
X17487778Y-9050000D01*
X17487778Y-9010000D02*
X17447778Y-9050000D01*
X17497000Y-14304000D02*
X17537000Y-14344000D01*
X17537000Y-14304000D02*
X17497000Y-14344000D01*
X17846000Y-13565000D02*
X17886000Y-13605000D01*
X17886000Y-13565000D02*
X17846000Y-13605000D01*
X17857000Y-13725000D02*
X17897000Y-13765000D01*
X17897000Y-13725000D02*
X17857000Y-13765000D01*
X17877000Y-9177000D02*
X17917000Y-9217000D01*
X17917000Y-9177000D02*
X17877000Y-9217000D01*
X17930000Y-11171000D02*
X17970000Y-11211000D01*
X17970000Y-11171000D02*
X17930000Y-11211000D01*
X18097660Y-13649080D02*
X18137660Y-13689080D01*
X18137660Y-13649080D02*
X18097660Y-13689080D01*
X18232000Y-14228200D02*
X18272000Y-14268200D01*
X18272000Y-14228200D02*
X18232000Y-14268200D01*
X18270038Y-8971038D02*
X18310038Y-9011038D01*
X18310038Y-8971038D02*
X18270038Y-9011038D01*
X18310000Y-13551000D02*
X18350000Y-13591000D01*
X18350000Y-13551000D02*
X18310000Y-13591000D01*
X18328000Y-13710000D02*
X18368000Y-13750000D01*
X18368000Y-13710000D02*
X18328000Y-13750000D01*
X18514000Y-9904000D02*
X18554000Y-9944000D01*
X18554000Y-9904000D02*
X18514000Y-9944000D01*
X18613000Y-13076000D02*
X18653000Y-13116000D01*
X18653000Y-13076000D02*
X18613000Y-13116000D01*
X18620900Y-13796400D02*
X18660900Y-13836400D01*
X18660900Y-13796400D02*
X18620900Y-13836400D01*
X18633962Y-8725038D02*
X18673962Y-8765038D01*
X18673962Y-8725038D02*
X18633962Y-8765038D01*
X18757000Y-9255000D02*
X18797000Y-9295000D01*
X18797000Y-9255000D02*
X18757000Y-9295000D01*
X18758000Y-12842000D02*
X18798000Y-12882000D01*
X18798000Y-12842000D02*
X18758000Y-12882000D01*
X18951000Y-14903000D02*
X18991000Y-14943000D01*
X18991000Y-14903000D02*
X18951000Y-14943000D01*
X19110000Y-13458500D02*
X19150000Y-13498500D01*
X19150000Y-13458500D02*
X19110000Y-13498500D01*
X19157000Y-13708700D02*
X19197000Y-13748700D01*
X19197000Y-13708700D02*
X19157000Y-13748700D01*
X19168000Y-9510000D02*
X19208000Y-9550000D01*
X19208000Y-9510000D02*
X19168000Y-9550000D01*
X19469000Y-15608000D02*
X19509000Y-15648000D01*
X19509000Y-15608000D02*
X19469000Y-15648000D01*
X19721000Y-13124000D02*
X19761000Y-13164000D01*
X19761000Y-13124000D02*
X19721000Y-13164000D01*
X19881000Y-14174000D02*
X19921000Y-14214000D01*
X19921000Y-14174000D02*
X19881000Y-14214000D01*
X19923000Y-13637000D02*
X19963000Y-13677000D01*
X19963000Y-13637000D02*
X19923000Y-13677000D01*
X20352000Y-8686000D02*
X20392000Y-8726000D01*
X20392000Y-8686000D02*
X20352000Y-8726000D01*
X20474000Y-8732000D02*
X20514000Y-8772000D01*
X20514000Y-8732000D02*
X20474000Y-8772000D01*
X20484000Y-13093000D02*
X20524000Y-13133000D01*
X20524000Y-13093000D02*
X20484000Y-13133000D01*
X20526000Y-12842000D02*
X20566000Y-12882000D01*
X20566000Y-12842000D02*
X20526000Y-12882000D01*
X20655600Y-12959400D02*
X20695600Y-12999400D01*
X20695600Y-12959400D02*
X20655600Y-12999400D01*
X20706400Y-13035600D02*
X20746400Y-13075600D01*
X20746400Y-13035600D02*
X20706400Y-13075600D01*
X20833400Y-12807000D02*
X20873400Y-12847000D01*
X20873400Y-12807000D02*
X20833400Y-12847000D01*
X20935000Y-12832400D02*
X20975000Y-12872400D01*
X20975000Y-12832400D02*
X20935000Y-12872400D01*
X21027000Y-15536000D02*
X21067000Y-15576000D01*
X21067000Y-15536000D02*
X21027000Y-15576000D01*
X21046000Y-6310000D02*
X21086000Y-6350000D01*
X21086000Y-6310000D02*
X21046000Y-6350000D01*
X21183000Y-5706000D02*
X21223000Y-5746000D01*
X21223000Y-5706000D02*
X21183000Y-5746000D01*
X21265200Y-12172000D02*
X21305200Y-12212000D01*
X21305200Y-12172000D02*
X21265200Y-12212000D01*
X21265200Y-12807000D02*
X21305200Y-12847000D01*
X21305200Y-12807000D02*
X21265200Y-12847000D01*
X21519200Y-12172000D02*
X21559200Y-12212000D01*
X21559200Y-12172000D02*
X21519200Y-12212000D01*
X21519200Y-12807000D02*
X21559200Y-12847000D01*
X21559200Y-12807000D02*
X21519200Y-12847000D01*
D13*
X16604000Y-15273000D02*
G75*
G03*
X16604000Y-15273000I-30000J0D01*
G01*
D11*
X16604000Y-15328000D02*
X16604000Y-15218000D01*
X16604000Y-15218000D02*
G75*
G03*
X16544000Y-15218000I-30000J0D01*
G01*
X16544000Y-15218000D02*
X16544000Y-15328000D01*
X16544000Y-15328000D02*
G75*
G03*
X16604000Y-15328000I30000J0D01*
G01*
D13*
X16604000Y-15688000D02*
G75*
G03*
X16604000Y-15688000I-30000J0D01*
G01*
D11*
X16604000Y-15728000D02*
X16604000Y-15648000D01*
X16604000Y-15648000D02*
G75*
G03*
X16544000Y-15648000I-30000J0D01*
G01*
X16544000Y-15648000D02*
X16544000Y-15728000D01*
X16544000Y-15728000D02*
G75*
G03*
X16604000Y-15728000I30000J0D01*
G01*
D13*
X17468000Y-15273000D02*
G75*
G03*
X17468000Y-15273000I-30000J0D01*
G01*
D11*
X17468000Y-15328000D02*
X17468000Y-15218000D01*
X17468000Y-15218000D02*
G75*
G03*
X17408000Y-15218000I-30000J0D01*
G01*
X17408000Y-15218000D02*
X17408000Y-15328000D01*
X17408000Y-15328000D02*
G75*
G03*
X17468000Y-15328000I30000J0D01*
G01*
D13*
X17468000Y-15688000D02*
G75*
G03*
X17468000Y-15688000I-30000J0D01*
G01*
D11*
X17468000Y-15728000D02*
X17468000Y-15648000D01*
X17468000Y-15648000D02*
G75*
G03*
X17408000Y-15648000I-30000J0D01*
G01*
X17408000Y-15648000D02*
X17408000Y-15728000D01*
X17408000Y-15728000D02*
G75*
G03*
X17468000Y-15728000I30000J0D01*
G01*
D10*
X12802000Y-5058000D02*
X12802000Y-5158000D01*
X12752000Y-5108000D02*
X12852000Y-5108000D01*
X12802000Y-5308000D02*
X12802000Y-5408000D01*
X12752000Y-5358000D02*
X12852000Y-5358000D01*
X12802000Y-5558000D02*
X12802000Y-5658000D01*
X12752000Y-5608000D02*
X12852000Y-5608000D01*
X12827000Y-14877000D02*
X12827000Y-14977000D01*
X12777000Y-14927000D02*
X12877000Y-14927000D01*
X12827000Y-15127000D02*
X12827000Y-15227000D01*
X12777000Y-15177000D02*
X12877000Y-15177000D01*
X12827000Y-15377000D02*
X12827000Y-15477000D01*
X12777000Y-15427000D02*
X12877000Y-15427000D01*
X14252000Y-5058000D02*
X14252000Y-5158000D01*
X14202000Y-5108000D02*
X14302000Y-5108000D01*
X14252000Y-5558000D02*
X14252000Y-5658000D01*
X14202000Y-5608000D02*
X14302000Y-5608000D01*
X14277000Y-14877000D02*
X14277000Y-14977000D01*
X14227000Y-14927000D02*
X14327000Y-14927000D01*
X14277000Y-15377000D02*
X14277000Y-15477000D01*
X14227000Y-15427000D02*
X14327000Y-15427000D01*
X16804000Y-12784000D02*
X16804000Y-12884000D01*
X16754000Y-12834000D02*
X16854000Y-12834000D01*
X17058000Y-12784000D02*
X17058000Y-12884000D01*
X17008000Y-12834000D02*
X17108000Y-12834000D01*
X17312000Y-12784000D02*
X17312000Y-12884000D01*
X17262000Y-12834000D02*
X17362000Y-12834000D01*
X17566000Y-12784000D02*
X17566000Y-12884000D01*
X17516000Y-12834000D02*
X17616000Y-12834000D01*
X17820000Y-12784000D02*
X17820000Y-12884000D01*
X17770000Y-12834000D02*
X17870000Y-12834000D01*
X18074000Y-12784000D02*
X18074000Y-12884000D01*
X18024000Y-12834000D02*
X18124000Y-12834000D01*
X18328000Y-12784000D02*
X18328000Y-12884000D01*
X18278000Y-12834000D02*
X18378000Y-12834000D01*
D14*
X21103921Y-6560921D02*
X21103921Y-6489079D01*
X21032079Y-6489079D01*
X21032079Y-6560921D01*
X21103921Y-6560921D01*
X21103921Y-6814921D02*
X21103921Y-6743079D01*
X21032079Y-6743079D01*
X21032079Y-6814921D01*
X21103921Y-6814921D01*
X21103921Y-7068921D02*
X21103921Y-6997079D01*
X21032079Y-6997079D01*
X21032079Y-7068921D01*
X21103921Y-7068921D01*
X21357921Y-6560921D02*
X21357921Y-6489079D01*
X21286079Y-6489079D01*
X21286079Y-6560921D01*
X21357921Y-6560921D01*
X21357921Y-6814921D02*
X21357921Y-6743079D01*
X21286079Y-6743079D01*
X21286079Y-6814921D01*
X21357921Y-6814921D01*
X21357921Y-7068921D02*
X21357921Y-6997079D01*
X21286079Y-6997079D01*
X21286079Y-7068921D01*
X21357921Y-7068921D01*
D15*
X13552000Y-4928000D02*
X13682000Y-4798000D01*
X13552000Y-4668000D01*
X13422000Y-4798000D01*
X13552000Y-4928000D01*
X13552000Y-6048000D02*
X13682000Y-5918000D01*
X13552000Y-5788000D01*
X13422000Y-5918000D01*
X13552000Y-6048000D01*
X13577000Y-14747000D02*
X13707000Y-14617000D01*
X13577000Y-14487000D01*
X13447000Y-14617000D01*
X13577000Y-14747000D01*
X13577000Y-15867000D02*
X13707000Y-15737000D01*
X13577000Y-15607000D01*
X13447000Y-15737000D01*
X13577000Y-15867000D01*
D16*
X21162000Y-4676000D02*
X21712000Y-5226000D01*
X21712000Y-4676000D02*
X21162000Y-5226000D01*
X21712000Y-4951000D02*
G75*
G03*
X21712000Y-4951000I-275000J0D01*
G01*
X21194000Y-15292000D02*
X21744000Y-15842000D01*
X21744000Y-15292000D02*
X21194000Y-15842000D01*
X21744000Y-15567000D02*
G75*
G03*
X21744000Y-15567000I-275000J0D01*
G01*
D11*
X12536777Y-16266484D02*
X12536777Y-16066484D01*
X12536777Y-16066484D02*
X12584396Y-16066484D01*
X12584396Y-16066484D02*
X12612967Y-16076008D01*
X12612967Y-16076008D02*
X12632015Y-16095055D01*
X12632015Y-16095055D02*
X12641539Y-16114103D01*
X12641539Y-16114103D02*
X12651062Y-16152198D01*
X12651062Y-16152198D02*
X12651062Y-16180769D01*
X12651062Y-16180769D02*
X12641539Y-16218865D01*
X12641539Y-16218865D02*
X12632015Y-16237912D01*
X12632015Y-16237912D02*
X12612967Y-16256960D01*
X12612967Y-16256960D02*
X12584396Y-16266484D01*
X12584396Y-16266484D02*
X12536777Y-16266484D01*
X12736777Y-16266484D02*
X12736777Y-16133150D01*
X12736777Y-16171246D02*
X12746301Y-16152198D01*
X12746301Y-16152198D02*
X12755824Y-16142674D01*
X12755824Y-16142674D02*
X12774872Y-16133150D01*
X12774872Y-16133150D02*
X12793920Y-16133150D01*
X12860586Y-16266484D02*
X12860586Y-16133150D01*
X12860586Y-16066484D02*
X12851062Y-16076008D01*
X12851062Y-16076008D02*
X12860586Y-16085531D01*
X12860586Y-16085531D02*
X12870110Y-16076008D01*
X12870110Y-16076008D02*
X12860586Y-16066484D01*
X12860586Y-16066484D02*
X12860586Y-16085531D01*
X12984396Y-16266484D02*
X12965348Y-16256960D01*
X12965348Y-16256960D02*
X12955824Y-16237912D01*
X12955824Y-16237912D02*
X12955824Y-16066484D01*
X13089158Y-16266484D02*
X13070110Y-16256960D01*
X13070110Y-16256960D02*
X13060586Y-16237912D01*
X13060586Y-16237912D02*
X13060586Y-16066484D01*
X13317729Y-16266484D02*
X13317729Y-16066484D01*
X13317729Y-16066484D02*
X13384396Y-16209341D01*
X13384396Y-16209341D02*
X13451062Y-16066484D01*
X13451062Y-16066484D02*
X13451062Y-16266484D01*
X13632015Y-16266484D02*
X13632015Y-16161722D01*
X13632015Y-16161722D02*
X13622491Y-16142674D01*
X13622491Y-16142674D02*
X13603443Y-16133150D01*
X13603443Y-16133150D02*
X13565348Y-16133150D01*
X13565348Y-16133150D02*
X13546301Y-16142674D01*
X13632015Y-16256960D02*
X13612967Y-16266484D01*
X13612967Y-16266484D02*
X13565348Y-16266484D01*
X13565348Y-16266484D02*
X13546301Y-16256960D01*
X13546301Y-16256960D02*
X13536777Y-16237912D01*
X13536777Y-16237912D02*
X13536777Y-16218865D01*
X13536777Y-16218865D02*
X13546301Y-16199817D01*
X13546301Y-16199817D02*
X13565348Y-16190293D01*
X13565348Y-16190293D02*
X13612967Y-16190293D01*
X13612967Y-16190293D02*
X13632015Y-16180769D01*
X13727253Y-16133150D02*
X13727253Y-16333150D01*
X13727253Y-16142674D02*
X13746301Y-16133150D01*
X13746301Y-16133150D02*
X13784396Y-16133150D01*
X13784396Y-16133150D02*
X13803443Y-16142674D01*
X13803443Y-16142674D02*
X13812967Y-16152198D01*
X13812967Y-16152198D02*
X13822491Y-16171246D01*
X13822491Y-16171246D02*
X13822491Y-16228388D01*
X13822491Y-16228388D02*
X13812967Y-16247436D01*
X13812967Y-16247436D02*
X13803443Y-16256960D01*
X13803443Y-16256960D02*
X13784396Y-16266484D01*
X13784396Y-16266484D02*
X13746301Y-16266484D01*
X13746301Y-16266484D02*
X13727253Y-16256960D01*
X13908205Y-16247436D02*
X13917729Y-16256960D01*
X13917729Y-16256960D02*
X13908205Y-16266484D01*
X13908205Y-16266484D02*
X13898682Y-16256960D01*
X13898682Y-16256960D02*
X13908205Y-16247436D01*
X13908205Y-16247436D02*
X13908205Y-16266484D01*
X13908205Y-16142674D02*
X13917729Y-16152198D01*
X13917729Y-16152198D02*
X13908205Y-16161722D01*
X13908205Y-16161722D02*
X13898682Y-16152198D01*
X13898682Y-16152198D02*
X13908205Y-16142674D01*
X13908205Y-16142674D02*
X13908205Y-16161722D01*
D12*
X12236000Y-16575000D02*
X12276000Y-16615000D01*
X12276000Y-16575000D02*
X12236000Y-16615000D01*
D11*
X12574872Y-16486484D02*
X12593920Y-16486484D01*
X12593920Y-16486484D02*
X12612967Y-16496008D01*
X12612967Y-16496008D02*
X12622491Y-16505531D01*
X12622491Y-16505531D02*
X12632015Y-16524579D01*
X12632015Y-16524579D02*
X12641539Y-16562674D01*
X12641539Y-16562674D02*
X12641539Y-16610293D01*
X12641539Y-16610293D02*
X12632015Y-16648388D01*
X12632015Y-16648388D02*
X12622491Y-16667436D01*
X12622491Y-16667436D02*
X12612967Y-16676960D01*
X12612967Y-16676960D02*
X12593920Y-16686484D01*
X12593920Y-16686484D02*
X12574872Y-16686484D01*
X12574872Y-16686484D02*
X12555824Y-16676960D01*
X12555824Y-16676960D02*
X12546301Y-16667436D01*
X12546301Y-16667436D02*
X12536777Y-16648388D01*
X12536777Y-16648388D02*
X12527253Y-16610293D01*
X12527253Y-16610293D02*
X12527253Y-16562674D01*
X12527253Y-16562674D02*
X12536777Y-16524579D01*
X12536777Y-16524579D02*
X12546301Y-16505531D01*
X12546301Y-16505531D02*
X12555824Y-16496008D01*
X12555824Y-16496008D02*
X12574872Y-16486484D01*
X12727253Y-16667436D02*
X12736777Y-16676960D01*
X12736777Y-16676960D02*
X12727253Y-16686484D01*
X12727253Y-16686484D02*
X12717729Y-16676960D01*
X12717729Y-16676960D02*
X12727253Y-16667436D01*
X12727253Y-16667436D02*
X12727253Y-16686484D01*
X12908205Y-16553150D02*
X12908205Y-16686484D01*
X12860586Y-16476960D02*
X12812967Y-16619817D01*
X12812967Y-16619817D02*
X12936777Y-16619817D01*
X13051062Y-16486484D02*
X13070110Y-16486484D01*
X13070110Y-16486484D02*
X13089158Y-16496008D01*
X13089158Y-16496008D02*
X13098682Y-16505531D01*
X13098682Y-16505531D02*
X13108205Y-16524579D01*
X13108205Y-16524579D02*
X13117729Y-16562674D01*
X13117729Y-16562674D02*
X13117729Y-16610293D01*
X13117729Y-16610293D02*
X13108205Y-16648388D01*
X13108205Y-16648388D02*
X13098682Y-16667436D01*
X13098682Y-16667436D02*
X13089158Y-16676960D01*
X13089158Y-16676960D02*
X13070110Y-16686484D01*
X13070110Y-16686484D02*
X13051062Y-16686484D01*
X13051062Y-16686484D02*
X13032015Y-16676960D01*
X13032015Y-16676960D02*
X13022491Y-16667436D01*
X13022491Y-16667436D02*
X13012967Y-16648388D01*
X13012967Y-16648388D02*
X13003443Y-16610293D01*
X13003443Y-16610293D02*
X13003443Y-16562674D01*
X13003443Y-16562674D02*
X13012967Y-16524579D01*
X13012967Y-16524579D02*
X13022491Y-16505531D01*
X13022491Y-16505531D02*
X13032015Y-16496008D01*
X13032015Y-16496008D02*
X13051062Y-16486484D01*
X13241539Y-16486484D02*
X13260586Y-16486484D01*
X13260586Y-16486484D02*
X13279634Y-16496008D01*
X13279634Y-16496008D02*
X13289158Y-16505531D01*
X13289158Y-16505531D02*
X13298682Y-16524579D01*
X13298682Y-16524579D02*
X13308205Y-16562674D01*
X13308205Y-16562674D02*
X13308205Y-16610293D01*
X13308205Y-16610293D02*
X13298682Y-16648388D01*
X13298682Y-16648388D02*
X13289158Y-16667436D01*
X13289158Y-16667436D02*
X13279634Y-16676960D01*
X13279634Y-16676960D02*
X13260586Y-16686484D01*
X13260586Y-16686484D02*
X13241539Y-16686484D01*
X13241539Y-16686484D02*
X13222491Y-16676960D01*
X13222491Y-16676960D02*
X13212967Y-16667436D01*
X13212967Y-16667436D02*
X13203443Y-16648388D01*
X13203443Y-16648388D02*
X13193920Y-16610293D01*
X13193920Y-16610293D02*
X13193920Y-16562674D01*
X13193920Y-16562674D02*
X13203443Y-16524579D01*
X13203443Y-16524579D02*
X13212967Y-16505531D01*
X13212967Y-16505531D02*
X13222491Y-16496008D01*
X13222491Y-16496008D02*
X13241539Y-16486484D01*
X13393920Y-16686484D02*
X13393920Y-16553150D01*
X13393920Y-16572198D02*
X13403443Y-16562674D01*
X13403443Y-16562674D02*
X13422491Y-16553150D01*
X13422491Y-16553150D02*
X13451063Y-16553150D01*
X13451063Y-16553150D02*
X13470110Y-16562674D01*
X13470110Y-16562674D02*
X13479634Y-16581722D01*
X13479634Y-16581722D02*
X13479634Y-16686484D01*
X13479634Y-16581722D02*
X13489158Y-16562674D01*
X13489158Y-16562674D02*
X13508205Y-16553150D01*
X13508205Y-16553150D02*
X13536777Y-16553150D01*
X13536777Y-16553150D02*
X13555824Y-16562674D01*
X13555824Y-16562674D02*
X13565348Y-16581722D01*
X13565348Y-16581722D02*
X13565348Y-16686484D01*
X13660586Y-16686484D02*
X13660586Y-16553150D01*
X13660586Y-16572198D02*
X13670110Y-16562674D01*
X13670110Y-16562674D02*
X13689158Y-16553150D01*
X13689158Y-16553150D02*
X13717729Y-16553150D01*
X13717729Y-16553150D02*
X13736777Y-16562674D01*
X13736777Y-16562674D02*
X13746301Y-16581722D01*
X13746301Y-16581722D02*
X13746301Y-16686484D01*
X13746301Y-16581722D02*
X13755824Y-16562674D01*
X13755824Y-16562674D02*
X13774872Y-16553150D01*
X13774872Y-16553150D02*
X13803443Y-16553150D01*
X13803443Y-16553150D02*
X13822491Y-16562674D01*
X13822491Y-16562674D02*
X13832015Y-16581722D01*
X13832015Y-16581722D02*
X13832015Y-16686484D01*
X14222491Y-16476960D02*
X14051063Y-16734103D01*
X14479634Y-16486484D02*
X14498682Y-16486484D01*
X14498682Y-16486484D02*
X14517729Y-16496008D01*
X14517729Y-16496008D02*
X14527253Y-16505531D01*
X14527253Y-16505531D02*
X14536777Y-16524579D01*
X14536777Y-16524579D02*
X14546301Y-16562674D01*
X14546301Y-16562674D02*
X14546301Y-16610293D01*
X14546301Y-16610293D02*
X14536777Y-16648388D01*
X14536777Y-16648388D02*
X14527253Y-16667436D01*
X14527253Y-16667436D02*
X14517729Y-16676960D01*
X14517729Y-16676960D02*
X14498682Y-16686484D01*
X14498682Y-16686484D02*
X14479634Y-16686484D01*
X14479634Y-16686484D02*
X14460586Y-16676960D01*
X14460586Y-16676960D02*
X14451063Y-16667436D01*
X14451063Y-16667436D02*
X14441539Y-16648388D01*
X14441539Y-16648388D02*
X14432015Y-16610293D01*
X14432015Y-16610293D02*
X14432015Y-16562674D01*
X14432015Y-16562674D02*
X14441539Y-16524579D01*
X14441539Y-16524579D02*
X14451063Y-16505531D01*
X14451063Y-16505531D02*
X14460586Y-16496008D01*
X14460586Y-16496008D02*
X14479634Y-16486484D01*
X14632015Y-16667436D02*
X14641539Y-16676960D01*
X14641539Y-16676960D02*
X14632015Y-16686484D01*
X14632015Y-16686484D02*
X14622491Y-16676960D01*
X14622491Y-16676960D02*
X14632015Y-16667436D01*
X14632015Y-16667436D02*
X14632015Y-16686484D01*
X14765348Y-16486484D02*
X14784396Y-16486484D01*
X14784396Y-16486484D02*
X14803444Y-16496008D01*
X14803444Y-16496008D02*
X14812967Y-16505531D01*
X14812967Y-16505531D02*
X14822491Y-16524579D01*
X14822491Y-16524579D02*
X14832015Y-16562674D01*
X14832015Y-16562674D02*
X14832015Y-16610293D01*
X14832015Y-16610293D02*
X14822491Y-16648388D01*
X14822491Y-16648388D02*
X14812967Y-16667436D01*
X14812967Y-16667436D02*
X14803444Y-16676960D01*
X14803444Y-16676960D02*
X14784396Y-16686484D01*
X14784396Y-16686484D02*
X14765348Y-16686484D01*
X14765348Y-16686484D02*
X14746301Y-16676960D01*
X14746301Y-16676960D02*
X14736777Y-16667436D01*
X14736777Y-16667436D02*
X14727253Y-16648388D01*
X14727253Y-16648388D02*
X14717729Y-16610293D01*
X14717729Y-16610293D02*
X14717729Y-16562674D01*
X14717729Y-16562674D02*
X14727253Y-16524579D01*
X14727253Y-16524579D02*
X14736777Y-16505531D01*
X14736777Y-16505531D02*
X14746301Y-16496008D01*
X14746301Y-16496008D02*
X14765348Y-16486484D01*
X15022491Y-16686484D02*
X14908206Y-16686484D01*
X14965348Y-16686484D02*
X14965348Y-16486484D01*
X14965348Y-16486484D02*
X14946301Y-16515055D01*
X14946301Y-16515055D02*
X14927253Y-16534103D01*
X14927253Y-16534103D02*
X14908206Y-16543627D01*
X15203444Y-16486484D02*
X15108206Y-16486484D01*
X15108206Y-16486484D02*
X15098682Y-16581722D01*
X15098682Y-16581722D02*
X15108206Y-16572198D01*
X15108206Y-16572198D02*
X15127253Y-16562674D01*
X15127253Y-16562674D02*
X15174872Y-16562674D01*
X15174872Y-16562674D02*
X15193920Y-16572198D01*
X15193920Y-16572198D02*
X15203444Y-16581722D01*
X15203444Y-16581722D02*
X15212967Y-16600769D01*
X15212967Y-16600769D02*
X15212967Y-16648388D01*
X15212967Y-16648388D02*
X15203444Y-16667436D01*
X15203444Y-16667436D02*
X15193920Y-16676960D01*
X15193920Y-16676960D02*
X15174872Y-16686484D01*
X15174872Y-16686484D02*
X15127253Y-16686484D01*
X15127253Y-16686484D02*
X15108206Y-16676960D01*
X15108206Y-16676960D02*
X15098682Y-16667436D01*
X15279634Y-16486484D02*
X15412967Y-16486484D01*
X15412967Y-16486484D02*
X15327253Y-16686484D01*
X15479634Y-16486484D02*
X15479634Y-16524579D01*
X15555825Y-16486484D02*
X15555825Y-16524579D01*
X15851063Y-16762674D02*
X15841539Y-16753150D01*
X15841539Y-16753150D02*
X15822491Y-16724579D01*
X15822491Y-16724579D02*
X15812968Y-16705531D01*
X15812968Y-16705531D02*
X15803444Y-16676960D01*
X15803444Y-16676960D02*
X15793920Y-16629341D01*
X15793920Y-16629341D02*
X15793920Y-16591246D01*
X15793920Y-16591246D02*
X15803444Y-16543627D01*
X15803444Y-16543627D02*
X15812968Y-16515055D01*
X15812968Y-16515055D02*
X15822491Y-16496008D01*
X15822491Y-16496008D02*
X15841539Y-16467436D01*
X15841539Y-16467436D02*
X15851063Y-16457912D01*
X16032015Y-16686484D02*
X15917729Y-16686484D01*
X15974872Y-16686484D02*
X15974872Y-16486484D01*
X15974872Y-16486484D02*
X15955825Y-16515055D01*
X15955825Y-16515055D02*
X15936777Y-16534103D01*
X15936777Y-16534103D02*
X15917729Y-16543627D01*
X16098682Y-16486484D02*
X16222491Y-16486484D01*
X16222491Y-16486484D02*
X16155825Y-16562674D01*
X16155825Y-16562674D02*
X16184396Y-16562674D01*
X16184396Y-16562674D02*
X16203444Y-16572198D01*
X16203444Y-16572198D02*
X16212968Y-16581722D01*
X16212968Y-16581722D02*
X16222491Y-16600769D01*
X16222491Y-16600769D02*
X16222491Y-16648388D01*
X16222491Y-16648388D02*
X16212968Y-16667436D01*
X16212968Y-16667436D02*
X16203444Y-16676960D01*
X16203444Y-16676960D02*
X16184396Y-16686484D01*
X16184396Y-16686484D02*
X16127253Y-16686484D01*
X16127253Y-16686484D02*
X16108206Y-16676960D01*
X16108206Y-16676960D02*
X16098682Y-16667436D01*
X16403444Y-16486484D02*
X16308206Y-16486484D01*
X16308206Y-16486484D02*
X16298682Y-16581722D01*
X16298682Y-16581722D02*
X16308206Y-16572198D01*
X16308206Y-16572198D02*
X16327253Y-16562674D01*
X16327253Y-16562674D02*
X16374872Y-16562674D01*
X16374872Y-16562674D02*
X16393920Y-16572198D01*
X16393920Y-16572198D02*
X16403444Y-16581722D01*
X16403444Y-16581722D02*
X16412968Y-16600769D01*
X16412968Y-16600769D02*
X16412968Y-16648388D01*
X16412968Y-16648388D02*
X16403444Y-16667436D01*
X16403444Y-16667436D02*
X16393920Y-16676960D01*
X16393920Y-16676960D02*
X16374872Y-16686484D01*
X16374872Y-16686484D02*
X16327253Y-16686484D01*
X16327253Y-16686484D02*
X16308206Y-16676960D01*
X16308206Y-16676960D02*
X16298682Y-16667436D01*
X16651063Y-16686484D02*
X16651063Y-16486484D01*
X16736777Y-16686484D02*
X16736777Y-16581722D01*
X16736777Y-16581722D02*
X16727253Y-16562674D01*
X16727253Y-16562674D02*
X16708206Y-16553150D01*
X16708206Y-16553150D02*
X16679634Y-16553150D01*
X16679634Y-16553150D02*
X16660587Y-16562674D01*
X16660587Y-16562674D02*
X16651063Y-16572198D01*
X16860587Y-16686484D02*
X16841539Y-16676960D01*
X16841539Y-16676960D02*
X16832015Y-16667436D01*
X16832015Y-16667436D02*
X16822492Y-16648388D01*
X16822492Y-16648388D02*
X16822492Y-16591246D01*
X16822492Y-16591246D02*
X16832015Y-16572198D01*
X16832015Y-16572198D02*
X16841539Y-16562674D01*
X16841539Y-16562674D02*
X16860587Y-16553150D01*
X16860587Y-16553150D02*
X16889158Y-16553150D01*
X16889158Y-16553150D02*
X16908206Y-16562674D01*
X16908206Y-16562674D02*
X16917730Y-16572198D01*
X16917730Y-16572198D02*
X16927253Y-16591246D01*
X16927253Y-16591246D02*
X16927253Y-16648388D01*
X16927253Y-16648388D02*
X16917730Y-16667436D01*
X16917730Y-16667436D02*
X16908206Y-16676960D01*
X16908206Y-16676960D02*
X16889158Y-16686484D01*
X16889158Y-16686484D02*
X16860587Y-16686484D01*
X17041539Y-16686484D02*
X17022492Y-16676960D01*
X17022492Y-16676960D02*
X17012968Y-16657912D01*
X17012968Y-16657912D02*
X17012968Y-16486484D01*
X17193920Y-16676960D02*
X17174873Y-16686484D01*
X17174873Y-16686484D02*
X17136777Y-16686484D01*
X17136777Y-16686484D02*
X17117730Y-16676960D01*
X17117730Y-16676960D02*
X17108206Y-16657912D01*
X17108206Y-16657912D02*
X17108206Y-16581722D01*
X17108206Y-16581722D02*
X17117730Y-16562674D01*
X17117730Y-16562674D02*
X17136777Y-16553150D01*
X17136777Y-16553150D02*
X17174873Y-16553150D01*
X17174873Y-16553150D02*
X17193920Y-16562674D01*
X17193920Y-16562674D02*
X17203444Y-16581722D01*
X17203444Y-16581722D02*
X17203444Y-16600769D01*
X17203444Y-16600769D02*
X17108206Y-16619817D01*
X17279634Y-16676960D02*
X17298682Y-16686484D01*
X17298682Y-16686484D02*
X17336777Y-16686484D01*
X17336777Y-16686484D02*
X17355825Y-16676960D01*
X17355825Y-16676960D02*
X17365349Y-16657912D01*
X17365349Y-16657912D02*
X17365349Y-16648388D01*
X17365349Y-16648388D02*
X17355825Y-16629341D01*
X17355825Y-16629341D02*
X17336777Y-16619817D01*
X17336777Y-16619817D02*
X17308206Y-16619817D01*
X17308206Y-16619817D02*
X17289158Y-16610293D01*
X17289158Y-16610293D02*
X17279634Y-16591246D01*
X17279634Y-16591246D02*
X17279634Y-16581722D01*
X17279634Y-16581722D02*
X17289158Y-16562674D01*
X17289158Y-16562674D02*
X17308206Y-16553150D01*
X17308206Y-16553150D02*
X17336777Y-16553150D01*
X17336777Y-16553150D02*
X17355825Y-16562674D01*
X17432015Y-16762674D02*
X17441539Y-16753150D01*
X17441539Y-16753150D02*
X17460587Y-16724579D01*
X17460587Y-16724579D02*
X17470111Y-16705531D01*
X17470111Y-16705531D02*
X17479634Y-16676960D01*
X17479634Y-16676960D02*
X17489158Y-16629341D01*
X17489158Y-16629341D02*
X17489158Y-16591246D01*
X17489158Y-16591246D02*
X17479634Y-16543627D01*
X17479634Y-16543627D02*
X17470111Y-16515055D01*
X17470111Y-16515055D02*
X17460587Y-16496008D01*
X17460587Y-16496008D02*
X17441539Y-16467436D01*
X17441539Y-16467436D02*
X17432015Y-16457912D01*
D13*
X12276000Y-16859000D02*
G75*
G03*
X12276000Y-16859000I-30000J0D01*
G01*
D11*
X12574872Y-16750484D02*
X12593920Y-16750484D01*
X12593920Y-16750484D02*
X12612967Y-16760008D01*
X12612967Y-16760008D02*
X12622491Y-16769531D01*
X12622491Y-16769531D02*
X12632015Y-16788579D01*
X12632015Y-16788579D02*
X12641539Y-16826674D01*
X12641539Y-16826674D02*
X12641539Y-16874293D01*
X12641539Y-16874293D02*
X12632015Y-16912389D01*
X12632015Y-16912389D02*
X12622491Y-16931436D01*
X12622491Y-16931436D02*
X12612967Y-16940960D01*
X12612967Y-16940960D02*
X12593920Y-16950484D01*
X12593920Y-16950484D02*
X12574872Y-16950484D01*
X12574872Y-16950484D02*
X12555824Y-16940960D01*
X12555824Y-16940960D02*
X12546301Y-16931436D01*
X12546301Y-16931436D02*
X12536777Y-16912389D01*
X12536777Y-16912389D02*
X12527253Y-16874293D01*
X12527253Y-16874293D02*
X12527253Y-16826674D01*
X12527253Y-16826674D02*
X12536777Y-16788579D01*
X12536777Y-16788579D02*
X12546301Y-16769531D01*
X12546301Y-16769531D02*
X12555824Y-16760008D01*
X12555824Y-16760008D02*
X12574872Y-16750484D01*
X12727253Y-16931436D02*
X12736777Y-16940960D01*
X12736777Y-16940960D02*
X12727253Y-16950484D01*
X12727253Y-16950484D02*
X12717729Y-16940960D01*
X12717729Y-16940960D02*
X12727253Y-16931436D01*
X12727253Y-16931436D02*
X12727253Y-16950484D01*
X12908205Y-16750484D02*
X12870110Y-16750484D01*
X12870110Y-16750484D02*
X12851062Y-16760008D01*
X12851062Y-16760008D02*
X12841539Y-16769531D01*
X12841539Y-16769531D02*
X12822491Y-16798103D01*
X12822491Y-16798103D02*
X12812967Y-16836198D01*
X12812967Y-16836198D02*
X12812967Y-16912389D01*
X12812967Y-16912389D02*
X12822491Y-16931436D01*
X12822491Y-16931436D02*
X12832015Y-16940960D01*
X12832015Y-16940960D02*
X12851062Y-16950484D01*
X12851062Y-16950484D02*
X12889158Y-16950484D01*
X12889158Y-16950484D02*
X12908205Y-16940960D01*
X12908205Y-16940960D02*
X12917729Y-16931436D01*
X12917729Y-16931436D02*
X12927253Y-16912389D01*
X12927253Y-16912389D02*
X12927253Y-16864770D01*
X12927253Y-16864770D02*
X12917729Y-16845722D01*
X12917729Y-16845722D02*
X12908205Y-16836198D01*
X12908205Y-16836198D02*
X12889158Y-16826674D01*
X12889158Y-16826674D02*
X12851062Y-16826674D01*
X12851062Y-16826674D02*
X12832015Y-16836198D01*
X12832015Y-16836198D02*
X12822491Y-16845722D01*
X12822491Y-16845722D02*
X12812967Y-16864770D01*
X13051062Y-16750484D02*
X13070110Y-16750484D01*
X13070110Y-16750484D02*
X13089158Y-16760008D01*
X13089158Y-16760008D02*
X13098682Y-16769531D01*
X13098682Y-16769531D02*
X13108205Y-16788579D01*
X13108205Y-16788579D02*
X13117729Y-16826674D01*
X13117729Y-16826674D02*
X13117729Y-16874293D01*
X13117729Y-16874293D02*
X13108205Y-16912389D01*
X13108205Y-16912389D02*
X13098682Y-16931436D01*
X13098682Y-16931436D02*
X13089158Y-16940960D01*
X13089158Y-16940960D02*
X13070110Y-16950484D01*
X13070110Y-16950484D02*
X13051062Y-16950484D01*
X13051062Y-16950484D02*
X13032015Y-16940960D01*
X13032015Y-16940960D02*
X13022491Y-16931436D01*
X13022491Y-16931436D02*
X13012967Y-16912389D01*
X13012967Y-16912389D02*
X13003443Y-16874293D01*
X13003443Y-16874293D02*
X13003443Y-16826674D01*
X13003443Y-16826674D02*
X13012967Y-16788579D01*
X13012967Y-16788579D02*
X13022491Y-16769531D01*
X13022491Y-16769531D02*
X13032015Y-16760008D01*
X13032015Y-16760008D02*
X13051062Y-16750484D01*
X13241539Y-16750484D02*
X13260586Y-16750484D01*
X13260586Y-16750484D02*
X13279634Y-16760008D01*
X13279634Y-16760008D02*
X13289158Y-16769531D01*
X13289158Y-16769531D02*
X13298682Y-16788579D01*
X13298682Y-16788579D02*
X13308205Y-16826674D01*
X13308205Y-16826674D02*
X13308205Y-16874293D01*
X13308205Y-16874293D02*
X13298682Y-16912389D01*
X13298682Y-16912389D02*
X13289158Y-16931436D01*
X13289158Y-16931436D02*
X13279634Y-16940960D01*
X13279634Y-16940960D02*
X13260586Y-16950484D01*
X13260586Y-16950484D02*
X13241539Y-16950484D01*
X13241539Y-16950484D02*
X13222491Y-16940960D01*
X13222491Y-16940960D02*
X13212967Y-16931436D01*
X13212967Y-16931436D02*
X13203443Y-16912389D01*
X13203443Y-16912389D02*
X13193920Y-16874293D01*
X13193920Y-16874293D02*
X13193920Y-16826674D01*
X13193920Y-16826674D02*
X13203443Y-16788579D01*
X13203443Y-16788579D02*
X13212967Y-16769531D01*
X13212967Y-16769531D02*
X13222491Y-16760008D01*
X13222491Y-16760008D02*
X13241539Y-16750484D01*
X13393920Y-16950484D02*
X13393920Y-16817150D01*
X13393920Y-16836198D02*
X13403443Y-16826674D01*
X13403443Y-16826674D02*
X13422491Y-16817150D01*
X13422491Y-16817150D02*
X13451063Y-16817150D01*
X13451063Y-16817150D02*
X13470110Y-16826674D01*
X13470110Y-16826674D02*
X13479634Y-16845722D01*
X13479634Y-16845722D02*
X13479634Y-16950484D01*
X13479634Y-16845722D02*
X13489158Y-16826674D01*
X13489158Y-16826674D02*
X13508205Y-16817150D01*
X13508205Y-16817150D02*
X13536777Y-16817150D01*
X13536777Y-16817150D02*
X13555824Y-16826674D01*
X13555824Y-16826674D02*
X13565348Y-16845722D01*
X13565348Y-16845722D02*
X13565348Y-16950484D01*
X13660586Y-16950484D02*
X13660586Y-16817150D01*
X13660586Y-16836198D02*
X13670110Y-16826674D01*
X13670110Y-16826674D02*
X13689158Y-16817150D01*
X13689158Y-16817150D02*
X13717729Y-16817150D01*
X13717729Y-16817150D02*
X13736777Y-16826674D01*
X13736777Y-16826674D02*
X13746301Y-16845722D01*
X13746301Y-16845722D02*
X13746301Y-16950484D01*
X13746301Y-16845722D02*
X13755824Y-16826674D01*
X13755824Y-16826674D02*
X13774872Y-16817150D01*
X13774872Y-16817150D02*
X13803443Y-16817150D01*
X13803443Y-16817150D02*
X13822491Y-16826674D01*
X13822491Y-16826674D02*
X13832015Y-16845722D01*
X13832015Y-16845722D02*
X13832015Y-16950484D01*
X14222491Y-16740960D02*
X14051063Y-16998103D01*
X14479634Y-16750484D02*
X14498682Y-16750484D01*
X14498682Y-16750484D02*
X14517729Y-16760008D01*
X14517729Y-16760008D02*
X14527253Y-16769531D01*
X14527253Y-16769531D02*
X14536777Y-16788579D01*
X14536777Y-16788579D02*
X14546301Y-16826674D01*
X14546301Y-16826674D02*
X14546301Y-16874293D01*
X14546301Y-16874293D02*
X14536777Y-16912389D01*
X14536777Y-16912389D02*
X14527253Y-16931436D01*
X14527253Y-16931436D02*
X14517729Y-16940960D01*
X14517729Y-16940960D02*
X14498682Y-16950484D01*
X14498682Y-16950484D02*
X14479634Y-16950484D01*
X14479634Y-16950484D02*
X14460586Y-16940960D01*
X14460586Y-16940960D02*
X14451063Y-16931436D01*
X14451063Y-16931436D02*
X14441539Y-16912389D01*
X14441539Y-16912389D02*
X14432015Y-16874293D01*
X14432015Y-16874293D02*
X14432015Y-16826674D01*
X14432015Y-16826674D02*
X14441539Y-16788579D01*
X14441539Y-16788579D02*
X14451063Y-16769531D01*
X14451063Y-16769531D02*
X14460586Y-16760008D01*
X14460586Y-16760008D02*
X14479634Y-16750484D01*
X14632015Y-16931436D02*
X14641539Y-16940960D01*
X14641539Y-16940960D02*
X14632015Y-16950484D01*
X14632015Y-16950484D02*
X14622491Y-16940960D01*
X14622491Y-16940960D02*
X14632015Y-16931436D01*
X14632015Y-16931436D02*
X14632015Y-16950484D01*
X14765348Y-16750484D02*
X14784396Y-16750484D01*
X14784396Y-16750484D02*
X14803444Y-16760008D01*
X14803444Y-16760008D02*
X14812967Y-16769531D01*
X14812967Y-16769531D02*
X14822491Y-16788579D01*
X14822491Y-16788579D02*
X14832015Y-16826674D01*
X14832015Y-16826674D02*
X14832015Y-16874293D01*
X14832015Y-16874293D02*
X14822491Y-16912389D01*
X14822491Y-16912389D02*
X14812967Y-16931436D01*
X14812967Y-16931436D02*
X14803444Y-16940960D01*
X14803444Y-16940960D02*
X14784396Y-16950484D01*
X14784396Y-16950484D02*
X14765348Y-16950484D01*
X14765348Y-16950484D02*
X14746301Y-16940960D01*
X14746301Y-16940960D02*
X14736777Y-16931436D01*
X14736777Y-16931436D02*
X14727253Y-16912389D01*
X14727253Y-16912389D02*
X14717729Y-16874293D01*
X14717729Y-16874293D02*
X14717729Y-16826674D01*
X14717729Y-16826674D02*
X14727253Y-16788579D01*
X14727253Y-16788579D02*
X14736777Y-16769531D01*
X14736777Y-16769531D02*
X14746301Y-16760008D01*
X14746301Y-16760008D02*
X14765348Y-16750484D01*
X14908206Y-16769531D02*
X14917729Y-16760008D01*
X14917729Y-16760008D02*
X14936777Y-16750484D01*
X14936777Y-16750484D02*
X14984396Y-16750484D01*
X14984396Y-16750484D02*
X15003444Y-16760008D01*
X15003444Y-16760008D02*
X15012967Y-16769531D01*
X15012967Y-16769531D02*
X15022491Y-16788579D01*
X15022491Y-16788579D02*
X15022491Y-16807627D01*
X15022491Y-16807627D02*
X15012967Y-16836198D01*
X15012967Y-16836198D02*
X14898682Y-16950484D01*
X14898682Y-16950484D02*
X15022491Y-16950484D01*
X15089158Y-16750484D02*
X15212967Y-16750484D01*
X15212967Y-16750484D02*
X15146301Y-16826674D01*
X15146301Y-16826674D02*
X15174872Y-16826674D01*
X15174872Y-16826674D02*
X15193920Y-16836198D01*
X15193920Y-16836198D02*
X15203444Y-16845722D01*
X15203444Y-16845722D02*
X15212967Y-16864770D01*
X15212967Y-16864770D02*
X15212967Y-16912389D01*
X15212967Y-16912389D02*
X15203444Y-16931436D01*
X15203444Y-16931436D02*
X15193920Y-16940960D01*
X15193920Y-16940960D02*
X15174872Y-16950484D01*
X15174872Y-16950484D02*
X15117729Y-16950484D01*
X15117729Y-16950484D02*
X15098682Y-16940960D01*
X15098682Y-16940960D02*
X15089158Y-16931436D01*
X15384396Y-16750484D02*
X15346301Y-16750484D01*
X15346301Y-16750484D02*
X15327253Y-16760008D01*
X15327253Y-16760008D02*
X15317729Y-16769531D01*
X15317729Y-16769531D02*
X15298682Y-16798103D01*
X15298682Y-16798103D02*
X15289158Y-16836198D01*
X15289158Y-16836198D02*
X15289158Y-16912389D01*
X15289158Y-16912389D02*
X15298682Y-16931436D01*
X15298682Y-16931436D02*
X15308206Y-16940960D01*
X15308206Y-16940960D02*
X15327253Y-16950484D01*
X15327253Y-16950484D02*
X15365348Y-16950484D01*
X15365348Y-16950484D02*
X15384396Y-16940960D01*
X15384396Y-16940960D02*
X15393920Y-16931436D01*
X15393920Y-16931436D02*
X15403444Y-16912389D01*
X15403444Y-16912389D02*
X15403444Y-16864770D01*
X15403444Y-16864770D02*
X15393920Y-16845722D01*
X15393920Y-16845722D02*
X15384396Y-16836198D01*
X15384396Y-16836198D02*
X15365348Y-16826674D01*
X15365348Y-16826674D02*
X15327253Y-16826674D01*
X15327253Y-16826674D02*
X15308206Y-16836198D01*
X15308206Y-16836198D02*
X15298682Y-16845722D01*
X15298682Y-16845722D02*
X15289158Y-16864770D01*
X15479634Y-16750484D02*
X15479634Y-16788579D01*
X15555825Y-16750484D02*
X15555825Y-16788579D01*
X15851063Y-17026674D02*
X15841539Y-17017150D01*
X15841539Y-17017150D02*
X15822491Y-16988579D01*
X15822491Y-16988579D02*
X15812968Y-16969531D01*
X15812968Y-16969531D02*
X15803444Y-16940960D01*
X15803444Y-16940960D02*
X15793920Y-16893341D01*
X15793920Y-16893341D02*
X15793920Y-16855246D01*
X15793920Y-16855246D02*
X15803444Y-16807627D01*
X15803444Y-16807627D02*
X15812968Y-16779055D01*
X15812968Y-16779055D02*
X15822491Y-16760008D01*
X15822491Y-16760008D02*
X15841539Y-16731436D01*
X15841539Y-16731436D02*
X15851063Y-16721912D01*
X15965348Y-16750484D02*
X15984396Y-16750484D01*
X15984396Y-16750484D02*
X16003444Y-16760008D01*
X16003444Y-16760008D02*
X16012968Y-16769531D01*
X16012968Y-16769531D02*
X16022491Y-16788579D01*
X16022491Y-16788579D02*
X16032015Y-16826674D01*
X16032015Y-16826674D02*
X16032015Y-16874293D01*
X16032015Y-16874293D02*
X16022491Y-16912389D01*
X16022491Y-16912389D02*
X16012968Y-16931436D01*
X16012968Y-16931436D02*
X16003444Y-16940960D01*
X16003444Y-16940960D02*
X15984396Y-16950484D01*
X15984396Y-16950484D02*
X15965348Y-16950484D01*
X15965348Y-16950484D02*
X15946301Y-16940960D01*
X15946301Y-16940960D02*
X15936777Y-16931436D01*
X15936777Y-16931436D02*
X15927253Y-16912389D01*
X15927253Y-16912389D02*
X15917729Y-16874293D01*
X15917729Y-16874293D02*
X15917729Y-16826674D01*
X15917729Y-16826674D02*
X15927253Y-16788579D01*
X15927253Y-16788579D02*
X15936777Y-16769531D01*
X15936777Y-16769531D02*
X15946301Y-16760008D01*
X15946301Y-16760008D02*
X15965348Y-16750484D01*
X16270110Y-16950484D02*
X16270110Y-16750484D01*
X16355825Y-16950484D02*
X16355825Y-16845722D01*
X16355825Y-16845722D02*
X16346301Y-16826674D01*
X16346301Y-16826674D02*
X16327253Y-16817150D01*
X16327253Y-16817150D02*
X16298682Y-16817150D01*
X16298682Y-16817150D02*
X16279634Y-16826674D01*
X16279634Y-16826674D02*
X16270110Y-16836198D01*
X16479634Y-16950484D02*
X16460587Y-16940960D01*
X16460587Y-16940960D02*
X16451063Y-16931436D01*
X16451063Y-16931436D02*
X16441539Y-16912389D01*
X16441539Y-16912389D02*
X16441539Y-16855246D01*
X16441539Y-16855246D02*
X16451063Y-16836198D01*
X16451063Y-16836198D02*
X16460587Y-16826674D01*
X16460587Y-16826674D02*
X16479634Y-16817150D01*
X16479634Y-16817150D02*
X16508206Y-16817150D01*
X16508206Y-16817150D02*
X16527253Y-16826674D01*
X16527253Y-16826674D02*
X16536777Y-16836198D01*
X16536777Y-16836198D02*
X16546301Y-16855246D01*
X16546301Y-16855246D02*
X16546301Y-16912389D01*
X16546301Y-16912389D02*
X16536777Y-16931436D01*
X16536777Y-16931436D02*
X16527253Y-16940960D01*
X16527253Y-16940960D02*
X16508206Y-16950484D01*
X16508206Y-16950484D02*
X16479634Y-16950484D01*
X16660587Y-16950484D02*
X16641539Y-16940960D01*
X16641539Y-16940960D02*
X16632015Y-16921912D01*
X16632015Y-16921912D02*
X16632015Y-16750484D01*
X16812968Y-16940960D02*
X16793920Y-16950484D01*
X16793920Y-16950484D02*
X16755825Y-16950484D01*
X16755825Y-16950484D02*
X16736777Y-16940960D01*
X16736777Y-16940960D02*
X16727253Y-16921912D01*
X16727253Y-16921912D02*
X16727253Y-16845722D01*
X16727253Y-16845722D02*
X16736777Y-16826674D01*
X16736777Y-16826674D02*
X16755825Y-16817150D01*
X16755825Y-16817150D02*
X16793920Y-16817150D01*
X16793920Y-16817150D02*
X16812968Y-16826674D01*
X16812968Y-16826674D02*
X16822492Y-16845722D01*
X16822492Y-16845722D02*
X16822492Y-16864770D01*
X16822492Y-16864770D02*
X16727253Y-16883817D01*
X16898682Y-16940960D02*
X16917730Y-16950484D01*
X16917730Y-16950484D02*
X16955825Y-16950484D01*
X16955825Y-16950484D02*
X16974873Y-16940960D01*
X16974873Y-16940960D02*
X16984396Y-16921912D01*
X16984396Y-16921912D02*
X16984396Y-16912389D01*
X16984396Y-16912389D02*
X16974873Y-16893341D01*
X16974873Y-16893341D02*
X16955825Y-16883817D01*
X16955825Y-16883817D02*
X16927253Y-16883817D01*
X16927253Y-16883817D02*
X16908206Y-16874293D01*
X16908206Y-16874293D02*
X16898682Y-16855246D01*
X16898682Y-16855246D02*
X16898682Y-16845722D01*
X16898682Y-16845722D02*
X16908206Y-16826674D01*
X16908206Y-16826674D02*
X16927253Y-16817150D01*
X16927253Y-16817150D02*
X16955825Y-16817150D01*
X16955825Y-16817150D02*
X16974873Y-16826674D01*
X17222492Y-16874293D02*
X17374873Y-16874293D01*
X17298682Y-16950484D02*
X17298682Y-16798103D01*
X17708206Y-16817150D02*
X17708206Y-16950484D01*
X17660587Y-16740960D02*
X17612968Y-16883817D01*
X17612968Y-16883817D02*
X17736777Y-16883817D01*
X17955825Y-16940960D02*
X17974873Y-16950484D01*
X17974873Y-16950484D02*
X18012968Y-16950484D01*
X18012968Y-16950484D02*
X18032016Y-16940960D01*
X18032016Y-16940960D02*
X18041539Y-16921912D01*
X18041539Y-16921912D02*
X18041539Y-16912389D01*
X18041539Y-16912389D02*
X18032016Y-16893341D01*
X18032016Y-16893341D02*
X18012968Y-16883817D01*
X18012968Y-16883817D02*
X17984396Y-16883817D01*
X17984396Y-16883817D02*
X17965349Y-16874293D01*
X17965349Y-16874293D02*
X17955825Y-16855246D01*
X17955825Y-16855246D02*
X17955825Y-16845722D01*
X17955825Y-16845722D02*
X17965349Y-16826674D01*
X17965349Y-16826674D02*
X17984396Y-16817150D01*
X17984396Y-16817150D02*
X18012968Y-16817150D01*
X18012968Y-16817150D02*
X18032016Y-16826674D01*
X18155825Y-16950484D02*
X18136777Y-16940960D01*
X18136777Y-16940960D02*
X18127254Y-16921912D01*
X18127254Y-16921912D02*
X18127254Y-16750484D01*
X18260587Y-16950484D02*
X18241539Y-16940960D01*
X18241539Y-16940960D02*
X18232016Y-16931436D01*
X18232016Y-16931436D02*
X18222492Y-16912389D01*
X18222492Y-16912389D02*
X18222492Y-16855246D01*
X18222492Y-16855246D02*
X18232016Y-16836198D01*
X18232016Y-16836198D02*
X18241539Y-16826674D01*
X18241539Y-16826674D02*
X18260587Y-16817150D01*
X18260587Y-16817150D02*
X18289158Y-16817150D01*
X18289158Y-16817150D02*
X18308206Y-16826674D01*
X18308206Y-16826674D02*
X18317730Y-16836198D01*
X18317730Y-16836198D02*
X18327254Y-16855246D01*
X18327254Y-16855246D02*
X18327254Y-16912389D01*
X18327254Y-16912389D02*
X18317730Y-16931436D01*
X18317730Y-16931436D02*
X18308206Y-16940960D01*
X18308206Y-16940960D02*
X18289158Y-16950484D01*
X18289158Y-16950484D02*
X18260587Y-16950484D01*
X18384397Y-16817150D02*
X18460587Y-16817150D01*
X18412968Y-16750484D02*
X18412968Y-16921912D01*
X18412968Y-16921912D02*
X18422492Y-16940960D01*
X18422492Y-16940960D02*
X18441539Y-16950484D01*
X18441539Y-16950484D02*
X18460587Y-16950484D01*
X18517730Y-16940960D02*
X18536777Y-16950484D01*
X18536777Y-16950484D02*
X18574873Y-16950484D01*
X18574873Y-16950484D02*
X18593920Y-16940960D01*
X18593920Y-16940960D02*
X18603444Y-16921912D01*
X18603444Y-16921912D02*
X18603444Y-16912389D01*
X18603444Y-16912389D02*
X18593920Y-16893341D01*
X18593920Y-16893341D02*
X18574873Y-16883817D01*
X18574873Y-16883817D02*
X18546301Y-16883817D01*
X18546301Y-16883817D02*
X18527254Y-16874293D01*
X18527254Y-16874293D02*
X18517730Y-16855246D01*
X18517730Y-16855246D02*
X18517730Y-16845722D01*
X18517730Y-16845722D02*
X18527254Y-16826674D01*
X18527254Y-16826674D02*
X18546301Y-16817150D01*
X18546301Y-16817150D02*
X18574873Y-16817150D01*
X18574873Y-16817150D02*
X18593920Y-16826674D01*
X18670111Y-17026674D02*
X18679635Y-17017150D01*
X18679635Y-17017150D02*
X18698682Y-16988579D01*
X18698682Y-16988579D02*
X18708206Y-16969531D01*
X18708206Y-16969531D02*
X18717730Y-16940960D01*
X18717730Y-16940960D02*
X18727254Y-16893341D01*
X18727254Y-16893341D02*
X18727254Y-16855246D01*
X18727254Y-16855246D02*
X18717730Y-16807627D01*
X18717730Y-16807627D02*
X18708206Y-16779055D01*
X18708206Y-16779055D02*
X18698682Y-16760008D01*
X18698682Y-16760008D02*
X18679635Y-16731436D01*
X18679635Y-16731436D02*
X18670111Y-16721912D01*
D10*
X12226000Y-17073000D02*
X12226000Y-17173000D01*
X12176000Y-17123000D02*
X12276000Y-17123000D01*
D11*
X12641539Y-17214484D02*
X12527253Y-17214484D01*
X12584396Y-17214484D02*
X12584396Y-17014484D01*
X12584396Y-17014484D02*
X12565348Y-17043055D01*
X12565348Y-17043055D02*
X12546301Y-17062103D01*
X12546301Y-17062103D02*
X12527253Y-17071627D01*
X12727253Y-17195436D02*
X12736777Y-17204960D01*
X12736777Y-17204960D02*
X12727253Y-17214484D01*
X12727253Y-17214484D02*
X12717729Y-17204960D01*
X12717729Y-17204960D02*
X12727253Y-17195436D01*
X12727253Y-17195436D02*
X12727253Y-17214484D01*
X12860586Y-17014484D02*
X12879634Y-17014484D01*
X12879634Y-17014484D02*
X12898682Y-17024008D01*
X12898682Y-17024008D02*
X12908205Y-17033531D01*
X12908205Y-17033531D02*
X12917729Y-17052579D01*
X12917729Y-17052579D02*
X12927253Y-17090674D01*
X12927253Y-17090674D02*
X12927253Y-17138293D01*
X12927253Y-17138293D02*
X12917729Y-17176389D01*
X12917729Y-17176389D02*
X12908205Y-17195436D01*
X12908205Y-17195436D02*
X12898682Y-17204960D01*
X12898682Y-17204960D02*
X12879634Y-17214484D01*
X12879634Y-17214484D02*
X12860586Y-17214484D01*
X12860586Y-17214484D02*
X12841539Y-17204960D01*
X12841539Y-17204960D02*
X12832015Y-17195436D01*
X12832015Y-17195436D02*
X12822491Y-17176389D01*
X12822491Y-17176389D02*
X12812967Y-17138293D01*
X12812967Y-17138293D02*
X12812967Y-17090674D01*
X12812967Y-17090674D02*
X12822491Y-17052579D01*
X12822491Y-17052579D02*
X12832015Y-17033531D01*
X12832015Y-17033531D02*
X12841539Y-17024008D01*
X12841539Y-17024008D02*
X12860586Y-17014484D01*
X13051062Y-17014484D02*
X13070110Y-17014484D01*
X13070110Y-17014484D02*
X13089158Y-17024008D01*
X13089158Y-17024008D02*
X13098682Y-17033531D01*
X13098682Y-17033531D02*
X13108205Y-17052579D01*
X13108205Y-17052579D02*
X13117729Y-17090674D01*
X13117729Y-17090674D02*
X13117729Y-17138293D01*
X13117729Y-17138293D02*
X13108205Y-17176389D01*
X13108205Y-17176389D02*
X13098682Y-17195436D01*
X13098682Y-17195436D02*
X13089158Y-17204960D01*
X13089158Y-17204960D02*
X13070110Y-17214484D01*
X13070110Y-17214484D02*
X13051062Y-17214484D01*
X13051062Y-17214484D02*
X13032015Y-17204960D01*
X13032015Y-17204960D02*
X13022491Y-17195436D01*
X13022491Y-17195436D02*
X13012967Y-17176389D01*
X13012967Y-17176389D02*
X13003443Y-17138293D01*
X13003443Y-17138293D02*
X13003443Y-17090674D01*
X13003443Y-17090674D02*
X13012967Y-17052579D01*
X13012967Y-17052579D02*
X13022491Y-17033531D01*
X13022491Y-17033531D02*
X13032015Y-17024008D01*
X13032015Y-17024008D02*
X13051062Y-17014484D01*
X13241539Y-17014484D02*
X13260586Y-17014484D01*
X13260586Y-17014484D02*
X13279634Y-17024008D01*
X13279634Y-17024008D02*
X13289158Y-17033531D01*
X13289158Y-17033531D02*
X13298682Y-17052579D01*
X13298682Y-17052579D02*
X13308205Y-17090674D01*
X13308205Y-17090674D02*
X13308205Y-17138293D01*
X13308205Y-17138293D02*
X13298682Y-17176389D01*
X13298682Y-17176389D02*
X13289158Y-17195436D01*
X13289158Y-17195436D02*
X13279634Y-17204960D01*
X13279634Y-17204960D02*
X13260586Y-17214484D01*
X13260586Y-17214484D02*
X13241539Y-17214484D01*
X13241539Y-17214484D02*
X13222491Y-17204960D01*
X13222491Y-17204960D02*
X13212967Y-17195436D01*
X13212967Y-17195436D02*
X13203443Y-17176389D01*
X13203443Y-17176389D02*
X13193920Y-17138293D01*
X13193920Y-17138293D02*
X13193920Y-17090674D01*
X13193920Y-17090674D02*
X13203443Y-17052579D01*
X13203443Y-17052579D02*
X13212967Y-17033531D01*
X13212967Y-17033531D02*
X13222491Y-17024008D01*
X13222491Y-17024008D02*
X13241539Y-17014484D01*
X13393920Y-17214484D02*
X13393920Y-17081150D01*
X13393920Y-17100198D02*
X13403443Y-17090674D01*
X13403443Y-17090674D02*
X13422491Y-17081150D01*
X13422491Y-17081150D02*
X13451063Y-17081150D01*
X13451063Y-17081150D02*
X13470110Y-17090674D01*
X13470110Y-17090674D02*
X13479634Y-17109722D01*
X13479634Y-17109722D02*
X13479634Y-17214484D01*
X13479634Y-17109722D02*
X13489158Y-17090674D01*
X13489158Y-17090674D02*
X13508205Y-17081150D01*
X13508205Y-17081150D02*
X13536777Y-17081150D01*
X13536777Y-17081150D02*
X13555824Y-17090674D01*
X13555824Y-17090674D02*
X13565348Y-17109722D01*
X13565348Y-17109722D02*
X13565348Y-17214484D01*
X13660586Y-17214484D02*
X13660586Y-17081150D01*
X13660586Y-17100198D02*
X13670110Y-17090674D01*
X13670110Y-17090674D02*
X13689158Y-17081150D01*
X13689158Y-17081150D02*
X13717729Y-17081150D01*
X13717729Y-17081150D02*
X13736777Y-17090674D01*
X13736777Y-17090674D02*
X13746301Y-17109722D01*
X13746301Y-17109722D02*
X13746301Y-17214484D01*
X13746301Y-17109722D02*
X13755824Y-17090674D01*
X13755824Y-17090674D02*
X13774872Y-17081150D01*
X13774872Y-17081150D02*
X13803443Y-17081150D01*
X13803443Y-17081150D02*
X13822491Y-17090674D01*
X13822491Y-17090674D02*
X13832015Y-17109722D01*
X13832015Y-17109722D02*
X13832015Y-17214484D01*
X14222491Y-17004960D02*
X14051063Y-17262103D01*
X14479634Y-17014484D02*
X14498682Y-17014484D01*
X14498682Y-17014484D02*
X14517729Y-17024008D01*
X14517729Y-17024008D02*
X14527253Y-17033531D01*
X14527253Y-17033531D02*
X14536777Y-17052579D01*
X14536777Y-17052579D02*
X14546301Y-17090674D01*
X14546301Y-17090674D02*
X14546301Y-17138293D01*
X14546301Y-17138293D02*
X14536777Y-17176389D01*
X14536777Y-17176389D02*
X14527253Y-17195436D01*
X14527253Y-17195436D02*
X14517729Y-17204960D01*
X14517729Y-17204960D02*
X14498682Y-17214484D01*
X14498682Y-17214484D02*
X14479634Y-17214484D01*
X14479634Y-17214484D02*
X14460586Y-17204960D01*
X14460586Y-17204960D02*
X14451063Y-17195436D01*
X14451063Y-17195436D02*
X14441539Y-17176389D01*
X14441539Y-17176389D02*
X14432015Y-17138293D01*
X14432015Y-17138293D02*
X14432015Y-17090674D01*
X14432015Y-17090674D02*
X14441539Y-17052579D01*
X14441539Y-17052579D02*
X14451063Y-17033531D01*
X14451063Y-17033531D02*
X14460586Y-17024008D01*
X14460586Y-17024008D02*
X14479634Y-17014484D01*
X14632015Y-17195436D02*
X14641539Y-17204960D01*
X14641539Y-17204960D02*
X14632015Y-17214484D01*
X14632015Y-17214484D02*
X14622491Y-17204960D01*
X14622491Y-17204960D02*
X14632015Y-17195436D01*
X14632015Y-17195436D02*
X14632015Y-17214484D01*
X14765348Y-17014484D02*
X14784396Y-17014484D01*
X14784396Y-17014484D02*
X14803444Y-17024008D01*
X14803444Y-17024008D02*
X14812967Y-17033531D01*
X14812967Y-17033531D02*
X14822491Y-17052579D01*
X14822491Y-17052579D02*
X14832015Y-17090674D01*
X14832015Y-17090674D02*
X14832015Y-17138293D01*
X14832015Y-17138293D02*
X14822491Y-17176389D01*
X14822491Y-17176389D02*
X14812967Y-17195436D01*
X14812967Y-17195436D02*
X14803444Y-17204960D01*
X14803444Y-17204960D02*
X14784396Y-17214484D01*
X14784396Y-17214484D02*
X14765348Y-17214484D01*
X14765348Y-17214484D02*
X14746301Y-17204960D01*
X14746301Y-17204960D02*
X14736777Y-17195436D01*
X14736777Y-17195436D02*
X14727253Y-17176389D01*
X14727253Y-17176389D02*
X14717729Y-17138293D01*
X14717729Y-17138293D02*
X14717729Y-17090674D01*
X14717729Y-17090674D02*
X14727253Y-17052579D01*
X14727253Y-17052579D02*
X14736777Y-17033531D01*
X14736777Y-17033531D02*
X14746301Y-17024008D01*
X14746301Y-17024008D02*
X14765348Y-17014484D01*
X14898682Y-17014484D02*
X15022491Y-17014484D01*
X15022491Y-17014484D02*
X14955825Y-17090674D01*
X14955825Y-17090674D02*
X14984396Y-17090674D01*
X14984396Y-17090674D02*
X15003444Y-17100198D01*
X15003444Y-17100198D02*
X15012967Y-17109722D01*
X15012967Y-17109722D02*
X15022491Y-17128770D01*
X15022491Y-17128770D02*
X15022491Y-17176389D01*
X15022491Y-17176389D02*
X15012967Y-17195436D01*
X15012967Y-17195436D02*
X15003444Y-17204960D01*
X15003444Y-17204960D02*
X14984396Y-17214484D01*
X14984396Y-17214484D02*
X14927253Y-17214484D01*
X14927253Y-17214484D02*
X14908206Y-17204960D01*
X14908206Y-17204960D02*
X14898682Y-17195436D01*
X15117729Y-17214484D02*
X15155825Y-17214484D01*
X15155825Y-17214484D02*
X15174872Y-17204960D01*
X15174872Y-17204960D02*
X15184396Y-17195436D01*
X15184396Y-17195436D02*
X15203444Y-17166865D01*
X15203444Y-17166865D02*
X15212967Y-17128770D01*
X15212967Y-17128770D02*
X15212967Y-17052579D01*
X15212967Y-17052579D02*
X15203444Y-17033531D01*
X15203444Y-17033531D02*
X15193920Y-17024008D01*
X15193920Y-17024008D02*
X15174872Y-17014484D01*
X15174872Y-17014484D02*
X15136777Y-17014484D01*
X15136777Y-17014484D02*
X15117729Y-17024008D01*
X15117729Y-17024008D02*
X15108206Y-17033531D01*
X15108206Y-17033531D02*
X15098682Y-17052579D01*
X15098682Y-17052579D02*
X15098682Y-17100198D01*
X15098682Y-17100198D02*
X15108206Y-17119246D01*
X15108206Y-17119246D02*
X15117729Y-17128770D01*
X15117729Y-17128770D02*
X15136777Y-17138293D01*
X15136777Y-17138293D02*
X15174872Y-17138293D01*
X15174872Y-17138293D02*
X15193920Y-17128770D01*
X15193920Y-17128770D02*
X15203444Y-17119246D01*
X15203444Y-17119246D02*
X15212967Y-17100198D01*
X15384396Y-17081150D02*
X15384396Y-17214484D01*
X15336777Y-17004960D02*
X15289158Y-17147817D01*
X15289158Y-17147817D02*
X15412967Y-17147817D01*
X15479634Y-17014484D02*
X15479634Y-17052579D01*
X15555825Y-17014484D02*
X15555825Y-17052579D01*
X15851063Y-17290674D02*
X15841539Y-17281150D01*
X15841539Y-17281150D02*
X15822491Y-17252579D01*
X15822491Y-17252579D02*
X15812968Y-17233531D01*
X15812968Y-17233531D02*
X15803444Y-17204960D01*
X15803444Y-17204960D02*
X15793920Y-17157341D01*
X15793920Y-17157341D02*
X15793920Y-17119246D01*
X15793920Y-17119246D02*
X15803444Y-17071627D01*
X15803444Y-17071627D02*
X15812968Y-17043055D01*
X15812968Y-17043055D02*
X15822491Y-17024008D01*
X15822491Y-17024008D02*
X15841539Y-16995436D01*
X15841539Y-16995436D02*
X15851063Y-16985912D01*
X16032015Y-17214484D02*
X15917729Y-17214484D01*
X15974872Y-17214484D02*
X15974872Y-17014484D01*
X15974872Y-17014484D02*
X15955825Y-17043055D01*
X15955825Y-17043055D02*
X15936777Y-17062103D01*
X15936777Y-17062103D02*
X15917729Y-17071627D01*
X16098682Y-17014484D02*
X16232015Y-17014484D01*
X16232015Y-17014484D02*
X16146301Y-17214484D01*
X16460587Y-17214484D02*
X16460587Y-17014484D01*
X16546301Y-17214484D02*
X16546301Y-17109722D01*
X16546301Y-17109722D02*
X16536777Y-17090674D01*
X16536777Y-17090674D02*
X16517730Y-17081150D01*
X16517730Y-17081150D02*
X16489158Y-17081150D01*
X16489158Y-17081150D02*
X16470110Y-17090674D01*
X16470110Y-17090674D02*
X16460587Y-17100198D01*
X16670110Y-17214484D02*
X16651063Y-17204960D01*
X16651063Y-17204960D02*
X16641539Y-17195436D01*
X16641539Y-17195436D02*
X16632015Y-17176389D01*
X16632015Y-17176389D02*
X16632015Y-17119246D01*
X16632015Y-17119246D02*
X16641539Y-17100198D01*
X16641539Y-17100198D02*
X16651063Y-17090674D01*
X16651063Y-17090674D02*
X16670110Y-17081150D01*
X16670110Y-17081150D02*
X16698682Y-17081150D01*
X16698682Y-17081150D02*
X16717730Y-17090674D01*
X16717730Y-17090674D02*
X16727253Y-17100198D01*
X16727253Y-17100198D02*
X16736777Y-17119246D01*
X16736777Y-17119246D02*
X16736777Y-17176389D01*
X16736777Y-17176389D02*
X16727253Y-17195436D01*
X16727253Y-17195436D02*
X16717730Y-17204960D01*
X16717730Y-17204960D02*
X16698682Y-17214484D01*
X16698682Y-17214484D02*
X16670110Y-17214484D01*
X16851063Y-17214484D02*
X16832015Y-17204960D01*
X16832015Y-17204960D02*
X16822492Y-17185912D01*
X16822492Y-17185912D02*
X16822492Y-17014484D01*
X17003444Y-17204960D02*
X16984396Y-17214484D01*
X16984396Y-17214484D02*
X16946301Y-17214484D01*
X16946301Y-17214484D02*
X16927253Y-17204960D01*
X16927253Y-17204960D02*
X16917730Y-17185912D01*
X16917730Y-17185912D02*
X16917730Y-17109722D01*
X16917730Y-17109722D02*
X16927253Y-17090674D01*
X16927253Y-17090674D02*
X16946301Y-17081150D01*
X16946301Y-17081150D02*
X16984396Y-17081150D01*
X16984396Y-17081150D02*
X17003444Y-17090674D01*
X17003444Y-17090674D02*
X17012968Y-17109722D01*
X17012968Y-17109722D02*
X17012968Y-17128770D01*
X17012968Y-17128770D02*
X16917730Y-17147817D01*
X17089158Y-17204960D02*
X17108206Y-17214484D01*
X17108206Y-17214484D02*
X17146301Y-17214484D01*
X17146301Y-17214484D02*
X17165349Y-17204960D01*
X17165349Y-17204960D02*
X17174873Y-17185912D01*
X17174873Y-17185912D02*
X17174873Y-17176389D01*
X17174873Y-17176389D02*
X17165349Y-17157341D01*
X17165349Y-17157341D02*
X17146301Y-17147817D01*
X17146301Y-17147817D02*
X17117730Y-17147817D01*
X17117730Y-17147817D02*
X17098682Y-17138293D01*
X17098682Y-17138293D02*
X17089158Y-17119246D01*
X17089158Y-17119246D02*
X17089158Y-17109722D01*
X17089158Y-17109722D02*
X17098682Y-17090674D01*
X17098682Y-17090674D02*
X17117730Y-17081150D01*
X17117730Y-17081150D02*
X17146301Y-17081150D01*
X17146301Y-17081150D02*
X17165349Y-17090674D01*
X17241539Y-17290674D02*
X17251063Y-17281150D01*
X17251063Y-17281150D02*
X17270111Y-17252579D01*
X17270111Y-17252579D02*
X17279634Y-17233531D01*
X17279634Y-17233531D02*
X17289158Y-17204960D01*
X17289158Y-17204960D02*
X17298682Y-17157341D01*
X17298682Y-17157341D02*
X17298682Y-17119246D01*
X17298682Y-17119246D02*
X17289158Y-17071627D01*
X17289158Y-17071627D02*
X17279634Y-17043055D01*
X17279634Y-17043055D02*
X17270111Y-17024008D01*
X17270111Y-17024008D02*
X17251063Y-16995436D01*
X17251063Y-16995436D02*
X17241539Y-16985912D01*
D14*
X12261121Y-17422921D02*
X12261121Y-17351079D01*
X12189279Y-17351079D01*
X12189279Y-17422921D01*
X12261121Y-17422921D01*
D11*
X12641539Y-17478484D02*
X12527253Y-17478484D01*
X12584396Y-17478484D02*
X12584396Y-17278484D01*
X12584396Y-17278484D02*
X12565348Y-17307055D01*
X12565348Y-17307055D02*
X12546301Y-17326103D01*
X12546301Y-17326103D02*
X12527253Y-17335627D01*
X12727253Y-17459436D02*
X12736777Y-17468960D01*
X12736777Y-17468960D02*
X12727253Y-17478484D01*
X12727253Y-17478484D02*
X12717729Y-17468960D01*
X12717729Y-17468960D02*
X12727253Y-17459436D01*
X12727253Y-17459436D02*
X12727253Y-17478484D01*
X12860586Y-17278484D02*
X12879634Y-17278484D01*
X12879634Y-17278484D02*
X12898682Y-17288008D01*
X12898682Y-17288008D02*
X12908205Y-17297531D01*
X12908205Y-17297531D02*
X12917729Y-17316579D01*
X12917729Y-17316579D02*
X12927253Y-17354674D01*
X12927253Y-17354674D02*
X12927253Y-17402293D01*
X12927253Y-17402293D02*
X12917729Y-17440389D01*
X12917729Y-17440389D02*
X12908205Y-17459436D01*
X12908205Y-17459436D02*
X12898682Y-17468960D01*
X12898682Y-17468960D02*
X12879634Y-17478484D01*
X12879634Y-17478484D02*
X12860586Y-17478484D01*
X12860586Y-17478484D02*
X12841539Y-17468960D01*
X12841539Y-17468960D02*
X12832015Y-17459436D01*
X12832015Y-17459436D02*
X12822491Y-17440389D01*
X12822491Y-17440389D02*
X12812967Y-17402293D01*
X12812967Y-17402293D02*
X12812967Y-17354674D01*
X12812967Y-17354674D02*
X12822491Y-17316579D01*
X12822491Y-17316579D02*
X12832015Y-17297531D01*
X12832015Y-17297531D02*
X12841539Y-17288008D01*
X12841539Y-17288008D02*
X12860586Y-17278484D01*
X13117729Y-17478484D02*
X13003443Y-17478484D01*
X13060586Y-17478484D02*
X13060586Y-17278484D01*
X13060586Y-17278484D02*
X13041539Y-17307055D01*
X13041539Y-17307055D02*
X13022491Y-17326103D01*
X13022491Y-17326103D02*
X13003443Y-17335627D01*
X13289158Y-17278484D02*
X13251062Y-17278484D01*
X13251062Y-17278484D02*
X13232015Y-17288008D01*
X13232015Y-17288008D02*
X13222491Y-17297531D01*
X13222491Y-17297531D02*
X13203443Y-17326103D01*
X13203443Y-17326103D02*
X13193920Y-17364198D01*
X13193920Y-17364198D02*
X13193920Y-17440389D01*
X13193920Y-17440389D02*
X13203443Y-17459436D01*
X13203443Y-17459436D02*
X13212967Y-17468960D01*
X13212967Y-17468960D02*
X13232015Y-17478484D01*
X13232015Y-17478484D02*
X13270110Y-17478484D01*
X13270110Y-17478484D02*
X13289158Y-17468960D01*
X13289158Y-17468960D02*
X13298682Y-17459436D01*
X13298682Y-17459436D02*
X13308205Y-17440389D01*
X13308205Y-17440389D02*
X13308205Y-17392770D01*
X13308205Y-17392770D02*
X13298682Y-17373722D01*
X13298682Y-17373722D02*
X13289158Y-17364198D01*
X13289158Y-17364198D02*
X13270110Y-17354674D01*
X13270110Y-17354674D02*
X13232015Y-17354674D01*
X13232015Y-17354674D02*
X13212967Y-17364198D01*
X13212967Y-17364198D02*
X13203443Y-17373722D01*
X13203443Y-17373722D02*
X13193920Y-17392770D01*
X13393920Y-17478484D02*
X13393920Y-17345150D01*
X13393920Y-17364198D02*
X13403443Y-17354674D01*
X13403443Y-17354674D02*
X13422491Y-17345150D01*
X13422491Y-17345150D02*
X13451063Y-17345150D01*
X13451063Y-17345150D02*
X13470110Y-17354674D01*
X13470110Y-17354674D02*
X13479634Y-17373722D01*
X13479634Y-17373722D02*
X13479634Y-17478484D01*
X13479634Y-17373722D02*
X13489158Y-17354674D01*
X13489158Y-17354674D02*
X13508205Y-17345150D01*
X13508205Y-17345150D02*
X13536777Y-17345150D01*
X13536777Y-17345150D02*
X13555824Y-17354674D01*
X13555824Y-17354674D02*
X13565348Y-17373722D01*
X13565348Y-17373722D02*
X13565348Y-17478484D01*
X13660586Y-17478484D02*
X13660586Y-17345150D01*
X13660586Y-17364198D02*
X13670110Y-17354674D01*
X13670110Y-17354674D02*
X13689158Y-17345150D01*
X13689158Y-17345150D02*
X13717729Y-17345150D01*
X13717729Y-17345150D02*
X13736777Y-17354674D01*
X13736777Y-17354674D02*
X13746301Y-17373722D01*
X13746301Y-17373722D02*
X13746301Y-17478484D01*
X13746301Y-17373722D02*
X13755824Y-17354674D01*
X13755824Y-17354674D02*
X13774872Y-17345150D01*
X13774872Y-17345150D02*
X13803443Y-17345150D01*
X13803443Y-17345150D02*
X13822491Y-17354674D01*
X13822491Y-17354674D02*
X13832015Y-17373722D01*
X13832015Y-17373722D02*
X13832015Y-17478484D01*
X14222491Y-17268960D02*
X14051063Y-17526103D01*
X14479634Y-17278484D02*
X14498682Y-17278484D01*
X14498682Y-17278484D02*
X14517729Y-17288008D01*
X14517729Y-17288008D02*
X14527253Y-17297531D01*
X14527253Y-17297531D02*
X14536777Y-17316579D01*
X14536777Y-17316579D02*
X14546301Y-17354674D01*
X14546301Y-17354674D02*
X14546301Y-17402293D01*
X14546301Y-17402293D02*
X14536777Y-17440389D01*
X14536777Y-17440389D02*
X14527253Y-17459436D01*
X14527253Y-17459436D02*
X14517729Y-17468960D01*
X14517729Y-17468960D02*
X14498682Y-17478484D01*
X14498682Y-17478484D02*
X14479634Y-17478484D01*
X14479634Y-17478484D02*
X14460586Y-17468960D01*
X14460586Y-17468960D02*
X14451063Y-17459436D01*
X14451063Y-17459436D02*
X14441539Y-17440389D01*
X14441539Y-17440389D02*
X14432015Y-17402293D01*
X14432015Y-17402293D02*
X14432015Y-17354674D01*
X14432015Y-17354674D02*
X14441539Y-17316579D01*
X14441539Y-17316579D02*
X14451063Y-17297531D01*
X14451063Y-17297531D02*
X14460586Y-17288008D01*
X14460586Y-17288008D02*
X14479634Y-17278484D01*
X14632015Y-17459436D02*
X14641539Y-17468960D01*
X14641539Y-17468960D02*
X14632015Y-17478484D01*
X14632015Y-17478484D02*
X14622491Y-17468960D01*
X14622491Y-17468960D02*
X14632015Y-17459436D01*
X14632015Y-17459436D02*
X14632015Y-17478484D01*
X14765348Y-17278484D02*
X14784396Y-17278484D01*
X14784396Y-17278484D02*
X14803444Y-17288008D01*
X14803444Y-17288008D02*
X14812967Y-17297531D01*
X14812967Y-17297531D02*
X14822491Y-17316579D01*
X14822491Y-17316579D02*
X14832015Y-17354674D01*
X14832015Y-17354674D02*
X14832015Y-17402293D01*
X14832015Y-17402293D02*
X14822491Y-17440389D01*
X14822491Y-17440389D02*
X14812967Y-17459436D01*
X14812967Y-17459436D02*
X14803444Y-17468960D01*
X14803444Y-17468960D02*
X14784396Y-17478484D01*
X14784396Y-17478484D02*
X14765348Y-17478484D01*
X14765348Y-17478484D02*
X14746301Y-17468960D01*
X14746301Y-17468960D02*
X14736777Y-17459436D01*
X14736777Y-17459436D02*
X14727253Y-17440389D01*
X14727253Y-17440389D02*
X14717729Y-17402293D01*
X14717729Y-17402293D02*
X14717729Y-17354674D01*
X14717729Y-17354674D02*
X14727253Y-17316579D01*
X14727253Y-17316579D02*
X14736777Y-17297531D01*
X14736777Y-17297531D02*
X14746301Y-17288008D01*
X14746301Y-17288008D02*
X14765348Y-17278484D01*
X15003444Y-17345150D02*
X15003444Y-17478484D01*
X14955825Y-17268960D02*
X14908206Y-17411817D01*
X14908206Y-17411817D02*
X15032015Y-17411817D01*
X15146301Y-17278484D02*
X15165348Y-17278484D01*
X15165348Y-17278484D02*
X15184396Y-17288008D01*
X15184396Y-17288008D02*
X15193920Y-17297531D01*
X15193920Y-17297531D02*
X15203444Y-17316579D01*
X15203444Y-17316579D02*
X15212967Y-17354674D01*
X15212967Y-17354674D02*
X15212967Y-17402293D01*
X15212967Y-17402293D02*
X15203444Y-17440389D01*
X15203444Y-17440389D02*
X15193920Y-17459436D01*
X15193920Y-17459436D02*
X15184396Y-17468960D01*
X15184396Y-17468960D02*
X15165348Y-17478484D01*
X15165348Y-17478484D02*
X15146301Y-17478484D01*
X15146301Y-17478484D02*
X15127253Y-17468960D01*
X15127253Y-17468960D02*
X15117729Y-17459436D01*
X15117729Y-17459436D02*
X15108206Y-17440389D01*
X15108206Y-17440389D02*
X15098682Y-17402293D01*
X15098682Y-17402293D02*
X15098682Y-17354674D01*
X15098682Y-17354674D02*
X15108206Y-17316579D01*
X15108206Y-17316579D02*
X15117729Y-17297531D01*
X15117729Y-17297531D02*
X15127253Y-17288008D01*
X15127253Y-17288008D02*
X15146301Y-17278484D01*
X15336777Y-17278484D02*
X15355825Y-17278484D01*
X15355825Y-17278484D02*
X15374872Y-17288008D01*
X15374872Y-17288008D02*
X15384396Y-17297531D01*
X15384396Y-17297531D02*
X15393920Y-17316579D01*
X15393920Y-17316579D02*
X15403444Y-17354674D01*
X15403444Y-17354674D02*
X15403444Y-17402293D01*
X15403444Y-17402293D02*
X15393920Y-17440389D01*
X15393920Y-17440389D02*
X15384396Y-17459436D01*
X15384396Y-17459436D02*
X15374872Y-17468960D01*
X15374872Y-17468960D02*
X15355825Y-17478484D01*
X15355825Y-17478484D02*
X15336777Y-17478484D01*
X15336777Y-17478484D02*
X15317729Y-17468960D01*
X15317729Y-17468960D02*
X15308206Y-17459436D01*
X15308206Y-17459436D02*
X15298682Y-17440389D01*
X15298682Y-17440389D02*
X15289158Y-17402293D01*
X15289158Y-17402293D02*
X15289158Y-17354674D01*
X15289158Y-17354674D02*
X15298682Y-17316579D01*
X15298682Y-17316579D02*
X15308206Y-17297531D01*
X15308206Y-17297531D02*
X15317729Y-17288008D01*
X15317729Y-17288008D02*
X15336777Y-17278484D01*
X15479634Y-17278484D02*
X15479634Y-17316579D01*
X15555825Y-17278484D02*
X15555825Y-17316579D01*
X15851063Y-17554674D02*
X15841539Y-17545150D01*
X15841539Y-17545150D02*
X15822491Y-17516579D01*
X15822491Y-17516579D02*
X15812968Y-17497531D01*
X15812968Y-17497531D02*
X15803444Y-17468960D01*
X15803444Y-17468960D02*
X15793920Y-17421341D01*
X15793920Y-17421341D02*
X15793920Y-17383246D01*
X15793920Y-17383246D02*
X15803444Y-17335627D01*
X15803444Y-17335627D02*
X15812968Y-17307055D01*
X15812968Y-17307055D02*
X15822491Y-17288008D01*
X15822491Y-17288008D02*
X15841539Y-17259436D01*
X15841539Y-17259436D02*
X15851063Y-17249912D01*
X16012968Y-17278484D02*
X15974872Y-17278484D01*
X15974872Y-17278484D02*
X15955825Y-17288008D01*
X15955825Y-17288008D02*
X15946301Y-17297531D01*
X15946301Y-17297531D02*
X15927253Y-17326103D01*
X15927253Y-17326103D02*
X15917729Y-17364198D01*
X15917729Y-17364198D02*
X15917729Y-17440389D01*
X15917729Y-17440389D02*
X15927253Y-17459436D01*
X15927253Y-17459436D02*
X15936777Y-17468960D01*
X15936777Y-17468960D02*
X15955825Y-17478484D01*
X15955825Y-17478484D02*
X15993920Y-17478484D01*
X15993920Y-17478484D02*
X16012968Y-17468960D01*
X16012968Y-17468960D02*
X16022491Y-17459436D01*
X16022491Y-17459436D02*
X16032015Y-17440389D01*
X16032015Y-17440389D02*
X16032015Y-17392770D01*
X16032015Y-17392770D02*
X16022491Y-17373722D01*
X16022491Y-17373722D02*
X16012968Y-17364198D01*
X16012968Y-17364198D02*
X15993920Y-17354674D01*
X15993920Y-17354674D02*
X15955825Y-17354674D01*
X15955825Y-17354674D02*
X15936777Y-17364198D01*
X15936777Y-17364198D02*
X15927253Y-17373722D01*
X15927253Y-17373722D02*
X15917729Y-17392770D01*
X16270110Y-17478484D02*
X16270110Y-17278484D01*
X16355825Y-17478484D02*
X16355825Y-17373722D01*
X16355825Y-17373722D02*
X16346301Y-17354674D01*
X16346301Y-17354674D02*
X16327253Y-17345150D01*
X16327253Y-17345150D02*
X16298682Y-17345150D01*
X16298682Y-17345150D02*
X16279634Y-17354674D01*
X16279634Y-17354674D02*
X16270110Y-17364198D01*
X16479634Y-17478484D02*
X16460587Y-17468960D01*
X16460587Y-17468960D02*
X16451063Y-17459436D01*
X16451063Y-17459436D02*
X16441539Y-17440389D01*
X16441539Y-17440389D02*
X16441539Y-17383246D01*
X16441539Y-17383246D02*
X16451063Y-17364198D01*
X16451063Y-17364198D02*
X16460587Y-17354674D01*
X16460587Y-17354674D02*
X16479634Y-17345150D01*
X16479634Y-17345150D02*
X16508206Y-17345150D01*
X16508206Y-17345150D02*
X16527253Y-17354674D01*
X16527253Y-17354674D02*
X16536777Y-17364198D01*
X16536777Y-17364198D02*
X16546301Y-17383246D01*
X16546301Y-17383246D02*
X16546301Y-17440389D01*
X16546301Y-17440389D02*
X16536777Y-17459436D01*
X16536777Y-17459436D02*
X16527253Y-17468960D01*
X16527253Y-17468960D02*
X16508206Y-17478484D01*
X16508206Y-17478484D02*
X16479634Y-17478484D01*
X16660587Y-17478484D02*
X16641539Y-17468960D01*
X16641539Y-17468960D02*
X16632015Y-17449912D01*
X16632015Y-17449912D02*
X16632015Y-17278484D01*
X16812968Y-17468960D02*
X16793920Y-17478484D01*
X16793920Y-17478484D02*
X16755825Y-17478484D01*
X16755825Y-17478484D02*
X16736777Y-17468960D01*
X16736777Y-17468960D02*
X16727253Y-17449912D01*
X16727253Y-17449912D02*
X16727253Y-17373722D01*
X16727253Y-17373722D02*
X16736777Y-17354674D01*
X16736777Y-17354674D02*
X16755825Y-17345150D01*
X16755825Y-17345150D02*
X16793920Y-17345150D01*
X16793920Y-17345150D02*
X16812968Y-17354674D01*
X16812968Y-17354674D02*
X16822492Y-17373722D01*
X16822492Y-17373722D02*
X16822492Y-17392770D01*
X16822492Y-17392770D02*
X16727253Y-17411817D01*
X16898682Y-17468960D02*
X16917730Y-17478484D01*
X16917730Y-17478484D02*
X16955825Y-17478484D01*
X16955825Y-17478484D02*
X16974873Y-17468960D01*
X16974873Y-17468960D02*
X16984396Y-17449912D01*
X16984396Y-17449912D02*
X16984396Y-17440389D01*
X16984396Y-17440389D02*
X16974873Y-17421341D01*
X16974873Y-17421341D02*
X16955825Y-17411817D01*
X16955825Y-17411817D02*
X16927253Y-17411817D01*
X16927253Y-17411817D02*
X16908206Y-17402293D01*
X16908206Y-17402293D02*
X16898682Y-17383246D01*
X16898682Y-17383246D02*
X16898682Y-17373722D01*
X16898682Y-17373722D02*
X16908206Y-17354674D01*
X16908206Y-17354674D02*
X16927253Y-17345150D01*
X16927253Y-17345150D02*
X16955825Y-17345150D01*
X16955825Y-17345150D02*
X16974873Y-17354674D01*
X17051063Y-17554674D02*
X17060587Y-17545150D01*
X17060587Y-17545150D02*
X17079634Y-17516579D01*
X17079634Y-17516579D02*
X17089158Y-17497531D01*
X17089158Y-17497531D02*
X17098682Y-17468960D01*
X17098682Y-17468960D02*
X17108206Y-17421341D01*
X17108206Y-17421341D02*
X17108206Y-17383246D01*
X17108206Y-17383246D02*
X17098682Y-17335627D01*
X17098682Y-17335627D02*
X17089158Y-17307055D01*
X17089158Y-17307055D02*
X17079634Y-17288008D01*
X17079634Y-17288008D02*
X17060587Y-17259436D01*
X17060587Y-17259436D02*
X17051063Y-17249912D01*
X12176000Y-17751000D02*
X12276000Y-17651000D01*
X12176000Y-17551000D01*
X12076000Y-17651000D01*
X12176000Y-17751000D01*
X12527253Y-17561531D02*
X12536777Y-17552008D01*
X12536777Y-17552008D02*
X12555824Y-17542484D01*
X12555824Y-17542484D02*
X12603443Y-17542484D01*
X12603443Y-17542484D02*
X12622491Y-17552008D01*
X12622491Y-17552008D02*
X12632015Y-17561531D01*
X12632015Y-17561531D02*
X12641539Y-17580579D01*
X12641539Y-17580579D02*
X12641539Y-17599627D01*
X12641539Y-17599627D02*
X12632015Y-17628198D01*
X12632015Y-17628198D02*
X12517729Y-17742484D01*
X12517729Y-17742484D02*
X12641539Y-17742484D01*
X12727253Y-17723436D02*
X12736777Y-17732960D01*
X12736777Y-17732960D02*
X12727253Y-17742484D01*
X12727253Y-17742484D02*
X12717729Y-17732960D01*
X12717729Y-17732960D02*
X12727253Y-17723436D01*
X12727253Y-17723436D02*
X12727253Y-17742484D01*
X12908205Y-17542484D02*
X12870110Y-17542484D01*
X12870110Y-17542484D02*
X12851062Y-17552008D01*
X12851062Y-17552008D02*
X12841539Y-17561531D01*
X12841539Y-17561531D02*
X12822491Y-17590103D01*
X12822491Y-17590103D02*
X12812967Y-17628198D01*
X12812967Y-17628198D02*
X12812967Y-17704389D01*
X12812967Y-17704389D02*
X12822491Y-17723436D01*
X12822491Y-17723436D02*
X12832015Y-17732960D01*
X12832015Y-17732960D02*
X12851062Y-17742484D01*
X12851062Y-17742484D02*
X12889158Y-17742484D01*
X12889158Y-17742484D02*
X12908205Y-17732960D01*
X12908205Y-17732960D02*
X12917729Y-17723436D01*
X12917729Y-17723436D02*
X12927253Y-17704389D01*
X12927253Y-17704389D02*
X12927253Y-17656770D01*
X12927253Y-17656770D02*
X12917729Y-17637722D01*
X12917729Y-17637722D02*
X12908205Y-17628198D01*
X12908205Y-17628198D02*
X12889158Y-17618674D01*
X12889158Y-17618674D02*
X12851062Y-17618674D01*
X12851062Y-17618674D02*
X12832015Y-17628198D01*
X12832015Y-17628198D02*
X12822491Y-17637722D01*
X12822491Y-17637722D02*
X12812967Y-17656770D01*
X13051062Y-17542484D02*
X13070110Y-17542484D01*
X13070110Y-17542484D02*
X13089158Y-17552008D01*
X13089158Y-17552008D02*
X13098682Y-17561531D01*
X13098682Y-17561531D02*
X13108205Y-17580579D01*
X13108205Y-17580579D02*
X13117729Y-17618674D01*
X13117729Y-17618674D02*
X13117729Y-17666293D01*
X13117729Y-17666293D02*
X13108205Y-17704389D01*
X13108205Y-17704389D02*
X13098682Y-17723436D01*
X13098682Y-17723436D02*
X13089158Y-17732960D01*
X13089158Y-17732960D02*
X13070110Y-17742484D01*
X13070110Y-17742484D02*
X13051062Y-17742484D01*
X13051062Y-17742484D02*
X13032015Y-17732960D01*
X13032015Y-17732960D02*
X13022491Y-17723436D01*
X13022491Y-17723436D02*
X13012967Y-17704389D01*
X13012967Y-17704389D02*
X13003443Y-17666293D01*
X13003443Y-17666293D02*
X13003443Y-17618674D01*
X13003443Y-17618674D02*
X13012967Y-17580579D01*
X13012967Y-17580579D02*
X13022491Y-17561531D01*
X13022491Y-17561531D02*
X13032015Y-17552008D01*
X13032015Y-17552008D02*
X13051062Y-17542484D01*
X13241539Y-17542484D02*
X13260586Y-17542484D01*
X13260586Y-17542484D02*
X13279634Y-17552008D01*
X13279634Y-17552008D02*
X13289158Y-17561531D01*
X13289158Y-17561531D02*
X13298682Y-17580579D01*
X13298682Y-17580579D02*
X13308205Y-17618674D01*
X13308205Y-17618674D02*
X13308205Y-17666293D01*
X13308205Y-17666293D02*
X13298682Y-17704389D01*
X13298682Y-17704389D02*
X13289158Y-17723436D01*
X13289158Y-17723436D02*
X13279634Y-17732960D01*
X13279634Y-17732960D02*
X13260586Y-17742484D01*
X13260586Y-17742484D02*
X13241539Y-17742484D01*
X13241539Y-17742484D02*
X13222491Y-17732960D01*
X13222491Y-17732960D02*
X13212967Y-17723436D01*
X13212967Y-17723436D02*
X13203443Y-17704389D01*
X13203443Y-17704389D02*
X13193920Y-17666293D01*
X13193920Y-17666293D02*
X13193920Y-17618674D01*
X13193920Y-17618674D02*
X13203443Y-17580579D01*
X13203443Y-17580579D02*
X13212967Y-17561531D01*
X13212967Y-17561531D02*
X13222491Y-17552008D01*
X13222491Y-17552008D02*
X13241539Y-17542484D01*
X13393920Y-17742484D02*
X13393920Y-17609150D01*
X13393920Y-17628198D02*
X13403443Y-17618674D01*
X13403443Y-17618674D02*
X13422491Y-17609150D01*
X13422491Y-17609150D02*
X13451063Y-17609150D01*
X13451063Y-17609150D02*
X13470110Y-17618674D01*
X13470110Y-17618674D02*
X13479634Y-17637722D01*
X13479634Y-17637722D02*
X13479634Y-17742484D01*
X13479634Y-17637722D02*
X13489158Y-17618674D01*
X13489158Y-17618674D02*
X13508205Y-17609150D01*
X13508205Y-17609150D02*
X13536777Y-17609150D01*
X13536777Y-17609150D02*
X13555824Y-17618674D01*
X13555824Y-17618674D02*
X13565348Y-17637722D01*
X13565348Y-17637722D02*
X13565348Y-17742484D01*
X13660586Y-17742484D02*
X13660586Y-17609150D01*
X13660586Y-17628198D02*
X13670110Y-17618674D01*
X13670110Y-17618674D02*
X13689158Y-17609150D01*
X13689158Y-17609150D02*
X13717729Y-17609150D01*
X13717729Y-17609150D02*
X13736777Y-17618674D01*
X13736777Y-17618674D02*
X13746301Y-17637722D01*
X13746301Y-17637722D02*
X13746301Y-17742484D01*
X13746301Y-17637722D02*
X13755824Y-17618674D01*
X13755824Y-17618674D02*
X13774872Y-17609150D01*
X13774872Y-17609150D02*
X13803443Y-17609150D01*
X13803443Y-17609150D02*
X13822491Y-17618674D01*
X13822491Y-17618674D02*
X13832015Y-17637722D01*
X13832015Y-17637722D02*
X13832015Y-17742484D01*
X14222491Y-17532960D02*
X14051063Y-17790103D01*
X14479634Y-17542484D02*
X14498682Y-17542484D01*
X14498682Y-17542484D02*
X14517729Y-17552008D01*
X14517729Y-17552008D02*
X14527253Y-17561531D01*
X14527253Y-17561531D02*
X14536777Y-17580579D01*
X14536777Y-17580579D02*
X14546301Y-17618674D01*
X14546301Y-17618674D02*
X14546301Y-17666293D01*
X14546301Y-17666293D02*
X14536777Y-17704389D01*
X14536777Y-17704389D02*
X14527253Y-17723436D01*
X14527253Y-17723436D02*
X14517729Y-17732960D01*
X14517729Y-17732960D02*
X14498682Y-17742484D01*
X14498682Y-17742484D02*
X14479634Y-17742484D01*
X14479634Y-17742484D02*
X14460586Y-17732960D01*
X14460586Y-17732960D02*
X14451063Y-17723436D01*
X14451063Y-17723436D02*
X14441539Y-17704389D01*
X14441539Y-17704389D02*
X14432015Y-17666293D01*
X14432015Y-17666293D02*
X14432015Y-17618674D01*
X14432015Y-17618674D02*
X14441539Y-17580579D01*
X14441539Y-17580579D02*
X14451063Y-17561531D01*
X14451063Y-17561531D02*
X14460586Y-17552008D01*
X14460586Y-17552008D02*
X14479634Y-17542484D01*
X14632015Y-17723436D02*
X14641539Y-17732960D01*
X14641539Y-17732960D02*
X14632015Y-17742484D01*
X14632015Y-17742484D02*
X14622491Y-17732960D01*
X14622491Y-17732960D02*
X14632015Y-17723436D01*
X14632015Y-17723436D02*
X14632015Y-17742484D01*
X14832015Y-17742484D02*
X14717729Y-17742484D01*
X14774872Y-17742484D02*
X14774872Y-17542484D01*
X14774872Y-17542484D02*
X14755825Y-17571055D01*
X14755825Y-17571055D02*
X14736777Y-17590103D01*
X14736777Y-17590103D02*
X14717729Y-17599627D01*
X14955825Y-17542484D02*
X14974872Y-17542484D01*
X14974872Y-17542484D02*
X14993920Y-17552008D01*
X14993920Y-17552008D02*
X15003444Y-17561531D01*
X15003444Y-17561531D02*
X15012967Y-17580579D01*
X15012967Y-17580579D02*
X15022491Y-17618674D01*
X15022491Y-17618674D02*
X15022491Y-17666293D01*
X15022491Y-17666293D02*
X15012967Y-17704389D01*
X15012967Y-17704389D02*
X15003444Y-17723436D01*
X15003444Y-17723436D02*
X14993920Y-17732960D01*
X14993920Y-17732960D02*
X14974872Y-17742484D01*
X14974872Y-17742484D02*
X14955825Y-17742484D01*
X14955825Y-17742484D02*
X14936777Y-17732960D01*
X14936777Y-17732960D02*
X14927253Y-17723436D01*
X14927253Y-17723436D02*
X14917729Y-17704389D01*
X14917729Y-17704389D02*
X14908206Y-17666293D01*
X14908206Y-17666293D02*
X14908206Y-17618674D01*
X14908206Y-17618674D02*
X14917729Y-17580579D01*
X14917729Y-17580579D02*
X14927253Y-17561531D01*
X14927253Y-17561531D02*
X14936777Y-17552008D01*
X14936777Y-17552008D02*
X14955825Y-17542484D01*
X15098682Y-17561531D02*
X15108206Y-17552008D01*
X15108206Y-17552008D02*
X15127253Y-17542484D01*
X15127253Y-17542484D02*
X15174872Y-17542484D01*
X15174872Y-17542484D02*
X15193920Y-17552008D01*
X15193920Y-17552008D02*
X15203444Y-17561531D01*
X15203444Y-17561531D02*
X15212967Y-17580579D01*
X15212967Y-17580579D02*
X15212967Y-17599627D01*
X15212967Y-17599627D02*
X15203444Y-17628198D01*
X15203444Y-17628198D02*
X15089158Y-17742484D01*
X15089158Y-17742484D02*
X15212967Y-17742484D01*
X15384396Y-17609150D02*
X15384396Y-17742484D01*
X15336777Y-17532960D02*
X15289158Y-17675817D01*
X15289158Y-17675817D02*
X15412967Y-17675817D01*
X15479634Y-17542484D02*
X15479634Y-17580579D01*
X15555825Y-17542484D02*
X15555825Y-17580579D01*
X15851063Y-17818674D02*
X15841539Y-17809150D01*
X15841539Y-17809150D02*
X15822491Y-17780579D01*
X15822491Y-17780579D02*
X15812968Y-17761531D01*
X15812968Y-17761531D02*
X15803444Y-17732960D01*
X15803444Y-17732960D02*
X15793920Y-17685341D01*
X15793920Y-17685341D02*
X15793920Y-17647246D01*
X15793920Y-17647246D02*
X15803444Y-17599627D01*
X15803444Y-17599627D02*
X15812968Y-17571055D01*
X15812968Y-17571055D02*
X15822491Y-17552008D01*
X15822491Y-17552008D02*
X15841539Y-17523436D01*
X15841539Y-17523436D02*
X15851063Y-17513912D01*
X16012968Y-17609150D02*
X16012968Y-17742484D01*
X15965348Y-17532960D02*
X15917729Y-17675817D01*
X15917729Y-17675817D02*
X16041539Y-17675817D01*
X16270110Y-17742484D02*
X16270110Y-17542484D01*
X16355825Y-17742484D02*
X16355825Y-17637722D01*
X16355825Y-17637722D02*
X16346301Y-17618674D01*
X16346301Y-17618674D02*
X16327253Y-17609150D01*
X16327253Y-17609150D02*
X16298682Y-17609150D01*
X16298682Y-17609150D02*
X16279634Y-17618674D01*
X16279634Y-17618674D02*
X16270110Y-17628198D01*
X16479634Y-17742484D02*
X16460587Y-17732960D01*
X16460587Y-17732960D02*
X16451063Y-17723436D01*
X16451063Y-17723436D02*
X16441539Y-17704389D01*
X16441539Y-17704389D02*
X16441539Y-17647246D01*
X16441539Y-17647246D02*
X16451063Y-17628198D01*
X16451063Y-17628198D02*
X16460587Y-17618674D01*
X16460587Y-17618674D02*
X16479634Y-17609150D01*
X16479634Y-17609150D02*
X16508206Y-17609150D01*
X16508206Y-17609150D02*
X16527253Y-17618674D01*
X16527253Y-17618674D02*
X16536777Y-17628198D01*
X16536777Y-17628198D02*
X16546301Y-17647246D01*
X16546301Y-17647246D02*
X16546301Y-17704389D01*
X16546301Y-17704389D02*
X16536777Y-17723436D01*
X16536777Y-17723436D02*
X16527253Y-17732960D01*
X16527253Y-17732960D02*
X16508206Y-17742484D01*
X16508206Y-17742484D02*
X16479634Y-17742484D01*
X16660587Y-17742484D02*
X16641539Y-17732960D01*
X16641539Y-17732960D02*
X16632015Y-17713912D01*
X16632015Y-17713912D02*
X16632015Y-17542484D01*
X16812968Y-17732960D02*
X16793920Y-17742484D01*
X16793920Y-17742484D02*
X16755825Y-17742484D01*
X16755825Y-17742484D02*
X16736777Y-17732960D01*
X16736777Y-17732960D02*
X16727253Y-17713912D01*
X16727253Y-17713912D02*
X16727253Y-17637722D01*
X16727253Y-17637722D02*
X16736777Y-17618674D01*
X16736777Y-17618674D02*
X16755825Y-17609150D01*
X16755825Y-17609150D02*
X16793920Y-17609150D01*
X16793920Y-17609150D02*
X16812968Y-17618674D01*
X16812968Y-17618674D02*
X16822492Y-17637722D01*
X16822492Y-17637722D02*
X16822492Y-17656770D01*
X16822492Y-17656770D02*
X16727253Y-17675817D01*
X16898682Y-17732960D02*
X16917730Y-17742484D01*
X16917730Y-17742484D02*
X16955825Y-17742484D01*
X16955825Y-17742484D02*
X16974873Y-17732960D01*
X16974873Y-17732960D02*
X16984396Y-17713912D01*
X16984396Y-17713912D02*
X16984396Y-17704389D01*
X16984396Y-17704389D02*
X16974873Y-17685341D01*
X16974873Y-17685341D02*
X16955825Y-17675817D01*
X16955825Y-17675817D02*
X16927253Y-17675817D01*
X16927253Y-17675817D02*
X16908206Y-17666293D01*
X16908206Y-17666293D02*
X16898682Y-17647246D01*
X16898682Y-17647246D02*
X16898682Y-17637722D01*
X16898682Y-17637722D02*
X16908206Y-17618674D01*
X16908206Y-17618674D02*
X16927253Y-17609150D01*
X16927253Y-17609150D02*
X16955825Y-17609150D01*
X16955825Y-17609150D02*
X16974873Y-17618674D01*
X17051063Y-17818674D02*
X17060587Y-17809150D01*
X17060587Y-17809150D02*
X17079634Y-17780579D01*
X17079634Y-17780579D02*
X17089158Y-17761531D01*
X17089158Y-17761531D02*
X17098682Y-17732960D01*
X17098682Y-17732960D02*
X17108206Y-17685341D01*
X17108206Y-17685341D02*
X17108206Y-17647246D01*
X17108206Y-17647246D02*
X17098682Y-17599627D01*
X17098682Y-17599627D02*
X17089158Y-17571055D01*
X17089158Y-17571055D02*
X17079634Y-17552008D01*
X17079634Y-17552008D02*
X17060587Y-17523436D01*
X17060587Y-17523436D02*
X17051063Y-17513912D01*
X12076000Y-17871000D02*
X12276000Y-18071000D01*
X12276000Y-17871000D02*
X12076000Y-18071000D01*
X12276000Y-17971000D02*
G75*
G03*
X12276000Y-17971000I-100000J0D01*
G01*
X12632015Y-17862484D02*
X12536777Y-17862484D01*
X12536777Y-17862484D02*
X12527253Y-17957722D01*
X12527253Y-17957722D02*
X12536777Y-17948198D01*
X12536777Y-17948198D02*
X12555824Y-17938674D01*
X12555824Y-17938674D02*
X12603443Y-17938674D01*
X12603443Y-17938674D02*
X12622491Y-17948198D01*
X12622491Y-17948198D02*
X12632015Y-17957722D01*
X12632015Y-17957722D02*
X12641539Y-17976770D01*
X12641539Y-17976770D02*
X12641539Y-18024389D01*
X12641539Y-18024389D02*
X12632015Y-18043436D01*
X12632015Y-18043436D02*
X12622491Y-18052960D01*
X12622491Y-18052960D02*
X12603443Y-18062484D01*
X12603443Y-18062484D02*
X12555824Y-18062484D01*
X12555824Y-18062484D02*
X12536777Y-18052960D01*
X12536777Y-18052960D02*
X12527253Y-18043436D01*
X12727253Y-18043436D02*
X12736777Y-18052960D01*
X12736777Y-18052960D02*
X12727253Y-18062484D01*
X12727253Y-18062484D02*
X12717729Y-18052960D01*
X12717729Y-18052960D02*
X12727253Y-18043436D01*
X12727253Y-18043436D02*
X12727253Y-18062484D01*
X12917729Y-17862484D02*
X12822491Y-17862484D01*
X12822491Y-17862484D02*
X12812967Y-17957722D01*
X12812967Y-17957722D02*
X12822491Y-17948198D01*
X12822491Y-17948198D02*
X12841539Y-17938674D01*
X12841539Y-17938674D02*
X12889158Y-17938674D01*
X12889158Y-17938674D02*
X12908205Y-17948198D01*
X12908205Y-17948198D02*
X12917729Y-17957722D01*
X12917729Y-17957722D02*
X12927253Y-17976770D01*
X12927253Y-17976770D02*
X12927253Y-18024389D01*
X12927253Y-18024389D02*
X12917729Y-18043436D01*
X12917729Y-18043436D02*
X12908205Y-18052960D01*
X12908205Y-18052960D02*
X12889158Y-18062484D01*
X12889158Y-18062484D02*
X12841539Y-18062484D01*
X12841539Y-18062484D02*
X12822491Y-18052960D01*
X12822491Y-18052960D02*
X12812967Y-18043436D01*
X13051062Y-17862484D02*
X13070110Y-17862484D01*
X13070110Y-17862484D02*
X13089158Y-17872008D01*
X13089158Y-17872008D02*
X13098682Y-17881531D01*
X13098682Y-17881531D02*
X13108205Y-17900579D01*
X13108205Y-17900579D02*
X13117729Y-17938674D01*
X13117729Y-17938674D02*
X13117729Y-17986293D01*
X13117729Y-17986293D02*
X13108205Y-18024389D01*
X13108205Y-18024389D02*
X13098682Y-18043436D01*
X13098682Y-18043436D02*
X13089158Y-18052960D01*
X13089158Y-18052960D02*
X13070110Y-18062484D01*
X13070110Y-18062484D02*
X13051062Y-18062484D01*
X13051062Y-18062484D02*
X13032015Y-18052960D01*
X13032015Y-18052960D02*
X13022491Y-18043436D01*
X13022491Y-18043436D02*
X13012967Y-18024389D01*
X13012967Y-18024389D02*
X13003443Y-17986293D01*
X13003443Y-17986293D02*
X13003443Y-17938674D01*
X13003443Y-17938674D02*
X13012967Y-17900579D01*
X13012967Y-17900579D02*
X13022491Y-17881531D01*
X13022491Y-17881531D02*
X13032015Y-17872008D01*
X13032015Y-17872008D02*
X13051062Y-17862484D01*
X13241539Y-17862484D02*
X13260586Y-17862484D01*
X13260586Y-17862484D02*
X13279634Y-17872008D01*
X13279634Y-17872008D02*
X13289158Y-17881531D01*
X13289158Y-17881531D02*
X13298682Y-17900579D01*
X13298682Y-17900579D02*
X13308205Y-17938674D01*
X13308205Y-17938674D02*
X13308205Y-17986293D01*
X13308205Y-17986293D02*
X13298682Y-18024389D01*
X13298682Y-18024389D02*
X13289158Y-18043436D01*
X13289158Y-18043436D02*
X13279634Y-18052960D01*
X13279634Y-18052960D02*
X13260586Y-18062484D01*
X13260586Y-18062484D02*
X13241539Y-18062484D01*
X13241539Y-18062484D02*
X13222491Y-18052960D01*
X13222491Y-18052960D02*
X13212967Y-18043436D01*
X13212967Y-18043436D02*
X13203443Y-18024389D01*
X13203443Y-18024389D02*
X13193920Y-17986293D01*
X13193920Y-17986293D02*
X13193920Y-17938674D01*
X13193920Y-17938674D02*
X13203443Y-17900579D01*
X13203443Y-17900579D02*
X13212967Y-17881531D01*
X13212967Y-17881531D02*
X13222491Y-17872008D01*
X13222491Y-17872008D02*
X13241539Y-17862484D01*
X13393920Y-18062484D02*
X13393920Y-17929150D01*
X13393920Y-17948198D02*
X13403443Y-17938674D01*
X13403443Y-17938674D02*
X13422491Y-17929150D01*
X13422491Y-17929150D02*
X13451063Y-17929150D01*
X13451063Y-17929150D02*
X13470110Y-17938674D01*
X13470110Y-17938674D02*
X13479634Y-17957722D01*
X13479634Y-17957722D02*
X13479634Y-18062484D01*
X13479634Y-17957722D02*
X13489158Y-17938674D01*
X13489158Y-17938674D02*
X13508205Y-17929150D01*
X13508205Y-17929150D02*
X13536777Y-17929150D01*
X13536777Y-17929150D02*
X13555824Y-17938674D01*
X13555824Y-17938674D02*
X13565348Y-17957722D01*
X13565348Y-17957722D02*
X13565348Y-18062484D01*
X13660586Y-18062484D02*
X13660586Y-17929150D01*
X13660586Y-17948198D02*
X13670110Y-17938674D01*
X13670110Y-17938674D02*
X13689158Y-17929150D01*
X13689158Y-17929150D02*
X13717729Y-17929150D01*
X13717729Y-17929150D02*
X13736777Y-17938674D01*
X13736777Y-17938674D02*
X13746301Y-17957722D01*
X13746301Y-17957722D02*
X13746301Y-18062484D01*
X13746301Y-17957722D02*
X13755824Y-17938674D01*
X13755824Y-17938674D02*
X13774872Y-17929150D01*
X13774872Y-17929150D02*
X13803443Y-17929150D01*
X13803443Y-17929150D02*
X13822491Y-17938674D01*
X13822491Y-17938674D02*
X13832015Y-17957722D01*
X13832015Y-17957722D02*
X13832015Y-18062484D01*
X14222491Y-17852960D02*
X14051063Y-18110103D01*
X14479634Y-17862484D02*
X14498682Y-17862484D01*
X14498682Y-17862484D02*
X14517729Y-17872008D01*
X14517729Y-17872008D02*
X14527253Y-17881531D01*
X14527253Y-17881531D02*
X14536777Y-17900579D01*
X14536777Y-17900579D02*
X14546301Y-17938674D01*
X14546301Y-17938674D02*
X14546301Y-17986293D01*
X14546301Y-17986293D02*
X14536777Y-18024389D01*
X14536777Y-18024389D02*
X14527253Y-18043436D01*
X14527253Y-18043436D02*
X14517729Y-18052960D01*
X14517729Y-18052960D02*
X14498682Y-18062484D01*
X14498682Y-18062484D02*
X14479634Y-18062484D01*
X14479634Y-18062484D02*
X14460586Y-18052960D01*
X14460586Y-18052960D02*
X14451063Y-18043436D01*
X14451063Y-18043436D02*
X14441539Y-18024389D01*
X14441539Y-18024389D02*
X14432015Y-17986293D01*
X14432015Y-17986293D02*
X14432015Y-17938674D01*
X14432015Y-17938674D02*
X14441539Y-17900579D01*
X14441539Y-17900579D02*
X14451063Y-17881531D01*
X14451063Y-17881531D02*
X14460586Y-17872008D01*
X14460586Y-17872008D02*
X14479634Y-17862484D01*
X14632015Y-18043436D02*
X14641539Y-18052960D01*
X14641539Y-18052960D02*
X14632015Y-18062484D01*
X14632015Y-18062484D02*
X14622491Y-18052960D01*
X14622491Y-18052960D02*
X14632015Y-18043436D01*
X14632015Y-18043436D02*
X14632015Y-18062484D01*
X14717729Y-17881531D02*
X14727253Y-17872008D01*
X14727253Y-17872008D02*
X14746301Y-17862484D01*
X14746301Y-17862484D02*
X14793920Y-17862484D01*
X14793920Y-17862484D02*
X14812967Y-17872008D01*
X14812967Y-17872008D02*
X14822491Y-17881531D01*
X14822491Y-17881531D02*
X14832015Y-17900579D01*
X14832015Y-17900579D02*
X14832015Y-17919627D01*
X14832015Y-17919627D02*
X14822491Y-17948198D01*
X14822491Y-17948198D02*
X14708206Y-18062484D01*
X14708206Y-18062484D02*
X14832015Y-18062484D01*
X15022491Y-18062484D02*
X14908206Y-18062484D01*
X14965348Y-18062484D02*
X14965348Y-17862484D01*
X14965348Y-17862484D02*
X14946301Y-17891055D01*
X14946301Y-17891055D02*
X14927253Y-17910103D01*
X14927253Y-17910103D02*
X14908206Y-17919627D01*
X15193920Y-17862484D02*
X15155825Y-17862484D01*
X15155825Y-17862484D02*
X15136777Y-17872008D01*
X15136777Y-17872008D02*
X15127253Y-17881531D01*
X15127253Y-17881531D02*
X15108206Y-17910103D01*
X15108206Y-17910103D02*
X15098682Y-17948198D01*
X15098682Y-17948198D02*
X15098682Y-18024389D01*
X15098682Y-18024389D02*
X15108206Y-18043436D01*
X15108206Y-18043436D02*
X15117729Y-18052960D01*
X15117729Y-18052960D02*
X15136777Y-18062484D01*
X15136777Y-18062484D02*
X15174872Y-18062484D01*
X15174872Y-18062484D02*
X15193920Y-18052960D01*
X15193920Y-18052960D02*
X15203444Y-18043436D01*
X15203444Y-18043436D02*
X15212967Y-18024389D01*
X15212967Y-18024389D02*
X15212967Y-17976770D01*
X15212967Y-17976770D02*
X15203444Y-17957722D01*
X15203444Y-17957722D02*
X15193920Y-17948198D01*
X15193920Y-17948198D02*
X15174872Y-17938674D01*
X15174872Y-17938674D02*
X15136777Y-17938674D01*
X15136777Y-17938674D02*
X15117729Y-17948198D01*
X15117729Y-17948198D02*
X15108206Y-17957722D01*
X15108206Y-17957722D02*
X15098682Y-17976770D01*
X15393920Y-17862484D02*
X15298682Y-17862484D01*
X15298682Y-17862484D02*
X15289158Y-17957722D01*
X15289158Y-17957722D02*
X15298682Y-17948198D01*
X15298682Y-17948198D02*
X15317729Y-17938674D01*
X15317729Y-17938674D02*
X15365348Y-17938674D01*
X15365348Y-17938674D02*
X15384396Y-17948198D01*
X15384396Y-17948198D02*
X15393920Y-17957722D01*
X15393920Y-17957722D02*
X15403444Y-17976770D01*
X15403444Y-17976770D02*
X15403444Y-18024389D01*
X15403444Y-18024389D02*
X15393920Y-18043436D01*
X15393920Y-18043436D02*
X15384396Y-18052960D01*
X15384396Y-18052960D02*
X15365348Y-18062484D01*
X15365348Y-18062484D02*
X15317729Y-18062484D01*
X15317729Y-18062484D02*
X15298682Y-18052960D01*
X15298682Y-18052960D02*
X15289158Y-18043436D01*
X15479634Y-17862484D02*
X15479634Y-17900579D01*
X15555825Y-17862484D02*
X15555825Y-17900579D01*
X15851063Y-18138674D02*
X15841539Y-18129150D01*
X15841539Y-18129150D02*
X15822491Y-18100579D01*
X15822491Y-18100579D02*
X15812968Y-18081531D01*
X15812968Y-18081531D02*
X15803444Y-18052960D01*
X15803444Y-18052960D02*
X15793920Y-18005341D01*
X15793920Y-18005341D02*
X15793920Y-17967246D01*
X15793920Y-17967246D02*
X15803444Y-17919627D01*
X15803444Y-17919627D02*
X15812968Y-17891055D01*
X15812968Y-17891055D02*
X15822491Y-17872008D01*
X15822491Y-17872008D02*
X15841539Y-17843436D01*
X15841539Y-17843436D02*
X15851063Y-17833912D01*
X15917729Y-17881531D02*
X15927253Y-17872008D01*
X15927253Y-17872008D02*
X15946301Y-17862484D01*
X15946301Y-17862484D02*
X15993920Y-17862484D01*
X15993920Y-17862484D02*
X16012968Y-17872008D01*
X16012968Y-17872008D02*
X16022491Y-17881531D01*
X16022491Y-17881531D02*
X16032015Y-17900579D01*
X16032015Y-17900579D02*
X16032015Y-17919627D01*
X16032015Y-17919627D02*
X16022491Y-17948198D01*
X16022491Y-17948198D02*
X15908206Y-18062484D01*
X15908206Y-18062484D02*
X16032015Y-18062484D01*
X16270110Y-18062484D02*
X16270110Y-17862484D01*
X16355825Y-18062484D02*
X16355825Y-17957722D01*
X16355825Y-17957722D02*
X16346301Y-17938674D01*
X16346301Y-17938674D02*
X16327253Y-17929150D01*
X16327253Y-17929150D02*
X16298682Y-17929150D01*
X16298682Y-17929150D02*
X16279634Y-17938674D01*
X16279634Y-17938674D02*
X16270110Y-17948198D01*
X16479634Y-18062484D02*
X16460587Y-18052960D01*
X16460587Y-18052960D02*
X16451063Y-18043436D01*
X16451063Y-18043436D02*
X16441539Y-18024389D01*
X16441539Y-18024389D02*
X16441539Y-17967246D01*
X16441539Y-17967246D02*
X16451063Y-17948198D01*
X16451063Y-17948198D02*
X16460587Y-17938674D01*
X16460587Y-17938674D02*
X16479634Y-17929150D01*
X16479634Y-17929150D02*
X16508206Y-17929150D01*
X16508206Y-17929150D02*
X16527253Y-17938674D01*
X16527253Y-17938674D02*
X16536777Y-17948198D01*
X16536777Y-17948198D02*
X16546301Y-17967246D01*
X16546301Y-17967246D02*
X16546301Y-18024389D01*
X16546301Y-18024389D02*
X16536777Y-18043436D01*
X16536777Y-18043436D02*
X16527253Y-18052960D01*
X16527253Y-18052960D02*
X16508206Y-18062484D01*
X16508206Y-18062484D02*
X16479634Y-18062484D01*
X16660587Y-18062484D02*
X16641539Y-18052960D01*
X16641539Y-18052960D02*
X16632015Y-18033912D01*
X16632015Y-18033912D02*
X16632015Y-17862484D01*
X16812968Y-18052960D02*
X16793920Y-18062484D01*
X16793920Y-18062484D02*
X16755825Y-18062484D01*
X16755825Y-18062484D02*
X16736777Y-18052960D01*
X16736777Y-18052960D02*
X16727253Y-18033912D01*
X16727253Y-18033912D02*
X16727253Y-17957722D01*
X16727253Y-17957722D02*
X16736777Y-17938674D01*
X16736777Y-17938674D02*
X16755825Y-17929150D01*
X16755825Y-17929150D02*
X16793920Y-17929150D01*
X16793920Y-17929150D02*
X16812968Y-17938674D01*
X16812968Y-17938674D02*
X16822492Y-17957722D01*
X16822492Y-17957722D02*
X16822492Y-17976770D01*
X16822492Y-17976770D02*
X16727253Y-17995817D01*
X16898682Y-18052960D02*
X16917730Y-18062484D01*
X16917730Y-18062484D02*
X16955825Y-18062484D01*
X16955825Y-18062484D02*
X16974873Y-18052960D01*
X16974873Y-18052960D02*
X16984396Y-18033912D01*
X16984396Y-18033912D02*
X16984396Y-18024389D01*
X16984396Y-18024389D02*
X16974873Y-18005341D01*
X16974873Y-18005341D02*
X16955825Y-17995817D01*
X16955825Y-17995817D02*
X16927253Y-17995817D01*
X16927253Y-17995817D02*
X16908206Y-17986293D01*
X16908206Y-17986293D02*
X16898682Y-17967246D01*
X16898682Y-17967246D02*
X16898682Y-17957722D01*
X16898682Y-17957722D02*
X16908206Y-17938674D01*
X16908206Y-17938674D02*
X16927253Y-17929150D01*
X16927253Y-17929150D02*
X16955825Y-17929150D01*
X16955825Y-17929150D02*
X16974873Y-17938674D01*
X17051063Y-18138674D02*
X17060587Y-18129150D01*
X17060587Y-18129150D02*
X17079634Y-18100579D01*
X17079634Y-18100579D02*
X17089158Y-18081531D01*
X17089158Y-18081531D02*
X17098682Y-18052960D01*
X17098682Y-18052960D02*
X17108206Y-18005341D01*
X17108206Y-18005341D02*
X17108206Y-17967246D01*
X17108206Y-17967246D02*
X17098682Y-17919627D01*
X17098682Y-17919627D02*
X17089158Y-17891055D01*
X17089158Y-17891055D02*
X17079634Y-17872008D01*
X17079634Y-17872008D02*
X17060587Y-17843436D01*
X17060587Y-17843436D02*
X17051063Y-17833912D01*
M02*
