%TF.GenerationSoftware,KiCad,Pcbnew,7.0.1*%
%TF.CreationDate,2023-12-14T09:52:28-06:00*%
%TF.ProjectId,ProjectNeoRogue,50726f6a-6563-4744-9e65-6f526f677565,v1*%
%TF.SameCoordinates,Original*%
%TF.FileFunction,Copper,L3,Inr*%
%TF.FilePolarity,Positive*%
%FSLAX46Y46*%
G04 Gerber Fmt 4.6, Leading zero omitted, Abs format (unit mm)*
G04 Created by KiCad (PCBNEW 7.0.1) date 2023-12-14 09:52:28*
%MOMM*%
%LPD*%
G01*
G04 APERTURE LIST*
%TA.AperFunction,ComponentPad*%
%ADD10O,1.727200X1.727200*%
%TD*%
%TA.AperFunction,ComponentPad*%
%ADD11R,1.727200X1.727200*%
%TD*%
%TA.AperFunction,ComponentPad*%
%ADD12C,1.727200*%
%TD*%
%TA.AperFunction,ComponentPad*%
%ADD13R,1.700000X1.700000*%
%TD*%
%TA.AperFunction,ComponentPad*%
%ADD14O,1.700000X1.700000*%
%TD*%
%TA.AperFunction,ComponentPad*%
%ADD15C,6.000000*%
%TD*%
%TA.AperFunction,ComponentPad*%
%ADD16R,2.000000X2.000000*%
%TD*%
%TA.AperFunction,ComponentPad*%
%ADD17C,2.000000*%
%TD*%
%TA.AperFunction,ComponentPad*%
%ADD18C,3.200000*%
%TD*%
%TA.AperFunction,ComponentPad*%
%ADD19O,1.000000X1.800000*%
%TD*%
%TA.AperFunction,ComponentPad*%
%ADD20O,1.000000X2.100000*%
%TD*%
%TA.AperFunction,ViaPad*%
%ADD21C,0.750000*%
%TD*%
%TA.AperFunction,ViaPad*%
%ADD22C,0.600000*%
%TD*%
%TA.AperFunction,Conductor*%
%ADD23C,0.250000*%
%TD*%
G04 APERTURE END LIST*
D10*
%TO.N,VCC*%
%TO.C,X1*%
X213220000Y-65250000D03*
D11*
%TO.N,GND*%
X210680000Y-65250000D03*
D10*
%TO.N,IO06*%
X213220000Y-67790000D03*
%TO.N,IO07*%
X210680000Y-67790000D03*
D12*
%TO.N,Net-(JP2-B)*%
X213220000Y-70330000D03*
%TO.N,Net-(JP3-A)*%
X210680000Y-70330000D03*
%TD*%
D13*
%TO.N,unconnected-(J7-Pin_1-Pad1)*%
%TO.C,J7*%
X168040000Y-128340000D03*
D14*
%TO.N,IO02*%
X170580000Y-128340000D03*
%TO.N,IO01*%
X173120000Y-128340000D03*
%TO.N,IO08*%
X175660000Y-128340000D03*
%TO.N,IO09*%
X178200000Y-128340000D03*
%TO.N,GND*%
X180740000Y-128340000D03*
%TO.N,VCC*%
X183280000Y-128340000D03*
%TD*%
D15*
%TO.N,*%
%TO.C,REF\u002A\u002A*%
X214370000Y-49510000D03*
%TD*%
%TO.N,*%
%TO.C,REF\u002A\u002A*%
X214690000Y-155670000D03*
%TD*%
D16*
%TO.N,IO04*%
%TO.C,SW9*%
X128020000Y-51080000D03*
D17*
%TO.N,IO05*%
X128020000Y-56080000D03*
%TO.N,GND*%
X128020000Y-53580000D03*
D18*
%TO.N,N/C*%
X135520000Y-47980000D03*
X135520000Y-59180000D03*
D17*
%TO.N,IO20*%
X142520000Y-56080000D03*
%TO.N,GND*%
X142520000Y-51080000D03*
%TD*%
D16*
%TO.N,IO16*%
%TO.C,SW10*%
X128270000Y-149270000D03*
D17*
%TO.N,IO17*%
X128270000Y-154270000D03*
%TO.N,GND*%
X128270000Y-151770000D03*
D18*
%TO.N,N/C*%
X135770000Y-146170000D03*
X135770000Y-157370000D03*
D17*
%TO.N,IO19*%
X142770000Y-154270000D03*
%TO.N,GND*%
X142770000Y-149270000D03*
%TD*%
D19*
%TO.N,Net-(J8-SHIELD)*%
%TO.C,J8*%
X174380000Y-156880000D03*
D20*
X174380000Y-152730000D03*
D19*
X165740000Y-156880000D03*
D20*
X165740000Y-152730000D03*
%TD*%
D21*
%TO.N,GND*%
X158750000Y-60706000D03*
D22*
X167630000Y-53040000D03*
D21*
X164338000Y-113792000D03*
X131190000Y-107900000D03*
X174510000Y-139670000D03*
X187780000Y-128620000D03*
X155350000Y-82440000D03*
X171150000Y-143550000D03*
X194890000Y-156280000D03*
X164010000Y-137530000D03*
X152210000Y-122910000D03*
X151710000Y-107520000D03*
X166080000Y-124450000D03*
X191880000Y-95300000D03*
X128810000Y-101550000D03*
X182520000Y-142482000D03*
X167760000Y-117430000D03*
X157230000Y-113550000D03*
X149098000Y-64008000D03*
X149830000Y-83620000D03*
X186330000Y-130960000D03*
X179500000Y-111910000D03*
X210660000Y-63300000D03*
X161600000Y-110090000D03*
X162970000Y-148030000D03*
D22*
X205040000Y-131130000D03*
D21*
X135410000Y-115700000D03*
X167450000Y-88759500D03*
X168000000Y-143430000D03*
X186409000Y-138164000D03*
X127230000Y-61560000D03*
D22*
X205460000Y-128620000D03*
D21*
X141130000Y-137110000D03*
D22*
X138460000Y-61660000D03*
D21*
X142240000Y-119126000D03*
X175170000Y-143240000D03*
%TO.N,VBUS*%
X191300000Y-134785000D03*
X191770000Y-137287000D03*
%TO.N,VCC*%
X174315901Y-134084108D03*
X178970000Y-91970000D03*
X183300000Y-135710000D03*
X183480000Y-137300000D03*
X166680000Y-134330000D03*
X185340000Y-99240000D03*
X126540000Y-122840000D03*
X141040000Y-135480000D03*
X181176600Y-136690800D03*
D22*
X149070000Y-51660000D03*
D21*
X197410000Y-131440000D03*
X163370000Y-145920000D03*
D22*
X127850000Y-47900000D03*
D21*
X212852000Y-128270000D03*
D22*
X130290000Y-58650000D03*
D21*
X162980000Y-95460000D03*
X215392000Y-128270000D03*
X178660000Y-135850000D03*
X148000000Y-59890000D03*
X172540000Y-133610000D03*
X172550000Y-116110000D03*
X130330000Y-60220000D03*
X210470000Y-155560000D03*
X178770000Y-137450000D03*
D22*
X124380000Y-150040000D03*
%TO.N,Net-(D6-A)*%
X203720000Y-87060000D03*
X199430000Y-136570000D03*
%TO.N,IO18*%
X156320000Y-89313396D03*
%TO.N,Net-(D7-A)*%
X199010000Y-141940000D03*
X204940000Y-87520000D03*
D21*
%TO.N,USB_TX_ESP_RX*%
X133860000Y-91010000D03*
X124560500Y-102030000D03*
D22*
%TO.N,Boot*%
X140820000Y-77060000D03*
X167650000Y-47670000D03*
D21*
%TO.N,IO15*%
X145229500Y-80295378D03*
D22*
X189710000Y-149230000D03*
D21*
X146054363Y-84710000D03*
D22*
X187770000Y-92750000D03*
D21*
%TO.N,IO05*%
X134180000Y-67300000D03*
D22*
X123780000Y-56140000D03*
D21*
%TO.N,IO04*%
X132175000Y-67145000D03*
D22*
X123990000Y-51110000D03*
D21*
%TO.N,IO10*%
X152659466Y-66530534D03*
X155380000Y-63810000D03*
%TO.N,IO14*%
X157181126Y-88688896D03*
X152400000Y-88360000D03*
%TO.N,IO13*%
X152894624Y-87549505D03*
X157150000Y-87890000D03*
%TO.N,IO12*%
X153924000Y-87539396D03*
X157190000Y-87060000D03*
%TO.N,IO11*%
X154866861Y-87089396D03*
X157190000Y-86260000D03*
%TO.N,IO37*%
X141040000Y-107459000D03*
X142388581Y-105961403D03*
%TO.N,IO36*%
X142953589Y-106526411D03*
X141866666Y-108121401D03*
%TO.N,IO35*%
X142650000Y-108900000D03*
X143643589Y-107216411D03*
%TO.N,IO16*%
X144500500Y-77865453D03*
D22*
X144980000Y-84740000D03*
D21*
X155180000Y-122410000D03*
X155900000Y-118880000D03*
%TO.N,IO17*%
X152540000Y-90714500D03*
X154470000Y-115980000D03*
X144560500Y-75522774D03*
X154279432Y-121139419D03*
D22*
%TO.N,IO08*%
X174677775Y-90300000D03*
D21*
X155620500Y-73310500D03*
D22*
%TO.N,IO09*%
X148310000Y-69800000D03*
D21*
X182900378Y-89910378D03*
%TO.N,IO02*%
X141947976Y-81650897D03*
%TO.N,IO01*%
X142170000Y-80440000D03*
X157019500Y-74010000D03*
X186539622Y-87450378D03*
%TO.N,IO19*%
X145085500Y-76400000D03*
X152830000Y-119060000D03*
%TO.N,IO47*%
X132297567Y-116752399D03*
X148340000Y-78670000D03*
X143830500Y-84868161D03*
X143370000Y-109670000D03*
X131430000Y-122760000D03*
X144396855Y-107794465D03*
X133049500Y-124460000D03*
X131160000Y-119670000D03*
%TO.N,IO06*%
X215392000Y-121920000D03*
X209550000Y-128524000D03*
X207264000Y-130556000D03*
D22*
%TO.N,IO07*%
X212030000Y-57260000D03*
D21*
X206756000Y-129794000D03*
X208534000Y-128270000D03*
X212852000Y-121920000D03*
%TO.N,IO20*%
X146558000Y-64008000D03*
D22*
X145780000Y-56290000D03*
D21*
%TO.N,IO45*%
X147066000Y-83058000D03*
X157988000Y-54356000D03*
%TO.N,IO46*%
X149352000Y-67310000D03*
X154502000Y-62922000D03*
%TD*%
D23*
%TO.N,VBUS*%
X191740000Y-137257000D02*
X191770000Y-137287000D01*
X191740000Y-135225000D02*
X191740000Y-137257000D01*
X191300000Y-134785000D02*
X191740000Y-135225000D01*
%TO.N,Net-(D6-A)*%
X205198884Y-86895000D02*
X207834000Y-89530116D01*
X203885000Y-86895000D02*
X205198884Y-86895000D01*
X203270000Y-132730000D02*
X199430000Y-136570000D01*
X203270000Y-129490000D02*
X203270000Y-132730000D01*
X207834000Y-89530116D02*
X205400000Y-91964116D01*
X203720000Y-87060000D02*
X203885000Y-86895000D01*
X205400000Y-91964116D02*
X205400000Y-127360000D01*
X205400000Y-127360000D02*
X203270000Y-129490000D01*
%TO.N,Net-(D7-A)*%
X198580000Y-141510000D02*
X198580000Y-132350000D01*
X199010000Y-141940000D02*
X198580000Y-141510000D01*
X198580000Y-132350000D02*
X204940000Y-125990000D01*
X204940000Y-125990000D02*
X204940000Y-87520000D01*
%TO.N,USB_TX_ESP_RX*%
X124560500Y-100309500D02*
X133860000Y-91010000D01*
X124560500Y-102030000D02*
X124560500Y-100309500D01*
%TO.N,Boot*%
X156806050Y-55056000D02*
X148398000Y-63464050D01*
X167650000Y-47670000D02*
X166774500Y-47670000D01*
X148398000Y-63464050D02*
X148398000Y-65710796D01*
X140820000Y-73288796D02*
X140820000Y-77060000D01*
X166774500Y-47670000D02*
X159388500Y-55056000D01*
X148398000Y-65710796D02*
X140820000Y-73288796D01*
X159388500Y-55056000D02*
X156806050Y-55056000D01*
%TO.N,Net-(J8-SHIELD)*%
X165760000Y-152133744D02*
X165760000Y-156283744D01*
X174400000Y-152133744D02*
X174400000Y-156283744D01*
X165760000Y-156283744D02*
X174400000Y-156283744D01*
%TO.N,IO15*%
X145229500Y-80295378D02*
X146060000Y-81125878D01*
X187770000Y-104670000D02*
X189710000Y-106610000D01*
X189710000Y-106610000D02*
X189710000Y-149230000D01*
X146054363Y-81545637D02*
X146054363Y-84710000D01*
X187770000Y-92750000D02*
X187770000Y-104670000D01*
X146060000Y-81125878D02*
X146060000Y-81540000D01*
X146060000Y-81540000D02*
X146054363Y-81545637D01*
%TO.N,IO05*%
X133640000Y-67300000D02*
X130205437Y-63865437D01*
X130205437Y-63545487D02*
X127519950Y-60860000D01*
X127519950Y-60860000D02*
X126940050Y-60860000D01*
X123780000Y-58913604D02*
X123780000Y-56140000D01*
X130205437Y-63865437D02*
X130205437Y-63545487D01*
X134180000Y-67300000D02*
X133640000Y-67300000D01*
X126530000Y-61270050D02*
X126136446Y-61270050D01*
X126136446Y-61270050D02*
X123780000Y-58913604D01*
X123780000Y-56140000D02*
X123780000Y-56190000D01*
X126940050Y-60860000D02*
X126530000Y-61270050D01*
%TO.N,IO04*%
X123990000Y-51040000D02*
X123930000Y-51100000D01*
X123920000Y-51110000D02*
X123990000Y-51110000D01*
X128511759Y-64281759D02*
X123150000Y-58920000D01*
X123150000Y-58920000D02*
X123150000Y-51880000D01*
X129311759Y-64281759D02*
X128511759Y-64281759D01*
X132175000Y-67145000D02*
X129311759Y-64281759D01*
X123150000Y-51880000D02*
X123920000Y-51110000D01*
X123990000Y-51110000D02*
X123990000Y-51040000D01*
%TO.N,IO10*%
X152659466Y-66530534D02*
X155380000Y-63810000D01*
%TO.N,IO14*%
X152400000Y-88360000D02*
X152728896Y-88688896D01*
X152728896Y-88688896D02*
X157181126Y-88688896D01*
%TO.N,IO13*%
X153584015Y-88238896D02*
X156641176Y-88238896D01*
X156990072Y-87890000D02*
X157150000Y-87890000D01*
X152894624Y-87549505D02*
X153584015Y-88238896D01*
X156641176Y-88238896D02*
X156990072Y-87890000D01*
%TO.N,IO12*%
X156261154Y-87788896D02*
X156990050Y-87060000D01*
X154173500Y-87788896D02*
X156261154Y-87788896D01*
X153924000Y-87539396D02*
X154173500Y-87788896D01*
X156990050Y-87060000D02*
X157190000Y-87060000D01*
%TO.N,IO11*%
X156490000Y-86770050D02*
X157000050Y-86260000D01*
X156490000Y-86842000D02*
X156490000Y-86770050D01*
X157000050Y-86260000D02*
X157190000Y-86260000D01*
X154866861Y-87089396D02*
X156242604Y-87089396D01*
X156242604Y-87089396D02*
X156490000Y-86842000D01*
%TO.N,IO37*%
X141040000Y-107459000D02*
X141040000Y-107309984D01*
X141040000Y-107309984D02*
X142388581Y-105961403D01*
%TO.N,IO36*%
X142953589Y-106936411D02*
X142953589Y-106526411D01*
X141768599Y-108121401D02*
X142953589Y-106936411D01*
X141620130Y-108121401D02*
X141768599Y-108121401D01*
%TO.N,IO35*%
X142650000Y-108210000D02*
X142650000Y-108900000D01*
X143643589Y-107216411D02*
X142650000Y-108210000D01*
%TO.N,IO16*%
X155900000Y-121690000D02*
X155900000Y-118880000D01*
X144530000Y-84290000D02*
X144980000Y-84740000D01*
X144500500Y-78037372D02*
X144530000Y-78066872D01*
X144530000Y-78066872D02*
X144530000Y-84290000D01*
X144500500Y-77865453D02*
X144500500Y-78037372D01*
X155180000Y-122410000D02*
X155900000Y-121690000D01*
%TO.N,IO17*%
X144795550Y-75700000D02*
X145375450Y-75700000D01*
X150530000Y-83330050D02*
X150530000Y-88704500D01*
X144618324Y-75522774D02*
X144795550Y-75700000D01*
X154360000Y-121058851D02*
X154360000Y-116090000D01*
X149632274Y-82432324D02*
X150530000Y-83330050D01*
X145375450Y-75700000D02*
X145830000Y-76154550D01*
X144560500Y-75522774D02*
X144618324Y-75522774D01*
X150530000Y-88704500D02*
X152540000Y-90714500D01*
X149179000Y-82432324D02*
X149632274Y-82432324D01*
X145830000Y-79083324D02*
X149179000Y-82432324D01*
X145830000Y-76154550D02*
X145830000Y-79083324D01*
X154279432Y-121139419D02*
X154360000Y-121058851D01*
%TO.N,IO08*%
X174677775Y-90137775D02*
X174677775Y-90300000D01*
X174677775Y-90300000D02*
X174690000Y-90312225D01*
X155620500Y-73310500D02*
X157850500Y-73310500D01*
X157850500Y-73310500D02*
X174677775Y-90137775D01*
%TO.N,IO01*%
X142910000Y-79700000D02*
X142170000Y-80440000D01*
X186539622Y-87450378D02*
X186349622Y-87450378D01*
X142910000Y-75470000D02*
X142910000Y-79700000D01*
X186349622Y-87450378D02*
X171770000Y-102030000D01*
X171770000Y-102030000D02*
X171770000Y-126990000D01*
X144060000Y-74330000D02*
X144050000Y-74330000D01*
X157019500Y-74010000D02*
X144380000Y-74010000D01*
X144050000Y-74330000D02*
X142910000Y-75470000D01*
X144380000Y-74010000D02*
X144060000Y-74330000D01*
X171770000Y-126990000D02*
X173120000Y-128340000D01*
%TO.N,IO19*%
X152830000Y-115590000D02*
X152830000Y-119060000D01*
X145243805Y-76558305D02*
X145243805Y-77277973D01*
X148729000Y-111469000D02*
X152830000Y-115570000D01*
X145200000Y-79089720D02*
X148729000Y-82618720D01*
X152840000Y-115580000D02*
X152830000Y-115590000D01*
X145200000Y-77321778D02*
X145200000Y-79089720D01*
X148729000Y-82618720D02*
X148729000Y-111469000D01*
X145085500Y-76400000D02*
X145243805Y-76558305D01*
X145243805Y-77277973D02*
X145200000Y-77321778D01*
%TO.N,IO47*%
X131430000Y-122760000D02*
X131430000Y-122840500D01*
X144396855Y-108643145D02*
X143370000Y-109670000D01*
X131160000Y-119670000D02*
X132297567Y-118532433D01*
X131430000Y-122840500D02*
X133049500Y-124460000D01*
X132297567Y-118532433D02*
X132297567Y-116752399D01*
X144396855Y-107794465D02*
X144396855Y-108643145D01*
%TO.N,IO20*%
X145780000Y-56290000D02*
X146558000Y-57068000D01*
X146558000Y-57068000D02*
X146558000Y-64008000D01*
%TO.N,IO46*%
X149920000Y-67310000D02*
X149352000Y-67310000D01*
X154308000Y-62922000D02*
X149920000Y-67310000D01*
X154502000Y-62922000D02*
X154308000Y-62922000D01*
%TD*%
%TA.AperFunction,Conductor*%
%TO.N,VCC*%
G36*
X216921034Y-45774770D02*
G01*
X216972845Y-45778848D01*
X216973228Y-45778880D01*
X217110390Y-45790882D01*
X217128504Y-45793832D01*
X217206209Y-45812488D01*
X217209289Y-45813271D01*
X217312390Y-45840898D01*
X217327744Y-45846109D01*
X217406857Y-45878879D01*
X217411784Y-45881048D01*
X217503334Y-45923739D01*
X217515687Y-45930376D01*
X217590562Y-45976260D01*
X217596856Y-45980388D01*
X217677932Y-46037159D01*
X217687333Y-46044438D01*
X217754686Y-46101962D01*
X217761835Y-46108571D01*
X217831427Y-46178163D01*
X217838036Y-46185312D01*
X217895555Y-46252658D01*
X217902839Y-46262066D01*
X217959610Y-46343142D01*
X217963749Y-46349453D01*
X218009615Y-46424300D01*
X218016266Y-46436677D01*
X218058945Y-46528202D01*
X218061124Y-46533154D01*
X218093887Y-46612250D01*
X218099100Y-46627608D01*
X218126727Y-46730709D01*
X218127527Y-46733856D01*
X218146164Y-46811482D01*
X218149118Y-46829621D01*
X218161085Y-46966381D01*
X218161175Y-46967458D01*
X218165235Y-47019031D01*
X218165617Y-47028763D01*
X218165617Y-47075212D01*
X218165700Y-47075627D01*
X218345608Y-158181138D01*
X218345226Y-158191069D01*
X218341175Y-158242537D01*
X218341085Y-158243616D01*
X218329118Y-158380377D01*
X218326164Y-158398516D01*
X218307527Y-158476142D01*
X218306727Y-158479289D01*
X218279100Y-158582390D01*
X218273887Y-158597748D01*
X218241124Y-158676844D01*
X218238945Y-158681796D01*
X218196266Y-158773321D01*
X218189611Y-158785707D01*
X218143763Y-158860523D01*
X218139610Y-158866856D01*
X218082839Y-158947932D01*
X218075555Y-158957340D01*
X218018036Y-159024686D01*
X218011427Y-159031835D01*
X217941835Y-159101427D01*
X217934686Y-159108036D01*
X217867340Y-159165555D01*
X217857932Y-159172839D01*
X217776856Y-159229610D01*
X217770523Y-159233763D01*
X217695707Y-159279611D01*
X217683321Y-159286266D01*
X217591796Y-159328945D01*
X217586844Y-159331124D01*
X217507748Y-159363887D01*
X217492390Y-159369100D01*
X217389289Y-159396727D01*
X217386142Y-159397527D01*
X217308516Y-159416164D01*
X217290377Y-159419118D01*
X217153616Y-159431085D01*
X217152537Y-159431175D01*
X217100929Y-159435237D01*
X217091284Y-159435619D01*
X124114917Y-159499495D01*
X124105102Y-159499113D01*
X124053508Y-159495052D01*
X124052432Y-159494962D01*
X123915738Y-159483004D01*
X123897595Y-159480049D01*
X123819967Y-159461411D01*
X123816823Y-159460613D01*
X123713722Y-159432988D01*
X123698362Y-159427774D01*
X123619271Y-159395013D01*
X123614320Y-159392835D01*
X123522780Y-159350149D01*
X123510407Y-159343500D01*
X123435584Y-159297648D01*
X123429251Y-159293496D01*
X123348183Y-159236732D01*
X123338774Y-159229447D01*
X123271420Y-159171921D01*
X123264271Y-159165312D01*
X123194686Y-159095727D01*
X123188077Y-159088578D01*
X123130551Y-159021224D01*
X123123266Y-159011815D01*
X123085122Y-158957340D01*
X123066497Y-158930740D01*
X123062350Y-158924414D01*
X123059982Y-158920550D01*
X123016492Y-158849580D01*
X123009856Y-158837232D01*
X122967142Y-158745631D01*
X122964997Y-158740754D01*
X122932218Y-158661618D01*
X122927014Y-158646287D01*
X122899385Y-158543175D01*
X122898587Y-158540031D01*
X122889626Y-158502710D01*
X122879947Y-158462396D01*
X122876996Y-158444279D01*
X122864996Y-158307106D01*
X122864962Y-158306700D01*
X122860880Y-158254827D01*
X122860498Y-158245158D01*
X122860275Y-157750065D01*
X122860104Y-157369999D01*
X133961241Y-157369999D01*
X133981443Y-157639578D01*
X134041600Y-157903143D01*
X134140364Y-158154789D01*
X134140365Y-158154791D01*
X134158451Y-158186117D01*
X134275533Y-158388909D01*
X134319689Y-158444279D01*
X134444087Y-158600268D01*
X134642258Y-158784144D01*
X134865621Y-158936430D01*
X135109186Y-159053725D01*
X135367513Y-159133409D01*
X135634831Y-159173700D01*
X135905169Y-159173700D01*
X136172487Y-159133409D01*
X136430814Y-159053725D01*
X136674379Y-158936430D01*
X136897742Y-158784144D01*
X137095913Y-158600268D01*
X137264466Y-158388910D01*
X137399635Y-158154791D01*
X137498400Y-157903141D01*
X137558556Y-157639581D01*
X137578758Y-157370000D01*
X137575203Y-157322562D01*
X165036300Y-157322562D01*
X165051730Y-157449642D01*
X165112328Y-157609426D01*
X165133142Y-157639581D01*
X165209405Y-157750066D01*
X165337317Y-157863387D01*
X165488632Y-157942803D01*
X165654555Y-157983700D01*
X165825444Y-157983700D01*
X165825445Y-157983700D01*
X165991368Y-157942803D01*
X166142683Y-157863387D01*
X166270595Y-157750066D01*
X166367671Y-157609427D01*
X166428270Y-157449643D01*
X166443700Y-157322563D01*
X166443700Y-156736444D01*
X166460313Y-156674444D01*
X166505700Y-156629057D01*
X166567700Y-156612444D01*
X173552300Y-156612444D01*
X173614300Y-156629057D01*
X173659687Y-156674444D01*
X173676300Y-156736444D01*
X173676300Y-157322562D01*
X173691730Y-157449642D01*
X173752328Y-157609426D01*
X173773142Y-157639581D01*
X173849405Y-157750066D01*
X173977317Y-157863387D01*
X174128632Y-157942803D01*
X174294555Y-157983700D01*
X174465444Y-157983700D01*
X174465445Y-157983700D01*
X174631368Y-157942803D01*
X174782683Y-157863387D01*
X174910595Y-157750066D01*
X175007671Y-157609427D01*
X175068270Y-157449643D01*
X175083700Y-157322563D01*
X175083700Y-156437437D01*
X175068270Y-156310357D01*
X175056757Y-156280000D01*
X194306305Y-156280000D01*
X194326195Y-156431071D01*
X194384505Y-156571846D01*
X194477265Y-156692734D01*
X194598152Y-156785493D01*
X194598153Y-156785494D01*
X194738929Y-156843805D01*
X194890000Y-156863694D01*
X195041071Y-156843805D01*
X195181847Y-156785494D01*
X195302734Y-156692734D01*
X195395494Y-156571847D01*
X195453805Y-156431071D01*
X195473694Y-156280000D01*
X195453805Y-156128929D01*
X195395494Y-155988153D01*
X195370089Y-155955044D01*
X195302734Y-155867265D01*
X195181846Y-155774505D01*
X195041071Y-155716195D01*
X194890000Y-155696305D01*
X194738928Y-155716195D01*
X194598153Y-155774505D01*
X194477265Y-155867265D01*
X194384505Y-155988153D01*
X194326195Y-156128928D01*
X194306305Y-156280000D01*
X175056757Y-156280000D01*
X175007671Y-156150573D01*
X174910595Y-156009934D01*
X174782683Y-155896613D01*
X174782682Y-155896612D01*
X174771412Y-155886628D01*
X174774209Y-155883470D01*
X174746592Y-155857485D01*
X174728700Y-155793320D01*
X174728700Y-155669999D01*
X211481252Y-155669999D01*
X211501428Y-156029267D01*
X211561700Y-156384009D01*
X211577093Y-156437438D01*
X211661316Y-156729782D01*
X211799018Y-157062224D01*
X211973075Y-157377157D01*
X212024506Y-157449642D01*
X212181303Y-157670627D01*
X212330354Y-157837413D01*
X212421073Y-157938927D01*
X212471174Y-157983700D01*
X212689372Y-158178696D01*
X212699831Y-158186117D01*
X212982843Y-158386925D01*
X213297776Y-158560982D01*
X213630218Y-158698684D01*
X213975986Y-158798298D01*
X213975987Y-158798298D01*
X213975990Y-158798299D01*
X214087594Y-158817261D01*
X214330734Y-158858572D01*
X214690000Y-158878748D01*
X215049266Y-158858572D01*
X215349573Y-158807547D01*
X215404009Y-158798299D01*
X215404010Y-158798298D01*
X215404014Y-158798298D01*
X215749782Y-158698684D01*
X216082224Y-158560982D01*
X216397157Y-158386925D01*
X216690622Y-158178700D01*
X216690624Y-158178697D01*
X216690627Y-158178696D01*
X216743821Y-158131158D01*
X216958927Y-157938927D01*
X217198700Y-157670622D01*
X217406925Y-157377157D01*
X217580982Y-157062224D01*
X217718684Y-156729782D01*
X217818298Y-156384014D01*
X217878572Y-156029266D01*
X217898748Y-155670000D01*
X217878572Y-155310734D01*
X217818298Y-154955986D01*
X217718684Y-154610218D01*
X217580982Y-154277776D01*
X217406925Y-153962843D01*
X217198700Y-153669378D01*
X217198696Y-153669372D01*
X217060439Y-153514665D01*
X216958927Y-153401073D01*
X216851769Y-153305310D01*
X216690627Y-153161303D01*
X216556732Y-153066300D01*
X216397157Y-152953075D01*
X216082224Y-152779018D01*
X216023032Y-152754500D01*
X215749784Y-152641317D01*
X215749785Y-152641317D01*
X215749782Y-152641316D01*
X215552233Y-152584403D01*
X215404009Y-152541700D01*
X215049267Y-152481428D01*
X214690000Y-152461252D01*
X214330732Y-152481428D01*
X213975990Y-152541700D01*
X213630215Y-152641317D01*
X213297777Y-152779017D01*
X212982843Y-152953075D01*
X212689372Y-153161303D01*
X212421073Y-153401073D01*
X212181303Y-153669372D01*
X211973075Y-153962843D01*
X211799017Y-154277777D01*
X211661317Y-154610215D01*
X211561700Y-154955990D01*
X211501428Y-155310732D01*
X211481252Y-155669999D01*
X174728700Y-155669999D01*
X174728700Y-153966680D01*
X174746592Y-153902515D01*
X174774209Y-153876529D01*
X174771412Y-153873372D01*
X174782683Y-153863387D01*
X174910595Y-153750066D01*
X175007671Y-153609427D01*
X175068270Y-153449643D01*
X175083700Y-153322563D01*
X175083700Y-152137437D01*
X175068270Y-152010357D01*
X175007671Y-151850573D01*
X174910595Y-151709934D01*
X174782683Y-151596613D01*
X174631368Y-151517197D01*
X174465445Y-151476300D01*
X174294555Y-151476300D01*
X174128632Y-151517197D01*
X174128630Y-151517197D01*
X174128630Y-151517198D01*
X173977317Y-151596613D01*
X173849404Y-151709934D01*
X173752328Y-151850573D01*
X173698644Y-151992127D01*
X173691730Y-152010357D01*
X173676300Y-152137437D01*
X173676300Y-153322563D01*
X173691730Y-153449643D01*
X173714712Y-153510240D01*
X173752328Y-153609426D01*
X173769027Y-153633619D01*
X173849405Y-153750066D01*
X173977316Y-153863386D01*
X173977317Y-153863387D01*
X174004927Y-153877878D01*
X174053417Y-153923525D01*
X174071300Y-153987674D01*
X174071300Y-155772326D01*
X174053417Y-155836475D01*
X174004927Y-155882122D01*
X173977314Y-155896614D01*
X173946562Y-155923859D01*
X173908306Y-155946986D01*
X173864335Y-155955044D01*
X166255665Y-155955044D01*
X166211694Y-155946986D01*
X166173438Y-155923859D01*
X166131413Y-155886628D01*
X166134209Y-155883471D01*
X166106592Y-155857485D01*
X166088700Y-155793320D01*
X166088700Y-153966680D01*
X166106592Y-153902515D01*
X166134209Y-153876529D01*
X166131412Y-153873372D01*
X166142683Y-153863387D01*
X166270595Y-153750066D01*
X166367671Y-153609427D01*
X166428270Y-153449643D01*
X166443700Y-153322563D01*
X166443700Y-153298367D01*
X166694500Y-153298367D01*
X166733022Y-153429562D01*
X166806943Y-153544587D01*
X166910282Y-153634130D01*
X167034657Y-153690931D01*
X167135989Y-153705500D01*
X167204011Y-153705500D01*
X167305342Y-153690931D01*
X167352549Y-153669372D01*
X167429718Y-153634130D01*
X167533055Y-153544589D01*
X167606978Y-153429561D01*
X167645500Y-153298367D01*
X172474500Y-153298367D01*
X172513022Y-153429562D01*
X172586943Y-153544587D01*
X172690282Y-153634130D01*
X172814657Y-153690931D01*
X172915989Y-153705500D01*
X172984011Y-153705500D01*
X173085342Y-153690931D01*
X173132549Y-153669372D01*
X173209718Y-153634130D01*
X173313055Y-153544589D01*
X173386978Y-153429561D01*
X173425500Y-153298367D01*
X173425500Y-153161633D01*
X173386978Y-153030439D01*
X173327681Y-152938170D01*
X173313056Y-152915412D01*
X173209717Y-152825869D01*
X173085342Y-152769068D01*
X172984011Y-152754500D01*
X172915989Y-152754500D01*
X172814657Y-152769068D01*
X172690282Y-152825869D01*
X172586943Y-152915412D01*
X172513022Y-153030437D01*
X172474500Y-153161633D01*
X172474500Y-153298367D01*
X167645500Y-153298367D01*
X167645500Y-153161633D01*
X167606978Y-153030439D01*
X167547681Y-152938170D01*
X167533056Y-152915412D01*
X167429717Y-152825869D01*
X167305342Y-152769068D01*
X167204011Y-152754500D01*
X167135989Y-152754500D01*
X167034657Y-152769068D01*
X166910282Y-152825869D01*
X166806943Y-152915412D01*
X166733022Y-153030437D01*
X166694500Y-153161633D01*
X166694500Y-153298367D01*
X166443700Y-153298367D01*
X166443700Y-152137437D01*
X166428270Y-152010357D01*
X166367671Y-151850573D01*
X166270595Y-151709934D01*
X166142683Y-151596613D01*
X165991368Y-151517197D01*
X165825445Y-151476300D01*
X165654555Y-151476300D01*
X165488632Y-151517197D01*
X165488630Y-151517197D01*
X165488630Y-151517198D01*
X165337317Y-151596613D01*
X165209404Y-151709934D01*
X165112328Y-151850573D01*
X165058644Y-151992127D01*
X165051730Y-152010357D01*
X165036300Y-152137437D01*
X165036300Y-153322563D01*
X165051730Y-153449643D01*
X165074712Y-153510240D01*
X165112328Y-153609426D01*
X165129027Y-153633619D01*
X165209405Y-153750066D01*
X165337316Y-153863386D01*
X165337317Y-153863387D01*
X165364927Y-153877878D01*
X165413417Y-153923525D01*
X165431300Y-153987674D01*
X165431300Y-155772326D01*
X165413417Y-155836475D01*
X165364927Y-155882122D01*
X165337317Y-155896612D01*
X165209404Y-156009934D01*
X165112328Y-156150573D01*
X165051730Y-156310357D01*
X165036300Y-156437438D01*
X165036300Y-157322562D01*
X137575203Y-157322562D01*
X137558556Y-157100419D01*
X137498400Y-156836859D01*
X137399635Y-156585209D01*
X137264466Y-156351090D01*
X137095913Y-156139732D01*
X136897742Y-155955856D01*
X136884732Y-155946986D01*
X136674379Y-155803570D01*
X136430814Y-155686275D01*
X136172486Y-155606590D01*
X135905169Y-155566300D01*
X135634831Y-155566300D01*
X135367513Y-155606590D01*
X135109185Y-155686275D01*
X134865620Y-155803570D01*
X134642258Y-155955855D01*
X134444087Y-156139731D01*
X134275533Y-156351090D01*
X134140364Y-156585210D01*
X134041600Y-156836856D01*
X133981443Y-157100421D01*
X133961241Y-157369999D01*
X122860104Y-157369999D01*
X122858709Y-154270000D01*
X127061143Y-154270000D01*
X127081726Y-154492128D01*
X127142772Y-154706688D01*
X127242208Y-154906380D01*
X127376644Y-155084403D01*
X127541500Y-155234689D01*
X127695681Y-155330153D01*
X127731166Y-155352124D01*
X127939181Y-155432710D01*
X128158461Y-155473700D01*
X128381537Y-155473700D01*
X128381539Y-155473700D01*
X128600819Y-155432710D01*
X128808834Y-155352124D01*
X128998499Y-155234689D01*
X129163356Y-155084402D01*
X129297791Y-154906381D01*
X129397226Y-154706690D01*
X129458274Y-154492127D01*
X129478857Y-154270000D01*
X141561143Y-154270000D01*
X141581726Y-154492128D01*
X141642772Y-154706688D01*
X141742208Y-154906380D01*
X141876644Y-155084403D01*
X142041500Y-155234689D01*
X142195681Y-155330153D01*
X142231166Y-155352124D01*
X142439181Y-155432710D01*
X142658461Y-155473700D01*
X142881537Y-155473700D01*
X142881539Y-155473700D01*
X143100819Y-155432710D01*
X143308834Y-155352124D01*
X143498499Y-155234689D01*
X143663356Y-155084402D01*
X143797791Y-154906381D01*
X143897226Y-154706690D01*
X143958274Y-154492127D01*
X143978857Y-154270000D01*
X143958274Y-154047873D01*
X143919818Y-153912713D01*
X143897227Y-153833311D01*
X143797791Y-153633619D01*
X143663355Y-153455596D01*
X143498499Y-153305310D01*
X143308836Y-153187877D01*
X143308834Y-153187876D01*
X143100819Y-153107290D01*
X142881539Y-153066300D01*
X142658461Y-153066300D01*
X142439181Y-153107289D01*
X142439181Y-153107290D01*
X142231163Y-153187877D01*
X142041500Y-153305310D01*
X141876644Y-153455596D01*
X141742208Y-153633619D01*
X141642772Y-153833311D01*
X141581726Y-154047871D01*
X141561143Y-154270000D01*
X129478857Y-154270000D01*
X129458274Y-154047873D01*
X129419818Y-153912713D01*
X129397227Y-153833311D01*
X129297791Y-153633619D01*
X129163355Y-153455596D01*
X128998499Y-153305310D01*
X128808836Y-153187877D01*
X128808834Y-153187876D01*
X128673960Y-153135625D01*
X128625592Y-153101831D01*
X128598318Y-153049504D01*
X128598318Y-152990496D01*
X128625592Y-152938169D01*
X128673960Y-152904374D01*
X128808834Y-152852124D01*
X128998499Y-152734689D01*
X129163356Y-152584402D01*
X129297791Y-152406381D01*
X129397226Y-152206690D01*
X129458274Y-151992127D01*
X129478857Y-151770000D01*
X129458274Y-151547873D01*
X129435325Y-151467215D01*
X129397227Y-151333311D01*
X129297791Y-151133619D01*
X129163355Y-150955596D01*
X128998499Y-150805310D01*
X128833466Y-150703127D01*
X128789861Y-150657036D01*
X128774764Y-150595409D01*
X128792128Y-150534382D01*
X128837406Y-150489933D01*
X128898743Y-150473700D01*
X129290065Y-150473700D01*
X129309869Y-150469760D01*
X129349480Y-150461881D01*
X129416860Y-150416860D01*
X129461881Y-150349480D01*
X129473700Y-150290064D01*
X129473700Y-149269999D01*
X141561143Y-149269999D01*
X141581726Y-149492128D01*
X141642772Y-149706688D01*
X141742208Y-149906380D01*
X141876644Y-150084403D01*
X142041500Y-150234689D01*
X142195681Y-150330153D01*
X142231166Y-150352124D01*
X142439181Y-150432710D01*
X142658461Y-150473700D01*
X142881537Y-150473700D01*
X142881539Y-150473700D01*
X143100819Y-150432710D01*
X143308834Y-150352124D01*
X143498499Y-150234689D01*
X143663356Y-150084402D01*
X143797791Y-149906381D01*
X143897226Y-149706690D01*
X143901152Y-149692894D01*
X143923432Y-149614584D01*
X143958274Y-149492127D01*
X143978857Y-149270000D01*
X143958274Y-149047873D01*
X143931815Y-148954877D01*
X143897227Y-148833311D01*
X143797791Y-148633619D01*
X143663355Y-148455596D01*
X143498499Y-148305310D01*
X143308836Y-148187877D01*
X143308834Y-148187876D01*
X143100819Y-148107290D01*
X142881539Y-148066300D01*
X142658461Y-148066300D01*
X142439180Y-148107290D01*
X142439181Y-148107290D01*
X142231163Y-148187877D01*
X142041500Y-148305310D01*
X141876644Y-148455596D01*
X141742208Y-148633619D01*
X141642772Y-148833311D01*
X141581726Y-149047871D01*
X141561143Y-149269999D01*
X129473700Y-149269999D01*
X129473700Y-148249936D01*
X129461881Y-148190520D01*
X129416860Y-148123140D01*
X129349480Y-148078119D01*
X129349479Y-148078118D01*
X129349478Y-148078118D01*
X129290065Y-148066300D01*
X129290064Y-148066300D01*
X127249936Y-148066300D01*
X127249935Y-148066300D01*
X127190521Y-148078118D01*
X127123140Y-148123140D01*
X127078118Y-148190521D01*
X127066300Y-148249935D01*
X127066300Y-150290065D01*
X127078118Y-150349478D01*
X127078118Y-150349479D01*
X127078119Y-150349480D01*
X127123140Y-150416860D01*
X127190520Y-150461881D01*
X127220227Y-150467790D01*
X127249935Y-150473700D01*
X127641257Y-150473700D01*
X127702594Y-150489933D01*
X127747872Y-150534382D01*
X127765236Y-150595409D01*
X127750139Y-150657036D01*
X127706534Y-150703127D01*
X127541500Y-150805310D01*
X127376644Y-150955596D01*
X127242208Y-151133619D01*
X127142772Y-151333311D01*
X127081726Y-151547871D01*
X127061143Y-151769999D01*
X127081726Y-151992128D01*
X127142772Y-152206688D01*
X127242208Y-152406380D01*
X127376644Y-152584403D01*
X127541500Y-152734689D01*
X127731167Y-152852125D01*
X127866036Y-152904374D01*
X127914407Y-152938170D01*
X127941681Y-152990496D01*
X127941681Y-153049504D01*
X127914407Y-153101830D01*
X127866036Y-153135626D01*
X127731167Y-153187874D01*
X127541500Y-153305310D01*
X127376644Y-153455596D01*
X127242208Y-153633619D01*
X127142772Y-153833311D01*
X127081726Y-154047871D01*
X127061143Y-154270000D01*
X122858709Y-154270000D01*
X122855902Y-148030000D01*
X162386305Y-148030000D01*
X162406195Y-148181071D01*
X162464505Y-148321846D01*
X162557265Y-148442734D01*
X162678152Y-148535493D01*
X162678153Y-148535494D01*
X162818929Y-148593805D01*
X162970000Y-148613694D01*
X163121071Y-148593805D01*
X163261847Y-148535494D01*
X163382734Y-148442734D01*
X163475494Y-148321847D01*
X163533805Y-148181071D01*
X163553694Y-148030000D01*
X163533805Y-147878929D01*
X163475494Y-147738153D01*
X163474171Y-147736429D01*
X163382734Y-147617265D01*
X163261846Y-147524505D01*
X163121071Y-147466195D01*
X162970000Y-147446305D01*
X162818928Y-147466195D01*
X162678153Y-147524505D01*
X162557265Y-147617265D01*
X162464505Y-147738153D01*
X162406195Y-147878928D01*
X162386305Y-148030000D01*
X122855902Y-148030000D01*
X122855065Y-146170000D01*
X133961241Y-146170000D01*
X133981443Y-146439578D01*
X134041600Y-146703143D01*
X134140364Y-146954789D01*
X134140365Y-146954791D01*
X134275534Y-147188910D01*
X134444087Y-147400268D01*
X134642258Y-147584144D01*
X134865621Y-147736430D01*
X135109186Y-147853725D01*
X135367513Y-147933409D01*
X135634831Y-147973700D01*
X135905169Y-147973700D01*
X136172487Y-147933409D01*
X136430814Y-147853725D01*
X136674379Y-147736430D01*
X136897742Y-147584144D01*
X137095913Y-147400268D01*
X137264466Y-147188910D01*
X137399635Y-146954791D01*
X137498400Y-146703141D01*
X137558556Y-146439581D01*
X137578758Y-146170000D01*
X137558556Y-145900419D01*
X137498400Y-145636859D01*
X137399635Y-145385209D01*
X137264466Y-145151090D01*
X137095913Y-144939732D01*
X136897742Y-144755856D01*
X136674379Y-144603570D01*
X136430814Y-144486275D01*
X136430813Y-144486274D01*
X136172486Y-144406590D01*
X135905169Y-144366300D01*
X135634831Y-144366300D01*
X135367513Y-144406590D01*
X135109185Y-144486275D01*
X134865620Y-144603570D01*
X134642258Y-144755855D01*
X134444087Y-144939731D01*
X134275533Y-145151090D01*
X134140364Y-145385210D01*
X134041600Y-145636856D01*
X133981443Y-145900421D01*
X133961241Y-146170000D01*
X122855065Y-146170000D01*
X122853832Y-143430000D01*
X167416305Y-143430000D01*
X167436195Y-143581071D01*
X167494505Y-143721846D01*
X167587265Y-143842734D01*
X167708152Y-143935493D01*
X167708153Y-143935494D01*
X167848929Y-143993805D01*
X168000000Y-144013694D01*
X168151071Y-143993805D01*
X168291847Y-143935494D01*
X168412734Y-143842734D01*
X168505494Y-143721847D01*
X168563805Y-143581071D01*
X168567896Y-143549999D01*
X170566305Y-143549999D01*
X170586195Y-143701071D01*
X170644505Y-143841846D01*
X170737265Y-143962734D01*
X170777758Y-143993805D01*
X170858153Y-144055494D01*
X170998929Y-144113805D01*
X171150000Y-144133694D01*
X171301071Y-144113805D01*
X171441847Y-144055494D01*
X171562734Y-143962734D01*
X171655494Y-143841847D01*
X171713805Y-143701071D01*
X171733694Y-143550000D01*
X171713805Y-143398929D01*
X171655494Y-143258153D01*
X171641564Y-143239999D01*
X174586305Y-143239999D01*
X174606195Y-143391071D01*
X174664505Y-143531846D01*
X174757265Y-143652734D01*
X174878153Y-143745494D01*
X175018929Y-143803805D01*
X175170000Y-143823694D01*
X175321071Y-143803805D01*
X175461847Y-143745494D01*
X175582734Y-143652734D01*
X175675494Y-143531847D01*
X175733805Y-143391071D01*
X175753694Y-143240000D01*
X175733805Y-143088929D01*
X175675494Y-142948153D01*
X175634504Y-142894734D01*
X175582734Y-142827265D01*
X175461846Y-142734505D01*
X175321071Y-142676195D01*
X175170000Y-142656305D01*
X175018928Y-142676195D01*
X174878153Y-142734505D01*
X174757265Y-142827265D01*
X174664505Y-142948153D01*
X174606195Y-143088928D01*
X174586305Y-143239999D01*
X171641564Y-143239999D01*
X171563415Y-143138153D01*
X171562734Y-143137265D01*
X171441846Y-143044505D01*
X171301071Y-142986195D01*
X171150000Y-142966305D01*
X170998928Y-142986195D01*
X170858153Y-143044505D01*
X170737265Y-143137265D01*
X170644505Y-143258153D01*
X170586195Y-143398928D01*
X170566305Y-143549999D01*
X168567896Y-143549999D01*
X168583694Y-143430000D01*
X168563805Y-143278929D01*
X168505494Y-143138153D01*
X168467723Y-143088929D01*
X168412734Y-143017265D01*
X168291846Y-142924505D01*
X168151071Y-142866195D01*
X168000000Y-142846305D01*
X167848928Y-142866195D01*
X167708153Y-142924505D01*
X167587265Y-143017265D01*
X167494505Y-143138153D01*
X167436195Y-143278928D01*
X167416305Y-143430000D01*
X122853832Y-143430000D01*
X122853405Y-142482000D01*
X181936305Y-142482000D01*
X181956195Y-142633071D01*
X182014505Y-142773846D01*
X182107265Y-142894734D01*
X182200539Y-142966305D01*
X182228153Y-142987494D01*
X182368929Y-143045805D01*
X182520000Y-143065694D01*
X182671071Y-143045805D01*
X182811847Y-142987494D01*
X182932734Y-142894734D01*
X183025494Y-142773847D01*
X183083805Y-142633071D01*
X183103694Y-142482000D01*
X183083805Y-142330929D01*
X183025494Y-142190153D01*
X182932734Y-142069265D01*
X182811846Y-141976505D01*
X182671071Y-141918195D01*
X182520000Y-141898305D01*
X182368928Y-141918195D01*
X182228153Y-141976505D01*
X182107265Y-142069265D01*
X182014505Y-142190153D01*
X181956195Y-142330928D01*
X181936305Y-142482000D01*
X122853405Y-142482000D01*
X122852140Y-139670000D01*
X173926305Y-139670000D01*
X173946195Y-139821071D01*
X174004505Y-139961846D01*
X174097265Y-140082734D01*
X174198331Y-140160284D01*
X174218153Y-140175494D01*
X174358929Y-140233805D01*
X174490110Y-140251075D01*
X174509999Y-140253694D01*
X174509999Y-140253693D01*
X174510000Y-140253694D01*
X174661071Y-140233805D01*
X174801847Y-140175494D01*
X174922734Y-140082734D01*
X175015494Y-139961847D01*
X175073805Y-139821071D01*
X175093694Y-139670000D01*
X175073805Y-139518929D01*
X175015494Y-139378153D01*
X174994235Y-139350448D01*
X174922734Y-139257265D01*
X174801846Y-139164505D01*
X174661071Y-139106195D01*
X174510000Y-139086305D01*
X174358928Y-139106195D01*
X174218153Y-139164505D01*
X174097265Y-139257265D01*
X174004505Y-139378153D01*
X173946195Y-139518928D01*
X173926305Y-139670000D01*
X122852140Y-139670000D01*
X122851739Y-138778833D01*
X126395623Y-138778833D01*
X126405943Y-138942858D01*
X126405944Y-138942860D01*
X126456732Y-139099171D01*
X126461190Y-139106195D01*
X126544797Y-139237940D01*
X126608716Y-139297963D01*
X126664607Y-139350448D01*
X126808632Y-139429627D01*
X126808634Y-139429628D01*
X126967821Y-139470500D01*
X126967823Y-139470500D01*
X127090925Y-139470500D01*
X127090927Y-139470500D01*
X127213059Y-139455071D01*
X127289464Y-139424819D01*
X127365871Y-139394568D01*
X127498837Y-139297963D01*
X127603600Y-139171326D01*
X127673579Y-139022613D01*
X127704376Y-138861170D01*
X127694056Y-138697140D01*
X127643268Y-138540829D01*
X127589336Y-138455846D01*
X127555202Y-138402059D01*
X127435393Y-138289552D01*
X127291365Y-138210371D01*
X127132179Y-138169500D01*
X127132177Y-138169500D01*
X127009075Y-138169500D01*
X127009073Y-138169500D01*
X126886940Y-138184928D01*
X126734129Y-138245431D01*
X126601165Y-138342034D01*
X126496399Y-138468675D01*
X126462446Y-138540829D01*
X126426421Y-138617387D01*
X126416481Y-138669494D01*
X126395623Y-138778833D01*
X122851739Y-138778833D01*
X122851462Y-138163999D01*
X185825305Y-138163999D01*
X185845195Y-138315071D01*
X185903505Y-138455846D01*
X185996265Y-138576734D01*
X186117152Y-138669493D01*
X186117153Y-138669494D01*
X186257929Y-138727805D01*
X186389109Y-138745075D01*
X186408999Y-138747694D01*
X186408999Y-138747693D01*
X186409000Y-138747694D01*
X186560071Y-138727805D01*
X186700847Y-138669494D01*
X186821734Y-138576734D01*
X186914494Y-138455847D01*
X186972805Y-138315071D01*
X186992694Y-138164000D01*
X186972805Y-138012929D01*
X186914494Y-137872153D01*
X186875892Y-137821846D01*
X186821734Y-137751265D01*
X186700846Y-137658505D01*
X186560071Y-137600195D01*
X186409000Y-137580305D01*
X186257928Y-137600195D01*
X186117153Y-137658505D01*
X185996265Y-137751265D01*
X185903505Y-137872153D01*
X185845195Y-138012928D01*
X185825305Y-138163999D01*
X122851462Y-138163999D01*
X122850988Y-137110000D01*
X140546305Y-137110000D01*
X140566195Y-137261071D01*
X140624505Y-137401846D01*
X140717265Y-137522734D01*
X140792295Y-137580306D01*
X140838153Y-137615494D01*
X140978929Y-137673805D01*
X141130000Y-137693694D01*
X141281071Y-137673805D01*
X141421847Y-137615494D01*
X141533266Y-137529999D01*
X163426305Y-137529999D01*
X163446195Y-137681071D01*
X163504505Y-137821846D01*
X163597265Y-137942734D01*
X163688744Y-138012928D01*
X163718153Y-138035494D01*
X163858929Y-138093805D01*
X164010000Y-138113694D01*
X164161071Y-138093805D01*
X164301847Y-138035494D01*
X164422734Y-137942734D01*
X164515494Y-137821847D01*
X164573805Y-137681071D01*
X164593694Y-137530000D01*
X164573805Y-137378929D01*
X164515494Y-137238153D01*
X164437055Y-137135929D01*
X164422734Y-137117265D01*
X164301846Y-137024505D01*
X164161071Y-136966195D01*
X164010000Y-136946305D01*
X163858928Y-136966195D01*
X163718153Y-137024505D01*
X163597265Y-137117265D01*
X163504505Y-137238153D01*
X163446195Y-137378928D01*
X163426305Y-137529999D01*
X141533266Y-137529999D01*
X141542734Y-137522734D01*
X141635494Y-137401847D01*
X141693805Y-137261071D01*
X141713694Y-137110000D01*
X141693805Y-136958929D01*
X141635494Y-136818153D01*
X141635493Y-136818152D01*
X141542734Y-136697265D01*
X141421846Y-136604505D01*
X141281071Y-136546195D01*
X141129999Y-136526305D01*
X140978928Y-136546195D01*
X140838153Y-136604505D01*
X140717265Y-136697265D01*
X140624505Y-136818153D01*
X140566195Y-136958928D01*
X140546305Y-137110000D01*
X122850988Y-137110000D01*
X122848140Y-130778833D01*
X126395623Y-130778833D01*
X126405943Y-130942858D01*
X126405944Y-130942860D01*
X126456732Y-131099171D01*
X126469827Y-131119805D01*
X126544797Y-131237940D01*
X126608716Y-131297963D01*
X126664607Y-131350448D01*
X126764056Y-131405121D01*
X126808634Y-131429628D01*
X126967821Y-131470500D01*
X126967823Y-131470500D01*
X127090925Y-131470500D01*
X127090927Y-131470500D01*
X127213059Y-131455071D01*
X127289464Y-131424819D01*
X127365871Y-131394568D01*
X127498837Y-131297963D01*
X127603600Y-131171326D01*
X127673579Y-131022613D01*
X127685523Y-130960000D01*
X185746305Y-130960000D01*
X185766195Y-131111071D01*
X185824505Y-131251846D01*
X185917265Y-131372734D01*
X186038153Y-131465494D01*
X186178929Y-131523805D01*
X186330000Y-131543694D01*
X186481071Y-131523805D01*
X186621847Y-131465494D01*
X186742734Y-131372734D01*
X186835494Y-131251847D01*
X186893805Y-131111071D01*
X186913694Y-130960000D01*
X186893805Y-130808929D01*
X186835494Y-130668153D01*
X186796540Y-130617387D01*
X186742734Y-130547265D01*
X186621846Y-130454505D01*
X186481071Y-130396195D01*
X186330000Y-130376305D01*
X186178928Y-130396195D01*
X186038153Y-130454505D01*
X185917265Y-130547265D01*
X185824505Y-130668153D01*
X185766195Y-130808928D01*
X185746305Y-130960000D01*
X127685523Y-130960000D01*
X127704376Y-130861170D01*
X127694056Y-130697140D01*
X127643268Y-130540829D01*
X127557023Y-130404929D01*
X127555202Y-130402059D01*
X127435393Y-130289552D01*
X127291365Y-130210371D01*
X127132179Y-130169500D01*
X127132177Y-130169500D01*
X127009075Y-130169500D01*
X127009073Y-130169500D01*
X126886940Y-130184928D01*
X126734129Y-130245431D01*
X126601165Y-130342034D01*
X126496399Y-130468675D01*
X126433424Y-130602503D01*
X126426421Y-130617387D01*
X126424721Y-130626300D01*
X126395623Y-130778833D01*
X122848140Y-130778833D01*
X122847434Y-129210065D01*
X166986300Y-129210065D01*
X166998118Y-129269478D01*
X166998118Y-129269479D01*
X166998119Y-129269480D01*
X167043140Y-129336860D01*
X167110520Y-129381881D01*
X167140228Y-129387790D01*
X167169935Y-129393700D01*
X167169936Y-129393700D01*
X168910064Y-129393700D01*
X168910065Y-129393700D01*
X168929869Y-129389760D01*
X168969480Y-129381881D01*
X169036860Y-129336860D01*
X169081881Y-129269480D01*
X169093700Y-129210064D01*
X169093700Y-128340000D01*
X169521202Y-128340000D01*
X169541546Y-128546559D01*
X169557742Y-128599950D01*
X169601798Y-128745184D01*
X169699642Y-128928237D01*
X169831317Y-129088683D01*
X169991763Y-129220358D01*
X170174816Y-129318202D01*
X170373439Y-129378453D01*
X170580000Y-129398798D01*
X170786561Y-129378453D01*
X170985184Y-129318202D01*
X171168237Y-129220358D01*
X171328683Y-129088683D01*
X171460358Y-128928237D01*
X171558202Y-128745184D01*
X171618453Y-128546561D01*
X171638798Y-128340000D01*
X171618453Y-128133439D01*
X171558202Y-127934816D01*
X171460358Y-127751763D01*
X171328683Y-127591317D01*
X171168237Y-127459642D01*
X171036242Y-127389089D01*
X170985186Y-127361799D01*
X170985185Y-127361798D01*
X170985184Y-127361798D01*
X170885872Y-127331672D01*
X170786559Y-127301546D01*
X170580000Y-127281202D01*
X170373440Y-127301546D01*
X170174813Y-127361799D01*
X169991764Y-127459641D01*
X169831317Y-127591317D01*
X169699641Y-127751764D01*
X169601799Y-127934813D01*
X169541546Y-128133440D01*
X169521202Y-128340000D01*
X169093700Y-128340000D01*
X169093700Y-127469936D01*
X169081881Y-127410520D01*
X169036860Y-127343140D01*
X168969480Y-127298119D01*
X168969479Y-127298118D01*
X168969478Y-127298118D01*
X168910065Y-127286300D01*
X168910064Y-127286300D01*
X167169936Y-127286300D01*
X167169935Y-127286300D01*
X167110521Y-127298118D01*
X167043140Y-127343140D01*
X166998118Y-127410521D01*
X166986300Y-127469935D01*
X166986300Y-129210065D01*
X122847434Y-129210065D01*
X122846448Y-127019091D01*
X171437498Y-127019091D01*
X171447382Y-127055980D01*
X171449722Y-127066535D01*
X171456528Y-127105129D01*
X171466933Y-127130246D01*
X171467500Y-127131056D01*
X171467501Y-127131058D01*
X171489408Y-127162345D01*
X171495218Y-127171465D01*
X171514316Y-127204543D01*
X171543576Y-127229095D01*
X171551552Y-127236404D01*
X172114446Y-127799298D01*
X172142755Y-127843135D01*
X172150522Y-127894737D01*
X172142745Y-127922340D01*
X172145344Y-127923129D01*
X172141799Y-127934812D01*
X172141798Y-127934816D01*
X172116411Y-128018506D01*
X172081546Y-128133440D01*
X172061202Y-128340000D01*
X172081546Y-128546559D01*
X172097742Y-128599950D01*
X172141798Y-128745184D01*
X172239642Y-128928237D01*
X172371317Y-129088683D01*
X172531763Y-129220358D01*
X172714816Y-129318202D01*
X172913439Y-129378453D01*
X173120000Y-129398798D01*
X173326561Y-129378453D01*
X173525184Y-129318202D01*
X173708237Y-129220358D01*
X173868683Y-129088683D01*
X174000358Y-128928237D01*
X174098202Y-128745184D01*
X174158453Y-128546561D01*
X174178798Y-128340000D01*
X174601202Y-128340000D01*
X174621546Y-128546559D01*
X174637742Y-128599950D01*
X174681798Y-128745184D01*
X174779642Y-128928237D01*
X174911317Y-129088683D01*
X175071763Y-129220358D01*
X175254816Y-129318202D01*
X175453439Y-129378453D01*
X175660000Y-129398798D01*
X175866561Y-129378453D01*
X176065184Y-129318202D01*
X176248237Y-129220358D01*
X176408683Y-129088683D01*
X176540358Y-128928237D01*
X176638202Y-128745184D01*
X176698453Y-128546561D01*
X176718798Y-128340000D01*
X177141202Y-128340000D01*
X177161546Y-128546559D01*
X177177742Y-128599950D01*
X177221798Y-128745184D01*
X177319642Y-128928237D01*
X177451317Y-129088683D01*
X177611763Y-129220358D01*
X177794816Y-129318202D01*
X177993439Y-129378453D01*
X178200000Y-129398798D01*
X178406561Y-129378453D01*
X178605184Y-129318202D01*
X178788237Y-129220358D01*
X178948683Y-129088683D01*
X179080358Y-128928237D01*
X179178202Y-128745184D01*
X179238453Y-128546561D01*
X179258798Y-128340000D01*
X179681202Y-128340000D01*
X179701546Y-128546559D01*
X179717742Y-128599950D01*
X179761798Y-128745184D01*
X179859642Y-128928237D01*
X179991317Y-129088683D01*
X180151763Y-129220358D01*
X180334816Y-129318202D01*
X180533439Y-129378453D01*
X180740000Y-129398798D01*
X180946561Y-129378453D01*
X181145184Y-129318202D01*
X181328237Y-129220358D01*
X181488683Y-129088683D01*
X181620358Y-128928237D01*
X181718202Y-128745184D01*
X181736975Y-128683296D01*
X181770278Y-128629349D01*
X181825898Y-128598913D01*
X181889292Y-128599950D01*
X181943887Y-128632189D01*
X181975409Y-128687201D01*
X182006569Y-128803492D01*
X182106399Y-129017576D01*
X182241893Y-129211081D01*
X182408918Y-129378106D01*
X182602423Y-129513600D01*
X182816507Y-129613430D01*
X183029999Y-129670635D01*
X183030000Y-129670636D01*
X183030000Y-128590000D01*
X183530000Y-128590000D01*
X183530000Y-129670635D01*
X183743492Y-129613430D01*
X183957576Y-129513600D01*
X184151081Y-129378106D01*
X184318106Y-129211081D01*
X184453600Y-129017576D01*
X184553430Y-128803492D01*
X184602597Y-128620000D01*
X187196305Y-128620000D01*
X187216195Y-128771071D01*
X187274505Y-128911846D01*
X187367265Y-129032734D01*
X187485815Y-129123700D01*
X187488153Y-129125494D01*
X187628929Y-129183805D01*
X187780000Y-129203694D01*
X187931071Y-129183805D01*
X188071847Y-129125494D01*
X188192734Y-129032734D01*
X188285494Y-128911847D01*
X188343805Y-128771071D01*
X188363694Y-128620000D01*
X188343805Y-128468929D01*
X188285494Y-128328153D01*
X188214333Y-128235414D01*
X188192734Y-128207265D01*
X188071846Y-128114505D01*
X187931071Y-128056195D01*
X187780000Y-128036305D01*
X187628928Y-128056195D01*
X187488153Y-128114505D01*
X187367265Y-128207265D01*
X187274505Y-128328153D01*
X187216195Y-128468928D01*
X187196305Y-128620000D01*
X184602597Y-128620000D01*
X184610636Y-128590000D01*
X183530000Y-128590000D01*
X183030000Y-128590000D01*
X183030000Y-127009364D01*
X183530000Y-127009364D01*
X183530000Y-128090000D01*
X184610636Y-128090000D01*
X184610635Y-128089999D01*
X184553430Y-127876507D01*
X184453599Y-127662421D01*
X184318109Y-127468921D01*
X184151081Y-127301893D01*
X183957576Y-127166399D01*
X183743492Y-127066569D01*
X183530000Y-127009364D01*
X183030000Y-127009364D01*
X183029999Y-127009364D01*
X182816507Y-127066569D01*
X182602421Y-127166400D01*
X182408921Y-127301890D01*
X182241890Y-127468921D01*
X182106400Y-127662421D01*
X182006569Y-127876507D01*
X181975409Y-127992798D01*
X181943887Y-128047810D01*
X181889292Y-128080049D01*
X181825898Y-128081086D01*
X181770278Y-128050650D01*
X181736974Y-127996701D01*
X181718202Y-127934816D01*
X181620358Y-127751763D01*
X181488683Y-127591317D01*
X181328237Y-127459642D01*
X181196242Y-127389089D01*
X181145186Y-127361799D01*
X181145185Y-127361798D01*
X181145184Y-127361798D01*
X181045872Y-127331672D01*
X180946559Y-127301546D01*
X180740000Y-127281202D01*
X180533440Y-127301546D01*
X180334813Y-127361799D01*
X180151764Y-127459641D01*
X179991317Y-127591317D01*
X179859641Y-127751764D01*
X179761799Y-127934813D01*
X179701546Y-128133440D01*
X179681202Y-128340000D01*
X179258798Y-128340000D01*
X179238453Y-128133439D01*
X179178202Y-127934816D01*
X179080358Y-127751763D01*
X178948683Y-127591317D01*
X178788237Y-127459642D01*
X178656242Y-127389089D01*
X178605186Y-127361799D01*
X178605185Y-127361798D01*
X178605184Y-127361798D01*
X178505872Y-127331672D01*
X178406559Y-127301546D01*
X178200000Y-127281202D01*
X177993440Y-127301546D01*
X177794813Y-127361799D01*
X177611764Y-127459641D01*
X177451317Y-127591317D01*
X177319641Y-127751764D01*
X177221799Y-127934813D01*
X177161546Y-128133440D01*
X177141202Y-128340000D01*
X176718798Y-128340000D01*
X176698453Y-128133439D01*
X176638202Y-127934816D01*
X176540358Y-127751763D01*
X176408683Y-127591317D01*
X176248237Y-127459642D01*
X176116242Y-127389089D01*
X176065186Y-127361799D01*
X176065185Y-127361798D01*
X176065184Y-127361798D01*
X175965872Y-127331672D01*
X175866559Y-127301546D01*
X175660000Y-127281202D01*
X175453440Y-127301546D01*
X175254813Y-127361799D01*
X175071764Y-127459641D01*
X174911317Y-127591317D01*
X174779641Y-127751764D01*
X174681799Y-127934813D01*
X174621546Y-128133440D01*
X174601202Y-128340000D01*
X174178798Y-128340000D01*
X174158453Y-128133439D01*
X174098202Y-127934816D01*
X174000358Y-127751763D01*
X173868683Y-127591317D01*
X173708237Y-127459642D01*
X173576242Y-127389089D01*
X173525186Y-127361799D01*
X173525185Y-127361798D01*
X173525184Y-127361798D01*
X173425872Y-127331672D01*
X173326559Y-127301546D01*
X173120000Y-127281202D01*
X172913440Y-127301546D01*
X172817108Y-127330768D01*
X172714816Y-127361798D01*
X172714812Y-127361799D01*
X172703129Y-127365344D01*
X172702340Y-127362745D01*
X172674737Y-127370522D01*
X172623135Y-127362755D01*
X172579298Y-127334446D01*
X172135019Y-126890167D01*
X172108139Y-126849939D01*
X172098700Y-126802486D01*
X172098700Y-111910000D01*
X178916305Y-111910000D01*
X178936195Y-112061071D01*
X178994505Y-112201846D01*
X179087265Y-112322734D01*
X179208152Y-112415493D01*
X179208153Y-112415494D01*
X179348929Y-112473805D01*
X179500000Y-112493694D01*
X179651071Y-112473805D01*
X179791847Y-112415494D01*
X179912734Y-112322734D01*
X180005494Y-112201847D01*
X180063805Y-112061071D01*
X180083694Y-111910000D01*
X180063805Y-111758929D01*
X180005494Y-111618153D01*
X180005493Y-111618152D01*
X179912734Y-111497265D01*
X179791846Y-111404505D01*
X179651071Y-111346195D01*
X179500000Y-111326305D01*
X179348928Y-111346195D01*
X179208153Y-111404505D01*
X179087265Y-111497265D01*
X178994505Y-111618153D01*
X178936195Y-111758928D01*
X178916305Y-111910000D01*
X172098700Y-111910000D01*
X172098700Y-102217514D01*
X172108139Y-102170061D01*
X172135019Y-102129833D01*
X174201760Y-100063092D01*
X181514852Y-92749999D01*
X187261120Y-92749999D01*
X187281732Y-92893368D01*
X187341903Y-93025122D01*
X187411013Y-93104880D01*
X187433482Y-93142749D01*
X187441300Y-93186082D01*
X187441300Y-104650232D01*
X187440828Y-104661040D01*
X187437498Y-104699091D01*
X187447382Y-104735980D01*
X187449722Y-104746535D01*
X187456528Y-104785129D01*
X187466933Y-104810246D01*
X187467500Y-104811056D01*
X187467501Y-104811058D01*
X187489408Y-104842345D01*
X187495218Y-104851465D01*
X187514316Y-104884543D01*
X187543576Y-104909095D01*
X187551552Y-104916404D01*
X189344981Y-106709833D01*
X189371861Y-106750061D01*
X189381300Y-106797514D01*
X189381300Y-148793918D01*
X189373482Y-148837251D01*
X189351013Y-148875120D01*
X189281903Y-148954877D01*
X189221732Y-149086631D01*
X189201120Y-149230000D01*
X189221732Y-149373368D01*
X189281903Y-149505122D01*
X189376752Y-149614584D01*
X189376754Y-149614586D01*
X189498604Y-149692894D01*
X189545583Y-149706688D01*
X189637578Y-149733700D01*
X189637579Y-149733700D01*
X189782421Y-149733700D01*
X189782422Y-149733700D01*
X189828745Y-149720098D01*
X189921396Y-149692894D01*
X190043246Y-149614586D01*
X190138097Y-149505121D01*
X190198267Y-149373368D01*
X190218880Y-149230000D01*
X190198267Y-149086632D01*
X190180566Y-149047873D01*
X190138096Y-148954877D01*
X190077638Y-148885104D01*
X201969329Y-148885104D01*
X201970400Y-148901229D01*
X201970400Y-150388400D01*
X202186706Y-150388400D01*
X202234540Y-150397998D01*
X202237208Y-150399800D01*
X202249999Y-150399999D01*
X202250000Y-150400000D01*
X205460000Y-150450000D01*
X205010000Y-146700000D01*
X204800000Y-146420000D01*
X204748000Y-146420000D01*
X204708788Y-146413637D01*
X204673600Y-146395200D01*
X204639999Y-146369999D01*
X202450001Y-145779999D01*
X202240000Y-145909999D01*
X202239999Y-145909999D01*
X202244493Y-147927324D01*
X202227972Y-147989440D01*
X202182573Y-148034941D01*
X202120493Y-148051600D01*
X201970400Y-148051600D01*
X201970400Y-148874999D01*
X201969329Y-148885104D01*
X190077638Y-148885104D01*
X190068987Y-148875120D01*
X190046518Y-148837251D01*
X190038700Y-148793918D01*
X190038700Y-144208400D01*
X202090400Y-144208400D01*
X204427200Y-144208400D01*
X204438922Y-144208400D01*
X204445300Y-144204174D01*
X204493790Y-144195115D01*
X205467634Y-144210284D01*
X205017634Y-140460284D01*
X204807634Y-140180284D01*
X204755634Y-140180284D01*
X204716422Y-140173921D01*
X204681234Y-140155484D01*
X204647633Y-140130283D01*
X202457635Y-139540283D01*
X202247634Y-139670283D01*
X202247633Y-139670283D01*
X202252260Y-141747324D01*
X202235739Y-141809440D01*
X202190340Y-141854941D01*
X202128260Y-141871600D01*
X202090400Y-141871600D01*
X202090400Y-144208400D01*
X190038700Y-144208400D01*
X190038700Y-141539091D01*
X198247498Y-141539091D01*
X198257382Y-141575980D01*
X198259722Y-141586535D01*
X198266528Y-141625129D01*
X198276933Y-141650246D01*
X198277500Y-141651056D01*
X198277501Y-141651058D01*
X198299408Y-141682345D01*
X198305218Y-141691465D01*
X198324316Y-141724543D01*
X198353576Y-141749095D01*
X198361552Y-141756404D01*
X198464543Y-141859395D01*
X198487746Y-141891572D01*
X198499600Y-141929429D01*
X198521732Y-142083368D01*
X198581903Y-142215122D01*
X198676752Y-142324584D01*
X198676754Y-142324586D01*
X198798604Y-142402894D01*
X198868091Y-142423296D01*
X198937578Y-142443700D01*
X198937579Y-142443700D01*
X199082421Y-142443700D01*
X199082422Y-142443700D01*
X199128746Y-142430097D01*
X199221396Y-142402894D01*
X199343246Y-142324586D01*
X199438097Y-142215121D01*
X199498267Y-142083368D01*
X199518880Y-141940000D01*
X199500858Y-141814652D01*
X199498267Y-141796631D01*
X199447689Y-141685883D01*
X199438097Y-141664879D01*
X199438096Y-141664878D01*
X199438096Y-141664877D01*
X199343247Y-141555415D01*
X199343246Y-141555414D01*
X199221396Y-141477106D01*
X199221395Y-141477105D01*
X199221394Y-141477105D01*
X199082422Y-141436300D01*
X199082421Y-141436300D01*
X199032700Y-141436300D01*
X198970700Y-141419687D01*
X198925313Y-141374300D01*
X198908700Y-141312300D01*
X198908700Y-137060820D01*
X198926058Y-136997547D01*
X198973273Y-136951988D01*
X199037126Y-136936899D01*
X199099737Y-136956503D01*
X199218604Y-137032894D01*
X199288091Y-137053296D01*
X199357578Y-137073700D01*
X199357579Y-137073700D01*
X199502421Y-137073700D01*
X199502422Y-137073700D01*
X199548745Y-137060098D01*
X199641396Y-137032894D01*
X199763246Y-136954586D01*
X199858097Y-136845121D01*
X199918267Y-136713368D01*
X199938880Y-136570000D01*
X199938879Y-136569997D01*
X199940399Y-136559429D01*
X199952253Y-136521571D01*
X199975453Y-136489397D01*
X202058678Y-134406172D01*
X202107986Y-134375941D01*
X202165646Y-134371364D01*
X202219108Y-134393440D01*
X202256741Y-134437363D01*
X202270357Y-134493579D01*
X202277634Y-137760284D01*
X202284957Y-137767706D01*
X202288241Y-137768400D01*
X202305600Y-137768400D01*
X202797713Y-137768400D01*
X202799644Y-137768415D01*
X203026382Y-137771946D01*
X203076411Y-137783343D01*
X203340000Y-137905000D01*
X203665000Y-137880000D01*
X204041103Y-137791504D01*
X204071428Y-137788224D01*
X205487634Y-137810284D01*
X205187767Y-135311395D01*
X213462921Y-135311395D01*
X213483560Y-135468158D01*
X213544067Y-135614236D01*
X213640321Y-135739678D01*
X213765762Y-135835931D01*
X213765763Y-135835932D01*
X213911842Y-135896440D01*
X214013786Y-135909861D01*
X214029242Y-135911896D01*
X214029243Y-135911896D01*
X214107965Y-135911896D01*
X214107966Y-135911896D01*
X214121623Y-135910097D01*
X214225366Y-135896440D01*
X214371445Y-135835932D01*
X214496886Y-135739678D01*
X214593140Y-135614237D01*
X214653648Y-135468158D01*
X214674286Y-135311396D01*
X214653648Y-135154634D01*
X214593140Y-135008555D01*
X214570150Y-134978594D01*
X214496886Y-134883113D01*
X214371444Y-134786859D01*
X214225366Y-134726352D01*
X214107966Y-134710896D01*
X214107965Y-134710896D01*
X214029243Y-134710896D01*
X214029242Y-134710896D01*
X213911841Y-134726352D01*
X213765763Y-134786859D01*
X213640321Y-134883113D01*
X213544067Y-135008555D01*
X213483560Y-135154633D01*
X213462921Y-135311395D01*
X205187767Y-135311395D01*
X205037634Y-134060284D01*
X204827634Y-133780284D01*
X204775634Y-133780284D01*
X204736422Y-133773921D01*
X204701234Y-133755484D01*
X204667633Y-133730283D01*
X203629391Y-133450574D01*
X203351876Y-133375809D01*
X203296362Y-133343671D01*
X203264336Y-133288091D01*
X203264369Y-133223945D01*
X203296450Y-133168400D01*
X203488456Y-132976394D01*
X203496424Y-132969094D01*
X203525683Y-132944544D01*
X203544791Y-132911446D01*
X203550569Y-132902375D01*
X203572499Y-132871058D01*
X203572500Y-132871051D01*
X203573069Y-132870240D01*
X203583468Y-132845135D01*
X203583640Y-132844159D01*
X203583642Y-132844156D01*
X203590277Y-132806525D01*
X203592612Y-132795993D01*
X203602501Y-132759090D01*
X203599171Y-132721038D01*
X203598700Y-132710233D01*
X203598700Y-132311396D01*
X213462921Y-132311396D01*
X213483560Y-132468158D01*
X213544067Y-132614236D01*
X213640321Y-132739678D01*
X213765763Y-132835932D01*
X213911842Y-132896440D01*
X214013786Y-132909861D01*
X214029242Y-132911896D01*
X214029243Y-132911896D01*
X214107965Y-132911896D01*
X214107966Y-132911896D01*
X214121623Y-132910097D01*
X214225366Y-132896440D01*
X214371445Y-132835932D01*
X214496886Y-132739678D01*
X214593140Y-132614237D01*
X214653648Y-132468158D01*
X214674286Y-132311396D01*
X214653648Y-132154634D01*
X214593140Y-132008555D01*
X214496886Y-131883113D01*
X214371444Y-131786859D01*
X214225366Y-131726352D01*
X214107966Y-131710896D01*
X214107965Y-131710896D01*
X214029243Y-131710896D01*
X214029242Y-131710896D01*
X213911841Y-131726352D01*
X213765763Y-131786859D01*
X213640321Y-131883113D01*
X213544067Y-132008555D01*
X213483560Y-132154633D01*
X213462921Y-132311396D01*
X203598700Y-132311396D01*
X203598700Y-131129999D01*
X204531120Y-131129999D01*
X204551732Y-131273368D01*
X204611903Y-131405122D01*
X204706752Y-131514584D01*
X204706754Y-131514586D01*
X204828604Y-131592894D01*
X204898091Y-131613297D01*
X204967578Y-131633700D01*
X204967579Y-131633700D01*
X205112421Y-131633700D01*
X205112422Y-131633700D01*
X205158745Y-131620098D01*
X205251396Y-131592894D01*
X205373246Y-131514586D01*
X205468097Y-131405121D01*
X205528267Y-131273368D01*
X205548880Y-131130000D01*
X205528267Y-130986632D01*
X205520093Y-130968734D01*
X205468096Y-130854877D01*
X205373247Y-130745415D01*
X205373246Y-130745414D01*
X205251396Y-130667106D01*
X205251395Y-130667105D01*
X205251394Y-130667105D01*
X205112422Y-130626300D01*
X205112421Y-130626300D01*
X204967579Y-130626300D01*
X204967578Y-130626300D01*
X204828605Y-130667105D01*
X204706752Y-130745415D01*
X204611903Y-130854877D01*
X204551732Y-130986631D01*
X204531120Y-131129999D01*
X203598700Y-131129999D01*
X203598700Y-129794000D01*
X206172305Y-129794000D01*
X206192195Y-129945071D01*
X206250505Y-130085846D01*
X206343265Y-130206734D01*
X206451196Y-130289552D01*
X206464153Y-130299494D01*
X206604929Y-130357805D01*
X206604930Y-130357805D01*
X206613245Y-130361249D01*
X206657215Y-130392036D01*
X206684054Y-130438522D01*
X206688732Y-130491995D01*
X206680305Y-130555999D01*
X206700195Y-130707071D01*
X206758505Y-130847846D01*
X206851265Y-130968734D01*
X206972152Y-131061493D01*
X206972153Y-131061494D01*
X207112929Y-131119805D01*
X207264000Y-131139694D01*
X207415071Y-131119805D01*
X207555847Y-131061494D01*
X207676734Y-130968734D01*
X207769494Y-130847847D01*
X207827805Y-130707071D01*
X207847694Y-130556000D01*
X207827805Y-130404929D01*
X207769494Y-130264153D01*
X207725435Y-130206734D01*
X207676734Y-130143265D01*
X207555846Y-130050505D01*
X207406754Y-129988750D01*
X207362784Y-129957962D01*
X207335945Y-129911476D01*
X207331267Y-129858006D01*
X207339694Y-129794000D01*
X207319805Y-129642929D01*
X207261494Y-129502153D01*
X207229847Y-129460910D01*
X207168734Y-129381265D01*
X207047846Y-129288505D01*
X206907071Y-129230195D01*
X206756000Y-129210305D01*
X206604928Y-129230195D01*
X206464153Y-129288505D01*
X206343265Y-129381265D01*
X206250505Y-129502153D01*
X206192195Y-129642928D01*
X206172305Y-129794000D01*
X203598700Y-129794000D01*
X203598700Y-129677514D01*
X203608139Y-129630061D01*
X203635019Y-129589833D01*
X204141958Y-129082894D01*
X204745827Y-128479024D01*
X204798572Y-128447729D01*
X204859865Y-128445540D01*
X204914709Y-128472993D01*
X204949688Y-128523372D01*
X204956245Y-128584352D01*
X204951120Y-128619999D01*
X204951120Y-128620000D01*
X204953667Y-128637716D01*
X204971732Y-128763368D01*
X205031903Y-128895122D01*
X205126752Y-129004584D01*
X205126754Y-129004586D01*
X205248604Y-129082894D01*
X205318091Y-129103297D01*
X205387578Y-129123700D01*
X205387579Y-129123700D01*
X205532421Y-129123700D01*
X205532422Y-129123700D01*
X205586933Y-129107694D01*
X205671396Y-129082894D01*
X205793246Y-129004586D01*
X205888097Y-128895121D01*
X205948267Y-128763368D01*
X205968880Y-128620000D01*
X205948267Y-128476632D01*
X205946605Y-128472993D01*
X205888096Y-128344877D01*
X205823215Y-128270000D01*
X207950305Y-128270000D01*
X207970195Y-128421071D01*
X208028505Y-128561846D01*
X208121265Y-128682734D01*
X208223827Y-128761432D01*
X208242153Y-128775494D01*
X208382929Y-128833805D01*
X208514109Y-128851075D01*
X208533999Y-128853694D01*
X208533999Y-128853693D01*
X208534000Y-128853694D01*
X208685071Y-128833805D01*
X208825847Y-128775494D01*
X208850881Y-128756284D01*
X208902173Y-128733044D01*
X208958458Y-128734886D01*
X209008123Y-128761432D01*
X209040926Y-128807206D01*
X209044505Y-128815846D01*
X209137265Y-128936734D01*
X209225692Y-129004586D01*
X209258153Y-129029494D01*
X209398929Y-129087805D01*
X209550000Y-129107694D01*
X209701071Y-129087805D01*
X209841847Y-129029494D01*
X209962734Y-128936734D01*
X210055494Y-128815847D01*
X210113805Y-128675071D01*
X210133694Y-128524000D01*
X210113805Y-128372929D01*
X210055494Y-128232153D01*
X210036397Y-128207265D01*
X209962734Y-128111265D01*
X209841846Y-128018505D01*
X209701071Y-127960195D01*
X209550000Y-127940305D01*
X209398928Y-127960195D01*
X209258153Y-128018505D01*
X209233118Y-128037715D01*
X209181823Y-128060956D01*
X209125538Y-128059112D01*
X209075873Y-128032566D01*
X209043072Y-127986790D01*
X209039494Y-127978153D01*
X208946734Y-127857265D01*
X208825846Y-127764505D01*
X208685071Y-127706195D01*
X208534000Y-127686305D01*
X208382928Y-127706195D01*
X208242153Y-127764505D01*
X208121265Y-127857265D01*
X208028505Y-127978153D01*
X207970195Y-128118928D01*
X207950305Y-128270000D01*
X205823215Y-128270000D01*
X205793247Y-128235415D01*
X205793246Y-128235414D01*
X205671396Y-128157106D01*
X205671395Y-128157105D01*
X205671394Y-128157105D01*
X205532422Y-128116300D01*
X205532421Y-128116300D01*
X205407913Y-128116300D01*
X205351618Y-128102785D01*
X205307595Y-128065185D01*
X205285440Y-128011698D01*
X205289982Y-127953982D01*
X205320232Y-127904619D01*
X205460346Y-127764505D01*
X205618456Y-127606394D01*
X205626424Y-127599094D01*
X205655683Y-127574544D01*
X205674791Y-127541446D01*
X205680569Y-127532375D01*
X205702499Y-127501058D01*
X205702500Y-127501051D01*
X205703069Y-127500240D01*
X205713468Y-127475135D01*
X205713640Y-127474159D01*
X205713642Y-127474156D01*
X205720277Y-127436525D01*
X205722612Y-127425993D01*
X205732501Y-127389090D01*
X205729171Y-127351038D01*
X205728700Y-127340233D01*
X205728700Y-121920000D01*
X212268305Y-121920000D01*
X212288195Y-122071071D01*
X212346505Y-122211846D01*
X212439265Y-122332734D01*
X212539961Y-122410000D01*
X212560153Y-122425494D01*
X212700929Y-122483805D01*
X212852000Y-122503694D01*
X213003071Y-122483805D01*
X213143847Y-122425494D01*
X213264734Y-122332734D01*
X213357494Y-122211847D01*
X213415805Y-122071071D01*
X213435694Y-121920000D01*
X214808305Y-121920000D01*
X214828195Y-122071071D01*
X214886505Y-122211846D01*
X214979265Y-122332734D01*
X215079961Y-122410000D01*
X215100153Y-122425494D01*
X215240929Y-122483805D01*
X215392000Y-122503694D01*
X215543071Y-122483805D01*
X215683847Y-122425494D01*
X215804734Y-122332734D01*
X215897494Y-122211847D01*
X215955805Y-122071071D01*
X215975694Y-121920000D01*
X215955805Y-121768929D01*
X215897494Y-121628153D01*
X215840478Y-121553848D01*
X215804734Y-121507265D01*
X215683846Y-121414505D01*
X215543071Y-121356195D01*
X215391999Y-121336305D01*
X215240928Y-121356195D01*
X215100153Y-121414505D01*
X214979265Y-121507265D01*
X214886505Y-121628153D01*
X214828195Y-121768928D01*
X214808305Y-121920000D01*
X213435694Y-121920000D01*
X213415805Y-121768929D01*
X213357494Y-121628153D01*
X213300478Y-121553848D01*
X213264734Y-121507265D01*
X213143846Y-121414505D01*
X213003071Y-121356195D01*
X212851999Y-121336305D01*
X212700928Y-121356195D01*
X212560153Y-121414505D01*
X212439265Y-121507265D01*
X212346505Y-121628153D01*
X212288195Y-121768928D01*
X212268305Y-121920000D01*
X205728700Y-121920000D01*
X205728700Y-92151630D01*
X205738139Y-92104177D01*
X205765019Y-92063949D01*
X208112341Y-89716627D01*
X208114961Y-89705362D01*
X208115125Y-89705010D01*
X208125971Y-89686208D01*
X208136499Y-89671174D01*
X208141249Y-89653443D01*
X208148640Y-89633136D01*
X208156398Y-89616503D01*
X208157997Y-89598218D01*
X208161748Y-89576941D01*
X208166501Y-89559206D01*
X208164901Y-89540925D01*
X208164901Y-89519304D01*
X208166501Y-89501026D01*
X208161748Y-89483289D01*
X208157997Y-89462008D01*
X208156398Y-89443731D01*
X208148640Y-89427093D01*
X208141249Y-89406784D01*
X208140000Y-89402123D01*
X208136499Y-89389058D01*
X208125968Y-89374019D01*
X208115168Y-89355313D01*
X208107409Y-89338673D01*
X208025443Y-89256707D01*
X205445286Y-86676550D01*
X205437978Y-86668575D01*
X205430783Y-86660000D01*
X205413428Y-86639317D01*
X205413427Y-86639316D01*
X205380349Y-86620218D01*
X205371229Y-86614408D01*
X205339942Y-86592501D01*
X205339940Y-86592500D01*
X205339130Y-86591933D01*
X205314013Y-86581528D01*
X205275419Y-86574722D01*
X205264864Y-86572382D01*
X205227975Y-86562498D01*
X205189924Y-86565828D01*
X205179116Y-86566300D01*
X203904765Y-86566300D01*
X203893957Y-86565828D01*
X203885015Y-86565045D01*
X203834130Y-86560593D01*
X203834266Y-86559032D01*
X203800355Y-86558629D01*
X203792422Y-86556300D01*
X203792421Y-86556300D01*
X203647579Y-86556300D01*
X203647578Y-86556300D01*
X203508605Y-86597105D01*
X203386752Y-86675415D01*
X203291903Y-86784877D01*
X203231732Y-86916631D01*
X203211120Y-87060000D01*
X203231732Y-87203368D01*
X203291903Y-87335122D01*
X203370282Y-87425576D01*
X203386754Y-87444586D01*
X203508604Y-87522894D01*
X203578091Y-87543296D01*
X203647578Y-87563700D01*
X203647579Y-87563700D01*
X203792421Y-87563700D01*
X203792422Y-87563700D01*
X203840766Y-87549505D01*
X203931396Y-87522894D01*
X204053246Y-87444586D01*
X204148097Y-87335121D01*
X204165876Y-87296189D01*
X204193101Y-87257957D01*
X204232585Y-87232582D01*
X204278671Y-87223700D01*
X204330617Y-87223700D01*
X204397656Y-87243384D01*
X204443411Y-87296188D01*
X204453355Y-87365346D01*
X204431120Y-87519999D01*
X204451732Y-87663368D01*
X204511903Y-87795122D01*
X204581013Y-87874880D01*
X204603482Y-87912749D01*
X204611300Y-87956082D01*
X204611300Y-125802486D01*
X204601861Y-125849939D01*
X204574981Y-125890167D01*
X198361554Y-132103592D01*
X198353582Y-132110897D01*
X198324318Y-132135454D01*
X198305216Y-132168537D01*
X198299408Y-132177654D01*
X198276932Y-132209753D01*
X198266528Y-132234872D01*
X198259722Y-132273467D01*
X198257382Y-132284022D01*
X198247498Y-132320909D01*
X198250828Y-132358960D01*
X198251300Y-132369768D01*
X198251300Y-141490232D01*
X198250828Y-141501040D01*
X198247498Y-141539091D01*
X190038700Y-141539091D01*
X190038700Y-134784999D01*
X190716305Y-134784999D01*
X190736195Y-134936071D01*
X190794505Y-135076846D01*
X190887265Y-135197734D01*
X191008152Y-135290493D01*
X191008153Y-135290494D01*
X191148929Y-135348805D01*
X191300000Y-135368694D01*
X191303486Y-135369153D01*
X191358424Y-135390517D01*
X191397289Y-135434835D01*
X191411300Y-135492092D01*
X191411300Y-136771654D01*
X191398512Y-136826498D01*
X191362786Y-136870030D01*
X191357265Y-136874265D01*
X191264505Y-136995153D01*
X191206195Y-137135928D01*
X191186305Y-137286999D01*
X191206195Y-137438071D01*
X191264505Y-137578846D01*
X191357265Y-137699734D01*
X191472277Y-137787985D01*
X191478153Y-137792494D01*
X191618929Y-137850805D01*
X191770000Y-137870694D01*
X191921071Y-137850805D01*
X192061847Y-137792494D01*
X192182734Y-137699734D01*
X192275494Y-137578847D01*
X192333805Y-137438071D01*
X192353694Y-137287000D01*
X192333805Y-137135929D01*
X192275494Y-136995153D01*
X192182734Y-136874266D01*
X192117212Y-136823988D01*
X192081488Y-136780458D01*
X192068700Y-136725614D01*
X192068700Y-135244767D01*
X192069172Y-135233959D01*
X192072501Y-135195909D01*
X192062614Y-135159012D01*
X192060277Y-135148478D01*
X192053642Y-135110844D01*
X192053639Y-135110840D01*
X192053467Y-135109860D01*
X192043068Y-135084754D01*
X192020590Y-135052652D01*
X192014778Y-135043529D01*
X191995683Y-135010456D01*
X191966421Y-134985902D01*
X191958446Y-134978594D01*
X191913107Y-134933255D01*
X191883368Y-134885431D01*
X191877849Y-134829391D01*
X191883694Y-134785000D01*
X191863805Y-134633929D01*
X191805494Y-134493153D01*
X191738753Y-134406174D01*
X191712734Y-134372265D01*
X191591846Y-134279505D01*
X191451071Y-134221195D01*
X191300000Y-134201305D01*
X191148928Y-134221195D01*
X191008153Y-134279505D01*
X190887265Y-134372265D01*
X190794505Y-134493153D01*
X190736195Y-134633928D01*
X190716305Y-134784999D01*
X190038700Y-134784999D01*
X190038700Y-106629756D01*
X190039172Y-106618948D01*
X190042500Y-106580909D01*
X190032615Y-106544019D01*
X190030276Y-106533468D01*
X190023642Y-106495844D01*
X190023640Y-106495842D01*
X190023469Y-106494867D01*
X190013067Y-106469754D01*
X190012499Y-106468943D01*
X190012499Y-106468942D01*
X189990587Y-106437649D01*
X189984781Y-106428535D01*
X189965682Y-106395455D01*
X189936421Y-106370902D01*
X189928446Y-106363594D01*
X188135019Y-104570167D01*
X188108139Y-104529939D01*
X188098700Y-104482486D01*
X188098700Y-95300000D01*
X191296305Y-95300000D01*
X191316195Y-95451071D01*
X191374505Y-95591846D01*
X191467265Y-95712734D01*
X191588152Y-95805493D01*
X191588153Y-95805494D01*
X191728929Y-95863805D01*
X191880000Y-95883694D01*
X192031071Y-95863805D01*
X192171847Y-95805494D01*
X192292734Y-95712734D01*
X192385494Y-95591847D01*
X192443805Y-95451071D01*
X192463694Y-95300000D01*
X192443805Y-95148929D01*
X192385494Y-95008153D01*
X192385493Y-95008152D01*
X192292734Y-94887265D01*
X192171846Y-94794505D01*
X192031071Y-94736195D01*
X191880000Y-94716305D01*
X191728928Y-94736195D01*
X191588153Y-94794505D01*
X191467265Y-94887265D01*
X191374505Y-95008153D01*
X191316195Y-95148928D01*
X191296305Y-95300000D01*
X188098700Y-95300000D01*
X188098700Y-93186082D01*
X188106518Y-93142749D01*
X188128987Y-93104880D01*
X188198096Y-93025122D01*
X188198095Y-93025122D01*
X188198097Y-93025121D01*
X188258267Y-92893368D01*
X188278880Y-92750000D01*
X188258267Y-92606632D01*
X188198097Y-92474879D01*
X188198096Y-92474878D01*
X188198096Y-92474877D01*
X188103247Y-92365415D01*
X188103246Y-92365414D01*
X187981396Y-92287106D01*
X187981395Y-92287105D01*
X187981394Y-92287105D01*
X187842422Y-92246300D01*
X187842421Y-92246300D01*
X187697579Y-92246300D01*
X187697578Y-92246300D01*
X187558605Y-92287105D01*
X187436752Y-92365415D01*
X187341903Y-92474877D01*
X187281732Y-92606631D01*
X187261120Y-92749999D01*
X181514852Y-92749999D01*
X186232469Y-88032381D01*
X186272695Y-88005504D01*
X186320148Y-87996065D01*
X186367599Y-88005504D01*
X186388551Y-88014183D01*
X186516716Y-88031056D01*
X186539621Y-88034072D01*
X186539621Y-88034071D01*
X186539622Y-88034072D01*
X186690693Y-88014183D01*
X186831469Y-87955872D01*
X186952356Y-87863112D01*
X187045116Y-87742225D01*
X187103427Y-87601449D01*
X187123316Y-87450378D01*
X187122553Y-87444586D01*
X187112527Y-87368431D01*
X187103427Y-87299307D01*
X187045116Y-87158531D01*
X187028418Y-87136770D01*
X186952356Y-87037643D01*
X186831468Y-86944883D01*
X186690693Y-86886573D01*
X186539622Y-86866683D01*
X186388550Y-86886573D01*
X186247775Y-86944883D01*
X186126887Y-87037643D01*
X186034127Y-87158531D01*
X185975817Y-87299305D01*
X185972210Y-87326701D01*
X185960483Y-87365358D01*
X185936952Y-87398194D01*
X183628111Y-89707035D01*
X183576425Y-89738015D01*
X183516239Y-89740971D01*
X183461765Y-89715208D01*
X183425869Y-89666807D01*
X183405872Y-89618530D01*
X183313112Y-89497643D01*
X183192224Y-89404883D01*
X183051449Y-89346573D01*
X182900378Y-89326683D01*
X182749306Y-89346573D01*
X182608531Y-89404883D01*
X182487643Y-89497643D01*
X182394883Y-89618531D01*
X182336573Y-89759306D01*
X182316683Y-89910378D01*
X182336573Y-90061449D01*
X182394883Y-90202224D01*
X182487643Y-90323112D01*
X182608530Y-90415872D01*
X182656807Y-90435869D01*
X182705208Y-90471765D01*
X182730971Y-90526239D01*
X182728015Y-90586425D01*
X182697035Y-90638111D01*
X171551554Y-101783592D01*
X171543582Y-101790897D01*
X171514318Y-101815454D01*
X171495216Y-101848537D01*
X171489408Y-101857654D01*
X171466932Y-101889753D01*
X171456528Y-101914872D01*
X171449722Y-101953467D01*
X171447382Y-101964022D01*
X171437498Y-102000909D01*
X171440828Y-102038960D01*
X171441300Y-102049768D01*
X171441300Y-126970232D01*
X171440828Y-126981040D01*
X171437498Y-127019091D01*
X122846448Y-127019091D01*
X122844532Y-122760000D01*
X130846305Y-122760000D01*
X130866195Y-122911071D01*
X130924505Y-123051846D01*
X131017265Y-123172734D01*
X131138152Y-123265493D01*
X131138153Y-123265494D01*
X131278929Y-123323805D01*
X131430000Y-123343694D01*
X131432423Y-123344013D01*
X131471082Y-123355740D01*
X131503919Y-123379271D01*
X132436391Y-124311743D01*
X132466129Y-124359565D01*
X132471649Y-124415607D01*
X132465805Y-124459997D01*
X132485695Y-124611071D01*
X132544005Y-124751846D01*
X132636765Y-124872734D01*
X132744621Y-124955494D01*
X132757653Y-124965494D01*
X132898429Y-125023805D01*
X133049500Y-125043694D01*
X133200571Y-125023805D01*
X133341347Y-124965494D01*
X133462234Y-124872734D01*
X133554994Y-124751847D01*
X133613305Y-124611071D01*
X133633194Y-124460000D01*
X133631877Y-124449999D01*
X165496305Y-124449999D01*
X165516195Y-124601071D01*
X165574505Y-124741846D01*
X165667265Y-124862734D01*
X165788153Y-124955494D01*
X165928929Y-125013805D01*
X166080000Y-125033694D01*
X166231071Y-125013805D01*
X166371847Y-124955494D01*
X166492734Y-124862734D01*
X166585494Y-124741847D01*
X166643805Y-124601071D01*
X166663694Y-124450000D01*
X166643805Y-124298929D01*
X166585494Y-124158153D01*
X166585493Y-124158152D01*
X166492734Y-124037265D01*
X166371846Y-123944505D01*
X166231071Y-123886195D01*
X166080000Y-123866305D01*
X165928928Y-123886195D01*
X165788153Y-123944505D01*
X165667265Y-124037265D01*
X165574505Y-124158153D01*
X165516195Y-124298928D01*
X165496305Y-124449999D01*
X133631877Y-124449999D01*
X133613305Y-124308929D01*
X133554994Y-124168153D01*
X133547321Y-124158153D01*
X133462234Y-124047265D01*
X133341346Y-123954505D01*
X133200571Y-123896195D01*
X133049497Y-123876305D01*
X133005107Y-123882149D01*
X132949065Y-123876629D01*
X132901243Y-123846891D01*
X132033742Y-122979390D01*
X132004003Y-122931567D01*
X132001879Y-122910000D01*
X151626305Y-122910000D01*
X151646195Y-123061071D01*
X151704505Y-123201846D01*
X151797265Y-123322734D01*
X151824997Y-123344013D01*
X151918153Y-123415494D01*
X152058929Y-123473805D01*
X152190109Y-123491075D01*
X152209999Y-123493694D01*
X152209999Y-123493693D01*
X152210000Y-123493694D01*
X152361071Y-123473805D01*
X152501847Y-123415494D01*
X152622734Y-123322734D01*
X152715494Y-123201847D01*
X152773805Y-123061071D01*
X152793694Y-122910000D01*
X152773805Y-122758929D01*
X152715494Y-122618153D01*
X152708415Y-122608928D01*
X152622734Y-122497265D01*
X152509006Y-122409999D01*
X154596305Y-122409999D01*
X154616195Y-122561071D01*
X154674505Y-122701846D01*
X154767265Y-122822734D01*
X154880993Y-122910000D01*
X154888153Y-122915494D01*
X155028929Y-122973805D01*
X155180000Y-122993694D01*
X155331071Y-122973805D01*
X155471847Y-122915494D01*
X155592734Y-122822734D01*
X155685494Y-122701847D01*
X155743805Y-122561071D01*
X155763694Y-122410000D01*
X155757849Y-122365606D01*
X155763368Y-122309566D01*
X155793105Y-122261745D01*
X156118456Y-121936394D01*
X156126424Y-121929094D01*
X156155683Y-121904544D01*
X156174791Y-121871446D01*
X156180569Y-121862375D01*
X156202499Y-121831058D01*
X156202500Y-121831051D01*
X156203069Y-121830240D01*
X156213468Y-121805139D01*
X156213640Y-121804157D01*
X156213642Y-121804156D01*
X156220278Y-121766514D01*
X156222607Y-121756009D01*
X156232501Y-121719089D01*
X156229171Y-121681037D01*
X156228700Y-121670232D01*
X156228700Y-119418366D01*
X156241488Y-119363522D01*
X156277212Y-119319991D01*
X156312734Y-119292734D01*
X156405494Y-119171847D01*
X156463805Y-119031071D01*
X156483694Y-118880000D01*
X156463805Y-118728929D01*
X156405494Y-118588153D01*
X156401374Y-118582784D01*
X156312734Y-118467265D01*
X156191846Y-118374505D01*
X156051071Y-118316195D01*
X155900000Y-118296305D01*
X155748928Y-118316195D01*
X155608153Y-118374505D01*
X155487265Y-118467265D01*
X155394505Y-118588153D01*
X155336195Y-118728928D01*
X155316305Y-118879999D01*
X155336195Y-119031071D01*
X155394505Y-119171846D01*
X155460049Y-119257265D01*
X155487266Y-119292734D01*
X155522787Y-119319991D01*
X155558512Y-119363522D01*
X155571300Y-119418366D01*
X155571300Y-121502486D01*
X155561861Y-121549939D01*
X155534983Y-121590164D01*
X155369171Y-121755976D01*
X155328255Y-121796892D01*
X155280433Y-121826629D01*
X155224390Y-121832149D01*
X155180001Y-121826305D01*
X155028928Y-121846195D01*
X154888153Y-121904505D01*
X154767265Y-121997265D01*
X154674505Y-122118153D01*
X154616195Y-122258928D01*
X154596305Y-122409999D01*
X152509006Y-122409999D01*
X152501846Y-122404505D01*
X152361071Y-122346195D01*
X152210000Y-122326305D01*
X152058928Y-122346195D01*
X151918153Y-122404505D01*
X151797265Y-122497265D01*
X151704505Y-122618153D01*
X151646195Y-122758928D01*
X151626305Y-122910000D01*
X132001879Y-122910000D01*
X131998484Y-122875527D01*
X132013694Y-122760000D01*
X131993805Y-122608929D01*
X131935494Y-122468153D01*
X131886656Y-122404506D01*
X131842734Y-122347265D01*
X131721846Y-122254505D01*
X131581071Y-122196195D01*
X131430000Y-122176305D01*
X131278928Y-122196195D01*
X131138153Y-122254505D01*
X131017265Y-122347265D01*
X130924505Y-122468153D01*
X130866195Y-122608928D01*
X130846305Y-122760000D01*
X122844532Y-122760000D01*
X122843803Y-121139418D01*
X153695737Y-121139418D01*
X153715627Y-121290490D01*
X153773937Y-121431265D01*
X153866697Y-121552153D01*
X153965743Y-121628153D01*
X153987585Y-121644913D01*
X154128361Y-121703224D01*
X154279432Y-121723113D01*
X154430503Y-121703224D01*
X154571279Y-121644913D01*
X154692166Y-121552153D01*
X154784926Y-121431266D01*
X154843237Y-121290490D01*
X154863126Y-121139419D01*
X154843237Y-120988348D01*
X154784926Y-120847572D01*
X154714324Y-120755561D01*
X154695281Y-120719933D01*
X154688700Y-120680075D01*
X154688700Y-117429999D01*
X167176305Y-117429999D01*
X167196195Y-117581071D01*
X167254505Y-117721846D01*
X167347265Y-117842734D01*
X167468152Y-117935493D01*
X167468153Y-117935494D01*
X167608929Y-117993805D01*
X167760000Y-118013694D01*
X167911071Y-117993805D01*
X168051847Y-117935494D01*
X168172734Y-117842734D01*
X168265494Y-117721847D01*
X168323805Y-117581071D01*
X168343694Y-117430000D01*
X168323805Y-117278929D01*
X168265494Y-117138153D01*
X168193436Y-117044245D01*
X168172734Y-117017265D01*
X168051846Y-116924505D01*
X167911071Y-116866195D01*
X167760000Y-116846305D01*
X167608928Y-116866195D01*
X167468153Y-116924505D01*
X167347265Y-117017265D01*
X167254505Y-117138153D01*
X167196195Y-117278928D01*
X167176305Y-117429999D01*
X154688700Y-117429999D01*
X154688700Y-116598647D01*
X154698139Y-116551195D01*
X154725018Y-116510966D01*
X154753143Y-116492172D01*
X154761844Y-116485494D01*
X154761847Y-116485494D01*
X154882734Y-116392734D01*
X154975494Y-116271847D01*
X155033805Y-116131071D01*
X155053694Y-115980000D01*
X155033805Y-115828929D01*
X154975494Y-115688153D01*
X154954349Y-115660596D01*
X154882734Y-115567265D01*
X154761846Y-115474505D01*
X154621071Y-115416195D01*
X154470000Y-115396305D01*
X154318928Y-115416195D01*
X154178153Y-115474505D01*
X154057265Y-115567265D01*
X153964505Y-115688153D01*
X153906195Y-115828928D01*
X153886305Y-115980000D01*
X153906195Y-116131071D01*
X153964504Y-116271844D01*
X153964505Y-116271846D01*
X153964506Y-116271847D01*
X154005677Y-116325503D01*
X154024719Y-116361128D01*
X154031300Y-116400987D01*
X154031300Y-120539231D01*
X154018512Y-120594075D01*
X153982786Y-120637607D01*
X153866697Y-120726684D01*
X153773937Y-120847572D01*
X153715627Y-120988347D01*
X153695737Y-121139418D01*
X122843803Y-121139418D01*
X122843142Y-119669999D01*
X130576305Y-119669999D01*
X130596195Y-119821071D01*
X130654505Y-119961846D01*
X130747265Y-120082734D01*
X130868153Y-120175494D01*
X131008929Y-120233805D01*
X131160000Y-120253694D01*
X131311071Y-120233805D01*
X131451847Y-120175494D01*
X131572734Y-120082734D01*
X131665494Y-119961847D01*
X131723805Y-119821071D01*
X131743694Y-119670000D01*
X131737849Y-119625606D01*
X131743368Y-119569566D01*
X131773105Y-119521745D01*
X132168851Y-119125999D01*
X141656305Y-119125999D01*
X141676195Y-119277071D01*
X141734505Y-119417846D01*
X141827265Y-119538734D01*
X141940486Y-119625611D01*
X141948153Y-119631494D01*
X142088929Y-119689805D01*
X142240000Y-119709694D01*
X142391071Y-119689805D01*
X142531847Y-119631494D01*
X142652734Y-119538734D01*
X142745494Y-119417847D01*
X142803805Y-119277071D01*
X142823694Y-119126000D01*
X142803805Y-118974929D01*
X142745494Y-118834153D01*
X142652734Y-118713265D01*
X142531846Y-118620505D01*
X142391071Y-118562195D01*
X142240000Y-118542305D01*
X142088928Y-118562195D01*
X141948153Y-118620505D01*
X141827265Y-118713265D01*
X141734505Y-118834153D01*
X141676195Y-118974928D01*
X141656305Y-119125999D01*
X132168851Y-119125999D01*
X132516023Y-118778827D01*
X132523991Y-118771527D01*
X132528012Y-118768153D01*
X132553250Y-118746977D01*
X132572358Y-118713879D01*
X132578136Y-118704808D01*
X132600066Y-118673491D01*
X132600067Y-118673484D01*
X132600636Y-118672673D01*
X132611035Y-118647572D01*
X132611207Y-118646590D01*
X132611209Y-118646589D01*
X132617845Y-118608947D01*
X132620174Y-118598442D01*
X132630068Y-118561522D01*
X132626738Y-118523470D01*
X132626267Y-118512665D01*
X132626267Y-117290765D01*
X132639055Y-117235921D01*
X132674779Y-117192390D01*
X132710301Y-117165133D01*
X132803061Y-117044246D01*
X132861372Y-116903470D01*
X132881261Y-116752399D01*
X132861372Y-116601328D01*
X132803061Y-116460552D01*
X132757355Y-116400987D01*
X132710301Y-116339664D01*
X132589413Y-116246904D01*
X132448638Y-116188594D01*
X132297567Y-116168704D01*
X132146495Y-116188594D01*
X132005720Y-116246904D01*
X131884832Y-116339664D01*
X131792072Y-116460552D01*
X131733762Y-116601327D01*
X131713872Y-116752398D01*
X131733762Y-116903470D01*
X131792072Y-117044245D01*
X131792073Y-117044246D01*
X131884833Y-117165133D01*
X131920354Y-117192390D01*
X131956079Y-117235921D01*
X131968867Y-117290765D01*
X131968867Y-118344919D01*
X131959428Y-118392372D01*
X131932548Y-118432600D01*
X131308255Y-119056891D01*
X131260433Y-119086629D01*
X131204390Y-119092149D01*
X131160001Y-119086305D01*
X131008928Y-119106195D01*
X130868153Y-119164505D01*
X130747265Y-119257265D01*
X130654505Y-119378153D01*
X130596195Y-119518928D01*
X130576305Y-119669999D01*
X122843142Y-119669999D01*
X122841356Y-115700000D01*
X134826305Y-115700000D01*
X134846195Y-115851071D01*
X134904505Y-115991846D01*
X134997265Y-116112734D01*
X135118152Y-116205493D01*
X135118153Y-116205494D01*
X135258929Y-116263805D01*
X135410000Y-116283694D01*
X135561071Y-116263805D01*
X135701847Y-116205494D01*
X135822734Y-116112734D01*
X135915494Y-115991847D01*
X135973805Y-115851071D01*
X135993694Y-115700000D01*
X135973805Y-115548929D01*
X135915494Y-115408153D01*
X135915493Y-115408152D01*
X135822734Y-115287265D01*
X135701846Y-115194505D01*
X135561071Y-115136195D01*
X135410000Y-115116305D01*
X135258928Y-115136195D01*
X135118153Y-115194505D01*
X134997265Y-115287265D01*
X134904505Y-115408153D01*
X134846195Y-115548928D01*
X134826305Y-115700000D01*
X122841356Y-115700000D01*
X122837846Y-107900000D01*
X130606305Y-107900000D01*
X130626195Y-108051071D01*
X130684505Y-108191846D01*
X130777265Y-108312734D01*
X130826319Y-108350374D01*
X130898153Y-108405494D01*
X131038929Y-108463805D01*
X131190000Y-108483694D01*
X131341071Y-108463805D01*
X131481847Y-108405494D01*
X131602734Y-108312734D01*
X131695494Y-108191847D01*
X131753805Y-108051071D01*
X131773694Y-107900000D01*
X131753805Y-107748929D01*
X131695494Y-107608153D01*
X131691957Y-107603544D01*
X131602734Y-107487265D01*
X131565897Y-107458999D01*
X140456305Y-107458999D01*
X140476195Y-107610071D01*
X140534505Y-107750846D01*
X140627265Y-107871734D01*
X140723446Y-107945536D01*
X140748153Y-107964494D01*
X140888929Y-108022805D01*
X141020109Y-108040075D01*
X141039999Y-108042694D01*
X141039999Y-108042693D01*
X141040000Y-108042694D01*
X141145708Y-108028777D01*
X141209345Y-108037155D01*
X141260269Y-108076229D01*
X141284832Y-108135530D01*
X141302861Y-108272472D01*
X141361171Y-108413247D01*
X141453931Y-108534135D01*
X141550394Y-108608153D01*
X141574819Y-108626895D01*
X141715595Y-108685206D01*
X141866666Y-108705095D01*
X141935723Y-108696003D01*
X141991764Y-108701522D01*
X142039588Y-108731260D01*
X142069326Y-108779083D01*
X142074846Y-108835127D01*
X142066305Y-108899998D01*
X142086195Y-109051071D01*
X142144505Y-109191846D01*
X142237265Y-109312734D01*
X142358152Y-109405493D01*
X142358153Y-109405494D01*
X142498929Y-109463805D01*
X142650000Y-109483694D01*
X142653453Y-109483239D01*
X142709494Y-109488758D01*
X142757318Y-109518495D01*
X142787057Y-109566318D01*
X142792577Y-109622363D01*
X142786305Y-109669999D01*
X142806195Y-109821071D01*
X142864505Y-109961846D01*
X142957265Y-110082734D01*
X143078152Y-110175493D01*
X143078153Y-110175494D01*
X143218929Y-110233805D01*
X143370000Y-110253694D01*
X143521071Y-110233805D01*
X143661847Y-110175494D01*
X143782734Y-110082734D01*
X143875494Y-109961847D01*
X143933805Y-109821071D01*
X143953694Y-109670000D01*
X143947849Y-109625606D01*
X143953368Y-109569566D01*
X143983105Y-109521745D01*
X144615311Y-108889539D01*
X144623265Y-108882250D01*
X144652538Y-108857689D01*
X144671640Y-108824601D01*
X144677429Y-108815513D01*
X144699354Y-108784203D01*
X144699355Y-108784198D01*
X144699924Y-108783386D01*
X144710323Y-108758284D01*
X144710496Y-108757302D01*
X144710497Y-108757301D01*
X144717132Y-108719670D01*
X144719467Y-108709138D01*
X144729356Y-108672235D01*
X144726026Y-108634183D01*
X144725555Y-108623378D01*
X144725555Y-108332831D01*
X144738343Y-108277987D01*
X144774067Y-108234456D01*
X144809589Y-108207199D01*
X144902349Y-108086312D01*
X144960660Y-107945536D01*
X144980549Y-107794465D01*
X144960660Y-107643394D01*
X144902349Y-107502618D01*
X144819392Y-107394506D01*
X144809589Y-107381730D01*
X144688701Y-107288970D01*
X144547926Y-107230660D01*
X144396854Y-107210770D01*
X144352380Y-107216626D01*
X144288742Y-107208248D01*
X144237819Y-107169173D01*
X144213256Y-107109873D01*
X144207394Y-107065340D01*
X144149083Y-106924564D01*
X144136456Y-106908108D01*
X144056323Y-106803676D01*
X143935435Y-106710916D01*
X143794660Y-106652606D01*
X143643984Y-106632768D01*
X143593544Y-106614409D01*
X143555589Y-106576454D01*
X143537231Y-106526015D01*
X143529717Y-106468942D01*
X143517394Y-106375340D01*
X143459083Y-106234564D01*
X143366323Y-106113676D01*
X143245435Y-106020916D01*
X143104661Y-105962606D01*
X143064432Y-105957309D01*
X143013993Y-105938949D01*
X142976039Y-105900994D01*
X142957681Y-105850555D01*
X142952386Y-105810332D01*
X142894075Y-105669556D01*
X142801315Y-105548668D01*
X142680427Y-105455908D01*
X142539652Y-105397598D01*
X142388581Y-105377708D01*
X142237509Y-105397598D01*
X142096734Y-105455908D01*
X141975846Y-105548668D01*
X141883086Y-105669556D01*
X141824776Y-105810331D01*
X141804886Y-105961404D01*
X141810730Y-106005793D01*
X141805210Y-106061836D01*
X141775472Y-106109658D01*
X141035014Y-106850116D01*
X141002178Y-106873647D01*
X140963520Y-106885374D01*
X140888927Y-106895195D01*
X140748153Y-106953505D01*
X140627265Y-107046265D01*
X140534505Y-107167153D01*
X140476195Y-107307928D01*
X140456305Y-107458999D01*
X131565897Y-107458999D01*
X131481846Y-107394505D01*
X131341071Y-107336195D01*
X131190000Y-107316305D01*
X131038928Y-107336195D01*
X130898153Y-107394505D01*
X130777265Y-107487265D01*
X130684505Y-107608153D01*
X130626195Y-107748928D01*
X130606305Y-107900000D01*
X122837846Y-107900000D01*
X122835205Y-102030000D01*
X123976805Y-102030000D01*
X123996695Y-102181071D01*
X124055005Y-102321846D01*
X124147765Y-102442734D01*
X124268653Y-102535494D01*
X124409429Y-102593805D01*
X124560500Y-102613694D01*
X124711571Y-102593805D01*
X124852347Y-102535494D01*
X124973234Y-102442734D01*
X125065994Y-102321847D01*
X125124305Y-102181071D01*
X125144194Y-102030000D01*
X125124305Y-101878929D01*
X125065994Y-101738153D01*
X124973234Y-101617266D01*
X124937712Y-101590008D01*
X124904878Y-101550000D01*
X128226305Y-101550000D01*
X128246195Y-101701071D01*
X128304505Y-101841846D01*
X128397265Y-101962734D01*
X128503636Y-102044355D01*
X128518153Y-102055494D01*
X128658929Y-102113805D01*
X128810000Y-102133694D01*
X128961071Y-102113805D01*
X129101847Y-102055494D01*
X129222734Y-101962734D01*
X129315494Y-101841847D01*
X129373805Y-101701071D01*
X129393694Y-101550000D01*
X129373805Y-101398929D01*
X129315494Y-101258153D01*
X129315493Y-101258152D01*
X129222734Y-101137265D01*
X129101846Y-101044505D01*
X128961071Y-100986195D01*
X128810000Y-100966305D01*
X128658928Y-100986195D01*
X128518153Y-101044505D01*
X128397265Y-101137265D01*
X128304505Y-101258153D01*
X128246195Y-101398928D01*
X128226305Y-101550000D01*
X124904878Y-101550000D01*
X124901988Y-101546478D01*
X124889200Y-101491634D01*
X124889200Y-100497014D01*
X124898639Y-100449561D01*
X124925519Y-100409333D01*
X130618546Y-94716305D01*
X133711745Y-91623105D01*
X133759566Y-91593368D01*
X133815606Y-91587849D01*
X133860000Y-91593694D01*
X134011071Y-91573805D01*
X134151847Y-91515494D01*
X134272734Y-91422734D01*
X134365494Y-91301847D01*
X134423805Y-91161071D01*
X134443694Y-91010000D01*
X134423805Y-90858929D01*
X134365494Y-90718153D01*
X134304076Y-90638111D01*
X134272734Y-90597265D01*
X134151846Y-90504505D01*
X134011071Y-90446195D01*
X133860000Y-90426305D01*
X133708928Y-90446195D01*
X133568153Y-90504505D01*
X133447265Y-90597265D01*
X133354505Y-90718153D01*
X133296195Y-90858928D01*
X133276305Y-91010001D01*
X133282149Y-91054390D01*
X133276629Y-91110433D01*
X133246891Y-91158255D01*
X124342054Y-100063092D01*
X124334082Y-100070397D01*
X124304818Y-100094954D01*
X124285716Y-100128037D01*
X124279908Y-100137154D01*
X124257432Y-100169253D01*
X124247028Y-100194372D01*
X124240222Y-100232967D01*
X124237882Y-100243522D01*
X124227998Y-100280409D01*
X124231328Y-100318460D01*
X124231800Y-100329268D01*
X124231800Y-101491634D01*
X124219012Y-101546478D01*
X124183287Y-101590008D01*
X124167878Y-101601833D01*
X124147764Y-101617267D01*
X124055005Y-101738153D01*
X123996695Y-101878928D01*
X123976805Y-102030000D01*
X122835205Y-102030000D01*
X122827483Y-84868161D01*
X143246805Y-84868161D01*
X143266695Y-85019232D01*
X143325005Y-85160007D01*
X143417765Y-85280895D01*
X143538653Y-85373655D01*
X143679429Y-85431966D01*
X143830500Y-85451855D01*
X143981571Y-85431966D01*
X144122347Y-85373655D01*
X144243234Y-85280895D01*
X144335994Y-85160008D01*
X144369610Y-85078850D01*
X144407227Y-85029065D01*
X144464333Y-85003903D01*
X144526464Y-85009742D01*
X144577882Y-85045104D01*
X144646751Y-85124584D01*
X144646753Y-85124585D01*
X144646754Y-85124586D01*
X144768604Y-85202894D01*
X144838091Y-85223296D01*
X144907578Y-85243700D01*
X144907579Y-85243700D01*
X145052421Y-85243700D01*
X145052422Y-85243700D01*
X145098746Y-85230097D01*
X145191396Y-85202894D01*
X145313246Y-85124586D01*
X145388609Y-85037610D01*
X145432493Y-85005266D01*
X145486010Y-84994869D01*
X145538814Y-85008430D01*
X145580697Y-85043326D01*
X145607959Y-85078855D01*
X145641630Y-85122735D01*
X145746095Y-85202894D01*
X145762516Y-85215494D01*
X145903292Y-85273805D01*
X146054363Y-85293694D01*
X146205434Y-85273805D01*
X146346210Y-85215494D01*
X146467097Y-85122734D01*
X146559857Y-85001847D01*
X146618168Y-84861071D01*
X146638057Y-84710000D01*
X146618168Y-84558929D01*
X146559857Y-84418153D01*
X146479089Y-84312894D01*
X146467098Y-84297267D01*
X146450417Y-84284467D01*
X146431575Y-84270008D01*
X146395851Y-84226478D01*
X146383063Y-84171634D01*
X146383063Y-83483891D01*
X146398090Y-83424723D01*
X146439528Y-83379896D01*
X146497334Y-83360273D01*
X146557498Y-83370611D01*
X146605439Y-83408405D01*
X146653265Y-83470734D01*
X146774152Y-83563493D01*
X146774153Y-83563494D01*
X146914929Y-83621805D01*
X147066000Y-83641694D01*
X147217071Y-83621805D01*
X147357847Y-83563494D01*
X147478734Y-83470734D01*
X147571494Y-83349847D01*
X147629805Y-83209071D01*
X147649694Y-83058000D01*
X147629805Y-82906929D01*
X147571494Y-82766153D01*
X147514040Y-82691277D01*
X147478734Y-82645265D01*
X147357846Y-82552505D01*
X147217071Y-82494195D01*
X147066000Y-82474305D01*
X146914928Y-82494195D01*
X146774153Y-82552505D01*
X146653265Y-82645265D01*
X146605439Y-82707595D01*
X146557498Y-82745389D01*
X146497334Y-82755727D01*
X146439528Y-82736104D01*
X146398090Y-82691277D01*
X146383063Y-82632109D01*
X146383063Y-81620639D01*
X146387288Y-81588546D01*
X146392501Y-81569090D01*
X146389172Y-81531041D01*
X146388700Y-81520233D01*
X146388700Y-81145634D01*
X146389172Y-81134826D01*
X146392500Y-81096787D01*
X146384270Y-81066073D01*
X146384269Y-81001885D01*
X146416362Y-80946297D01*
X146471950Y-80914203D01*
X146536137Y-80914203D01*
X146591725Y-80946297D01*
X148363981Y-82718553D01*
X148390861Y-82758781D01*
X148400300Y-82806234D01*
X148400300Y-111449232D01*
X148399828Y-111460040D01*
X148396498Y-111498091D01*
X148406382Y-111534980D01*
X148408722Y-111545535D01*
X148415528Y-111584129D01*
X148425933Y-111609246D01*
X148426500Y-111610056D01*
X148426501Y-111610058D01*
X148432169Y-111618153D01*
X148448408Y-111641345D01*
X148454218Y-111650465D01*
X148473316Y-111683543D01*
X148502576Y-111708095D01*
X148510552Y-111715404D01*
X152464981Y-115669833D01*
X152491861Y-115710061D01*
X152501300Y-115757514D01*
X152501300Y-118521634D01*
X152488512Y-118576478D01*
X152452787Y-118620008D01*
X152437378Y-118631833D01*
X152417264Y-118647267D01*
X152324505Y-118768153D01*
X152266195Y-118908928D01*
X152246305Y-119059999D01*
X152266195Y-119211071D01*
X152324505Y-119351846D01*
X152417265Y-119472734D01*
X152537487Y-119564983D01*
X152538153Y-119565494D01*
X152678929Y-119623805D01*
X152830000Y-119643694D01*
X152981071Y-119623805D01*
X153121847Y-119565494D01*
X153242734Y-119472734D01*
X153335494Y-119351847D01*
X153393805Y-119211071D01*
X153413694Y-119060000D01*
X153393805Y-118908929D01*
X153335494Y-118768153D01*
X153293377Y-118713265D01*
X153242735Y-118647267D01*
X153242734Y-118647266D01*
X153207212Y-118620008D01*
X153171488Y-118576478D01*
X153158700Y-118521634D01*
X153158700Y-115676922D01*
X153162925Y-115644829D01*
X153172501Y-115609090D01*
X153168842Y-115567266D01*
X153162398Y-115493614D01*
X153153487Y-115474505D01*
X153137443Y-115440097D01*
X153133266Y-115428615D01*
X153127142Y-115418006D01*
X153113410Y-115388558D01*
X153113409Y-115388557D01*
X153048881Y-115324029D01*
X153048879Y-115324026D01*
X151274852Y-113549999D01*
X156646305Y-113549999D01*
X156666195Y-113701071D01*
X156724505Y-113841846D01*
X156817265Y-113962734D01*
X156938153Y-114055494D01*
X157078929Y-114113805D01*
X157230000Y-114133694D01*
X157381071Y-114113805D01*
X157521847Y-114055494D01*
X157642734Y-113962734D01*
X157735494Y-113841847D01*
X157756142Y-113791999D01*
X163754305Y-113791999D01*
X163774195Y-113943071D01*
X163832505Y-114083846D01*
X163925265Y-114204734D01*
X164046153Y-114297494D01*
X164186929Y-114355805D01*
X164338000Y-114375694D01*
X164489071Y-114355805D01*
X164629847Y-114297494D01*
X164750734Y-114204734D01*
X164843494Y-114083847D01*
X164901805Y-113943071D01*
X164921694Y-113792000D01*
X164901805Y-113640929D01*
X164843494Y-113500153D01*
X164843493Y-113500152D01*
X164750734Y-113379265D01*
X164629846Y-113286505D01*
X164489071Y-113228195D01*
X164338000Y-113208305D01*
X164186928Y-113228195D01*
X164046153Y-113286505D01*
X163925265Y-113379265D01*
X163832505Y-113500153D01*
X163774195Y-113640928D01*
X163754305Y-113791999D01*
X157756142Y-113791999D01*
X157793805Y-113701071D01*
X157813694Y-113550000D01*
X157793805Y-113398929D01*
X157735494Y-113258153D01*
X157735493Y-113258152D01*
X157642734Y-113137265D01*
X157521846Y-113044505D01*
X157381071Y-112986195D01*
X157230000Y-112966305D01*
X157078928Y-112986195D01*
X156938153Y-113044505D01*
X156817265Y-113137265D01*
X156724505Y-113258153D01*
X156666195Y-113398928D01*
X156646305Y-113549999D01*
X151274852Y-113549999D01*
X149094019Y-111369167D01*
X149067139Y-111328939D01*
X149057700Y-111281486D01*
X149057700Y-110089999D01*
X161016305Y-110089999D01*
X161036195Y-110241071D01*
X161094505Y-110381846D01*
X161187265Y-110502734D01*
X161308153Y-110595494D01*
X161448929Y-110653805D01*
X161600000Y-110673694D01*
X161751071Y-110653805D01*
X161891847Y-110595494D01*
X162012734Y-110502734D01*
X162105494Y-110381847D01*
X162163805Y-110241071D01*
X162183694Y-110090000D01*
X162163805Y-109938929D01*
X162105494Y-109798153D01*
X162105493Y-109798152D01*
X162012734Y-109677265D01*
X161891846Y-109584505D01*
X161751071Y-109526195D01*
X161600000Y-109506305D01*
X161448928Y-109526195D01*
X161308153Y-109584505D01*
X161187265Y-109677265D01*
X161094505Y-109798153D01*
X161036195Y-109938928D01*
X161016305Y-110089999D01*
X149057700Y-110089999D01*
X149057700Y-107520000D01*
X151126305Y-107520000D01*
X151146195Y-107671071D01*
X151204505Y-107811846D01*
X151297265Y-107932734D01*
X151414647Y-108022804D01*
X151418153Y-108025494D01*
X151558929Y-108083805D01*
X151710000Y-108103694D01*
X151861071Y-108083805D01*
X152001847Y-108025494D01*
X152122734Y-107932734D01*
X152215494Y-107811847D01*
X152273805Y-107671071D01*
X152293694Y-107520000D01*
X152273805Y-107368929D01*
X152215494Y-107228153D01*
X152168687Y-107167153D01*
X152122734Y-107107265D01*
X152001846Y-107014505D01*
X151861071Y-106956195D01*
X151710000Y-106936305D01*
X151558928Y-106956195D01*
X151418153Y-107014505D01*
X151297265Y-107107265D01*
X151204505Y-107228153D01*
X151146195Y-107368928D01*
X151126305Y-107520000D01*
X149057700Y-107520000D01*
X149057700Y-83891110D01*
X149075973Y-83826320D01*
X149125405Y-83780625D01*
X149191429Y-83767492D01*
X149254586Y-83790792D01*
X149296261Y-83843658D01*
X149324505Y-83911846D01*
X149417265Y-84032734D01*
X149458699Y-84064527D01*
X149538153Y-84125494D01*
X149678929Y-84183805D01*
X149830000Y-84203694D01*
X149981071Y-84183805D01*
X150029848Y-84163600D01*
X150089454Y-84154759D01*
X150146191Y-84175060D01*
X150186658Y-84219709D01*
X150201300Y-84278162D01*
X150201300Y-88684732D01*
X150200828Y-88695540D01*
X150197498Y-88733591D01*
X150207382Y-88770480D01*
X150209722Y-88781035D01*
X150216528Y-88819629D01*
X150226933Y-88844746D01*
X150227500Y-88845556D01*
X150227501Y-88845558D01*
X150241460Y-88865494D01*
X150249408Y-88876845D01*
X150255218Y-88885965D01*
X150274317Y-88919044D01*
X150297401Y-88938414D01*
X150303576Y-88943595D01*
X150311552Y-88950904D01*
X151926891Y-90566243D01*
X151956629Y-90614065D01*
X151962149Y-90670107D01*
X151956305Y-90714497D01*
X151976195Y-90865571D01*
X152034505Y-91006346D01*
X152127265Y-91127234D01*
X152167693Y-91158255D01*
X152248153Y-91219994D01*
X152388929Y-91278305D01*
X152540000Y-91298194D01*
X152691071Y-91278305D01*
X152831847Y-91219994D01*
X152952734Y-91127234D01*
X153045494Y-91006347D01*
X153103805Y-90865571D01*
X153123694Y-90714500D01*
X153103805Y-90563429D01*
X153045494Y-90422653D01*
X153040291Y-90415872D01*
X152952734Y-90301765D01*
X152831846Y-90209005D01*
X152691071Y-90150695D01*
X152539997Y-90130805D01*
X152495607Y-90136649D01*
X152439565Y-90131129D01*
X152391743Y-90101391D01*
X150895019Y-88604667D01*
X150868139Y-88564439D01*
X150858700Y-88516986D01*
X150858700Y-88360000D01*
X151816305Y-88360000D01*
X151836195Y-88511071D01*
X151894505Y-88651846D01*
X151987265Y-88772734D01*
X152082172Y-88845558D01*
X152108153Y-88865494D01*
X152248929Y-88923805D01*
X152400000Y-88943694D01*
X152450141Y-88937092D01*
X152490514Y-88938414D01*
X152528321Y-88952644D01*
X152547429Y-88963676D01*
X152556548Y-88969486D01*
X152588650Y-88991964D01*
X152613756Y-89002363D01*
X152614736Y-89002535D01*
X152614740Y-89002538D01*
X152652374Y-89009173D01*
X152662908Y-89011510D01*
X152699805Y-89021397D01*
X152699805Y-89021396D01*
X152699806Y-89021397D01*
X152737857Y-89018067D01*
X152748663Y-89017596D01*
X155710545Y-89017596D01*
X155777584Y-89037280D01*
X155823339Y-89090084D01*
X155833283Y-89159242D01*
X155811120Y-89313395D01*
X155831732Y-89456764D01*
X155891903Y-89588518D01*
X155986752Y-89697980D01*
X155986754Y-89697982D01*
X156108604Y-89776290D01*
X156172666Y-89795100D01*
X156247578Y-89817096D01*
X156247579Y-89817096D01*
X156392421Y-89817096D01*
X156392422Y-89817096D01*
X156438746Y-89803493D01*
X156531396Y-89776290D01*
X156653246Y-89697982D01*
X156748097Y-89588517D01*
X156808267Y-89456764D01*
X156825707Y-89335464D01*
X156845960Y-89283306D01*
X156887083Y-89245359D01*
X156940701Y-89229355D01*
X156995896Y-89238552D01*
X157030055Y-89252701D01*
X157181126Y-89272590D01*
X157332197Y-89252701D01*
X157472973Y-89194390D01*
X157593860Y-89101630D01*
X157686620Y-88980743D01*
X157744931Y-88839967D01*
X157755525Y-88759499D01*
X166866305Y-88759499D01*
X166886195Y-88910571D01*
X166944505Y-89051346D01*
X167037265Y-89172234D01*
X167111707Y-89229355D01*
X167158153Y-89264994D01*
X167298929Y-89323305D01*
X167450000Y-89343194D01*
X167601071Y-89323305D01*
X167741847Y-89264994D01*
X167862734Y-89172234D01*
X167955494Y-89051347D01*
X168013805Y-88910571D01*
X168033694Y-88759500D01*
X168013805Y-88608429D01*
X167955494Y-88467653D01*
X167901318Y-88397049D01*
X167862734Y-88346765D01*
X167741846Y-88254005D01*
X167601071Y-88195695D01*
X167450000Y-88175805D01*
X167298928Y-88195695D01*
X167158153Y-88254005D01*
X167037265Y-88346765D01*
X166944505Y-88467653D01*
X166886195Y-88608428D01*
X166866305Y-88759499D01*
X157755525Y-88759499D01*
X157764820Y-88688896D01*
X157744931Y-88537825D01*
X157686620Y-88397049D01*
X157658342Y-88360196D01*
X157646414Y-88344651D01*
X157623729Y-88296002D01*
X157623730Y-88242324D01*
X157646415Y-88193678D01*
X157655494Y-88181847D01*
X157713805Y-88041071D01*
X157733694Y-87890000D01*
X157713805Y-87738929D01*
X157655494Y-87598153D01*
X157638916Y-87576549D01*
X157616232Y-87527903D01*
X157616232Y-87474225D01*
X157638915Y-87425581D01*
X157695494Y-87351847D01*
X157753805Y-87211071D01*
X157773694Y-87060000D01*
X157753805Y-86908929D01*
X157695494Y-86768153D01*
X157670427Y-86735485D01*
X157647743Y-86686839D01*
X157647743Y-86633161D01*
X157670428Y-86584513D01*
X157670898Y-86583901D01*
X157695494Y-86551847D01*
X157753805Y-86411071D01*
X157773694Y-86260000D01*
X157753805Y-86108929D01*
X157695494Y-85968153D01*
X157695493Y-85968152D01*
X157602734Y-85847265D01*
X157481846Y-85754505D01*
X157341071Y-85696195D01*
X157190000Y-85676305D01*
X157038928Y-85696195D01*
X156898153Y-85754505D01*
X156777265Y-85847265D01*
X156684505Y-85968153D01*
X156626195Y-86108927D01*
X156622580Y-86136382D01*
X156610852Y-86175038D01*
X156587322Y-86207874D01*
X156271554Y-86523642D01*
X156263582Y-86530947D01*
X156234318Y-86555504D01*
X156215216Y-86588587D01*
X156209408Y-86597704D01*
X156186932Y-86629803D01*
X156176530Y-86654919D01*
X156175946Y-86658231D01*
X156153292Y-86710745D01*
X156109480Y-86747507D01*
X156053830Y-86760696D01*
X155405227Y-86760696D01*
X155350383Y-86747908D01*
X155306851Y-86712183D01*
X155305748Y-86710745D01*
X155279595Y-86676662D01*
X155279593Y-86676661D01*
X155279593Y-86676660D01*
X155158707Y-86583901D01*
X155017932Y-86525591D01*
X154866861Y-86505701D01*
X154715789Y-86525591D01*
X154575014Y-86583901D01*
X154454126Y-86676661D01*
X154361366Y-86797548D01*
X154303945Y-86936177D01*
X154264871Y-86987100D01*
X154205570Y-87011663D01*
X154141933Y-87003286D01*
X154075071Y-86975591D01*
X154075070Y-86975590D01*
X154075068Y-86975590D01*
X153924000Y-86955701D01*
X153772928Y-86975591D01*
X153632153Y-87033901D01*
X153511264Y-87126662D01*
X153503806Y-87136382D01*
X153460274Y-87172106D01*
X153405431Y-87184892D01*
X153350589Y-87172104D01*
X153310082Y-87138861D01*
X153186470Y-87044010D01*
X153045695Y-86985700D01*
X152894624Y-86965810D01*
X152743552Y-86985700D01*
X152602777Y-87044010D01*
X152481889Y-87136770D01*
X152389129Y-87257658D01*
X152330819Y-87398433D01*
X152310929Y-87549505D01*
X152326102Y-87664750D01*
X152321424Y-87718223D01*
X152294585Y-87764708D01*
X152250616Y-87795496D01*
X152108152Y-87854506D01*
X151987265Y-87947265D01*
X151894505Y-88068153D01*
X151836195Y-88208928D01*
X151816305Y-88360000D01*
X150858700Y-88360000D01*
X150858700Y-83349806D01*
X150859172Y-83338998D01*
X150862500Y-83300959D01*
X150852615Y-83264069D01*
X150850276Y-83253518D01*
X150843642Y-83215894D01*
X150843640Y-83215892D01*
X150843469Y-83214917D01*
X150833067Y-83189804D01*
X150832499Y-83188993D01*
X150832499Y-83188992D01*
X150810587Y-83157699D01*
X150804781Y-83148585D01*
X150785682Y-83115505D01*
X150756421Y-83090952D01*
X150748446Y-83083644D01*
X150104802Y-82440000D01*
X154766305Y-82440000D01*
X154786195Y-82591071D01*
X154844505Y-82731846D01*
X154937265Y-82852734D01*
X155007894Y-82906929D01*
X155058153Y-82945494D01*
X155198929Y-83003805D01*
X155350000Y-83023694D01*
X155501071Y-83003805D01*
X155641847Y-82945494D01*
X155762734Y-82852734D01*
X155855494Y-82731847D01*
X155913805Y-82591071D01*
X155933694Y-82440000D01*
X155913805Y-82288929D01*
X155855494Y-82148153D01*
X155762734Y-82027265D01*
X155641846Y-81934505D01*
X155501071Y-81876195D01*
X155350000Y-81856305D01*
X155198928Y-81876195D01*
X155058153Y-81934505D01*
X154937265Y-82027265D01*
X154844505Y-82148153D01*
X154786195Y-82288928D01*
X154766305Y-82440000D01*
X150104802Y-82440000D01*
X149878677Y-82213875D01*
X149871368Y-82205899D01*
X149846817Y-82176640D01*
X149813739Y-82157542D01*
X149804619Y-82151732D01*
X149773332Y-82129825D01*
X149773330Y-82129824D01*
X149772520Y-82129257D01*
X149747403Y-82118852D01*
X149708809Y-82112046D01*
X149698254Y-82109706D01*
X149661365Y-82099822D01*
X149623314Y-82103152D01*
X149612506Y-82103624D01*
X149366514Y-82103624D01*
X149319061Y-82094185D01*
X149278833Y-82067305D01*
X146195019Y-78983491D01*
X146168139Y-78943263D01*
X146158700Y-78895810D01*
X146158700Y-78669999D01*
X147756305Y-78669999D01*
X147776195Y-78821071D01*
X147834505Y-78961846D01*
X147927265Y-79082734D01*
X148029175Y-79160932D01*
X148048153Y-79175494D01*
X148188929Y-79233805D01*
X148340000Y-79253694D01*
X148491071Y-79233805D01*
X148631847Y-79175494D01*
X148752734Y-79082734D01*
X148845494Y-78961847D01*
X148903805Y-78821071D01*
X148923694Y-78670000D01*
X148903805Y-78518929D01*
X148845494Y-78378153D01*
X148793478Y-78310364D01*
X148752734Y-78257265D01*
X148631846Y-78164505D01*
X148491071Y-78106195D01*
X148340000Y-78086305D01*
X148188928Y-78106195D01*
X148048153Y-78164505D01*
X147927265Y-78257265D01*
X147834505Y-78378153D01*
X147776195Y-78518928D01*
X147756305Y-78669999D01*
X146158700Y-78669999D01*
X146158700Y-76174317D01*
X146159172Y-76163509D01*
X146162501Y-76125459D01*
X146152614Y-76088562D01*
X146150277Y-76078028D01*
X146143642Y-76040394D01*
X146143639Y-76040390D01*
X146143467Y-76039410D01*
X146133068Y-76014304D01*
X146110590Y-75982202D01*
X146104778Y-75973079D01*
X146085683Y-75940006D01*
X146056421Y-75915452D01*
X146048446Y-75908144D01*
X145621853Y-75481551D01*
X145614544Y-75473575D01*
X145589993Y-75444316D01*
X145556915Y-75425218D01*
X145547795Y-75419408D01*
X145525821Y-75404022D01*
X145516508Y-75397501D01*
X145516506Y-75397500D01*
X145515696Y-75396933D01*
X145490579Y-75386528D01*
X145451985Y-75379722D01*
X145441430Y-75377382D01*
X145404541Y-75367498D01*
X145366490Y-75370828D01*
X145355682Y-75371300D01*
X145206992Y-75371300D01*
X145159539Y-75361861D01*
X145119310Y-75334981D01*
X145092431Y-75294752D01*
X145065994Y-75230927D01*
X144973234Y-75110039D01*
X144852346Y-75017279D01*
X144711571Y-74958969D01*
X144560500Y-74939079D01*
X144409428Y-74958969D01*
X144268653Y-75017279D01*
X144147765Y-75110039D01*
X144055005Y-75230927D01*
X143996695Y-75371702D01*
X143976805Y-75522773D01*
X143996695Y-75673845D01*
X144055005Y-75814620D01*
X144147765Y-75935508D01*
X144250455Y-76014304D01*
X144268653Y-76028268D01*
X144409429Y-76086579D01*
X144419443Y-76087897D01*
X144472146Y-76107732D01*
X144510642Y-76148832D01*
X144526991Y-76202718D01*
X144522073Y-76232514D01*
X144523826Y-76232745D01*
X144501805Y-76400000D01*
X144521695Y-76551071D01*
X144580005Y-76691846D01*
X144672765Y-76812734D01*
X144793653Y-76905494D01*
X144838557Y-76924094D01*
X144878786Y-76950973D01*
X144905666Y-76991202D01*
X144915105Y-77038655D01*
X144915105Y-77116482D01*
X144909366Y-77153769D01*
X144899196Y-77174390D01*
X144897923Y-77179143D01*
X144886529Y-77206648D01*
X144881754Y-77233730D01*
X144860430Y-77284423D01*
X144819280Y-77320909D01*
X144766398Y-77336010D01*
X144712186Y-77326755D01*
X144651571Y-77301648D01*
X144500500Y-77281758D01*
X144349428Y-77301648D01*
X144208653Y-77359958D01*
X144087765Y-77452718D01*
X143995005Y-77573606D01*
X143936695Y-77714381D01*
X143916805Y-77865453D01*
X143936695Y-78016524D01*
X143995005Y-78157299D01*
X144087765Y-78278187D01*
X144152786Y-78328079D01*
X144188512Y-78371611D01*
X144201300Y-78426455D01*
X144201300Y-84209792D01*
X144186658Y-84268245D01*
X144146191Y-84312894D01*
X144089454Y-84333195D01*
X144029849Y-84324353D01*
X143981571Y-84304356D01*
X143963994Y-84302042D01*
X143830500Y-84284466D01*
X143679428Y-84304356D01*
X143538653Y-84362666D01*
X143417765Y-84455426D01*
X143325005Y-84576314D01*
X143266695Y-84717089D01*
X143246805Y-84868161D01*
X122827483Y-84868161D01*
X122827143Y-84112113D01*
X122843179Y-84051069D01*
X122887187Y-84005825D01*
X122947764Y-83988105D01*
X127650000Y-83860000D01*
X127644315Y-81650896D01*
X141364281Y-81650896D01*
X141384171Y-81801968D01*
X141442481Y-81942743D01*
X141535241Y-82063631D01*
X141645393Y-82148153D01*
X141656129Y-82156391D01*
X141796905Y-82214702D01*
X141947976Y-82234591D01*
X142099047Y-82214702D01*
X142239823Y-82156391D01*
X142360710Y-82063631D01*
X142453470Y-81942744D01*
X142511781Y-81801968D01*
X142531670Y-81650897D01*
X142511781Y-81499826D01*
X142453470Y-81359050D01*
X142360710Y-81238162D01*
X142318856Y-81206047D01*
X142279781Y-81155124D01*
X142271403Y-81091485D01*
X142295967Y-81032184D01*
X142346888Y-80993111D01*
X142461847Y-80945494D01*
X142582734Y-80852734D01*
X142675494Y-80731847D01*
X142733805Y-80591071D01*
X142753694Y-80440000D01*
X142747849Y-80395606D01*
X142753368Y-80339566D01*
X142783105Y-80291745D01*
X143128456Y-79946394D01*
X143136424Y-79939094D01*
X143141893Y-79934505D01*
X143165683Y-79914544D01*
X143184791Y-79881446D01*
X143190569Y-79872375D01*
X143212499Y-79841058D01*
X143212500Y-79841051D01*
X143213069Y-79840240D01*
X143223468Y-79815135D01*
X143223640Y-79814159D01*
X143223642Y-79814156D01*
X143230277Y-79776525D01*
X143232612Y-79765993D01*
X143242501Y-79729090D01*
X143239171Y-79691038D01*
X143238700Y-79680233D01*
X143238700Y-75657514D01*
X143248139Y-75610061D01*
X143275019Y-75569833D01*
X143509871Y-75334981D01*
X144226625Y-74618225D01*
X144252298Y-74598525D01*
X144274544Y-74585683D01*
X144299108Y-74556407D01*
X144306383Y-74548467D01*
X144479835Y-74375016D01*
X144520062Y-74348139D01*
X144567514Y-74338700D01*
X156481134Y-74338700D01*
X156535978Y-74351488D01*
X156579508Y-74387212D01*
X156606766Y-74422734D01*
X156727653Y-74515494D01*
X156868429Y-74573805D01*
X157019500Y-74593694D01*
X157170571Y-74573805D01*
X157311347Y-74515494D01*
X157432234Y-74422734D01*
X157524994Y-74301847D01*
X157583305Y-74161071D01*
X157603194Y-74010000D01*
X157583305Y-73858929D01*
X157573832Y-73836059D01*
X157565920Y-73769209D01*
X157594103Y-73708075D01*
X157650075Y-73670676D01*
X157717340Y-73668033D01*
X157776074Y-73700926D01*
X174150931Y-90075783D01*
X174180904Y-90124304D01*
X174185988Y-90181110D01*
X174168895Y-90299999D01*
X174189507Y-90443368D01*
X174249678Y-90575122D01*
X174331983Y-90670107D01*
X174344529Y-90684586D01*
X174466379Y-90762894D01*
X174535866Y-90783297D01*
X174605353Y-90803700D01*
X174605354Y-90803700D01*
X174750196Y-90803700D01*
X174750197Y-90803700D01*
X174796520Y-90790098D01*
X174889171Y-90762894D01*
X175011021Y-90684586D01*
X175105872Y-90575121D01*
X175166042Y-90443368D01*
X175186655Y-90300000D01*
X175166042Y-90156632D01*
X175160561Y-90144631D01*
X175105871Y-90024877D01*
X175011022Y-89915415D01*
X175011021Y-89915414D01*
X174889171Y-89837106D01*
X174852697Y-89826396D01*
X174799952Y-89795100D01*
X158096903Y-73092051D01*
X158089594Y-73084075D01*
X158065043Y-73054816D01*
X158031965Y-73035718D01*
X158022845Y-73029908D01*
X158006771Y-73018653D01*
X157991558Y-73008001D01*
X157991556Y-73008000D01*
X157990746Y-73007433D01*
X157965629Y-72997028D01*
X157927035Y-72990222D01*
X157916480Y-72987882D01*
X157879591Y-72977998D01*
X157841540Y-72981328D01*
X157830732Y-72981800D01*
X156158866Y-72981800D01*
X156104022Y-72969012D01*
X156060490Y-72933287D01*
X156033232Y-72897764D01*
X155912346Y-72805005D01*
X155771571Y-72746695D01*
X155620500Y-72726805D01*
X155469428Y-72746695D01*
X155328653Y-72805005D01*
X155207765Y-72897765D01*
X155115005Y-73018653D01*
X155056695Y-73159428D01*
X155036805Y-73310499D01*
X155047092Y-73388629D01*
X155056695Y-73461571D01*
X155076692Y-73509849D01*
X155085534Y-73569454D01*
X155065233Y-73626191D01*
X155020584Y-73666658D01*
X154962131Y-73681300D01*
X144399757Y-73681300D01*
X144388949Y-73680828D01*
X144350909Y-73677499D01*
X144314025Y-73687382D01*
X144303472Y-73689721D01*
X144264874Y-73696528D01*
X144239749Y-73706935D01*
X144207654Y-73729408D01*
X144198534Y-73735218D01*
X144165456Y-73754316D01*
X144140902Y-73783578D01*
X144133595Y-73791551D01*
X143883376Y-74041770D01*
X143857697Y-74061475D01*
X143835456Y-74074316D01*
X143810902Y-74103578D01*
X143803595Y-74111551D01*
X142691554Y-75223592D01*
X142683582Y-75230897D01*
X142654318Y-75255454D01*
X142635216Y-75288537D01*
X142629408Y-75297654D01*
X142606932Y-75329753D01*
X142596528Y-75354872D01*
X142589722Y-75393467D01*
X142587382Y-75404022D01*
X142577498Y-75440909D01*
X142580828Y-75478960D01*
X142581300Y-75489768D01*
X142581300Y-79512486D01*
X142571861Y-79559939D01*
X142544983Y-79600164D01*
X142373935Y-79771212D01*
X142318255Y-79826892D01*
X142270433Y-79856629D01*
X142214390Y-79862149D01*
X142170001Y-79856305D01*
X142018928Y-79876195D01*
X141878153Y-79934505D01*
X141757265Y-80027265D01*
X141664505Y-80148153D01*
X141606195Y-80288928D01*
X141586305Y-80440000D01*
X141606195Y-80591071D01*
X141664505Y-80731846D01*
X141757265Y-80852734D01*
X141799119Y-80884849D01*
X141838194Y-80935772D01*
X141846572Y-80999410D01*
X141822009Y-81058711D01*
X141771086Y-81097786D01*
X141656128Y-81145403D01*
X141535241Y-81238162D01*
X141442481Y-81359050D01*
X141384171Y-81499825D01*
X141364281Y-81650896D01*
X127644315Y-81650896D01*
X127632501Y-77060000D01*
X140311120Y-77060000D01*
X140331732Y-77203368D01*
X140391903Y-77335122D01*
X140465920Y-77420542D01*
X140486754Y-77444586D01*
X140608604Y-77522894D01*
X140678091Y-77543297D01*
X140747578Y-77563700D01*
X140747579Y-77563700D01*
X140892421Y-77563700D01*
X140892422Y-77563700D01*
X140938745Y-77550098D01*
X141031396Y-77522894D01*
X141153246Y-77444586D01*
X141248097Y-77335121D01*
X141308267Y-77203368D01*
X141328880Y-77060000D01*
X141308267Y-76916632D01*
X141303180Y-76905494D01*
X141248096Y-76784877D01*
X141178987Y-76705120D01*
X141156518Y-76667251D01*
X141148700Y-76623918D01*
X141148700Y-73476310D01*
X141158139Y-73428857D01*
X141185019Y-73388629D01*
X141846843Y-72726805D01*
X144773648Y-69799999D01*
X147801120Y-69799999D01*
X147821732Y-69943368D01*
X147881903Y-70075122D01*
X147921460Y-70120773D01*
X147976754Y-70184586D01*
X148098604Y-70262894D01*
X148168091Y-70283296D01*
X148237578Y-70303700D01*
X148237579Y-70303700D01*
X148382421Y-70303700D01*
X148382422Y-70303700D01*
X148428746Y-70290097D01*
X148521396Y-70262894D01*
X148643246Y-70184586D01*
X148738097Y-70075121D01*
X148798267Y-69943368D01*
X148818880Y-69800000D01*
X148798267Y-69656632D01*
X148738097Y-69524879D01*
X148738096Y-69524878D01*
X148738096Y-69524877D01*
X148643247Y-69415415D01*
X148643246Y-69415414D01*
X148521396Y-69337106D01*
X148521395Y-69337105D01*
X148521394Y-69337105D01*
X148382422Y-69296300D01*
X148382421Y-69296300D01*
X148237579Y-69296300D01*
X148237578Y-69296300D01*
X148098605Y-69337105D01*
X147976752Y-69415415D01*
X147881903Y-69524877D01*
X147821732Y-69656631D01*
X147801120Y-69799999D01*
X144773648Y-69799999D01*
X145868648Y-68704999D01*
X202239999Y-68704999D01*
X202260512Y-68858840D01*
X202261600Y-68875228D01*
X202261600Y-70118763D01*
X202267484Y-70127558D01*
X202276976Y-70174862D01*
X202277634Y-70470284D01*
X205487634Y-70520284D01*
X205464800Y-70330000D01*
X209607536Y-70330000D01*
X209628142Y-70539225D01*
X209628143Y-70539227D01*
X209689172Y-70740414D01*
X209788279Y-70925829D01*
X209840392Y-70989330D01*
X209921652Y-71088347D01*
X210002911Y-71155033D01*
X210084171Y-71221721D01*
X210269586Y-71320828D01*
X210470773Y-71381857D01*
X210680000Y-71402464D01*
X210889227Y-71381857D01*
X211090414Y-71320828D01*
X211275829Y-71221721D01*
X211438347Y-71088347D01*
X211571721Y-70925829D01*
X211670828Y-70740414D01*
X211731857Y-70539227D01*
X211752464Y-70330000D01*
X212147536Y-70330000D01*
X212168142Y-70539225D01*
X212168143Y-70539227D01*
X212229172Y-70740414D01*
X212328279Y-70925829D01*
X212380392Y-70989330D01*
X212461652Y-71088347D01*
X212542911Y-71155033D01*
X212624171Y-71221721D01*
X212809586Y-71320828D01*
X213010773Y-71381857D01*
X213220000Y-71402464D01*
X213429227Y-71381857D01*
X213630414Y-71320828D01*
X213815829Y-71221721D01*
X213978347Y-71088347D01*
X214111721Y-70925829D01*
X214210828Y-70740414D01*
X214271857Y-70539227D01*
X214292464Y-70330000D01*
X214271857Y-70120773D01*
X214210828Y-69919586D01*
X214111721Y-69734171D01*
X214045034Y-69652912D01*
X213978347Y-69571652D01*
X213879330Y-69490392D01*
X213815829Y-69438279D01*
X213630414Y-69339172D01*
X213529820Y-69308657D01*
X213429225Y-69278142D01*
X213220000Y-69257536D01*
X213010774Y-69278142D01*
X212809583Y-69339173D01*
X212624172Y-69438278D01*
X212461652Y-69571652D01*
X212328278Y-69734172D01*
X212229173Y-69919583D01*
X212168142Y-70120774D01*
X212147536Y-70330000D01*
X211752464Y-70330000D01*
X211731857Y-70120773D01*
X211670828Y-69919586D01*
X211571721Y-69734171D01*
X211505034Y-69652912D01*
X211438347Y-69571652D01*
X211339330Y-69490392D01*
X211275829Y-69438279D01*
X211090414Y-69339172D01*
X210989820Y-69308657D01*
X210889225Y-69278142D01*
X210680000Y-69257536D01*
X210470774Y-69278142D01*
X210269583Y-69339173D01*
X210084172Y-69438278D01*
X209921652Y-69571652D01*
X209788278Y-69734172D01*
X209689173Y-69919583D01*
X209628142Y-70120774D01*
X209607536Y-70330000D01*
X205464800Y-70330000D01*
X205160000Y-67789999D01*
X209607536Y-67789999D01*
X209628142Y-67999225D01*
X209628143Y-67999227D01*
X209689172Y-68200414D01*
X209788279Y-68385829D01*
X209840393Y-68449330D01*
X209921652Y-68548347D01*
X210002912Y-68615034D01*
X210084171Y-68681721D01*
X210269586Y-68780828D01*
X210470773Y-68841857D01*
X210680000Y-68862464D01*
X210889227Y-68841857D01*
X211090414Y-68780828D01*
X211275829Y-68681721D01*
X211438347Y-68548347D01*
X211571721Y-68385829D01*
X211670828Y-68200414D01*
X211731857Y-67999227D01*
X211752464Y-67790000D01*
X211731857Y-67580773D01*
X211670828Y-67379586D01*
X211571721Y-67194171D01*
X211448944Y-67044565D01*
X211438347Y-67031652D01*
X211330649Y-66943268D01*
X211275829Y-66898279D01*
X211100391Y-66804505D01*
X211090416Y-66799173D01*
X211090415Y-66799172D01*
X211090414Y-66799172D01*
X210967752Y-66761963D01*
X210889225Y-66738142D01*
X210680000Y-66717536D01*
X210470774Y-66738142D01*
X210269583Y-66799173D01*
X210084172Y-66898278D01*
X209921652Y-67031652D01*
X209788278Y-67194172D01*
X209689173Y-67379583D01*
X209628142Y-67580774D01*
X209607536Y-67789999D01*
X205160000Y-67789999D01*
X205037634Y-66770284D01*
X204827634Y-66490284D01*
X204775634Y-66490284D01*
X204736422Y-66483921D01*
X204701234Y-66465484D01*
X204667633Y-66440283D01*
X203529510Y-66133665D01*
X209612700Y-66133665D01*
X209624518Y-66193078D01*
X209624518Y-66193079D01*
X209624519Y-66193080D01*
X209669540Y-66260460D01*
X209736920Y-66305481D01*
X209766628Y-66311390D01*
X209796335Y-66317300D01*
X209796336Y-66317300D01*
X211563664Y-66317300D01*
X211563665Y-66317300D01*
X211583469Y-66313360D01*
X211623080Y-66305481D01*
X211690460Y-66260460D01*
X211735481Y-66193080D01*
X211747300Y-66133664D01*
X211747300Y-65878577D01*
X211765306Y-65814225D01*
X211814094Y-65768561D01*
X211879495Y-65754848D01*
X211942517Y-65777068D01*
X211984856Y-65828767D01*
X212016638Y-65901223D01*
X212140241Y-66090411D01*
X212293293Y-66256671D01*
X212471624Y-66395470D01*
X212670375Y-66503029D01*
X212830779Y-66558096D01*
X212882350Y-66592056D01*
X212911149Y-66646678D01*
X212910033Y-66708417D01*
X212879279Y-66761963D01*
X212826514Y-66794037D01*
X212809585Y-66799172D01*
X212624172Y-66898278D01*
X212461652Y-67031652D01*
X212328278Y-67194172D01*
X212229173Y-67379583D01*
X212168142Y-67580774D01*
X212147536Y-67789999D01*
X212168142Y-67999225D01*
X212168143Y-67999227D01*
X212229172Y-68200414D01*
X212328279Y-68385829D01*
X212380393Y-68449330D01*
X212461652Y-68548347D01*
X212542912Y-68615034D01*
X212624171Y-68681721D01*
X212809586Y-68780828D01*
X213010773Y-68841857D01*
X213220000Y-68862464D01*
X213429227Y-68841857D01*
X213630414Y-68780828D01*
X213815829Y-68681721D01*
X213978347Y-68548347D01*
X214111721Y-68385829D01*
X214210828Y-68200414D01*
X214271857Y-67999227D01*
X214292464Y-67790000D01*
X214271857Y-67580773D01*
X214210828Y-67379586D01*
X214111721Y-67194171D01*
X213988944Y-67044565D01*
X213978347Y-67031652D01*
X213870649Y-66943268D01*
X213815829Y-66898279D01*
X213630414Y-66799172D01*
X213613485Y-66794036D01*
X213560720Y-66761963D01*
X213529966Y-66708418D01*
X213528850Y-66646678D01*
X213557649Y-66592056D01*
X213609221Y-66558096D01*
X213769623Y-66503030D01*
X213968375Y-66395470D01*
X214146706Y-66256671D01*
X214299758Y-66090411D01*
X214423361Y-65901223D01*
X214514134Y-65694280D01*
X214563334Y-65500000D01*
X213094000Y-65500000D01*
X213032000Y-65483387D01*
X212986613Y-65438000D01*
X212970000Y-65376000D01*
X212970000Y-63909264D01*
X212969999Y-63909263D01*
X213470000Y-63909263D01*
X213470000Y-65000000D01*
X214563334Y-65000000D01*
X214514134Y-64805719D01*
X214423361Y-64598776D01*
X214299758Y-64409588D01*
X214146706Y-64243328D01*
X213968375Y-64104529D01*
X213769624Y-63996970D01*
X213555894Y-63923596D01*
X213470000Y-63909263D01*
X212969999Y-63909263D01*
X212884105Y-63923596D01*
X212670375Y-63996970D01*
X212471624Y-64104529D01*
X212293293Y-64243328D01*
X212140241Y-64409588D01*
X212016638Y-64598776D01*
X211984856Y-64671233D01*
X211942517Y-64722932D01*
X211879495Y-64745152D01*
X211814094Y-64731439D01*
X211765306Y-64685775D01*
X211747300Y-64621423D01*
X211747300Y-64366335D01*
X211741390Y-64336627D01*
X211735481Y-64306920D01*
X211690460Y-64239540D01*
X211623080Y-64194519D01*
X211623079Y-64194518D01*
X211623078Y-64194518D01*
X211563665Y-64182700D01*
X211563664Y-64182700D01*
X209796336Y-64182700D01*
X209796335Y-64182700D01*
X209736921Y-64194518D01*
X209669540Y-64239540D01*
X209624518Y-64306921D01*
X209612700Y-64366335D01*
X209612700Y-66133665D01*
X203529510Y-66133665D01*
X202477635Y-65850283D01*
X202267634Y-65980283D01*
X202267633Y-65980283D01*
X202271486Y-67710075D01*
X202262101Y-67757673D01*
X202261600Y-67758424D01*
X202261600Y-68591065D01*
X202258847Y-68617047D01*
X202239999Y-68704999D01*
X145868648Y-68704999D01*
X147263646Y-67310000D01*
X148768305Y-67310000D01*
X148788195Y-67461071D01*
X148846505Y-67601846D01*
X148939265Y-67722734D01*
X149047121Y-67805494D01*
X149060153Y-67815494D01*
X149200929Y-67873805D01*
X149332109Y-67891075D01*
X149351999Y-67893694D01*
X149351999Y-67893693D01*
X149352000Y-67893694D01*
X149503071Y-67873805D01*
X149643847Y-67815494D01*
X149764734Y-67722734D01*
X149791991Y-67687212D01*
X149835522Y-67651488D01*
X149890366Y-67638700D01*
X149900233Y-67638700D01*
X149911038Y-67639171D01*
X149928368Y-67640688D01*
X149949089Y-67642501D01*
X149949089Y-67642500D01*
X149949090Y-67642501D01*
X149985993Y-67632612D01*
X149996525Y-67630277D01*
X150034156Y-67623642D01*
X150034159Y-67623640D01*
X150035135Y-67623468D01*
X150060240Y-67613069D01*
X150061051Y-67612500D01*
X150061058Y-67612499D01*
X150092375Y-67590569D01*
X150101446Y-67584791D01*
X150134544Y-67565683D01*
X150159108Y-67536407D01*
X150166396Y-67528454D01*
X154192018Y-63502832D01*
X154232243Y-63475955D01*
X154279696Y-63466516D01*
X154327148Y-63475955D01*
X154344034Y-63482949D01*
X154350929Y-63485805D01*
X154477777Y-63502505D01*
X154501999Y-63505694D01*
X154501999Y-63505693D01*
X154502000Y-63505694D01*
X154653071Y-63485805D01*
X154659967Y-63482948D01*
X154717146Y-63473891D01*
X154772207Y-63491780D01*
X154813145Y-63532717D01*
X154831037Y-63587777D01*
X154821981Y-63644959D01*
X154816195Y-63658927D01*
X154796305Y-63810001D01*
X154802149Y-63854390D01*
X154796629Y-63910433D01*
X154766891Y-63958255D01*
X152807721Y-65917425D01*
X152759899Y-65947163D01*
X152703856Y-65952683D01*
X152659467Y-65946839D01*
X152508394Y-65966729D01*
X152367619Y-66025039D01*
X152246731Y-66117799D01*
X152153971Y-66238687D01*
X152095661Y-66379462D01*
X152075771Y-66530534D01*
X152095661Y-66681605D01*
X152153971Y-66822380D01*
X152246731Y-66943268D01*
X152344324Y-67018153D01*
X152367619Y-67036028D01*
X152508395Y-67094339D01*
X152659466Y-67114228D01*
X152810537Y-67094339D01*
X152951313Y-67036028D01*
X153072200Y-66943268D01*
X153164960Y-66822381D01*
X153223271Y-66681605D01*
X153243160Y-66530534D01*
X153237315Y-66486140D01*
X153242834Y-66430100D01*
X153272571Y-66382279D01*
X155231745Y-64423105D01*
X155279566Y-64393368D01*
X155335606Y-64387849D01*
X155380000Y-64393694D01*
X155531071Y-64373805D01*
X155671847Y-64315494D01*
X155792734Y-64222734D01*
X155885494Y-64101847D01*
X155943805Y-63961071D01*
X155963694Y-63810000D01*
X155943805Y-63658929D01*
X155885494Y-63518153D01*
X155863589Y-63489606D01*
X155792734Y-63397265D01*
X155671846Y-63304505D01*
X155531071Y-63246195D01*
X155379999Y-63226305D01*
X155228927Y-63246195D01*
X155222028Y-63249053D01*
X155164847Y-63258107D01*
X155109787Y-63240215D01*
X155068851Y-63199277D01*
X155050962Y-63144216D01*
X155060019Y-63087038D01*
X155065805Y-63073071D01*
X155085694Y-62922000D01*
X155065805Y-62770929D01*
X155017786Y-62655001D01*
X202040000Y-62655001D01*
X202070512Y-62883840D01*
X202071600Y-62900228D01*
X202071600Y-64038400D01*
X202173549Y-64038400D01*
X202235469Y-64054967D01*
X202280844Y-64100241D01*
X202297548Y-64162123D01*
X202297634Y-64200284D01*
X205507634Y-64250284D01*
X205393600Y-63299999D01*
X210076305Y-63299999D01*
X210096195Y-63451071D01*
X210154505Y-63591846D01*
X210247265Y-63712734D01*
X210273678Y-63733001D01*
X210368153Y-63805494D01*
X210508929Y-63863805D01*
X210640109Y-63881075D01*
X210659999Y-63883694D01*
X210659999Y-63883693D01*
X210660000Y-63883694D01*
X210811071Y-63863805D01*
X210951847Y-63805494D01*
X211072734Y-63712734D01*
X211165494Y-63591847D01*
X211223805Y-63451071D01*
X211243694Y-63300000D01*
X211223805Y-63148929D01*
X211165494Y-63008153D01*
X211072734Y-62887265D01*
X210951846Y-62794505D01*
X210811071Y-62736195D01*
X210660000Y-62716305D01*
X210508928Y-62736195D01*
X210368153Y-62794505D01*
X210247265Y-62887265D01*
X210154505Y-63008153D01*
X210096195Y-63148928D01*
X210076305Y-63299999D01*
X205393600Y-63299999D01*
X205057634Y-60500284D01*
X204847634Y-60220284D01*
X204795634Y-60220284D01*
X204756422Y-60213921D01*
X204721234Y-60195484D01*
X204687633Y-60170283D01*
X202497635Y-59580283D01*
X202287634Y-59710283D01*
X202287633Y-59710283D01*
X202291792Y-61577324D01*
X202275271Y-61639440D01*
X202229872Y-61684941D01*
X202167792Y-61701600D01*
X202071600Y-61701600D01*
X202071600Y-62494394D01*
X202068848Y-62520375D01*
X202040000Y-62655001D01*
X155017786Y-62655001D01*
X155007494Y-62630153D01*
X154914734Y-62509265D01*
X154793846Y-62416505D01*
X154653071Y-62358195D01*
X154502000Y-62338305D01*
X154350928Y-62358195D01*
X154210153Y-62416505D01*
X154089265Y-62509265D01*
X153996505Y-62630153D01*
X153938195Y-62770927D01*
X153935194Y-62793718D01*
X153923466Y-62832375D01*
X153899936Y-62865210D01*
X149899991Y-66865155D01*
X149849597Y-66895735D01*
X149790777Y-66899590D01*
X149736825Y-66875851D01*
X149643847Y-66804506D01*
X149643846Y-66804505D01*
X149643844Y-66804504D01*
X149503071Y-66746195D01*
X149352000Y-66726305D01*
X149200928Y-66746195D01*
X149060153Y-66804505D01*
X148939265Y-66897265D01*
X148846505Y-67018153D01*
X148788195Y-67158928D01*
X148768305Y-67310000D01*
X147263646Y-67310000D01*
X148616456Y-65957190D01*
X148624410Y-65949901D01*
X148653683Y-65925340D01*
X148672785Y-65892252D01*
X148678581Y-65883154D01*
X148700499Y-65851854D01*
X148700499Y-65851852D01*
X148701069Y-65851039D01*
X148711467Y-65825935D01*
X148711639Y-65824956D01*
X148711642Y-65824952D01*
X148718278Y-65787313D01*
X148720615Y-65776777D01*
X148730500Y-65739886D01*
X148727172Y-65701844D01*
X148726700Y-65691037D01*
X148726700Y-64666162D01*
X148741342Y-64607709D01*
X148781809Y-64563060D01*
X148838546Y-64542759D01*
X148898151Y-64551600D01*
X148946929Y-64571805D01*
X149098000Y-64591694D01*
X149249071Y-64571805D01*
X149389847Y-64513494D01*
X149510734Y-64420734D01*
X149603494Y-64299847D01*
X149661805Y-64159071D01*
X149681694Y-64008000D01*
X149661805Y-63856929D01*
X149603494Y-63716153D01*
X149580010Y-63685548D01*
X149510734Y-63595265D01*
X149389846Y-63502505D01*
X149249071Y-63444195D01*
X149174621Y-63434393D01*
X149112142Y-63407307D01*
X149073388Y-63351312D01*
X149070047Y-63283296D01*
X149103125Y-63223775D01*
X151620901Y-60705999D01*
X158166305Y-60705999D01*
X158186195Y-60857071D01*
X158244505Y-60997846D01*
X158337265Y-61118734D01*
X158439401Y-61197105D01*
X158458153Y-61211494D01*
X158598929Y-61269805D01*
X158750000Y-61289694D01*
X158901071Y-61269805D01*
X159041847Y-61211494D01*
X159162734Y-61118734D01*
X159255494Y-60997847D01*
X159313805Y-60857071D01*
X159333694Y-60706000D01*
X159313805Y-60554929D01*
X159255494Y-60414153D01*
X159252513Y-60410268D01*
X159162734Y-60293265D01*
X159041846Y-60200505D01*
X158901071Y-60142195D01*
X158750000Y-60122305D01*
X158598928Y-60142195D01*
X158458153Y-60200505D01*
X158337265Y-60293265D01*
X158244505Y-60414153D01*
X158186195Y-60554928D01*
X158166305Y-60705999D01*
X151620901Y-60705999D01*
X154718501Y-57608400D01*
X202101600Y-57608400D01*
X202203527Y-57608400D01*
X202265447Y-57624967D01*
X202310822Y-57670241D01*
X202327526Y-57732122D01*
X202327634Y-57780284D01*
X205537634Y-57830284D01*
X205469200Y-57259999D01*
X211521120Y-57259999D01*
X211541732Y-57403368D01*
X211601903Y-57535122D01*
X211679754Y-57624967D01*
X211696754Y-57644586D01*
X211818604Y-57722894D01*
X211888091Y-57743297D01*
X211957578Y-57763700D01*
X211957579Y-57763700D01*
X212102421Y-57763700D01*
X212102422Y-57763700D01*
X212148745Y-57750098D01*
X212241396Y-57722894D01*
X212363246Y-57644586D01*
X212458097Y-57535121D01*
X212518267Y-57403368D01*
X212538880Y-57260000D01*
X212518267Y-57116632D01*
X212502611Y-57082351D01*
X212463535Y-56996787D01*
X212458097Y-56984879D01*
X212458096Y-56984878D01*
X212458096Y-56984877D01*
X212363247Y-56875415D01*
X212363246Y-56875414D01*
X212241396Y-56797106D01*
X212241395Y-56797105D01*
X212241394Y-56797105D01*
X212102422Y-56756300D01*
X212102421Y-56756300D01*
X211957579Y-56756300D01*
X211957578Y-56756300D01*
X211818605Y-56797105D01*
X211696752Y-56875415D01*
X211601903Y-56984877D01*
X211541732Y-57116631D01*
X211521120Y-57259999D01*
X205469200Y-57259999D01*
X205087634Y-54080284D01*
X204877634Y-53800284D01*
X204825634Y-53800284D01*
X204786422Y-53793921D01*
X204751234Y-53775484D01*
X204717633Y-53750283D01*
X202527635Y-53160283D01*
X202317634Y-53290283D01*
X202317633Y-53290283D01*
X202321770Y-55147324D01*
X202305249Y-55209440D01*
X202259850Y-55254941D01*
X202197770Y-55271600D01*
X202101600Y-55271600D01*
X202101600Y-57608400D01*
X154718501Y-57608400D01*
X156905882Y-55421019D01*
X156946111Y-55394139D01*
X156993564Y-55384700D01*
X159368733Y-55384700D01*
X159379538Y-55385171D01*
X159399413Y-55386910D01*
X159417589Y-55388501D01*
X159417589Y-55388500D01*
X159417590Y-55388501D01*
X159454493Y-55378612D01*
X159465025Y-55376277D01*
X159502656Y-55369642D01*
X159502659Y-55369640D01*
X159503635Y-55369468D01*
X159528740Y-55359069D01*
X159529551Y-55358500D01*
X159529558Y-55358499D01*
X159560875Y-55336569D01*
X159569946Y-55330791D01*
X159603044Y-55311683D01*
X159627608Y-55282407D01*
X159634896Y-55274454D01*
X161869350Y-53040000D01*
X167121120Y-53040000D01*
X167141732Y-53183368D01*
X167201903Y-53315122D01*
X167238947Y-53357873D01*
X167296754Y-53424586D01*
X167418604Y-53502894D01*
X167488091Y-53523296D01*
X167557578Y-53543700D01*
X167557579Y-53543700D01*
X167702421Y-53543700D01*
X167702422Y-53543700D01*
X167748746Y-53530097D01*
X167841396Y-53502894D01*
X167963246Y-53424586D01*
X168058097Y-53315121D01*
X168118267Y-53183368D01*
X168138880Y-53040000D01*
X168118267Y-52896632D01*
X168058097Y-52764879D01*
X168058096Y-52764878D01*
X168058096Y-52764877D01*
X167963247Y-52655415D01*
X167963246Y-52655414D01*
X167841396Y-52577106D01*
X167841395Y-52577105D01*
X167841394Y-52577105D01*
X167702422Y-52536300D01*
X167702421Y-52536300D01*
X167557579Y-52536300D01*
X167557578Y-52536300D01*
X167418605Y-52577105D01*
X167296752Y-52655415D01*
X167201903Y-52764877D01*
X167141732Y-52896631D01*
X167121120Y-53040000D01*
X161869350Y-53040000D01*
X165399351Y-49510000D01*
X211161252Y-49510000D01*
X211181428Y-49869267D01*
X211241700Y-50224009D01*
X211253682Y-50265598D01*
X211341316Y-50569782D01*
X211479018Y-50902224D01*
X211653075Y-51217157D01*
X211770591Y-51382780D01*
X211861303Y-51510627D01*
X211974619Y-51637426D01*
X212101073Y-51778927D01*
X212181622Y-51850910D01*
X212369372Y-52018696D01*
X212369378Y-52018700D01*
X212662843Y-52226925D01*
X212977776Y-52400982D01*
X213310218Y-52538684D01*
X213655986Y-52638298D01*
X213655987Y-52638298D01*
X213655990Y-52638299D01*
X213771893Y-52657991D01*
X214010734Y-52698572D01*
X214370000Y-52718748D01*
X214729266Y-52698572D01*
X215029573Y-52647547D01*
X215084009Y-52638299D01*
X215084010Y-52638298D01*
X215084014Y-52638298D01*
X215429782Y-52538684D01*
X215762224Y-52400982D01*
X216077157Y-52226925D01*
X216370622Y-52018700D01*
X216370624Y-52018697D01*
X216370627Y-52018696D01*
X216423821Y-51971158D01*
X216638927Y-51778927D01*
X216851538Y-51541016D01*
X216878696Y-51510627D01*
X216890078Y-51494586D01*
X217086925Y-51217157D01*
X217260982Y-50902224D01*
X217398684Y-50569782D01*
X217498298Y-50224014D01*
X217558572Y-49869266D01*
X217578748Y-49510000D01*
X217558572Y-49150734D01*
X217498298Y-48795986D01*
X217398684Y-48450218D01*
X217260982Y-48117776D01*
X217086925Y-47802843D01*
X216921300Y-47569417D01*
X216878696Y-47509372D01*
X216690248Y-47298501D01*
X216638927Y-47241073D01*
X216453794Y-47075627D01*
X216370627Y-47001303D01*
X216129151Y-46829967D01*
X216077157Y-46793075D01*
X215762224Y-46619018D01*
X215429782Y-46481316D01*
X215231844Y-46424291D01*
X215084009Y-46381700D01*
X214729267Y-46321428D01*
X214370000Y-46301252D01*
X214010732Y-46321428D01*
X213655990Y-46381700D01*
X213310215Y-46481317D01*
X212977777Y-46619017D01*
X212662843Y-46793075D01*
X212369372Y-47001303D01*
X212101073Y-47241073D01*
X211861303Y-47509372D01*
X211653075Y-47802843D01*
X211479017Y-48117777D01*
X211341317Y-48450215D01*
X211241700Y-48795990D01*
X211181428Y-49150732D01*
X211161252Y-49510000D01*
X165399351Y-49510000D01*
X166874332Y-48035019D01*
X166914561Y-48008139D01*
X166962014Y-47998700D01*
X167211700Y-47998700D01*
X167263213Y-48009906D01*
X167305412Y-48041497D01*
X167316752Y-48054584D01*
X167316755Y-48054587D01*
X167360296Y-48082569D01*
X167438604Y-48132894D01*
X167508091Y-48153296D01*
X167577578Y-48173700D01*
X167577579Y-48173700D01*
X167722421Y-48173700D01*
X167722422Y-48173700D01*
X167768745Y-48160098D01*
X167861396Y-48132894D01*
X167983246Y-48054586D01*
X168078097Y-47945121D01*
X168138267Y-47813368D01*
X168158880Y-47670000D01*
X168138267Y-47526632D01*
X168130387Y-47509378D01*
X168078096Y-47394877D01*
X167983247Y-47285415D01*
X167983246Y-47285414D01*
X167861396Y-47207106D01*
X167861395Y-47207105D01*
X167861394Y-47207105D01*
X167722422Y-47166300D01*
X167722421Y-47166300D01*
X167577579Y-47166300D01*
X167577578Y-47166300D01*
X167438605Y-47207105D01*
X167316755Y-47285412D01*
X167311451Y-47291533D01*
X167305412Y-47298502D01*
X167263213Y-47330094D01*
X167211700Y-47341300D01*
X166794257Y-47341300D01*
X166783449Y-47340828D01*
X166745409Y-47337499D01*
X166708525Y-47347382D01*
X166697972Y-47349721D01*
X166659374Y-47356528D01*
X166634249Y-47366935D01*
X166602154Y-47389408D01*
X166593034Y-47395218D01*
X166559956Y-47414316D01*
X166535402Y-47443578D01*
X166528095Y-47451551D01*
X159288667Y-54690981D01*
X159248439Y-54717861D01*
X159200986Y-54727300D01*
X158646162Y-54727300D01*
X158587709Y-54712658D01*
X158543060Y-54672191D01*
X158522759Y-54615454D01*
X158531601Y-54555848D01*
X158536223Y-54544689D01*
X158551805Y-54507071D01*
X158571694Y-54356000D01*
X158551805Y-54204929D01*
X158493494Y-54064153D01*
X158493493Y-54064152D01*
X158400734Y-53943265D01*
X158279846Y-53850505D01*
X158139071Y-53792195D01*
X157987999Y-53772305D01*
X157836928Y-53792195D01*
X157696153Y-53850505D01*
X157575265Y-53943265D01*
X157482505Y-54064153D01*
X157424195Y-54204928D01*
X157404305Y-54355999D01*
X157424195Y-54507071D01*
X157444399Y-54555848D01*
X157453241Y-54615454D01*
X157432940Y-54672191D01*
X157388291Y-54712658D01*
X157329838Y-54727300D01*
X156825807Y-54727300D01*
X156814999Y-54726828D01*
X156776959Y-54723499D01*
X156740075Y-54733382D01*
X156729522Y-54735721D01*
X156690924Y-54742528D01*
X156665799Y-54752935D01*
X156633704Y-54775408D01*
X156624584Y-54781218D01*
X156591506Y-54800316D01*
X156566952Y-54829578D01*
X156559645Y-54837551D01*
X148179554Y-63217642D01*
X148171582Y-63224947D01*
X148142318Y-63249504D01*
X148123216Y-63282587D01*
X148117408Y-63291704D01*
X148094932Y-63323803D01*
X148084528Y-63348922D01*
X148077722Y-63387517D01*
X148075382Y-63398072D01*
X148065498Y-63434959D01*
X148068828Y-63473010D01*
X148069300Y-63483818D01*
X148069300Y-65523282D01*
X148059861Y-65570735D01*
X148032981Y-65610963D01*
X140601554Y-73042388D01*
X140593582Y-73049693D01*
X140564318Y-73074250D01*
X140545216Y-73107333D01*
X140539408Y-73116450D01*
X140516932Y-73148549D01*
X140506528Y-73173668D01*
X140499722Y-73212263D01*
X140497382Y-73222818D01*
X140487498Y-73259705D01*
X140490828Y-73297756D01*
X140491300Y-73308564D01*
X140491300Y-76623918D01*
X140483482Y-76667251D01*
X140461013Y-76705120D01*
X140391903Y-76784877D01*
X140331732Y-76916631D01*
X140311120Y-77060000D01*
X127632501Y-77060000D01*
X127600000Y-64430000D01*
X122942232Y-64430000D01*
X122880248Y-64413396D01*
X122834863Y-64368032D01*
X122818232Y-64306056D01*
X122818195Y-64222734D01*
X122816002Y-59350269D01*
X122829497Y-59293961D01*
X122867090Y-59249918D01*
X122920582Y-59227746D01*
X122978309Y-59232282D01*
X123027683Y-59262535D01*
X128265354Y-64500206D01*
X128272662Y-64508181D01*
X128297215Y-64537442D01*
X128306425Y-64542759D01*
X128330294Y-64556540D01*
X128339408Y-64562346D01*
X128370701Y-64584258D01*
X128370702Y-64584258D01*
X128371513Y-64584826D01*
X128396626Y-64595228D01*
X128397601Y-64595399D01*
X128397603Y-64595401D01*
X128435222Y-64602034D01*
X128445777Y-64604374D01*
X128482668Y-64614259D01*
X128482668Y-64614258D01*
X128482669Y-64614259D01*
X128520712Y-64610930D01*
X128531518Y-64610459D01*
X129124245Y-64610459D01*
X129171698Y-64619898D01*
X129211926Y-64646778D01*
X131561891Y-66996743D01*
X131591629Y-67044565D01*
X131597149Y-67100607D01*
X131591305Y-67144997D01*
X131611195Y-67296071D01*
X131669505Y-67436846D01*
X131762265Y-67557734D01*
X131872736Y-67642501D01*
X131883153Y-67650494D01*
X132023929Y-67708805D01*
X132175000Y-67728694D01*
X132326071Y-67708805D01*
X132466847Y-67650494D01*
X132587734Y-67557734D01*
X132680494Y-67436847D01*
X132738805Y-67296071D01*
X132756290Y-67163257D01*
X132783376Y-67100778D01*
X132839371Y-67062024D01*
X132907386Y-67058682D01*
X132966910Y-67091762D01*
X133393595Y-67518447D01*
X133400903Y-67526422D01*
X133425456Y-67555683D01*
X133458529Y-67574778D01*
X133467652Y-67580590D01*
X133499752Y-67603067D01*
X133524861Y-67613467D01*
X133525839Y-67613639D01*
X133525844Y-67613642D01*
X133563483Y-67620278D01*
X133574000Y-67622610D01*
X133610911Y-67632501D01*
X133610911Y-67632500D01*
X133610912Y-67632501D01*
X133622673Y-67631471D01*
X133631966Y-67630659D01*
X133692714Y-67640688D01*
X133741149Y-67678699D01*
X133764250Y-67708804D01*
X133767266Y-67712734D01*
X133888153Y-67805494D01*
X134028929Y-67863805D01*
X134180000Y-67883694D01*
X134331071Y-67863805D01*
X134471847Y-67805494D01*
X134592734Y-67712734D01*
X134685494Y-67591847D01*
X134743805Y-67451071D01*
X134763694Y-67300000D01*
X134743805Y-67148929D01*
X134685494Y-67008153D01*
X134601185Y-66898279D01*
X134592734Y-66887265D01*
X134471846Y-66794505D01*
X134331071Y-66736195D01*
X134180000Y-66716305D01*
X134028928Y-66736195D01*
X133888152Y-66794505D01*
X133811017Y-66853693D01*
X133757063Y-66877433D01*
X133698243Y-66873578D01*
X133647850Y-66842998D01*
X130570456Y-63765604D01*
X130543576Y-63725376D01*
X130534137Y-63677923D01*
X130534137Y-63565252D01*
X130534609Y-63554443D01*
X130537938Y-63516396D01*
X130528051Y-63479499D01*
X130525714Y-63468965D01*
X130519079Y-63431331D01*
X130519076Y-63431327D01*
X130518904Y-63430347D01*
X130508505Y-63405241D01*
X130486027Y-63373139D01*
X130480215Y-63364016D01*
X130461120Y-63330943D01*
X130431858Y-63306389D01*
X130423883Y-63299081D01*
X128784802Y-61660000D01*
X137951120Y-61660000D01*
X137971732Y-61803368D01*
X138031903Y-61935122D01*
X138126752Y-62044584D01*
X138126754Y-62044586D01*
X138248604Y-62122894D01*
X138304135Y-62139199D01*
X138387578Y-62163700D01*
X138387579Y-62163700D01*
X138532421Y-62163700D01*
X138532422Y-62163700D01*
X138600556Y-62143694D01*
X138671396Y-62122894D01*
X138793246Y-62044586D01*
X138888097Y-61935121D01*
X138948267Y-61803368D01*
X138968880Y-61660000D01*
X138948267Y-61516632D01*
X138888097Y-61384879D01*
X138888096Y-61384878D01*
X138888096Y-61384877D01*
X138793247Y-61275415D01*
X138793246Y-61275414D01*
X138671396Y-61197106D01*
X138671395Y-61197105D01*
X138671394Y-61197105D01*
X138532422Y-61156300D01*
X138532421Y-61156300D01*
X138387579Y-61156300D01*
X138387578Y-61156300D01*
X138248605Y-61197105D01*
X138126752Y-61275415D01*
X138031903Y-61384877D01*
X137971732Y-61516631D01*
X137951120Y-61660000D01*
X128784802Y-61660000D01*
X127766353Y-60641551D01*
X127759044Y-60633575D01*
X127734493Y-60604316D01*
X127701415Y-60585218D01*
X127692295Y-60579408D01*
X127661008Y-60557501D01*
X127661006Y-60557500D01*
X127660196Y-60556933D01*
X127635079Y-60546528D01*
X127596485Y-60539722D01*
X127585930Y-60537382D01*
X127549041Y-60527498D01*
X127510990Y-60530828D01*
X127500182Y-60531300D01*
X126959815Y-60531300D01*
X126949007Y-60530828D01*
X126946765Y-60530631D01*
X126910958Y-60527498D01*
X126874071Y-60537382D01*
X126863517Y-60539722D01*
X126824922Y-60546528D01*
X126799801Y-60556934D01*
X126767704Y-60579408D01*
X126758584Y-60585218D01*
X126725506Y-60604316D01*
X126700952Y-60633578D01*
X126693645Y-60641551D01*
X126430164Y-60905033D01*
X126389939Y-60931911D01*
X126342486Y-60941350D01*
X126323960Y-60941350D01*
X126276507Y-60931911D01*
X126236279Y-60905031D01*
X124511247Y-59179999D01*
X133711241Y-59179999D01*
X133731443Y-59449578D01*
X133791600Y-59713143D01*
X133890364Y-59964789D01*
X134009006Y-60170284D01*
X134025534Y-60198910D01*
X134194087Y-60410268D01*
X134392258Y-60594144D01*
X134615621Y-60746430D01*
X134859186Y-60863725D01*
X135117513Y-60943409D01*
X135384831Y-60983700D01*
X135655169Y-60983700D01*
X135922487Y-60943409D01*
X136180814Y-60863725D01*
X136424379Y-60746430D01*
X136647742Y-60594144D01*
X136845913Y-60410268D01*
X137014466Y-60198910D01*
X137149635Y-59964791D01*
X137248400Y-59713141D01*
X137308556Y-59449581D01*
X137328758Y-59180000D01*
X137308556Y-58910419D01*
X137248400Y-58646859D01*
X137149635Y-58395209D01*
X137014466Y-58161090D01*
X136845913Y-57949732D01*
X136647742Y-57765856D01*
X136598266Y-57732124D01*
X136424379Y-57613570D01*
X136180814Y-57496275D01*
X135922486Y-57416590D01*
X135655169Y-57376300D01*
X135384831Y-57376300D01*
X135117513Y-57416590D01*
X134859185Y-57496275D01*
X134615620Y-57613570D01*
X134392258Y-57765855D01*
X134194087Y-57949731D01*
X134025533Y-58161090D01*
X133890364Y-58395210D01*
X133791600Y-58646856D01*
X133731443Y-58910421D01*
X133711241Y-59179999D01*
X124511247Y-59179999D01*
X124145019Y-58813771D01*
X124118139Y-58773543D01*
X124108700Y-58726090D01*
X124108700Y-56576082D01*
X124116518Y-56532749D01*
X124138987Y-56494880D01*
X124208096Y-56415122D01*
X124208095Y-56415122D01*
X124208097Y-56415121D01*
X124268267Y-56283368D01*
X124288880Y-56140000D01*
X124280253Y-56079999D01*
X126811143Y-56079999D01*
X126831726Y-56302128D01*
X126892772Y-56516688D01*
X126992208Y-56716380D01*
X127126644Y-56894403D01*
X127291500Y-57044689D01*
X127445681Y-57140153D01*
X127481166Y-57162124D01*
X127689181Y-57242710D01*
X127908461Y-57283700D01*
X128131537Y-57283700D01*
X128131539Y-57283700D01*
X128350819Y-57242710D01*
X128558834Y-57162124D01*
X128748499Y-57044689D01*
X128913356Y-56894402D01*
X129047791Y-56716381D01*
X129147226Y-56516690D01*
X129153432Y-56494880D01*
X129176125Y-56415121D01*
X129208274Y-56302127D01*
X129228857Y-56080000D01*
X141311143Y-56080000D01*
X141331726Y-56302128D01*
X141392772Y-56516688D01*
X141492208Y-56716380D01*
X141626644Y-56894403D01*
X141791500Y-57044689D01*
X141945681Y-57140153D01*
X141981166Y-57162124D01*
X142189181Y-57242710D01*
X142408461Y-57283700D01*
X142631537Y-57283700D01*
X142631539Y-57283700D01*
X142850819Y-57242710D01*
X143058834Y-57162124D01*
X143248499Y-57044689D01*
X143413356Y-56894402D01*
X143547791Y-56716381D01*
X143647226Y-56516690D01*
X143653432Y-56494880D01*
X143676125Y-56415121D01*
X143708274Y-56302127D01*
X143709398Y-56290000D01*
X145271120Y-56290000D01*
X145291732Y-56433368D01*
X145351903Y-56565122D01*
X145446752Y-56674584D01*
X145446754Y-56674586D01*
X145568604Y-56752894D01*
X145638091Y-56773296D01*
X145707578Y-56793700D01*
X145707579Y-56793700D01*
X145767486Y-56793700D01*
X145814939Y-56803139D01*
X145855167Y-56830019D01*
X146192981Y-57167833D01*
X146219861Y-57208061D01*
X146229300Y-57255514D01*
X146229300Y-63469634D01*
X146216512Y-63524478D01*
X146180787Y-63568008D01*
X146165378Y-63579833D01*
X146145264Y-63595267D01*
X146052505Y-63716153D01*
X145994195Y-63856928D01*
X145974305Y-64007999D01*
X145994195Y-64159071D01*
X146052505Y-64299846D01*
X146145265Y-64420734D01*
X146186699Y-64452527D01*
X146266153Y-64513494D01*
X146406929Y-64571805D01*
X146558000Y-64591694D01*
X146709071Y-64571805D01*
X146849847Y-64513494D01*
X146970734Y-64420734D01*
X147063494Y-64299847D01*
X147121805Y-64159071D01*
X147141694Y-64008000D01*
X147121805Y-63856929D01*
X147063494Y-63716153D01*
X147040010Y-63685548D01*
X146970735Y-63595267D01*
X146970734Y-63595266D01*
X146935212Y-63568008D01*
X146899488Y-63524478D01*
X146886700Y-63469634D01*
X146886700Y-57087765D01*
X146887172Y-57076956D01*
X146890501Y-57038909D01*
X146880614Y-57002012D01*
X146878277Y-56991478D01*
X146871642Y-56953844D01*
X146871639Y-56953840D01*
X146871467Y-56952860D01*
X146861068Y-56927754D01*
X146838590Y-56895652D01*
X146832778Y-56886529D01*
X146813683Y-56853456D01*
X146784421Y-56828902D01*
X146776446Y-56821594D01*
X146325456Y-56370604D01*
X146302253Y-56338427D01*
X146290399Y-56300569D01*
X146288879Y-56290001D01*
X146288880Y-56290000D01*
X146268267Y-56146632D01*
X146265238Y-56140000D01*
X146208096Y-56014877D01*
X146113247Y-55905415D01*
X146113246Y-55905414D01*
X145991396Y-55827106D01*
X145991395Y-55827105D01*
X145991394Y-55827105D01*
X145852422Y-55786300D01*
X145852421Y-55786300D01*
X145707579Y-55786300D01*
X145707578Y-55786300D01*
X145568605Y-55827105D01*
X145446752Y-55905415D01*
X145351903Y-56014877D01*
X145291732Y-56146631D01*
X145271120Y-56290000D01*
X143709398Y-56290000D01*
X143728857Y-56080000D01*
X143708274Y-55857873D01*
X143685325Y-55777215D01*
X143647227Y-55643311D01*
X143547791Y-55443619D01*
X143413355Y-55265596D01*
X143248499Y-55115310D01*
X143058836Y-54997877D01*
X143058834Y-54997876D01*
X142850819Y-54917290D01*
X142631539Y-54876300D01*
X142408461Y-54876300D01*
X142189180Y-54917290D01*
X142189181Y-54917290D01*
X141981163Y-54997877D01*
X141791500Y-55115310D01*
X141626644Y-55265596D01*
X141492208Y-55443619D01*
X141392772Y-55643311D01*
X141331726Y-55857871D01*
X141311143Y-56080000D01*
X129228857Y-56080000D01*
X129208274Y-55857873D01*
X129185325Y-55777215D01*
X129147227Y-55643311D01*
X129047791Y-55443619D01*
X128913355Y-55265596D01*
X128748499Y-55115310D01*
X128558836Y-54997877D01*
X128558834Y-54997876D01*
X128423960Y-54945625D01*
X128375592Y-54911831D01*
X128348318Y-54859504D01*
X128348318Y-54800496D01*
X128375592Y-54748169D01*
X128423960Y-54714374D01*
X128558834Y-54662124D01*
X128748499Y-54544689D01*
X128913356Y-54394402D01*
X129047791Y-54216381D01*
X129147226Y-54016690D01*
X129208274Y-53802127D01*
X129228857Y-53580000D01*
X129208274Y-53357873D01*
X129185325Y-53277215D01*
X129147227Y-53143311D01*
X129047791Y-52943619D01*
X128913355Y-52765596D01*
X128748499Y-52615310D01*
X128583466Y-52513127D01*
X128539861Y-52467036D01*
X128524764Y-52405409D01*
X128542128Y-52344382D01*
X128587406Y-52299933D01*
X128648743Y-52283700D01*
X129040065Y-52283700D01*
X129059869Y-52279760D01*
X129099480Y-52271881D01*
X129166860Y-52226860D01*
X129211881Y-52159480D01*
X129223700Y-52100064D01*
X129223700Y-51080000D01*
X141311143Y-51080000D01*
X141331726Y-51302128D01*
X141392772Y-51516688D01*
X141492208Y-51716380D01*
X141626644Y-51894403D01*
X141791500Y-52044689D01*
X141945681Y-52140153D01*
X141981166Y-52162124D01*
X142189181Y-52242710D01*
X142408461Y-52283700D01*
X142631537Y-52283700D01*
X142631539Y-52283700D01*
X142850819Y-52242710D01*
X143058834Y-52162124D01*
X143248499Y-52044689D01*
X143413356Y-51894402D01*
X143547791Y-51716381D01*
X143647226Y-51516690D01*
X143648953Y-51510622D01*
X143684660Y-51385121D01*
X143708274Y-51302127D01*
X143728857Y-51080000D01*
X143708274Y-50857873D01*
X143670587Y-50725415D01*
X143647227Y-50643311D01*
X143547791Y-50443619D01*
X143413355Y-50265596D01*
X143248499Y-50115310D01*
X143058836Y-49997877D01*
X143058834Y-49997876D01*
X142850819Y-49917290D01*
X142631539Y-49876300D01*
X142408461Y-49876300D01*
X142189180Y-49917290D01*
X142189181Y-49917290D01*
X141981163Y-49997877D01*
X141791500Y-50115310D01*
X141626644Y-50265596D01*
X141492208Y-50443619D01*
X141392772Y-50643311D01*
X141331726Y-50857871D01*
X141311143Y-51080000D01*
X129223700Y-51080000D01*
X129223700Y-50059936D01*
X129211881Y-50000520D01*
X129166860Y-49933140D01*
X129099480Y-49888119D01*
X129099479Y-49888118D01*
X129099478Y-49888118D01*
X129040065Y-49876300D01*
X129040064Y-49876300D01*
X126999936Y-49876300D01*
X126999935Y-49876300D01*
X126940521Y-49888118D01*
X126873140Y-49933140D01*
X126828118Y-50000521D01*
X126816300Y-50059935D01*
X126816300Y-52100065D01*
X126828118Y-52159478D01*
X126828118Y-52159479D01*
X126828119Y-52159480D01*
X126873140Y-52226860D01*
X126940520Y-52271881D01*
X126970227Y-52277790D01*
X126999935Y-52283700D01*
X127391257Y-52283700D01*
X127452594Y-52299933D01*
X127497872Y-52344382D01*
X127515236Y-52405409D01*
X127500139Y-52467036D01*
X127456534Y-52513127D01*
X127291500Y-52615310D01*
X127126644Y-52765596D01*
X126992208Y-52943619D01*
X126892772Y-53143311D01*
X126831726Y-53357871D01*
X126811143Y-53580000D01*
X126831726Y-53802128D01*
X126892772Y-54016688D01*
X126992208Y-54216380D01*
X127126644Y-54394403D01*
X127291500Y-54544689D01*
X127481167Y-54662125D01*
X127616036Y-54714374D01*
X127664407Y-54748170D01*
X127691681Y-54800496D01*
X127691681Y-54859504D01*
X127664407Y-54911830D01*
X127616036Y-54945626D01*
X127481167Y-54997874D01*
X127291500Y-55115310D01*
X127126644Y-55265596D01*
X126992208Y-55443619D01*
X126892772Y-55643311D01*
X126831726Y-55857871D01*
X126811143Y-56079999D01*
X124280253Y-56079999D01*
X124271230Y-56017244D01*
X124268267Y-55996631D01*
X124208096Y-55864877D01*
X124113247Y-55755415D01*
X124113246Y-55755414D01*
X123991396Y-55677106D01*
X123991395Y-55677105D01*
X123991394Y-55677105D01*
X123852422Y-55636300D01*
X123852421Y-55636300D01*
X123707579Y-55636300D01*
X123707578Y-55636300D01*
X123637634Y-55656837D01*
X123580683Y-55659890D01*
X123528389Y-55637127D01*
X123491816Y-55593364D01*
X123478700Y-55537860D01*
X123478700Y-52067514D01*
X123488139Y-52020061D01*
X123515019Y-51979833D01*
X123844832Y-51650019D01*
X123885060Y-51623139D01*
X123932513Y-51613700D01*
X124062422Y-51613700D01*
X124108745Y-51600098D01*
X124201396Y-51572894D01*
X124323246Y-51494586D01*
X124418097Y-51385121D01*
X124478267Y-51253368D01*
X124498880Y-51110000D01*
X124478267Y-50966632D01*
X124418097Y-50834879D01*
X124418096Y-50834878D01*
X124418096Y-50834877D01*
X124323247Y-50725415D01*
X124323246Y-50725414D01*
X124201396Y-50647106D01*
X124201395Y-50647105D01*
X124201394Y-50647105D01*
X124062422Y-50606300D01*
X124062421Y-50606300D01*
X123917579Y-50606300D01*
X123917578Y-50606300D01*
X123778605Y-50647105D01*
X123656752Y-50725415D01*
X123561903Y-50834877D01*
X123501732Y-50966631D01*
X123491354Y-51038816D01*
X123479500Y-51076673D01*
X123456297Y-51108849D01*
X123024130Y-51541016D01*
X122974778Y-51571263D01*
X122917073Y-51575812D01*
X122863591Y-51553673D01*
X122825984Y-51509670D01*
X122812449Y-51453393D01*
X122810887Y-47980000D01*
X133711241Y-47980000D01*
X133731443Y-48249578D01*
X133791600Y-48513143D01*
X133890364Y-48764789D01*
X133890365Y-48764791D01*
X134025534Y-48998910D01*
X134194087Y-49210268D01*
X134392258Y-49394144D01*
X134615621Y-49546430D01*
X134859186Y-49663725D01*
X135117513Y-49743409D01*
X135384831Y-49783700D01*
X135655169Y-49783700D01*
X135922487Y-49743409D01*
X136180814Y-49663725D01*
X136424379Y-49546430D01*
X136647742Y-49394144D01*
X136845913Y-49210268D01*
X137014466Y-48998910D01*
X137149635Y-48764791D01*
X137248400Y-48513141D01*
X137308556Y-48249581D01*
X137328758Y-47980000D01*
X137308556Y-47710419D01*
X137248400Y-47446859D01*
X137228132Y-47395218D01*
X137210276Y-47349721D01*
X137149635Y-47195209D01*
X137014466Y-46961090D01*
X136845913Y-46749732D01*
X136710838Y-46624401D01*
X136647741Y-46565855D01*
X136424379Y-46413570D01*
X136180814Y-46296275D01*
X135922486Y-46216590D01*
X135655169Y-46176300D01*
X135384831Y-46176300D01*
X135117513Y-46216590D01*
X134859185Y-46296275D01*
X134615620Y-46413570D01*
X134392258Y-46565855D01*
X134194087Y-46749731D01*
X134025533Y-46961090D01*
X133890364Y-47195210D01*
X133791600Y-47446856D01*
X133731443Y-47710421D01*
X133711241Y-47980000D01*
X122810887Y-47980000D01*
X122810502Y-47124894D01*
X122810884Y-47115117D01*
X122814951Y-47063431D01*
X122815009Y-47062745D01*
X122826997Y-46925716D01*
X122829946Y-46907607D01*
X122848587Y-46829965D01*
X122849375Y-46826859D01*
X122877016Y-46723702D01*
X122882214Y-46708390D01*
X122915011Y-46629210D01*
X122917126Y-46624401D01*
X122959863Y-46532752D01*
X122966483Y-46520434D01*
X123012373Y-46445547D01*
X123016476Y-46439289D01*
X123073285Y-46358157D01*
X123080531Y-46348799D01*
X123138102Y-46281392D01*
X123144661Y-46274297D01*
X123214297Y-46204661D01*
X123221392Y-46198102D01*
X123288799Y-46140531D01*
X123298157Y-46133285D01*
X123379289Y-46076476D01*
X123385547Y-46072373D01*
X123460434Y-46026483D01*
X123472752Y-46019863D01*
X123564401Y-45977126D01*
X123569210Y-45975011D01*
X123648390Y-45942214D01*
X123663702Y-45937016D01*
X123766859Y-45909375D01*
X123769967Y-45908587D01*
X123847607Y-45889946D01*
X123865716Y-45886997D01*
X124002931Y-45874992D01*
X124003142Y-45874974D01*
X124052882Y-45871060D01*
X124055147Y-45870882D01*
X124064872Y-45870500D01*
X124111516Y-45870500D01*
X124111783Y-45870445D01*
X216911181Y-45774388D01*
X216921034Y-45774770D01*
G37*
%TD.AperFunction*%
%TD*%
M02*
