%TF.GenerationSoftware,KiCad,Pcbnew,7.0.7*%
%TF.CreationDate,2023-12-10T19:04:42-06:00*%
%TF.ProjectId,ProjectNeoRogue,50726f6a-6563-4744-9e65-6f526f677565,v1*%
%TF.SameCoordinates,Original*%
%TF.FileFunction,Copper,L3,Inr*%
%TF.FilePolarity,Positive*%
%FSLAX46Y46*%
G04 Gerber Fmt 4.6, Leading zero omitted, Abs format (unit mm)*
G04 Created by KiCad (PCBNEW 7.0.7) date 2023-12-10 19:04:42*
%MOMM*%
%LPD*%
G01*
G04 APERTURE LIST*
%TA.AperFunction,ComponentPad*%
%ADD10O,1.727200X1.727200*%
%TD*%
%TA.AperFunction,ComponentPad*%
%ADD11R,1.727200X1.727200*%
%TD*%
%TA.AperFunction,ComponentPad*%
%ADD12C,1.727200*%
%TD*%
%TA.AperFunction,ComponentPad*%
%ADD13R,1.700000X1.700000*%
%TD*%
%TA.AperFunction,ComponentPad*%
%ADD14O,1.700000X1.700000*%
%TD*%
%TA.AperFunction,ComponentPad*%
%ADD15C,6.000000*%
%TD*%
%TA.AperFunction,ComponentPad*%
%ADD16R,2.000000X2.000000*%
%TD*%
%TA.AperFunction,ComponentPad*%
%ADD17C,2.000000*%
%TD*%
%TA.AperFunction,ComponentPad*%
%ADD18C,3.200000*%
%TD*%
%TA.AperFunction,ComponentPad*%
%ADD19O,1.000000X1.800000*%
%TD*%
%TA.AperFunction,ComponentPad*%
%ADD20O,1.000000X2.100000*%
%TD*%
%TA.AperFunction,ViaPad*%
%ADD21C,0.600000*%
%TD*%
%TA.AperFunction,ViaPad*%
%ADD22C,0.750000*%
%TD*%
%TA.AperFunction,Conductor*%
%ADD23C,0.250000*%
%TD*%
G04 APERTURE END LIST*
D10*
%TO.N,VCC*%
%TO.C,X1*%
X213220000Y-65250000D03*
D11*
%TO.N,GND*%
X210680000Y-65250000D03*
D10*
%TO.N,IO06*%
X213220000Y-67790000D03*
%TO.N,IO07*%
X210680000Y-67790000D03*
D12*
%TO.N,Net-(JP2-B)*%
X213220000Y-70330000D03*
%TO.N,Net-(JP3-A)*%
X210680000Y-70330000D03*
%TD*%
D13*
%TO.N,unconnected-(J7-Pin_1-Pad1)*%
%TO.C,J7*%
X168040000Y-128340000D03*
D14*
%TO.N,IO02*%
X170580000Y-128340000D03*
%TO.N,IO01*%
X173120000Y-128340000D03*
%TO.N,IO08*%
X175660000Y-128340000D03*
%TO.N,IO09*%
X178200000Y-128340000D03*
%TO.N,GND*%
X180740000Y-128340000D03*
%TO.N,VCC*%
X183280000Y-128340000D03*
%TD*%
D15*
%TO.N,*%
%TO.C,REF\u002A\u002A*%
X214370000Y-49510000D03*
%TD*%
%TO.N,*%
%TO.C,REF\u002A\u002A*%
X214690000Y-155670000D03*
%TD*%
D16*
%TO.N,IO04*%
%TO.C,SW9*%
X128020000Y-51080000D03*
D17*
%TO.N,IO05*%
X128020000Y-56080000D03*
%TO.N,GND*%
X128020000Y-53580000D03*
D18*
%TO.N,N/C*%
X135520000Y-47980000D03*
X135520000Y-59180000D03*
D17*
%TO.N,IO20*%
X142520000Y-56080000D03*
%TO.N,GND*%
X142520000Y-51080000D03*
%TD*%
D16*
%TO.N,IO16*%
%TO.C,SW10*%
X128270000Y-149270000D03*
D17*
%TO.N,IO17*%
X128270000Y-154270000D03*
%TO.N,GND*%
X128270000Y-151770000D03*
D18*
%TO.N,N/C*%
X135770000Y-146170000D03*
X135770000Y-157370000D03*
D17*
%TO.N,IO19*%
X142770000Y-154270000D03*
%TO.N,GND*%
X142770000Y-149270000D03*
%TD*%
D19*
%TO.N,Net-(J8-SHIELD)*%
%TO.C,J8*%
X174380000Y-156880000D03*
D20*
X174380000Y-152730000D03*
D19*
X165740000Y-156880000D03*
D20*
X165740000Y-152730000D03*
%TD*%
D21*
%TO.N,GND*%
X205460000Y-128620000D03*
X205040000Y-131130000D03*
D22*
X158750000Y-60706000D03*
D21*
X167630000Y-53040000D03*
D22*
X164338000Y-113792000D03*
X131190000Y-107900000D03*
X174510000Y-139670000D03*
X187780000Y-128620000D03*
X155350000Y-82440000D03*
X171150000Y-143550000D03*
X194890000Y-156280000D03*
X164010000Y-137530000D03*
X152210000Y-122910000D03*
X151710000Y-107520000D03*
X166080000Y-124450000D03*
X191880000Y-95300000D03*
X128810000Y-101550000D03*
X182520000Y-142482000D03*
X167760000Y-117430000D03*
X157230000Y-113550000D03*
X149098000Y-64008000D03*
X149830000Y-83620000D03*
X186330000Y-130960000D03*
X179500000Y-111910000D03*
X210660000Y-63300000D03*
X161600000Y-110090000D03*
X162970000Y-148030000D03*
X135410000Y-115700000D03*
X167450000Y-88759500D03*
X168000000Y-143430000D03*
X186409000Y-138164000D03*
X127230000Y-61560000D03*
X141130000Y-137110000D03*
D21*
X138460000Y-61660000D03*
D22*
X142240000Y-119126000D03*
X175170000Y-143240000D03*
%TO.N,VBUS*%
X191300000Y-134785000D03*
X191770000Y-137287000D03*
%TO.N,VCC*%
X174315901Y-134084108D03*
X178970000Y-91970000D03*
X183300000Y-135710000D03*
X183480000Y-137300000D03*
X166680000Y-134330000D03*
X185340000Y-99240000D03*
X126540000Y-122840000D03*
X141040000Y-135480000D03*
X181176600Y-136690800D03*
D21*
X149070000Y-51660000D03*
D22*
X197410000Y-131440000D03*
X163370000Y-145920000D03*
D21*
X127850000Y-47900000D03*
D22*
X212852000Y-128270000D03*
D21*
X130290000Y-58650000D03*
D22*
X162980000Y-95460000D03*
X215392000Y-128270000D03*
X178660000Y-135850000D03*
X148000000Y-59890000D03*
X172540000Y-133610000D03*
X172550000Y-116110000D03*
X130330000Y-60220000D03*
X210470000Y-155560000D03*
X178770000Y-137450000D03*
D21*
X124380000Y-150040000D03*
%TO.N,Net-(D6-A)*%
X203720000Y-87060000D03*
X199430000Y-136570000D03*
%TO.N,IO18*%
X156320000Y-89313396D03*
%TO.N,Net-(D7-A)*%
X199010000Y-141940000D03*
X204940000Y-87520000D03*
D22*
%TO.N,USB_TX_ESP_RX*%
X133860000Y-91010000D03*
X124560500Y-102030000D03*
D21*
%TO.N,Boot*%
X140820000Y-77060000D03*
X167650000Y-47670000D03*
D22*
%TO.N,IO15*%
X145229500Y-80295378D03*
D21*
X189710000Y-149230000D03*
D22*
X146054363Y-84710000D03*
D21*
X187770000Y-92750000D03*
D22*
%TO.N,IO05*%
X134180000Y-67300000D03*
D21*
X123780000Y-56140000D03*
D22*
%TO.N,IO04*%
X132175000Y-67145000D03*
D21*
X123990000Y-51110000D03*
D22*
%TO.N,IO10*%
X152659466Y-66530534D03*
X155380000Y-63810000D03*
%TO.N,IO14*%
X157181126Y-88688896D03*
X152400000Y-88360000D03*
%TO.N,IO13*%
X152894624Y-87549505D03*
X157150000Y-87890000D03*
%TO.N,IO12*%
X153924000Y-87539396D03*
X157190000Y-87060000D03*
%TO.N,IO11*%
X154866861Y-87089396D03*
X157190000Y-86260000D03*
%TO.N,IO37*%
X141040000Y-107459000D03*
X142388581Y-105961403D03*
%TO.N,IO36*%
X142953589Y-106526411D03*
X141866666Y-108121401D03*
%TO.N,IO35*%
X142650000Y-108900000D03*
X143643589Y-107216411D03*
%TO.N,IO16*%
X144500500Y-77865453D03*
D21*
X144980000Y-84740000D03*
D22*
X155180000Y-122410000D03*
X155900000Y-118880000D03*
%TO.N,IO17*%
X152540000Y-90714500D03*
X154470000Y-115980000D03*
X144560500Y-75522774D03*
X154279432Y-121139419D03*
D21*
%TO.N,IO08*%
X174677775Y-90300000D03*
D22*
X155620500Y-73310500D03*
D21*
%TO.N,IO09*%
X148310000Y-69800000D03*
D22*
X182900378Y-89910378D03*
%TO.N,IO02*%
X141947976Y-81650897D03*
%TO.N,IO01*%
X142170000Y-80440000D03*
X157019500Y-74010000D03*
X186539622Y-87450378D03*
%TO.N,IO19*%
X145085500Y-76400000D03*
X152830000Y-119060000D03*
%TO.N,IO47*%
X132297567Y-116752399D03*
X148340000Y-78670000D03*
X143830500Y-84868161D03*
X143370000Y-109670000D03*
X131430000Y-122760000D03*
X144396855Y-107794465D03*
X133049500Y-124460000D03*
X131160000Y-119670000D03*
%TO.N,IO06*%
X215392000Y-121920000D03*
X209550000Y-128524000D03*
X207264000Y-130556000D03*
D21*
%TO.N,IO07*%
X212030000Y-57260000D03*
D22*
X206756000Y-129794000D03*
X208534000Y-128270000D03*
X212852000Y-121920000D03*
%TO.N,IO20*%
X146558000Y-64008000D03*
D21*
X145780000Y-56290000D03*
D22*
%TO.N,IO45*%
X147066000Y-83058000D03*
X157988000Y-54356000D03*
%TO.N,IO46*%
X149352000Y-67310000D03*
X154502000Y-62922000D03*
%TD*%
D23*
%TO.N,IO15*%
X146054363Y-81545637D02*
X146054363Y-84710000D01*
X146060000Y-81540000D02*
X146054363Y-81545637D01*
X145229500Y-80295378D02*
X146060000Y-81125878D01*
X146060000Y-81125878D02*
X146060000Y-81540000D01*
%TO.N,IO19*%
X148729000Y-111469000D02*
X152830000Y-115570000D01*
X148729000Y-82618720D02*
X148729000Y-111469000D01*
X145200000Y-79089720D02*
X148729000Y-82618720D01*
X145200000Y-77321778D02*
X145200000Y-79089720D01*
X145243805Y-77277973D02*
X145200000Y-77321778D01*
X145085500Y-76400000D02*
X145243805Y-76558305D01*
X145243805Y-76558305D02*
X145243805Y-77277973D01*
%TO.N,IO16*%
X144530000Y-84290000D02*
X144980000Y-84740000D01*
X144530000Y-78066872D02*
X144530000Y-84290000D01*
X144500500Y-78037372D02*
X144530000Y-78066872D01*
X144500500Y-77865453D02*
X144500500Y-78037372D01*
%TO.N,IO17*%
X150530000Y-88704500D02*
X152540000Y-90714500D01*
X150530000Y-83330050D02*
X150530000Y-88704500D01*
X149179000Y-82432324D02*
X149632274Y-82432324D01*
X144618324Y-75522774D02*
X144795550Y-75700000D01*
X144560500Y-75522774D02*
X144618324Y-75522774D01*
X149632274Y-82432324D02*
X150530000Y-83330050D01*
X145375450Y-75700000D02*
X145830000Y-76154550D01*
X144795550Y-75700000D02*
X145375450Y-75700000D01*
X145830000Y-76154550D02*
X145830000Y-79083324D01*
X145830000Y-79083324D02*
X149179000Y-82432324D01*
%TO.N,IO10*%
X152659466Y-66530534D02*
X155380000Y-63810000D01*
%TO.N,IO46*%
X154308000Y-62922000D02*
X149920000Y-67310000D01*
X154502000Y-62922000D02*
X154308000Y-62922000D01*
X149920000Y-67310000D02*
X149352000Y-67310000D01*
%TO.N,IO08*%
X174677775Y-90137775D02*
X174677775Y-90300000D01*
X157850500Y-73310500D02*
X174677775Y-90137775D01*
X155620500Y-73310500D02*
X157850500Y-73310500D01*
%TO.N,IO01*%
X142910000Y-75470000D02*
X142910000Y-79700000D01*
X144050000Y-74330000D02*
X142910000Y-75470000D01*
X142910000Y-79700000D02*
X142170000Y-80440000D01*
X144380000Y-74010000D02*
X144060000Y-74330000D01*
X144060000Y-74330000D02*
X144050000Y-74330000D01*
X157019500Y-74010000D02*
X144380000Y-74010000D01*
X171770000Y-126990000D02*
X173120000Y-128340000D01*
X186349622Y-87450378D02*
X171770000Y-102030000D01*
X186539622Y-87450378D02*
X186349622Y-87450378D01*
X171770000Y-102030000D02*
X171770000Y-126990000D01*
%TO.N,IO05*%
X123780000Y-58913604D02*
X123780000Y-56140000D01*
X126530000Y-61270050D02*
X126136446Y-61270050D01*
X127519950Y-60860000D02*
X126940050Y-60860000D01*
X126940050Y-60860000D02*
X126530000Y-61270050D01*
X126136446Y-61270050D02*
X123780000Y-58913604D01*
X130205437Y-63545487D02*
X127519950Y-60860000D01*
X134180000Y-67300000D02*
X133640000Y-67300000D01*
X133640000Y-67300000D02*
X130205437Y-63865437D01*
X130205437Y-63865437D02*
X130205437Y-63545487D01*
%TO.N,IO04*%
X123150000Y-51880000D02*
X123920000Y-51110000D01*
X123920000Y-51110000D02*
X123990000Y-51110000D01*
X123150000Y-58920000D02*
X123150000Y-51880000D01*
X128511759Y-64281759D02*
X123150000Y-58920000D01*
X132175000Y-67145000D02*
X129311759Y-64281759D01*
X129311759Y-64281759D02*
X128511759Y-64281759D01*
%TO.N,Net-(D6-A)*%
X205400000Y-127360000D02*
X203270000Y-129490000D01*
X205400000Y-91964116D02*
X205400000Y-127360000D01*
X203270000Y-129490000D02*
X203270000Y-132730000D01*
X207834000Y-89530116D02*
X205400000Y-91964116D01*
X203270000Y-132730000D02*
X199430000Y-136570000D01*
X205198884Y-86895000D02*
X207834000Y-89530116D01*
X203885000Y-86895000D02*
X205198884Y-86895000D01*
X203720000Y-87060000D02*
X203885000Y-86895000D01*
%TO.N,VBUS*%
X191740000Y-137257000D02*
X191770000Y-137287000D01*
X191740000Y-135225000D02*
X191740000Y-137257000D01*
X191300000Y-134785000D02*
X191740000Y-135225000D01*
%TO.N,Net-(D7-A)*%
X198580000Y-141510000D02*
X198580000Y-132350000D01*
X199010000Y-141940000D02*
X198580000Y-141510000D01*
X198580000Y-132350000D02*
X204940000Y-125990000D01*
X204940000Y-125990000D02*
X204940000Y-87520000D01*
%TO.N,USB_TX_ESP_RX*%
X124560500Y-100309500D02*
X133860000Y-91010000D01*
X124560500Y-102030000D02*
X124560500Y-100309500D01*
%TO.N,Boot*%
X156806050Y-55056000D02*
X148398000Y-63464050D01*
X167650000Y-47670000D02*
X166774500Y-47670000D01*
X148398000Y-63464050D02*
X148398000Y-65710796D01*
X140820000Y-73288796D02*
X140820000Y-77060000D01*
X166774500Y-47670000D02*
X159388500Y-55056000D01*
X148398000Y-65710796D02*
X140820000Y-73288796D01*
X159388500Y-55056000D02*
X156806050Y-55056000D01*
%TO.N,Net-(J8-SHIELD)*%
X165760000Y-152133744D02*
X165760000Y-156283744D01*
X174400000Y-152133744D02*
X174400000Y-156283744D01*
X165760000Y-156283744D02*
X174400000Y-156283744D01*
%TO.N,IO15*%
X187770000Y-104670000D02*
X189710000Y-106610000D01*
X189710000Y-106610000D02*
X189710000Y-149230000D01*
X187770000Y-92750000D02*
X187770000Y-104670000D01*
%TO.N,IO05*%
X123780000Y-56140000D02*
X123780000Y-56190000D01*
%TO.N,IO04*%
X123990000Y-51040000D02*
X123930000Y-51100000D01*
X123990000Y-51110000D02*
X123990000Y-51040000D01*
%TO.N,IO14*%
X152400000Y-88360000D02*
X152728896Y-88688896D01*
X152728896Y-88688896D02*
X157181126Y-88688896D01*
%TO.N,IO13*%
X153584015Y-88238896D02*
X156641176Y-88238896D01*
X156990072Y-87890000D02*
X157150000Y-87890000D01*
X152894624Y-87549505D02*
X153584015Y-88238896D01*
X156641176Y-88238896D02*
X156990072Y-87890000D01*
%TO.N,IO12*%
X156261154Y-87788896D02*
X156990050Y-87060000D01*
X154173500Y-87788896D02*
X156261154Y-87788896D01*
X153924000Y-87539396D02*
X154173500Y-87788896D01*
X156990050Y-87060000D02*
X157190000Y-87060000D01*
%TO.N,IO11*%
X156490000Y-86770050D02*
X157000050Y-86260000D01*
X156490000Y-86842000D02*
X156490000Y-86770050D01*
X157000050Y-86260000D02*
X157190000Y-86260000D01*
X154866861Y-87089396D02*
X156242604Y-87089396D01*
X156242604Y-87089396D02*
X156490000Y-86842000D01*
%TO.N,IO37*%
X141040000Y-107459000D02*
X141040000Y-107309984D01*
X141040000Y-107309984D02*
X142388581Y-105961403D01*
%TO.N,IO36*%
X142953589Y-106936411D02*
X142953589Y-106526411D01*
X141768599Y-108121401D02*
X142953589Y-106936411D01*
X141620130Y-108121401D02*
X141768599Y-108121401D01*
%TO.N,IO35*%
X142650000Y-108210000D02*
X142650000Y-108900000D01*
X143643589Y-107216411D02*
X142650000Y-108210000D01*
%TO.N,IO16*%
X155900000Y-121690000D02*
X155900000Y-118880000D01*
X155180000Y-122410000D02*
X155900000Y-121690000D01*
%TO.N,IO17*%
X154360000Y-121058851D02*
X154360000Y-116090000D01*
X154279432Y-121139419D02*
X154360000Y-121058851D01*
%TO.N,IO08*%
X174677775Y-90300000D02*
X174690000Y-90312225D01*
%TO.N,IO19*%
X152830000Y-115590000D02*
X152830000Y-119060000D01*
X152840000Y-115580000D02*
X152830000Y-115590000D01*
%TO.N,IO47*%
X131430000Y-122760000D02*
X131430000Y-122840500D01*
X144396855Y-108643145D02*
X143370000Y-109670000D01*
X131160000Y-119670000D02*
X132297567Y-118532433D01*
X131430000Y-122840500D02*
X133049500Y-124460000D01*
X132297567Y-118532433D02*
X132297567Y-116752399D01*
X144396855Y-107794465D02*
X144396855Y-108643145D01*
%TO.N,IO20*%
X145780000Y-56290000D02*
X146558000Y-57068000D01*
X146558000Y-57068000D02*
X146558000Y-64008000D01*
%TD*%
%TA.AperFunction,Conductor*%
%TO.N,VCC*%
G36*
X216918577Y-45774577D02*
G01*
X216932388Y-45775663D01*
X216973067Y-45778865D01*
X217110390Y-45790882D01*
X217128515Y-45793834D01*
X217207736Y-45812854D01*
X217278784Y-45831892D01*
X217316310Y-45841948D01*
X217323998Y-45844558D01*
X217409344Y-45879910D01*
X217506508Y-45925219D01*
X217512700Y-45928546D01*
X217592178Y-45977250D01*
X217595282Y-45979286D01*
X217655325Y-46021329D01*
X217680370Y-46038866D01*
X217685068Y-46042503D01*
X217723575Y-46075391D01*
X217756537Y-46103543D01*
X217760113Y-46106849D01*
X217833149Y-46179885D01*
X217836455Y-46183461D01*
X217897488Y-46254921D01*
X217901132Y-46259628D01*
X217960697Y-46344693D01*
X217962758Y-46347838D01*
X217983512Y-46381703D01*
X218011449Y-46427292D01*
X218014779Y-46433489D01*
X218060089Y-46530655D01*
X218095440Y-46616000D01*
X218098050Y-46623687D01*
X218127146Y-46732268D01*
X218146164Y-46811482D01*
X218149118Y-46829621D01*
X218161137Y-46966976D01*
X218165426Y-47021458D01*
X218165617Y-47026326D01*
X218165617Y-47074860D01*
X218165700Y-47075627D01*
X218345612Y-158183624D01*
X218345421Y-158188591D01*
X218341137Y-158243021D01*
X218329118Y-158380377D01*
X218326164Y-158398516D01*
X218307146Y-158477731D01*
X218278050Y-158586311D01*
X218275441Y-158593997D01*
X218240089Y-158679344D01*
X218194779Y-158776509D01*
X218191449Y-158782706D01*
X218142774Y-158862137D01*
X218140697Y-158865305D01*
X218081132Y-158950370D01*
X218077488Y-158955077D01*
X218016455Y-159026537D01*
X218013149Y-159030113D01*
X217940113Y-159103149D01*
X217936537Y-159106455D01*
X217865077Y-159167488D01*
X217860370Y-159171132D01*
X217775305Y-159230697D01*
X217772137Y-159232774D01*
X217692706Y-159281449D01*
X217686509Y-159284779D01*
X217589344Y-159330089D01*
X217503997Y-159365441D01*
X217496311Y-159368050D01*
X217387731Y-159397146D01*
X217308516Y-159416164D01*
X217290377Y-159419118D01*
X217153022Y-159431137D01*
X217098523Y-159435427D01*
X217093698Y-159435618D01*
X124112460Y-159499497D01*
X124107552Y-159499306D01*
X124053029Y-159495015D01*
X123915737Y-159483004D01*
X123897597Y-159480050D01*
X123818390Y-159461034D01*
X123709800Y-159431937D01*
X123702112Y-159429327D01*
X123616774Y-159393979D01*
X123591489Y-159382188D01*
X123519598Y-159348665D01*
X123513406Y-159345338D01*
X123471281Y-159319524D01*
X123433964Y-159296655D01*
X123430802Y-159294582D01*
X123345745Y-159235025D01*
X123341038Y-159231380D01*
X123269569Y-159170340D01*
X123265993Y-159167034D01*
X123192964Y-159094005D01*
X123189658Y-159090429D01*
X123128618Y-159018960D01*
X123124979Y-159014260D01*
X123065411Y-158929189D01*
X123063354Y-158926052D01*
X123014657Y-158846585D01*
X123011340Y-158840414D01*
X122966025Y-158743238D01*
X122930666Y-158657872D01*
X122928061Y-158650197D01*
X122913002Y-158593997D01*
X122898970Y-158541631D01*
X122879944Y-158462383D01*
X122876996Y-158444279D01*
X122864985Y-158306994D01*
X122860689Y-158252412D01*
X122860499Y-158247579D01*
X122860497Y-158243021D01*
X122860104Y-157370004D01*
X133961242Y-157370004D01*
X133981443Y-157639578D01*
X134032526Y-157863387D01*
X134041600Y-157903141D01*
X134140365Y-158154791D01*
X134275534Y-158388910D01*
X134397297Y-158541595D01*
X134444090Y-158600272D01*
X134598149Y-158743217D01*
X134642258Y-158784144D01*
X134865621Y-158936430D01*
X135109186Y-159053725D01*
X135367513Y-159133409D01*
X135367514Y-159133409D01*
X135367517Y-159133410D01*
X135634823Y-159173699D01*
X135634828Y-159173699D01*
X135634831Y-159173700D01*
X135634832Y-159173700D01*
X135905168Y-159173700D01*
X135905169Y-159173700D01*
X135949396Y-159167034D01*
X136172482Y-159133410D01*
X136172483Y-159133409D01*
X136172487Y-159133409D01*
X136430814Y-159053725D01*
X136674379Y-158936430D01*
X136897742Y-158784144D01*
X137095913Y-158600268D01*
X137264466Y-158388910D01*
X137399635Y-158154791D01*
X137498400Y-157903141D01*
X137558556Y-157639581D01*
X137578221Y-157377166D01*
X137578758Y-157370004D01*
X137578758Y-157369995D01*
X137575204Y-157322565D01*
X165036300Y-157322565D01*
X165051729Y-157449642D01*
X165112329Y-157609428D01*
X165200378Y-157736988D01*
X165209405Y-157750066D01*
X165337317Y-157863387D01*
X165488632Y-157942803D01*
X165654555Y-157983700D01*
X165654556Y-157983700D01*
X165825444Y-157983700D01*
X165825445Y-157983700D01*
X165991368Y-157942803D01*
X166142683Y-157863387D01*
X166270595Y-157750066D01*
X166367671Y-157609427D01*
X166428270Y-157449643D01*
X166443700Y-157322563D01*
X166443700Y-156736443D01*
X166463385Y-156669405D01*
X166516189Y-156623650D01*
X166567700Y-156612444D01*
X173552300Y-156612444D01*
X173619339Y-156632129D01*
X173665094Y-156684933D01*
X173676300Y-156736444D01*
X173676300Y-157322565D01*
X173691729Y-157449642D01*
X173752329Y-157609428D01*
X173840378Y-157736988D01*
X173849405Y-157750066D01*
X173977317Y-157863387D01*
X174128632Y-157942803D01*
X174294555Y-157983700D01*
X174294556Y-157983700D01*
X174465444Y-157983700D01*
X174465445Y-157983700D01*
X174631368Y-157942803D01*
X174782683Y-157863387D01*
X174910595Y-157750066D01*
X175007671Y-157609427D01*
X175068270Y-157449643D01*
X175083700Y-157322563D01*
X175083700Y-156437437D01*
X175082927Y-156431074D01*
X175068270Y-156310357D01*
X175056757Y-156280000D01*
X194306306Y-156280000D01*
X194320000Y-156384019D01*
X194326195Y-156431070D01*
X194326196Y-156431074D01*
X194384504Y-156571844D01*
X194384505Y-156571846D01*
X194384506Y-156571847D01*
X194477266Y-156692734D01*
X194598153Y-156785494D01*
X194738929Y-156843805D01*
X194890000Y-156863694D01*
X195041071Y-156843805D01*
X195181847Y-156785494D01*
X195302734Y-156692734D01*
X195395494Y-156571847D01*
X195453805Y-156431071D01*
X195473694Y-156280000D01*
X195453805Y-156128929D01*
X195395494Y-155988153D01*
X195302734Y-155867266D01*
X195181847Y-155774506D01*
X195181846Y-155774505D01*
X195181844Y-155774504D01*
X195041074Y-155716196D01*
X195041072Y-155716195D01*
X195041071Y-155716195D01*
X194890000Y-155696306D01*
X194738929Y-155716195D01*
X194738925Y-155716196D01*
X194598155Y-155774504D01*
X194477266Y-155867266D01*
X194384504Y-155988155D01*
X194326196Y-156128925D01*
X194326195Y-156128929D01*
X194306306Y-156280000D01*
X175056757Y-156280000D01*
X175007670Y-156150571D01*
X174959132Y-156080253D01*
X174910595Y-156009934D01*
X174782683Y-155896613D01*
X174782681Y-155896612D01*
X174782678Y-155896609D01*
X174782259Y-155896320D01*
X174782022Y-155896028D01*
X174777068Y-155891639D01*
X174777797Y-155890815D01*
X174738269Y-155842037D01*
X174728700Y-155794271D01*
X174728700Y-155669999D01*
X211481252Y-155669999D01*
X211501427Y-156029261D01*
X211501429Y-156029273D01*
X211561701Y-156384010D01*
X211561703Y-156384019D01*
X211661314Y-156729776D01*
X211661316Y-156729782D01*
X211684393Y-156785494D01*
X211799014Y-157062217D01*
X211799016Y-157062221D01*
X211973077Y-157377161D01*
X211973080Y-157377166D01*
X212181297Y-157670618D01*
X212181303Y-157670626D01*
X212421071Y-157938925D01*
X212421074Y-157938928D01*
X212689373Y-158178696D01*
X212689381Y-158178702D01*
X212982833Y-158386919D01*
X212982838Y-158386922D01*
X212982841Y-158386923D01*
X212982843Y-158386925D01*
X213149336Y-158478942D01*
X213297778Y-158560983D01*
X213297782Y-158560985D01*
X213377481Y-158593997D01*
X213630218Y-158698684D01*
X213975986Y-158798298D01*
X214330734Y-158858572D01*
X214690000Y-158878748D01*
X215049266Y-158858572D01*
X215404014Y-158798298D01*
X215749782Y-158698684D01*
X216082224Y-158560982D01*
X216397157Y-158386925D01*
X216397162Y-158386921D01*
X216397166Y-158386919D01*
X216510057Y-158306818D01*
X216690622Y-158178700D01*
X216958927Y-157938927D01*
X217198700Y-157670622D01*
X217406925Y-157377157D01*
X217580982Y-157062224D01*
X217718684Y-156729782D01*
X217818298Y-156384014D01*
X217878572Y-156029266D01*
X217898748Y-155670000D01*
X217878572Y-155310734D01*
X217818298Y-154955986D01*
X217718684Y-154610218D01*
X217625679Y-154385686D01*
X217580985Y-154277782D01*
X217580983Y-154277778D01*
X217576684Y-154269999D01*
X217406925Y-153962843D01*
X217406923Y-153962841D01*
X217406922Y-153962838D01*
X217406919Y-153962833D01*
X217198702Y-153669381D01*
X217198696Y-153669373D01*
X216958928Y-153401074D01*
X216958925Y-153401071D01*
X216690626Y-153161303D01*
X216690618Y-153161297D01*
X216397166Y-152953080D01*
X216397161Y-152953077D01*
X216082221Y-152779016D01*
X216082217Y-152779014D01*
X215851509Y-152683452D01*
X215749782Y-152641316D01*
X215749778Y-152641314D01*
X215749776Y-152641314D01*
X215404019Y-152541703D01*
X215404010Y-152541701D01*
X215049273Y-152481429D01*
X215049261Y-152481427D01*
X214690000Y-152461252D01*
X214330738Y-152481427D01*
X214330726Y-152481429D01*
X213975989Y-152541701D01*
X213975980Y-152541703D01*
X213630223Y-152641314D01*
X213297782Y-152779014D01*
X213297778Y-152779016D01*
X212982838Y-152953077D01*
X212982833Y-152953080D01*
X212689381Y-153161297D01*
X212689373Y-153161303D01*
X212421074Y-153401071D01*
X212421071Y-153401074D01*
X212181303Y-153669373D01*
X212181297Y-153669381D01*
X211973080Y-153962833D01*
X211973077Y-153962838D01*
X211799016Y-154277778D01*
X211799014Y-154277782D01*
X211661314Y-154610223D01*
X211561703Y-154955980D01*
X211561701Y-154955989D01*
X211501429Y-155310726D01*
X211501427Y-155310738D01*
X211481252Y-155669999D01*
X174728700Y-155669999D01*
X174728700Y-153965728D01*
X174748385Y-153898689D01*
X174777385Y-153868719D01*
X174777068Y-153868361D01*
X174781717Y-153864241D01*
X174782269Y-153863672D01*
X174782675Y-153863391D01*
X174782683Y-153863387D01*
X174910595Y-153750066D01*
X175007671Y-153609427D01*
X175068270Y-153449643D01*
X175083700Y-153322563D01*
X175083700Y-152137437D01*
X175068270Y-152010357D01*
X175007671Y-151850573D01*
X174910595Y-151709934D01*
X174782683Y-151596613D01*
X174631368Y-151517197D01*
X174631367Y-151517196D01*
X174631366Y-151517196D01*
X174519718Y-151489677D01*
X174465445Y-151476300D01*
X174294555Y-151476300D01*
X174253658Y-151486380D01*
X174128633Y-151517196D01*
X173977318Y-151596612D01*
X173849405Y-151709933D01*
X173849403Y-151709936D01*
X173752329Y-151850571D01*
X173691729Y-152010357D01*
X173676300Y-152137434D01*
X173676300Y-153322565D01*
X173691729Y-153449642D01*
X173752329Y-153609428D01*
X173818643Y-153705500D01*
X173849405Y-153750066D01*
X173977317Y-153863387D01*
X174004926Y-153877877D01*
X174055137Y-153926459D01*
X174071300Y-153987673D01*
X174071300Y-155772326D01*
X174051615Y-155839365D01*
X174004926Y-155882122D01*
X173977318Y-155896611D01*
X173977316Y-155896613D01*
X173946562Y-155923859D01*
X173883329Y-155953581D01*
X173864335Y-155955044D01*
X166255665Y-155955044D01*
X166188626Y-155935359D01*
X166173437Y-155923858D01*
X166142683Y-155896612D01*
X166142256Y-155896317D01*
X166142015Y-155896020D01*
X166137069Y-155891638D01*
X166137797Y-155890815D01*
X166098268Y-155842032D01*
X166088700Y-155794270D01*
X166088700Y-153965728D01*
X166108385Y-153898689D01*
X166137385Y-153868719D01*
X166137068Y-153868361D01*
X166141717Y-153864241D01*
X166142269Y-153863672D01*
X166142675Y-153863391D01*
X166142683Y-153863387D01*
X166270595Y-153750066D01*
X166367671Y-153609427D01*
X166428270Y-153449643D01*
X166443700Y-153322563D01*
X166443700Y-153298367D01*
X166694500Y-153298367D01*
X166733021Y-153429559D01*
X166733020Y-153429559D01*
X166806942Y-153544586D01*
X166806946Y-153544590D01*
X166910278Y-153634127D01*
X166910285Y-153634132D01*
X166987453Y-153669373D01*
X167034658Y-153690931D01*
X167135989Y-153705500D01*
X167135992Y-153705500D01*
X167204008Y-153705500D01*
X167204011Y-153705500D01*
X167305342Y-153690931D01*
X167429718Y-153634130D01*
X167533055Y-153544589D01*
X167606978Y-153429561D01*
X167645500Y-153298367D01*
X172474500Y-153298367D01*
X172513021Y-153429559D01*
X172513020Y-153429559D01*
X172586942Y-153544586D01*
X172586946Y-153544590D01*
X172690278Y-153634127D01*
X172690285Y-153634132D01*
X172767453Y-153669373D01*
X172814658Y-153690931D01*
X172915989Y-153705500D01*
X172915992Y-153705500D01*
X172984008Y-153705500D01*
X172984011Y-153705500D01*
X173085342Y-153690931D01*
X173209718Y-153634130D01*
X173313055Y-153544589D01*
X173386978Y-153429561D01*
X173425500Y-153298367D01*
X173425500Y-153161633D01*
X173425402Y-153161300D01*
X173386978Y-153030440D01*
X173386979Y-153030440D01*
X173313057Y-152915413D01*
X173313053Y-152915409D01*
X173209721Y-152825872D01*
X173209714Y-152825867D01*
X173085345Y-152769070D01*
X173085343Y-152769069D01*
X173085342Y-152769069D01*
X173085337Y-152769068D01*
X173085336Y-152769068D01*
X172984011Y-152754500D01*
X172915989Y-152754500D01*
X172915988Y-152754500D01*
X172814663Y-152769068D01*
X172814654Y-152769070D01*
X172690285Y-152825867D01*
X172690278Y-152825872D01*
X172586946Y-152915409D01*
X172586942Y-152915413D01*
X172513021Y-153030440D01*
X172474500Y-153161632D01*
X172474500Y-153298367D01*
X167645500Y-153298367D01*
X167645500Y-153161633D01*
X167645402Y-153161300D01*
X167606978Y-153030440D01*
X167606979Y-153030440D01*
X167533057Y-152915413D01*
X167533053Y-152915409D01*
X167429721Y-152825872D01*
X167429714Y-152825867D01*
X167305345Y-152769070D01*
X167305343Y-152769069D01*
X167305342Y-152769069D01*
X167305337Y-152769068D01*
X167305336Y-152769068D01*
X167204011Y-152754500D01*
X167135989Y-152754500D01*
X167135988Y-152754500D01*
X167034663Y-152769068D01*
X167034654Y-152769070D01*
X166910285Y-152825867D01*
X166910278Y-152825872D01*
X166806946Y-152915409D01*
X166806942Y-152915413D01*
X166733021Y-153030440D01*
X166694500Y-153161632D01*
X166694500Y-153298367D01*
X166443700Y-153298367D01*
X166443700Y-152137437D01*
X166428270Y-152010357D01*
X166367671Y-151850573D01*
X166270595Y-151709934D01*
X166142683Y-151596613D01*
X165991368Y-151517197D01*
X165991367Y-151517196D01*
X165991366Y-151517196D01*
X165879718Y-151489677D01*
X165825445Y-151476300D01*
X165654555Y-151476300D01*
X165613658Y-151486380D01*
X165488633Y-151517196D01*
X165337318Y-151596612D01*
X165209405Y-151709933D01*
X165209403Y-151709936D01*
X165112329Y-151850571D01*
X165051729Y-152010357D01*
X165036300Y-152137434D01*
X165036300Y-153322565D01*
X165051729Y-153449642D01*
X165112329Y-153609428D01*
X165178643Y-153705500D01*
X165209405Y-153750066D01*
X165337317Y-153863387D01*
X165364926Y-153877877D01*
X165415137Y-153926459D01*
X165431300Y-153987673D01*
X165431300Y-155772326D01*
X165411615Y-155839365D01*
X165364926Y-155882122D01*
X165337319Y-155896611D01*
X165209405Y-156009933D01*
X165209403Y-156009936D01*
X165112329Y-156150571D01*
X165051729Y-156310357D01*
X165036300Y-156437434D01*
X165036300Y-157322565D01*
X137575204Y-157322565D01*
X137558556Y-157100421D01*
X137549838Y-157062224D01*
X137498400Y-156836859D01*
X137399635Y-156585209D01*
X137264466Y-156351090D01*
X137095913Y-156139732D01*
X137095912Y-156139731D01*
X137095909Y-156139727D01*
X136897742Y-155955856D01*
X136810842Y-155896609D01*
X136674379Y-155803570D01*
X136674376Y-155803569D01*
X136674374Y-155803567D01*
X136430814Y-155686275D01*
X136172488Y-155606591D01*
X136172482Y-155606589D01*
X135905176Y-155566300D01*
X135905169Y-155566300D01*
X135634831Y-155566300D01*
X135634823Y-155566300D01*
X135367517Y-155606589D01*
X135367511Y-155606591D01*
X135109185Y-155686275D01*
X134865625Y-155803567D01*
X134642257Y-155955856D01*
X134444090Y-156139727D01*
X134275534Y-156351090D01*
X134140365Y-156585208D01*
X134041602Y-156836853D01*
X134041597Y-156836870D01*
X133981443Y-157100421D01*
X133961242Y-157369995D01*
X133961242Y-157370004D01*
X122860104Y-157370004D01*
X122858709Y-154270000D01*
X127061143Y-154270000D01*
X127081725Y-154492122D01*
X127142775Y-154706693D01*
X127242205Y-154906375D01*
X127242210Y-154906383D01*
X127376645Y-155084404D01*
X127541500Y-155234688D01*
X127541502Y-155234690D01*
X127731162Y-155352122D01*
X127731168Y-155352125D01*
X127760216Y-155363378D01*
X127939181Y-155432710D01*
X128158461Y-155473700D01*
X128158464Y-155473700D01*
X128381536Y-155473700D01*
X128381539Y-155473700D01*
X128600819Y-155432710D01*
X128808834Y-155352124D01*
X128998499Y-155234689D01*
X129163356Y-155084402D01*
X129297791Y-154906381D01*
X129397226Y-154706690D01*
X129458274Y-154492127D01*
X129478857Y-154270000D01*
X141561143Y-154270000D01*
X141581725Y-154492122D01*
X141642775Y-154706693D01*
X141742205Y-154906375D01*
X141742210Y-154906383D01*
X141876645Y-155084404D01*
X142041500Y-155234688D01*
X142041502Y-155234690D01*
X142231162Y-155352122D01*
X142231168Y-155352125D01*
X142260216Y-155363378D01*
X142439181Y-155432710D01*
X142658461Y-155473700D01*
X142658464Y-155473700D01*
X142881536Y-155473700D01*
X142881539Y-155473700D01*
X143100819Y-155432710D01*
X143308834Y-155352124D01*
X143498499Y-155234689D01*
X143663356Y-155084402D01*
X143797791Y-154906381D01*
X143897226Y-154706690D01*
X143958274Y-154492127D01*
X143978857Y-154270000D01*
X143958274Y-154047873D01*
X143897226Y-153833310D01*
X143833584Y-153705500D01*
X143797794Y-153633624D01*
X143797789Y-153633616D01*
X143663354Y-153455595D01*
X143498499Y-153305311D01*
X143498497Y-153305309D01*
X143308837Y-153187877D01*
X143308831Y-153187874D01*
X143200762Y-153146008D01*
X143100819Y-153107290D01*
X142881539Y-153066300D01*
X142658461Y-153066300D01*
X142439181Y-153107290D01*
X142389209Y-153126649D01*
X142231168Y-153187874D01*
X142231162Y-153187877D01*
X142041502Y-153305309D01*
X142041500Y-153305311D01*
X141876645Y-153455595D01*
X141742210Y-153633616D01*
X141742205Y-153633624D01*
X141642775Y-153833306D01*
X141581725Y-154047877D01*
X141561143Y-154269999D01*
X141561143Y-154270000D01*
X129478857Y-154270000D01*
X129458274Y-154047873D01*
X129397226Y-153833310D01*
X129333584Y-153705500D01*
X129297794Y-153633624D01*
X129297789Y-153633616D01*
X129163354Y-153455595D01*
X128998499Y-153305311D01*
X128998497Y-153305309D01*
X128808837Y-153187877D01*
X128808831Y-153187874D01*
X128733725Y-153158778D01*
X128673961Y-153135625D01*
X128618562Y-153093054D01*
X128594971Y-153027287D01*
X128610682Y-152959207D01*
X128660706Y-152910428D01*
X128673953Y-152904377D01*
X128808834Y-152852124D01*
X128998499Y-152734689D01*
X129163356Y-152584402D01*
X129297791Y-152406381D01*
X129397226Y-152206690D01*
X129458274Y-151992127D01*
X129478857Y-151770000D01*
X129458274Y-151547873D01*
X129397226Y-151333310D01*
X129395647Y-151330139D01*
X129297794Y-151133624D01*
X129297789Y-151133616D01*
X129163354Y-150955595D01*
X128998499Y-150805311D01*
X128998497Y-150805309D01*
X128833466Y-150703127D01*
X128786830Y-150651099D01*
X128775726Y-150582118D01*
X128803679Y-150518083D01*
X128861814Y-150479327D01*
X128898743Y-150473700D01*
X129290066Y-150473700D01*
X129349476Y-150461882D01*
X129349477Y-150461881D01*
X129349480Y-150461881D01*
X129416860Y-150416860D01*
X129461881Y-150349480D01*
X129473700Y-150290064D01*
X129473700Y-149270000D01*
X141561143Y-149270000D01*
X141581725Y-149492122D01*
X141581725Y-149492124D01*
X141581726Y-149492127D01*
X141638849Y-149692894D01*
X141642775Y-149706693D01*
X141742205Y-149906375D01*
X141742210Y-149906383D01*
X141876645Y-150084404D01*
X142041500Y-150234688D01*
X142041502Y-150234690D01*
X142231162Y-150352122D01*
X142231168Y-150352125D01*
X142260216Y-150363378D01*
X142439181Y-150432710D01*
X142658461Y-150473700D01*
X142658464Y-150473700D01*
X142881536Y-150473700D01*
X142881539Y-150473700D01*
X143100819Y-150432710D01*
X143308834Y-150352124D01*
X143498499Y-150234689D01*
X143663356Y-150084402D01*
X143797791Y-149906381D01*
X143897226Y-149706690D01*
X143958274Y-149492127D01*
X143978857Y-149270000D01*
X143958274Y-149047873D01*
X143897226Y-148833310D01*
X143877611Y-148793918D01*
X143797794Y-148633624D01*
X143797789Y-148633616D01*
X143663354Y-148455595D01*
X143498499Y-148305311D01*
X143498497Y-148305309D01*
X143308837Y-148187877D01*
X143308831Y-148187874D01*
X143200762Y-148146008D01*
X143100819Y-148107290D01*
X142881539Y-148066300D01*
X142658461Y-148066300D01*
X142439181Y-148107290D01*
X142398268Y-148123140D01*
X142231168Y-148187874D01*
X142231162Y-148187877D01*
X142041502Y-148305309D01*
X142041500Y-148305311D01*
X141876645Y-148455595D01*
X141742210Y-148633616D01*
X141742205Y-148633624D01*
X141642775Y-148833306D01*
X141581725Y-149047877D01*
X141561143Y-149269999D01*
X141561143Y-149270000D01*
X129473700Y-149270000D01*
X129473700Y-148249936D01*
X129473699Y-148249936D01*
X129473700Y-148249933D01*
X129461882Y-148190523D01*
X129461881Y-148190520D01*
X129460113Y-148187874D01*
X129416860Y-148123140D01*
X129349480Y-148078119D01*
X129349479Y-148078118D01*
X129349476Y-148078117D01*
X129290066Y-148066300D01*
X129290064Y-148066300D01*
X127249936Y-148066300D01*
X127249934Y-148066300D01*
X127190523Y-148078117D01*
X127190520Y-148078118D01*
X127123140Y-148123140D01*
X127078118Y-148190520D01*
X127078117Y-148190523D01*
X127066300Y-148249933D01*
X127066299Y-148249936D01*
X127066300Y-148249936D01*
X127066300Y-150290064D01*
X127066300Y-150290066D01*
X127066299Y-150290066D01*
X127078117Y-150349476D01*
X127078118Y-150349479D01*
X127079886Y-150352125D01*
X127123140Y-150416860D01*
X127190520Y-150461880D01*
X127190520Y-150461881D01*
X127190523Y-150461882D01*
X127249933Y-150473700D01*
X127641257Y-150473700D01*
X127708296Y-150493385D01*
X127754051Y-150546189D01*
X127763995Y-150615347D01*
X127734970Y-150678903D01*
X127706534Y-150703127D01*
X127541502Y-150805309D01*
X127541500Y-150805311D01*
X127376645Y-150955595D01*
X127242210Y-151133616D01*
X127242205Y-151133624D01*
X127142775Y-151333306D01*
X127081725Y-151547877D01*
X127061143Y-151769999D01*
X127061143Y-151770000D01*
X127081725Y-151992122D01*
X127142775Y-152206693D01*
X127242205Y-152406375D01*
X127242210Y-152406383D01*
X127376645Y-152584404D01*
X127541500Y-152734688D01*
X127541502Y-152734690D01*
X127731162Y-152852122D01*
X127731168Y-152852125D01*
X127791377Y-152875450D01*
X127866036Y-152904373D01*
X127921438Y-152946946D01*
X127945028Y-153012713D01*
X127929317Y-153080793D01*
X127879293Y-153129572D01*
X127866040Y-153135625D01*
X127841003Y-153145324D01*
X127731168Y-153187874D01*
X127731162Y-153187877D01*
X127541502Y-153305309D01*
X127541500Y-153305311D01*
X127376645Y-153455595D01*
X127242210Y-153633616D01*
X127242205Y-153633624D01*
X127142775Y-153833306D01*
X127081725Y-154047877D01*
X127061143Y-154269999D01*
X127061143Y-154270000D01*
X122858709Y-154270000D01*
X122855902Y-148030000D01*
X162386306Y-148030000D01*
X162396481Y-148107290D01*
X162406195Y-148181070D01*
X162406196Y-148181074D01*
X162464504Y-148321844D01*
X162464505Y-148321846D01*
X162464506Y-148321847D01*
X162557266Y-148442734D01*
X162678153Y-148535494D01*
X162818929Y-148593805D01*
X162970000Y-148613694D01*
X163121071Y-148593805D01*
X163261847Y-148535494D01*
X163382734Y-148442734D01*
X163475494Y-148321847D01*
X163533805Y-148181071D01*
X163553694Y-148030000D01*
X163533805Y-147878929D01*
X163475494Y-147738153D01*
X163382734Y-147617266D01*
X163261847Y-147524506D01*
X163261846Y-147524505D01*
X163261844Y-147524504D01*
X163121074Y-147466196D01*
X163121072Y-147466195D01*
X163121071Y-147466195D01*
X162970000Y-147446306D01*
X162818929Y-147466195D01*
X162818925Y-147466196D01*
X162678155Y-147524504D01*
X162557266Y-147617266D01*
X162464504Y-147738155D01*
X162406196Y-147878925D01*
X162406195Y-147878929D01*
X162386306Y-148030000D01*
X122855902Y-148030000D01*
X122855065Y-146170004D01*
X133961242Y-146170004D01*
X133981443Y-146439578D01*
X133981444Y-146439581D01*
X134041600Y-146703141D01*
X134140365Y-146954791D01*
X134275534Y-147188910D01*
X134411671Y-147359620D01*
X134444090Y-147400272D01*
X134631163Y-147573849D01*
X134642258Y-147584144D01*
X134865621Y-147736430D01*
X135109186Y-147853725D01*
X135367513Y-147933409D01*
X135367514Y-147933409D01*
X135367517Y-147933410D01*
X135634823Y-147973699D01*
X135634828Y-147973699D01*
X135634831Y-147973700D01*
X135634832Y-147973700D01*
X135905168Y-147973700D01*
X135905169Y-147973700D01*
X135905176Y-147973699D01*
X136172482Y-147933410D01*
X136172483Y-147933409D01*
X136172487Y-147933409D01*
X136430814Y-147853725D01*
X136674379Y-147736430D01*
X136897742Y-147584144D01*
X137095913Y-147400268D01*
X137264466Y-147188910D01*
X137399635Y-146954791D01*
X137498400Y-146703141D01*
X137558556Y-146439581D01*
X137578758Y-146170000D01*
X137558556Y-145900419D01*
X137498400Y-145636859D01*
X137399635Y-145385209D01*
X137264466Y-145151090D01*
X137095913Y-144939732D01*
X137095912Y-144939731D01*
X137095909Y-144939727D01*
X136897742Y-144755856D01*
X136897742Y-144755855D01*
X136674379Y-144603570D01*
X136674376Y-144603569D01*
X136674374Y-144603567D01*
X136430814Y-144486275D01*
X136172488Y-144406591D01*
X136172482Y-144406589D01*
X135905176Y-144366300D01*
X135905169Y-144366300D01*
X135634831Y-144366300D01*
X135634823Y-144366300D01*
X135367517Y-144406589D01*
X135367511Y-144406591D01*
X135109185Y-144486275D01*
X134865625Y-144603567D01*
X134642257Y-144755856D01*
X134444090Y-144939727D01*
X134275534Y-145151090D01*
X134140365Y-145385208D01*
X134041602Y-145636853D01*
X134041597Y-145636870D01*
X133981443Y-145900421D01*
X133961242Y-146169995D01*
X133961242Y-146170004D01*
X122855065Y-146170004D01*
X122853832Y-143430000D01*
X167416306Y-143430000D01*
X167432104Y-143550000D01*
X167436195Y-143581070D01*
X167436196Y-143581074D01*
X167494504Y-143721844D01*
X167494505Y-143721846D01*
X167494506Y-143721847D01*
X167587266Y-143842734D01*
X167708153Y-143935494D01*
X167848929Y-143993805D01*
X168000000Y-144013694D01*
X168151071Y-143993805D01*
X168291847Y-143935494D01*
X168412734Y-143842734D01*
X168505494Y-143721847D01*
X168563805Y-143581071D01*
X168567896Y-143550000D01*
X170566306Y-143550000D01*
X170586195Y-143701070D01*
X170586196Y-143701074D01*
X170644504Y-143841844D01*
X170644505Y-143841846D01*
X170644506Y-143841847D01*
X170737266Y-143962734D01*
X170858153Y-144055494D01*
X170998929Y-144113805D01*
X171150000Y-144133694D01*
X171301071Y-144113805D01*
X171441847Y-144055494D01*
X171562734Y-143962734D01*
X171655494Y-143841847D01*
X171713805Y-143701071D01*
X171733694Y-143550000D01*
X171713805Y-143398929D01*
X171655494Y-143258153D01*
X171641564Y-143239999D01*
X174586306Y-143239999D01*
X174606195Y-143391070D01*
X174606196Y-143391074D01*
X174664504Y-143531844D01*
X174664505Y-143531846D01*
X174664506Y-143531847D01*
X174757266Y-143652734D01*
X174878153Y-143745494D01*
X175018929Y-143803805D01*
X175170000Y-143823694D01*
X175321071Y-143803805D01*
X175461847Y-143745494D01*
X175582734Y-143652734D01*
X175675494Y-143531847D01*
X175733805Y-143391071D01*
X175753694Y-143240000D01*
X175733805Y-143088929D01*
X175691790Y-142987495D01*
X175675495Y-142948155D01*
X175675494Y-142948154D01*
X175675494Y-142948153D01*
X175582734Y-142827266D01*
X175461847Y-142734506D01*
X175461846Y-142734505D01*
X175461844Y-142734504D01*
X175321074Y-142676196D01*
X175321072Y-142676195D01*
X175321071Y-142676195D01*
X175170000Y-142656306D01*
X175018929Y-142676195D01*
X175018925Y-142676196D01*
X174878155Y-142734504D01*
X174757266Y-142827266D01*
X174664504Y-142948155D01*
X174606196Y-143088925D01*
X174606195Y-143088929D01*
X174586306Y-143239999D01*
X171641564Y-143239999D01*
X171562734Y-143137266D01*
X171441847Y-143044506D01*
X171441846Y-143044505D01*
X171441844Y-143044504D01*
X171301074Y-142986196D01*
X171301072Y-142986195D01*
X171301071Y-142986195D01*
X171150000Y-142966306D01*
X170998929Y-142986195D01*
X170998925Y-142986196D01*
X170858155Y-143044504D01*
X170737266Y-143137266D01*
X170644504Y-143258155D01*
X170586196Y-143398925D01*
X170586195Y-143398929D01*
X170566306Y-143550000D01*
X168567896Y-143550000D01*
X168583694Y-143430000D01*
X168563805Y-143278929D01*
X168505494Y-143138153D01*
X168412734Y-143017266D01*
X168291847Y-142924506D01*
X168291846Y-142924505D01*
X168291844Y-142924504D01*
X168151074Y-142866196D01*
X168151072Y-142866195D01*
X168151071Y-142866195D01*
X168000000Y-142846306D01*
X167848929Y-142866195D01*
X167848925Y-142866196D01*
X167708155Y-142924504D01*
X167587266Y-143017266D01*
X167494504Y-143138155D01*
X167436196Y-143278925D01*
X167436195Y-143278929D01*
X167416306Y-143430000D01*
X122853832Y-143430000D01*
X122853405Y-142481999D01*
X181936306Y-142481999D01*
X181956195Y-142633070D01*
X181956196Y-142633074D01*
X182014504Y-142773844D01*
X182014505Y-142773846D01*
X182014506Y-142773847D01*
X182107266Y-142894734D01*
X182228153Y-142987494D01*
X182368929Y-143045805D01*
X182520000Y-143065694D01*
X182671071Y-143045805D01*
X182811847Y-142987494D01*
X182932734Y-142894734D01*
X183025494Y-142773847D01*
X183083805Y-142633071D01*
X183103694Y-142482000D01*
X183083805Y-142330929D01*
X183025494Y-142190153D01*
X182932734Y-142069266D01*
X182811847Y-141976506D01*
X182811846Y-141976505D01*
X182811844Y-141976504D01*
X182671074Y-141918196D01*
X182671072Y-141918195D01*
X182671071Y-141918195D01*
X182520000Y-141898306D01*
X182368929Y-141918195D01*
X182368925Y-141918196D01*
X182228155Y-141976504D01*
X182107266Y-142069266D01*
X182014504Y-142190155D01*
X181956196Y-142330925D01*
X181956195Y-142330929D01*
X181936306Y-142481999D01*
X122853405Y-142481999D01*
X122852140Y-139670000D01*
X173926306Y-139670000D01*
X173926344Y-139670284D01*
X173946195Y-139821070D01*
X173946196Y-139821074D01*
X174004504Y-139961844D01*
X174004505Y-139961846D01*
X174004506Y-139961847D01*
X174097266Y-140082734D01*
X174218153Y-140175494D01*
X174358929Y-140233805D01*
X174510000Y-140253694D01*
X174661071Y-140233805D01*
X174801847Y-140175494D01*
X174922734Y-140082734D01*
X175015494Y-139961847D01*
X175073805Y-139821071D01*
X175093694Y-139670000D01*
X175073805Y-139518929D01*
X175015494Y-139378153D01*
X174922734Y-139257266D01*
X174801847Y-139164506D01*
X174801846Y-139164505D01*
X174801844Y-139164504D01*
X174661074Y-139106196D01*
X174661072Y-139106195D01*
X174661071Y-139106195D01*
X174510000Y-139086306D01*
X174358929Y-139106195D01*
X174358925Y-139106196D01*
X174218155Y-139164504D01*
X174097266Y-139257266D01*
X174004504Y-139378155D01*
X173946196Y-139518925D01*
X173946195Y-139518929D01*
X173926306Y-139670000D01*
X122852140Y-139670000D01*
X122851739Y-138778833D01*
X126395624Y-138778833D01*
X126405944Y-138942860D01*
X126456732Y-139099171D01*
X126456734Y-139099175D01*
X126544798Y-139237940D01*
X126664603Y-139350445D01*
X126664611Y-139350451D01*
X126744860Y-139394568D01*
X126808632Y-139429627D01*
X126967823Y-139470500D01*
X126967827Y-139470500D01*
X127090923Y-139470500D01*
X127090925Y-139470500D01*
X127090930Y-139470499D01*
X127090934Y-139470499D01*
X127104174Y-139468826D01*
X127213058Y-139455071D01*
X127365871Y-139394568D01*
X127388462Y-139378155D01*
X127498835Y-139297965D01*
X127498835Y-139297963D01*
X127498837Y-139297963D01*
X127603600Y-139171326D01*
X127673579Y-139022613D01*
X127704376Y-138861170D01*
X127694056Y-138697140D01*
X127643268Y-138540829D01*
X127555202Y-138402060D01*
X127491281Y-138342034D01*
X127435396Y-138289554D01*
X127435388Y-138289548D01*
X127291371Y-138210374D01*
X127291361Y-138210371D01*
X127132180Y-138169500D01*
X127132177Y-138169500D01*
X127009075Y-138169500D01*
X127009065Y-138169500D01*
X126886942Y-138184929D01*
X126886939Y-138184929D01*
X126734130Y-138245431D01*
X126734121Y-138245436D01*
X126601164Y-138342034D01*
X126601162Y-138342037D01*
X126496400Y-138468673D01*
X126426420Y-138617387D01*
X126411207Y-138697139D01*
X126395624Y-138778830D01*
X126395624Y-138778832D01*
X126395624Y-138778833D01*
X122851739Y-138778833D01*
X122851462Y-138164000D01*
X185825306Y-138164000D01*
X185828062Y-138184929D01*
X185845195Y-138315070D01*
X185845196Y-138315074D01*
X185903504Y-138455844D01*
X185903505Y-138455846D01*
X185903506Y-138455847D01*
X185996266Y-138576734D01*
X186117153Y-138669494D01*
X186257929Y-138727805D01*
X186409000Y-138747694D01*
X186560071Y-138727805D01*
X186700847Y-138669494D01*
X186821734Y-138576734D01*
X186914494Y-138455847D01*
X186972805Y-138315071D01*
X186992694Y-138164000D01*
X186972805Y-138012929D01*
X186914494Y-137872153D01*
X186821734Y-137751266D01*
X186700847Y-137658506D01*
X186700846Y-137658505D01*
X186700844Y-137658504D01*
X186560074Y-137600196D01*
X186560072Y-137600195D01*
X186560071Y-137600195D01*
X186409000Y-137580306D01*
X186257929Y-137600195D01*
X186257925Y-137600196D01*
X186117155Y-137658504D01*
X185996266Y-137751266D01*
X185903504Y-137872155D01*
X185845196Y-138012925D01*
X185845195Y-138012929D01*
X185834548Y-138093804D01*
X185825306Y-138164000D01*
X122851462Y-138164000D01*
X122850988Y-137110000D01*
X140546306Y-137110000D01*
X140566195Y-137261070D01*
X140566196Y-137261074D01*
X140624504Y-137401844D01*
X140624505Y-137401846D01*
X140624506Y-137401847D01*
X140717266Y-137522734D01*
X140838153Y-137615494D01*
X140978929Y-137673805D01*
X141130000Y-137693694D01*
X141281071Y-137673805D01*
X141421847Y-137615494D01*
X141533265Y-137530000D01*
X163426306Y-137530000D01*
X163445239Y-137673805D01*
X163446195Y-137681070D01*
X163446196Y-137681074D01*
X163504504Y-137821844D01*
X163504505Y-137821846D01*
X163504506Y-137821847D01*
X163597266Y-137942734D01*
X163718153Y-138035494D01*
X163858929Y-138093805D01*
X164010000Y-138113694D01*
X164161071Y-138093805D01*
X164301847Y-138035494D01*
X164422734Y-137942734D01*
X164515494Y-137821847D01*
X164573805Y-137681071D01*
X164593694Y-137530000D01*
X164573805Y-137378929D01*
X164524987Y-137261071D01*
X164515495Y-137238155D01*
X164515494Y-137238154D01*
X164515494Y-137238153D01*
X164422734Y-137117266D01*
X164301847Y-137024506D01*
X164301846Y-137024505D01*
X164301844Y-137024504D01*
X164161074Y-136966196D01*
X164161072Y-136966195D01*
X164161071Y-136966195D01*
X164010000Y-136946306D01*
X163858929Y-136966195D01*
X163858925Y-136966196D01*
X163718155Y-137024504D01*
X163597266Y-137117266D01*
X163504504Y-137238155D01*
X163446196Y-137378925D01*
X163446195Y-137378929D01*
X163427263Y-137522734D01*
X163426306Y-137530000D01*
X141533265Y-137530000D01*
X141542734Y-137522734D01*
X141635494Y-137401847D01*
X141693805Y-137261071D01*
X141713694Y-137110000D01*
X141693805Y-136958929D01*
X141646666Y-136845125D01*
X141635495Y-136818155D01*
X141635494Y-136818154D01*
X141635494Y-136818153D01*
X141542734Y-136697266D01*
X141421847Y-136604506D01*
X141421846Y-136604505D01*
X141421844Y-136604504D01*
X141281074Y-136546196D01*
X141281072Y-136546195D01*
X141281071Y-136546195D01*
X141130000Y-136526306D01*
X140978929Y-136546195D01*
X140978925Y-136546196D01*
X140838155Y-136604504D01*
X140717266Y-136697266D01*
X140624504Y-136818155D01*
X140566196Y-136958925D01*
X140566195Y-136958929D01*
X140546306Y-137110000D01*
X122850988Y-137110000D01*
X122848140Y-130778833D01*
X126395624Y-130778833D01*
X126405944Y-130942860D01*
X126456732Y-131099171D01*
X126456734Y-131099175D01*
X126544798Y-131237940D01*
X126664603Y-131350445D01*
X126664611Y-131350451D01*
X126764063Y-131405125D01*
X126808632Y-131429627D01*
X126967823Y-131470500D01*
X126967827Y-131470500D01*
X127090923Y-131470500D01*
X127090925Y-131470500D01*
X127090930Y-131470499D01*
X127090934Y-131470499D01*
X127104174Y-131468826D01*
X127213058Y-131455071D01*
X127365871Y-131394568D01*
X127395923Y-131372734D01*
X127498835Y-131297965D01*
X127498835Y-131297963D01*
X127498837Y-131297963D01*
X127603600Y-131171326D01*
X127673579Y-131022613D01*
X127685523Y-130960000D01*
X185746306Y-130960000D01*
X185766195Y-131111070D01*
X185766196Y-131111074D01*
X185824504Y-131251844D01*
X185824505Y-131251846D01*
X185824506Y-131251847D01*
X185917266Y-131372734D01*
X186038153Y-131465494D01*
X186038154Y-131465494D01*
X186038155Y-131465495D01*
X186085078Y-131484931D01*
X186178929Y-131523805D01*
X186330000Y-131543694D01*
X186481071Y-131523805D01*
X186621847Y-131465494D01*
X186742734Y-131372734D01*
X186835494Y-131251847D01*
X186893805Y-131111071D01*
X186913694Y-130960000D01*
X186893805Y-130808929D01*
X186835494Y-130668153D01*
X186742734Y-130547266D01*
X186621847Y-130454506D01*
X186621846Y-130454505D01*
X186621844Y-130454504D01*
X186481074Y-130396196D01*
X186481072Y-130396195D01*
X186481071Y-130396195D01*
X186330000Y-130376306D01*
X186178929Y-130396195D01*
X186178925Y-130396196D01*
X186038155Y-130454504D01*
X185917266Y-130547266D01*
X185824504Y-130668155D01*
X185766196Y-130808925D01*
X185766195Y-130808929D01*
X185746306Y-130960000D01*
X127685523Y-130960000D01*
X127704376Y-130861170D01*
X127694056Y-130697140D01*
X127643268Y-130540829D01*
X127555202Y-130402060D01*
X127555201Y-130402059D01*
X127435396Y-130289554D01*
X127435388Y-130289548D01*
X127291371Y-130210374D01*
X127291361Y-130210371D01*
X127132180Y-130169500D01*
X127132177Y-130169500D01*
X127009075Y-130169500D01*
X127009065Y-130169500D01*
X126886942Y-130184929D01*
X126886939Y-130184929D01*
X126734130Y-130245431D01*
X126734121Y-130245436D01*
X126601164Y-130342034D01*
X126601162Y-130342037D01*
X126496400Y-130468673D01*
X126426420Y-130617387D01*
X126416736Y-130668155D01*
X126395624Y-130778830D01*
X126395624Y-130778832D01*
X126395624Y-130778833D01*
X122848140Y-130778833D01*
X122847434Y-129210066D01*
X166986299Y-129210066D01*
X166998117Y-129269476D01*
X166998118Y-129269479D01*
X167013057Y-129291837D01*
X167043140Y-129336860D01*
X167094587Y-129371235D01*
X167110520Y-129381881D01*
X167110523Y-129381882D01*
X167169933Y-129393700D01*
X167169936Y-129393700D01*
X168910066Y-129393700D01*
X168969476Y-129381882D01*
X168969477Y-129381881D01*
X168969480Y-129381881D01*
X169036860Y-129336860D01*
X169081881Y-129269480D01*
X169081882Y-129269476D01*
X169093700Y-129210066D01*
X169093700Y-128340000D01*
X169521202Y-128340000D01*
X169541546Y-128546559D01*
X169553010Y-128584351D01*
X169601798Y-128745184D01*
X169601799Y-128745186D01*
X169601800Y-128745188D01*
X169601801Y-128745191D01*
X169699638Y-128928231D01*
X169699642Y-128928238D01*
X169831316Y-129088683D01*
X169991761Y-129220357D01*
X169991768Y-129220361D01*
X170174808Y-129318198D01*
X170174809Y-129318198D01*
X170174816Y-129318202D01*
X170373439Y-129378453D01*
X170373438Y-129378453D01*
X170393783Y-129380456D01*
X170580000Y-129398798D01*
X170786561Y-129378453D01*
X170985184Y-129318202D01*
X171168237Y-129220358D01*
X171328683Y-129088683D01*
X171460358Y-128928237D01*
X171558202Y-128745184D01*
X171618453Y-128546561D01*
X171638798Y-128340000D01*
X171618453Y-128133439D01*
X171558202Y-127934816D01*
X171558189Y-127934792D01*
X171460361Y-127751768D01*
X171460357Y-127751761D01*
X171328683Y-127591316D01*
X171168238Y-127459642D01*
X171168231Y-127459638D01*
X170985191Y-127361801D01*
X170985188Y-127361800D01*
X170985187Y-127361799D01*
X170985184Y-127361798D01*
X170786561Y-127301547D01*
X170786559Y-127301546D01*
X170786561Y-127301546D01*
X170580000Y-127281202D01*
X170373440Y-127301546D01*
X170263514Y-127334892D01*
X170174816Y-127361798D01*
X170174813Y-127361799D01*
X170174811Y-127361800D01*
X170174808Y-127361801D01*
X169991768Y-127459638D01*
X169991761Y-127459642D01*
X169831316Y-127591316D01*
X169699642Y-127751761D01*
X169699638Y-127751768D01*
X169601801Y-127934808D01*
X169601800Y-127934811D01*
X169601799Y-127934813D01*
X169601798Y-127934816D01*
X169577121Y-128016165D01*
X169541546Y-128133440D01*
X169521202Y-128340000D01*
X169093700Y-128340000D01*
X169093700Y-127469933D01*
X169081882Y-127410523D01*
X169081881Y-127410520D01*
X169067562Y-127389090D01*
X169036860Y-127343140D01*
X168975130Y-127301894D01*
X168969479Y-127298118D01*
X168969476Y-127298117D01*
X168910066Y-127286300D01*
X168910064Y-127286300D01*
X167169936Y-127286300D01*
X167169934Y-127286300D01*
X167110523Y-127298117D01*
X167110520Y-127298118D01*
X167043140Y-127343140D01*
X166998118Y-127410520D01*
X166998117Y-127410523D01*
X166986300Y-127469933D01*
X166986300Y-127469935D01*
X166986300Y-127469936D01*
X166986300Y-129210064D01*
X166986300Y-129210066D01*
X166986299Y-129210066D01*
X122847434Y-129210066D01*
X122846448Y-127019091D01*
X171437498Y-127019091D01*
X171448082Y-127058592D01*
X171449253Y-127063872D01*
X171456356Y-127104154D01*
X171458028Y-127108746D01*
X171465436Y-127126630D01*
X171467501Y-127131058D01*
X171490959Y-127164560D01*
X171493865Y-127169122D01*
X171514317Y-127204544D01*
X171545649Y-127230835D01*
X171549639Y-127234491D01*
X172114892Y-127799744D01*
X172148377Y-127861067D01*
X172143520Y-127928972D01*
X172143567Y-127928987D01*
X172143505Y-127929190D01*
X172143393Y-127930759D01*
X172141805Y-127934792D01*
X172081546Y-128133440D01*
X172061202Y-128340000D01*
X172081546Y-128546559D01*
X172093010Y-128584351D01*
X172141798Y-128745184D01*
X172141799Y-128745186D01*
X172141800Y-128745188D01*
X172141801Y-128745191D01*
X172239638Y-128928231D01*
X172239642Y-128928238D01*
X172371316Y-129088683D01*
X172531761Y-129220357D01*
X172531768Y-129220361D01*
X172714808Y-129318198D01*
X172714809Y-129318198D01*
X172714816Y-129318202D01*
X172913439Y-129378453D01*
X172913438Y-129378453D01*
X172931958Y-129380277D01*
X173120000Y-129398798D01*
X173326561Y-129378453D01*
X173525184Y-129318202D01*
X173708237Y-129220358D01*
X173868683Y-129088683D01*
X174000358Y-128928237D01*
X174098202Y-128745184D01*
X174158453Y-128546561D01*
X174178798Y-128340000D01*
X174178798Y-128339999D01*
X174601202Y-128339999D01*
X174621546Y-128546559D01*
X174633010Y-128584351D01*
X174681798Y-128745184D01*
X174681799Y-128745186D01*
X174681800Y-128745188D01*
X174681801Y-128745191D01*
X174779638Y-128928231D01*
X174779642Y-128928238D01*
X174911316Y-129088683D01*
X175071761Y-129220357D01*
X175071768Y-129220361D01*
X175254808Y-129318198D01*
X175254809Y-129318198D01*
X175254816Y-129318202D01*
X175453439Y-129378453D01*
X175453438Y-129378453D01*
X175471958Y-129380277D01*
X175660000Y-129398798D01*
X175866561Y-129378453D01*
X176065184Y-129318202D01*
X176248237Y-129220358D01*
X176408683Y-129088683D01*
X176540358Y-128928237D01*
X176638202Y-128745184D01*
X176698453Y-128546561D01*
X176718798Y-128340000D01*
X176718798Y-128339999D01*
X177141202Y-128339999D01*
X177161546Y-128546559D01*
X177173010Y-128584351D01*
X177221798Y-128745184D01*
X177221799Y-128745186D01*
X177221800Y-128745188D01*
X177221801Y-128745191D01*
X177319638Y-128928231D01*
X177319642Y-128928238D01*
X177451316Y-129088683D01*
X177611761Y-129220357D01*
X177611768Y-129220361D01*
X177794808Y-129318198D01*
X177794809Y-129318198D01*
X177794816Y-129318202D01*
X177993439Y-129378453D01*
X177993438Y-129378453D01*
X178011958Y-129380277D01*
X178200000Y-129398798D01*
X178406561Y-129378453D01*
X178605184Y-129318202D01*
X178788237Y-129220358D01*
X178948683Y-129088683D01*
X179080358Y-128928237D01*
X179178202Y-128745184D01*
X179238453Y-128546561D01*
X179258798Y-128340000D01*
X179258798Y-128339999D01*
X179681202Y-128339999D01*
X179701546Y-128546559D01*
X179713010Y-128584351D01*
X179761798Y-128745184D01*
X179761799Y-128745186D01*
X179761800Y-128745188D01*
X179761801Y-128745191D01*
X179859638Y-128928231D01*
X179859642Y-128928238D01*
X179991316Y-129088683D01*
X180151761Y-129220357D01*
X180151768Y-129220361D01*
X180334808Y-129318198D01*
X180334809Y-129318198D01*
X180334816Y-129318202D01*
X180533439Y-129378453D01*
X180533438Y-129378453D01*
X180551958Y-129380277D01*
X180740000Y-129398798D01*
X180946561Y-129378453D01*
X181145184Y-129318202D01*
X181328237Y-129220358D01*
X181488683Y-129088683D01*
X181620358Y-128928237D01*
X181718202Y-128745184D01*
X181736974Y-128683298D01*
X181775270Y-128624862D01*
X181839082Y-128596405D01*
X181908149Y-128606964D01*
X181960543Y-128653188D01*
X181975409Y-128687201D01*
X182006567Y-128803486D01*
X182006570Y-128803492D01*
X182106399Y-129017578D01*
X182241894Y-129211082D01*
X182408917Y-129378105D01*
X182602421Y-129513600D01*
X182816507Y-129613429D01*
X182816516Y-129613433D01*
X183030000Y-129670634D01*
X183030000Y-128952301D01*
X183049685Y-128885262D01*
X183102489Y-128839507D01*
X183171647Y-128829563D01*
X183244237Y-128840000D01*
X183244238Y-128840000D01*
X183315762Y-128840000D01*
X183315763Y-128840000D01*
X183388353Y-128829563D01*
X183457512Y-128839507D01*
X183510315Y-128885262D01*
X183530000Y-128952301D01*
X183530000Y-129670633D01*
X183743483Y-129613433D01*
X183743492Y-129613429D01*
X183957578Y-129513600D01*
X184151082Y-129378105D01*
X184318105Y-129211082D01*
X184453600Y-129017578D01*
X184553429Y-128803492D01*
X184553432Y-128803486D01*
X184602597Y-128620000D01*
X187196306Y-128620000D01*
X187215389Y-128764952D01*
X187216195Y-128771070D01*
X187216196Y-128771074D01*
X187274504Y-128911844D01*
X187274505Y-128911846D01*
X187274506Y-128911847D01*
X187367266Y-129032734D01*
X187488153Y-129125494D01*
X187628929Y-129183805D01*
X187780000Y-129203694D01*
X187931071Y-129183805D01*
X188071847Y-129125494D01*
X188192734Y-129032734D01*
X188285494Y-128911847D01*
X188343805Y-128771071D01*
X188363694Y-128620000D01*
X188343805Y-128468929D01*
X188285494Y-128328153D01*
X188192734Y-128207266D01*
X188071847Y-128114506D01*
X188071846Y-128114505D01*
X188071844Y-128114504D01*
X187931074Y-128056196D01*
X187931072Y-128056195D01*
X187931071Y-128056195D01*
X187780000Y-128036306D01*
X187628929Y-128056195D01*
X187628925Y-128056196D01*
X187488155Y-128114504D01*
X187367266Y-128207266D01*
X187274504Y-128328155D01*
X187216196Y-128468925D01*
X187216195Y-128468929D01*
X187196306Y-128620000D01*
X184602597Y-128620000D01*
X184610636Y-128590000D01*
X183893347Y-128590000D01*
X183826308Y-128570315D01*
X183780553Y-128517511D01*
X183770609Y-128448353D01*
X183774369Y-128431067D01*
X183780000Y-128411888D01*
X183780000Y-128268111D01*
X183774369Y-128248933D01*
X183774370Y-128179064D01*
X183812145Y-128120286D01*
X183875701Y-128091262D01*
X183893347Y-128090000D01*
X184610636Y-128090000D01*
X184610635Y-128089999D01*
X184553432Y-127876513D01*
X184553429Y-127876507D01*
X184453600Y-127662422D01*
X184453599Y-127662420D01*
X184318113Y-127468926D01*
X184318108Y-127468920D01*
X184151082Y-127301894D01*
X183957578Y-127166399D01*
X183743492Y-127066570D01*
X183743486Y-127066567D01*
X183530000Y-127009364D01*
X183530000Y-127727698D01*
X183510315Y-127794737D01*
X183457511Y-127840492D01*
X183388355Y-127850436D01*
X183315766Y-127840000D01*
X183315763Y-127840000D01*
X183244237Y-127840000D01*
X183244233Y-127840000D01*
X183171645Y-127850436D01*
X183102487Y-127840492D01*
X183049684Y-127794736D01*
X183030000Y-127727698D01*
X183030000Y-127009364D01*
X183029999Y-127009364D01*
X182816513Y-127066567D01*
X182816507Y-127066570D01*
X182602422Y-127166399D01*
X182602420Y-127166400D01*
X182408926Y-127301886D01*
X182408920Y-127301891D01*
X182241891Y-127468920D01*
X182241886Y-127468926D01*
X182106400Y-127662420D01*
X182106399Y-127662422D01*
X182006570Y-127876507D01*
X182006567Y-127876514D01*
X181975409Y-127992798D01*
X181939044Y-128052458D01*
X181876197Y-128082987D01*
X181806821Y-128074692D01*
X181752943Y-128030207D01*
X181736975Y-127996703D01*
X181718202Y-127934816D01*
X181718189Y-127934792D01*
X181620361Y-127751768D01*
X181620357Y-127751761D01*
X181488683Y-127591316D01*
X181328238Y-127459642D01*
X181328231Y-127459638D01*
X181145191Y-127361801D01*
X181145188Y-127361800D01*
X181145187Y-127361799D01*
X181145184Y-127361798D01*
X180946561Y-127301547D01*
X180946559Y-127301546D01*
X180946561Y-127301546D01*
X180740000Y-127281202D01*
X180533440Y-127301546D01*
X180423514Y-127334892D01*
X180334816Y-127361798D01*
X180334813Y-127361799D01*
X180334811Y-127361800D01*
X180334808Y-127361801D01*
X180151768Y-127459638D01*
X180151761Y-127459642D01*
X179991316Y-127591316D01*
X179859642Y-127751761D01*
X179859638Y-127751768D01*
X179761801Y-127934808D01*
X179761800Y-127934811D01*
X179761799Y-127934813D01*
X179761798Y-127934816D01*
X179737121Y-128016165D01*
X179701546Y-128133440D01*
X179681202Y-128339999D01*
X179258798Y-128339999D01*
X179238453Y-128133439D01*
X179178202Y-127934816D01*
X179178189Y-127934792D01*
X179080361Y-127751768D01*
X179080357Y-127751761D01*
X178948683Y-127591316D01*
X178788238Y-127459642D01*
X178788231Y-127459638D01*
X178605191Y-127361801D01*
X178605188Y-127361800D01*
X178605187Y-127361799D01*
X178605184Y-127361798D01*
X178406561Y-127301547D01*
X178406559Y-127301546D01*
X178406561Y-127301546D01*
X178200000Y-127281202D01*
X177993440Y-127301546D01*
X177883514Y-127334892D01*
X177794816Y-127361798D01*
X177794813Y-127361799D01*
X177794811Y-127361800D01*
X177794808Y-127361801D01*
X177611768Y-127459638D01*
X177611761Y-127459642D01*
X177451316Y-127591316D01*
X177319642Y-127751761D01*
X177319638Y-127751768D01*
X177221801Y-127934808D01*
X177221800Y-127934811D01*
X177221799Y-127934813D01*
X177221798Y-127934816D01*
X177197121Y-128016165D01*
X177161546Y-128133440D01*
X177141202Y-128339999D01*
X176718798Y-128339999D01*
X176698453Y-128133439D01*
X176638202Y-127934816D01*
X176638189Y-127934792D01*
X176540361Y-127751768D01*
X176540357Y-127751761D01*
X176408683Y-127591316D01*
X176248238Y-127459642D01*
X176248231Y-127459638D01*
X176065191Y-127361801D01*
X176065188Y-127361800D01*
X176065187Y-127361799D01*
X176065184Y-127361798D01*
X175866561Y-127301547D01*
X175866559Y-127301546D01*
X175866561Y-127301546D01*
X175678519Y-127283026D01*
X175660000Y-127281202D01*
X175659999Y-127281202D01*
X175453440Y-127301546D01*
X175343514Y-127334892D01*
X175254816Y-127361798D01*
X175254813Y-127361799D01*
X175254811Y-127361800D01*
X175254808Y-127361801D01*
X175071768Y-127459638D01*
X175071761Y-127459642D01*
X174911316Y-127591316D01*
X174779642Y-127751761D01*
X174779638Y-127751768D01*
X174681801Y-127934808D01*
X174681800Y-127934811D01*
X174681799Y-127934813D01*
X174681798Y-127934816D01*
X174657121Y-128016165D01*
X174621546Y-128133440D01*
X174601202Y-128339999D01*
X174178798Y-128339999D01*
X174158453Y-128133439D01*
X174098202Y-127934816D01*
X174098189Y-127934792D01*
X174000361Y-127751768D01*
X174000357Y-127751761D01*
X173868683Y-127591316D01*
X173708238Y-127459642D01*
X173708231Y-127459638D01*
X173525191Y-127361801D01*
X173525188Y-127361800D01*
X173525187Y-127361799D01*
X173525184Y-127361798D01*
X173326561Y-127301547D01*
X173326559Y-127301546D01*
X173326561Y-127301546D01*
X173120000Y-127281202D01*
X172913440Y-127301546D01*
X172818942Y-127330211D01*
X172714816Y-127361798D01*
X172714812Y-127361799D01*
X172708987Y-127363567D01*
X172708647Y-127362446D01*
X172645391Y-127369238D01*
X172582916Y-127337954D01*
X172579744Y-127334892D01*
X172135019Y-126890167D01*
X172101534Y-126828844D01*
X172098700Y-126802486D01*
X172098700Y-111910000D01*
X178916306Y-111910000D01*
X178936195Y-112061070D01*
X178936196Y-112061074D01*
X178994504Y-112201844D01*
X178994505Y-112201846D01*
X178994506Y-112201847D01*
X179087266Y-112322734D01*
X179208153Y-112415494D01*
X179348929Y-112473805D01*
X179500000Y-112493694D01*
X179651071Y-112473805D01*
X179791847Y-112415494D01*
X179912734Y-112322734D01*
X180005494Y-112201847D01*
X180063805Y-112061071D01*
X180083694Y-111910000D01*
X180063805Y-111758929D01*
X180024931Y-111665078D01*
X180005495Y-111618155D01*
X180005494Y-111618154D01*
X180005494Y-111618153D01*
X179912734Y-111497266D01*
X179791847Y-111404506D01*
X179791846Y-111404505D01*
X179791844Y-111404504D01*
X179651074Y-111346196D01*
X179651072Y-111346195D01*
X179651071Y-111346195D01*
X179500000Y-111326306D01*
X179348929Y-111346195D01*
X179348925Y-111346196D01*
X179208155Y-111404504D01*
X179087266Y-111497266D01*
X178994504Y-111618155D01*
X178936196Y-111758925D01*
X178936195Y-111758929D01*
X178916306Y-111910000D01*
X172098700Y-111910000D01*
X172098700Y-102217513D01*
X172118385Y-102150474D01*
X172135014Y-102129837D01*
X181514851Y-92749999D01*
X187261120Y-92749999D01*
X187281732Y-92893363D01*
X187281734Y-92893371D01*
X187341900Y-93025117D01*
X187341902Y-93025119D01*
X187341903Y-93025121D01*
X187411013Y-93104880D01*
X187440038Y-93168434D01*
X187441300Y-93186081D01*
X187441299Y-104652936D01*
X187441063Y-104658342D01*
X187437498Y-104699088D01*
X187437498Y-104699090D01*
X187448082Y-104738592D01*
X187449253Y-104743872D01*
X187456356Y-104784154D01*
X187458028Y-104788746D01*
X187465436Y-104806630D01*
X187467501Y-104811058D01*
X187490959Y-104844560D01*
X187493865Y-104849122D01*
X187514317Y-104884544D01*
X187545649Y-104910835D01*
X187549639Y-104914491D01*
X189344981Y-106709832D01*
X189378466Y-106771155D01*
X189381300Y-106797513D01*
X189381300Y-148793918D01*
X189361615Y-148860957D01*
X189351013Y-148875120D01*
X189281905Y-148954874D01*
X189281900Y-148954882D01*
X189221734Y-149086628D01*
X189221732Y-149086636D01*
X189201120Y-149230000D01*
X189221732Y-149373363D01*
X189221734Y-149373371D01*
X189281900Y-149505117D01*
X189281905Y-149505125D01*
X189376751Y-149614584D01*
X189376753Y-149614585D01*
X189376754Y-149614586D01*
X189498604Y-149692894D01*
X189498605Y-149692894D01*
X189498608Y-149692896D01*
X189637576Y-149733699D01*
X189637578Y-149733700D01*
X189637579Y-149733700D01*
X189782422Y-149733700D01*
X189782422Y-149733699D01*
X189843143Y-149715870D01*
X189921391Y-149692896D01*
X189921392Y-149692895D01*
X189921396Y-149692894D01*
X190043246Y-149614586D01*
X190138097Y-149505121D01*
X190144034Y-149492122D01*
X190151076Y-149476699D01*
X190198267Y-149373368D01*
X190218880Y-149230000D01*
X190198267Y-149086632D01*
X190180566Y-149047873D01*
X190138099Y-148954882D01*
X190138094Y-148954874D01*
X190082475Y-148890686D01*
X201969973Y-148890686D01*
X201970400Y-148897121D01*
X201970400Y-150388400D01*
X202186706Y-150388400D01*
X202224877Y-150399608D01*
X202249999Y-150399999D01*
X202250000Y-150400000D01*
X205460000Y-150450000D01*
X205010000Y-146700000D01*
X204800000Y-146420000D01*
X204748000Y-146420000D01*
X204680961Y-146400315D01*
X204673600Y-146395200D01*
X204640002Y-146370001D01*
X204639996Y-146369998D01*
X202450000Y-145779999D01*
X202240000Y-145909999D01*
X202239999Y-145909999D01*
X202244493Y-147927324D01*
X202224957Y-147994407D01*
X202172256Y-148040279D01*
X202120493Y-148051600D01*
X201970400Y-148051600D01*
X201970400Y-148879801D01*
X201969973Y-148890686D01*
X190082475Y-148890686D01*
X190068987Y-148875120D01*
X190039962Y-148811564D01*
X190038700Y-148793918D01*
X190038700Y-144208400D01*
X202090400Y-144208400D01*
X204446333Y-144208400D01*
X204465499Y-144197934D01*
X204493790Y-144195114D01*
X205467634Y-144210284D01*
X205017634Y-140460284D01*
X204807634Y-140180284D01*
X204755634Y-140180284D01*
X204688595Y-140160599D01*
X204681234Y-140155484D01*
X204647636Y-140130285D01*
X204647630Y-140130282D01*
X202457634Y-139540283D01*
X202247634Y-139670283D01*
X202247633Y-139670283D01*
X202252260Y-141747324D01*
X202232724Y-141814407D01*
X202180023Y-141860279D01*
X202128260Y-141871600D01*
X202090400Y-141871600D01*
X202090400Y-144208400D01*
X190038700Y-144208400D01*
X190038700Y-141539091D01*
X198247498Y-141539091D01*
X198258082Y-141578592D01*
X198259253Y-141583872D01*
X198266356Y-141624154D01*
X198268028Y-141628746D01*
X198275436Y-141646630D01*
X198277501Y-141651058D01*
X198287180Y-141664882D01*
X198300959Y-141684560D01*
X198303865Y-141689122D01*
X198324317Y-141724544D01*
X198355649Y-141750835D01*
X198359639Y-141754491D01*
X198464801Y-141859653D01*
X198498286Y-141920976D01*
X198499394Y-141931288D01*
X198499858Y-141931222D01*
X198521732Y-142083363D01*
X198521734Y-142083371D01*
X198581900Y-142215117D01*
X198581905Y-142215125D01*
X198676751Y-142324584D01*
X198676753Y-142324585D01*
X198676754Y-142324586D01*
X198798604Y-142402894D01*
X198798605Y-142402894D01*
X198798608Y-142402896D01*
X198937576Y-142443699D01*
X198937578Y-142443700D01*
X198937579Y-142443700D01*
X199082422Y-142443700D01*
X199082422Y-142443699D01*
X199143143Y-142425870D01*
X199221391Y-142402896D01*
X199221392Y-142402895D01*
X199221396Y-142402894D01*
X199343246Y-142324586D01*
X199438097Y-142215121D01*
X199498267Y-142083368D01*
X199518880Y-141940000D01*
X199498267Y-141796632D01*
X199475749Y-141747324D01*
X199438099Y-141664882D01*
X199438094Y-141664874D01*
X199343248Y-141555415D01*
X199250242Y-141495644D01*
X199221396Y-141477106D01*
X199221395Y-141477105D01*
X199221391Y-141477103D01*
X199082423Y-141436300D01*
X199082421Y-141436300D01*
X199032700Y-141436300D01*
X198965661Y-141416615D01*
X198919906Y-141363811D01*
X198908700Y-141312300D01*
X198908700Y-137060820D01*
X198928385Y-136993781D01*
X198981189Y-136948026D01*
X199050347Y-136938082D01*
X199099737Y-136956503D01*
X199218604Y-137032894D01*
X199218605Y-137032894D01*
X199218608Y-137032896D01*
X199357576Y-137073699D01*
X199357578Y-137073700D01*
X199357579Y-137073700D01*
X199502422Y-137073700D01*
X199502422Y-137073699D01*
X199563143Y-137055870D01*
X199641391Y-137032896D01*
X199641392Y-137032895D01*
X199641396Y-137032894D01*
X199763246Y-136954586D01*
X199832845Y-136874264D01*
X199858094Y-136845125D01*
X199858095Y-136845123D01*
X199858097Y-136845121D01*
X199918267Y-136713368D01*
X199938880Y-136570000D01*
X199938879Y-136569999D01*
X199940142Y-136561221D01*
X199943470Y-136561699D01*
X199958565Y-136510294D01*
X199975199Y-136489652D01*
X201009109Y-135455742D01*
X202058678Y-134406172D01*
X202119999Y-134372689D01*
X202189691Y-134377673D01*
X202245624Y-134419545D01*
X202270041Y-134485009D01*
X202270357Y-134493579D01*
X202276836Y-137401844D01*
X202277634Y-137760284D01*
X202277635Y-137760284D01*
X202285643Y-137768400D01*
X202305600Y-137768400D01*
X202798680Y-137768400D01*
X202804698Y-137768493D01*
X203026382Y-137771946D01*
X203076411Y-137783343D01*
X203340000Y-137905000D01*
X203665000Y-137880000D01*
X204041103Y-137791504D01*
X204071428Y-137788224D01*
X205487634Y-137810284D01*
X205187768Y-135311397D01*
X213462922Y-135311397D01*
X213483559Y-135468156D01*
X213483560Y-135468158D01*
X213544068Y-135614237D01*
X213640322Y-135739678D01*
X213765763Y-135835932D01*
X213911842Y-135896440D01*
X214029243Y-135911896D01*
X214029250Y-135911896D01*
X214107958Y-135911896D01*
X214107965Y-135911896D01*
X214225366Y-135896440D01*
X214371445Y-135835932D01*
X214496886Y-135739678D01*
X214593140Y-135614237D01*
X214653648Y-135468158D01*
X214674286Y-135311396D01*
X214671534Y-135290495D01*
X214653648Y-135154635D01*
X214653648Y-135154634D01*
X214593140Y-135008555D01*
X214496886Y-134883114D01*
X214371445Y-134786860D01*
X214366952Y-134784999D01*
X214225366Y-134726352D01*
X214225364Y-134726351D01*
X214107974Y-134710897D01*
X214107971Y-134710896D01*
X214107965Y-134710896D01*
X214029243Y-134710896D01*
X214029237Y-134710896D01*
X214029233Y-134710897D01*
X213911843Y-134726351D01*
X213911841Y-134726352D01*
X213765764Y-134786859D01*
X213640322Y-134883114D01*
X213544067Y-135008556D01*
X213483560Y-135154633D01*
X213483559Y-135154635D01*
X213462922Y-135311394D01*
X213462922Y-135311397D01*
X205187768Y-135311397D01*
X205037634Y-134060284D01*
X204827634Y-133780284D01*
X204775634Y-133780284D01*
X204708595Y-133760599D01*
X204701234Y-133755484D01*
X204667635Y-133730285D01*
X204667634Y-133730284D01*
X204667632Y-133730283D01*
X204667630Y-133730282D01*
X203351878Y-133375809D01*
X203292267Y-133339363D01*
X203261823Y-133276475D01*
X203270212Y-133207110D01*
X203296450Y-133168400D01*
X203490370Y-132974480D01*
X203494332Y-132970849D01*
X203525683Y-132944544D01*
X203546143Y-132909103D01*
X203549024Y-132904581D01*
X203572499Y-132871058D01*
X203572501Y-132871050D01*
X203574593Y-132866565D01*
X203581945Y-132848815D01*
X203583638Y-132844161D01*
X203583642Y-132844156D01*
X203590744Y-132803878D01*
X203591911Y-132798609D01*
X203602501Y-132759090D01*
X203598935Y-132718339D01*
X203598700Y-132712938D01*
X203598700Y-132311397D01*
X213462922Y-132311397D01*
X213483559Y-132468156D01*
X213483560Y-132468158D01*
X213535622Y-132593848D01*
X213544068Y-132614237D01*
X213640322Y-132739678D01*
X213765763Y-132835932D01*
X213911842Y-132896440D01*
X214029243Y-132911896D01*
X214029250Y-132911896D01*
X214107958Y-132911896D01*
X214107965Y-132911896D01*
X214225366Y-132896440D01*
X214371445Y-132835932D01*
X214496886Y-132739678D01*
X214593140Y-132614237D01*
X214653648Y-132468158D01*
X214667669Y-132361654D01*
X214674286Y-132311397D01*
X214674286Y-132311394D01*
X214653648Y-132154635D01*
X214653648Y-132154634D01*
X214593140Y-132008555D01*
X214496886Y-131883114D01*
X214371445Y-131786860D01*
X214225366Y-131726352D01*
X214225364Y-131726351D01*
X214107974Y-131710897D01*
X214107971Y-131710896D01*
X214107965Y-131710896D01*
X214029243Y-131710896D01*
X214029237Y-131710896D01*
X214029233Y-131710897D01*
X213911843Y-131726351D01*
X213911841Y-131726352D01*
X213765764Y-131786859D01*
X213640322Y-131883114D01*
X213544067Y-132008556D01*
X213483560Y-132154633D01*
X213483559Y-132154635D01*
X213462922Y-132311394D01*
X213462922Y-132311397D01*
X203598700Y-132311397D01*
X203598700Y-131130000D01*
X204531120Y-131130000D01*
X204551732Y-131273363D01*
X204551734Y-131273371D01*
X204611900Y-131405117D01*
X204611905Y-131405125D01*
X204706751Y-131514584D01*
X204706753Y-131514585D01*
X204706754Y-131514586D01*
X204828604Y-131592894D01*
X204828605Y-131592894D01*
X204828608Y-131592896D01*
X204967576Y-131633699D01*
X204967578Y-131633700D01*
X204967579Y-131633700D01*
X205112422Y-131633700D01*
X205112422Y-131633699D01*
X205173143Y-131615870D01*
X205251391Y-131592896D01*
X205251392Y-131592895D01*
X205251396Y-131592894D01*
X205373246Y-131514586D01*
X205373248Y-131514584D01*
X205468094Y-131405125D01*
X205468095Y-131405123D01*
X205468097Y-131405121D01*
X205472917Y-131394568D01*
X205493067Y-131350445D01*
X205528267Y-131273368D01*
X205548880Y-131130000D01*
X205528267Y-130986632D01*
X205508277Y-130942860D01*
X205468099Y-130854882D01*
X205468094Y-130854874D01*
X205373248Y-130745415D01*
X205251391Y-130667103D01*
X205112423Y-130626300D01*
X205112421Y-130626300D01*
X204967579Y-130626300D01*
X204967576Y-130626300D01*
X204828608Y-130667103D01*
X204706751Y-130745415D01*
X204611905Y-130854874D01*
X204611900Y-130854882D01*
X204551734Y-130986628D01*
X204551732Y-130986636D01*
X204531120Y-131130000D01*
X203598700Y-131130000D01*
X203598700Y-129793999D01*
X206172306Y-129793999D01*
X206192195Y-129945070D01*
X206192196Y-129945074D01*
X206250504Y-130085844D01*
X206250505Y-130085846D01*
X206250506Y-130085847D01*
X206343266Y-130206734D01*
X206464153Y-130299494D01*
X206464154Y-130299494D01*
X206464155Y-130299495D01*
X206612437Y-130360915D01*
X206611154Y-130364012D01*
X206657513Y-130392232D01*
X206688079Y-130455061D01*
X206688747Y-130491881D01*
X206680306Y-130556000D01*
X206698888Y-130697139D01*
X206700195Y-130707070D01*
X206700196Y-130707074D01*
X206758504Y-130847844D01*
X206758505Y-130847846D01*
X206758506Y-130847847D01*
X206851266Y-130968734D01*
X206972153Y-131061494D01*
X207112929Y-131119805D01*
X207264000Y-131139694D01*
X207415071Y-131119805D01*
X207555847Y-131061494D01*
X207676734Y-130968734D01*
X207769494Y-130847847D01*
X207827805Y-130707071D01*
X207847694Y-130556000D01*
X207827805Y-130404929D01*
X207769494Y-130264153D01*
X207676734Y-130143266D01*
X207555847Y-130050506D01*
X207555846Y-130050505D01*
X207555844Y-130050504D01*
X207407563Y-129989085D01*
X207408839Y-129986002D01*
X207362417Y-129957691D01*
X207331903Y-129894837D01*
X207331252Y-129858122D01*
X207339694Y-129794000D01*
X207319805Y-129642929D01*
X207280930Y-129549078D01*
X207261495Y-129502155D01*
X207261494Y-129502154D01*
X207261494Y-129502153D01*
X207168734Y-129381266D01*
X207047847Y-129288506D01*
X207047846Y-129288505D01*
X207047844Y-129288504D01*
X206907074Y-129230196D01*
X206907072Y-129230195D01*
X206907071Y-129230195D01*
X206756000Y-129210306D01*
X206604929Y-129230195D01*
X206604925Y-129230196D01*
X206464155Y-129288504D01*
X206343266Y-129381266D01*
X206250504Y-129502155D01*
X206192196Y-129642925D01*
X206192195Y-129642929D01*
X206172306Y-129793999D01*
X203598700Y-129793999D01*
X203598700Y-129677513D01*
X203618385Y-129610474D01*
X203635019Y-129589832D01*
X204141957Y-129082894D01*
X204745828Y-128479022D01*
X204807149Y-128445539D01*
X204876841Y-128450523D01*
X204932774Y-128492395D01*
X204957191Y-128557859D01*
X204956245Y-128584351D01*
X204951120Y-128619998D01*
X204951120Y-128619999D01*
X204971732Y-128763363D01*
X204971734Y-128763371D01*
X205031900Y-128895117D01*
X205031905Y-128895125D01*
X205126751Y-129004584D01*
X205126753Y-129004585D01*
X205126754Y-129004586D01*
X205248604Y-129082894D01*
X205248605Y-129082894D01*
X205248608Y-129082896D01*
X205387576Y-129123699D01*
X205387578Y-129123700D01*
X205387579Y-129123700D01*
X205532422Y-129123700D01*
X205532422Y-129123699D01*
X205593143Y-129105870D01*
X205671391Y-129082896D01*
X205671392Y-129082895D01*
X205671396Y-129082894D01*
X205793246Y-129004586D01*
X205838551Y-128952301D01*
X205888094Y-128895125D01*
X205888095Y-128895123D01*
X205888097Y-128895121D01*
X205892600Y-128885262D01*
X205913270Y-128840000D01*
X205948267Y-128763368D01*
X205968880Y-128620000D01*
X205948267Y-128476632D01*
X205918699Y-128411888D01*
X205888099Y-128344882D01*
X205888094Y-128344874D01*
X205823216Y-128270000D01*
X207950306Y-128270000D01*
X207963856Y-128372925D01*
X207970195Y-128421070D01*
X207970196Y-128421074D01*
X208028504Y-128561844D01*
X208028505Y-128561846D01*
X208028506Y-128561847D01*
X208121266Y-128682734D01*
X208242153Y-128775494D01*
X208382929Y-128833805D01*
X208534000Y-128853694D01*
X208685071Y-128833805D01*
X208825847Y-128775494D01*
X208850879Y-128756285D01*
X208916047Y-128731091D01*
X208984492Y-128745129D01*
X209034483Y-128793942D01*
X209040925Y-128807204D01*
X209044503Y-128815843D01*
X209044505Y-128815846D01*
X209044506Y-128815847D01*
X209137266Y-128936734D01*
X209258153Y-129029494D01*
X209258154Y-129029494D01*
X209258155Y-129029495D01*
X209265975Y-129032734D01*
X209398929Y-129087805D01*
X209550000Y-129107694D01*
X209701071Y-129087805D01*
X209841847Y-129029494D01*
X209962734Y-128936734D01*
X210055494Y-128815847D01*
X210113805Y-128675071D01*
X210133694Y-128524000D01*
X210113805Y-128372929D01*
X210070388Y-128268111D01*
X210055495Y-128232155D01*
X210055494Y-128232154D01*
X210055494Y-128232153D01*
X209962734Y-128111266D01*
X209841847Y-128018506D01*
X209841846Y-128018505D01*
X209841844Y-128018504D01*
X209701074Y-127960196D01*
X209701072Y-127960195D01*
X209701071Y-127960195D01*
X209550000Y-127940306D01*
X209398929Y-127960195D01*
X209398925Y-127960196D01*
X209258154Y-128018504D01*
X209258152Y-128018506D01*
X209233119Y-128037715D01*
X209167950Y-128062909D01*
X209099505Y-128048870D01*
X209049515Y-128000056D01*
X209043074Y-127986797D01*
X209039494Y-127978153D01*
X208946734Y-127857266D01*
X208825847Y-127764506D01*
X208825846Y-127764505D01*
X208825844Y-127764504D01*
X208685074Y-127706196D01*
X208685072Y-127706195D01*
X208685071Y-127706195D01*
X208534000Y-127686306D01*
X208382929Y-127706195D01*
X208382925Y-127706196D01*
X208242155Y-127764504D01*
X208121266Y-127857266D01*
X208028504Y-127978155D01*
X207970196Y-128118925D01*
X207970195Y-128118929D01*
X207950306Y-128270000D01*
X205823216Y-128270000D01*
X205793248Y-128235415D01*
X205671391Y-128157103D01*
X205532423Y-128116300D01*
X205532421Y-128116300D01*
X205407913Y-128116300D01*
X205340874Y-128096615D01*
X205295119Y-128043811D01*
X205285175Y-127974653D01*
X205314200Y-127911097D01*
X205320232Y-127904619D01*
X205384851Y-127840000D01*
X205620381Y-127604469D01*
X205624332Y-127600849D01*
X205655683Y-127574544D01*
X205676143Y-127539103D01*
X205679024Y-127534581D01*
X205702499Y-127501058D01*
X205702501Y-127501050D01*
X205704593Y-127496565D01*
X205711945Y-127478815D01*
X205713638Y-127474161D01*
X205713642Y-127474156D01*
X205720744Y-127433878D01*
X205721911Y-127428609D01*
X205732501Y-127389090D01*
X205728935Y-127348339D01*
X205728700Y-127342938D01*
X205728700Y-121920000D01*
X212268306Y-121920000D01*
X212288195Y-122071070D01*
X212288196Y-122071074D01*
X212346504Y-122211844D01*
X212346505Y-122211846D01*
X212346506Y-122211847D01*
X212439266Y-122332734D01*
X212560153Y-122425494D01*
X212700929Y-122483805D01*
X212852000Y-122503694D01*
X213003071Y-122483805D01*
X213143847Y-122425494D01*
X213264734Y-122332734D01*
X213357494Y-122211847D01*
X213415805Y-122071071D01*
X213435694Y-121920000D01*
X214808306Y-121920000D01*
X214828195Y-122071070D01*
X214828196Y-122071074D01*
X214886504Y-122211844D01*
X214886505Y-122211846D01*
X214886506Y-122211847D01*
X214979266Y-122332734D01*
X215100153Y-122425494D01*
X215240929Y-122483805D01*
X215392000Y-122503694D01*
X215543071Y-122483805D01*
X215683847Y-122425494D01*
X215804734Y-122332734D01*
X215897494Y-122211847D01*
X215955805Y-122071071D01*
X215975694Y-121920000D01*
X215955805Y-121768929D01*
X215897494Y-121628153D01*
X215804734Y-121507266D01*
X215683847Y-121414506D01*
X215683846Y-121414505D01*
X215683844Y-121414504D01*
X215543074Y-121356196D01*
X215543072Y-121356195D01*
X215543071Y-121356195D01*
X215392000Y-121336306D01*
X215240929Y-121356195D01*
X215240925Y-121356196D01*
X215100155Y-121414504D01*
X214979266Y-121507266D01*
X214886504Y-121628155D01*
X214828196Y-121768925D01*
X214828195Y-121768929D01*
X214808306Y-121920000D01*
X213435694Y-121920000D01*
X213415805Y-121768929D01*
X213357494Y-121628153D01*
X213264734Y-121507266D01*
X213143847Y-121414506D01*
X213143846Y-121414505D01*
X213143844Y-121414504D01*
X213003074Y-121356196D01*
X213003072Y-121356195D01*
X213003071Y-121356195D01*
X212852000Y-121336306D01*
X212700929Y-121356195D01*
X212700925Y-121356196D01*
X212560155Y-121414504D01*
X212439266Y-121507266D01*
X212346504Y-121628155D01*
X212288196Y-121768925D01*
X212288195Y-121768929D01*
X212268306Y-121920000D01*
X205728700Y-121920000D01*
X205728700Y-92151630D01*
X205748385Y-92084591D01*
X205765019Y-92063949D01*
X206313474Y-91515494D01*
X208086762Y-89742206D01*
X208086761Y-89742205D01*
X208107409Y-89721559D01*
X208115163Y-89704927D01*
X208125972Y-89686206D01*
X208136499Y-89671174D01*
X208141250Y-89653440D01*
X208148642Y-89633134D01*
X208156398Y-89616503D01*
X208157998Y-89598213D01*
X208161751Y-89576932D01*
X208162684Y-89573449D01*
X208166501Y-89559206D01*
X208164901Y-89540924D01*
X208164901Y-89519302D01*
X208166501Y-89501026D01*
X208161751Y-89483298D01*
X208157997Y-89462007D01*
X208156398Y-89443729D01*
X208148641Y-89427093D01*
X208141249Y-89406785D01*
X208140739Y-89404882D01*
X208136499Y-89389058D01*
X208125974Y-89374027D01*
X208115164Y-89355304D01*
X208107409Y-89338673D01*
X208025443Y-89256707D01*
X206742534Y-87973798D01*
X205443363Y-86674627D01*
X205439718Y-86670648D01*
X205413429Y-86639317D01*
X205378006Y-86618865D01*
X205373444Y-86615959D01*
X205339942Y-86592501D01*
X205335514Y-86590436D01*
X205317630Y-86583028D01*
X205313042Y-86581358D01*
X205272755Y-86574253D01*
X205267475Y-86573082D01*
X205227974Y-86562498D01*
X205194653Y-86565414D01*
X205187223Y-86566064D01*
X205181822Y-86566300D01*
X203902059Y-86566300D01*
X203896656Y-86566064D01*
X203884304Y-86564983D01*
X203855905Y-86562498D01*
X203846558Y-86563316D01*
X203800827Y-86558767D01*
X203792426Y-86556301D01*
X203792422Y-86556300D01*
X203792421Y-86556300D01*
X203647579Y-86556300D01*
X203647576Y-86556300D01*
X203508608Y-86597103D01*
X203386751Y-86675415D01*
X203291905Y-86784874D01*
X203291900Y-86784882D01*
X203231734Y-86916628D01*
X203231732Y-86916636D01*
X203211120Y-87060000D01*
X203231732Y-87203363D01*
X203231734Y-87203371D01*
X203291900Y-87335117D01*
X203291905Y-87335125D01*
X203386751Y-87444584D01*
X203386753Y-87444585D01*
X203386754Y-87444586D01*
X203508604Y-87522894D01*
X203508605Y-87522894D01*
X203508608Y-87522896D01*
X203647576Y-87563699D01*
X203647578Y-87563700D01*
X203647579Y-87563700D01*
X203792422Y-87563700D01*
X203792422Y-87563699D01*
X203853143Y-87545870D01*
X203931391Y-87522896D01*
X203931392Y-87522895D01*
X203931396Y-87522894D01*
X204053246Y-87444586D01*
X204054674Y-87442938D01*
X204148094Y-87335125D01*
X204148094Y-87335124D01*
X204148097Y-87335121D01*
X204165877Y-87296186D01*
X204211631Y-87243385D01*
X204278671Y-87223700D01*
X204330993Y-87223700D01*
X204398032Y-87243385D01*
X204443787Y-87296189D01*
X204453731Y-87365347D01*
X204452623Y-87370441D01*
X204431120Y-87520000D01*
X204451732Y-87663363D01*
X204451734Y-87663371D01*
X204511900Y-87795117D01*
X204511902Y-87795119D01*
X204511903Y-87795121D01*
X204581013Y-87874880D01*
X204610038Y-87938434D01*
X204611300Y-87956081D01*
X204611300Y-125802485D01*
X204591615Y-125869524D01*
X204574981Y-125890166D01*
X198359642Y-132105505D01*
X198355654Y-132109159D01*
X198324316Y-132135456D01*
X198324315Y-132135457D01*
X198303864Y-132170879D01*
X198300958Y-132175440D01*
X198277499Y-132208944D01*
X198275435Y-132213370D01*
X198268036Y-132231235D01*
X198266356Y-132235849D01*
X198259253Y-132276129D01*
X198258082Y-132281409D01*
X198247498Y-132320908D01*
X198247498Y-132320909D01*
X198251064Y-132361654D01*
X198251300Y-132367061D01*
X198251300Y-141492937D01*
X198251064Y-141498344D01*
X198247498Y-141539091D01*
X190038700Y-141539091D01*
X190038700Y-134784999D01*
X190716306Y-134784999D01*
X190736195Y-134936070D01*
X190736196Y-134936074D01*
X190794504Y-135076844D01*
X190794505Y-135076846D01*
X190794506Y-135076847D01*
X190887266Y-135197734D01*
X191008153Y-135290494D01*
X191148929Y-135348805D01*
X191300000Y-135368694D01*
X191300003Y-135368693D01*
X191303485Y-135369152D01*
X191367382Y-135397418D01*
X191405853Y-135455742D01*
X191411300Y-135492091D01*
X191411300Y-136771654D01*
X191391615Y-136838693D01*
X191362790Y-136870027D01*
X191357268Y-136874264D01*
X191264504Y-136995155D01*
X191206196Y-137135925D01*
X191206195Y-137135929D01*
X191186306Y-137286999D01*
X191206195Y-137438070D01*
X191206196Y-137438074D01*
X191264504Y-137578844D01*
X191264505Y-137578846D01*
X191264506Y-137578847D01*
X191357266Y-137699734D01*
X191478153Y-137792494D01*
X191618929Y-137850805D01*
X191770000Y-137870694D01*
X191921071Y-137850805D01*
X192061847Y-137792494D01*
X192182734Y-137699734D01*
X192275494Y-137578847D01*
X192333805Y-137438071D01*
X192353694Y-137287000D01*
X192333805Y-137135929D01*
X192275494Y-136995153D01*
X192182734Y-136874266D01*
X192177210Y-136870027D01*
X192117213Y-136823988D01*
X192076010Y-136767560D01*
X192068700Y-136725613D01*
X192068700Y-135242061D01*
X192068936Y-135236654D01*
X192072342Y-135197733D01*
X192072501Y-135195910D01*
X192061911Y-135156389D01*
X192060747Y-135151141D01*
X192053642Y-135110844D01*
X192053640Y-135110842D01*
X192053640Y-135110837D01*
X192051958Y-135106217D01*
X192044587Y-135088421D01*
X192042500Y-135083944D01*
X192019038Y-135050436D01*
X192016131Y-135045872D01*
X191995685Y-135010459D01*
X191995684Y-135010458D01*
X191995683Y-135010456D01*
X191964343Y-134984158D01*
X191960359Y-134980507D01*
X191913107Y-134933255D01*
X191879622Y-134871932D01*
X191877849Y-134829393D01*
X191883694Y-134785000D01*
X191863805Y-134633929D01*
X191824931Y-134540078D01*
X191805495Y-134493155D01*
X191805494Y-134493154D01*
X191805494Y-134493153D01*
X191712734Y-134372266D01*
X191591847Y-134279506D01*
X191591846Y-134279505D01*
X191591844Y-134279504D01*
X191451074Y-134221196D01*
X191451072Y-134221195D01*
X191451071Y-134221195D01*
X191300000Y-134201306D01*
X191148929Y-134221195D01*
X191148925Y-134221196D01*
X191008155Y-134279504D01*
X190887266Y-134372266D01*
X190794504Y-134493155D01*
X190736196Y-134633925D01*
X190736195Y-134633929D01*
X190716306Y-134784999D01*
X190038700Y-134784999D01*
X190038700Y-106627050D01*
X190038936Y-106621643D01*
X190042500Y-106580908D01*
X190031914Y-106541404D01*
X190030748Y-106536148D01*
X190023642Y-106495844D01*
X190023640Y-106495840D01*
X190021955Y-106491211D01*
X190014576Y-106473397D01*
X190012499Y-106468942D01*
X189989042Y-106435443D01*
X189986135Y-106430879D01*
X189974479Y-106410692D01*
X189965683Y-106395456D01*
X189965680Y-106395453D01*
X189965679Y-106395452D01*
X189941705Y-106375336D01*
X189934342Y-106369157D01*
X189930370Y-106365518D01*
X188135018Y-104570167D01*
X188101534Y-104508844D01*
X188098700Y-104482486D01*
X188098700Y-95299999D01*
X191296306Y-95299999D01*
X191316195Y-95451070D01*
X191316196Y-95451074D01*
X191374504Y-95591844D01*
X191374505Y-95591846D01*
X191374506Y-95591847D01*
X191467266Y-95712734D01*
X191588153Y-95805494D01*
X191728929Y-95863805D01*
X191880000Y-95883694D01*
X192031071Y-95863805D01*
X192171847Y-95805494D01*
X192292734Y-95712734D01*
X192385494Y-95591847D01*
X192443805Y-95451071D01*
X192463694Y-95300000D01*
X192443805Y-95148929D01*
X192385494Y-95008153D01*
X192292734Y-94887266D01*
X192171847Y-94794506D01*
X192171846Y-94794505D01*
X192171844Y-94794504D01*
X192031074Y-94736196D01*
X192031072Y-94736195D01*
X192031071Y-94736195D01*
X191880000Y-94716306D01*
X191728929Y-94736195D01*
X191728925Y-94736196D01*
X191588155Y-94794504D01*
X191467266Y-94887266D01*
X191374504Y-95008155D01*
X191316196Y-95148925D01*
X191316195Y-95148929D01*
X191296306Y-95299999D01*
X188098700Y-95299999D01*
X188098700Y-93186081D01*
X188118385Y-93119042D01*
X188128981Y-93104885D01*
X188198097Y-93025121D01*
X188258267Y-92893368D01*
X188278880Y-92750000D01*
X188258267Y-92606632D01*
X188245287Y-92578210D01*
X188198099Y-92474882D01*
X188198094Y-92474874D01*
X188103248Y-92365415D01*
X187981391Y-92287103D01*
X187842423Y-92246300D01*
X187842421Y-92246300D01*
X187697579Y-92246300D01*
X187697576Y-92246300D01*
X187558608Y-92287103D01*
X187436751Y-92365415D01*
X187341905Y-92474874D01*
X187341900Y-92474882D01*
X187281734Y-92606628D01*
X187281732Y-92606636D01*
X187261120Y-92749999D01*
X181514851Y-92749999D01*
X186232468Y-88032382D01*
X186293789Y-87998899D01*
X186363481Y-88003883D01*
X186367590Y-88005500D01*
X186388551Y-88014183D01*
X186539622Y-88034072D01*
X186690693Y-88014183D01*
X186831469Y-87955872D01*
X186952356Y-87863112D01*
X187045116Y-87742225D01*
X187103427Y-87601449D01*
X187123316Y-87450378D01*
X187103427Y-87299307D01*
X187045116Y-87158531D01*
X186952356Y-87037644D01*
X186831469Y-86944884D01*
X186831468Y-86944883D01*
X186831466Y-86944882D01*
X186690696Y-86886574D01*
X186690694Y-86886573D01*
X186690693Y-86886573D01*
X186539622Y-86866684D01*
X186388551Y-86886573D01*
X186388547Y-86886574D01*
X186247777Y-86944882D01*
X186126888Y-87037644D01*
X186034126Y-87158533D01*
X185975817Y-87299305D01*
X185972210Y-87326701D01*
X185943942Y-87390597D01*
X185936952Y-87398194D01*
X183628110Y-89707036D01*
X183566787Y-89740521D01*
X183497095Y-89735537D01*
X183441162Y-89693665D01*
X183425870Y-89666812D01*
X183405872Y-89618531D01*
X183313112Y-89497644D01*
X183192225Y-89404884D01*
X183192224Y-89404883D01*
X183192222Y-89404882D01*
X183051452Y-89346574D01*
X183051450Y-89346573D01*
X183051449Y-89346573D01*
X182900378Y-89326684D01*
X182749307Y-89346573D01*
X182749303Y-89346574D01*
X182608533Y-89404882D01*
X182487644Y-89497644D01*
X182394882Y-89618533D01*
X182336574Y-89759303D01*
X182336573Y-89759307D01*
X182326331Y-89837106D01*
X182316684Y-89910378D01*
X182331759Y-90024879D01*
X182336573Y-90061448D01*
X182336574Y-90061452D01*
X182394882Y-90202222D01*
X182394883Y-90202224D01*
X182394884Y-90202225D01*
X182487644Y-90323112D01*
X182608531Y-90415872D01*
X182656808Y-90435869D01*
X182711210Y-90479708D01*
X182733276Y-90546001D01*
X182715998Y-90613701D01*
X182697036Y-90638110D01*
X171549642Y-101785505D01*
X171545654Y-101789159D01*
X171514316Y-101815456D01*
X171514315Y-101815457D01*
X171493864Y-101850879D01*
X171490958Y-101855440D01*
X171467499Y-101888944D01*
X171465435Y-101893370D01*
X171458036Y-101911235D01*
X171456356Y-101915849D01*
X171449253Y-101956129D01*
X171448082Y-101961409D01*
X171437498Y-102000908D01*
X171437498Y-102000909D01*
X171441064Y-102041654D01*
X171441300Y-102047061D01*
X171441300Y-126972937D01*
X171441064Y-126978344D01*
X171437498Y-127019091D01*
X122846448Y-127019091D01*
X122844532Y-122759999D01*
X130846306Y-122759999D01*
X130866195Y-122911070D01*
X130866196Y-122911074D01*
X130924504Y-123051844D01*
X130924505Y-123051846D01*
X130924506Y-123051847D01*
X131017266Y-123172734D01*
X131138153Y-123265494D01*
X131278929Y-123323805D01*
X131430000Y-123343694D01*
X131432423Y-123344013D01*
X131496320Y-123372280D01*
X131503919Y-123379271D01*
X132436391Y-124311743D01*
X132469876Y-124373066D01*
X132471649Y-124415607D01*
X132465806Y-124459995D01*
X132465806Y-124460000D01*
X132484378Y-124601071D01*
X132485695Y-124611070D01*
X132485696Y-124611074D01*
X132544004Y-124751844D01*
X132544005Y-124751846D01*
X132544006Y-124751847D01*
X132636766Y-124872734D01*
X132757653Y-124965494D01*
X132898429Y-125023805D01*
X133049500Y-125043694D01*
X133200571Y-125023805D01*
X133341347Y-124965494D01*
X133462234Y-124872734D01*
X133554994Y-124751847D01*
X133613305Y-124611071D01*
X133633194Y-124460000D01*
X133631877Y-124450000D01*
X165496306Y-124450000D01*
X165516195Y-124601070D01*
X165516196Y-124601074D01*
X165574504Y-124741844D01*
X165574505Y-124741846D01*
X165574506Y-124741847D01*
X165667266Y-124862734D01*
X165788153Y-124955494D01*
X165788154Y-124955494D01*
X165788155Y-124955495D01*
X165835078Y-124974930D01*
X165928929Y-125013805D01*
X166080000Y-125033694D01*
X166231071Y-125013805D01*
X166371847Y-124955494D01*
X166492734Y-124862734D01*
X166585494Y-124741847D01*
X166643805Y-124601071D01*
X166663694Y-124450000D01*
X166643805Y-124298929D01*
X166585494Y-124158153D01*
X166492734Y-124037266D01*
X166371847Y-123944506D01*
X166371846Y-123944505D01*
X166371844Y-123944504D01*
X166231074Y-123886196D01*
X166231072Y-123886195D01*
X166231071Y-123886195D01*
X166080000Y-123866306D01*
X165928929Y-123886195D01*
X165928925Y-123886196D01*
X165788155Y-123944504D01*
X165667266Y-124037266D01*
X165574504Y-124158155D01*
X165516196Y-124298925D01*
X165516195Y-124298929D01*
X165496306Y-124450000D01*
X133631877Y-124450000D01*
X133613305Y-124308929D01*
X133554994Y-124168153D01*
X133462234Y-124047266D01*
X133341347Y-123954506D01*
X133341346Y-123954505D01*
X133341344Y-123954504D01*
X133200574Y-123896196D01*
X133200572Y-123896195D01*
X133200571Y-123896195D01*
X133093882Y-123882149D01*
X133049501Y-123876306D01*
X133049496Y-123876306D01*
X133005107Y-123882149D01*
X132936072Y-123871382D01*
X132901243Y-123846891D01*
X132033742Y-122979390D01*
X132000257Y-122918067D01*
X131999921Y-122910000D01*
X151626306Y-122910000D01*
X151637325Y-122993693D01*
X151646195Y-123061070D01*
X151646196Y-123061074D01*
X151704504Y-123201844D01*
X151704505Y-123201846D01*
X151704506Y-123201847D01*
X151797266Y-123322734D01*
X151918153Y-123415494D01*
X152058929Y-123473805D01*
X152210000Y-123493694D01*
X152361071Y-123473805D01*
X152501847Y-123415494D01*
X152622734Y-123322734D01*
X152715494Y-123201847D01*
X152773805Y-123061071D01*
X152793694Y-122910000D01*
X152773805Y-122758929D01*
X152715494Y-122618153D01*
X152622734Y-122497266D01*
X152509007Y-122410000D01*
X154596306Y-122410000D01*
X154616195Y-122561070D01*
X154616196Y-122561074D01*
X154674504Y-122701844D01*
X154674505Y-122701846D01*
X154674506Y-122701847D01*
X154767266Y-122822734D01*
X154888153Y-122915494D01*
X154888154Y-122915494D01*
X154888155Y-122915495D01*
X154925926Y-122931140D01*
X155028929Y-122973805D01*
X155180000Y-122993694D01*
X155331071Y-122973805D01*
X155471847Y-122915494D01*
X155592734Y-122822734D01*
X155685494Y-122701847D01*
X155743805Y-122561071D01*
X155763694Y-122410000D01*
X155757849Y-122365608D01*
X155768614Y-122296576D01*
X155793104Y-122261746D01*
X156120370Y-121934480D01*
X156124332Y-121930849D01*
X156155683Y-121904544D01*
X156176143Y-121869103D01*
X156179024Y-121864581D01*
X156202499Y-121831058D01*
X156202501Y-121831050D01*
X156204595Y-121826561D01*
X156211944Y-121808820D01*
X156213641Y-121804158D01*
X156213641Y-121804157D01*
X156213642Y-121804156D01*
X156220749Y-121763842D01*
X156221905Y-121758629D01*
X156232501Y-121719089D01*
X156228935Y-121678338D01*
X156228700Y-121672937D01*
X156228700Y-119418365D01*
X156248385Y-119351326D01*
X156277214Y-119319989D01*
X156312734Y-119292734D01*
X156405494Y-119171847D01*
X156463805Y-119031071D01*
X156483694Y-118880000D01*
X156463805Y-118728929D01*
X156405494Y-118588153D01*
X156312734Y-118467266D01*
X156191847Y-118374506D01*
X156191846Y-118374505D01*
X156191844Y-118374504D01*
X156051074Y-118316196D01*
X156051072Y-118316195D01*
X156051071Y-118316195D01*
X155900000Y-118296306D01*
X155748929Y-118316195D01*
X155748925Y-118316196D01*
X155608155Y-118374504D01*
X155487266Y-118467266D01*
X155394504Y-118588155D01*
X155336196Y-118728925D01*
X155336195Y-118728929D01*
X155316306Y-118880000D01*
X155336195Y-119031070D01*
X155336196Y-119031074D01*
X155394504Y-119171844D01*
X155394505Y-119171846D01*
X155394506Y-119171847D01*
X155475250Y-119277074D01*
X155487267Y-119292735D01*
X155522786Y-119319989D01*
X155563989Y-119376417D01*
X155571300Y-119418365D01*
X155571300Y-121502485D01*
X155551615Y-121569524D01*
X155534981Y-121590166D01*
X155328255Y-121796891D01*
X155266932Y-121830376D01*
X155224391Y-121832149D01*
X155180004Y-121826306D01*
X155179999Y-121826306D01*
X155028929Y-121846195D01*
X155028925Y-121846196D01*
X154888155Y-121904504D01*
X154767266Y-121997266D01*
X154674504Y-122118155D01*
X154616196Y-122258925D01*
X154616195Y-122258929D01*
X154596306Y-122410000D01*
X152509007Y-122410000D01*
X152501847Y-122404506D01*
X152501846Y-122404505D01*
X152501844Y-122404504D01*
X152361074Y-122346196D01*
X152361072Y-122346195D01*
X152361071Y-122346195D01*
X152210000Y-122326306D01*
X152058929Y-122346195D01*
X152058925Y-122346196D01*
X151918155Y-122404504D01*
X151797266Y-122497266D01*
X151704504Y-122618155D01*
X151646196Y-122758925D01*
X151646195Y-122758929D01*
X151626306Y-122910000D01*
X131999921Y-122910000D01*
X131998484Y-122875528D01*
X132013694Y-122760000D01*
X131993805Y-122608929D01*
X131954930Y-122515078D01*
X131935495Y-122468155D01*
X131935494Y-122468154D01*
X131935494Y-122468153D01*
X131842734Y-122347266D01*
X131721847Y-122254506D01*
X131721846Y-122254505D01*
X131721844Y-122254504D01*
X131581074Y-122196196D01*
X131581072Y-122196195D01*
X131581071Y-122196195D01*
X131430000Y-122176306D01*
X131278929Y-122196195D01*
X131278925Y-122196196D01*
X131138155Y-122254504D01*
X131017266Y-122347266D01*
X130924504Y-122468155D01*
X130866196Y-122608925D01*
X130866195Y-122608929D01*
X130846306Y-122759999D01*
X122844532Y-122759999D01*
X122843803Y-121139418D01*
X153695738Y-121139418D01*
X153715627Y-121290489D01*
X153715628Y-121290493D01*
X153773936Y-121431263D01*
X153773937Y-121431265D01*
X153773938Y-121431266D01*
X153866698Y-121552153D01*
X153987585Y-121644913D01*
X154128361Y-121703224D01*
X154279432Y-121723113D01*
X154430503Y-121703224D01*
X154571279Y-121644913D01*
X154692166Y-121552153D01*
X154784926Y-121431266D01*
X154843237Y-121290490D01*
X154863126Y-121139419D01*
X154843237Y-120988348D01*
X154784927Y-120847574D01*
X154784927Y-120847573D01*
X154784925Y-120847571D01*
X154714324Y-120755561D01*
X154689130Y-120690392D01*
X154688700Y-120680075D01*
X154688700Y-117430000D01*
X167176306Y-117430000D01*
X167196195Y-117581070D01*
X167196196Y-117581074D01*
X167254504Y-117721844D01*
X167254505Y-117721846D01*
X167254506Y-117721847D01*
X167347266Y-117842734D01*
X167468153Y-117935494D01*
X167608929Y-117993805D01*
X167760000Y-118013694D01*
X167911071Y-117993805D01*
X168051847Y-117935494D01*
X168172734Y-117842734D01*
X168265494Y-117721847D01*
X168323805Y-117581071D01*
X168343694Y-117430000D01*
X168323805Y-117278929D01*
X168265494Y-117138153D01*
X168172734Y-117017266D01*
X168051847Y-116924506D01*
X168051846Y-116924505D01*
X168051844Y-116924504D01*
X167911074Y-116866196D01*
X167911072Y-116866195D01*
X167911071Y-116866195D01*
X167760000Y-116846306D01*
X167608929Y-116866195D01*
X167608925Y-116866196D01*
X167468155Y-116924504D01*
X167347266Y-117017266D01*
X167254504Y-117138155D01*
X167196196Y-117278925D01*
X167196195Y-117278929D01*
X167176306Y-117430000D01*
X154688700Y-117430000D01*
X154688700Y-116598646D01*
X154708385Y-116531607D01*
X154755511Y-116490771D01*
X154754810Y-116489557D01*
X154761112Y-116485918D01*
X154761189Y-116485852D01*
X154761345Y-116485783D01*
X154761842Y-116485497D01*
X154761844Y-116485494D01*
X154761847Y-116485494D01*
X154882734Y-116392734D01*
X154975494Y-116271847D01*
X155033805Y-116131071D01*
X155053694Y-115980000D01*
X155033805Y-115828929D01*
X154975494Y-115688153D01*
X154882734Y-115567266D01*
X154761847Y-115474506D01*
X154761846Y-115474505D01*
X154761844Y-115474504D01*
X154621074Y-115416196D01*
X154621072Y-115416195D01*
X154621071Y-115416195D01*
X154470000Y-115396306D01*
X154318929Y-115416195D01*
X154318925Y-115416196D01*
X154178155Y-115474504D01*
X154057266Y-115567266D01*
X153964504Y-115688155D01*
X153906196Y-115828925D01*
X153906195Y-115828929D01*
X153886306Y-115979999D01*
X153906195Y-116131070D01*
X153906196Y-116131074D01*
X153964504Y-116271845D01*
X153964506Y-116271847D01*
X154005676Y-116325501D01*
X154030870Y-116390670D01*
X154031300Y-116400987D01*
X154031300Y-120539231D01*
X154011615Y-120606270D01*
X153982787Y-120637606D01*
X153866700Y-120726683D01*
X153773936Y-120847574D01*
X153715628Y-120988344D01*
X153715627Y-120988348D01*
X153695738Y-121139418D01*
X122843803Y-121139418D01*
X122843142Y-119670000D01*
X130576306Y-119670000D01*
X130596195Y-119821070D01*
X130596196Y-119821074D01*
X130654504Y-119961844D01*
X130654505Y-119961846D01*
X130654506Y-119961847D01*
X130747266Y-120082734D01*
X130868153Y-120175494D01*
X131008929Y-120233805D01*
X131160000Y-120253694D01*
X131311071Y-120233805D01*
X131451847Y-120175494D01*
X131572734Y-120082734D01*
X131665494Y-119961847D01*
X131723805Y-119821071D01*
X131743694Y-119670000D01*
X131737849Y-119625608D01*
X131748614Y-119556576D01*
X131773104Y-119521746D01*
X132168850Y-119126000D01*
X141656306Y-119126000D01*
X141676195Y-119277070D01*
X141676196Y-119277074D01*
X141734504Y-119417844D01*
X141734505Y-119417846D01*
X141734506Y-119417847D01*
X141827266Y-119538734D01*
X141948153Y-119631494D01*
X141948154Y-119631494D01*
X141948155Y-119631495D01*
X141995078Y-119650930D01*
X142088929Y-119689805D01*
X142240000Y-119709694D01*
X142391071Y-119689805D01*
X142531847Y-119631494D01*
X142652734Y-119538734D01*
X142745494Y-119417847D01*
X142803805Y-119277071D01*
X142823694Y-119126000D01*
X142803805Y-118974929D01*
X142745494Y-118834153D01*
X142652734Y-118713266D01*
X142531847Y-118620506D01*
X142531846Y-118620505D01*
X142531844Y-118620504D01*
X142391074Y-118562196D01*
X142391072Y-118562195D01*
X142391071Y-118562195D01*
X142240000Y-118542306D01*
X142088929Y-118562195D01*
X142088925Y-118562196D01*
X141948155Y-118620504D01*
X141827266Y-118713266D01*
X141734504Y-118834155D01*
X141676196Y-118974925D01*
X141676195Y-118974929D01*
X141656306Y-119126000D01*
X132168850Y-119126000D01*
X132517937Y-118776913D01*
X132521899Y-118773282D01*
X132553250Y-118746977D01*
X132573710Y-118711536D01*
X132576591Y-118707014D01*
X132600066Y-118673491D01*
X132600068Y-118673483D01*
X132602162Y-118668994D01*
X132609511Y-118651253D01*
X132611208Y-118646591D01*
X132611208Y-118646590D01*
X132611209Y-118646589D01*
X132618316Y-118606275D01*
X132619472Y-118601062D01*
X132630068Y-118561522D01*
X132626502Y-118520771D01*
X132626267Y-118515370D01*
X132626267Y-117290764D01*
X132645952Y-117223725D01*
X132674781Y-117192388D01*
X132710301Y-117165133D01*
X132803061Y-117044246D01*
X132861372Y-116903470D01*
X132881261Y-116752399D01*
X132861372Y-116601328D01*
X132813512Y-116485783D01*
X132803062Y-116460554D01*
X132803061Y-116460553D01*
X132803061Y-116460552D01*
X132710301Y-116339665D01*
X132589414Y-116246905D01*
X132589413Y-116246904D01*
X132589411Y-116246903D01*
X132448641Y-116188595D01*
X132448639Y-116188594D01*
X132448638Y-116188594D01*
X132297567Y-116168705D01*
X132146496Y-116188594D01*
X132146492Y-116188595D01*
X132005722Y-116246903D01*
X131884833Y-116339665D01*
X131792071Y-116460554D01*
X131733763Y-116601324D01*
X131733762Y-116601328D01*
X131713873Y-116752398D01*
X131733762Y-116903469D01*
X131733763Y-116903473D01*
X131792071Y-117044243D01*
X131792072Y-117044245D01*
X131792073Y-117044246D01*
X131864132Y-117138155D01*
X131884834Y-117165134D01*
X131920353Y-117192388D01*
X131961556Y-117248816D01*
X131968867Y-117290764D01*
X131968866Y-118344918D01*
X131949181Y-118411958D01*
X131932547Y-118432599D01*
X131308255Y-119056891D01*
X131246932Y-119090376D01*
X131204391Y-119092149D01*
X131160004Y-119086306D01*
X131159999Y-119086306D01*
X131008929Y-119106195D01*
X131008925Y-119106196D01*
X130868155Y-119164504D01*
X130747266Y-119257266D01*
X130654504Y-119378155D01*
X130596196Y-119518925D01*
X130596195Y-119518929D01*
X130576306Y-119670000D01*
X122843142Y-119670000D01*
X122841356Y-115700000D01*
X134826306Y-115700000D01*
X134843280Y-115828925D01*
X134846195Y-115851070D01*
X134846196Y-115851074D01*
X134904504Y-115991844D01*
X134904505Y-115991846D01*
X134904506Y-115991847D01*
X134997266Y-116112734D01*
X135118153Y-116205494D01*
X135258929Y-116263805D01*
X135410000Y-116283694D01*
X135561071Y-116263805D01*
X135701847Y-116205494D01*
X135822734Y-116112734D01*
X135915494Y-115991847D01*
X135973805Y-115851071D01*
X135993694Y-115700000D01*
X135973805Y-115548929D01*
X135915494Y-115408153D01*
X135822734Y-115287266D01*
X135701847Y-115194506D01*
X135701846Y-115194505D01*
X135701844Y-115194504D01*
X135561074Y-115136196D01*
X135561072Y-115136195D01*
X135561071Y-115136195D01*
X135410000Y-115116306D01*
X135258929Y-115136195D01*
X135258925Y-115136196D01*
X135118155Y-115194504D01*
X134997266Y-115287266D01*
X134904504Y-115408155D01*
X134846196Y-115548925D01*
X134846195Y-115548929D01*
X134830278Y-115669833D01*
X134826306Y-115700000D01*
X122841356Y-115700000D01*
X122837846Y-107900000D01*
X130606306Y-107900000D01*
X130622473Y-108022803D01*
X130626195Y-108051070D01*
X130626196Y-108051074D01*
X130684504Y-108191844D01*
X130684505Y-108191846D01*
X130684506Y-108191847D01*
X130777266Y-108312734D01*
X130898153Y-108405494D01*
X130898154Y-108405494D01*
X130898155Y-108405495D01*
X130916873Y-108413248D01*
X131038929Y-108463805D01*
X131190000Y-108483694D01*
X131341071Y-108463805D01*
X131481847Y-108405494D01*
X131602734Y-108312734D01*
X131695494Y-108191847D01*
X131753805Y-108051071D01*
X131773694Y-107900000D01*
X131753805Y-107748929D01*
X131696290Y-107610074D01*
X131695495Y-107608155D01*
X131695494Y-107608154D01*
X131695494Y-107608153D01*
X131602734Y-107487266D01*
X131565897Y-107459000D01*
X140456306Y-107459000D01*
X140475943Y-107608153D01*
X140476195Y-107610070D01*
X140476196Y-107610074D01*
X140534504Y-107750844D01*
X140534505Y-107750846D01*
X140534506Y-107750847D01*
X140627266Y-107871734D01*
X140748153Y-107964494D01*
X140888929Y-108022805D01*
X141040000Y-108042694D01*
X141145708Y-108028777D01*
X141214743Y-108039542D01*
X141266999Y-108085922D01*
X141284832Y-108135530D01*
X141301981Y-108265791D01*
X141302861Y-108272471D01*
X141302862Y-108272475D01*
X141361170Y-108413245D01*
X141361171Y-108413247D01*
X141361172Y-108413248D01*
X141453932Y-108534135D01*
X141574819Y-108626895D01*
X141715595Y-108685206D01*
X141866666Y-108705095D01*
X141935723Y-108696003D01*
X142004756Y-108706768D01*
X142057012Y-108753148D01*
X142075898Y-108820416D01*
X142074846Y-108835126D01*
X142066306Y-108899997D01*
X142066306Y-108900000D01*
X142074514Y-108962341D01*
X142086195Y-109051070D01*
X142086196Y-109051074D01*
X142144504Y-109191844D01*
X142144505Y-109191846D01*
X142144506Y-109191847D01*
X142237266Y-109312734D01*
X142358153Y-109405494D01*
X142498929Y-109463805D01*
X142650000Y-109483694D01*
X142653447Y-109483240D01*
X142656359Y-109483694D01*
X142658127Y-109483694D01*
X142658127Y-109483969D01*
X142722483Y-109494002D01*
X142774741Y-109540380D01*
X142793629Y-109607648D01*
X142792577Y-109622362D01*
X142786306Y-109669997D01*
X142786306Y-109669999D01*
X142806195Y-109821070D01*
X142806196Y-109821074D01*
X142864504Y-109961844D01*
X142864505Y-109961846D01*
X142864506Y-109961847D01*
X142957266Y-110082734D01*
X143078153Y-110175494D01*
X143218929Y-110233805D01*
X143370000Y-110253694D01*
X143521071Y-110233805D01*
X143661847Y-110175494D01*
X143782734Y-110082734D01*
X143875494Y-109961847D01*
X143933805Y-109821071D01*
X143953694Y-109670000D01*
X143947849Y-109625608D01*
X143958614Y-109556576D01*
X143983104Y-109521746D01*
X144617225Y-108887625D01*
X144621187Y-108883994D01*
X144652538Y-108857689D01*
X144673001Y-108822242D01*
X144675877Y-108817729D01*
X144699354Y-108784203D01*
X144699355Y-108784197D01*
X144701446Y-108779715D01*
X144708799Y-108761961D01*
X144710493Y-108757306D01*
X144710497Y-108757301D01*
X144717599Y-108717023D01*
X144718766Y-108711754D01*
X144729356Y-108672235D01*
X144725790Y-108631484D01*
X144725555Y-108626083D01*
X144725555Y-108332830D01*
X144745240Y-108265791D01*
X144774069Y-108234454D01*
X144809589Y-108207199D01*
X144902349Y-108086312D01*
X144960660Y-107945536D01*
X144980549Y-107794465D01*
X144960660Y-107643394D01*
X144902349Y-107502618D01*
X144809589Y-107381731D01*
X144688702Y-107288971D01*
X144688701Y-107288970D01*
X144688699Y-107288969D01*
X144547929Y-107230661D01*
X144547927Y-107230660D01*
X144547926Y-107230660D01*
X144396855Y-107210771D01*
X144396854Y-107210771D01*
X144352380Y-107216626D01*
X144283345Y-107205860D01*
X144231089Y-107159480D01*
X144213257Y-107109873D01*
X144207394Y-107065340D01*
X144149083Y-106924564D01*
X144056323Y-106803677D01*
X143935436Y-106710917D01*
X143935435Y-106710916D01*
X143935433Y-106710915D01*
X143794663Y-106652607D01*
X143794661Y-106652606D01*
X143794660Y-106652606D01*
X143759694Y-106648002D01*
X143643983Y-106632768D01*
X143580086Y-106604501D01*
X143541616Y-106546176D01*
X143537231Y-106526022D01*
X143517394Y-106375340D01*
X143459083Y-106234564D01*
X143366323Y-106113677D01*
X143245436Y-106020917D01*
X143245435Y-106020916D01*
X143245433Y-106020915D01*
X143104661Y-105962606D01*
X143064432Y-105957309D01*
X143000536Y-105929040D01*
X142962066Y-105870715D01*
X142957681Y-105850554D01*
X142952386Y-105810334D01*
X142952386Y-105810332D01*
X142894075Y-105669556D01*
X142801315Y-105548669D01*
X142680428Y-105455909D01*
X142680427Y-105455908D01*
X142680425Y-105455907D01*
X142539655Y-105397599D01*
X142539653Y-105397598D01*
X142539652Y-105397598D01*
X142388581Y-105377709D01*
X142237510Y-105397598D01*
X142237506Y-105397599D01*
X142096736Y-105455907D01*
X141975847Y-105548669D01*
X141883085Y-105669558D01*
X141824777Y-105810328D01*
X141824776Y-105810332D01*
X141804887Y-105961402D01*
X141804887Y-105961407D01*
X141810730Y-106005794D01*
X141799964Y-106074829D01*
X141775472Y-106109658D01*
X141035014Y-106850116D01*
X140973691Y-106883601D01*
X140963520Y-106885374D01*
X140888928Y-106895195D01*
X140748155Y-106953504D01*
X140627266Y-107046266D01*
X140534504Y-107167155D01*
X140476196Y-107307925D01*
X140476195Y-107307929D01*
X140456306Y-107459000D01*
X131565897Y-107459000D01*
X131481847Y-107394506D01*
X131481846Y-107394505D01*
X131481844Y-107394504D01*
X131341074Y-107336196D01*
X131341072Y-107336195D01*
X131341071Y-107336195D01*
X131190000Y-107316306D01*
X131038929Y-107336195D01*
X131038925Y-107336196D01*
X130898155Y-107394504D01*
X130777266Y-107487266D01*
X130684504Y-107608155D01*
X130626196Y-107748925D01*
X130626195Y-107748929D01*
X130606306Y-107900000D01*
X122837846Y-107900000D01*
X122835205Y-102030000D01*
X123976806Y-102030000D01*
X123980163Y-102055494D01*
X123996695Y-102181070D01*
X123996696Y-102181074D01*
X124055004Y-102321844D01*
X124055005Y-102321846D01*
X124055006Y-102321847D01*
X124147766Y-102442734D01*
X124268653Y-102535494D01*
X124409429Y-102593805D01*
X124560500Y-102613694D01*
X124711571Y-102593805D01*
X124852347Y-102535494D01*
X124973234Y-102442734D01*
X125065994Y-102321847D01*
X125124305Y-102181071D01*
X125144194Y-102030000D01*
X125124305Y-101878929D01*
X125065994Y-101738153D01*
X124973234Y-101617266D01*
X124973232Y-101617264D01*
X124973231Y-101617263D01*
X124937712Y-101590008D01*
X124908500Y-101550000D01*
X128226306Y-101550000D01*
X128235162Y-101617263D01*
X128246195Y-101701070D01*
X128246196Y-101701074D01*
X128304504Y-101841844D01*
X128304505Y-101841846D01*
X128304506Y-101841847D01*
X128397266Y-101962734D01*
X128518153Y-102055494D01*
X128658929Y-102113805D01*
X128810000Y-102133694D01*
X128961071Y-102113805D01*
X129101847Y-102055494D01*
X129222734Y-101962734D01*
X129315494Y-101841847D01*
X129373805Y-101701071D01*
X129393694Y-101550000D01*
X129373805Y-101398929D01*
X129315494Y-101258153D01*
X129222734Y-101137266D01*
X129101847Y-101044506D01*
X129101846Y-101044505D01*
X129101844Y-101044504D01*
X128961074Y-100986196D01*
X128961072Y-100986195D01*
X128961071Y-100986195D01*
X128810000Y-100966306D01*
X128658929Y-100986195D01*
X128658925Y-100986196D01*
X128518155Y-101044504D01*
X128397266Y-101137266D01*
X128304504Y-101258155D01*
X128246196Y-101398925D01*
X128246195Y-101398929D01*
X128226306Y-101550000D01*
X124908500Y-101550000D01*
X124896510Y-101533579D01*
X124889200Y-101491633D01*
X124889200Y-100497013D01*
X124908885Y-100429974D01*
X124925519Y-100409332D01*
X125269846Y-100065005D01*
X133711745Y-91623105D01*
X133773066Y-91589622D01*
X133815605Y-91587849D01*
X133860000Y-91593694D01*
X134011071Y-91573805D01*
X134151847Y-91515494D01*
X134272734Y-91422734D01*
X134365494Y-91301847D01*
X134423805Y-91161071D01*
X134443694Y-91010000D01*
X134423805Y-90858929D01*
X134365494Y-90718153D01*
X134272734Y-90597266D01*
X134151847Y-90504506D01*
X134151846Y-90504505D01*
X134151844Y-90504504D01*
X134011074Y-90446196D01*
X134011072Y-90446195D01*
X134011071Y-90446195D01*
X133860000Y-90426306D01*
X133708929Y-90446195D01*
X133708925Y-90446196D01*
X133568155Y-90504504D01*
X133447266Y-90597266D01*
X133354504Y-90718155D01*
X133296196Y-90858925D01*
X133296195Y-90858929D01*
X133276306Y-91009999D01*
X133276306Y-91010004D01*
X133282149Y-91054391D01*
X133271383Y-91123426D01*
X133246891Y-91158255D01*
X124340142Y-100065005D01*
X124336154Y-100068659D01*
X124304816Y-100094956D01*
X124304815Y-100094957D01*
X124284364Y-100130379D01*
X124281458Y-100134940D01*
X124257999Y-100168444D01*
X124255935Y-100172870D01*
X124248536Y-100190735D01*
X124246856Y-100195349D01*
X124239753Y-100235629D01*
X124238582Y-100240909D01*
X124227998Y-100280408D01*
X124227998Y-100280411D01*
X124231563Y-100321156D01*
X124231799Y-100326562D01*
X124231799Y-101491634D01*
X124212114Y-101558673D01*
X124183287Y-101590009D01*
X124147768Y-101617263D01*
X124055004Y-101738155D01*
X123996696Y-101878925D01*
X123996695Y-101878929D01*
X123976806Y-102030000D01*
X122835205Y-102030000D01*
X122827483Y-84868161D01*
X143246806Y-84868161D01*
X143264141Y-84999836D01*
X143266695Y-85019231D01*
X143266696Y-85019235D01*
X143325004Y-85160005D01*
X143325005Y-85160006D01*
X143325006Y-85160008D01*
X143417766Y-85280895D01*
X143538653Y-85373655D01*
X143679429Y-85431966D01*
X143830500Y-85451855D01*
X143981571Y-85431966D01*
X144122347Y-85373655D01*
X144243234Y-85280895D01*
X144335994Y-85160008D01*
X144369610Y-85078851D01*
X144413448Y-85024451D01*
X144479741Y-85002385D01*
X144547441Y-85019663D01*
X144577882Y-85045104D01*
X144646751Y-85124584D01*
X144646753Y-85124585D01*
X144646754Y-85124586D01*
X144768604Y-85202894D01*
X144768605Y-85202894D01*
X144768608Y-85202896D01*
X144907576Y-85243699D01*
X144907578Y-85243700D01*
X144907579Y-85243700D01*
X145052422Y-85243700D01*
X145052422Y-85243699D01*
X145113143Y-85225870D01*
X145191391Y-85202896D01*
X145191392Y-85202895D01*
X145191396Y-85202894D01*
X145313246Y-85124586D01*
X145388609Y-85037611D01*
X145447385Y-84999836D01*
X145517255Y-84999835D01*
X145576034Y-85037609D01*
X145580681Y-85043305D01*
X145641629Y-85122734D01*
X145762516Y-85215494D01*
X145903292Y-85273805D01*
X146054363Y-85293694D01*
X146205434Y-85273805D01*
X146346210Y-85215494D01*
X146467097Y-85122734D01*
X146559857Y-85001847D01*
X146618168Y-84861071D01*
X146638057Y-84710000D01*
X146618168Y-84558929D01*
X146574643Y-84453850D01*
X146559858Y-84418155D01*
X146559857Y-84418154D01*
X146559857Y-84418153D01*
X146467097Y-84297266D01*
X146467095Y-84297264D01*
X146467094Y-84297263D01*
X146431575Y-84270008D01*
X146390373Y-84213579D01*
X146383063Y-84171633D01*
X146383063Y-83483890D01*
X146402748Y-83416851D01*
X146455552Y-83371096D01*
X146524710Y-83361152D01*
X146588266Y-83390177D01*
X146605435Y-83408400D01*
X146653266Y-83470734D01*
X146774153Y-83563494D01*
X146914929Y-83621805D01*
X147066000Y-83641694D01*
X147217071Y-83621805D01*
X147357847Y-83563494D01*
X147478734Y-83470734D01*
X147571494Y-83349847D01*
X147629805Y-83209071D01*
X147649694Y-83058000D01*
X147629805Y-82906929D01*
X147571494Y-82766153D01*
X147478734Y-82645266D01*
X147357847Y-82552506D01*
X147357846Y-82552505D01*
X147357844Y-82552504D01*
X147217074Y-82494196D01*
X147217072Y-82494195D01*
X147217071Y-82494195D01*
X147066000Y-82474306D01*
X146914929Y-82494195D01*
X146914925Y-82494196D01*
X146774155Y-82552504D01*
X146723895Y-82591070D01*
X146653266Y-82645266D01*
X146653265Y-82645267D01*
X146653264Y-82645268D01*
X146605438Y-82707596D01*
X146549010Y-82748798D01*
X146479264Y-82752953D01*
X146418344Y-82718740D01*
X146385592Y-82657023D01*
X146383063Y-82632109D01*
X146383063Y-81620638D01*
X146387289Y-81588543D01*
X146392501Y-81569091D01*
X146388936Y-81528345D01*
X146388700Y-81522938D01*
X146388700Y-81142928D01*
X146388936Y-81137521D01*
X146392500Y-81096787D01*
X146384270Y-81066074D01*
X146385931Y-80996224D01*
X146425093Y-80938361D01*
X146489321Y-80910855D01*
X146558223Y-80922440D01*
X146591725Y-80946297D01*
X148363981Y-82718553D01*
X148397466Y-82779876D01*
X148400300Y-82806234D01*
X148400300Y-111451937D01*
X148400064Y-111457344D01*
X148396498Y-111498091D01*
X148407082Y-111537592D01*
X148408253Y-111542872D01*
X148415356Y-111583154D01*
X148417028Y-111587746D01*
X148424436Y-111605630D01*
X148426501Y-111610058D01*
X148449959Y-111643560D01*
X148452865Y-111648122D01*
X148473317Y-111683544D01*
X148504649Y-111709835D01*
X148508639Y-111713491D01*
X152464981Y-115669833D01*
X152498466Y-115731156D01*
X152501300Y-115757514D01*
X152501300Y-118521633D01*
X152481615Y-118588672D01*
X152452788Y-118620008D01*
X152417268Y-118647263D01*
X152324504Y-118768155D01*
X152266196Y-118908925D01*
X152266195Y-118908929D01*
X152250115Y-119031071D01*
X152246306Y-119060000D01*
X152251590Y-119100131D01*
X152266195Y-119211070D01*
X152266196Y-119211074D01*
X152324504Y-119351844D01*
X152324505Y-119351846D01*
X152324506Y-119351847D01*
X152417266Y-119472734D01*
X152538153Y-119565494D01*
X152678929Y-119623805D01*
X152830000Y-119643694D01*
X152981071Y-119623805D01*
X153121847Y-119565494D01*
X153242734Y-119472734D01*
X153335494Y-119351847D01*
X153393805Y-119211071D01*
X153413694Y-119060000D01*
X153393805Y-118908929D01*
X153335494Y-118768153D01*
X153242734Y-118647266D01*
X153242732Y-118647264D01*
X153242731Y-118647263D01*
X153207212Y-118620008D01*
X153166010Y-118563579D01*
X153158700Y-118521633D01*
X153158700Y-115676921D01*
X153162925Y-115644826D01*
X153172501Y-115609090D01*
X153162398Y-115493614D01*
X153137442Y-115440096D01*
X153136534Y-115437600D01*
X153128499Y-115420359D01*
X153127144Y-115418012D01*
X153113409Y-115388557D01*
X153048884Y-115324032D01*
X153048882Y-115324029D01*
X151274853Y-113550000D01*
X156646306Y-113550000D01*
X156666195Y-113701070D01*
X156666196Y-113701074D01*
X156724504Y-113841844D01*
X156724505Y-113841846D01*
X156724506Y-113841847D01*
X156817266Y-113962734D01*
X156938153Y-114055494D01*
X157078929Y-114113805D01*
X157230000Y-114133694D01*
X157381071Y-114113805D01*
X157521847Y-114055494D01*
X157642734Y-113962734D01*
X157735494Y-113841847D01*
X157756141Y-113792000D01*
X163754306Y-113792000D01*
X163774195Y-113943070D01*
X163774196Y-113943074D01*
X163832504Y-114083844D01*
X163832505Y-114083846D01*
X163832506Y-114083847D01*
X163925266Y-114204734D01*
X164046153Y-114297494D01*
X164186929Y-114355805D01*
X164338000Y-114375694D01*
X164489071Y-114355805D01*
X164629847Y-114297494D01*
X164750734Y-114204734D01*
X164843494Y-114083847D01*
X164901805Y-113943071D01*
X164921694Y-113792000D01*
X164901805Y-113640929D01*
X164843494Y-113500153D01*
X164750734Y-113379266D01*
X164629847Y-113286506D01*
X164629846Y-113286505D01*
X164629844Y-113286504D01*
X164489074Y-113228196D01*
X164489072Y-113228195D01*
X164489071Y-113228195D01*
X164338000Y-113208306D01*
X164186929Y-113228195D01*
X164186925Y-113228196D01*
X164046155Y-113286504D01*
X163925266Y-113379266D01*
X163832504Y-113500155D01*
X163774196Y-113640925D01*
X163774195Y-113640929D01*
X163754306Y-113792000D01*
X157756141Y-113792000D01*
X157793805Y-113701071D01*
X157813694Y-113550000D01*
X157793805Y-113398929D01*
X157735494Y-113258153D01*
X157642734Y-113137266D01*
X157521847Y-113044506D01*
X157521846Y-113044505D01*
X157521844Y-113044504D01*
X157381074Y-112986196D01*
X157381072Y-112986195D01*
X157381071Y-112986195D01*
X157230000Y-112966306D01*
X157078929Y-112986195D01*
X157078925Y-112986196D01*
X156938155Y-113044504D01*
X156817266Y-113137266D01*
X156724504Y-113258155D01*
X156666196Y-113398925D01*
X156666195Y-113398929D01*
X156646306Y-113550000D01*
X151274853Y-113550000D01*
X149094019Y-111369166D01*
X149060534Y-111307843D01*
X149057700Y-111281485D01*
X149057700Y-110090000D01*
X161016306Y-110090000D01*
X161035239Y-110233805D01*
X161036195Y-110241070D01*
X161036196Y-110241074D01*
X161094504Y-110381844D01*
X161094505Y-110381846D01*
X161094506Y-110381847D01*
X161187266Y-110502734D01*
X161308153Y-110595494D01*
X161448929Y-110653805D01*
X161600000Y-110673694D01*
X161751071Y-110653805D01*
X161891847Y-110595494D01*
X162012734Y-110502734D01*
X162105494Y-110381847D01*
X162163805Y-110241071D01*
X162183694Y-110090000D01*
X162163805Y-109938929D01*
X162114987Y-109821071D01*
X162105495Y-109798155D01*
X162105494Y-109798154D01*
X162105494Y-109798153D01*
X162012734Y-109677266D01*
X161891847Y-109584506D01*
X161891846Y-109584505D01*
X161891844Y-109584504D01*
X161751074Y-109526196D01*
X161751072Y-109526195D01*
X161751071Y-109526195D01*
X161600000Y-109506306D01*
X161448929Y-109526195D01*
X161448925Y-109526196D01*
X161308155Y-109584504D01*
X161187266Y-109677266D01*
X161094504Y-109798155D01*
X161036196Y-109938925D01*
X161036195Y-109938929D01*
X161017263Y-110082734D01*
X161016306Y-110090000D01*
X149057700Y-110090000D01*
X149057700Y-107520000D01*
X151126306Y-107520000D01*
X151146195Y-107671070D01*
X151146196Y-107671074D01*
X151204504Y-107811844D01*
X151204505Y-107811846D01*
X151204506Y-107811847D01*
X151297266Y-107932734D01*
X151418153Y-108025494D01*
X151558929Y-108083805D01*
X151710000Y-108103694D01*
X151861071Y-108083805D01*
X152001847Y-108025494D01*
X152122734Y-107932734D01*
X152215494Y-107811847D01*
X152273805Y-107671071D01*
X152293694Y-107520000D01*
X152273805Y-107368929D01*
X152216533Y-107230661D01*
X152215495Y-107228155D01*
X152215494Y-107228154D01*
X152215494Y-107228153D01*
X152122734Y-107107266D01*
X152001847Y-107014506D01*
X152001846Y-107014505D01*
X152001844Y-107014504D01*
X151861074Y-106956196D01*
X151861072Y-106956195D01*
X151861071Y-106956195D01*
X151710000Y-106936306D01*
X151558929Y-106956195D01*
X151558925Y-106956196D01*
X151418155Y-107014504D01*
X151297266Y-107107266D01*
X151204504Y-107228155D01*
X151146196Y-107368925D01*
X151146195Y-107368929D01*
X151126306Y-107520000D01*
X149057700Y-107520000D01*
X149057700Y-83891109D01*
X149077385Y-83824070D01*
X149130189Y-83778315D01*
X149199347Y-83768371D01*
X149262903Y-83797396D01*
X149296261Y-83843657D01*
X149324504Y-83911844D01*
X149324505Y-83911846D01*
X149324506Y-83911847D01*
X149417266Y-84032734D01*
X149538153Y-84125494D01*
X149538154Y-84125494D01*
X149538155Y-84125495D01*
X149585078Y-84144930D01*
X149678929Y-84183805D01*
X149830000Y-84203694D01*
X149981071Y-84183805D01*
X150029848Y-84163600D01*
X150099317Y-84156132D01*
X150161796Y-84187407D01*
X150197448Y-84247496D01*
X150201300Y-84278162D01*
X150201300Y-88687437D01*
X150201064Y-88692844D01*
X150197498Y-88733591D01*
X150208082Y-88773092D01*
X150209253Y-88778372D01*
X150216356Y-88818654D01*
X150218028Y-88823246D01*
X150225436Y-88841130D01*
X150227501Y-88845558D01*
X150250959Y-88879060D01*
X150253865Y-88883622D01*
X150274317Y-88919044D01*
X150305649Y-88945335D01*
X150309639Y-88948991D01*
X151926891Y-90566243D01*
X151960376Y-90627566D01*
X151962149Y-90670107D01*
X151956306Y-90714495D01*
X151956306Y-90714500D01*
X151968049Y-90803700D01*
X151976195Y-90865570D01*
X151976196Y-90865574D01*
X152034504Y-91006344D01*
X152034505Y-91006346D01*
X152034506Y-91006347D01*
X152127266Y-91127234D01*
X152248153Y-91219994D01*
X152388929Y-91278305D01*
X152540000Y-91298194D01*
X152691071Y-91278305D01*
X152831847Y-91219994D01*
X152952734Y-91127234D01*
X153045494Y-91006347D01*
X153103805Y-90865571D01*
X153123694Y-90714500D01*
X153103805Y-90563429D01*
X153054072Y-90443363D01*
X153045495Y-90422655D01*
X153045494Y-90422654D01*
X153045494Y-90422653D01*
X152952734Y-90301766D01*
X152831847Y-90209006D01*
X152831846Y-90209005D01*
X152831844Y-90209004D01*
X152691074Y-90150696D01*
X152691072Y-90150695D01*
X152691071Y-90150695D01*
X152584382Y-90136649D01*
X152540001Y-90130806D01*
X152539996Y-90130806D01*
X152495607Y-90136649D01*
X152426572Y-90125882D01*
X152391743Y-90101391D01*
X150895019Y-88604667D01*
X150861534Y-88543344D01*
X150858700Y-88516986D01*
X150858700Y-88360000D01*
X151816306Y-88360000D01*
X151821183Y-88397048D01*
X151836195Y-88511070D01*
X151836196Y-88511074D01*
X151894504Y-88651844D01*
X151894505Y-88651846D01*
X151894506Y-88651847D01*
X151987266Y-88772734D01*
X152108153Y-88865494D01*
X152248929Y-88923805D01*
X152400000Y-88943694D01*
X152450134Y-88937093D01*
X152519170Y-88947858D01*
X152528318Y-88952643D01*
X152542204Y-88960659D01*
X152549772Y-88965028D01*
X152554331Y-88967934D01*
X152587839Y-88991396D01*
X152592317Y-88993483D01*
X152610113Y-89000854D01*
X152614733Y-89002536D01*
X152614738Y-89002536D01*
X152614740Y-89002538D01*
X152655037Y-89009643D01*
X152660285Y-89010807D01*
X152699806Y-89021397D01*
X152740556Y-89017831D01*
X152745958Y-89017596D01*
X155710846Y-89017596D01*
X155777885Y-89037281D01*
X155823640Y-89090085D01*
X155833584Y-89159243D01*
X155832697Y-89163319D01*
X155816987Y-89272589D01*
X155811120Y-89313396D01*
X155812545Y-89323304D01*
X155831732Y-89456759D01*
X155831734Y-89456767D01*
X155891900Y-89588513D01*
X155891905Y-89588521D01*
X155986751Y-89697980D01*
X155986753Y-89697981D01*
X155986754Y-89697982D01*
X156108604Y-89776290D01*
X156108605Y-89776290D01*
X156108608Y-89776292D01*
X156247576Y-89817095D01*
X156247578Y-89817096D01*
X156247579Y-89817096D01*
X156392422Y-89817096D01*
X156392422Y-89817095D01*
X156467334Y-89795100D01*
X156531391Y-89776292D01*
X156531392Y-89776291D01*
X156531396Y-89776290D01*
X156653246Y-89697982D01*
X156653248Y-89697980D01*
X156748094Y-89588521D01*
X156748095Y-89588519D01*
X156748097Y-89588517D01*
X156808267Y-89456764D01*
X156825707Y-89335464D01*
X156854730Y-89271911D01*
X156913508Y-89234136D01*
X156983378Y-89234136D01*
X156995890Y-89238549D01*
X157030055Y-89252701D01*
X157181126Y-89272590D01*
X157332197Y-89252701D01*
X157472973Y-89194390D01*
X157593860Y-89101630D01*
X157686620Y-88980743D01*
X157744931Y-88839967D01*
X157755525Y-88759500D01*
X166866306Y-88759500D01*
X166882046Y-88879060D01*
X166886195Y-88910570D01*
X166886196Y-88910574D01*
X166944504Y-89051344D01*
X166944505Y-89051346D01*
X166944506Y-89051347D01*
X167037266Y-89172234D01*
X167158153Y-89264994D01*
X167298929Y-89323305D01*
X167450000Y-89343194D01*
X167601071Y-89323305D01*
X167741847Y-89264994D01*
X167862734Y-89172234D01*
X167955494Y-89051347D01*
X168013805Y-88910571D01*
X168033694Y-88759500D01*
X168013805Y-88608429D01*
X167955494Y-88467653D01*
X167862734Y-88346766D01*
X167741847Y-88254006D01*
X167741846Y-88254005D01*
X167741844Y-88254004D01*
X167601074Y-88195696D01*
X167601072Y-88195695D01*
X167601071Y-88195695D01*
X167450000Y-88175806D01*
X167298929Y-88195695D01*
X167298925Y-88195696D01*
X167158155Y-88254004D01*
X167037266Y-88346766D01*
X166944504Y-88467655D01*
X166886196Y-88608425D01*
X166886195Y-88608429D01*
X166866306Y-88759500D01*
X157755525Y-88759500D01*
X157764820Y-88688896D01*
X157744931Y-88537825D01*
X157715865Y-88467653D01*
X157686621Y-88397050D01*
X157686619Y-88397048D01*
X157646414Y-88344651D01*
X157621220Y-88279482D01*
X157635259Y-88211037D01*
X157646412Y-88193682D01*
X157655494Y-88181847D01*
X157713805Y-88041071D01*
X157733694Y-87890000D01*
X157713805Y-87738929D01*
X157682505Y-87663363D01*
X157655495Y-87598154D01*
X157655493Y-87598152D01*
X157638918Y-87576551D01*
X157613723Y-87511383D01*
X157627761Y-87442938D01*
X157638913Y-87425584D01*
X157695494Y-87351847D01*
X157702421Y-87335125D01*
X157706264Y-87325844D01*
X157753805Y-87211071D01*
X157773694Y-87060000D01*
X157753805Y-86908929D01*
X157695494Y-86768153D01*
X157670426Y-86735484D01*
X157645233Y-86670319D01*
X157659271Y-86601874D01*
X157670421Y-86584521D01*
X157695494Y-86551847D01*
X157753805Y-86411071D01*
X157773694Y-86260000D01*
X157753805Y-86108929D01*
X157695494Y-85968153D01*
X157602734Y-85847266D01*
X157481847Y-85754506D01*
X157481846Y-85754505D01*
X157481844Y-85754504D01*
X157341074Y-85696196D01*
X157341072Y-85696195D01*
X157341071Y-85696195D01*
X157190000Y-85676306D01*
X157038929Y-85696195D01*
X157038925Y-85696196D01*
X156898155Y-85754504D01*
X156777266Y-85847266D01*
X156684504Y-85968155D01*
X156626195Y-86108927D01*
X156622580Y-86136383D01*
X156594311Y-86200278D01*
X156587322Y-86207874D01*
X156269642Y-86525555D01*
X156265654Y-86529209D01*
X156234316Y-86555506D01*
X156234315Y-86555507D01*
X156213864Y-86590929D01*
X156210958Y-86595490D01*
X156187499Y-86628994D01*
X156185432Y-86633426D01*
X156178032Y-86651290D01*
X156176359Y-86655889D01*
X156175946Y-86658232D01*
X156174291Y-86661569D01*
X156172648Y-86666086D01*
X156172144Y-86665902D01*
X156144917Y-86720834D01*
X156084969Y-86756723D01*
X156053830Y-86760696D01*
X155405227Y-86760696D01*
X155338188Y-86741011D01*
X155306851Y-86712182D01*
X155279598Y-86676665D01*
X155279596Y-86676663D01*
X155279595Y-86676662D01*
X155158708Y-86583902D01*
X155158707Y-86583901D01*
X155158705Y-86583900D01*
X155017935Y-86525592D01*
X155017933Y-86525591D01*
X155017932Y-86525591D01*
X154866861Y-86505702D01*
X154715790Y-86525591D01*
X154715786Y-86525592D01*
X154575016Y-86583900D01*
X154454127Y-86676662D01*
X154361366Y-86797550D01*
X154303945Y-86936177D01*
X154260104Y-86990580D01*
X154193809Y-87012645D01*
X154141932Y-87003285D01*
X154075074Y-86975592D01*
X154075072Y-86975591D01*
X154075071Y-86975591D01*
X153924000Y-86955702D01*
X153772929Y-86975591D01*
X153772925Y-86975592D01*
X153632155Y-87033900D01*
X153598143Y-87059999D01*
X153511266Y-87126662D01*
X153511264Y-87126663D01*
X153511263Y-87126665D01*
X153503805Y-87136384D01*
X153447376Y-87177584D01*
X153377629Y-87181736D01*
X153316711Y-87147521D01*
X153307648Y-87137061D01*
X153307362Y-87136775D01*
X153307359Y-87136773D01*
X153307358Y-87136771D01*
X153186471Y-87044011D01*
X153186470Y-87044010D01*
X153186468Y-87044009D01*
X153045698Y-86985701D01*
X153045696Y-86985700D01*
X153045695Y-86985700D01*
X152894624Y-86965811D01*
X152743553Y-86985700D01*
X152743549Y-86985701D01*
X152602779Y-87044009D01*
X152481890Y-87136771D01*
X152389128Y-87257660D01*
X152330820Y-87398430D01*
X152330819Y-87398434D01*
X152310930Y-87549505D01*
X152310930Y-87549506D01*
X152326102Y-87664750D01*
X152315336Y-87733785D01*
X152268956Y-87786041D01*
X152250616Y-87795496D01*
X152108154Y-87854505D01*
X151987266Y-87947266D01*
X151894504Y-88068155D01*
X151836196Y-88208925D01*
X151836195Y-88208929D01*
X151816306Y-88360000D01*
X150858700Y-88360000D01*
X150858700Y-83347100D01*
X150858936Y-83341693D01*
X150862500Y-83300958D01*
X150851914Y-83261454D01*
X150850748Y-83256198D01*
X150843642Y-83215894D01*
X150843640Y-83215890D01*
X150841955Y-83211261D01*
X150834576Y-83193447D01*
X150832499Y-83188992D01*
X150809042Y-83155493D01*
X150806135Y-83150929D01*
X150794479Y-83130742D01*
X150785683Y-83115506D01*
X150785680Y-83115503D01*
X150785679Y-83115502D01*
X150760413Y-83094302D01*
X150754342Y-83089207D01*
X150750370Y-83085568D01*
X150104802Y-82440000D01*
X154766306Y-82440000D01*
X154770822Y-82474306D01*
X154786195Y-82591070D01*
X154786196Y-82591074D01*
X154844504Y-82731844D01*
X154844505Y-82731846D01*
X154844506Y-82731847D01*
X154937266Y-82852734D01*
X155058153Y-82945494D01*
X155198929Y-83003805D01*
X155350000Y-83023694D01*
X155501071Y-83003805D01*
X155641847Y-82945494D01*
X155762734Y-82852734D01*
X155855494Y-82731847D01*
X155913805Y-82591071D01*
X155933694Y-82440000D01*
X155913805Y-82288929D01*
X155855494Y-82148153D01*
X155762734Y-82027266D01*
X155641847Y-81934506D01*
X155641846Y-81934505D01*
X155641844Y-81934504D01*
X155501074Y-81876196D01*
X155501072Y-81876195D01*
X155501071Y-81876195D01*
X155350000Y-81856306D01*
X155198929Y-81876195D01*
X155198925Y-81876196D01*
X155058155Y-81934504D01*
X154937266Y-82027266D01*
X154844504Y-82148155D01*
X154786196Y-82288925D01*
X154786195Y-82288929D01*
X154766306Y-82440000D01*
X150104802Y-82440000D01*
X149876753Y-82211951D01*
X149873108Y-82207972D01*
X149846819Y-82176641D01*
X149811396Y-82156189D01*
X149806834Y-82153283D01*
X149799507Y-82148153D01*
X149773332Y-82129825D01*
X149768904Y-82127760D01*
X149751020Y-82120352D01*
X149746432Y-82118682D01*
X149706145Y-82111577D01*
X149700865Y-82110406D01*
X149661364Y-82099822D01*
X149628043Y-82102738D01*
X149620613Y-82103388D01*
X149615212Y-82103624D01*
X149366514Y-82103624D01*
X149299475Y-82083939D01*
X149278833Y-82067305D01*
X146195019Y-78983491D01*
X146161534Y-78922168D01*
X146158700Y-78895810D01*
X146158700Y-78670000D01*
X147756306Y-78670000D01*
X147776195Y-78821070D01*
X147776196Y-78821074D01*
X147834504Y-78961844D01*
X147834505Y-78961846D01*
X147834506Y-78961847D01*
X147927266Y-79082734D01*
X148048153Y-79175494D01*
X148188929Y-79233805D01*
X148340000Y-79253694D01*
X148491071Y-79233805D01*
X148631847Y-79175494D01*
X148752734Y-79082734D01*
X148845494Y-78961847D01*
X148903805Y-78821071D01*
X148923694Y-78670000D01*
X148903805Y-78518929D01*
X148864931Y-78425078D01*
X148845495Y-78378155D01*
X148845494Y-78378154D01*
X148845494Y-78378153D01*
X148752734Y-78257266D01*
X148631847Y-78164506D01*
X148631846Y-78164505D01*
X148631844Y-78164504D01*
X148491074Y-78106196D01*
X148491072Y-78106195D01*
X148491071Y-78106195D01*
X148340000Y-78086306D01*
X148188929Y-78106195D01*
X148188925Y-78106196D01*
X148048155Y-78164504D01*
X147927266Y-78257266D01*
X147834504Y-78378155D01*
X147776196Y-78518925D01*
X147776195Y-78518929D01*
X147756306Y-78670000D01*
X146158700Y-78670000D01*
X146158700Y-76171611D01*
X146158936Y-76166204D01*
X146162501Y-76125459D01*
X146156596Y-76103422D01*
X146151911Y-76085939D01*
X146150747Y-76080691D01*
X146143642Y-76040394D01*
X146143640Y-76040392D01*
X146143640Y-76040387D01*
X146141958Y-76035767D01*
X146134587Y-76017971D01*
X146132500Y-76013494D01*
X146109038Y-75979986D01*
X146106131Y-75975422D01*
X146085685Y-75940009D01*
X146085684Y-75940008D01*
X146085683Y-75940006D01*
X146054343Y-75913708D01*
X146050359Y-75910057D01*
X145954920Y-75814618D01*
X145619929Y-75479627D01*
X145616284Y-75475648D01*
X145589995Y-75444317D01*
X145554572Y-75423865D01*
X145550010Y-75420959D01*
X145516508Y-75397501D01*
X145512080Y-75395436D01*
X145494196Y-75388028D01*
X145489608Y-75386358D01*
X145449321Y-75379253D01*
X145444041Y-75378082D01*
X145404540Y-75367498D01*
X145371219Y-75370414D01*
X145363789Y-75371064D01*
X145358388Y-75371300D01*
X145206992Y-75371300D01*
X145139953Y-75351615D01*
X145094198Y-75298811D01*
X145092431Y-75294752D01*
X145065995Y-75230929D01*
X145065994Y-75230928D01*
X145065994Y-75230927D01*
X144973234Y-75110040D01*
X144852347Y-75017280D01*
X144852346Y-75017279D01*
X144852344Y-75017278D01*
X144711574Y-74958970D01*
X144711572Y-74958969D01*
X144711571Y-74958969D01*
X144560500Y-74939080D01*
X144409429Y-74958969D01*
X144409425Y-74958970D01*
X144268655Y-75017278D01*
X144147766Y-75110040D01*
X144055004Y-75230929D01*
X143996696Y-75371699D01*
X143996695Y-75371703D01*
X143976806Y-75522774D01*
X143996695Y-75673844D01*
X143996696Y-75673848D01*
X144055004Y-75814618D01*
X144055005Y-75814620D01*
X144055006Y-75814621D01*
X144147766Y-75935508D01*
X144268653Y-76028268D01*
X144409429Y-76086579D01*
X144419703Y-76087931D01*
X144483598Y-76116195D01*
X144522070Y-76174519D01*
X144523295Y-76242956D01*
X144521695Y-76248926D01*
X144501806Y-76399999D01*
X144521695Y-76551070D01*
X144521696Y-76551074D01*
X144580004Y-76691844D01*
X144580005Y-76691846D01*
X144580006Y-76691847D01*
X144672766Y-76812734D01*
X144793653Y-76905494D01*
X144838558Y-76924094D01*
X144892960Y-76967932D01*
X144915026Y-77034226D01*
X144915105Y-77038654D01*
X144915105Y-77116481D01*
X144899484Y-77169676D01*
X144902085Y-77170889D01*
X144895436Y-77185146D01*
X144888036Y-77203013D01*
X144886357Y-77207624D01*
X144881754Y-77233729D01*
X144850725Y-77296331D01*
X144790777Y-77332220D01*
X144720943Y-77330002D01*
X144712186Y-77326755D01*
X144651574Y-77301649D01*
X144651572Y-77301648D01*
X144651571Y-77301648D01*
X144500500Y-77281759D01*
X144349429Y-77301648D01*
X144349425Y-77301649D01*
X144208655Y-77359957D01*
X144087766Y-77452719D01*
X143995004Y-77573608D01*
X143936696Y-77714378D01*
X143936695Y-77714382D01*
X143916806Y-77865453D01*
X143936695Y-78016523D01*
X143936696Y-78016527D01*
X143995004Y-78157297D01*
X143995005Y-78157299D01*
X143995006Y-78157300D01*
X144071713Y-78257266D01*
X144087767Y-78278188D01*
X144152786Y-78328078D01*
X144193989Y-78384506D01*
X144201300Y-78426454D01*
X144201300Y-84209791D01*
X144181615Y-84276830D01*
X144128811Y-84322585D01*
X144059653Y-84332529D01*
X144029849Y-84324353D01*
X144009978Y-84316122D01*
X143981571Y-84304356D01*
X143830500Y-84284467D01*
X143679429Y-84304356D01*
X143679425Y-84304357D01*
X143538655Y-84362665D01*
X143417766Y-84455427D01*
X143325004Y-84576316D01*
X143266696Y-84717086D01*
X143266695Y-84717090D01*
X143246806Y-84868161D01*
X122827483Y-84868161D01*
X122827143Y-84112113D01*
X122846797Y-84045066D01*
X122899581Y-83999288D01*
X122947764Y-83988105D01*
X127650000Y-83860000D01*
X127644315Y-81650897D01*
X141364282Y-81650897D01*
X141384171Y-81801967D01*
X141384172Y-81801971D01*
X141442480Y-81942741D01*
X141442481Y-81942743D01*
X141442482Y-81942744D01*
X141535242Y-82063631D01*
X141656129Y-82156391D01*
X141796905Y-82214702D01*
X141947976Y-82234591D01*
X142099047Y-82214702D01*
X142239823Y-82156391D01*
X142360710Y-82063631D01*
X142453470Y-81942744D01*
X142511781Y-81801968D01*
X142531670Y-81650897D01*
X142511781Y-81499826D01*
X142453470Y-81359050D01*
X142360710Y-81238163D01*
X142344482Y-81225711D01*
X142318855Y-81206046D01*
X142277652Y-81149618D01*
X142273498Y-81079872D01*
X142307711Y-81018952D01*
X142346888Y-80993111D01*
X142461847Y-80945494D01*
X142582734Y-80852734D01*
X142675494Y-80731847D01*
X142733805Y-80591071D01*
X142753694Y-80440000D01*
X142747849Y-80395608D01*
X142758614Y-80326576D01*
X142783104Y-80291746D01*
X143130370Y-79944480D01*
X143134332Y-79940849D01*
X143165683Y-79914544D01*
X143186143Y-79879103D01*
X143189024Y-79874581D01*
X143212499Y-79841058D01*
X143212501Y-79841050D01*
X143214593Y-79836565D01*
X143221945Y-79818815D01*
X143223638Y-79814161D01*
X143223642Y-79814156D01*
X143230744Y-79773878D01*
X143231911Y-79768609D01*
X143242501Y-79729090D01*
X143238935Y-79688339D01*
X143238700Y-79682938D01*
X143238700Y-75657513D01*
X143258385Y-75590474D01*
X143275015Y-75569836D01*
X144226625Y-74618225D01*
X144252301Y-74598524D01*
X144274544Y-74585683D01*
X144300841Y-74554342D01*
X144304471Y-74550379D01*
X144479834Y-74375017D01*
X144541157Y-74341534D01*
X144567514Y-74338700D01*
X156481134Y-74338700D01*
X156548173Y-74358385D01*
X156579510Y-74387214D01*
X156606762Y-74422730D01*
X156606764Y-74422731D01*
X156606766Y-74422734D01*
X156727653Y-74515494D01*
X156868429Y-74573805D01*
X157019500Y-74593694D01*
X157170571Y-74573805D01*
X157311347Y-74515494D01*
X157432234Y-74422734D01*
X157524994Y-74301847D01*
X157583305Y-74161071D01*
X157603194Y-74010000D01*
X157583305Y-73858929D01*
X157573831Y-73836058D01*
X157566363Y-73766590D01*
X157597638Y-73704111D01*
X157657727Y-73668459D01*
X157727552Y-73670953D01*
X157776074Y-73700926D01*
X174150931Y-90075783D01*
X174184416Y-90137106D01*
X174185988Y-90181110D01*
X174168895Y-90299999D01*
X174189507Y-90443363D01*
X174189509Y-90443371D01*
X174249675Y-90575117D01*
X174249680Y-90575125D01*
X174344526Y-90684584D01*
X174344528Y-90684585D01*
X174344529Y-90684586D01*
X174466379Y-90762894D01*
X174466380Y-90762894D01*
X174466383Y-90762896D01*
X174605351Y-90803699D01*
X174605353Y-90803700D01*
X174605354Y-90803700D01*
X174750197Y-90803700D01*
X174750197Y-90803699D01*
X174810918Y-90785870D01*
X174889166Y-90762896D01*
X174889167Y-90762895D01*
X174889171Y-90762894D01*
X175011021Y-90684586D01*
X175023567Y-90670107D01*
X175105869Y-90575125D01*
X175105870Y-90575123D01*
X175105872Y-90575121D01*
X175109927Y-90566243D01*
X175164750Y-90446196D01*
X175166042Y-90443368D01*
X175186655Y-90300000D01*
X175166042Y-90156632D01*
X175140814Y-90101391D01*
X175105874Y-90024882D01*
X175105869Y-90024874D01*
X175011023Y-89915415D01*
X174921644Y-89857975D01*
X174889171Y-89837106D01*
X174852695Y-89826395D01*
X174799952Y-89795100D01*
X166469849Y-81464997D01*
X158094979Y-73090127D01*
X158091334Y-73086148D01*
X158065045Y-73054817D01*
X158029622Y-73034365D01*
X158025060Y-73031459D01*
X157991558Y-73008001D01*
X157987130Y-73005936D01*
X157969246Y-72998528D01*
X157964658Y-72996858D01*
X157924371Y-72989753D01*
X157919091Y-72988582D01*
X157879590Y-72977998D01*
X157846269Y-72980914D01*
X157838839Y-72981564D01*
X157833438Y-72981800D01*
X156158866Y-72981800D01*
X156091827Y-72962115D01*
X156060490Y-72933286D01*
X156033237Y-72897769D01*
X156033235Y-72897767D01*
X156033234Y-72897766D01*
X155912347Y-72805006D01*
X155912346Y-72805005D01*
X155912344Y-72805004D01*
X155771574Y-72746696D01*
X155771572Y-72746695D01*
X155771571Y-72746695D01*
X155620500Y-72726806D01*
X155469429Y-72746695D01*
X155469425Y-72746696D01*
X155328655Y-72805004D01*
X155207766Y-72897766D01*
X155115004Y-73018655D01*
X155056696Y-73159425D01*
X155056695Y-73159429D01*
X155036806Y-73310500D01*
X155056695Y-73461571D01*
X155076692Y-73509848D01*
X155084161Y-73579316D01*
X155052886Y-73641796D01*
X154992797Y-73677448D01*
X154962131Y-73681300D01*
X144397051Y-73681300D01*
X144391649Y-73681064D01*
X144384285Y-73680420D01*
X144350910Y-73677499D01*
X144311414Y-73688081D01*
X144306135Y-73689252D01*
X144265847Y-73696357D01*
X144261252Y-73698029D01*
X144243366Y-73705437D01*
X144238943Y-73707500D01*
X144205438Y-73730960D01*
X144200876Y-73733866D01*
X144165455Y-73754317D01*
X144139164Y-73785649D01*
X144135509Y-73789638D01*
X143883376Y-74041770D01*
X143857699Y-74061474D01*
X143835459Y-74074315D01*
X143835456Y-74074317D01*
X143835454Y-74074319D01*
X143835452Y-74074321D01*
X143809164Y-74105649D01*
X143805509Y-74109638D01*
X142689642Y-75225505D01*
X142685654Y-75229159D01*
X142654316Y-75255456D01*
X142654315Y-75255457D01*
X142633864Y-75290879D01*
X142630958Y-75295440D01*
X142607499Y-75328944D01*
X142605435Y-75333370D01*
X142598036Y-75351235D01*
X142596356Y-75355849D01*
X142589253Y-75396129D01*
X142588082Y-75401409D01*
X142577498Y-75440908D01*
X142577498Y-75440909D01*
X142580350Y-75473501D01*
X142580887Y-75479639D01*
X142581064Y-75481654D01*
X142581300Y-75487061D01*
X142581300Y-79512485D01*
X142561615Y-79579524D01*
X142544981Y-79600166D01*
X142318255Y-79826891D01*
X142256932Y-79860376D01*
X142214391Y-79862149D01*
X142170004Y-79856306D01*
X142169999Y-79856306D01*
X142018929Y-79876195D01*
X142018925Y-79876196D01*
X141878155Y-79934504D01*
X141757266Y-80027266D01*
X141664504Y-80148155D01*
X141606196Y-80288925D01*
X141606195Y-80288929D01*
X141586306Y-80440000D01*
X141606195Y-80591070D01*
X141606196Y-80591074D01*
X141664504Y-80731844D01*
X141664505Y-80731846D01*
X141664506Y-80731847D01*
X141757266Y-80852734D01*
X141773572Y-80865246D01*
X141799120Y-80884850D01*
X141840322Y-80941278D01*
X141844477Y-81011024D01*
X141810264Y-81071944D01*
X141771086Y-81097786D01*
X141656130Y-81145402D01*
X141535242Y-81238163D01*
X141442480Y-81359052D01*
X141384172Y-81499822D01*
X141384171Y-81499826D01*
X141364282Y-81650897D01*
X127644315Y-81650897D01*
X127632501Y-77060000D01*
X140311120Y-77060000D01*
X140331732Y-77203363D01*
X140331734Y-77203371D01*
X140391900Y-77335117D01*
X140391905Y-77335125D01*
X140486751Y-77444584D01*
X140486753Y-77444585D01*
X140486754Y-77444586D01*
X140608604Y-77522894D01*
X140608605Y-77522894D01*
X140608608Y-77522896D01*
X140747576Y-77563699D01*
X140747578Y-77563700D01*
X140747579Y-77563700D01*
X140892422Y-77563700D01*
X140892422Y-77563699D01*
X140953143Y-77545870D01*
X141031391Y-77522896D01*
X141031392Y-77522895D01*
X141031396Y-77522894D01*
X141153246Y-77444586D01*
X141248097Y-77335121D01*
X141308267Y-77203368D01*
X141328880Y-77060000D01*
X141308267Y-76916632D01*
X141295287Y-76888210D01*
X141248099Y-76784882D01*
X141248094Y-76784874D01*
X141178987Y-76705120D01*
X141149962Y-76641564D01*
X141148700Y-76623918D01*
X141148700Y-73476309D01*
X141168385Y-73409270D01*
X141185014Y-73388633D01*
X144773647Y-69800000D01*
X147801120Y-69800000D01*
X147821732Y-69943363D01*
X147821734Y-69943371D01*
X147881900Y-70075117D01*
X147881905Y-70075125D01*
X147976751Y-70184584D01*
X147976753Y-70184585D01*
X147976754Y-70184586D01*
X148098604Y-70262894D01*
X148098605Y-70262894D01*
X148098608Y-70262896D01*
X148237576Y-70303699D01*
X148237578Y-70303700D01*
X148237579Y-70303700D01*
X148382422Y-70303700D01*
X148382422Y-70303699D01*
X148443143Y-70285870D01*
X148521391Y-70262896D01*
X148521392Y-70262895D01*
X148521396Y-70262894D01*
X148643246Y-70184586D01*
X148674272Y-70148780D01*
X148738094Y-70075125D01*
X148738095Y-70075123D01*
X148738097Y-70075121D01*
X148798267Y-69943368D01*
X148818880Y-69800000D01*
X148798267Y-69656632D01*
X148759458Y-69571652D01*
X148738099Y-69524882D01*
X148738094Y-69524874D01*
X148643248Y-69415415D01*
X148524612Y-69339173D01*
X148521396Y-69337106D01*
X148521395Y-69337105D01*
X148521391Y-69337103D01*
X148382423Y-69296300D01*
X148382421Y-69296300D01*
X148237579Y-69296300D01*
X148237576Y-69296300D01*
X148098608Y-69337103D01*
X147976751Y-69415415D01*
X147881905Y-69524874D01*
X147881900Y-69524882D01*
X147821734Y-69656628D01*
X147821732Y-69656636D01*
X147801120Y-69800000D01*
X144773647Y-69800000D01*
X145868647Y-68705000D01*
X202239999Y-68705000D01*
X202261055Y-68862913D01*
X202261600Y-68871116D01*
X202261600Y-70125811D01*
X202274142Y-70148780D01*
X202276976Y-70174862D01*
X202277634Y-70470284D01*
X205487634Y-70520284D01*
X205464800Y-70330000D01*
X209607536Y-70330000D01*
X209628142Y-70539225D01*
X209689173Y-70740418D01*
X209788274Y-70925823D01*
X209788279Y-70925829D01*
X209921652Y-71088347D01*
X210084170Y-71221720D01*
X210084176Y-71221725D01*
X210269581Y-71320826D01*
X210269583Y-71320826D01*
X210269586Y-71320828D01*
X210470773Y-71381857D01*
X210680000Y-71402464D01*
X210889227Y-71381857D01*
X211090414Y-71320828D01*
X211090418Y-71320826D01*
X211275823Y-71221725D01*
X211275825Y-71221722D01*
X211275829Y-71221721D01*
X211438347Y-71088347D01*
X211571721Y-70925829D01*
X211571722Y-70925825D01*
X211571725Y-70925823D01*
X211670826Y-70740418D01*
X211670826Y-70740417D01*
X211670828Y-70740414D01*
X211731857Y-70539227D01*
X211752464Y-70330000D01*
X211752464Y-70329999D01*
X212147536Y-70329999D01*
X212168142Y-70539225D01*
X212229173Y-70740418D01*
X212328274Y-70925823D01*
X212328279Y-70925829D01*
X212461652Y-71088347D01*
X212624170Y-71221720D01*
X212624176Y-71221725D01*
X212809581Y-71320826D01*
X212809583Y-71320826D01*
X212809586Y-71320828D01*
X213010773Y-71381857D01*
X213220000Y-71402464D01*
X213429227Y-71381857D01*
X213630414Y-71320828D01*
X213630418Y-71320826D01*
X213815823Y-71221725D01*
X213815825Y-71221722D01*
X213815829Y-71221721D01*
X213978347Y-71088347D01*
X214111721Y-70925829D01*
X214111722Y-70925825D01*
X214111725Y-70925823D01*
X214210826Y-70740418D01*
X214210826Y-70740417D01*
X214210828Y-70740414D01*
X214271857Y-70539227D01*
X214292464Y-70330000D01*
X214271857Y-70120773D01*
X214210828Y-69919586D01*
X214210826Y-69919583D01*
X214210826Y-69919581D01*
X214111725Y-69734176D01*
X214111720Y-69734170D01*
X213978347Y-69571652D01*
X213815829Y-69438279D01*
X213815823Y-69438274D01*
X213630418Y-69339173D01*
X213429225Y-69278142D01*
X213220000Y-69257536D01*
X213010774Y-69278142D01*
X212809581Y-69339173D01*
X212624176Y-69438274D01*
X212624170Y-69438279D01*
X212461652Y-69571652D01*
X212328279Y-69734170D01*
X212328274Y-69734176D01*
X212229173Y-69919581D01*
X212168142Y-70120774D01*
X212147536Y-70329999D01*
X211752464Y-70329999D01*
X211731857Y-70120773D01*
X211670828Y-69919586D01*
X211670826Y-69919583D01*
X211670826Y-69919581D01*
X211571725Y-69734176D01*
X211571720Y-69734170D01*
X211438347Y-69571652D01*
X211275829Y-69438279D01*
X211275823Y-69438274D01*
X211090418Y-69339173D01*
X210889225Y-69278142D01*
X210680000Y-69257536D01*
X210470774Y-69278142D01*
X210269581Y-69339173D01*
X210084176Y-69438274D01*
X210084170Y-69438279D01*
X209921652Y-69571652D01*
X209788279Y-69734170D01*
X209788274Y-69734176D01*
X209689173Y-69919581D01*
X209628142Y-70120774D01*
X209607536Y-70330000D01*
X205464800Y-70330000D01*
X205160000Y-67790000D01*
X209607536Y-67790000D01*
X209628142Y-67999225D01*
X209689173Y-68200418D01*
X209788274Y-68385823D01*
X209788279Y-68385829D01*
X209921652Y-68548347D01*
X210084170Y-68681720D01*
X210084176Y-68681725D01*
X210269581Y-68780826D01*
X210269583Y-68780826D01*
X210269586Y-68780828D01*
X210470773Y-68841857D01*
X210680000Y-68862464D01*
X210889227Y-68841857D01*
X211090414Y-68780828D01*
X211090418Y-68780826D01*
X211275823Y-68681725D01*
X211275825Y-68681722D01*
X211275829Y-68681721D01*
X211438347Y-68548347D01*
X211571721Y-68385829D01*
X211571722Y-68385825D01*
X211571725Y-68385823D01*
X211670826Y-68200418D01*
X211670826Y-68200417D01*
X211670828Y-68200414D01*
X211731857Y-67999227D01*
X211752464Y-67790000D01*
X211731857Y-67580773D01*
X211670828Y-67379586D01*
X211670826Y-67379583D01*
X211670826Y-67379581D01*
X211571725Y-67194176D01*
X211571720Y-67194170D01*
X211438347Y-67031652D01*
X211275829Y-66898279D01*
X211275823Y-66898274D01*
X211090418Y-66799173D01*
X210889225Y-66738142D01*
X210680000Y-66717536D01*
X210470774Y-66738142D01*
X210269581Y-66799173D01*
X210084176Y-66898274D01*
X210084170Y-66898279D01*
X209921652Y-67031652D01*
X209788279Y-67194170D01*
X209788274Y-67194176D01*
X209689173Y-67379581D01*
X209628142Y-67580774D01*
X209607536Y-67790000D01*
X205160000Y-67790000D01*
X205037634Y-66770284D01*
X204827634Y-66490284D01*
X204775634Y-66490284D01*
X204708595Y-66470599D01*
X204701234Y-66465484D01*
X204667636Y-66440285D01*
X204667630Y-66440282D01*
X203529513Y-66133666D01*
X209612699Y-66133666D01*
X209624517Y-66193076D01*
X209624518Y-66193079D01*
X209624519Y-66193080D01*
X209669540Y-66260460D01*
X209736920Y-66305480D01*
X209736920Y-66305481D01*
X209736923Y-66305482D01*
X209796333Y-66317300D01*
X209796336Y-66317300D01*
X211563666Y-66317300D01*
X211623076Y-66305482D01*
X211623077Y-66305481D01*
X211623080Y-66305481D01*
X211690460Y-66260460D01*
X211735481Y-66193080D01*
X211747300Y-66133664D01*
X211747300Y-65878576D01*
X211766985Y-65811537D01*
X211819789Y-65765782D01*
X211888947Y-65755838D01*
X211952503Y-65784863D01*
X211984856Y-65828766D01*
X212016639Y-65901225D01*
X212140240Y-66090412D01*
X212293284Y-66256661D01*
X212293296Y-66256672D01*
X212471623Y-66395470D01*
X212670369Y-66503027D01*
X212670375Y-66503029D01*
X212830778Y-66558096D01*
X212887793Y-66598481D01*
X212913924Y-66663281D01*
X212900873Y-66731921D01*
X212852784Y-66782609D01*
X212826513Y-66794037D01*
X212809582Y-66799173D01*
X212624176Y-66898274D01*
X212624170Y-66898279D01*
X212461652Y-67031652D01*
X212328279Y-67194170D01*
X212328274Y-67194176D01*
X212229173Y-67379581D01*
X212168142Y-67580774D01*
X212147536Y-67790000D01*
X212168142Y-67999225D01*
X212229173Y-68200418D01*
X212328274Y-68385823D01*
X212328279Y-68385829D01*
X212461652Y-68548347D01*
X212624170Y-68681720D01*
X212624176Y-68681725D01*
X212809581Y-68780826D01*
X212809583Y-68780826D01*
X212809586Y-68780828D01*
X213010773Y-68841857D01*
X213220000Y-68862464D01*
X213429227Y-68841857D01*
X213630414Y-68780828D01*
X213630418Y-68780826D01*
X213815823Y-68681725D01*
X213815825Y-68681722D01*
X213815829Y-68681721D01*
X213978347Y-68548347D01*
X214111721Y-68385829D01*
X214111722Y-68385825D01*
X214111725Y-68385823D01*
X214210826Y-68200418D01*
X214210826Y-68200417D01*
X214210828Y-68200414D01*
X214271857Y-67999227D01*
X214292464Y-67790000D01*
X214271857Y-67580773D01*
X214210828Y-67379586D01*
X214210826Y-67379583D01*
X214210826Y-67379581D01*
X214111725Y-67194176D01*
X214111720Y-67194170D01*
X213978347Y-67031652D01*
X213815829Y-66898279D01*
X213815823Y-66898274D01*
X213630416Y-66799172D01*
X213613487Y-66794037D01*
X213555049Y-66755739D01*
X213526593Y-66691926D01*
X213537155Y-66622859D01*
X213583380Y-66570466D01*
X213609221Y-66558096D01*
X213769625Y-66503029D01*
X213769630Y-66503027D01*
X213968376Y-66395470D01*
X214146703Y-66256672D01*
X214146715Y-66256661D01*
X214299759Y-66090412D01*
X214423360Y-65901225D01*
X214514135Y-65694278D01*
X214563334Y-65500000D01*
X213841684Y-65500000D01*
X213774645Y-65480315D01*
X213728890Y-65427511D01*
X213718946Y-65358353D01*
X213722707Y-65341064D01*
X213728000Y-65323038D01*
X213728000Y-65176961D01*
X213722707Y-65158936D01*
X213722706Y-65089067D01*
X213760480Y-65030288D01*
X213824036Y-65001262D01*
X213841684Y-65000000D01*
X214563334Y-65000000D01*
X214514135Y-64805721D01*
X214423360Y-64598774D01*
X214299759Y-64409587D01*
X214146715Y-64243338D01*
X214146703Y-64243327D01*
X213968376Y-64104529D01*
X213769630Y-63996972D01*
X213769624Y-63996970D01*
X213555893Y-63923596D01*
X213470000Y-63909263D01*
X213470000Y-64629616D01*
X213450315Y-64696655D01*
X213397511Y-64742410D01*
X213328355Y-64752354D01*
X213256337Y-64742000D01*
X213256334Y-64742000D01*
X213183666Y-64742000D01*
X213183662Y-64742000D01*
X213111645Y-64752354D01*
X213042487Y-64742410D01*
X212989684Y-64696654D01*
X212970000Y-64629616D01*
X212970000Y-63909263D01*
X212969999Y-63909263D01*
X212884106Y-63923596D01*
X212670375Y-63996970D01*
X212670369Y-63996972D01*
X212471623Y-64104529D01*
X212293296Y-64243327D01*
X212293284Y-64243338D01*
X212140240Y-64409587D01*
X212016640Y-64598772D01*
X211984856Y-64671234D01*
X211939900Y-64724719D01*
X211873164Y-64745409D01*
X211805836Y-64726734D01*
X211759293Y-64674624D01*
X211747300Y-64621423D01*
X211747300Y-64366333D01*
X211735482Y-64306923D01*
X211735481Y-64306920D01*
X211730753Y-64299844D01*
X211690460Y-64239540D01*
X211623080Y-64194519D01*
X211623079Y-64194518D01*
X211623076Y-64194517D01*
X211563666Y-64182700D01*
X211563664Y-64182700D01*
X209796336Y-64182700D01*
X209796334Y-64182700D01*
X209736923Y-64194517D01*
X209736920Y-64194518D01*
X209669540Y-64239540D01*
X209624518Y-64306920D01*
X209624517Y-64306923D01*
X209612700Y-64366333D01*
X209612700Y-64366335D01*
X209612700Y-64366336D01*
X209612700Y-66133664D01*
X209612700Y-66133666D01*
X209612699Y-66133666D01*
X203529513Y-66133666D01*
X202477634Y-65850283D01*
X202267634Y-65980283D01*
X202267633Y-65980283D01*
X202271486Y-67710075D01*
X202261600Y-67744021D01*
X202261600Y-68591065D01*
X202258847Y-68617047D01*
X202239999Y-68705000D01*
X145868647Y-68705000D01*
X147263646Y-67310000D01*
X148768306Y-67310000D01*
X148786879Y-67451071D01*
X148788195Y-67461070D01*
X148788196Y-67461074D01*
X148846504Y-67601844D01*
X148846505Y-67601846D01*
X148846506Y-67601847D01*
X148939266Y-67722734D01*
X149060153Y-67815494D01*
X149200929Y-67873805D01*
X149352000Y-67893694D01*
X149503071Y-67873805D01*
X149643847Y-67815494D01*
X149764734Y-67722734D01*
X149791989Y-67687214D01*
X149848418Y-67646011D01*
X149890366Y-67638700D01*
X149902938Y-67638700D01*
X149908339Y-67638935D01*
X149937601Y-67641495D01*
X149949089Y-67642501D01*
X149949089Y-67642500D01*
X149949090Y-67642501D01*
X149988609Y-67631911D01*
X149993878Y-67630744D01*
X150034150Y-67623643D01*
X150034149Y-67623643D01*
X150034156Y-67623642D01*
X150034161Y-67623638D01*
X150038815Y-67621945D01*
X150056565Y-67614593D01*
X150061050Y-67612501D01*
X150061058Y-67612499D01*
X150094581Y-67589024D01*
X150099103Y-67586143D01*
X150134544Y-67565683D01*
X150160852Y-67534329D01*
X150164470Y-67530380D01*
X154192017Y-63502833D01*
X154253338Y-63469350D01*
X154323030Y-63474334D01*
X154327149Y-63475955D01*
X154333062Y-63478404D01*
X154350929Y-63485805D01*
X154502000Y-63505694D01*
X154653071Y-63485805D01*
X154659964Y-63482949D01*
X154729431Y-63475478D01*
X154791911Y-63506751D01*
X154827566Y-63566838D01*
X154825075Y-63636663D01*
X154821981Y-63644959D01*
X154816196Y-63658925D01*
X154816195Y-63658929D01*
X154796306Y-63809999D01*
X154796306Y-63810004D01*
X154802149Y-63854391D01*
X154791383Y-63923426D01*
X154766891Y-63958255D01*
X152807721Y-65917425D01*
X152746398Y-65950910D01*
X152703857Y-65952683D01*
X152659470Y-65946840D01*
X152659465Y-65946840D01*
X152508395Y-65966729D01*
X152508391Y-65966730D01*
X152367621Y-66025038D01*
X152246732Y-66117800D01*
X152153970Y-66238689D01*
X152095662Y-66379459D01*
X152095661Y-66379463D01*
X152075772Y-66530534D01*
X152084717Y-66598481D01*
X152095661Y-66681604D01*
X152095662Y-66681608D01*
X152153970Y-66822378D01*
X152153971Y-66822380D01*
X152153972Y-66822381D01*
X152246732Y-66943268D01*
X152367619Y-67036028D01*
X152508395Y-67094339D01*
X152659466Y-67114228D01*
X152810537Y-67094339D01*
X152951313Y-67036028D01*
X153072200Y-66943268D01*
X153164960Y-66822381D01*
X153223271Y-66681605D01*
X153243160Y-66530534D01*
X153237315Y-66486142D01*
X153248080Y-66417110D01*
X153272570Y-66382280D01*
X155231745Y-64423105D01*
X155293066Y-64389622D01*
X155335605Y-64387849D01*
X155380000Y-64393694D01*
X155531071Y-64373805D01*
X155671847Y-64315494D01*
X155792734Y-64222734D01*
X155885494Y-64101847D01*
X155943805Y-63961071D01*
X155963694Y-63810000D01*
X155943805Y-63658929D01*
X155885494Y-63518153D01*
X155792734Y-63397266D01*
X155671847Y-63304506D01*
X155671846Y-63304505D01*
X155671844Y-63304504D01*
X155531074Y-63246196D01*
X155531072Y-63246195D01*
X155531071Y-63246195D01*
X155380000Y-63226306D01*
X155228929Y-63246195D01*
X155228925Y-63246196D01*
X155222028Y-63249053D01*
X155152558Y-63256519D01*
X155090080Y-63225241D01*
X155054430Y-63165151D01*
X155056927Y-63095326D01*
X155060007Y-63087067D01*
X155065805Y-63073071D01*
X155085694Y-62922000D01*
X155065805Y-62770929D01*
X155017787Y-62655002D01*
X202039999Y-62655002D01*
X202058496Y-62793719D01*
X202071056Y-62887924D01*
X202071600Y-62896115D01*
X202071600Y-64038400D01*
X202173549Y-64038400D01*
X202240588Y-64058085D01*
X202286343Y-64110889D01*
X202297548Y-64162123D01*
X202297634Y-64200284D01*
X205507634Y-64250284D01*
X205393600Y-63300000D01*
X210076306Y-63300000D01*
X210090054Y-63404429D01*
X210096195Y-63451070D01*
X210096196Y-63451074D01*
X210154504Y-63591844D01*
X210154505Y-63591846D01*
X210154506Y-63591847D01*
X210247266Y-63712734D01*
X210368153Y-63805494D01*
X210368154Y-63805494D01*
X210368155Y-63805495D01*
X210379041Y-63810004D01*
X210508929Y-63863805D01*
X210660000Y-63883694D01*
X210811071Y-63863805D01*
X210951847Y-63805494D01*
X211072734Y-63712734D01*
X211165494Y-63591847D01*
X211223805Y-63451071D01*
X211243694Y-63300000D01*
X211223805Y-63148929D01*
X211165494Y-63008153D01*
X211072734Y-62887266D01*
X210951847Y-62794506D01*
X210951846Y-62794505D01*
X210951844Y-62794504D01*
X210811074Y-62736196D01*
X210811072Y-62736195D01*
X210811071Y-62736195D01*
X210660000Y-62716306D01*
X210508929Y-62736195D01*
X210508925Y-62736196D01*
X210368155Y-62794504D01*
X210247266Y-62887266D01*
X210154504Y-63008155D01*
X210096196Y-63148925D01*
X210096195Y-63148929D01*
X210076306Y-63300000D01*
X205393600Y-63300000D01*
X205057634Y-60500284D01*
X204847634Y-60220284D01*
X204795634Y-60220284D01*
X204728595Y-60200599D01*
X204721234Y-60195484D01*
X204687636Y-60170285D01*
X204687630Y-60170282D01*
X202497634Y-59580283D01*
X202287634Y-59710283D01*
X202287633Y-59710283D01*
X202291792Y-61577324D01*
X202272256Y-61644407D01*
X202219555Y-61690279D01*
X202167792Y-61701600D01*
X202071600Y-61701600D01*
X202071600Y-62494393D01*
X202068848Y-62520374D01*
X202039999Y-62655002D01*
X155017787Y-62655002D01*
X155007494Y-62630153D01*
X154914734Y-62509266D01*
X154793847Y-62416506D01*
X154793846Y-62416505D01*
X154793844Y-62416504D01*
X154653074Y-62358196D01*
X154653072Y-62358195D01*
X154653071Y-62358195D01*
X154502000Y-62338306D01*
X154350929Y-62358195D01*
X154350925Y-62358196D01*
X154210155Y-62416504D01*
X154089266Y-62509266D01*
X153996504Y-62630155D01*
X153938194Y-62770929D01*
X153938193Y-62770932D01*
X153935193Y-62793719D01*
X153906924Y-62857615D01*
X153899936Y-62865210D01*
X149899991Y-66865155D01*
X149838668Y-66898640D01*
X149768976Y-66893656D01*
X149736827Y-66875852D01*
X149643847Y-66804506D01*
X149643846Y-66804505D01*
X149643844Y-66804504D01*
X149503074Y-66746196D01*
X149503072Y-66746195D01*
X149503071Y-66746195D01*
X149352000Y-66726306D01*
X149200929Y-66746195D01*
X149200925Y-66746196D01*
X149060155Y-66804504D01*
X148939266Y-66897266D01*
X148846504Y-67018155D01*
X148788196Y-67158925D01*
X148788195Y-67158929D01*
X148769623Y-67300000D01*
X148768306Y-67310000D01*
X147263646Y-67310000D01*
X148618370Y-65955276D01*
X148622332Y-65951645D01*
X148653683Y-65925340D01*
X148674143Y-65889899D01*
X148677029Y-65885370D01*
X148700499Y-65851854D01*
X148700500Y-65851849D01*
X148702598Y-65847350D01*
X148709945Y-65829612D01*
X148711640Y-65824956D01*
X148711640Y-65824955D01*
X148711642Y-65824952D01*
X148718748Y-65784646D01*
X148719914Y-65779391D01*
X148730500Y-65739887D01*
X148730500Y-65739886D01*
X148726935Y-65699143D01*
X148726700Y-65693742D01*
X148726700Y-64666162D01*
X148746385Y-64599123D01*
X148799189Y-64553368D01*
X148868347Y-64543424D01*
X148898149Y-64551600D01*
X148946929Y-64571805D01*
X149098000Y-64591694D01*
X149249071Y-64571805D01*
X149389847Y-64513494D01*
X149510734Y-64420734D01*
X149603494Y-64299847D01*
X149661805Y-64159071D01*
X149681694Y-64008000D01*
X149661805Y-63856929D01*
X149603494Y-63716153D01*
X149510734Y-63595266D01*
X149389847Y-63502506D01*
X149389846Y-63502505D01*
X149389844Y-63502504D01*
X149249074Y-63444196D01*
X149249072Y-63444195D01*
X149249071Y-63444195D01*
X149230964Y-63441811D01*
X149174621Y-63434393D01*
X149110725Y-63406126D01*
X149072255Y-63347801D01*
X149071424Y-63277936D01*
X149103125Y-63223775D01*
X151620901Y-60705999D01*
X158166306Y-60705999D01*
X158186195Y-60857070D01*
X158186196Y-60857074D01*
X158244504Y-60997844D01*
X158244505Y-60997846D01*
X158244506Y-60997847D01*
X158337266Y-61118734D01*
X158458153Y-61211494D01*
X158598929Y-61269805D01*
X158750000Y-61289694D01*
X158901071Y-61269805D01*
X159041847Y-61211494D01*
X159162734Y-61118734D01*
X159255494Y-60997847D01*
X159313805Y-60857071D01*
X159333694Y-60706000D01*
X159313805Y-60554929D01*
X159255494Y-60414153D01*
X159162734Y-60293266D01*
X159041847Y-60200506D01*
X159041846Y-60200505D01*
X159041844Y-60200504D01*
X158901074Y-60142196D01*
X158901072Y-60142195D01*
X158901071Y-60142195D01*
X158750000Y-60122306D01*
X158598929Y-60142195D01*
X158598925Y-60142196D01*
X158458155Y-60200504D01*
X158337266Y-60293266D01*
X158244504Y-60414155D01*
X158186196Y-60554925D01*
X158186195Y-60554929D01*
X158166306Y-60705999D01*
X151620901Y-60705999D01*
X154718501Y-57608400D01*
X202101600Y-57608400D01*
X202203527Y-57608400D01*
X202270566Y-57628085D01*
X202316321Y-57680889D01*
X202327526Y-57732122D01*
X202327634Y-57780284D01*
X205537634Y-57830284D01*
X205469200Y-57259999D01*
X211521120Y-57259999D01*
X211541732Y-57403363D01*
X211541734Y-57403371D01*
X211601900Y-57535117D01*
X211601905Y-57535125D01*
X211696751Y-57644584D01*
X211696753Y-57644585D01*
X211696754Y-57644586D01*
X211818604Y-57722894D01*
X211818605Y-57722894D01*
X211818608Y-57722896D01*
X211957576Y-57763699D01*
X211957578Y-57763700D01*
X211957579Y-57763700D01*
X212102422Y-57763700D01*
X212102422Y-57763699D01*
X212163143Y-57745870D01*
X212241391Y-57722896D01*
X212241392Y-57722895D01*
X212241396Y-57722894D01*
X212363246Y-57644586D01*
X212377544Y-57628085D01*
X212458094Y-57535125D01*
X212458095Y-57535123D01*
X212458097Y-57535121D01*
X212518267Y-57403368D01*
X212538880Y-57260000D01*
X212518267Y-57116632D01*
X212485411Y-57044688D01*
X212458099Y-56984882D01*
X212458094Y-56984874D01*
X212363248Y-56875415D01*
X212241391Y-56797103D01*
X212102423Y-56756300D01*
X212102421Y-56756300D01*
X211957579Y-56756300D01*
X211957576Y-56756300D01*
X211818608Y-56797103D01*
X211696751Y-56875415D01*
X211601905Y-56984874D01*
X211601900Y-56984882D01*
X211541734Y-57116628D01*
X211541732Y-57116636D01*
X211521120Y-57259999D01*
X205469200Y-57259999D01*
X205087634Y-54080284D01*
X204877634Y-53800284D01*
X204825634Y-53800284D01*
X204758595Y-53780599D01*
X204751234Y-53775484D01*
X204717636Y-53750285D01*
X204717630Y-53750282D01*
X202527634Y-53160283D01*
X202317634Y-53290283D01*
X202317633Y-53290283D01*
X202321770Y-55147324D01*
X202302234Y-55214407D01*
X202249533Y-55260279D01*
X202197770Y-55271600D01*
X202101600Y-55271600D01*
X202101600Y-57608400D01*
X154718501Y-57608400D01*
X156905882Y-55421019D01*
X156967206Y-55387534D01*
X156993564Y-55384700D01*
X159371438Y-55384700D01*
X159376839Y-55384935D01*
X159406101Y-55387495D01*
X159417589Y-55388501D01*
X159417589Y-55388500D01*
X159417590Y-55388501D01*
X159457109Y-55377911D01*
X159462378Y-55376744D01*
X159502650Y-55369643D01*
X159502649Y-55369643D01*
X159502656Y-55369642D01*
X159502661Y-55369638D01*
X159507315Y-55367945D01*
X159525065Y-55360593D01*
X159529550Y-55358501D01*
X159529558Y-55358499D01*
X159563081Y-55335024D01*
X159567603Y-55332143D01*
X159603044Y-55311683D01*
X159629352Y-55280329D01*
X159632970Y-55276380D01*
X161869350Y-53040000D01*
X167121120Y-53040000D01*
X167141732Y-53183363D01*
X167141734Y-53183371D01*
X167201900Y-53315117D01*
X167201905Y-53315125D01*
X167296751Y-53424584D01*
X167296753Y-53424585D01*
X167296754Y-53424586D01*
X167418604Y-53502894D01*
X167418605Y-53502894D01*
X167418608Y-53502896D01*
X167557576Y-53543699D01*
X167557578Y-53543700D01*
X167557579Y-53543700D01*
X167702422Y-53543700D01*
X167702422Y-53543699D01*
X167763143Y-53525870D01*
X167841391Y-53502896D01*
X167841392Y-53502895D01*
X167841396Y-53502894D01*
X167963246Y-53424586D01*
X168058097Y-53315121D01*
X168118267Y-53183368D01*
X168138880Y-53040000D01*
X168118267Y-52896632D01*
X168105287Y-52868210D01*
X168058099Y-52764882D01*
X168058094Y-52764874D01*
X167963248Y-52655415D01*
X167841391Y-52577103D01*
X167702423Y-52536300D01*
X167702421Y-52536300D01*
X167557579Y-52536300D01*
X167557576Y-52536300D01*
X167418608Y-52577103D01*
X167296751Y-52655415D01*
X167201905Y-52764874D01*
X167201900Y-52764882D01*
X167141734Y-52896628D01*
X167141732Y-52896636D01*
X167121120Y-53040000D01*
X161869350Y-53040000D01*
X165399352Y-49509999D01*
X211161252Y-49509999D01*
X211181427Y-49869261D01*
X211181429Y-49869273D01*
X211241701Y-50224010D01*
X211241703Y-50224019D01*
X211341314Y-50569776D01*
X211341316Y-50569782D01*
X211373345Y-50647106D01*
X211479014Y-50902217D01*
X211479016Y-50902221D01*
X211653077Y-51217161D01*
X211653080Y-51217166D01*
X211861297Y-51510618D01*
X211861303Y-51510626D01*
X212101071Y-51778925D01*
X212101074Y-51778928D01*
X212369373Y-52018696D01*
X212369381Y-52018702D01*
X212662833Y-52226919D01*
X212662838Y-52226922D01*
X212662841Y-52226923D01*
X212662843Y-52226925D01*
X212845875Y-52328083D01*
X212977778Y-52400983D01*
X212977782Y-52400985D01*
X213036598Y-52425347D01*
X213310218Y-52538684D01*
X213655986Y-52638298D01*
X214010734Y-52698572D01*
X214370000Y-52718748D01*
X214729266Y-52698572D01*
X215084014Y-52638298D01*
X215429782Y-52538684D01*
X215762224Y-52400982D01*
X216077157Y-52226925D01*
X216077162Y-52226921D01*
X216077166Y-52226919D01*
X216172217Y-52159476D01*
X216370622Y-52018700D01*
X216638927Y-51778927D01*
X216878700Y-51510622D01*
X217061232Y-51253368D01*
X217086919Y-51217166D01*
X217086922Y-51217161D01*
X217086925Y-51217157D01*
X217260982Y-50902224D01*
X217398684Y-50569782D01*
X217498298Y-50224014D01*
X217558572Y-49869266D01*
X217578748Y-49510000D01*
X217558572Y-49150734D01*
X217498298Y-48795986D01*
X217398684Y-48450218D01*
X217305679Y-48225686D01*
X217260985Y-48117782D01*
X217260983Y-48117778D01*
X217215244Y-48035019D01*
X217086925Y-47802843D01*
X217086923Y-47802841D01*
X217086922Y-47802838D01*
X217086919Y-47802833D01*
X216890942Y-47526632D01*
X216878700Y-47509378D01*
X216823601Y-47447723D01*
X216638928Y-47241074D01*
X216638925Y-47241071D01*
X216370626Y-47001303D01*
X216370618Y-47001297D01*
X216077166Y-46793080D01*
X216077161Y-46793077D01*
X215762221Y-46619016D01*
X215762217Y-46619014D01*
X215531399Y-46523407D01*
X215429782Y-46481316D01*
X215429778Y-46481314D01*
X215429776Y-46481314D01*
X215084019Y-46381703D01*
X215084010Y-46381701D01*
X214729273Y-46321429D01*
X214729261Y-46321427D01*
X214370000Y-46301252D01*
X214010738Y-46321427D01*
X214010726Y-46321429D01*
X213655989Y-46381701D01*
X213655980Y-46381703D01*
X213310223Y-46481314D01*
X212977782Y-46619014D01*
X212977778Y-46619016D01*
X212662838Y-46793077D01*
X212662833Y-46793080D01*
X212369381Y-47001297D01*
X212369373Y-47001303D01*
X212101074Y-47241071D01*
X212101071Y-47241074D01*
X211861303Y-47509373D01*
X211861297Y-47509381D01*
X211653080Y-47802833D01*
X211653077Y-47802838D01*
X211479016Y-48117778D01*
X211479014Y-48117782D01*
X211341314Y-48450223D01*
X211241703Y-48795980D01*
X211241701Y-48795989D01*
X211181429Y-49150726D01*
X211181427Y-49150738D01*
X211161252Y-49509999D01*
X165399352Y-49509999D01*
X166874332Y-48035019D01*
X166935656Y-48001534D01*
X166962014Y-47998700D01*
X167211700Y-47998700D01*
X167278739Y-48018385D01*
X167305415Y-48041500D01*
X167316754Y-48054586D01*
X167438604Y-48132894D01*
X167438605Y-48132894D01*
X167438608Y-48132896D01*
X167577576Y-48173699D01*
X167577578Y-48173700D01*
X167577579Y-48173700D01*
X167722422Y-48173700D01*
X167722422Y-48173699D01*
X167783143Y-48155870D01*
X167861391Y-48132896D01*
X167861392Y-48132895D01*
X167861396Y-48132894D01*
X167983246Y-48054586D01*
X168014614Y-48018385D01*
X168078094Y-47945125D01*
X168078095Y-47945123D01*
X168078097Y-47945121D01*
X168138267Y-47813368D01*
X168158880Y-47670000D01*
X168138267Y-47526632D01*
X168103105Y-47449638D01*
X168078099Y-47394882D01*
X168078094Y-47394874D01*
X167983248Y-47285415D01*
X167861391Y-47207103D01*
X167722423Y-47166300D01*
X167722421Y-47166300D01*
X167577579Y-47166300D01*
X167577576Y-47166300D01*
X167438608Y-47207103D01*
X167316752Y-47285415D01*
X167305415Y-47298500D01*
X167246638Y-47336276D01*
X167211700Y-47341300D01*
X166791551Y-47341300D01*
X166786149Y-47341064D01*
X166778785Y-47340420D01*
X166745410Y-47337499D01*
X166705914Y-47348081D01*
X166700635Y-47349252D01*
X166660347Y-47356357D01*
X166655752Y-47358029D01*
X166637866Y-47365437D01*
X166633443Y-47367500D01*
X166599938Y-47390960D01*
X166595376Y-47393866D01*
X166559955Y-47414317D01*
X166533664Y-47445649D01*
X166530008Y-47449638D01*
X162899648Y-51080000D01*
X159288667Y-54690981D01*
X159227344Y-54724466D01*
X159200986Y-54727300D01*
X158646162Y-54727300D01*
X158579123Y-54707615D01*
X158533368Y-54654811D01*
X158523424Y-54585653D01*
X158531601Y-54555847D01*
X158551805Y-54507071D01*
X158571694Y-54356000D01*
X158551805Y-54204929D01*
X158493494Y-54064153D01*
X158400734Y-53943266D01*
X158279847Y-53850506D01*
X158279846Y-53850505D01*
X158279844Y-53850504D01*
X158139074Y-53792196D01*
X158139072Y-53792195D01*
X158139071Y-53792195D01*
X157988000Y-53772306D01*
X157836929Y-53792195D01*
X157836925Y-53792196D01*
X157696155Y-53850504D01*
X157575266Y-53943266D01*
X157482504Y-54064155D01*
X157424196Y-54204925D01*
X157424195Y-54204929D01*
X157404306Y-54356000D01*
X157424195Y-54507071D01*
X157439777Y-54544690D01*
X157444399Y-54555847D01*
X157451868Y-54625317D01*
X157420593Y-54687796D01*
X157360504Y-54723448D01*
X157329838Y-54727300D01*
X156823101Y-54727300D01*
X156817699Y-54727064D01*
X156810335Y-54726420D01*
X156776960Y-54723499D01*
X156737464Y-54734081D01*
X156732185Y-54735252D01*
X156691897Y-54742357D01*
X156687302Y-54744029D01*
X156669416Y-54751437D01*
X156664993Y-54753500D01*
X156631488Y-54776960D01*
X156626926Y-54779866D01*
X156591505Y-54800317D01*
X156565214Y-54831649D01*
X156561559Y-54835638D01*
X148177642Y-63219555D01*
X148173654Y-63223209D01*
X148142316Y-63249506D01*
X148142315Y-63249507D01*
X148121864Y-63284929D01*
X148118958Y-63289490D01*
X148095499Y-63322994D01*
X148093435Y-63327420D01*
X148086036Y-63345285D01*
X148084356Y-63349899D01*
X148077253Y-63390179D01*
X148076082Y-63395459D01*
X148065498Y-63434958D01*
X148065498Y-63434959D01*
X148069064Y-63475704D01*
X148069300Y-63481111D01*
X148069300Y-65523281D01*
X148049615Y-65590320D01*
X148032981Y-65610962D01*
X140599642Y-73044301D01*
X140595654Y-73047955D01*
X140564316Y-73074252D01*
X140564315Y-73074253D01*
X140543864Y-73109675D01*
X140540958Y-73114236D01*
X140517499Y-73147740D01*
X140515435Y-73152166D01*
X140508036Y-73170031D01*
X140506356Y-73174645D01*
X140499253Y-73214925D01*
X140498082Y-73220205D01*
X140487498Y-73259704D01*
X140487498Y-73259705D01*
X140491064Y-73300450D01*
X140491300Y-73305857D01*
X140491300Y-76623918D01*
X140471615Y-76690957D01*
X140461013Y-76705120D01*
X140391905Y-76784874D01*
X140391900Y-76784882D01*
X140331734Y-76916628D01*
X140331732Y-76916636D01*
X140311120Y-77060000D01*
X127632501Y-77060000D01*
X127600000Y-64430000D01*
X122942232Y-64430000D01*
X122875193Y-64410315D01*
X122829438Y-64357511D01*
X122818232Y-64306056D01*
X122818195Y-64222733D01*
X122816002Y-59350270D01*
X122835656Y-59283223D01*
X122888440Y-59237445D01*
X122957594Y-59227470D01*
X123021163Y-59256467D01*
X123027683Y-59262535D01*
X128267267Y-64502119D01*
X128270920Y-64506104D01*
X128297215Y-64537442D01*
X128297217Y-64537443D01*
X128332637Y-64557893D01*
X128337203Y-64560802D01*
X128370699Y-64584257D01*
X128375156Y-64586335D01*
X128392970Y-64593714D01*
X128397599Y-64595399D01*
X128397603Y-64595401D01*
X128437907Y-64602507D01*
X128443155Y-64603671D01*
X128482669Y-64614259D01*
X128523412Y-64610694D01*
X128528812Y-64610459D01*
X129124245Y-64610459D01*
X129191284Y-64630144D01*
X129211926Y-64646778D01*
X131561891Y-66996743D01*
X131595376Y-67058066D01*
X131597149Y-67100607D01*
X131591306Y-67144995D01*
X131591306Y-67145000D01*
X131611195Y-67296070D01*
X131611196Y-67296074D01*
X131669504Y-67436844D01*
X131669505Y-67436846D01*
X131669506Y-67436847D01*
X131762266Y-67557734D01*
X131883153Y-67650494D01*
X132023929Y-67708805D01*
X132175000Y-67728694D01*
X132326071Y-67708805D01*
X132466847Y-67650494D01*
X132587734Y-67557734D01*
X132680494Y-67436847D01*
X132738805Y-67296071D01*
X132756290Y-67163257D01*
X132784556Y-67099361D01*
X132842881Y-67060890D01*
X132912746Y-67060059D01*
X132966910Y-67091762D01*
X133395508Y-67520360D01*
X133399161Y-67524345D01*
X133425456Y-67555683D01*
X133425458Y-67555684D01*
X133425459Y-67555685D01*
X133460872Y-67576131D01*
X133465435Y-67579037D01*
X133498942Y-67602499D01*
X133498944Y-67602500D01*
X133503421Y-67604587D01*
X133521210Y-67611955D01*
X133525839Y-67613640D01*
X133525841Y-67613640D01*
X133525844Y-67613642D01*
X133566150Y-67620748D01*
X133571374Y-67621906D01*
X133610911Y-67632501D01*
X133631966Y-67630659D01*
X133700466Y-67644425D01*
X133741149Y-67678699D01*
X133767263Y-67712731D01*
X133767264Y-67712732D01*
X133767266Y-67712734D01*
X133888153Y-67805494D01*
X133888154Y-67805494D01*
X133888155Y-67805495D01*
X133935078Y-67824931D01*
X134028929Y-67863805D01*
X134180000Y-67883694D01*
X134331071Y-67863805D01*
X134471847Y-67805494D01*
X134592734Y-67712734D01*
X134685494Y-67591847D01*
X134743805Y-67451071D01*
X134763694Y-67300000D01*
X134743805Y-67148929D01*
X134685494Y-67008153D01*
X134592734Y-66887266D01*
X134471847Y-66794506D01*
X134471846Y-66794505D01*
X134471844Y-66794504D01*
X134331074Y-66736196D01*
X134331072Y-66736195D01*
X134331071Y-66736195D01*
X134180000Y-66716306D01*
X134028929Y-66736195D01*
X134028925Y-66736196D01*
X133888154Y-66794504D01*
X133888152Y-66794506D01*
X133811018Y-66853693D01*
X133745849Y-66878887D01*
X133677404Y-66864848D01*
X133647851Y-66842998D01*
X130570455Y-63765602D01*
X130536970Y-63704279D01*
X130534136Y-63677927D01*
X130534136Y-63562547D01*
X130534372Y-63557140D01*
X130536163Y-63536672D01*
X130537938Y-63516397D01*
X130527346Y-63476871D01*
X130526185Y-63471633D01*
X130519079Y-63431331D01*
X130519077Y-63431329D01*
X130519077Y-63431324D01*
X130517395Y-63426704D01*
X130510024Y-63408908D01*
X130507937Y-63404431D01*
X130484475Y-63370923D01*
X130481568Y-63366359D01*
X130461122Y-63330946D01*
X130461121Y-63330945D01*
X130461120Y-63330943D01*
X130429780Y-63304645D01*
X130425796Y-63300994D01*
X129097535Y-61972733D01*
X128784801Y-61659999D01*
X137951120Y-61659999D01*
X137971732Y-61803363D01*
X137971734Y-61803371D01*
X138031900Y-61935117D01*
X138031905Y-61935125D01*
X138126751Y-62044584D01*
X138126753Y-62044585D01*
X138126754Y-62044586D01*
X138248604Y-62122894D01*
X138248605Y-62122894D01*
X138248608Y-62122896D01*
X138387576Y-62163699D01*
X138387578Y-62163700D01*
X138387579Y-62163700D01*
X138532422Y-62163700D01*
X138532422Y-62163699D01*
X138593143Y-62145870D01*
X138671391Y-62122896D01*
X138671392Y-62122895D01*
X138671396Y-62122894D01*
X138793246Y-62044586D01*
X138793248Y-62044584D01*
X138888094Y-61935125D01*
X138888095Y-61935123D01*
X138888097Y-61935121D01*
X138948267Y-61803368D01*
X138968880Y-61660000D01*
X138948267Y-61516632D01*
X138935287Y-61488210D01*
X138888099Y-61384882D01*
X138888094Y-61384874D01*
X138793248Y-61275415D01*
X138671391Y-61197103D01*
X138532423Y-61156300D01*
X138532421Y-61156300D01*
X138387579Y-61156300D01*
X138387576Y-61156300D01*
X138248608Y-61197103D01*
X138126751Y-61275415D01*
X138031905Y-61384874D01*
X138031900Y-61384882D01*
X137971734Y-61516628D01*
X137971732Y-61516636D01*
X137951120Y-61659999D01*
X128784801Y-61659999D01*
X127764429Y-60639627D01*
X127760784Y-60635648D01*
X127734495Y-60604317D01*
X127699072Y-60583865D01*
X127694510Y-60580959D01*
X127661008Y-60557501D01*
X127656580Y-60555436D01*
X127638696Y-60548028D01*
X127634108Y-60546358D01*
X127593821Y-60539253D01*
X127588541Y-60538082D01*
X127549040Y-60527498D01*
X127515719Y-60530414D01*
X127508289Y-60531064D01*
X127502888Y-60531300D01*
X126957109Y-60531300D01*
X126951705Y-60531064D01*
X126945185Y-60530493D01*
X126910958Y-60527498D01*
X126871459Y-60538082D01*
X126866179Y-60539253D01*
X126825899Y-60546356D01*
X126821285Y-60548036D01*
X126803418Y-60555436D01*
X126798991Y-60557500D01*
X126765488Y-60580959D01*
X126760927Y-60583865D01*
X126725505Y-60604317D01*
X126699214Y-60635649D01*
X126695559Y-60639637D01*
X126629198Y-60705999D01*
X126430165Y-60905032D01*
X126368845Y-60938516D01*
X126342486Y-60941350D01*
X126323960Y-60941350D01*
X126256921Y-60921665D01*
X126236279Y-60905031D01*
X124511252Y-59180004D01*
X133711242Y-59180004D01*
X133731443Y-59449578D01*
X133790948Y-59710284D01*
X133791600Y-59713141D01*
X133890365Y-59964791D01*
X134025534Y-60198910D01*
X134100781Y-60293266D01*
X134194090Y-60410272D01*
X134340755Y-60546356D01*
X134392258Y-60594144D01*
X134615621Y-60746430D01*
X134859186Y-60863725D01*
X135117513Y-60943409D01*
X135117514Y-60943409D01*
X135117517Y-60943410D01*
X135384823Y-60983699D01*
X135384828Y-60983699D01*
X135384831Y-60983700D01*
X135384832Y-60983700D01*
X135655168Y-60983700D01*
X135655169Y-60983700D01*
X135655176Y-60983699D01*
X135922482Y-60943410D01*
X135922483Y-60943409D01*
X135922487Y-60943409D01*
X136180814Y-60863725D01*
X136424379Y-60746430D01*
X136647742Y-60594144D01*
X136845913Y-60410268D01*
X137014466Y-60198910D01*
X137149635Y-59964791D01*
X137248400Y-59713141D01*
X137308556Y-59449581D01*
X137328758Y-59180000D01*
X137327452Y-59162575D01*
X137308556Y-58910421D01*
X137278207Y-58777452D01*
X137248400Y-58646859D01*
X137149635Y-58395209D01*
X137014466Y-58161090D01*
X136845913Y-57949732D01*
X136845912Y-57949731D01*
X136845909Y-57949727D01*
X136647742Y-57765856D01*
X136469868Y-57644584D01*
X136424379Y-57613570D01*
X136424376Y-57613569D01*
X136424374Y-57613567D01*
X136180814Y-57496275D01*
X135922488Y-57416591D01*
X135922482Y-57416589D01*
X135655176Y-57376300D01*
X135655169Y-57376300D01*
X135384831Y-57376300D01*
X135384823Y-57376300D01*
X135117517Y-57416589D01*
X135117511Y-57416591D01*
X134859185Y-57496275D01*
X134615625Y-57613567D01*
X134392257Y-57765856D01*
X134194090Y-57949727D01*
X134025534Y-58161090D01*
X133890365Y-58395208D01*
X133791602Y-58646853D01*
X133791597Y-58646870D01*
X133731443Y-58910421D01*
X133711242Y-59179995D01*
X133711242Y-59180004D01*
X124511252Y-59180004D01*
X124145018Y-58813770D01*
X124111533Y-58752447D01*
X124108699Y-58726098D01*
X124108700Y-56576080D01*
X124128385Y-56509041D01*
X124138981Y-56494885D01*
X124208097Y-56415121D01*
X124268267Y-56283368D01*
X124288880Y-56140000D01*
X124280253Y-56080000D01*
X126811143Y-56080000D01*
X126831725Y-56302122D01*
X126831725Y-56302124D01*
X126831726Y-56302127D01*
X126869066Y-56433363D01*
X126892775Y-56516693D01*
X126992205Y-56716375D01*
X126992210Y-56716383D01*
X127126645Y-56894404D01*
X127291500Y-57044688D01*
X127291502Y-57044690D01*
X127481162Y-57162122D01*
X127481168Y-57162125D01*
X127495900Y-57167832D01*
X127689181Y-57242710D01*
X127908461Y-57283700D01*
X127908464Y-57283700D01*
X128131536Y-57283700D01*
X128131539Y-57283700D01*
X128350819Y-57242710D01*
X128558834Y-57162124D01*
X128748499Y-57044689D01*
X128913356Y-56894402D01*
X129047791Y-56716381D01*
X129147226Y-56516690D01*
X129208274Y-56302127D01*
X129228857Y-56080000D01*
X141311143Y-56080000D01*
X141331725Y-56302122D01*
X141331725Y-56302124D01*
X141331726Y-56302127D01*
X141369066Y-56433363D01*
X141392775Y-56516693D01*
X141492205Y-56716375D01*
X141492210Y-56716383D01*
X141626645Y-56894404D01*
X141791500Y-57044688D01*
X141791502Y-57044690D01*
X141981162Y-57162122D01*
X141981168Y-57162125D01*
X141995900Y-57167832D01*
X142189181Y-57242710D01*
X142408461Y-57283700D01*
X142408464Y-57283700D01*
X142631536Y-57283700D01*
X142631539Y-57283700D01*
X142850819Y-57242710D01*
X143058834Y-57162124D01*
X143248499Y-57044689D01*
X143413356Y-56894402D01*
X143547791Y-56716381D01*
X143647226Y-56516690D01*
X143708274Y-56302127D01*
X143709398Y-56289999D01*
X145271120Y-56289999D01*
X145291732Y-56433363D01*
X145291734Y-56433371D01*
X145351900Y-56565117D01*
X145351905Y-56565125D01*
X145446751Y-56674584D01*
X145446753Y-56674585D01*
X145446754Y-56674586D01*
X145568604Y-56752894D01*
X145568605Y-56752894D01*
X145568608Y-56752896D01*
X145707576Y-56793699D01*
X145707578Y-56793700D01*
X145707579Y-56793700D01*
X145767486Y-56793700D01*
X145834525Y-56813385D01*
X145855167Y-56830019D01*
X146192982Y-57167834D01*
X146226466Y-57229155D01*
X146229300Y-57255513D01*
X146229300Y-63469633D01*
X146209615Y-63536672D01*
X146180788Y-63568008D01*
X146145268Y-63595263D01*
X146052504Y-63716155D01*
X145994196Y-63856925D01*
X145994195Y-63856929D01*
X145974306Y-64008000D01*
X145994195Y-64159070D01*
X145994196Y-64159074D01*
X146052504Y-64299844D01*
X146052505Y-64299846D01*
X146052506Y-64299847D01*
X146145266Y-64420734D01*
X146266153Y-64513494D01*
X146406929Y-64571805D01*
X146558000Y-64591694D01*
X146709071Y-64571805D01*
X146849847Y-64513494D01*
X146970734Y-64420734D01*
X147063494Y-64299847D01*
X147121805Y-64159071D01*
X147141694Y-64008000D01*
X147121805Y-63856929D01*
X147063494Y-63716153D01*
X146970734Y-63595266D01*
X146970732Y-63595264D01*
X146970731Y-63595263D01*
X146935212Y-63568008D01*
X146894010Y-63511579D01*
X146886700Y-63469633D01*
X146886700Y-57085059D01*
X146886936Y-57079652D01*
X146890501Y-57038909D01*
X146879913Y-56999397D01*
X146878747Y-56994141D01*
X146871642Y-56953844D01*
X146871640Y-56953842D01*
X146871640Y-56953837D01*
X146869958Y-56949217D01*
X146862587Y-56931421D01*
X146860500Y-56926944D01*
X146837038Y-56893436D01*
X146834131Y-56888872D01*
X146813685Y-56853459D01*
X146813684Y-56853458D01*
X146813683Y-56853456D01*
X146782343Y-56827158D01*
X146778359Y-56823507D01*
X146325199Y-56370346D01*
X146291714Y-56309023D01*
X146290605Y-56298712D01*
X146290142Y-56298779D01*
X146287926Y-56283368D01*
X146268267Y-56146632D01*
X146237837Y-56079999D01*
X146208099Y-56014882D01*
X146208094Y-56014874D01*
X146113248Y-55905415D01*
X145991391Y-55827103D01*
X145852423Y-55786300D01*
X145852421Y-55786300D01*
X145707579Y-55786300D01*
X145707576Y-55786300D01*
X145568608Y-55827103D01*
X145446751Y-55905415D01*
X145351905Y-56014874D01*
X145351900Y-56014882D01*
X145291734Y-56146628D01*
X145291732Y-56146636D01*
X145271120Y-56289999D01*
X143709398Y-56289999D01*
X143728857Y-56080000D01*
X143708274Y-55857873D01*
X143647226Y-55643310D01*
X143635152Y-55619062D01*
X143547794Y-55443624D01*
X143547789Y-55443616D01*
X143413354Y-55265595D01*
X143248499Y-55115311D01*
X143248497Y-55115309D01*
X143058837Y-54997877D01*
X143058831Y-54997874D01*
X142950762Y-54956008D01*
X142850819Y-54917290D01*
X142631539Y-54876300D01*
X142408461Y-54876300D01*
X142189181Y-54917290D01*
X142139209Y-54936649D01*
X141981168Y-54997874D01*
X141981162Y-54997877D01*
X141791502Y-55115309D01*
X141791500Y-55115311D01*
X141626645Y-55265595D01*
X141492210Y-55443616D01*
X141492205Y-55443624D01*
X141392775Y-55643306D01*
X141331725Y-55857877D01*
X141311143Y-56079999D01*
X141311143Y-56080000D01*
X129228857Y-56080000D01*
X129208274Y-55857873D01*
X129147226Y-55643310D01*
X129135152Y-55619062D01*
X129047794Y-55443624D01*
X129047789Y-55443616D01*
X128913354Y-55265595D01*
X128748499Y-55115311D01*
X128748497Y-55115309D01*
X128558837Y-54997877D01*
X128558831Y-54997874D01*
X128483725Y-54968778D01*
X128423961Y-54945625D01*
X128368562Y-54903054D01*
X128344971Y-54837287D01*
X128360682Y-54769207D01*
X128410706Y-54720428D01*
X128423953Y-54714377D01*
X128558834Y-54662124D01*
X128748499Y-54544689D01*
X128913356Y-54394402D01*
X129047791Y-54216381D01*
X129147226Y-54016690D01*
X129208274Y-53802127D01*
X129228857Y-53580000D01*
X129208274Y-53357873D01*
X129147226Y-53143310D01*
X129145647Y-53140139D01*
X129047794Y-52943624D01*
X129047789Y-52943616D01*
X128913354Y-52765595D01*
X128748499Y-52615311D01*
X128748497Y-52615309D01*
X128583466Y-52513127D01*
X128536830Y-52461099D01*
X128525726Y-52392118D01*
X128553679Y-52328083D01*
X128611814Y-52289327D01*
X128648743Y-52283700D01*
X129040066Y-52283700D01*
X129099476Y-52271882D01*
X129099477Y-52271881D01*
X129099480Y-52271881D01*
X129166860Y-52226860D01*
X129211881Y-52159480D01*
X129223700Y-52100064D01*
X129223700Y-51080000D01*
X141311143Y-51080000D01*
X141331725Y-51302122D01*
X141331725Y-51302124D01*
X141331726Y-51302127D01*
X141391048Y-51510622D01*
X141392775Y-51516693D01*
X141492205Y-51716375D01*
X141492210Y-51716383D01*
X141626645Y-51894404D01*
X141791500Y-52044688D01*
X141791502Y-52044690D01*
X141981162Y-52162122D01*
X141981168Y-52162125D01*
X142010216Y-52173378D01*
X142189181Y-52242710D01*
X142408461Y-52283700D01*
X142408464Y-52283700D01*
X142631536Y-52283700D01*
X142631539Y-52283700D01*
X142850819Y-52242710D01*
X143058834Y-52162124D01*
X143248499Y-52044689D01*
X143413356Y-51894402D01*
X143547791Y-51716381D01*
X143647226Y-51516690D01*
X143708274Y-51302127D01*
X143728857Y-51080000D01*
X143708274Y-50857873D01*
X143647226Y-50643310D01*
X143610610Y-50569776D01*
X143547794Y-50443624D01*
X143547789Y-50443616D01*
X143413354Y-50265595D01*
X143248499Y-50115311D01*
X143248497Y-50115309D01*
X143058837Y-49997877D01*
X143058831Y-49997874D01*
X142950762Y-49956008D01*
X142850819Y-49917290D01*
X142631539Y-49876300D01*
X142408461Y-49876300D01*
X142189181Y-49917290D01*
X142148268Y-49933140D01*
X141981168Y-49997874D01*
X141981162Y-49997877D01*
X141791502Y-50115309D01*
X141791500Y-50115311D01*
X141626645Y-50265595D01*
X141492210Y-50443616D01*
X141492205Y-50443624D01*
X141392775Y-50643306D01*
X141392773Y-50643310D01*
X141392774Y-50643310D01*
X141338268Y-50834882D01*
X141331725Y-50857877D01*
X141311143Y-51079999D01*
X141311143Y-51080000D01*
X129223700Y-51080000D01*
X129223700Y-50059936D01*
X129223700Y-50059935D01*
X129223700Y-50059933D01*
X129211882Y-50000523D01*
X129211881Y-50000520D01*
X129210113Y-49997874D01*
X129166860Y-49933140D01*
X129099480Y-49888119D01*
X129099479Y-49888118D01*
X129099476Y-49888117D01*
X129040066Y-49876300D01*
X129040064Y-49876300D01*
X126999936Y-49876300D01*
X126999934Y-49876300D01*
X126940523Y-49888117D01*
X126940520Y-49888118D01*
X126873140Y-49933140D01*
X126828118Y-50000520D01*
X126828117Y-50000523D01*
X126816300Y-50059933D01*
X126816300Y-50059935D01*
X126816300Y-50059936D01*
X126816300Y-52100064D01*
X126816300Y-52100066D01*
X126816299Y-52100066D01*
X126828117Y-52159476D01*
X126828118Y-52159479D01*
X126829886Y-52162125D01*
X126873140Y-52226860D01*
X126940520Y-52271880D01*
X126940520Y-52271881D01*
X126940523Y-52271882D01*
X126999933Y-52283700D01*
X127391257Y-52283700D01*
X127458296Y-52303385D01*
X127504051Y-52356189D01*
X127513995Y-52425347D01*
X127484970Y-52488903D01*
X127456534Y-52513127D01*
X127291502Y-52615309D01*
X127291500Y-52615311D01*
X127126645Y-52765595D01*
X126992210Y-52943616D01*
X126992205Y-52943624D01*
X126892775Y-53143306D01*
X126831725Y-53357877D01*
X126811143Y-53579999D01*
X126811143Y-53580000D01*
X126831725Y-53802122D01*
X126831725Y-53802124D01*
X126831726Y-53802127D01*
X126845491Y-53850506D01*
X126892775Y-54016693D01*
X126992205Y-54216375D01*
X126992210Y-54216383D01*
X127126645Y-54394404D01*
X127291500Y-54544688D01*
X127291502Y-54544690D01*
X127481162Y-54662122D01*
X127481164Y-54662123D01*
X127481166Y-54662124D01*
X127616037Y-54714373D01*
X127671437Y-54756945D01*
X127695028Y-54822711D01*
X127679317Y-54890792D01*
X127629294Y-54939571D01*
X127616037Y-54945625D01*
X127481174Y-54997871D01*
X127481162Y-54997877D01*
X127291502Y-55115309D01*
X127291500Y-55115311D01*
X127126645Y-55265595D01*
X126992210Y-55443616D01*
X126992205Y-55443624D01*
X126892775Y-55643306D01*
X126831725Y-55857877D01*
X126811143Y-56079999D01*
X126811143Y-56080000D01*
X124280253Y-56080000D01*
X124268267Y-55996632D01*
X124255287Y-55968210D01*
X124208099Y-55864882D01*
X124208094Y-55864874D01*
X124113248Y-55755415D01*
X123991391Y-55677103D01*
X123852423Y-55636300D01*
X123852421Y-55636300D01*
X123707579Y-55636300D01*
X123707576Y-55636300D01*
X123637633Y-55656837D01*
X123567764Y-55656837D01*
X123508986Y-55619062D01*
X123479961Y-55555506D01*
X123478699Y-55537860D01*
X123478699Y-53943266D01*
X123478699Y-52067509D01*
X123498384Y-52000474D01*
X123515013Y-51979837D01*
X123844832Y-51650019D01*
X123906155Y-51616534D01*
X123932513Y-51613700D01*
X124062422Y-51613700D01*
X124062422Y-51613699D01*
X124123143Y-51595870D01*
X124201391Y-51572896D01*
X124201392Y-51572895D01*
X124201396Y-51572894D01*
X124323246Y-51494586D01*
X124351325Y-51462181D01*
X124418094Y-51385125D01*
X124418095Y-51385123D01*
X124418097Y-51385121D01*
X124478267Y-51253368D01*
X124498880Y-51110000D01*
X124478267Y-50966632D01*
X124448851Y-50902221D01*
X124418099Y-50834882D01*
X124418094Y-50834874D01*
X124323248Y-50725415D01*
X124201391Y-50647103D01*
X124062423Y-50606300D01*
X124062421Y-50606300D01*
X123917579Y-50606300D01*
X123917576Y-50606300D01*
X123778608Y-50647103D01*
X123656751Y-50725415D01*
X123561905Y-50834874D01*
X123561902Y-50834880D01*
X123501733Y-50966630D01*
X123501732Y-50966635D01*
X123491354Y-51038816D01*
X123462329Y-51102371D01*
X123456297Y-51108849D01*
X123024130Y-51541016D01*
X122962807Y-51574501D01*
X122893115Y-51569517D01*
X122837182Y-51527645D01*
X122812765Y-51462181D01*
X122812449Y-51453409D01*
X122810887Y-47980004D01*
X133711242Y-47980004D01*
X133731443Y-48249578D01*
X133731444Y-48249581D01*
X133791600Y-48513141D01*
X133890365Y-48764791D01*
X134025534Y-48998910D01*
X134146604Y-49150726D01*
X134194090Y-49210272D01*
X134381163Y-49383849D01*
X134392258Y-49394144D01*
X134615621Y-49546430D01*
X134859186Y-49663725D01*
X135117513Y-49743409D01*
X135117514Y-49743409D01*
X135117517Y-49743410D01*
X135384823Y-49783699D01*
X135384828Y-49783699D01*
X135384831Y-49783700D01*
X135384832Y-49783700D01*
X135655168Y-49783700D01*
X135655169Y-49783700D01*
X135655176Y-49783699D01*
X135922482Y-49743410D01*
X135922483Y-49743409D01*
X135922487Y-49743409D01*
X136180814Y-49663725D01*
X136424379Y-49546430D01*
X136647742Y-49394144D01*
X136845913Y-49210268D01*
X137014466Y-48998910D01*
X137149635Y-48764791D01*
X137248400Y-48513141D01*
X137308556Y-48249581D01*
X137324635Y-48035019D01*
X137328758Y-47980004D01*
X137328758Y-47979995D01*
X137308556Y-47710421D01*
X137308556Y-47710419D01*
X137248400Y-47446859D01*
X137149635Y-47195209D01*
X137014466Y-46961090D01*
X136845913Y-46749732D01*
X136845912Y-46749731D01*
X136845909Y-46749727D01*
X136647742Y-46565856D01*
X136615480Y-46543860D01*
X136424379Y-46413570D01*
X136424376Y-46413569D01*
X136424374Y-46413567D01*
X136180814Y-46296275D01*
X135922488Y-46216591D01*
X135922482Y-46216589D01*
X135655176Y-46176300D01*
X135655169Y-46176300D01*
X135384831Y-46176300D01*
X135384823Y-46176300D01*
X135117517Y-46216589D01*
X135117511Y-46216591D01*
X134859185Y-46296275D01*
X134615625Y-46413567D01*
X134392257Y-46565856D01*
X134194090Y-46749727D01*
X134025534Y-46961090D01*
X133890365Y-47195208D01*
X133791602Y-47446853D01*
X133791597Y-47446870D01*
X133731443Y-47710421D01*
X133711242Y-47979995D01*
X133711242Y-47980004D01*
X122810887Y-47980004D01*
X122810501Y-47122448D01*
X122810692Y-47117557D01*
X122814977Y-47063110D01*
X122818195Y-47026326D01*
X122826997Y-46925718D01*
X122829946Y-46907607D01*
X122848971Y-46828363D01*
X122878065Y-46719786D01*
X122880662Y-46712136D01*
X122916023Y-46626767D01*
X122961347Y-46529570D01*
X122964648Y-46523428D01*
X123013372Y-46443917D01*
X123015391Y-46440839D01*
X123074993Y-46355718D01*
X123078604Y-46351055D01*
X123139682Y-46279542D01*
X123142939Y-46276019D01*
X123216019Y-46202939D01*
X123219542Y-46199682D01*
X123291055Y-46138604D01*
X123295718Y-46134993D01*
X123380839Y-46075391D01*
X123383917Y-46073372D01*
X123463428Y-46024648D01*
X123469570Y-46021347D01*
X123566767Y-45976023D01*
X123652136Y-45940662D01*
X123659786Y-45938065D01*
X123768363Y-45908971D01*
X123847607Y-45889946D01*
X123865716Y-45886997D01*
X124002995Y-45874986D01*
X124057573Y-45870690D01*
X124062438Y-45870500D01*
X124111300Y-45870500D01*
X124111779Y-45870445D01*
X186589542Y-45805774D01*
X216913647Y-45774386D01*
X216918577Y-45774577D01*
G37*
%TD.AperFunction*%
%TD*%
M02*
