M48
; DRILL file {KiCad 7.0.7} date Sun Dec 10 19:04:38 2023
; FORMAT={-:-/ absolute / inch / decimal}
; #@! TF.CreationDate,2023-12-10T19:04:38-06:00
; #@! TF.GenerationSoftware,Kicad,Pcbnew,7.0.7
; #@! TF.FileFunction,Plated,1,4,PTH
FMAT,2
INCH
; #@! TA.AperFunction,Plated,PTH,ViaDrill
T1C0.0157
; #@! TA.AperFunction,Plated,PTH,ComponentDrill
T2C0.0236
; #@! TA.AperFunction,Plated,PTH,ComponentDrill
T3C0.0394
; #@! TA.AperFunction,Plated,PTH,ComponentDrill
T4C0.0400
; #@! TA.AperFunction,Plated,PTH,ComponentDrill
T5C0.1024
; #@! TA.AperFunction,Plated,PTH,ComponentDrill
T6C0.2165
%
G90
G05
T1
X4.8732Y-2.2102
X4.8815Y-2.0122
X4.8969Y-5.9071
X4.904Y-4.0169
X4.9819Y-4.8362
X5.0091Y-2.4236
X5.0335Y-1.8858
X5.0713Y-3.998
X5.1295Y-2.3091
X5.1311Y-2.3709
X5.1638Y-4.7114
X5.165Y-4.248
X5.1744Y-4.8331
X5.2037Y-2.6435
X5.2086Y-4.5966
X5.2382Y-4.9
X5.2701Y-3.5831
X5.2827Y-2.6496
X5.3311Y-4.5551
X5.4512Y-2.4276
X5.5441Y-3.0339
X5.5528Y-4.2307
X5.5528Y-5.3339
X5.5563Y-5.398
X5.5853Y-4.2567
X5.5885Y-3.2146
X5.5972Y-3.1669
X5.6Y-4.69
X5.6058Y-4.1717
X5.6161Y-4.2874
X5.6281Y-4.194
X5.6445Y-4.3177
X5.6553Y-4.2211
X5.6626Y-3.3413
X5.6849Y-4.2439
X5.689Y-3.0656
X5.6914Y-2.9733
X5.7079Y-3.3362
X5.712Y-3.0079
X5.7177Y-3.1612
X5.7394Y-2.2161
X5.7502Y-3.335
X5.77Y-2.52
X5.79Y-3.27
X5.8268Y-2.3579
X5.839Y-2.748
X5.8402Y-3.0972
X5.8689Y-2.0339
X5.87Y-2.52
X5.88Y-2.65
X5.8988Y-3.2921
X5.9728Y-4.2331
X5.9925Y-4.839
X6.0Y-3.4787
X6.0055Y-3.5714
X6.0102Y-2.6193
X6.0169Y-4.6874
X6.0195Y-3.4468
X6.06Y-3.4464
X6.074Y-4.7693
X6.0815Y-4.5661
X6.0828Y-2.4772
X6.0971Y-3.4287
X6.1094Y-4.8193
X6.1161Y-3.2457
X6.1173Y-2.5122
X6.1268Y-2.8862
X6.1378Y-4.6803
X6.1543Y-3.5163
X6.1819Y-2.9138
X6.187Y-3.4602
X6.1882Y-3.4917
X6.1886Y-3.3961
X6.1886Y-3.4276
X6.1902Y-4.4705
X6.22Y-2.14
X6.25Y-2.39
X6.3622Y-4.3343
X6.4161Y-5.828
X6.4165Y-3.7583
X6.4319Y-5.7449
X6.4571Y-5.4146
X6.47Y-4.48
X6.5386Y-4.8996
X6.5622Y-5.2886
X6.5925Y-3.4945
X6.5996Y-2.0882
X6.6004Y-1.8768
X6.6047Y-4.6232
X6.6142Y-5.6469
X6.7382Y-5.6516
X6.7929Y-5.2602
X6.7933Y-4.5713
X6.8628Y-5.2789
X6.8705Y-5.4988
X6.8771Y-3.5551
X6.8965Y-5.6394
X7.0339Y-5.3484
X7.0382Y-5.4114
X7.0461Y-3.6209
X7.0669Y-4.4059
X7.1329Y-5.3815
X7.1858Y-5.6095
X7.2008Y-3.5398
X7.2165Y-5.3429
X7.2236Y-5.4055
X7.2969Y-3.9071
X7.3358Y-5.1559
X7.3389Y-5.4395
X7.3441Y-3.4429
X7.3925Y-3.6516
X7.3929Y-5.0638
X7.4689Y-5.8752
X7.5315Y-5.3065
X7.55Y-5.405
X7.5543Y-3.752
X7.6728Y-6.1528
X7.772Y-5.1748
X7.835Y-5.5882
X7.8516Y-5.3768
X8.0205Y-3.4276
X8.0685Y-3.4457
X8.0724Y-5.1626
X8.089Y-5.0638
X8.14Y-5.11
X8.16Y-5.14
X8.21Y-5.05
X8.25Y-5.06
X8.2862Y-6.1244
X8.2937Y-2.4921
X8.3476Y-2.2543
X8.38Y-4.8
X8.38Y-5.05
X8.48Y-4.8
X8.48Y-5.05
T3
X5.0402Y-2.011
X5.0402Y-2.1094
X5.0402Y-2.2079
X5.05Y-5.8768
X5.05Y-5.9752
X5.05Y-6.0736
X5.611Y-2.011
X5.611Y-2.2079
X5.6209Y-5.8768
X5.6209Y-6.0736
X6.6157Y-5.0528
X6.7157Y-5.0528
X6.8157Y-5.0528
X6.9157Y-5.0528
X7.0157Y-5.0528
X7.1157Y-5.0528
X7.2157Y-5.0528
T4
X8.2945Y-2.5689
X8.2945Y-2.6689
X8.2945Y-2.7689
X8.3945Y-2.5689
X8.3945Y-2.6689
X8.3945Y-2.7689
T5
X5.3354Y-1.889
X5.3354Y-2.3299
X5.3453Y-5.7547
X5.3453Y-6.1957
T6
X8.4398Y-1.9492
X8.4524Y-6.1287
T2
G00X6.5252Y-6.0346
M15
G01X6.5252Y-5.9913
M16
G05
G00X6.5252Y-6.1921
M15
G01X6.5252Y-6.1606
M16
G05
G00X6.8654Y-6.0346
M15
G01X6.8654Y-5.9913
M16
G05
G00X6.8654Y-6.1921
M15
G01X6.8654Y-6.1606
M16
G05
T0
M30
